<?xml version="1.0" encoding="UTF-8" standalone="no"?>
<!DOCTYPE svg PUBLIC "-//W3C//DTD SVG 1.1//EN"
 "http://www.w3.org/Graphics/SVG/1.1/DTD/svg11.dtd">
<!-- Generated by graphviz version 2.38.0 (20140413.2041)
 -->
<!-- Title: de.tu_clausthal.in.bachelorproject2018.poker.game.player.CPlayer.resetFolded Pages: 1 -->
<svg width="956pt" height="131pt"
 viewBox="0.00 0.00 956.00 131.00" xmlns="http://www.w3.org/2000/svg" xmlns:xlink="http://www.w3.org/1999/xlink">
<g id="graph0" class="graph" transform="scale(1 1) rotate(0) translate(4 127)">
<title>de.tu_clausthal.in.bachelorproject2018.poker.game.player.CPlayer.resetFolded</title>
<!-- Node50 -->
<g id="node1" class="node"><title>Node50</title>
<polygon fill="#bfbfbf" stroke="black" points="0,-47.5 0,-75.5 293,-75.5 293,-47.5 0,-47.5"/>
<text text-anchor="start" x="8" y="-64.3" font-family="Helvetica,sans-Serif" font-size="9.00">de.tu_clausthal.in.bachelorproject2018.poker.game.player.</text>
<text text-anchor="middle" x="146.5" y="-54.3" font-family="Helvetica,sans-Serif" font-size="9.00">CPlayer.resetFolded</text>
</g>
<!-- Node51 -->
<g id="node2" class="node"><title>Node51</title>
<g id="a_node2"><a xlink:href="../../da/d96/classde_1_1tu__clausthal_1_1in_1_1bachelorproject2018_1_1poker_1_1game_1_1player_1_1CPlayer.htm#ab95ea6b7dbd724a0cc46bccf66bca729" target="_top" xlink:title="fold this round, count down the counter of players still in this round ">
<polygon fill="none" stroke="black" points="329,-47.5 329,-75.5 622,-75.5 622,-47.5 329,-47.5"/>
<text text-anchor="start" x="337" y="-64.3" font-family="Helvetica,sans-Serif" font-size="9.00">de.tu_clausthal.in.bachelorproject2018.poker.game.player.</text>
<text text-anchor="middle" x="475.5" y="-54.3" font-family="Helvetica,sans-Serif" font-size="9.00">CPlayer.fold</text>
</a>
</g>
</g>
<!-- Node50&#45;&gt;Node51 -->
<g id="edge1" class="edge"><title>Node50&#45;&gt;Node51</title>
<path fill="none" stroke="midnightblue" d="M293.308,-61.5C301.815,-61.5 310.388,-61.5 318.931,-61.5"/>
<polygon fill="midnightblue" stroke="midnightblue" points="318.941,-65.0001 328.941,-61.5 318.941,-58.0001 318.941,-65.0001"/>
</g>
<!-- Node52 -->
<g id="node3" class="node"><title>Node52</title>
<g id="a_node3"><a xlink:href="../../da/d48/classde_1_1tu__clausthal_1_1in_1_1bachelorproject2018_1_1poker_1_1game_1_1hubs_1_1GameHub.htm#a70d72ce0a72b5c0e490bf935258b69f4" target="_top" xlink:title="getter for the chipsHandler ">
<polygon fill="none" stroke="black" points="658.5,-94.5 658.5,-122.5 947.5,-122.5 947.5,-94.5 658.5,-94.5"/>
<text text-anchor="start" x="666.5" y="-111.3" font-family="Helvetica,sans-Serif" font-size="9.00">de.tu_clausthal.in.bachelorproject2018.poker.game.hubs.</text>
<text text-anchor="middle" x="803" y="-101.3" font-family="Helvetica,sans-Serif" font-size="9.00">GameHub.getChipsHandler</text>
</a>
</g>
</g>
<!-- Node51&#45;&gt;Node52 -->
<g id="edge2" class="edge"><title>Node51&#45;&gt;Node52</title>
<path fill="none" stroke="midnightblue" d="M573.72,-75.5379C611.81,-81.0379 655.649,-87.3679 694.664,-93.0014"/>
<polygon fill="midnightblue" stroke="midnightblue" points="694.602,-96.5287 705,-94.4939 695.603,-89.6006 694.602,-96.5287"/>
</g>
<!-- Node53 -->
<g id="node4" class="node"><title>Node53</title>
<g id="a_node4"><a xlink:href="../../d5/d36/interfacede_1_1tu__clausthal_1_1in_1_1bachelorproject2018_1_1poker_1_1game_1_1table_1_1ITable.htm#ad5910542f67b66837a7e3c326d22a671" target="_top" xlink:title="de.tu_clausthal.in.bachelorproject2018.poker.game.table.\lITable.getGameHub">
<polygon fill="none" stroke="black" points="658,-47.5 658,-75.5 948,-75.5 948,-47.5 658,-47.5"/>
<text text-anchor="start" x="666" y="-64.3" font-family="Helvetica,sans-Serif" font-size="9.00">de.tu_clausthal.in.bachelorproject2018.poker.game.table.</text>
<text text-anchor="middle" x="803" y="-54.3" font-family="Helvetica,sans-Serif" font-size="9.00">ITable.getGameHub</text>
</a>
</g>
</g>
<!-- Node51&#45;&gt;Node53 -->
<g id="edge3" class="edge"><title>Node51&#45;&gt;Node53</title>
<path fill="none" stroke="midnightblue" d="M622.113,-61.5C630.63,-61.5 639.209,-61.5 647.758,-61.5"/>
<polygon fill="midnightblue" stroke="midnightblue" points="647.772,-65.0001 657.772,-61.5 647.772,-58.0001 647.772,-65.0001"/>
</g>
<!-- Node54 -->
<g id="node5" class="node"><title>Node54</title>
<g id="a_node5"><a xlink:href="../../dd/dfe/classde_1_1tu__clausthal_1_1in_1_1bachelorproject2018_1_1poker_1_1game_1_1hubs_1_1ChipsHandling.htm#a3801cd826fbf6e0afa574cdd4a0bf46e" target="_top" xlink:title="counting down how many are still in the round used to check, if at least 2 players are playing the ro...">
<polygon fill="none" stroke="black" points="658.5,-0.5 658.5,-28.5 947.5,-28.5 947.5,-0.5 658.5,-0.5"/>
<text text-anchor="start" x="666.5" y="-17.3" font-family="Helvetica,sans-Serif" font-size="9.00">de.tu_clausthal.in.bachelorproject2018.poker.game.hubs.</text>
<text text-anchor="middle" x="803" y="-7.3" font-family="Helvetica,sans-Serif" font-size="9.00">ChipsHandling.somebodyHasFolded</text>
</a>
</g>
</g>
<!-- Node51&#45;&gt;Node54 -->
<g id="edge4" class="edge"><title>Node51&#45;&gt;Node54</title>
<path fill="none" stroke="midnightblue" d="M573.72,-47.4621C611.81,-41.9621 655.649,-35.6321 694.664,-29.9986"/>
<polygon fill="midnightblue" stroke="midnightblue" points="695.603,-33.3994 705,-28.5061 694.602,-26.4713 695.603,-33.3994"/>
</g>
</g>
</svg>
