<?xml version="1.0" encoding="UTF-8" standalone="no"?>
<!DOCTYPE svg PUBLIC "-//W3C//DTD SVG 1.1//EN"
 "http://www.w3.org/Graphics/SVG/1.1/DTD/svg11.dtd">
<!-- Generated by graphviz version 2.38.0 (20140413.2041)
 -->
<!-- Title: de.tu_clausthal.in.bachelorproject2018.poker.game.player.CPlayer.fold Pages: 1 -->
<svg width="630pt" height="84pt"
 viewBox="0.00 0.00 630.00 84.00" xmlns="http://www.w3.org/2000/svg" xmlns:xlink="http://www.w3.org/1999/xlink">
<g id="graph0" class="graph" transform="scale(1 1) rotate(0) translate(4 80)">
<title>de.tu_clausthal.in.bachelorproject2018.poker.game.player.CPlayer.fold</title>
<!-- Node21 -->
<g id="node1" class="node"><title>Node21</title>
<polygon fill="#bfbfbf" stroke="black" points="0,-23.5 0,-51.5 293,-51.5 293,-23.5 0,-23.5"/>
<text text-anchor="start" x="8" y="-40.3" font-family="Helvetica,sans-Serif" font-size="9.00">de.tu_clausthal.in.bachelorproject2018.poker.game.player.</text>
<text text-anchor="middle" x="146.5" y="-30.3" font-family="Helvetica,sans-Serif" font-size="9.00">CPlayer.fold</text>
</g>
<!-- Node22 -->
<g id="node2" class="node"><title>Node22</title>
<g id="a_node2"><a xlink:href="../../da/d96/classde_1_1tu__clausthal_1_1in_1_1bachelorproject2018_1_1poker_1_1game_1_1player_1_1CPlayer.htm#aeb1018b7db2a234dc71b5b2049732fde" target="_top" xlink:title="check if the player has folded ">
<polygon fill="none" stroke="black" points="329,-47.5 329,-75.5 622,-75.5 622,-47.5 329,-47.5"/>
<text text-anchor="start" x="337" y="-64.3" font-family="Helvetica,sans-Serif" font-size="9.00">de.tu_clausthal.in.bachelorproject2018.poker.game.player.</text>
<text text-anchor="middle" x="475.5" y="-54.3" font-family="Helvetica,sans-Serif" font-size="9.00">CPlayer.checkfolded</text>
</a>
</g>
</g>
<!-- Node21&#45;&gt;Node22 -->
<g id="edge1" class="edge"><title>Node21&#45;&gt;Node22</title>
<path fill="none" stroke="midnightblue" d="M303.319,-48.9363C311.863,-49.5633 320.435,-50.1925 328.941,-50.8168"/>
<polygon fill="midnightblue" stroke="midnightblue" points="303.537,-45.4429 293.308,-48.2015 303.025,-52.4242 303.537,-45.4429"/>
</g>
<!-- Node23 -->
<g id="node3" class="node"><title>Node23</title>
<g id="a_node3"><a xlink:href="../../da/d96/classde_1_1tu__clausthal_1_1in_1_1bachelorproject2018_1_1poker_1_1game_1_1player_1_1CPlayer.htm#a1960222964e1ced4ea8f86e7a435e361" target="_top" xlink:title="de.tu_clausthal.in.bachelorproject2018.poker.game.player.\lCPlayer.resetFolded">
<polygon fill="none" stroke="black" points="329,-0.5 329,-28.5 622,-28.5 622,-0.5 329,-0.5"/>
<text text-anchor="start" x="337" y="-17.3" font-family="Helvetica,sans-Serif" font-size="9.00">de.tu_clausthal.in.bachelorproject2018.poker.game.player.</text>
<text text-anchor="middle" x="475.5" y="-7.3" font-family="Helvetica,sans-Serif" font-size="9.00">CPlayer.resetFolded</text>
</a>
</g>
</g>
<!-- Node21&#45;&gt;Node23 -->
<g id="edge2" class="edge"><title>Node21&#45;&gt;Node23</title>
<path fill="none" stroke="midnightblue" d="M303.319,-26.5403C311.863,-25.9393 320.435,-25.3364 328.941,-24.7381"/>
<polygon fill="midnightblue" stroke="midnightblue" points="303.037,-23.0513 293.308,-27.2444 303.529,-30.0341 303.037,-23.0513"/>
</g>
</g>
</svg>
