<?xml version="1.0" encoding="UTF-8" standalone="no"?>
<!DOCTYPE svg PUBLIC "-//W3C//DTD SVG 1.1//EN"
 "http://www.w3.org/Graphics/SVG/1.1/DTD/svg11.dtd">
<!-- Generated by graphviz version 2.38.0 (20140413.2041)
 -->
<!-- Title: de.tu_clausthal.in.bachelorproject2018.poker.game.player.CPlayer.fold Pages: 1 -->
<svg width="627pt" height="131pt"
 viewBox="0.00 0.00 627.00 131.00" xmlns="http://www.w3.org/2000/svg" xmlns:xlink="http://www.w3.org/1999/xlink">
<g id="graph0" class="graph" transform="scale(1 1) rotate(0) translate(4 127)">
<title>de.tu_clausthal.in.bachelorproject2018.poker.game.player.CPlayer.fold</title>
<!-- Node17 -->
<g id="node1" class="node"><title>Node17</title>
<polygon fill="#bfbfbf" stroke="black" points="0,-47.5 0,-75.5 293,-75.5 293,-47.5 0,-47.5"/>
<text text-anchor="start" x="8" y="-64.3" font-family="Helvetica,sans-Serif" font-size="9.00">de.tu_clausthal.in.bachelorproject2018.poker.game.player.</text>
<text text-anchor="middle" x="146.5" y="-54.3" font-family="Helvetica,sans-Serif" font-size="9.00">CPlayer.fold</text>
</g>
<!-- Node18 -->
<g id="node2" class="node"><title>Node18</title>
<g id="a_node2"><a xlink:href="../../da/d48/classde_1_1tu__clausthal_1_1in_1_1bachelorproject2018_1_1poker_1_1game_1_1hubs_1_1GameHub.htm#a70d72ce0a72b5c0e490bf935258b69f4" target="_top" xlink:title="getter for the chipsHandler ">
<polygon fill="none" stroke="black" points="329.5,-94.5 329.5,-122.5 618.5,-122.5 618.5,-94.5 329.5,-94.5"/>
<text text-anchor="start" x="337.5" y="-111.3" font-family="Helvetica,sans-Serif" font-size="9.00">de.tu_clausthal.in.bachelorproject2018.poker.game.hubs.</text>
<text text-anchor="middle" x="474" y="-101.3" font-family="Helvetica,sans-Serif" font-size="9.00">GameHub.getChipsHandler</text>
</a>
</g>
</g>
<!-- Node17&#45;&gt;Node18 -->
<g id="edge1" class="edge"><title>Node17&#45;&gt;Node18</title>
<path fill="none" stroke="midnightblue" d="M244.72,-75.5379C282.81,-81.0379 326.649,-87.3679 365.664,-93.0014"/>
<polygon fill="midnightblue" stroke="midnightblue" points="365.602,-96.5287 376,-94.4939 366.603,-89.6006 365.602,-96.5287"/>
</g>
<!-- Node19 -->
<g id="node3" class="node"><title>Node19</title>
<g id="a_node3"><a xlink:href="../../d5/d36/interfacede_1_1tu__clausthal_1_1in_1_1bachelorproject2018_1_1poker_1_1game_1_1table_1_1ITable.htm#ad5910542f67b66837a7e3c326d22a671" target="_top" xlink:title="de.tu_clausthal.in.bachelorproject2018.poker.game.table.\lITable.getGameHub">
<polygon fill="none" stroke="black" points="329,-47.5 329,-75.5 619,-75.5 619,-47.5 329,-47.5"/>
<text text-anchor="start" x="337" y="-64.3" font-family="Helvetica,sans-Serif" font-size="9.00">de.tu_clausthal.in.bachelorproject2018.poker.game.table.</text>
<text text-anchor="middle" x="474" y="-54.3" font-family="Helvetica,sans-Serif" font-size="9.00">ITable.getGameHub</text>
</a>
</g>
</g>
<!-- Node17&#45;&gt;Node19 -->
<g id="edge2" class="edge"><title>Node17&#45;&gt;Node19</title>
<path fill="none" stroke="midnightblue" d="M293.113,-61.5C301.63,-61.5 310.209,-61.5 318.758,-61.5"/>
<polygon fill="midnightblue" stroke="midnightblue" points="318.772,-65.0001 328.772,-61.5 318.772,-58.0001 318.772,-65.0001"/>
</g>
<!-- Node20 -->
<g id="node4" class="node"><title>Node20</title>
<g id="a_node4"><a xlink:href="../../dd/dfe/classde_1_1tu__clausthal_1_1in_1_1bachelorproject2018_1_1poker_1_1game_1_1hubs_1_1ChipsHandling.htm#a3801cd826fbf6e0afa574cdd4a0bf46e" target="_top" xlink:title="counting down how many are still in the round used to check, if at least 2 players are playing the ro...">
<polygon fill="none" stroke="black" points="329.5,-0.5 329.5,-28.5 618.5,-28.5 618.5,-0.5 329.5,-0.5"/>
<text text-anchor="start" x="337.5" y="-17.3" font-family="Helvetica,sans-Serif" font-size="9.00">de.tu_clausthal.in.bachelorproject2018.poker.game.hubs.</text>
<text text-anchor="middle" x="474" y="-7.3" font-family="Helvetica,sans-Serif" font-size="9.00">ChipsHandling.somebodyHasFolded</text>
</a>
</g>
</g>
<!-- Node17&#45;&gt;Node20 -->
<g id="edge3" class="edge"><title>Node17&#45;&gt;Node20</title>
<path fill="none" stroke="midnightblue" d="M244.72,-47.4621C282.81,-41.9621 326.649,-35.6321 365.664,-29.9986"/>
<polygon fill="midnightblue" stroke="midnightblue" points="366.603,-33.3994 376,-28.5061 365.602,-26.4713 366.603,-33.3994"/>
</g>
</g>
</svg>
