<?xml version="1.0" encoding="UTF-8" standalone="no"?>
<!DOCTYPE svg PUBLIC "-//W3C//DTD SVG 1.1//EN"
 "http://www.w3.org/Graphics/SVG/1.1/DTD/svg11.dtd">
<!-- Generated by graphviz version 2.38.0 (20140413.2041)
 -->
<!-- Title: de.tu_clausthal.in.bachelorproject2018.poker.game.player.CPlayer.message Pages: 1 -->
<svg width="570pt" height="84pt"
 viewBox="0.00 0.00 570.00 84.00" xmlns="http://www.w3.org/2000/svg" xmlns:xlink="http://www.w3.org/1999/xlink">
<g id="graph0" class="graph" transform="scale(1 1) rotate(0) translate(4 80)">
<title>de.tu_clausthal.in.bachelorproject2018.poker.game.player.CPlayer.message</title>
<!-- Node40 -->
<g id="node1" class="node"><title>Node40</title>
<polygon fill="#bfbfbf" stroke="black" points="0,-23.5 0,-51.5 293,-51.5 293,-23.5 0,-23.5"/>
<text text-anchor="start" x="8" y="-40.3" font-family="Helvetica,sans-Serif" font-size="9.00">de.tu_clausthal.in.bachelorproject2018.poker.game.player.</text>
<text text-anchor="middle" x="146.5" y="-30.3" font-family="Helvetica,sans-Serif" font-size="9.00">CPlayer.message</text>
</g>
<!-- Node41 -->
<g id="node2" class="node"><title>Node41</title>
<g id="a_node2"><a xlink:href="../../d3/de4/classde_1_1tu__clausthal_1_1in_1_1bachelorproject2018_1_1poker_1_1CApplication_1_1CGlobal.htm#a17adb59f014621c0dbbafd6b9b95bdda" target="_top" xlink:title="returns the application context ">
<polygon fill="none" stroke="black" points="329,-47.5 329,-75.5 562,-75.5 562,-47.5 329,-47.5"/>
<text text-anchor="start" x="337" y="-64.3" font-family="Helvetica,sans-Serif" font-size="9.00">de.tu_clausthal.in.bachelorproject2018.poker.</text>
<text text-anchor="middle" x="445.5" y="-54.3" font-family="Helvetica,sans-Serif" font-size="9.00">CApplication.CGlobal.context</text>
</a>
</g>
</g>
<!-- Node40&#45;&gt;Node41 -->
<g id="edge1" class="edge"><title>Node40&#45;&gt;Node41</title>
<path fill="none" stroke="midnightblue" d="M293.39,-49.2891C301.838,-49.9717 310.297,-50.6553 318.658,-51.3309"/>
<polygon fill="midnightblue" stroke="midnightblue" points="318.551,-54.8336 328.8,-52.1505 319.114,-47.8563 318.551,-54.8336"/>
</g>
<!-- Node42 -->
<g id="node3" class="node"><title>Node42</title>
<g id="a_node3"><a xlink:href="../../d3/de4/classde_1_1tu__clausthal_1_1in_1_1bachelorproject2018_1_1poker_1_1CApplication_1_1CGlobal.htm#a88ee725970b74a369edd355506b4bd9a" target="_top" xlink:title="returns singletone instance ">
<polygon fill="none" stroke="black" points="329,-0.5 329,-28.5 562,-28.5 562,-0.5 329,-0.5"/>
<text text-anchor="start" x="337" y="-17.3" font-family="Helvetica,sans-Serif" font-size="9.00">de.tu_clausthal.in.bachelorproject2018.poker.</text>
<text text-anchor="middle" x="445.5" y="-7.3" font-family="Helvetica,sans-Serif" font-size="9.00">CApplication.CGlobal.instance</text>
</a>
</g>
</g>
<!-- Node40&#45;&gt;Node42 -->
<g id="edge2" class="edge"><title>Node40&#45;&gt;Node42</title>
<path fill="none" stroke="midnightblue" d="M293.39,-26.2021C301.838,-25.5479 310.297,-24.8929 318.658,-24.2454"/>
<polygon fill="midnightblue" stroke="midnightblue" points="319.1,-27.7217 328.8,-23.4599 318.56,-20.7426 319.1,-27.7217"/>
</g>
</g>
</svg>
