<?xml version="1.0" encoding="UTF-8" standalone="no"?>
<!DOCTYPE svg PUBLIC "-//W3C//DTD SVG 1.1//EN"
 "http://www.w3.org/Graphics/SVG/1.1/DTD/svg11.dtd">
<!-- Generated by graphviz version 2.38.0 (20140413.2041)
 -->
<!-- Title: de.tu_clausthal.in.bachelorproject2018.poker.game.wincheck.CStraight Pages: 1 -->
<svg width="624pt" height="376pt"
 viewBox="0.00 0.00 624.00 376.00" xmlns="http://www.w3.org/2000/svg" xmlns:xlink="http://www.w3.org/1999/xlink">
<g id="graph0" class="graph" transform="scale(1 1) rotate(0) translate(4 372)">
<title>de.tu_clausthal.in.bachelorproject2018.poker.game.wincheck.CStraight</title>
<!-- Node3 -->
<g id="node1" class="node"><title>Node3</title>
<polygon fill="#bfbfbf" stroke="black" points="158,-0.5 158,-74.5 466,-74.5 466,-0.5 158,-0.5"/>
<text text-anchor="start" x="166" y="-63.3" font-family="Helvetica,sans-Serif" font-size="9.00">de.tu_clausthal.in.bachelorproject2018.poker.game.wincheck.</text>
<text text-anchor="middle" x="312" y="-53.3" font-family="Helvetica,sans-Serif" font-size="9.00">CStraight</text>
<polyline fill="none" stroke="black" points="158,-46.5 466,-46.5 "/>
<text text-anchor="middle" x="312" y="-35.3" font-family="Helvetica,sans-Serif" font-size="9.00"> </text>
<polyline fill="none" stroke="black" points="158,-28.5 466,-28.5 "/>
<text text-anchor="start" x="166" y="-17.3" font-family="Helvetica,sans-Serif" font-size="9.00">+ apply()</text>
<text text-anchor="start" x="166" y="-7.3" font-family="Helvetica,sans-Serif" font-size="9.00"># CStraight()</text>
</g>
<!-- Node4 -->
<g id="node2" class="node"><title>Node4</title>
<g id="a_node2"><a xlink:href="../../d6/d63/classde_1_1tu__clausthal_1_1in_1_1bachelorproject2018_1_1poker_1_1game_1_1wincheck_1_1IBaseWinCheckAction.htm" target="_top" xlink:title="{de.tu_clausthal.in.bachelorproject2018.poker.game.wincheck.\lIBaseWinCheckAction\n||# IBaseWinCheckAction()\l}">
<polygon fill="none" stroke="black" points="158,-112.5 158,-176.5 466,-176.5 466,-112.5 158,-112.5"/>
<text text-anchor="start" x="166" y="-165.3" font-family="Helvetica,sans-Serif" font-size="9.00">de.tu_clausthal.in.bachelorproject2018.poker.game.wincheck.</text>
<text text-anchor="middle" x="312" y="-155.3" font-family="Helvetica,sans-Serif" font-size="9.00">IBaseWinCheckAction</text>
<polyline fill="none" stroke="black" points="158,-148.5 466,-148.5 "/>
<text text-anchor="middle" x="312" y="-137.3" font-family="Helvetica,sans-Serif" font-size="9.00"> </text>
<polyline fill="none" stroke="black" points="158,-130.5 466,-130.5 "/>
<text text-anchor="start" x="166" y="-119.3" font-family="Helvetica,sans-Serif" font-size="9.00"># IBaseWinCheckAction()</text>
</a>
</g>
</g>
<!-- Node4&#45;&gt;Node3 -->
<g id="edge1" class="edge"><title>Node4&#45;&gt;Node3</title>
<path fill="none" stroke="midnightblue" d="M312,-102.234C312,-93.1001 312,-83.4905 312,-74.5822"/>
<polygon fill="none" stroke="midnightblue" points="308.5,-102.281 312,-112.281 315.5,-102.281 308.5,-102.281"/>
</g>
<!-- Node5 -->
<g id="node3" class="node"><title>Node5</title>
<g id="a_node3"><a xlink:href="../../d4/dae/interfacede_1_1tu__clausthal_1_1in_1_1bachelorproject2018_1_1poker_1_1game_1_1wincheck_1_1IWinCheckAction.htm" target="_top" xlink:title="Interface, um die einzelnen Teile der WinEvaluation zu definieren Die Aktion ist ein Supplier...">
<polygon fill="none" stroke="black" points="0,-263.5 0,-327.5 308,-327.5 308,-263.5 0,-263.5"/>
<text text-anchor="start" x="8" y="-316.3" font-family="Helvetica,sans-Serif" font-size="9.00">de.tu_clausthal.in.bachelorproject2018.poker.game.wincheck.</text>
<text text-anchor="middle" x="154" y="-306.3" font-family="Helvetica,sans-Serif" font-size="9.00">IWinCheckAction</text>
<polyline fill="none" stroke="black" points="0,-299.5 308,-299.5 "/>
<text text-anchor="middle" x="154" y="-288.3" font-family="Helvetica,sans-Serif" font-size="9.00"> </text>
<polyline fill="none" stroke="black" points="0,-281.5 308,-281.5 "/>
<text text-anchor="start" x="8" y="-270.3" font-family="Helvetica,sans-Serif" font-size="9.00">+ apply()</text>
</a>
</g>
</g>
<!-- Node5&#45;&gt;Node4 -->
<g id="edge2" class="edge"><title>Node5&#45;&gt;Node4</title>
<path fill="none" stroke="midnightblue" d="M194.639,-256.176C220.806,-231.499 254.389,-199.829 278.922,-176.694"/>
<polygon fill="none" stroke="midnightblue" points="191.996,-253.858 187.122,-263.265 196.799,-258.95 191.996,-253.858"/>
</g>
<!-- Node6 -->
<g id="node4" class="node"><title>Node6</title>
<g id="a_node4"><a xlink:href="../../d5/d36/interfacede_1_1tu__clausthal_1_1in_1_1bachelorproject2018_1_1poker_1_1game_1_1table_1_1ITable.htm" target="_top" xlink:title="Interface um einen Spieletisch darzustellen. ">
<polygon fill="none" stroke="black" points="326,-223.5 326,-367.5 616,-367.5 616,-223.5 326,-223.5"/>
<text text-anchor="start" x="334" y="-356.3" font-family="Helvetica,sans-Serif" font-size="9.00">de.tu_clausthal.in.bachelorproject2018.poker.game.table.</text>
<text text-anchor="middle" x="471" y="-346.3" font-family="Helvetica,sans-Serif" font-size="9.00">ITable</text>
<polyline fill="none" stroke="black" points="326,-339.5 616,-339.5 "/>
<text text-anchor="middle" x="471" y="-328.3" font-family="Helvetica,sans-Serif" font-size="9.00"> </text>
<polyline fill="none" stroke="black" points="326,-321.5 616,-321.5 "/>
<text text-anchor="start" x="334" y="-310.3" font-family="Helvetica,sans-Serif" font-size="9.00">+ getGameHub()</text>
<text text-anchor="start" x="334" y="-300.3" font-family="Helvetica,sans-Serif" font-size="9.00">+ getQueue()</text>
<text text-anchor="start" x="334" y="-290.3" font-family="Helvetica,sans-Serif" font-size="9.00">+ isplaying()</text>
<text text-anchor="start" x="334" y="-280.3" font-family="Helvetica,sans-Serif" font-size="9.00">+ join()</text>
<text text-anchor="start" x="334" y="-270.3" font-family="Helvetica,sans-Serif" font-size="9.00">+ leave()</text>
<text text-anchor="start" x="334" y="-260.3" font-family="Helvetica,sans-Serif" font-size="9.00">+ list()</text>
<text text-anchor="start" x="334" y="-250.3" font-family="Helvetica,sans-Serif" font-size="9.00">+ name()</text>
<text text-anchor="start" x="334" y="-240.3" font-family="Helvetica,sans-Serif" font-size="9.00">+ owner()</text>
<text text-anchor="start" x="334" y="-230.3" font-family="Helvetica,sans-Serif" font-size="9.00">+ start()</text>
</a>
</g>
</g>
<!-- Node6&#45;&gt;Node4 -->
<g id="edge3" class="edge"><title>Node6&#45;&gt;Node4</title>
<path fill="none" stroke="#404040" d="M395.225,-223.491C381.066,-210.222 366.748,-196.805 354.074,-184.928"/>
<polygon fill="none" stroke="#404040" points="353.918,-184.782 346.805,-183.598 345.162,-176.577 352.276,-177.761 353.918,-184.782"/>
<text text-anchor="middle" x="397" y="-197.8" font-family="Helvetica,sans-Serif" font-size="9.00"> #m_table</text>
</g>
</g>
</svg>
