<?xml version="1.0" encoding="UTF-8" standalone="no"?>
<!DOCTYPE svg PUBLIC "-//W3C//DTD SVG 1.1//EN"
 "http://www.w3.org/Graphics/SVG/1.1/DTD/svg11.dtd">
<!-- Generated by graphviz version 2.38.0 (20140413.2041)
 -->
<!-- Title: de.tu_clausthal.in.bachelorproject2018.poker.game.action.CFold.accept Pages: 1 -->
<svg width="632pt" height="131pt"
 viewBox="0.00 0.00 632.00 131.00" xmlns="http://www.w3.org/2000/svg" xmlns:xlink="http://www.w3.org/1999/xlink">
<g id="graph0" class="graph" transform="scale(1 1) rotate(0) translate(4 127)">
<title>de.tu_clausthal.in.bachelorproject2018.poker.game.action.CFold.accept</title>
<!-- Node2 -->
<g id="node1" class="node"><title>Node2</title>
<polygon fill="#bfbfbf" stroke="black" points="0,-47.5 0,-75.5 295,-75.5 295,-47.5 0,-47.5"/>
<text text-anchor="start" x="8" y="-64.3" font-family="Helvetica,sans-Serif" font-size="9.00">de.tu_clausthal.in.bachelorproject2018.poker.game.action.</text>
<text text-anchor="middle" x="147.5" y="-54.3" font-family="Helvetica,sans-Serif" font-size="9.00">CFold.accept</text>
</g>
<!-- Node3 -->
<g id="node2" class="node"><title>Node3</title>
<g id="a_node2"><a xlink:href="../../d2/d11/interfacede_1_1tu__clausthal_1_1in_1_1bachelorproject2018_1_1poker_1_1game_1_1player_1_1IPlayer.htm#a40183a6571d309d2405bb698b90055a2" target="_top" xlink:title="de.tu_clausthal.in.bachelorproject2018.poker.game.player.\lIPlayer.fold">
<polygon fill="none" stroke="black" points="331,-94.5 331,-122.5 624,-122.5 624,-94.5 331,-94.5"/>
<text text-anchor="start" x="339" y="-111.3" font-family="Helvetica,sans-Serif" font-size="9.00">de.tu_clausthal.in.bachelorproject2018.poker.game.player.</text>
<text text-anchor="middle" x="477.5" y="-101.3" font-family="Helvetica,sans-Serif" font-size="9.00">IPlayer.fold</text>
</a>
</g>
</g>
<!-- Node2&#45;&gt;Node3 -->
<g id="edge1" class="edge"><title>Node2&#45;&gt;Node3</title>
<path fill="none" stroke="midnightblue" d="M246.467,-75.5379C285.013,-81.0613 329.401,-87.4218 368.841,-93.0733"/>
<polygon fill="midnightblue" stroke="midnightblue" points="368.36,-96.5399 378.755,-94.4939 369.353,-89.6107 368.36,-96.5399"/>
</g>
<!-- Node4 -->
<g id="node3" class="node"><title>Node4</title>
<g id="a_node3"><a xlink:href="../../d2/d11/interfacede_1_1tu__clausthal_1_1in_1_1bachelorproject2018_1_1poker_1_1game_1_1player_1_1IPlayer.htm#aeab0d6e898c99016fe7a79384319dc8f" target="_top" xlink:title="liefert den Namen des Spielers ">
<polygon fill="none" stroke="black" points="331,-47.5 331,-75.5 624,-75.5 624,-47.5 331,-47.5"/>
<text text-anchor="start" x="339" y="-64.3" font-family="Helvetica,sans-Serif" font-size="9.00">de.tu_clausthal.in.bachelorproject2018.poker.game.player.</text>
<text text-anchor="middle" x="477.5" y="-54.3" font-family="Helvetica,sans-Serif" font-size="9.00">IPlayer.getName</text>
</a>
</g>
</g>
<!-- Node2&#45;&gt;Node4 -->
<g id="edge2" class="edge"><title>Node2&#45;&gt;Node4</title>
<path fill="none" stroke="midnightblue" d="M295.232,-61.5C303.752,-61.5 312.335,-61.5 320.888,-61.5"/>
<polygon fill="midnightblue" stroke="midnightblue" points="320.909,-65.0001 330.909,-61.5 320.909,-58.0001 320.909,-65.0001"/>
</g>
<!-- Node5 -->
<g id="node4" class="node"><title>Node5</title>
<g id="a_node4"><a xlink:href="../../d5/d36/interfacede_1_1tu__clausthal_1_1in_1_1bachelorproject2018_1_1poker_1_1game_1_1table_1_1ITable.htm#a442079183a6b0e75a07ee8549947f929" target="_top" xlink:title="Name des Tisches. ">
<polygon fill="none" stroke="black" points="332.5,-0.5 332.5,-28.5 622.5,-28.5 622.5,-0.5 332.5,-0.5"/>
<text text-anchor="start" x="340.5" y="-17.3" font-family="Helvetica,sans-Serif" font-size="9.00">de.tu_clausthal.in.bachelorproject2018.poker.game.table.</text>
<text text-anchor="middle" x="477.5" y="-7.3" font-family="Helvetica,sans-Serif" font-size="9.00">ITable.name</text>
</a>
</g>
</g>
<!-- Node2&#45;&gt;Node5 -->
<g id="edge3" class="edge"><title>Node2&#45;&gt;Node5</title>
<path fill="none" stroke="midnightblue" d="M246.467,-47.4621C285.013,-41.9387 329.401,-35.5782 368.841,-29.9267"/>
<polygon fill="midnightblue" stroke="midnightblue" points="369.353,-33.3893 378.755,-28.5061 368.36,-26.4601 369.353,-33.3893"/>
</g>
</g>
</svg>
