<?xml version="1.0" encoding="UTF-8" standalone="no"?>
<!DOCTYPE svg PUBLIC "-//W3C//DTD SVG 1.1//EN"
 "http://www.w3.org/Graphics/SVG/1.1/DTD/svg11.dtd">
<!-- Generated by graphviz version 2.38.0 (20140413.2041)
 -->
<!-- Title: de.tu_clausthal.in.bachelorproject2018.poker.game.round.IBaseRoundAction Pages: 1 -->
<svg width="610pt" height="264pt"
 viewBox="0.00 0.00 609.50 264.00" xmlns="http://www.w3.org/2000/svg" xmlns:xlink="http://www.w3.org/1999/xlink">
<g id="graph0" class="graph" transform="scale(1 1) rotate(0) translate(4 260)">
<title>de.tu_clausthal.in.bachelorproject2018.poker.game.round.IBaseRoundAction</title>
<!-- Node8 -->
<g id="node1" class="node"><title>Node8</title>
<polygon fill="#bfbfbf" stroke="black" points="155,-0.5 155,-64.5 448,-64.5 448,-0.5 155,-0.5"/>
<text text-anchor="start" x="163" y="-53.3" font-family="Helvetica,sans-Serif" font-size="9.00">de.tu_clausthal.in.bachelorproject2018.poker.game.round.</text>
<text text-anchor="middle" x="301.5" y="-43.3" font-family="Helvetica,sans-Serif" font-size="9.00">IBaseRoundAction</text>
<polyline fill="none" stroke="black" points="155,-36.5 448,-36.5 "/>
<text text-anchor="middle" x="301.5" y="-25.3" font-family="Helvetica,sans-Serif" font-size="9.00"> </text>
<polyline fill="none" stroke="black" points="155,-18.5 448,-18.5 "/>
<text text-anchor="start" x="163" y="-7.3" font-family="Helvetica,sans-Serif" font-size="9.00"># IBaseRoundAction()</text>
</g>
<!-- Node9 -->
<g id="node2" class="node"><title>Node9</title>
<g id="a_node2"><a xlink:href="../../dc/db4/interfacede_1_1tu__clausthal_1_1in_1_1bachelorproject2018_1_1poker_1_1game_1_1round_1_1IRoundAction.htm" target="_top" xlink:title="Interface, um die einzelnen Aktionen in einer Runde zu definieren. ">
<polygon fill="none" stroke="black" points="0,-151.5 0,-215.5 293,-215.5 293,-151.5 0,-151.5"/>
<text text-anchor="start" x="8" y="-204.3" font-family="Helvetica,sans-Serif" font-size="9.00">de.tu_clausthal.in.bachelorproject2018.poker.game.round.</text>
<text text-anchor="middle" x="146.5" y="-194.3" font-family="Helvetica,sans-Serif" font-size="9.00">IRoundAction</text>
<polyline fill="none" stroke="black" points="0,-187.5 293,-187.5 "/>
<text text-anchor="middle" x="146.5" y="-176.3" font-family="Helvetica,sans-Serif" font-size="9.00"> </text>
<polyline fill="none" stroke="black" points="0,-169.5 293,-169.5 "/>
<text text-anchor="middle" x="146.5" y="-158.3" font-family="Helvetica,sans-Serif" font-size="9.00"> </text>
</a>
</g>
</g>
<!-- Node9&#45;&gt;Node8 -->
<g id="edge1" class="edge"><title>Node9&#45;&gt;Node8</title>
<path fill="none" stroke="midnightblue" d="M186.367,-144.176C212.038,-119.499 244.983,-87.8292 269.05,-64.6942"/>
<polygon fill="none" stroke="midnightblue" points="183.777,-141.811 178.993,-151.265 188.628,-146.858 183.777,-141.811"/>
</g>
<!-- Node10 -->
<g id="node3" class="node"><title>Node10</title>
<g id="a_node3"><a xlink:href="../../d5/d36/interfacede_1_1tu__clausthal_1_1in_1_1bachelorproject2018_1_1poker_1_1game_1_1table_1_1ITable.htm" target="_top" xlink:title="Interface um einen Spieletisch darzustellen. ">
<polygon fill="none" stroke="black" points="311.5,-111.5 311.5,-255.5 601.5,-255.5 601.5,-111.5 311.5,-111.5"/>
<text text-anchor="start" x="319.5" y="-244.3" font-family="Helvetica,sans-Serif" font-size="9.00">de.tu_clausthal.in.bachelorproject2018.poker.game.table.</text>
<text text-anchor="middle" x="456.5" y="-234.3" font-family="Helvetica,sans-Serif" font-size="9.00">ITable</text>
<polyline fill="none" stroke="black" points="311.5,-227.5 601.5,-227.5 "/>
<text text-anchor="middle" x="456.5" y="-216.3" font-family="Helvetica,sans-Serif" font-size="9.00"> </text>
<polyline fill="none" stroke="black" points="311.5,-209.5 601.5,-209.5 "/>
<text text-anchor="start" x="319.5" y="-198.3" font-family="Helvetica,sans-Serif" font-size="9.00">+ getGameHub()</text>
<text text-anchor="start" x="319.5" y="-188.3" font-family="Helvetica,sans-Serif" font-size="9.00">+ getQueue()</text>
<text text-anchor="start" x="319.5" y="-178.3" font-family="Helvetica,sans-Serif" font-size="9.00">+ isplaying()</text>
<text text-anchor="start" x="319.5" y="-168.3" font-family="Helvetica,sans-Serif" font-size="9.00">+ join()</text>
<text text-anchor="start" x="319.5" y="-158.3" font-family="Helvetica,sans-Serif" font-size="9.00">+ leave()</text>
<text text-anchor="start" x="319.5" y="-148.3" font-family="Helvetica,sans-Serif" font-size="9.00">+ list()</text>
<text text-anchor="start" x="319.5" y="-138.3" font-family="Helvetica,sans-Serif" font-size="9.00">+ name()</text>
<text text-anchor="start" x="319.5" y="-128.3" font-family="Helvetica,sans-Serif" font-size="9.00">+ owner()</text>
<text text-anchor="start" x="319.5" y="-118.3" font-family="Helvetica,sans-Serif" font-size="9.00">+ start()</text>
</a>
</g>
</g>
<!-- Node10&#45;&gt;Node8 -->
<g id="edge2" class="edge"><title>Node10&#45;&gt;Node8</title>
<path fill="none" stroke="#404040" d="M382.632,-111.491C368.828,-98.2218 354.871,-84.8046 342.516,-72.9281"/>
<polygon fill="none" stroke="#404040" points="342.479,-72.8928 335.381,-71.6184 333.828,-64.5766 340.926,-65.851 342.479,-72.8928"/>
<text text-anchor="middle" x="385.5" y="-85.8" font-family="Helvetica,sans-Serif" font-size="9.00"> #m_table</text>
</g>
</g>
</svg>
