<?xml version="1.0" encoding="UTF-8" standalone="no"?>
<!DOCTYPE svg PUBLIC "-//W3C//DTD SVG 1.1//EN"
 "http://www.w3.org/Graphics/SVG/1.1/DTD/svg11.dtd">
<!-- Generated by graphviz version 2.38.0 (20140413.2041)
 -->
<!-- Title: de.tu_clausthal.in.bachelorproject2018.poker.network.websocket.ESessionManagement Pages: 1 -->
<svg width="335pt" height="204pt"
 viewBox="0.00 0.00 335.00 204.00" xmlns="http://www.w3.org/2000/svg" xmlns:xlink="http://www.w3.org/1999/xlink">
<g id="graph0" class="graph" transform="scale(1 1) rotate(0) translate(4 200)">
<title>de.tu_clausthal.in.bachelorproject2018.poker.network.websocket.ESessionManagement</title>
<!-- Node2 -->
<g id="node1" class="node"><title>Node2</title>
<polygon fill="#bfbfbf" stroke="black" points="-2.84217e-14,-0.5 -2.84217e-14,-84.5 327,-84.5 327,-0.5 -2.84217e-14,-0.5"/>
<text text-anchor="start" x="8" y="-73.3" font-family="Helvetica,sans-Serif" font-size="9.00">de.tu_clausthal.in.bachelorproject2018.poker.network.websocket.</text>
<text text-anchor="middle" x="163.5" y="-63.3" font-family="Helvetica,sans-Serif" font-size="9.00">ESessionManagement</text>
<polyline fill="none" stroke="black" points="-2.84217e-14,-56.5 327,-56.5 "/>
<text text-anchor="start" x="8" y="-45.3" font-family="Helvetica,sans-Serif" font-size="9.00">&#45; sessions</text>
<polyline fill="none" stroke="black" points="-2.84217e-14,-38.5 327,-38.5 "/>
<text text-anchor="start" x="8" y="-27.3" font-family="Helvetica,sans-Serif" font-size="9.00">+ add()</text>
<text text-anchor="start" x="8" y="-17.3" font-family="Helvetica,sans-Serif" font-size="9.00">+ apply()</text>
<text text-anchor="start" x="8" y="-7.3" font-family="Helvetica,sans-Serif" font-size="9.00">+ remove()</text>
</g>
<!-- Node3 -->
<g id="node2" class="node"><title>Node3</title>
<g id="a_node2"><a xlink:href="../../d9/dbf/interfacede_1_1tu__clausthal_1_1in_1_1bachelorproject2018_1_1poker_1_1network_1_1websocket_1_1ISessions.htm" target="_top" xlink:title="Interface to manage all websocket sessions. ">
<polygon fill="none" stroke="black" points="-2.84217e-14,-121.5 -2.84217e-14,-195.5 327,-195.5 327,-121.5 -2.84217e-14,-121.5"/>
<text text-anchor="start" x="8" y="-184.3" font-family="Helvetica,sans-Serif" font-size="9.00">de.tu_clausthal.in.bachelorproject2018.poker.network.websocket.</text>
<text text-anchor="middle" x="163.5" y="-174.3" font-family="Helvetica,sans-Serif" font-size="9.00">ISessions</text>
<polyline fill="none" stroke="black" points="-2.84217e-14,-167.5 327,-167.5 "/>
<text text-anchor="middle" x="163.5" y="-156.3" font-family="Helvetica,sans-Serif" font-size="9.00"> </text>
<polyline fill="none" stroke="black" points="-2.84217e-14,-149.5 327,-149.5 "/>
<text text-anchor="start" x="8" y="-138.3" font-family="Helvetica,sans-Serif" font-size="9.00">+ add()</text>
<text text-anchor="start" x="8" y="-128.3" font-family="Helvetica,sans-Serif" font-size="9.00">+ remove()</text>
</a>
</g>
</g>
<!-- Node3&#45;&gt;Node2 -->
<g id="edge1" class="edge"><title>Node3&#45;&gt;Node2</title>
<path fill="none" stroke="midnightblue" d="M163.5,-111.365C163.5,-102.609 163.5,-93.4971 163.5,-84.8984"/>
<polygon fill="none" stroke="midnightblue" points="160,-111.43 163.5,-121.43 167,-111.43 160,-111.43"/>
</g>
</g>
</svg>
