<?xml version="1.0" encoding="UTF-8" standalone="no"?>
<!DOCTYPE svg PUBLIC "-//W3C//DTD SVG 1.1//EN"
 "http://www.w3.org/Graphics/SVG/1.1/DTD/svg11.dtd">
<!-- Generated by graphviz version 2.38.0 (20140413.2041)
 -->
<!-- Title: de.tu_clausthal.in.bachelorproject2018.poker.game.round.CWinEvaluation.apply Pages: 1 -->
<svg width="1640pt" height="499pt"
 viewBox="0.00 0.00 1640.00 499.00" xmlns="http://www.w3.org/2000/svg" xmlns:xlink="http://www.w3.org/1999/xlink">
<g id="graph0" class="graph" transform="scale(1 1) rotate(0) translate(4 495)">
<title>de.tu_clausthal.in.bachelorproject2018.poker.game.round.CWinEvaluation.apply</title>
<!-- Node4 -->
<g id="node1" class="node"><title>Node4</title>
<polygon fill="#bfbfbf" stroke="black" points="0,-227.5 0,-255.5 293,-255.5 293,-227.5 0,-227.5"/>
<text text-anchor="start" x="8" y="-244.3" font-family="Helvetica,sans-Serif" font-size="9.00">de.tu_clausthal.in.bachelorproject2018.poker.game.round.</text>
<text text-anchor="middle" x="146.5" y="-234.3" font-family="Helvetica,sans-Serif" font-size="9.00">CWinEvaluation.apply</text>
</g>
<!-- Node5 -->
<g id="node2" class="node"><title>Node5</title>
<g id="a_node2"><a xlink:href="../../dd/dfe/classde_1_1tu__clausthal_1_1in_1_1bachelorproject2018_1_1poker_1_1game_1_1hubs_1_1ChipsHandling.htm#ab242b97e657f27d0ab5d27e22999f5bb" target="_top" xlink:title="divide pot by winners, and add the amount to the winners ">
<polygon fill="none" stroke="black" points="338.5,-462.5 338.5,-490.5 627.5,-490.5 627.5,-462.5 338.5,-462.5"/>
<text text-anchor="start" x="346.5" y="-479.3" font-family="Helvetica,sans-Serif" font-size="9.00">de.tu_clausthal.in.bachelorproject2018.poker.game.hubs.</text>
<text text-anchor="middle" x="483" y="-469.3" font-family="Helvetica,sans-Serif" font-size="9.00">ChipsHandling.distributePotToWinner</text>
</a>
</g>
</g>
<!-- Node4&#45;&gt;Node5 -->
<g id="edge1" class="edge"><title>Node4&#45;&gt;Node5</title>
<path fill="none" stroke="midnightblue" d="M154.801,-255.631C175.814,-294.704 240.637,-404.538 329,-453.5 332.15,-455.245 335.389,-456.871 338.701,-458.385"/>
<polygon fill="midnightblue" stroke="midnightblue" points="337.631,-461.731 348.207,-462.36 340.332,-455.273 337.631,-461.731"/>
</g>
<!-- Node6 -->
<g id="node3" class="node"><title>Node6</title>
<g id="a_node3"><a xlink:href="../../dc/dda/classde_1_1tu__clausthal_1_1in_1_1bachelorproject2018_1_1poker_1_1game_1_1wincheck_1_1DetermineWinner.htm#a36160309685d023b164f75ec28f53380" target="_top" xlink:title="Compare the handstatistics and find the best if we have multiple equals as the best, return them as an ArrayList. ">
<polygon fill="none" stroke="black" points="329,-415.5 329,-443.5 637,-443.5 637,-415.5 329,-415.5"/>
<text text-anchor="start" x="337" y="-432.3" font-family="Helvetica,sans-Serif" font-size="9.00">de.tu_clausthal.in.bachelorproject2018.poker.game.wincheck.</text>
<text text-anchor="middle" x="483" y="-422.3" font-family="Helvetica,sans-Serif" font-size="9.00">DetermineWinner.findWinner</text>
</a>
</g>
</g>
<!-- Node4&#45;&gt;Node6 -->
<g id="edge2" class="edge"><title>Node4&#45;&gt;Node6</title>
<path fill="none" stroke="midnightblue" d="M157.949,-255.5C183.215,-288.195 251.301,-369.587 329,-406.5 333.322,-408.553 337.783,-410.432 342.343,-412.151"/>
<polygon fill="midnightblue" stroke="midnightblue" points="341.234,-415.471 351.829,-415.458 343.539,-408.861 341.234,-415.471"/>
</g>
<!-- Node7 -->
<g id="node4" class="node"><title>Node7</title>
<g id="a_node4"><a xlink:href="../../da/d48/classde_1_1tu__clausthal_1_1in_1_1bachelorproject2018_1_1poker_1_1game_1_1hubs_1_1GameHub.htm#a70d72ce0a72b5c0e490bf935258b69f4" target="_top" xlink:title="getter for the chipsHandler ">
<polygon fill="none" stroke="black" points="338.5,-368.5 338.5,-396.5 627.5,-396.5 627.5,-368.5 338.5,-368.5"/>
<text text-anchor="start" x="346.5" y="-385.3" font-family="Helvetica,sans-Serif" font-size="9.00">de.tu_clausthal.in.bachelorproject2018.poker.game.hubs.</text>
<text text-anchor="middle" x="483" y="-375.3" font-family="Helvetica,sans-Serif" font-size="9.00">GameHub.getChipsHandler</text>
</a>
</g>
</g>
<!-- Node4&#45;&gt;Node7 -->
<g id="edge3" class="edge"><title>Node4&#45;&gt;Node7</title>
<path fill="none" stroke="midnightblue" d="M163.681,-255.531C193.886,-280.876 261.888,-334.021 329,-359.5 335.015,-361.784 341.244,-363.841 347.594,-365.695"/>
<polygon fill="midnightblue" stroke="midnightblue" points="347.091,-369.186 357.659,-368.444 348.935,-362.433 347.091,-369.186"/>
</g>
<!-- Node8 -->
<g id="node5" class="node"><title>Node8</title>
<g id="a_node5"><a xlink:href="../../da/d48/classde_1_1tu__clausthal_1_1in_1_1bachelorproject2018_1_1poker_1_1game_1_1hubs_1_1GameHub.htm#a2f3ce5b11e0f9e0c7107ded825b6fef3" target="_top" xlink:title="getter für findwinner ">
<polygon fill="none" stroke="black" points="338.5,-321.5 338.5,-349.5 627.5,-349.5 627.5,-321.5 338.5,-321.5"/>
<text text-anchor="start" x="346.5" y="-338.3" font-family="Helvetica,sans-Serif" font-size="9.00">de.tu_clausthal.in.bachelorproject2018.poker.game.hubs.</text>
<text text-anchor="middle" x="483" y="-328.3" font-family="Helvetica,sans-Serif" font-size="9.00">GameHub.getDetermineWinner</text>
</a>
</g>
</g>
<!-- Node4&#45;&gt;Node8 -->
<g id="edge4" class="edge"><title>Node4&#45;&gt;Node8</title>
<path fill="none" stroke="midnightblue" d="M177.312,-255.557C212.715,-271.682 273.919,-297.785 329,-312.5 338.735,-315.101 348.902,-317.433 359.165,-319.52"/>
<polygon fill="midnightblue" stroke="midnightblue" points="358.538,-322.963 369.024,-321.446 359.881,-316.093 358.538,-322.963"/>
</g>
<!-- Node9 -->
<g id="node6" class="node"><title>Node9</title>
<g id="a_node6"><a xlink:href="../../d5/d36/interfacede_1_1tu__clausthal_1_1in_1_1bachelorproject2018_1_1poker_1_1game_1_1table_1_1ITable.htm#ad5910542f67b66837a7e3c326d22a671" target="_top" xlink:title="de.tu_clausthal.in.bachelorproject2018.poker.game.table.\lITable.getGameHub">
<polygon fill="none" stroke="black" points="338,-274.5 338,-302.5 628,-302.5 628,-274.5 338,-274.5"/>
<text text-anchor="start" x="346" y="-291.3" font-family="Helvetica,sans-Serif" font-size="9.00">de.tu_clausthal.in.bachelorproject2018.poker.game.table.</text>
<text text-anchor="middle" x="483" y="-281.3" font-family="Helvetica,sans-Serif" font-size="9.00">ITable.getGameHub</text>
</a>
</g>
</g>
<!-- Node4&#45;&gt;Node9 -->
<g id="edge5" class="edge"><title>Node4&#45;&gt;Node9</title>
<path fill="none" stroke="midnightblue" d="M247.408,-255.538C286.718,-261.061 331.986,-267.422 372.208,-273.073"/>
<polygon fill="midnightblue" stroke="midnightblue" points="371.928,-276.568 382.318,-274.494 372.902,-269.636 371.928,-276.568"/>
</g>
<!-- Node10 -->
<g id="node7" class="node"><title>Node10</title>
<g id="a_node7"><a xlink:href="../../da/d48/classde_1_1tu__clausthal_1_1in_1_1bachelorproject2018_1_1poker_1_1game_1_1hubs_1_1GameHub.htm#a2f65b057de245146843c2f5c3bbe30f1" target="_top" xlink:title="getter for the playerlist ">
<polygon fill="none" stroke="black" points="682.5,-68.5 682.5,-96.5 971.5,-96.5 971.5,-68.5 682.5,-68.5"/>
<text text-anchor="start" x="690.5" y="-85.3" font-family="Helvetica,sans-Serif" font-size="9.00">de.tu_clausthal.in.bachelorproject2018.poker.game.hubs.</text>
<text text-anchor="middle" x="827" y="-75.3" font-family="Helvetica,sans-Serif" font-size="9.00">GameHub.getPlayerList</text>
</a>
</g>
</g>
<!-- Node4&#45;&gt;Node10 -->
<g id="edge6" class="edge"><title>Node4&#45;&gt;Node10</title>
<path fill="none" stroke="midnightblue" d="M176.939,-227.364C212.238,-211.036 273.587,-184.615 329,-170.5 462.712,-136.44 501.496,-157.534 637,-131.5 681.767,-122.899 731.657,-109.812 768.933,-99.3265"/>
<polygon fill="midnightblue" stroke="midnightblue" points="769.946,-102.678 778.612,-96.5828 768.036,-95.943 769.946,-102.678"/>
</g>
<!-- Node13 -->
<g id="node10" class="node"><title>Node13</title>
<g id="a_node10"><a xlink:href="../../da/d48/classde_1_1tu__clausthal_1_1in_1_1bachelorproject2018_1_1poker_1_1game_1_1hubs_1_1GameHub.htm#a6c1acf5ccb23141ae5b55a4afe865a57" target="_top" xlink:title="getter für winnerhand ">
<polygon fill="none" stroke="black" points="338.5,-180.5 338.5,-208.5 627.5,-208.5 627.5,-180.5 338.5,-180.5"/>
<text text-anchor="start" x="346.5" y="-197.3" font-family="Helvetica,sans-Serif" font-size="9.00">de.tu_clausthal.in.bachelorproject2018.poker.game.hubs.</text>
<text text-anchor="middle" x="483" y="-187.3" font-family="Helvetica,sans-Serif" font-size="9.00">GameHub.getWinnerHand</text>
</a>
</g>
</g>
<!-- Node4&#45;&gt;Node13 -->
<g id="edge9" class="edge"><title>Node4&#45;&gt;Node13</title>
<path fill="none" stroke="midnightblue" d="M247.408,-227.462C286.718,-221.939 331.986,-215.578 372.208,-209.927"/>
<polygon fill="midnightblue" stroke="midnightblue" points="372.902,-213.364 382.318,-208.506 371.928,-206.432 372.902,-213.364"/>
</g>
<!-- Node14 -->
<g id="node11" class="node"><title>Node14</title>
<g id="a_node11"><a xlink:href="../../d7/dba/classde_1_1tu__clausthal_1_1in_1_1bachelorproject2018_1_1poker_1_1game_1_1wincheck_1_1WinnerHand.htm#aa39bb0193e9ef03448e58d4eefb0f129" target="_top" xlink:title="WinnerHand gibt zu der Handstatistic einen String zurück, den man dem Spieler ausgeben kann Hierbei w...">
<polygon fill="none" stroke="black" points="329,-227.5 329,-255.5 637,-255.5 637,-227.5 329,-227.5"/>
<text text-anchor="start" x="337" y="-244.3" font-family="Helvetica,sans-Serif" font-size="9.00">de.tu_clausthal.in.bachelorproject2018.poker.game.wincheck.</text>
<text text-anchor="middle" x="483" y="-234.3" font-family="Helvetica,sans-Serif" font-size="9.00">WinnerHand.getWinnerHandAsString</text>
</a>
</g>
</g>
<!-- Node4&#45;&gt;Node14 -->
<g id="edge10" class="edge"><title>Node4&#45;&gt;Node14</title>
<path fill="none" stroke="midnightblue" d="M293.244,-241.5C301.722,-241.5 310.275,-241.5 318.814,-241.5"/>
<polygon fill="midnightblue" stroke="midnightblue" points="318.826,-245 328.826,-241.5 318.826,-238 318.826,-245"/>
</g>
<!-- Node17 -->
<g id="node14" class="node"><title>Node17</title>
<g id="a_node14"><a xlink:href="../../d5/d36/interfacede_1_1tu__clausthal_1_1in_1_1bachelorproject2018_1_1poker_1_1game_1_1table_1_1ITable.htm#a12e7d833ce4fde26543c2aec692bfcba" target="_top" xlink:title="entfernt einen Spieler vom Tisch ">
<polygon fill="none" stroke="black" points="338,-94.5 338,-122.5 628,-122.5 628,-94.5 338,-94.5"/>
<text text-anchor="start" x="346" y="-111.3" font-family="Helvetica,sans-Serif" font-size="9.00">de.tu_clausthal.in.bachelorproject2018.poker.game.table.</text>
<text text-anchor="middle" x="483" y="-101.3" font-family="Helvetica,sans-Serif" font-size="9.00">ITable.leave</text>
</a>
</g>
</g>
<!-- Node4&#45;&gt;Node17 -->
<g id="edge13" class="edge"><title>Node4&#45;&gt;Node17</title>
<path fill="none" stroke="midnightblue" d="M166.835,-227.493C198.896,-204.963 265.806,-160.842 329,-137.5 342.497,-132.515 356.994,-128.349 371.492,-124.877"/>
<polygon fill="midnightblue" stroke="midnightblue" points="372.551,-128.226 381.518,-122.583 370.989,-121.402 372.551,-128.226"/>
</g>
<!-- Node18 -->
<g id="node15" class="node"><title>Node18</title>
<g id="a_node15"><a xlink:href="../../d5/d36/interfacede_1_1tu__clausthal_1_1in_1_1bachelorproject2018_1_1poker_1_1game_1_1table_1_1ITable.htm#a442079183a6b0e75a07ee8549947f929" target="_top" xlink:title="Name des Tisches. ">
<polygon fill="none" stroke="black" points="338,-47.5 338,-75.5 628,-75.5 628,-47.5 338,-47.5"/>
<text text-anchor="start" x="346" y="-64.3" font-family="Helvetica,sans-Serif" font-size="9.00">de.tu_clausthal.in.bachelorproject2018.poker.game.table.</text>
<text text-anchor="middle" x="483" y="-54.3" font-family="Helvetica,sans-Serif" font-size="9.00">ITable.name</text>
</a>
</g>
</g>
<!-- Node4&#45;&gt;Node18 -->
<g id="edge14" class="edge"><title>Node4&#45;&gt;Node18</title>
<path fill="none" stroke="midnightblue" d="M158.888,-227.248C185.102,-195.561 253.3,-119.326 329,-84.5 333.492,-82.4337 338.128,-80.5456 342.866,-78.8207"/>
<polygon fill="midnightblue" stroke="midnightblue" points="344.357,-82.0119 352.718,-75.5049 342.124,-75.3776 344.357,-82.0119"/>
</g>
<!-- Node19 -->
<g id="node16" class="node"><title>Node19</title>
<g id="a_node16"><a xlink:href="../../dd/dfe/classde_1_1tu__clausthal_1_1in_1_1bachelorproject2018_1_1poker_1_1game_1_1hubs_1_1ChipsHandling.htm#afbb80dc416439585aa915d36bd398ecb" target="_top" xlink:title="go clockwise through the playerlist, to check who has to pay blinds if any index is at the last index...">
<polygon fill="none" stroke="black" points="338.5,-0.5 338.5,-28.5 627.5,-28.5 627.5,-0.5 338.5,-0.5"/>
<text text-anchor="start" x="346.5" y="-17.3" font-family="Helvetica,sans-Serif" font-size="9.00">de.tu_clausthal.in.bachelorproject2018.poker.game.hubs.</text>
<text text-anchor="middle" x="483" y="-7.3" font-family="Helvetica,sans-Serif" font-size="9.00">ChipsHandling.nextBlind</text>
</a>
</g>
</g>
<!-- Node4&#45;&gt;Node19 -->
<g id="edge15" class="edge"><title>Node4&#45;&gt;Node19</title>
<path fill="none" stroke="midnightblue" d="M155.262,-227.353C176.985,-189.278 242.509,-84.3526 329,-37.5 332.325,-35.6988 335.747,-34.0262 339.245,-32.4734"/>
<polygon fill="midnightblue" stroke="midnightblue" points="340.727,-35.6492 348.669,-28.6371 338.088,-29.1658 340.727,-35.6492"/>
</g>
<!-- Node11 -->
<g id="node8" class="node"><title>Node11</title>
<g id="a_node8"><a xlink:href="../../da/d48/classde_1_1tu__clausthal_1_1in_1_1bachelorproject2018_1_1poker_1_1game_1_1hubs_1_1GameHub.htm#a779929edeff8f64a359c53d09be3ca06" target="_top" xlink:title="zieht sich die aktuelle playerList vom Table ">
<polygon fill="none" stroke="black" points="1017,-68.5 1017,-96.5 1306,-96.5 1306,-68.5 1017,-68.5"/>
<text text-anchor="start" x="1025" y="-85.3" font-family="Helvetica,sans-Serif" font-size="9.00">de.tu_clausthal.in.bachelorproject2018.poker.game.hubs.</text>
<text text-anchor="middle" x="1161.5" y="-75.3" font-family="Helvetica,sans-Serif" font-size="9.00">GameHub.updatePlayerlist</text>
</a>
</g>
</g>
<!-- Node10&#45;&gt;Node11 -->
<g id="edge7" class="edge"><title>Node10&#45;&gt;Node11</title>
<path fill="none" stroke="midnightblue" d="M971.905,-82.5C983.444,-82.5 995.129,-82.5 1006.73,-82.5"/>
<polygon fill="midnightblue" stroke="midnightblue" points="1006.9,-86.0001 1016.9,-82.5 1006.9,-79.0001 1006.9,-86.0001"/>
</g>
<!-- Node12 -->
<g id="node9" class="node"><title>Node12</title>
<g id="a_node9"><a xlink:href="../../d5/d36/interfacede_1_1tu__clausthal_1_1in_1_1bachelorproject2018_1_1poker_1_1game_1_1table_1_1ITable.htm#a6e42c7daa9c258015750347f2a5542fe" target="_top" xlink:title="liefert alle Spieler des Tisches ">
<polygon fill="none" stroke="black" points="1342,-68.5 1342,-96.5 1632,-96.5 1632,-68.5 1342,-68.5"/>
<text text-anchor="start" x="1350" y="-85.3" font-family="Helvetica,sans-Serif" font-size="9.00">de.tu_clausthal.in.bachelorproject2018.poker.game.table.</text>
<text text-anchor="middle" x="1487" y="-75.3" font-family="Helvetica,sans-Serif" font-size="9.00">ITable.list</text>
</a>
</g>
</g>
<!-- Node11&#45;&gt;Node12 -->
<g id="edge8" class="edge"><title>Node11&#45;&gt;Node12</title>
<path fill="none" stroke="midnightblue" d="M1306.28,-82.5C1314.67,-82.5 1323.14,-82.5 1331.57,-82.5"/>
<polygon fill="midnightblue" stroke="midnightblue" points="1331.85,-86.0001 1341.84,-82.5 1331.84,-79.0001 1331.85,-86.0001"/>
</g>
<!-- Node15 -->
<g id="node12" class="node"><title>Node15</title>
<g id="a_node12"><a xlink:href="../../d3/ddc/classde_1_1tu__clausthal_1_1in_1_1bachelorproject2018_1_1poker_1_1game_1_1wincheck_1_1HandStatistic.htm#a944fb2841e119c5b86a58c9e7499e24f" target="_top" xlink:title="getter for handevaluation ">
<polygon fill="none" stroke="black" points="673,-203.5 673,-231.5 981,-231.5 981,-203.5 673,-203.5"/>
<text text-anchor="start" x="681" y="-220.3" font-family="Helvetica,sans-Serif" font-size="9.00">de.tu_clausthal.in.bachelorproject2018.poker.game.wincheck.</text>
<text text-anchor="middle" x="827" y="-210.3" font-family="Helvetica,sans-Serif" font-size="9.00">HandStatistic.getHandEvaluation</text>
</a>
</g>
</g>
<!-- Node14&#45;&gt;Node15 -->
<g id="edge11" class="edge"><title>Node14&#45;&gt;Node15</title>
<path fill="none" stroke="midnightblue" d="M637.493,-230.729C645.825,-230.144 654.213,-229.555 662.577,-228.968"/>
<polygon fill="midnightblue" stroke="midnightblue" points="663.032,-232.445 672.762,-228.254 662.541,-225.462 663.032,-232.445"/>
</g>
<!-- Node16 -->
<g id="node13" class="node"><title>Node16</title>
<g id="a_node13"><a xlink:href="../../d3/ddc/classde_1_1tu__clausthal_1_1in_1_1bachelorproject2018_1_1poker_1_1game_1_1wincheck_1_1HandStatistic.htm#a7c39f17f178f7dc10f19460154b8c94f" target="_top" xlink:title="de.tu_clausthal.in.bachelorproject2018.poker.game.wincheck.\lHandStatistic.getFlushSuit">
<polygon fill="none" stroke="black" points="673,-250.5 673,-278.5 981,-278.5 981,-250.5 673,-250.5"/>
<text text-anchor="start" x="681" y="-267.3" font-family="Helvetica,sans-Serif" font-size="9.00">de.tu_clausthal.in.bachelorproject2018.poker.game.wincheck.</text>
<text text-anchor="middle" x="827" y="-257.3" font-family="Helvetica,sans-Serif" font-size="9.00">HandStatistic.getFlushSuit</text>
</a>
</g>
</g>
<!-- Node14&#45;&gt;Node16 -->
<g id="edge12" class="edge"><title>Node14&#45;&gt;Node16</title>
<path fill="none" stroke="midnightblue" d="M637.493,-251.823C645.825,-252.383 654.213,-252.947 662.577,-253.51"/>
<polygon fill="midnightblue" stroke="midnightblue" points="662.55,-257.016 672.762,-254.195 663.019,-250.031 662.55,-257.016"/>
</g>
<!-- Node19&#45;&gt;Node10 -->
<g id="edge16" class="edge"><title>Node19&#45;&gt;Node10</title>
<path fill="none" stroke="midnightblue" d="M585.435,-28.5155C602.685,-31.2512 620.387,-34.2795 637,-37.5 679.072,-45.6557 725.937,-56.8004 762.475,-65.9582"/>
<polygon fill="midnightblue" stroke="midnightblue" points="761.942,-69.4332 772.494,-68.4844 763.653,-62.6457 761.942,-69.4332"/>
</g>
</g>
</svg>
