<?xml version="1.0" encoding="UTF-8" standalone="no"?>
<!DOCTYPE svg PUBLIC "-//W3C//DTD SVG 1.1//EN"
 "http://www.w3.org/Graphics/SVG/1.1/DTD/svg11.dtd">
<!-- Generated by graphviz version 2.38.0 (20140413.2041)
 -->
<!-- Title: de.tu_clausthal.in.bachelorproject2018.poker.game.hubs.GameHub.getCardDealer Pages: 1 -->
<svg width="641pt" height="225pt"
 viewBox="0.00 0.00 641.00 225.00" xmlns="http://www.w3.org/2000/svg" xmlns:xlink="http://www.w3.org/1999/xlink">
<g id="graph0" class="graph" transform="scale(1 1) rotate(0) translate(4 221)">
<title>de.tu_clausthal.in.bachelorproject2018.poker.game.hubs.GameHub.getCardDealer</title>
<!-- Node3 -->
<g id="node1" class="node"><title>Node3</title>
<polygon fill="#bfbfbf" stroke="black" points="0,-94.5 0,-122.5 289,-122.5 289,-94.5 0,-94.5"/>
<text text-anchor="start" x="8" y="-111.3" font-family="Helvetica,sans-Serif" font-size="9.00">de.tu_clausthal.in.bachelorproject2018.poker.game.hubs.</text>
<text text-anchor="middle" x="144.5" y="-101.3" font-family="Helvetica,sans-Serif" font-size="9.00">GameHub.getCardDealer</text>
</g>
<!-- Node4 -->
<g id="node2" class="node"><title>Node4</title>
<g id="a_node2"><a xlink:href="../../d9/d59/classde_1_1tu__clausthal_1_1in_1_1bachelorproject2018_1_1poker_1_1game_1_1wincheck_1_1CPrepareForWinCheck.htm#aaef5dc6ed11497067dd19971a739343a" target="_top" xlink:title="kombiniert die Handkarten des Spielers mit den Tischkarten befüllt das rankArray ">
<polygon fill="none" stroke="black" points="325,-188.5 325,-216.5 633,-216.5 633,-188.5 325,-188.5"/>
<text text-anchor="start" x="333" y="-205.3" font-family="Helvetica,sans-Serif" font-size="9.00">de.tu_clausthal.in.bachelorproject2018.poker.game.wincheck.</text>
<text text-anchor="middle" x="479" y="-195.3" font-family="Helvetica,sans-Serif" font-size="9.00">CPrepareForWinCheck.apply</text>
</a>
</g>
</g>
<!-- Node3&#45;&gt;Node4 -->
<g id="edge1" class="edge"><title>Node3&#45;&gt;Node4</title>
<path fill="none" stroke="midnightblue" d="M184.075,-126.731C219.848,-142.915 274.945,-166.027 325,-179.5 337.839,-182.956 351.434,-185.935 365.011,-188.493"/>
<polygon fill="midnightblue" stroke="midnightblue" points="185.515,-123.541 174.965,-122.57 182.607,-129.908 185.515,-123.541"/>
</g>
<!-- Node5 -->
<g id="node3" class="node"><title>Node5</title>
<g id="a_node3"><a xlink:href="../../d8/d6c/classde_1_1tu__clausthal_1_1in_1_1bachelorproject2018_1_1poker_1_1game_1_1round_1_1CTurn.htm#aa997ce946e5b26eb305e47ce7ae1dd81" target="_top" xlink:title="Legt eine Karte vom Deck auf den Tisch. ">
<polygon fill="none" stroke="black" points="332.5,-141.5 332.5,-169.5 625.5,-169.5 625.5,-141.5 332.5,-141.5"/>
<text text-anchor="start" x="340.5" y="-158.3" font-family="Helvetica,sans-Serif" font-size="9.00">de.tu_clausthal.in.bachelorproject2018.poker.game.round.</text>
<text text-anchor="middle" x="479" y="-148.3" font-family="Helvetica,sans-Serif" font-size="9.00">CTurn.apply</text>
</a>
</g>
</g>
<!-- Node3&#45;&gt;Node5 -->
<g id="edge2" class="edge"><title>Node3&#45;&gt;Node5</title>
<path fill="none" stroke="midnightblue" d="M254.866,-123.959C294.866,-129.613 339.862,-135.974 378.914,-141.494"/>
<polygon fill="midnightblue" stroke="midnightblue" points="255.202,-120.472 244.811,-122.538 254.222,-127.403 255.202,-120.472"/>
</g>
<!-- Node6 -->
<g id="node4" class="node"><title>Node6</title>
<g id="a_node4"><a xlink:href="../../d3/d48/classde_1_1tu__clausthal_1_1in_1_1bachelorproject2018_1_1poker_1_1game_1_1round_1_1CPreFlop.htm#a29d161fc537ba98819b2a6ea3acc9894" target="_top" xlink:title="resetet alle wichtigen Methoden im CardDealer und ChipsHandler forciert Blinds der Spieler Teilt Kart...">
<polygon fill="none" stroke="black" points="332.5,-94.5 332.5,-122.5 625.5,-122.5 625.5,-94.5 332.5,-94.5"/>
<text text-anchor="start" x="340.5" y="-111.3" font-family="Helvetica,sans-Serif" font-size="9.00">de.tu_clausthal.in.bachelorproject2018.poker.game.round.</text>
<text text-anchor="middle" x="479" y="-101.3" font-family="Helvetica,sans-Serif" font-size="9.00">CPreFlop.apply</text>
</a>
</g>
</g>
<!-- Node3&#45;&gt;Node6 -->
<g id="edge3" class="edge"><title>Node3&#45;&gt;Node6</title>
<path fill="none" stroke="midnightblue" d="M299.433,-108.5C310.379,-108.5 321.397,-108.5 332.295,-108.5"/>
<polygon fill="midnightblue" stroke="midnightblue" points="299.406,-105 289.405,-108.5 299.405,-112 299.406,-105"/>
</g>
<!-- Node7 -->
<g id="node5" class="node"><title>Node7</title>
<g id="a_node5"><a xlink:href="../../d9/d71/classde_1_1tu__clausthal_1_1in_1_1bachelorproject2018_1_1poker_1_1game_1_1round_1_1CRiver.htm#a639b79e14972b10284e0dfd816f8a5d1" target="_top" xlink:title="Legt eine Karte vom Deck auf den Tisch. ">
<polygon fill="none" stroke="black" points="332.5,-47.5 332.5,-75.5 625.5,-75.5 625.5,-47.5 332.5,-47.5"/>
<text text-anchor="start" x="340.5" y="-64.3" font-family="Helvetica,sans-Serif" font-size="9.00">de.tu_clausthal.in.bachelorproject2018.poker.game.round.</text>
<text text-anchor="middle" x="479" y="-54.3" font-family="Helvetica,sans-Serif" font-size="9.00">CRiver.apply</text>
</a>
</g>
</g>
<!-- Node3&#45;&gt;Node7 -->
<g id="edge4" class="edge"><title>Node3&#45;&gt;Node7</title>
<path fill="none" stroke="midnightblue" d="M254.866,-93.0408C294.866,-87.3866 339.862,-81.0263 378.914,-75.5061"/>
<polygon fill="midnightblue" stroke="midnightblue" points="254.222,-89.5969 244.811,-94.4621 255.202,-96.528 254.222,-89.5969"/>
</g>
<!-- Node8 -->
<g id="node6" class="node"><title>Node8</title>
<g id="a_node6"><a xlink:href="../../d0/da9/classde_1_1tu__clausthal_1_1in_1_1bachelorproject2018_1_1poker_1_1game_1_1round_1_1CFlop.htm#a09a8d1a76054acdf7d4fe631f850076e" target="_top" xlink:title="legt 3 Karten vom Deck auf den Tisch ">
<polygon fill="none" stroke="black" points="332.5,-0.5 332.5,-28.5 625.5,-28.5 625.5,-0.5 332.5,-0.5"/>
<text text-anchor="start" x="340.5" y="-17.3" font-family="Helvetica,sans-Serif" font-size="9.00">de.tu_clausthal.in.bachelorproject2018.poker.game.round.</text>
<text text-anchor="middle" x="479" y="-7.3" font-family="Helvetica,sans-Serif" font-size="9.00">CFlop.apply</text>
</a>
</g>
</g>
<!-- Node3&#45;&gt;Node8 -->
<g id="edge5" class="edge"><title>Node3&#45;&gt;Node8</title>
<path fill="none" stroke="midnightblue" d="M184.764,-90.3379C220.585,-74.4608 275.347,-51.9064 325,-38.5 339.277,-34.6452 354.481,-31.339 369.556,-28.5236"/>
<polygon fill="midnightblue" stroke="midnightblue" points="183.33,-87.1447 175.631,-94.423 186.189,-93.5345 183.33,-87.1447"/>
</g>
</g>
</svg>
