<?xml version="1.0" encoding="UTF-8" standalone="no"?>
<!DOCTYPE svg PUBLIC "-//W3C//DTD SVG 1.1//EN"
 "http://www.w3.org/Graphics/SVG/1.1/DTD/svg11.dtd">
<!-- Generated by graphviz version 2.38.0 (20140413.2041)
 -->
<!-- Title: de.tu_clausthal.in.bachelorproject2018.poker.game.hubs.GameHub.startGame Pages: 1 -->
<svg width="1273pt" height="84pt"
 viewBox="0.00 0.00 1273.00 84.00" xmlns="http://www.w3.org/2000/svg" xmlns:xlink="http://www.w3.org/1999/xlink">
<g id="graph0" class="graph" transform="scale(1 1) rotate(0) translate(4 80)">
<title>de.tu_clausthal.in.bachelorproject2018.poker.game.hubs.GameHub.startGame</title>
<!-- Node65 -->
<g id="node1" class="node"><title>Node65</title>
<polygon fill="#bfbfbf" stroke="black" points="0,-23.5 0,-51.5 289,-51.5 289,-23.5 0,-23.5"/>
<text text-anchor="start" x="8" y="-40.3" font-family="Helvetica,sans-Serif" font-size="9.00">de.tu_clausthal.in.bachelorproject2018.poker.game.hubs.</text>
<text text-anchor="middle" x="144.5" y="-30.3" font-family="Helvetica,sans-Serif" font-size="9.00">GameHub.startGame</text>
</g>
<!-- Node66 -->
<g id="node2" class="node"><title>Node66</title>
<g id="a_node2"><a xlink:href="../../dd/d8f/classde_1_1tu__clausthal_1_1in_1_1bachelorproject2018_1_1poker_1_1game_1_1hubs_1_1CardDealer.htm#a7d931382ce0cd91d7b2221e451a4585a" target="_top" xlink:title="get the deck ready at the start of the game like resetForNextRound, except no clearing of tablecards ...">
<polygon fill="none" stroke="black" points="325,-47.5 325,-75.5 614,-75.5 614,-47.5 325,-47.5"/>
<text text-anchor="start" x="333" y="-64.3" font-family="Helvetica,sans-Serif" font-size="9.00">de.tu_clausthal.in.bachelorproject2018.poker.game.hubs.</text>
<text text-anchor="middle" x="469.5" y="-54.3" font-family="Helvetica,sans-Serif" font-size="9.00">CardDealer.firstDeckOfTheGame</text>
</a>
</g>
</g>
<!-- Node65&#45;&gt;Node66 -->
<g id="edge1" class="edge"><title>Node65&#45;&gt;Node66</title>
<path fill="none" stroke="midnightblue" d="M289.054,-48.1665C297.591,-48.8009 306.196,-49.4403 314.772,-50.0775"/>
<polygon fill="midnightblue" stroke="midnightblue" points="314.589,-53.5734 324.821,-50.8241 315.107,-46.5927 314.589,-53.5734"/>
</g>
<!-- Node67 -->
<g id="node3" class="node"><title>Node67</title>
<g id="a_node3"><a xlink:href="../../da/d48/classde_1_1tu__clausthal_1_1in_1_1bachelorproject2018_1_1poker_1_1game_1_1hubs_1_1GameHub.htm#a2f65b057de245146843c2f5c3bbe30f1" target="_top" xlink:title="getter for the playerlist ">
<polygon fill="none" stroke="black" points="325,-0.5 325,-28.5 614,-28.5 614,-0.5 325,-0.5"/>
<text text-anchor="start" x="333" y="-17.3" font-family="Helvetica,sans-Serif" font-size="9.00">de.tu_clausthal.in.bachelorproject2018.poker.game.hubs.</text>
<text text-anchor="middle" x="469.5" y="-7.3" font-family="Helvetica,sans-Serif" font-size="9.00">GameHub.getPlayerList</text>
</a>
</g>
</g>
<!-- Node65&#45;&gt;Node67 -->
<g id="edge2" class="edge"><title>Node65&#45;&gt;Node67</title>
<path fill="none" stroke="midnightblue" d="M289.054,-27.2779C297.591,-26.67 306.196,-26.0572 314.772,-25.4466"/>
<polygon fill="midnightblue" stroke="midnightblue" points="315.094,-28.9326 324.821,-24.731 314.597,-21.9503 315.094,-28.9326"/>
</g>
<!-- Node68 -->
<g id="node4" class="node"><title>Node68</title>
<g id="a_node4"><a xlink:href="../../da/d48/classde_1_1tu__clausthal_1_1in_1_1bachelorproject2018_1_1poker_1_1game_1_1hubs_1_1GameHub.htm#a779929edeff8f64a359c53d09be3ca06" target="_top" xlink:title="zieht sich die aktuelle playerList vom Table ">
<polygon fill="none" stroke="black" points="650,-0.5 650,-28.5 939,-28.5 939,-0.5 650,-0.5"/>
<text text-anchor="start" x="658" y="-17.3" font-family="Helvetica,sans-Serif" font-size="9.00">de.tu_clausthal.in.bachelorproject2018.poker.game.hubs.</text>
<text text-anchor="middle" x="794.5" y="-7.3" font-family="Helvetica,sans-Serif" font-size="9.00">GameHub.updatePlayerlist</text>
</a>
</g>
</g>
<!-- Node67&#45;&gt;Node68 -->
<g id="edge3" class="edge"><title>Node67&#45;&gt;Node68</title>
<path fill="none" stroke="midnightblue" d="M614.054,-14.5C622.591,-14.5 631.196,-14.5 639.772,-14.5"/>
<polygon fill="midnightblue" stroke="midnightblue" points="639.821,-18.0001 649.821,-14.5 639.821,-11.0001 639.821,-18.0001"/>
</g>
<!-- Node69 -->
<g id="node5" class="node"><title>Node69</title>
<g id="a_node5"><a xlink:href="../../d5/d36/interfacede_1_1tu__clausthal_1_1in_1_1bachelorproject2018_1_1poker_1_1game_1_1table_1_1ITable.htm#a6e42c7daa9c258015750347f2a5542fe" target="_top" xlink:title="liefert alle Spieler des Tisches ">
<polygon fill="none" stroke="black" points="975,-0.5 975,-28.5 1265,-28.5 1265,-0.5 975,-0.5"/>
<text text-anchor="start" x="983" y="-17.3" font-family="Helvetica,sans-Serif" font-size="9.00">de.tu_clausthal.in.bachelorproject2018.poker.game.table.</text>
<text text-anchor="middle" x="1120" y="-7.3" font-family="Helvetica,sans-Serif" font-size="9.00">ITable.list</text>
</a>
</g>
</g>
<!-- Node68&#45;&gt;Node69 -->
<g id="edge4" class="edge"><title>Node68&#45;&gt;Node69</title>
<path fill="none" stroke="midnightblue" d="M939.276,-14.5C947.674,-14.5 956.137,-14.5 964.574,-14.5"/>
<polygon fill="midnightblue" stroke="midnightblue" points="964.845,-18.0001 974.845,-14.5 964.845,-11.0001 964.845,-18.0001"/>
</g>
</g>
</svg>
