<?xml version="1.0" encoding="UTF-8" standalone="no"?>
<!DOCTYPE svg PUBLIC "-//W3C//DTD SVG 1.1//EN"
 "http://www.w3.org/Graphics/SVG/1.1/DTD/svg11.dtd">
<!-- Generated by graphviz version 2.38.0 (20140413.2041)
 -->
<!-- Title: de.tu_clausthal.in.bachelorproject2018.poker.game.hubs.GameHub.getPlayerList Pages: 1 -->
<!--zoomable 569 -->
<svg id="main" version="1.1" xmlns="http://www.w3.org/2000/svg" xmlns:xlink="http://www.w3.org/1999/xlink" xml:space="preserve" onload="init(evt)">
<style type="text/css"><![CDATA[
.edge:hover path { stroke: red; }
.edge:hover polygon { stroke: red; fill: red; }
]]></style>
<script type="text/javascript"><![CDATA[
var edges = document.getElementsByTagName('g');
if (edges && edges.length) {
  for (var i=0;i<edges.length;i++) {
    if (edges[i].id.substr(0,4)=='edge') {
      edges[i].setAttribute('class','edge');
    }
  }
}
]]></script>
        <defs>
                <circle id="rim" cx="0" cy="0" r="7"/>
                <circle id="rim2" cx="0" cy="0" r="3.5"/>
                <g id="zoomPlus">
                        <use xlink:href="#rim" fill="#404040">
                                <set attributeName="fill" to="#808080" begin="zoomplus.mouseover" end="zoomplus.mouseout"/>
                        </use>
                        <path d="M-4,0h8M0,-4v8" fill="none" stroke="white" stroke-width="1.5" pointer-events="none"/>
                </g>
                <g id="zoomMin">
                        <use xlink:href="#rim" fill="#404040">
                                <set attributeName="fill" to="#808080" begin="zoomminus.mouseover" end="zoomminus.mouseout"/>
                        </use>
                        <path d="M-4,0h8" fill="none" stroke="white" stroke-width="1.5" pointer-events="none"/>
                </g>
                <g id="dirArrow">
                        <path fill="none" stroke="white" stroke-width="1.5" d="M0,-3.0v7 M-2.5,-0.5L0,-3.0L2.5,-0.5"/>
                </g>
               <g id="resetDef">
                       <use xlink:href="#rim2" fill="#404040">
                               <set attributeName="fill" to="#808080" begin="reset.mouseover" end="reset.mouseout"/>
                       </use>
               </g>
        </defs>

<script type="text/javascript">
var viewWidth = 1932;
var viewHeight = 569;
var sectionId = 'dynsection-5';
</script>
<script xlink:href="../../svgpan.js"/>
<svg id="graph" class="graph">
<g id="viewport">
<title>de.tu_clausthal.in.bachelorproject2018.poker.game.hubs.GameHub.getPlayerList</title>
<!-- Node37 -->
<g id="node1" class="node"><title>Node37</title>
<polygon fill="#bfbfbf" stroke="black" points="0,-298.471 0,-326.471 289,-326.471 289,-298.471 0,-298.471"/>
<text text-anchor="start" x="8" y="-315.271" font-family="Helvetica,sans-Serif" font-size="9.00">de.tu_clausthal.in.bachelorproject2018.poker.game.hubs.</text>
<text text-anchor="middle" x="144.5" y="-305.271" font-family="Helvetica,sans-Serif" font-size="9.00">GameHub.getPlayerList</text>
</g>
<!-- Node38 -->
<g id="node2" class="node"><title>Node38</title>
<g id="a_node2"><a xlink:href="../../d8/d84/classde_1_1tu__clausthal_1_1in_1_1bachelorproject2018_1_1poker_1_1game_1_1round_1_1CBetRound.htm#a15f799e13defeab9ebedbb01cf77ebd4" target="_top" xlink:title="Accept wird nach der Aktion des Spielers ausgeführt Falls nötig werden hier neue BetRound&#45;Objekte erz...">
<polygon fill="none" stroke="black" points="650,-469.471 650,-497.471 943,-497.471 943,-469.471 650,-469.471"/>
<text text-anchor="start" x="658" y="-486.271" font-family="Helvetica,sans-Serif" font-size="9.00">de.tu_clausthal.in.bachelorproject2018.poker.game.round.</text>
<text text-anchor="middle" x="796.5" y="-476.271" font-family="Helvetica,sans-Serif" font-size="9.00">CBetRound.accept</text>
</a>
</g>
</g>
<!-- Node37&#45;&gt;Node38 -->
<g id="edge1" class="edge"><title>Node37&#45;&gt;Node38</title>
<path fill="none" stroke="midnightblue" d="M160.572,-335.064C187.927,-373.775 249.924,-451.505 325,-481.471 461.367,-535.901 638.197,-514.881 731.437,-497.531"/>
<polygon fill="midnightblue" stroke="midnightblue" points="163.245,-332.776 154.672,-326.551 157.491,-336.763 163.245,-332.776"/>
</g>
<!-- Node39 -->
<g id="node3" class="node"><title>Node39</title>
<g id="a_node3"><a xlink:href="../../d3/d48/classde_1_1tu__clausthal_1_1in_1_1bachelorproject2018_1_1poker_1_1game_1_1round_1_1CPreFlop.htm#a29d161fc537ba98819b2a6ea3acc9894" target="_top" xlink:title="resetet alle wichtigen Methoden im CardDealer und ChipsHandler forciert Blinds der Spieler Teilt Kart...">
<polygon fill="none" stroke="black" points="979,-296.471 979,-324.471 1272,-324.471 1272,-296.471 979,-296.471"/>
<text text-anchor="start" x="987" y="-313.271" font-family="Helvetica,sans-Serif" font-size="9.00">de.tu_clausthal.in.bachelorproject2018.poker.game.round.</text>
<text text-anchor="middle" x="1125.5" y="-303.271" font-family="Helvetica,sans-Serif" font-size="9.00">CPreFlop.apply</text>
</a>
</g>
</g>
<!-- Node37&#45;&gt;Node39 -->
<g id="edge2" class="edge"><title>Node37&#45;&gt;Node39</title>
<path fill="none" stroke="midnightblue" d="M299.793,-298.469C460.546,-285.983 719.653,-271.768 943,-286.471 973.447,-288.475 1006.58,-292.352 1036.11,-296.414"/>
<polygon fill="midnightblue" stroke="midnightblue" points="299.044,-295.016 289.348,-299.288 299.592,-301.995 299.044,-295.016"/>
</g>
<!-- Node40 -->
<g id="node4" class="node"><title>Node40</title>
<g id="a_node4"><a xlink:href="../../dd/ded/classde_1_1tu__clausthal_1_1in_1_1bachelorproject2018_1_1poker_1_1game_1_1round_1_1CWinEvaluation.htm#a258d61fbe6f67033165ecce526239cf0" target="_top" xlink:title="erstellt eine HandStatisticList Erstellt für jeden Spieler, der noch im Spiel ist, eine Handstatistic Ruft das Enum Wincheck für jede Handstatistsic auf Vergleicht die Handstatistiken, und erklärt die Sieger Teilt die Chips an die Gewinner auf ">
<polygon fill="none" stroke="black" points="650,-351.471 650,-379.471 943,-379.471 943,-351.471 650,-351.471"/>
<text text-anchor="start" x="658" y="-368.271" font-family="Helvetica,sans-Serif" font-size="9.00">de.tu_clausthal.in.bachelorproject2018.poker.game.round.</text>
<text text-anchor="middle" x="796.5" y="-358.271" font-family="Helvetica,sans-Serif" font-size="9.00">CWinEvaluation.apply</text>
</a>
</g>
</g>
<!-- Node37&#45;&gt;Node40 -->
<g id="edge3" class="edge"><title>Node37&#45;&gt;Node40</title>
<path fill="none" stroke="midnightblue" d="M199.215,-329.361C234.559,-339.62 282.057,-351.799 325,-357.471 433.226,-371.765 556.66,-373.317 649.94,-371.534"/>
<polygon fill="midnightblue" stroke="midnightblue" points="200.164,-325.992 189.582,-326.525 198.187,-332.707 200.164,-325.992"/>
</g>
<!-- Node41 -->
<g id="node5" class="node"><title>Node41</title>
<g id="a_node5"><a xlink:href="../../d8/d84/classde_1_1tu__clausthal_1_1in_1_1bachelorproject2018_1_1poker_1_1game_1_1round_1_1CBetRound.htm#a2f9ecbf9150794faa9af2760afbd96bd" target="_top" xlink:title="wird vor der Aktion des Spielers ausgeführt entscheidet, ob der Spieler überhaupt eine Aktion ausführ...">
<polygon fill="none" stroke="black" points="650,-405.471 650,-433.471 943,-433.471 943,-405.471 650,-405.471"/>
<text text-anchor="start" x="658" y="-422.271" font-family="Helvetica,sans-Serif" font-size="9.00">de.tu_clausthal.in.bachelorproject2018.poker.game.round.</text>
<text text-anchor="middle" x="796.5" y="-412.271" font-family="Helvetica,sans-Serif" font-size="9.00">CBetRound.apply</text>
</a>
</g>
</g>
<!-- Node37&#45;&gt;Node41 -->
<g id="edge4" class="edge"><title>Node37&#45;&gt;Node41</title>
<path fill="none" stroke="midnightblue" d="M185.102,-330.831C220.852,-346.531 275.311,-368.306 325,-379.471 432.179,-403.554 556.066,-413.385 649.804,-417.285"/>
<polygon fill="midnightblue" stroke="midnightblue" points="186.094,-327.441 175.534,-326.577 183.25,-333.838 186.094,-327.441"/>
</g>
<!-- Node42 -->
<g id="node6" class="node"><title>Node42</title>
<g id="a_node6"><a xlink:href="../../d3/dc7/enumde_1_1tu__clausthal_1_1in_1_1bachelorproject2018_1_1poker_1_1game_1_1round_1_1ERound.htm#aaf9a5e22dad6f81c01b993edf3bc5bce" target="_top" xlink:title="factory round objects ">
<polygon fill="none" stroke="black" points="650,-196.471 650,-224.471 943,-224.471 943,-196.471 650,-196.471"/>
<text text-anchor="start" x="658" y="-213.271" font-family="Helvetica,sans-Serif" font-size="9.00">de.tu_clausthal.in.bachelorproject2018.poker.game.round.</text>
<text text-anchor="middle" x="796.5" y="-203.271" font-family="Helvetica,sans-Serif" font-size="9.00">ERound.factory</text>
</a>
</g>
</g>
<!-- Node37&#45;&gt;Node42 -->
<g id="edge5" class="edge"><title>Node37&#45;&gt;Node42</title>
<path fill="none" stroke="midnightblue" d="M181.255,-293.873C216.696,-276.425 273.058,-251.3 325,-239.471 432.027,-215.098 556.057,-208.304 649.894,-207.359"/>
<polygon fill="midnightblue" stroke="midnightblue" points="179.661,-290.757 172.273,-298.351 182.784,-297.021 179.661,-290.757"/>
</g>
<!-- Node48 -->
<g id="node12" class="node"><title>Node48</title>
<g id="a_node12"><a xlink:href="../../dd/dfe/classde_1_1tu__clausthal_1_1in_1_1bachelorproject2018_1_1poker_1_1game_1_1hubs_1_1ChipsHandling.htm#ad85caa6bd2889e2b060b78139daba9e5" target="_top" xlink:title="force bet the blinds of the player with the relevant indexes update the highestBidThisRound to the bi...">
<polygon fill="none" stroke="black" points="325,-530.471 325,-558.471 614,-558.471 614,-530.471 325,-530.471"/>
<text text-anchor="start" x="333" y="-547.271" font-family="Helvetica,sans-Serif" font-size="9.00">de.tu_clausthal.in.bachelorproject2018.poker.game.hubs.</text>
<text text-anchor="middle" x="469.5" y="-537.271" font-family="Helvetica,sans-Serif" font-size="9.00">ChipsHandling.forceBlinds</text>
</a>
</g>
</g>
<!-- Node37&#45;&gt;Node48 -->
<g id="edge13" class="edge"><title>Node37&#45;&gt;Node48</title>
<path fill="none" stroke="midnightblue" d="M158.695,-335.431C184.62,-378.297 246.57,-470.244 325,-515.471 335.789,-521.693 347.705,-526.595 359.922,-530.455"/>
<polygon fill="midnightblue" stroke="midnightblue" points="161.557,-333.397 153.439,-326.589 155.54,-336.973 161.557,-333.397"/>
</g>
<!-- Node49 -->
<g id="node13" class="node"><title>Node49</title>
<g id="a_node13"><a xlink:href="../../dd/dfe/classde_1_1tu__clausthal_1_1in_1_1bachelorproject2018_1_1poker_1_1game_1_1hubs_1_1ChipsHandling.htm#a9ae90b277f875f8e03844dc16e2b99a3" target="_top" xlink:title="check who starts the round should be the player next to bigBlind, but if bigBlind is highest index of...">
<polygon fill="none" stroke="black" points="325,-158.471 325,-186.471 614,-186.471 614,-158.471 325,-158.471"/>
<text text-anchor="start" x="333" y="-175.271" font-family="Helvetica,sans-Serif" font-size="9.00">de.tu_clausthal.in.bachelorproject2018.poker.game.hubs.</text>
<text text-anchor="middle" x="469.5" y="-165.271" font-family="Helvetica,sans-Serif" font-size="9.00">ChipsHandling.getRoundStarter</text>
</a>
</g>
</g>
<!-- Node37&#45;&gt;Node49 -->
<g id="edge15" class="edge"><title>Node37&#45;&gt;Node49</title>
<path fill="none" stroke="midnightblue" d="M171.796,-292C205.427,-266.847 266.355,-224.665 325,-201.471 340.599,-195.302 357.693,-190.386 374.475,-186.487"/>
<polygon fill="midnightblue" stroke="midnightblue" points="169.319,-289.485 163.456,-298.309 173.542,-295.068 169.319,-289.485"/>
</g>
<!-- Node50 -->
<g id="node14" class="node"><title>Node50</title>
<g id="a_node14"><a xlink:href="../../dd/dfe/classde_1_1tu__clausthal_1_1in_1_1bachelorproject2018_1_1poker_1_1game_1_1hubs_1_1ChipsHandling.htm#afbb80dc416439585aa915d36bd398ecb" target="_top" xlink:title="go clockwise through the playerlist, to check who has to pay blinds if any index is at the last index...">
<polygon fill="none" stroke="black" points="325,-320.471 325,-348.471 614,-348.471 614,-320.471 325,-320.471"/>
<text text-anchor="start" x="333" y="-337.271" font-family="Helvetica,sans-Serif" font-size="9.00">de.tu_clausthal.in.bachelorproject2018.poker.game.hubs.</text>
<text text-anchor="middle" x="469.5" y="-327.271" font-family="Helvetica,sans-Serif" font-size="9.00">ChipsHandling.nextBlind</text>
</a>
</g>
</g>
<!-- Node37&#45;&gt;Node50 -->
<g id="edge17" class="edge"><title>Node37&#45;&gt;Node50</title>
<path fill="none" stroke="midnightblue" d="M299.101,-322.933C307.677,-323.517 316.282,-324.103 324.821,-324.685"/>
<polygon fill="midnightblue" stroke="midnightblue" points="299.268,-319.436 289.054,-322.249 298.793,-326.42 299.268,-319.436"/>
</g>
<!-- Node51 -->
<g id="node15" class="node"><title>Node51</title>
<g id="a_node15"><a xlink:href="../../dd/dfe/classde_1_1tu__clausthal_1_1in_1_1bachelorproject2018_1_1poker_1_1game_1_1hubs_1_1ChipsHandling.htm#a68b44f9585047233bac35a0769518577" target="_top" xlink:title="reset everything after a fully played hand resets the same variables as resetRound but furthermore re...">
<polygon fill="none" stroke="black" points="652,-296.471 652,-324.471 941,-324.471 941,-296.471 652,-296.471"/>
<text text-anchor="start" x="660" y="-313.271" font-family="Helvetica,sans-Serif" font-size="9.00">de.tu_clausthal.in.bachelorproject2018.poker.game.hubs.</text>
<text text-anchor="middle" x="796.5" y="-303.271" font-family="Helvetica,sans-Serif" font-size="9.00">ChipsHandling.resetHand</text>
</a>
</g>
</g>
<!-- Node37&#45;&gt;Node51 -->
<g id="edge21" class="edge"><title>Node37&#45;&gt;Node51</title>
<path fill="none" stroke="midnightblue" d="M299.277,-310.645C307.979,-310.577 316.6,-310.518 325,-310.471 434.659,-309.86 558.697,-309.89 651.875,-310.057"/>
<polygon fill="midnightblue" stroke="midnightblue" points="299.003,-307.147 289.032,-310.73 299.061,-314.147 299.003,-307.147"/>
</g>
<!-- Node52 -->
<g id="node16" class="node"><title>Node52</title>
<g id="a_node16"><a xlink:href="../../dd/dfe/classde_1_1tu__clausthal_1_1in_1_1bachelorproject2018_1_1poker_1_1game_1_1hubs_1_1ChipsHandling.htm#a4c42382dfd056b966cbf8507955a447f" target="_top" xlink:title="reset after every betting round resets all nessessary variables to the needed default values ...">
<polygon fill="none" stroke="black" points="325,-107.471 325,-135.471 614,-135.471 614,-107.471 325,-107.471"/>
<text text-anchor="start" x="333" y="-124.271" font-family="Helvetica,sans-Serif" font-size="9.00">de.tu_clausthal.in.bachelorproject2018.poker.game.hubs.</text>
<text text-anchor="middle" x="469.5" y="-114.271" font-family="Helvetica,sans-Serif" font-size="9.00">ChipsHandling.resetRound</text>
</a>
</g>
</g>
<!-- Node37&#45;&gt;Node52 -->
<g id="edge22" class="edge"><title>Node37&#45;&gt;Node52</title>
<path fill="none" stroke="midnightblue" d="M162.629,-290.306C191.774,-254.291 254.727,-183.563 325,-148.471 335.546,-143.205 346.996,-138.961 358.672,-135.541"/>
<polygon fill="midnightblue" stroke="midnightblue" points="159.782,-288.262 156.285,-298.263 165.256,-292.626 159.782,-288.262"/>
</g>
<!-- Node56 -->
<g id="node20" class="node"><title>Node56</title>
<g id="a_node20"><a xlink:href="../../da/d48/classde_1_1tu__clausthal_1_1in_1_1bachelorproject2018_1_1poker_1_1game_1_1hubs_1_1GameHub.htm#aaaa52a4f851684df6aa7a4faed55c722" target="_top" xlink:title="start the game with initializing the deck and adding the start getAmountBetThisRound of chips to each...">
<polygon fill="none" stroke="black" points="981,-24.4711 981,-52.4711 1270,-52.4711 1270,-24.4711 981,-24.4711"/>
<text text-anchor="start" x="989" y="-41.2711" font-family="Helvetica,sans-Serif" font-size="9.00">de.tu_clausthal.in.bachelorproject2018.poker.game.hubs.</text>
<text text-anchor="middle" x="1125.5" y="-31.2711" font-family="Helvetica,sans-Serif" font-size="9.00">GameHub.startGame</text>
</a>
</g>
</g>
<!-- Node37&#45;&gt;Node56 -->
<g id="edge26" class="edge"><title>Node37&#45;&gt;Node56</title>
<path fill="none" stroke="midnightblue" d="M157.285,-289.449C181.747,-244.253 242.69,-144.26 325,-97.4711 562.153,37.3391 904.818,0.305907 1052.41,-24.4588"/>
<polygon fill="midnightblue" stroke="midnightblue" points="154.094,-287.996 152.496,-298.47 160.276,-291.279 154.094,-287.996"/>
</g>
<!-- Node57 -->
<g id="node21" class="node"><title>Node57</title>
<g id="a_node21"><a xlink:href="../../dd/dfe/classde_1_1tu__clausthal_1_1in_1_1bachelorproject2018_1_1poker_1_1game_1_1hubs_1_1ChipsHandling.htm#a5b94b453988143f94f75fe786beb1bc8" target="_top" xlink:title="update who to Ask, return player next in line ">
<polygon fill="none" stroke="black" points="325,-444.471 325,-472.471 614,-472.471 614,-444.471 325,-444.471"/>
<text text-anchor="start" x="333" y="-461.271" font-family="Helvetica,sans-Serif" font-size="9.00">de.tu_clausthal.in.bachelorproject2018.poker.game.hubs.</text>
<text text-anchor="middle" x="469.5" y="-451.271" font-family="Helvetica,sans-Serif" font-size="9.00">ChipsHandling.updateWhoToAsk</text>
</a>
</g>
</g>
<!-- Node37&#45;&gt;Node57 -->
<g id="edge28" class="edge"><title>Node37&#45;&gt;Node57</title>
<path fill="none" stroke="midnightblue" d="M170.38,-333.14C203.536,-359.59 265.018,-404.918 325,-429.471 340.054,-435.633 356.55,-440.527 372.826,-444.401"/>
<polygon fill="midnightblue" stroke="midnightblue" points="172.56,-330.401 162.579,-326.846 168.164,-335.849 172.56,-330.401"/>
</g>
<!-- Node43 -->
<g id="node7" class="node"><title>Node43</title>
<g id="a_node7"><a xlink:href="../../d2/dd9/classde_1_1tu__clausthal_1_1in_1_1bachelorproject2018_1_1poker_1_1game_1_1table_1_1CTable.htm#ad0183995fab983da1c6c6609c0b32b5e" target="_top" xlink:title="Methode um eine neue Runde zu bauen. ">
<polygon fill="none" stroke="black" points="980.5,-128.471 980.5,-156.471 1270.5,-156.471 1270.5,-128.471 980.5,-128.471"/>
<text text-anchor="start" x="988.5" y="-145.271" font-family="Helvetica,sans-Serif" font-size="9.00">de.tu_clausthal.in.bachelorproject2018.poker.game.table.</text>
<text text-anchor="middle" x="1125.5" y="-135.271" font-family="Helvetica,sans-Serif" font-size="9.00">CTable.generateround</text>
</a>
</g>
</g>
<!-- Node42&#45;&gt;Node43 -->
<g id="edge6" class="edge"><title>Node42&#45;&gt;Node43</title>
<path fill="none" stroke="midnightblue" d="M899.066,-194.711C913.837,-192.131 928.833,-189.353 943,-186.471 986.37,-177.65 1035.09,-165.726 1071.13,-156.517"/>
<polygon fill="midnightblue" stroke="midnightblue" points="898.15,-191.317 888.889,-196.464 899.338,-198.215 898.15,-191.317"/>
</g>
<!-- Node44 -->
<g id="node8" class="node"><title>Node44</title>
<g id="a_node8"><a xlink:href="../../d2/dd9/classde_1_1tu__clausthal_1_1in_1_1bachelorproject2018_1_1poker_1_1game_1_1table_1_1CTable.htm#a44356981334e62a09768618f0743d1b5" target="_top" xlink:title="startet das Spiel ">
<polygon fill="none" stroke="black" points="1308,-36.4711 1308,-64.4711 1598,-64.4711 1598,-36.4711 1308,-36.4711"/>
<text text-anchor="start" x="1316" y="-53.2711" font-family="Helvetica,sans-Serif" font-size="9.00">de.tu_clausthal.in.bachelorproject2018.poker.game.table.</text>
<text text-anchor="middle" x="1453" y="-43.2711" font-family="Helvetica,sans-Serif" font-size="9.00">CTable.start</text>
</a>
</g>
</g>
<!-- Node43&#45;&gt;Node44 -->
<g id="edge7" class="edge"><title>Node43&#45;&gt;Node44</title>
<path fill="none" stroke="midnightblue" d="M1185.94,-125.671C1247.95,-108.145 1344.07,-80.978 1402.21,-64.5425"/>
<polygon fill="midnightblue" stroke="midnightblue" points="1184.96,-122.31 1176.29,-128.398 1186.87,-129.046 1184.96,-122.31"/>
</g>
<!-- Node45 -->
<g id="node9" class="node"><title>Node45</title>
<g id="a_node9"><a xlink:href="../../d2/dd9/classde_1_1tu__clausthal_1_1in_1_1bachelorproject2018_1_1poker_1_1game_1_1table_1_1CTable.htm#ac4262ba4e9012a8d37c195f2bedeb6f5" target="_top" xlink:title="Methode, die nach jeder Ausführung einer Round&#45;Action durchlaufen wird, um das Spiel ggf fortzusetzen...">
<polygon fill="none" stroke="black" points="1308,-107.471 1308,-135.471 1598,-135.471 1598,-107.471 1308,-107.471"/>
<text text-anchor="start" x="1316" y="-124.271" font-family="Helvetica,sans-Serif" font-size="9.00">de.tu_clausthal.in.bachelorproject2018.poker.game.table.</text>
<text text-anchor="middle" x="1453" y="-114.271" font-family="Helvetica,sans-Serif" font-size="9.00">CTable.postaction</text>
</a>
</g>
</g>
<!-- Node43&#45;&gt;Node45 -->
<g id="edge8" class="edge"><title>Node43&#45;&gt;Node45</title>
<path fill="none" stroke="midnightblue" d="M1280.83,-132.514C1289.83,-131.934 1298.86,-131.351 1307.82,-130.773"/>
<polygon fill="midnightblue" stroke="midnightblue" points="1280.44,-129.032 1270.69,-133.168 1280.9,-136.017 1280.44,-129.032"/>
</g>
<!-- Node46 -->
<g id="node10" class="node"><title>Node46</title>
<g id="a_node10"><a xlink:href="../../d2/dd9/classde_1_1tu__clausthal_1_1in_1_1bachelorproject2018_1_1poker_1_1game_1_1table_1_1CTable.htm#a763745ff3fa160c02f05117b84b092d4" target="_top" xlink:title="führe ein Element aus der ">
<polygon fill="none" stroke="black" points="1634,-81.4711 1634,-109.471 1924,-109.471 1924,-81.4711 1634,-81.4711"/>
<text text-anchor="start" x="1642" y="-98.2711" font-family="Helvetica,sans-Serif" font-size="9.00">de.tu_clausthal.in.bachelorproject2018.poker.game.table.</text>
<text text-anchor="middle" x="1779" y="-88.2711" font-family="Helvetica,sans-Serif" font-size="9.00">CTable.accept</text>
</a>
</g>
</g>
<!-- Node45&#45;&gt;Node46 -->
<g id="edge9" class="edge"><title>Node45&#45;&gt;Node46</title>
<path fill="none" stroke="midnightblue" d="M1608.67,-109.06C1617.04,-108.388 1625.44,-107.714 1633.78,-107.045"/>
<polygon fill="midnightblue" stroke="midnightblue" points="1608.16,-105.589 1598.47,-109.878 1608.72,-112.567 1608.16,-105.589"/>
</g>
<!-- Node47 -->
<g id="node11" class="node"><title>Node47</title>
<g id="a_node11"><a xlink:href="../../d2/dd9/classde_1_1tu__clausthal_1_1in_1_1bachelorproject2018_1_1poker_1_1game_1_1table_1_1CTable.htm#ac36fc046548fc6b47ee44cecbfd158db" target="_top" xlink:title="führt immer einen Schritt des Spiels aus ">
<polygon fill="none" stroke="black" points="1634,-128.471 1634,-156.471 1924,-156.471 1924,-128.471 1634,-128.471"/>
<text text-anchor="start" x="1642" y="-145.271" font-family="Helvetica,sans-Serif" font-size="9.00">de.tu_clausthal.in.bachelorproject2018.poker.game.table.</text>
<text text-anchor="middle" x="1779" y="-135.271" font-family="Helvetica,sans-Serif" font-size="9.00">CTable.executestep</text>
</a>
</g>
</g>
<!-- Node45&#45;&gt;Node47 -->
<g id="edge10" class="edge"><title>Node45&#45;&gt;Node47</title>
<path fill="none" stroke="midnightblue" d="M1608.46,-124.739C1626.48,-125.876 1644.62,-127.132 1661.99,-128.45"/>
<polygon fill="midnightblue" stroke="midnightblue" points="1608.67,-121.245 1598.47,-124.12 1608.23,-128.232 1608.67,-121.245"/>
</g>
<!-- Node47&#45;&gt;Node43 -->
<g id="edge11" class="edge"><title>Node47&#45;&gt;Node43</title>
<path fill="none" stroke="midnightblue" d="M1623.45,-144.3C1614.84,-144.367 1606.31,-144.425 1598,-144.471 1469.11,-145.187 1436.89,-145.181 1308,-144.471 1295.87,-144.404 1283.28,-144.312 1270.65,-144.204"/>
<polygon fill="midnightblue" stroke="midnightblue" points="1623.61,-147.798 1633.58,-144.217 1623.55,-140.799 1623.61,-147.798"/>
</g>
<!-- Node47&#45;&gt;Node45 -->
<g id="edge12" class="edge"><title>Node47&#45;&gt;Node45</title>
<path fill="none" stroke="midnightblue" d="M1623.87,-139.224C1605.76,-138.083 1587.52,-136.821 1570.06,-135.496"/>
<polygon fill="midnightblue" stroke="midnightblue" points="1623.72,-142.721 1633.92,-139.846 1624.15,-135.735 1623.72,-142.721"/>
</g>
<!-- Node48&#45;&gt;Node39 -->
<g id="edge14" class="edge"><title>Node48&#45;&gt;Node39</title>
<path fill="none" stroke="midnightblue" d="M606.615,-558.989C704.911,-563.581 838.235,-557.339 943,-506.471 1029.36,-464.54 1094.73,-362.27 1116.59,-324.656"/>
<polygon fill="midnightblue" stroke="midnightblue" points="606.78,-555.493 596.614,-558.479 606.423,-562.484 606.78,-555.493"/>
</g>
<!-- Node49&#45;&gt;Node42 -->
<g id="edge16" class="edge"><title>Node49&#45;&gt;Node42</title>
<path fill="none" stroke="midnightblue" d="M600.75,-187.7C625.476,-190.591 651.241,-193.604 675.628,-196.455"/>
<polygon fill="midnightblue" stroke="midnightblue" points="600.933,-184.198 590.595,-186.513 600.12,-191.151 600.933,-184.198"/>
</g>
<!-- Node50&#45;&gt;Node40 -->
<g id="edge18" class="edge"><title>Node50&#45;&gt;Node40</title>
<path fill="none" stroke="midnightblue" d="M624.655,-349.175C633.023,-349.973 641.42,-350.774 649.758,-351.57"/>
<polygon fill="midnightblue" stroke="midnightblue" points="624.756,-345.669 614.469,-348.204 624.091,-352.637 624.756,-345.669"/>
</g>
<!-- Node50&#45;&gt;Node51 -->
<g id="edge19" class="edge"><title>Node50&#45;&gt;Node51</title>
<path fill="none" stroke="midnightblue" d="M624.663,-323.087C633.71,-322.419 642.792,-321.748 651.796,-321.083"/>
<polygon fill="midnightblue" stroke="midnightblue" points="624.184,-319.612 614.469,-323.84 624.7,-326.593 624.184,-319.612"/>
</g>
<!-- Node51&#45;&gt;Node39 -->
<g id="edge20" class="edge"><title>Node51&#45;&gt;Node39</title>
<path fill="none" stroke="midnightblue" d="M951.622,-310.471C960.693,-310.471 969.802,-310.471 978.838,-310.471"/>
<polygon fill="midnightblue" stroke="midnightblue" points="951.403,-306.971 941.403,-310.471 951.403,-313.971 951.403,-306.971"/>
</g>
<!-- Node53 -->
<g id="node17" class="node"><title>Node53</title>
<g id="a_node17"><a xlink:href="../../d8/d6c/classde_1_1tu__clausthal_1_1in_1_1bachelorproject2018_1_1poker_1_1game_1_1round_1_1CTurn.htm#aa997ce946e5b26eb305e47ce7ae1dd81" target="_top" xlink:title="Legt eine Karte vom Deck auf den Tisch. ">
<polygon fill="none" stroke="black" points="650,-55.4711 650,-83.4711 943,-83.4711 943,-55.4711 650,-55.4711"/>
<text text-anchor="start" x="658" y="-72.2711" font-family="Helvetica,sans-Serif" font-size="9.00">de.tu_clausthal.in.bachelorproject2018.poker.game.round.</text>
<text text-anchor="middle" x="796.5" y="-62.2711" font-family="Helvetica,sans-Serif" font-size="9.00">CTurn.apply</text>
</a>
</g>
</g>
<!-- Node52&#45;&gt;Node53 -->
<g id="edge23" class="edge"><title>Node52&#45;&gt;Node53</title>
<path fill="none" stroke="midnightblue" d="M567.363,-105.76C594.131,-101.435 623.189,-96.756 650,-92.4711 668.309,-89.545 687.917,-86.4316 706.62,-83.4716"/>
<polygon fill="midnightblue" stroke="midnightblue" points="566.538,-102.348 557.225,-107.399 567.655,-109.258 566.538,-102.348"/>
</g>
<!-- Node54 -->
<g id="node18" class="node"><title>Node54</title>
<g id="a_node18"><a xlink:href="../../d9/d71/classde_1_1tu__clausthal_1_1in_1_1bachelorproject2018_1_1poker_1_1game_1_1round_1_1CRiver.htm#a639b79e14972b10284e0dfd816f8a5d1" target="_top" xlink:title="Legt eine Karte vom Deck auf den Tisch. ">
<polygon fill="none" stroke="black" points="650,-149.471 650,-177.471 943,-177.471 943,-149.471 650,-149.471"/>
<text text-anchor="start" x="658" y="-166.271" font-family="Helvetica,sans-Serif" font-size="9.00">de.tu_clausthal.in.bachelorproject2018.poker.game.round.</text>
<text text-anchor="middle" x="796.5" y="-156.271" font-family="Helvetica,sans-Serif" font-size="9.00">CRiver.apply</text>
</a>
</g>
</g>
<!-- Node52&#45;&gt;Node54 -->
<g id="edge24" class="edge"><title>Node52&#45;&gt;Node54</title>
<path fill="none" stroke="midnightblue" d="M589.434,-136.841C621.325,-140.962 655.633,-145.396 686.93,-149.441"/>
<polygon fill="midnightblue" stroke="midnightblue" points="589.538,-133.325 579.172,-135.515 588.641,-140.268 589.538,-133.325"/>
</g>
<!-- Node55 -->
<g id="node19" class="node"><title>Node55</title>
<g id="a_node19"><a xlink:href="../../d0/da9/classde_1_1tu__clausthal_1_1in_1_1bachelorproject2018_1_1poker_1_1game_1_1round_1_1CFlop.htm#a09a8d1a76054acdf7d4fe631f850076e" target="_top" xlink:title="legt 3 Karten vom Deck auf den Tisch ">
<polygon fill="none" stroke="black" points="650,-102.471 650,-130.471 943,-130.471 943,-102.471 650,-102.471"/>
<text text-anchor="start" x="658" y="-119.271" font-family="Helvetica,sans-Serif" font-size="9.00">de.tu_clausthal.in.bachelorproject2018.poker.game.round.</text>
<text text-anchor="middle" x="796.5" y="-109.271" font-family="Helvetica,sans-Serif" font-size="9.00">CFlop.apply</text>
</a>
</g>
</g>
<!-- Node52&#45;&gt;Node55 -->
<g id="edge25" class="edge"><title>Node52&#45;&gt;Node55</title>
<path fill="none" stroke="midnightblue" d="M624.655,-119.099C633.023,-118.971 641.42,-118.842 649.758,-118.713"/>
<polygon fill="midnightblue" stroke="midnightblue" points="624.414,-115.603 614.469,-119.256 624.522,-122.602 624.414,-115.603"/>
</g>
<!-- Node56&#45;&gt;Node44 -->
<g id="edge27" class="edge"><title>Node56&#45;&gt;Node44</title>
<path fill="none" stroke="midnightblue" d="M1280.22,-44.1381C1289.45,-44.4786 1298.73,-44.8206 1307.92,-45.1596"/>
<polygon fill="midnightblue" stroke="midnightblue" points="1280.34,-40.6403 1270.22,-43.7694 1280.08,-47.6355 1280.34,-40.6403"/>
</g>
<!-- Node57&#45;&gt;Node38 -->
<g id="edge29" class="edge"><title>Node57&#45;&gt;Node38</title>
<path fill="none" stroke="midnightblue" d="M624.655,-470.329C633.023,-470.973 641.42,-471.619 649.758,-472.26"/>
<polygon fill="midnightblue" stroke="midnightblue" points="624.708,-466.823 614.469,-469.546 624.171,-473.802 624.708,-466.823"/>
</g>
<!-- Node57&#45;&gt;Node41 -->
<g id="edge30" class="edge"><title>Node57&#45;&gt;Node41</title>
<path fill="none" stroke="midnightblue" d="M597.533,-443.227C624.229,-440.024 652.267,-436.659 678.572,-433.502"/>
<polygon fill="midnightblue" stroke="midnightblue" points="596.885,-439.78 587.373,-444.446 597.719,-446.73 596.885,-439.78"/>
</g>
</g>
</svg>
        <g id="navigator" transform="translate(0 0)" fill="#404254">
                <rect fill="#f2f5e9" fill-opacity="0.5" stroke="#606060" stroke-width=".5" x="0" y="0" width="60" height="60"/>
                <use id="zoomplus" xlink:href="#zoomPlus" x="17" y="9" onmousedown="handleZoom(evt,'in')"/>
                <use id="zoomminus" xlink:href="#zoomMin" x="42" y="9" onmousedown="handleZoom(evt,'out')"/>
                <use id="reset" xlink:href="#resetDef" x="30" y="36" onmousedown="handleReset()"/>
                <g id="arrowUp" xlink:href="#dirArrow" transform="translate(30 24)" onmousedown="handlePan(0,-1)">
                  <use xlink:href="#rim" fill="#404040">
                        <set attributeName="fill" to="#808080" begin="arrowUp.mouseover" end="arrowUp.mouseout"/>
                  </use>
                  <path fill="none" stroke="white" stroke-width="1.5" d="M0,-3.0v7 M-2.5,-0.5L0,-3.0L2.5,-0.5"/>
                </g>
                <g id="arrowRight" xlink:href="#dirArrow" transform="rotate(90) translate(36 -43)" onmousedown="handlePan(1,0)">
                  <use xlink:href="#rim" fill="#404040">
                        <set attributeName="fill" to="#808080" begin="arrowRight.mouseover" end="arrowRight.mouseout"/>
                  </use>
                  <path fill="none" stroke="white" stroke-width="1.5" d="M0,-3.0v7 M-2.5,-0.5L0,-3.0L2.5,-0.5"/>
                </g>
                <g id="arrowDown" xlink:href="#dirArrow" transform="rotate(180) translate(-30 -48)" onmousedown="handlePan(0,1)">
                  <use xlink:href="#rim" fill="#404040">
                        <set attributeName="fill" to="#808080" begin="arrowDown.mouseover" end="arrowDown.mouseout"/>
                  </use>
                  <path fill="none" stroke="white" stroke-width="1.5" d="M0,-3.0v7 M-2.5,-0.5L0,-3.0L2.5,-0.5"/>
                </g>
                <g id="arrowLeft" xlink:href="#dirArrow" transform="rotate(270) translate(-36 17)" onmousedown="handlePan(-1,0)">
                  <use xlink:href="#rim" fill="#404040">
                        <set attributeName="fill" to="#808080" begin="arrowLeft.mouseover" end="arrowLeft.mouseout"/>
                  </use>
                  <path fill="none" stroke="white" stroke-width="1.5" d="M0,-3.0v7 M-2.5,-0.5L0,-3.0L2.5,-0.5"/>
                </g>
        </g>
        <svg viewBox="0 0 15 15" width="100%" height="30px" preserveAspectRatio="xMaxYMin meet">
         <g id="arrow_out" transform="scale(0.3 0.3)">
          <a xlink:href="classde_1_1tu__clausthal_1_1in_1_1bachelorproject2018_1_1poker_1_1game_1_1hubs_1_1GameHub_a2f65b057de245146843c2f5c3bbe30f1_icgraph_org.svg" target="_base">
           <rect id="button" ry="5" rx="5" y="6" x="6" height="38" width="38"
                fill="#f2f5e9" fill-opacity="0.5" stroke="#606060" stroke-width="1.0"/>
           <path id="arrow"
             d="M 11.500037,31.436501 C 11.940474,20.09759 22.043105,11.32322 32.158766,21.979434 L 37.068811,17.246167 C 37.068811,17.246167 37.088388,32 37.088388,32 L 22.160133,31.978069 C 22.160133,31.978069 26.997745,27.140456 26.997745,27.140456 C 18.528582,18.264221 13.291696,25.230495 11.500037,31.436501 z"
             style="fill:#404040;"/>
          </a>
         </g>
        </svg>
</svg>
