<?xml version="1.0" encoding="UTF-8" standalone="no"?>
<!DOCTYPE svg PUBLIC "-//W3C//DTD SVG 1.1//EN"
 "http://www.w3.org/Graphics/SVG/1.1/DTD/svg11.dtd">
<!-- Generated by graphviz version 2.38.0 (20140413.2041)
 -->
<!-- Title: de.tu_clausthal.in.bachelorproject2018.poker.game.hubs.GameHub.updatePlayerlist Pages: 1 -->
<svg width="2257pt" height="569pt"
 viewBox="0.00 0.00 2257.00 568.61" xmlns="http://www.w3.org/2000/svg" xmlns:xlink="http://www.w3.org/1999/xlink">
<g id="graph0" class="graph" transform="scale(1 1) rotate(0) translate(4 564.608)">
<title>de.tu_clausthal.in.bachelorproject2018.poker.game.hubs.GameHub.updatePlayerlist</title>
<!-- Node74 -->
<g id="node1" class="node"><title>Node74</title>
<polygon fill="#bfbfbf" stroke="black" points="0,-298.471 0,-326.471 289,-326.471 289,-298.471 0,-298.471"/>
<text text-anchor="start" x="8" y="-315.271" font-family="Helvetica,sans-Serif" font-size="9.00">de.tu_clausthal.in.bachelorproject2018.poker.game.hubs.</text>
<text text-anchor="middle" x="144.5" y="-305.271" font-family="Helvetica,sans-Serif" font-size="9.00">GameHub.updatePlayerlist</text>
</g>
<!-- Node75 -->
<g id="node2" class="node"><title>Node75</title>
<g id="a_node2"><a xlink:href="../../da/d48/classde_1_1tu__clausthal_1_1in_1_1bachelorproject2018_1_1poker_1_1game_1_1hubs_1_1GameHub.htm#a2f65b057de245146843c2f5c3bbe30f1" target="_top" xlink:title="getter for the playerlist ">
<polygon fill="none" stroke="black" points="325,-298.471 325,-326.471 614,-326.471 614,-298.471 325,-298.471"/>
<text text-anchor="start" x="333" y="-315.271" font-family="Helvetica,sans-Serif" font-size="9.00">de.tu_clausthal.in.bachelorproject2018.poker.game.hubs.</text>
<text text-anchor="middle" x="469.5" y="-305.271" font-family="Helvetica,sans-Serif" font-size="9.00">GameHub.getPlayerList</text>
</a>
</g>
</g>
<!-- Node74&#45;&gt;Node75 -->
<g id="edge1" class="edge"><title>Node74&#45;&gt;Node75</title>
<path fill="none" stroke="midnightblue" d="M299.101,-312.471C307.677,-312.471 316.282,-312.471 324.821,-312.471"/>
<polygon fill="midnightblue" stroke="midnightblue" points="299.054,-308.971 289.054,-312.471 299.053,-315.971 299.054,-308.971"/>
</g>
<!-- Node76 -->
<g id="node3" class="node"><title>Node76</title>
<g id="a_node3"><a xlink:href="../../d8/d84/classde_1_1tu__clausthal_1_1in_1_1bachelorproject2018_1_1poker_1_1game_1_1round_1_1CBetRound.htm#a15f799e13defeab9ebedbb01cf77ebd4" target="_top" xlink:title="Accept wird nach der Aktion des Spielers ausgeführt Falls nötig werden hier neue BetRound&#45;Objekte erz...">
<polygon fill="none" stroke="black" points="975,-469.471 975,-497.471 1268,-497.471 1268,-469.471 975,-469.471"/>
<text text-anchor="start" x="983" y="-486.271" font-family="Helvetica,sans-Serif" font-size="9.00">de.tu_clausthal.in.bachelorproject2018.poker.game.round.</text>
<text text-anchor="middle" x="1121.5" y="-476.271" font-family="Helvetica,sans-Serif" font-size="9.00">CBetRound.accept</text>
</a>
</g>
</g>
<!-- Node75&#45;&gt;Node76 -->
<g id="edge2" class="edge"><title>Node75&#45;&gt;Node76</title>
<path fill="none" stroke="midnightblue" d="M485.572,-335.064C512.927,-373.775 574.924,-451.505 650,-481.471 786.367,-535.901 963.197,-514.881 1056.44,-497.531"/>
<polygon fill="midnightblue" stroke="midnightblue" points="488.245,-332.776 479.672,-326.551 482.491,-336.763 488.245,-332.776"/>
</g>
<!-- Node77 -->
<g id="node4" class="node"><title>Node77</title>
<g id="a_node4"><a xlink:href="../../d3/d48/classde_1_1tu__clausthal_1_1in_1_1bachelorproject2018_1_1poker_1_1game_1_1round_1_1CPreFlop.htm#a29d161fc537ba98819b2a6ea3acc9894" target="_top" xlink:title="resetet alle wichtigen Methoden im CardDealer und ChipsHandler forciert Blinds der Spieler Teilt Kart...">
<polygon fill="none" stroke="black" points="1304,-296.471 1304,-324.471 1597,-324.471 1597,-296.471 1304,-296.471"/>
<text text-anchor="start" x="1312" y="-313.271" font-family="Helvetica,sans-Serif" font-size="9.00">de.tu_clausthal.in.bachelorproject2018.poker.game.round.</text>
<text text-anchor="middle" x="1450.5" y="-303.271" font-family="Helvetica,sans-Serif" font-size="9.00">CPreFlop.apply</text>
</a>
</g>
</g>
<!-- Node75&#45;&gt;Node77 -->
<g id="edge3" class="edge"><title>Node75&#45;&gt;Node77</title>
<path fill="none" stroke="midnightblue" d="M624.793,-298.469C785.546,-285.983 1044.65,-271.768 1268,-286.471 1298.45,-288.475 1331.58,-292.352 1361.11,-296.414"/>
<polygon fill="midnightblue" stroke="midnightblue" points="624.044,-295.016 614.348,-299.288 624.592,-301.995 624.044,-295.016"/>
</g>
<!-- Node78 -->
<g id="node5" class="node"><title>Node78</title>
<g id="a_node5"><a xlink:href="../../dd/ded/classde_1_1tu__clausthal_1_1in_1_1bachelorproject2018_1_1poker_1_1game_1_1round_1_1CWinEvaluation.htm#a258d61fbe6f67033165ecce526239cf0" target="_top" xlink:title="erstellt eine HandStatisticList Erstellt für jeden Spieler, der noch im Spiel ist, eine Handstatistic Ruft das Enum Wincheck für jede Handstatistsic auf Vergleicht die Handstatistiken, und erklärt die Sieger Teilt die Chips an die Gewinner auf ">
<polygon fill="none" stroke="black" points="975,-351.471 975,-379.471 1268,-379.471 1268,-351.471 975,-351.471"/>
<text text-anchor="start" x="983" y="-368.271" font-family="Helvetica,sans-Serif" font-size="9.00">de.tu_clausthal.in.bachelorproject2018.poker.game.round.</text>
<text text-anchor="middle" x="1121.5" y="-358.271" font-family="Helvetica,sans-Serif" font-size="9.00">CWinEvaluation.apply</text>
</a>
</g>
</g>
<!-- Node75&#45;&gt;Node78 -->
<g id="edge4" class="edge"><title>Node75&#45;&gt;Node78</title>
<path fill="none" stroke="midnightblue" d="M524.215,-329.361C559.559,-339.62 607.057,-351.799 650,-357.471 758.226,-371.765 881.66,-373.317 974.94,-371.534"/>
<polygon fill="midnightblue" stroke="midnightblue" points="525.164,-325.992 514.582,-326.525 523.187,-332.707 525.164,-325.992"/>
</g>
<!-- Node79 -->
<g id="node6" class="node"><title>Node79</title>
<g id="a_node6"><a xlink:href="../../d8/d84/classde_1_1tu__clausthal_1_1in_1_1bachelorproject2018_1_1poker_1_1game_1_1round_1_1CBetRound.htm#a2f9ecbf9150794faa9af2760afbd96bd" target="_top" xlink:title="wird vor der Aktion des Spielers ausgeführt entscheidet, ob der Spieler überhaupt eine Aktion ausführ...">
<polygon fill="none" stroke="black" points="975,-405.471 975,-433.471 1268,-433.471 1268,-405.471 975,-405.471"/>
<text text-anchor="start" x="983" y="-422.271" font-family="Helvetica,sans-Serif" font-size="9.00">de.tu_clausthal.in.bachelorproject2018.poker.game.round.</text>
<text text-anchor="middle" x="1121.5" y="-412.271" font-family="Helvetica,sans-Serif" font-size="9.00">CBetRound.apply</text>
</a>
</g>
</g>
<!-- Node75&#45;&gt;Node79 -->
<g id="edge5" class="edge"><title>Node75&#45;&gt;Node79</title>
<path fill="none" stroke="midnightblue" d="M510.102,-330.831C545.852,-346.531 600.311,-368.306 650,-379.471 757.179,-403.554 881.066,-413.385 974.804,-417.285"/>
<polygon fill="midnightblue" stroke="midnightblue" points="511.094,-327.441 500.534,-326.577 508.25,-333.838 511.094,-327.441"/>
</g>
<!-- Node80 -->
<g id="node7" class="node"><title>Node80</title>
<g id="a_node7"><a xlink:href="../../d3/dc7/enumde_1_1tu__clausthal_1_1in_1_1bachelorproject2018_1_1poker_1_1game_1_1round_1_1ERound.htm#aaf9a5e22dad6f81c01b993edf3bc5bce" target="_top" xlink:title="factory round objects ">
<polygon fill="none" stroke="black" points="975,-196.471 975,-224.471 1268,-224.471 1268,-196.471 975,-196.471"/>
<text text-anchor="start" x="983" y="-213.271" font-family="Helvetica,sans-Serif" font-size="9.00">de.tu_clausthal.in.bachelorproject2018.poker.game.round.</text>
<text text-anchor="middle" x="1121.5" y="-203.271" font-family="Helvetica,sans-Serif" font-size="9.00">ERound.factory</text>
</a>
</g>
</g>
<!-- Node75&#45;&gt;Node80 -->
<g id="edge6" class="edge"><title>Node75&#45;&gt;Node80</title>
<path fill="none" stroke="midnightblue" d="M506.255,-293.873C541.696,-276.425 598.058,-251.3 650,-239.471 757.027,-215.098 881.057,-208.304 974.894,-207.359"/>
<polygon fill="midnightblue" stroke="midnightblue" points="504.661,-290.757 497.273,-298.351 507.784,-297.021 504.661,-290.757"/>
</g>
<!-- Node86 -->
<g id="node13" class="node"><title>Node86</title>
<g id="a_node13"><a xlink:href="../../dd/dfe/classde_1_1tu__clausthal_1_1in_1_1bachelorproject2018_1_1poker_1_1game_1_1hubs_1_1ChipsHandling.htm#ad85caa6bd2889e2b060b78139daba9e5" target="_top" xlink:title="force bet the blinds of the player with the relevant indexes update the highestBidThisRound to the bi...">
<polygon fill="none" stroke="black" points="650,-530.471 650,-558.471 939,-558.471 939,-530.471 650,-530.471"/>
<text text-anchor="start" x="658" y="-547.271" font-family="Helvetica,sans-Serif" font-size="9.00">de.tu_clausthal.in.bachelorproject2018.poker.game.hubs.</text>
<text text-anchor="middle" x="794.5" y="-537.271" font-family="Helvetica,sans-Serif" font-size="9.00">ChipsHandling.forceBlinds</text>
</a>
</g>
</g>
<!-- Node75&#45;&gt;Node86 -->
<g id="edge14" class="edge"><title>Node75&#45;&gt;Node86</title>
<path fill="none" stroke="midnightblue" d="M483.695,-335.431C509.62,-378.297 571.57,-470.244 650,-515.471 660.789,-521.693 672.705,-526.595 684.922,-530.455"/>
<polygon fill="midnightblue" stroke="midnightblue" points="486.557,-333.397 478.439,-326.589 480.54,-336.973 486.557,-333.397"/>
</g>
<!-- Node87 -->
<g id="node14" class="node"><title>Node87</title>
<g id="a_node14"><a xlink:href="../../dd/dfe/classde_1_1tu__clausthal_1_1in_1_1bachelorproject2018_1_1poker_1_1game_1_1hubs_1_1ChipsHandling.htm#a9ae90b277f875f8e03844dc16e2b99a3" target="_top" xlink:title="check who starts the round should be the player next to bigBlind, but if bigBlind is highest index of...">
<polygon fill="none" stroke="black" points="650,-158.471 650,-186.471 939,-186.471 939,-158.471 650,-158.471"/>
<text text-anchor="start" x="658" y="-175.271" font-family="Helvetica,sans-Serif" font-size="9.00">de.tu_clausthal.in.bachelorproject2018.poker.game.hubs.</text>
<text text-anchor="middle" x="794.5" y="-165.271" font-family="Helvetica,sans-Serif" font-size="9.00">ChipsHandling.getRoundStarter</text>
</a>
</g>
</g>
<!-- Node75&#45;&gt;Node87 -->
<g id="edge16" class="edge"><title>Node75&#45;&gt;Node87</title>
<path fill="none" stroke="midnightblue" d="M496.796,-292C530.427,-266.847 591.355,-224.665 650,-201.471 665.599,-195.302 682.693,-190.386 699.475,-186.487"/>
<polygon fill="midnightblue" stroke="midnightblue" points="494.319,-289.485 488.456,-298.309 498.542,-295.068 494.319,-289.485"/>
</g>
<!-- Node88 -->
<g id="node15" class="node"><title>Node88</title>
<g id="a_node15"><a xlink:href="../../dd/dfe/classde_1_1tu__clausthal_1_1in_1_1bachelorproject2018_1_1poker_1_1game_1_1hubs_1_1ChipsHandling.htm#afbb80dc416439585aa915d36bd398ecb" target="_top" xlink:title="go clockwise through the playerlist, to check who has to pay blinds if any index is at the last index...">
<polygon fill="none" stroke="black" points="650,-320.471 650,-348.471 939,-348.471 939,-320.471 650,-320.471"/>
<text text-anchor="start" x="658" y="-337.271" font-family="Helvetica,sans-Serif" font-size="9.00">de.tu_clausthal.in.bachelorproject2018.poker.game.hubs.</text>
<text text-anchor="middle" x="794.5" y="-327.271" font-family="Helvetica,sans-Serif" font-size="9.00">ChipsHandling.nextBlind</text>
</a>
</g>
</g>
<!-- Node75&#45;&gt;Node88 -->
<g id="edge18" class="edge"><title>Node75&#45;&gt;Node88</title>
<path fill="none" stroke="midnightblue" d="M624.101,-322.933C632.677,-323.517 641.282,-324.103 649.821,-324.685"/>
<polygon fill="midnightblue" stroke="midnightblue" points="624.268,-319.436 614.054,-322.249 623.793,-326.42 624.268,-319.436"/>
</g>
<!-- Node89 -->
<g id="node16" class="node"><title>Node89</title>
<g id="a_node16"><a xlink:href="../../dd/dfe/classde_1_1tu__clausthal_1_1in_1_1bachelorproject2018_1_1poker_1_1game_1_1hubs_1_1ChipsHandling.htm#a68b44f9585047233bac35a0769518577" target="_top" xlink:title="reset everything after a fully played hand resets the same variables as resetRound but furthermore re...">
<polygon fill="none" stroke="black" points="977,-296.471 977,-324.471 1266,-324.471 1266,-296.471 977,-296.471"/>
<text text-anchor="start" x="985" y="-313.271" font-family="Helvetica,sans-Serif" font-size="9.00">de.tu_clausthal.in.bachelorproject2018.poker.game.hubs.</text>
<text text-anchor="middle" x="1121.5" y="-303.271" font-family="Helvetica,sans-Serif" font-size="9.00">ChipsHandling.resetHand</text>
</a>
</g>
</g>
<!-- Node75&#45;&gt;Node89 -->
<g id="edge22" class="edge"><title>Node75&#45;&gt;Node89</title>
<path fill="none" stroke="midnightblue" d="M624.277,-310.645C632.979,-310.577 641.6,-310.518 650,-310.471 759.659,-309.86 883.697,-309.89 976.875,-310.057"/>
<polygon fill="midnightblue" stroke="midnightblue" points="624.003,-307.147 614.032,-310.73 624.061,-314.147 624.003,-307.147"/>
</g>
<!-- Node90 -->
<g id="node17" class="node"><title>Node90</title>
<g id="a_node17"><a xlink:href="../../dd/dfe/classde_1_1tu__clausthal_1_1in_1_1bachelorproject2018_1_1poker_1_1game_1_1hubs_1_1ChipsHandling.htm#a4c42382dfd056b966cbf8507955a447f" target="_top" xlink:title="reset after every betting round resets all nessessary variables to the needed default values ...">
<polygon fill="none" stroke="black" points="650,-107.471 650,-135.471 939,-135.471 939,-107.471 650,-107.471"/>
<text text-anchor="start" x="658" y="-124.271" font-family="Helvetica,sans-Serif" font-size="9.00">de.tu_clausthal.in.bachelorproject2018.poker.game.hubs.</text>
<text text-anchor="middle" x="794.5" y="-114.271" font-family="Helvetica,sans-Serif" font-size="9.00">ChipsHandling.resetRound</text>
</a>
</g>
</g>
<!-- Node75&#45;&gt;Node90 -->
<g id="edge23" class="edge"><title>Node75&#45;&gt;Node90</title>
<path fill="none" stroke="midnightblue" d="M487.629,-290.306C516.774,-254.291 579.727,-183.563 650,-148.471 660.546,-143.205 671.996,-138.961 683.672,-135.541"/>
<polygon fill="midnightblue" stroke="midnightblue" points="484.782,-288.262 481.285,-298.263 490.256,-292.626 484.782,-288.262"/>
</g>
<!-- Node94 -->
<g id="node21" class="node"><title>Node94</title>
<g id="a_node21"><a xlink:href="../../da/d48/classde_1_1tu__clausthal_1_1in_1_1bachelorproject2018_1_1poker_1_1game_1_1hubs_1_1GameHub.htm#aaaa52a4f851684df6aa7a4faed55c722" target="_top" xlink:title="start the game with initializing the deck and adding the start getAmountBetThisRound of chips to each...">
<polygon fill="none" stroke="black" points="1306,-24.4711 1306,-52.4711 1595,-52.4711 1595,-24.4711 1306,-24.4711"/>
<text text-anchor="start" x="1314" y="-41.2711" font-family="Helvetica,sans-Serif" font-size="9.00">de.tu_clausthal.in.bachelorproject2018.poker.game.hubs.</text>
<text text-anchor="middle" x="1450.5" y="-31.2711" font-family="Helvetica,sans-Serif" font-size="9.00">GameHub.startGame</text>
</a>
</g>
</g>
<!-- Node75&#45;&gt;Node94 -->
<g id="edge27" class="edge"><title>Node75&#45;&gt;Node94</title>
<path fill="none" stroke="midnightblue" d="M482.285,-289.449C506.747,-244.253 567.69,-144.26 650,-97.4711 887.153,37.3391 1229.82,0.305907 1377.41,-24.4588"/>
<polygon fill="midnightblue" stroke="midnightblue" points="479.094,-287.996 477.496,-298.47 485.276,-291.279 479.094,-287.996"/>
</g>
<!-- Node95 -->
<g id="node22" class="node"><title>Node95</title>
<g id="a_node22"><a xlink:href="../../dd/dfe/classde_1_1tu__clausthal_1_1in_1_1bachelorproject2018_1_1poker_1_1game_1_1hubs_1_1ChipsHandling.htm#a5b94b453988143f94f75fe786beb1bc8" target="_top" xlink:title="update who to Ask, return player next in line ">
<polygon fill="none" stroke="black" points="650,-444.471 650,-472.471 939,-472.471 939,-444.471 650,-444.471"/>
<text text-anchor="start" x="658" y="-461.271" font-family="Helvetica,sans-Serif" font-size="9.00">de.tu_clausthal.in.bachelorproject2018.poker.game.hubs.</text>
<text text-anchor="middle" x="794.5" y="-451.271" font-family="Helvetica,sans-Serif" font-size="9.00">ChipsHandling.updateWhoToAsk</text>
</a>
</g>
</g>
<!-- Node75&#45;&gt;Node95 -->
<g id="edge29" class="edge"><title>Node75&#45;&gt;Node95</title>
<path fill="none" stroke="midnightblue" d="M495.38,-333.14C528.536,-359.59 590.018,-404.918 650,-429.471 665.054,-435.633 681.55,-440.527 697.826,-444.401"/>
<polygon fill="midnightblue" stroke="midnightblue" points="497.56,-330.401 487.579,-326.846 493.164,-335.849 497.56,-330.401"/>
</g>
<!-- Node81 -->
<g id="node8" class="node"><title>Node81</title>
<g id="a_node8"><a xlink:href="../../d2/dd9/classde_1_1tu__clausthal_1_1in_1_1bachelorproject2018_1_1poker_1_1game_1_1table_1_1CTable.htm#ad0183995fab983da1c6c6609c0b32b5e" target="_top" xlink:title="Methode um eine neue Runde zu bauen. ">
<polygon fill="none" stroke="black" points="1305.5,-128.471 1305.5,-156.471 1595.5,-156.471 1595.5,-128.471 1305.5,-128.471"/>
<text text-anchor="start" x="1313.5" y="-145.271" font-family="Helvetica,sans-Serif" font-size="9.00">de.tu_clausthal.in.bachelorproject2018.poker.game.table.</text>
<text text-anchor="middle" x="1450.5" y="-135.271" font-family="Helvetica,sans-Serif" font-size="9.00">CTable.generateround</text>
</a>
</g>
</g>
<!-- Node80&#45;&gt;Node81 -->
<g id="edge7" class="edge"><title>Node80&#45;&gt;Node81</title>
<path fill="none" stroke="midnightblue" d="M1224.07,-194.711C1238.84,-192.131 1253.83,-189.353 1268,-186.471 1311.37,-177.65 1360.09,-165.726 1396.13,-156.517"/>
<polygon fill="midnightblue" stroke="midnightblue" points="1223.15,-191.317 1213.89,-196.464 1224.34,-198.215 1223.15,-191.317"/>
</g>
<!-- Node82 -->
<g id="node9" class="node"><title>Node82</title>
<g id="a_node9"><a xlink:href="../../d2/dd9/classde_1_1tu__clausthal_1_1in_1_1bachelorproject2018_1_1poker_1_1game_1_1table_1_1CTable.htm#a44356981334e62a09768618f0743d1b5" target="_top" xlink:title="startet das Spiel ">
<polygon fill="none" stroke="black" points="1633,-36.4711 1633,-64.4711 1923,-64.4711 1923,-36.4711 1633,-36.4711"/>
<text text-anchor="start" x="1641" y="-53.2711" font-family="Helvetica,sans-Serif" font-size="9.00">de.tu_clausthal.in.bachelorproject2018.poker.game.table.</text>
<text text-anchor="middle" x="1778" y="-43.2711" font-family="Helvetica,sans-Serif" font-size="9.00">CTable.start</text>
</a>
</g>
</g>
<!-- Node81&#45;&gt;Node82 -->
<g id="edge8" class="edge"><title>Node81&#45;&gt;Node82</title>
<path fill="none" stroke="midnightblue" d="M1510.94,-125.671C1572.95,-108.145 1669.07,-80.978 1727.21,-64.5425"/>
<polygon fill="midnightblue" stroke="midnightblue" points="1509.96,-122.31 1501.29,-128.398 1511.87,-129.046 1509.96,-122.31"/>
</g>
<!-- Node83 -->
<g id="node10" class="node"><title>Node83</title>
<g id="a_node10"><a xlink:href="../../d2/dd9/classde_1_1tu__clausthal_1_1in_1_1bachelorproject2018_1_1poker_1_1game_1_1table_1_1CTable.htm#ac4262ba4e9012a8d37c195f2bedeb6f5" target="_top" xlink:title="Methode, die nach jeder Ausführung einer Round&#45;Action durchlaufen wird, um das Spiel ggf fortzusetzen...">
<polygon fill="none" stroke="black" points="1633,-107.471 1633,-135.471 1923,-135.471 1923,-107.471 1633,-107.471"/>
<text text-anchor="start" x="1641" y="-124.271" font-family="Helvetica,sans-Serif" font-size="9.00">de.tu_clausthal.in.bachelorproject2018.poker.game.table.</text>
<text text-anchor="middle" x="1778" y="-114.271" font-family="Helvetica,sans-Serif" font-size="9.00">CTable.postaction</text>
</a>
</g>
</g>
<!-- Node81&#45;&gt;Node83 -->
<g id="edge9" class="edge"><title>Node81&#45;&gt;Node83</title>
<path fill="none" stroke="midnightblue" d="M1605.83,-132.514C1614.83,-131.934 1623.86,-131.351 1632.82,-130.773"/>
<polygon fill="midnightblue" stroke="midnightblue" points="1605.44,-129.032 1595.69,-133.168 1605.9,-136.017 1605.44,-129.032"/>
</g>
<!-- Node84 -->
<g id="node11" class="node"><title>Node84</title>
<g id="a_node11"><a xlink:href="../../d2/dd9/classde_1_1tu__clausthal_1_1in_1_1bachelorproject2018_1_1poker_1_1game_1_1table_1_1CTable.htm#a763745ff3fa160c02f05117b84b092d4" target="_top" xlink:title="führe ein Element aus der ">
<polygon fill="none" stroke="black" points="1959,-81.4711 1959,-109.471 2249,-109.471 2249,-81.4711 1959,-81.4711"/>
<text text-anchor="start" x="1967" y="-98.2711" font-family="Helvetica,sans-Serif" font-size="9.00">de.tu_clausthal.in.bachelorproject2018.poker.game.table.</text>
<text text-anchor="middle" x="2104" y="-88.2711" font-family="Helvetica,sans-Serif" font-size="9.00">CTable.accept</text>
</a>
</g>
</g>
<!-- Node83&#45;&gt;Node84 -->
<g id="edge10" class="edge"><title>Node83&#45;&gt;Node84</title>
<path fill="none" stroke="midnightblue" d="M1933.67,-109.06C1942.04,-108.388 1950.44,-107.714 1958.78,-107.045"/>
<polygon fill="midnightblue" stroke="midnightblue" points="1933.16,-105.589 1923.47,-109.878 1933.72,-112.567 1933.16,-105.589"/>
</g>
<!-- Node85 -->
<g id="node12" class="node"><title>Node85</title>
<g id="a_node12"><a xlink:href="../../d2/dd9/classde_1_1tu__clausthal_1_1in_1_1bachelorproject2018_1_1poker_1_1game_1_1table_1_1CTable.htm#ac36fc046548fc6b47ee44cecbfd158db" target="_top" xlink:title="führt immer einen Schritt des Spiels aus ">
<polygon fill="none" stroke="black" points="1959,-128.471 1959,-156.471 2249,-156.471 2249,-128.471 1959,-128.471"/>
<text text-anchor="start" x="1967" y="-145.271" font-family="Helvetica,sans-Serif" font-size="9.00">de.tu_clausthal.in.bachelorproject2018.poker.game.table.</text>
<text text-anchor="middle" x="2104" y="-135.271" font-family="Helvetica,sans-Serif" font-size="9.00">CTable.executestep</text>
</a>
</g>
</g>
<!-- Node83&#45;&gt;Node85 -->
<g id="edge11" class="edge"><title>Node83&#45;&gt;Node85</title>
<path fill="none" stroke="midnightblue" d="M1933.46,-124.739C1951.48,-125.876 1969.62,-127.132 1986.99,-128.45"/>
<polygon fill="midnightblue" stroke="midnightblue" points="1933.67,-121.245 1923.47,-124.12 1933.23,-128.232 1933.67,-121.245"/>
</g>
<!-- Node85&#45;&gt;Node81 -->
<g id="edge12" class="edge"><title>Node85&#45;&gt;Node81</title>
<path fill="none" stroke="midnightblue" d="M1948.45,-144.3C1939.84,-144.367 1931.31,-144.425 1923,-144.471 1794.11,-145.187 1761.89,-145.181 1633,-144.471 1620.87,-144.404 1608.28,-144.312 1595.65,-144.204"/>
<polygon fill="midnightblue" stroke="midnightblue" points="1948.61,-147.798 1958.58,-144.217 1948.55,-140.799 1948.61,-147.798"/>
</g>
<!-- Node85&#45;&gt;Node83 -->
<g id="edge13" class="edge"><title>Node85&#45;&gt;Node83</title>
<path fill="none" stroke="midnightblue" d="M1948.87,-139.224C1930.76,-138.083 1912.52,-136.821 1895.06,-135.496"/>
<polygon fill="midnightblue" stroke="midnightblue" points="1948.72,-142.721 1958.92,-139.846 1949.15,-135.735 1948.72,-142.721"/>
</g>
<!-- Node86&#45;&gt;Node77 -->
<g id="edge15" class="edge"><title>Node86&#45;&gt;Node77</title>
<path fill="none" stroke="midnightblue" d="M931.615,-558.989C1029.91,-563.581 1163.24,-557.339 1268,-506.471 1354.36,-464.54 1419.73,-362.27 1441.59,-324.656"/>
<polygon fill="midnightblue" stroke="midnightblue" points="931.78,-555.493 921.614,-558.479 931.423,-562.484 931.78,-555.493"/>
</g>
<!-- Node87&#45;&gt;Node80 -->
<g id="edge17" class="edge"><title>Node87&#45;&gt;Node80</title>
<path fill="none" stroke="midnightblue" d="M925.75,-187.7C950.476,-190.591 976.241,-193.604 1000.63,-196.455"/>
<polygon fill="midnightblue" stroke="midnightblue" points="925.933,-184.198 915.595,-186.513 925.12,-191.151 925.933,-184.198"/>
</g>
<!-- Node88&#45;&gt;Node78 -->
<g id="edge19" class="edge"><title>Node88&#45;&gt;Node78</title>
<path fill="none" stroke="midnightblue" d="M949.655,-349.175C958.023,-349.973 966.42,-350.774 974.758,-351.57"/>
<polygon fill="midnightblue" stroke="midnightblue" points="949.756,-345.669 939.469,-348.204 949.091,-352.637 949.756,-345.669"/>
</g>
<!-- Node88&#45;&gt;Node89 -->
<g id="edge20" class="edge"><title>Node88&#45;&gt;Node89</title>
<path fill="none" stroke="midnightblue" d="M949.663,-323.087C958.71,-322.419 967.792,-321.748 976.796,-321.083"/>
<polygon fill="midnightblue" stroke="midnightblue" points="949.184,-319.612 939.469,-323.84 949.7,-326.593 949.184,-319.612"/>
</g>
<!-- Node89&#45;&gt;Node77 -->
<g id="edge21" class="edge"><title>Node89&#45;&gt;Node77</title>
<path fill="none" stroke="midnightblue" d="M1276.62,-310.471C1285.69,-310.471 1294.8,-310.471 1303.84,-310.471"/>
<polygon fill="midnightblue" stroke="midnightblue" points="1276.4,-306.971 1266.4,-310.471 1276.4,-313.971 1276.4,-306.971"/>
</g>
<!-- Node91 -->
<g id="node18" class="node"><title>Node91</title>
<g id="a_node18"><a xlink:href="../../d8/d6c/classde_1_1tu__clausthal_1_1in_1_1bachelorproject2018_1_1poker_1_1game_1_1round_1_1CTurn.htm#aa997ce946e5b26eb305e47ce7ae1dd81" target="_top" xlink:title="Legt eine Karte vom Deck auf den Tisch. ">
<polygon fill="none" stroke="black" points="975,-55.4711 975,-83.4711 1268,-83.4711 1268,-55.4711 975,-55.4711"/>
<text text-anchor="start" x="983" y="-72.2711" font-family="Helvetica,sans-Serif" font-size="9.00">de.tu_clausthal.in.bachelorproject2018.poker.game.round.</text>
<text text-anchor="middle" x="1121.5" y="-62.2711" font-family="Helvetica,sans-Serif" font-size="9.00">CTurn.apply</text>
</a>
</g>
</g>
<!-- Node90&#45;&gt;Node91 -->
<g id="edge24" class="edge"><title>Node90&#45;&gt;Node91</title>
<path fill="none" stroke="midnightblue" d="M892.363,-105.76C919.131,-101.435 948.189,-96.756 975,-92.4711 993.309,-89.545 1012.92,-86.4316 1031.62,-83.4716"/>
<polygon fill="midnightblue" stroke="midnightblue" points="891.538,-102.348 882.225,-107.399 892.655,-109.258 891.538,-102.348"/>
</g>
<!-- Node92 -->
<g id="node19" class="node"><title>Node92</title>
<g id="a_node19"><a xlink:href="../../d9/d71/classde_1_1tu__clausthal_1_1in_1_1bachelorproject2018_1_1poker_1_1game_1_1round_1_1CRiver.htm#a639b79e14972b10284e0dfd816f8a5d1" target="_top" xlink:title="Legt eine Karte vom Deck auf den Tisch. ">
<polygon fill="none" stroke="black" points="975,-149.471 975,-177.471 1268,-177.471 1268,-149.471 975,-149.471"/>
<text text-anchor="start" x="983" y="-166.271" font-family="Helvetica,sans-Serif" font-size="9.00">de.tu_clausthal.in.bachelorproject2018.poker.game.round.</text>
<text text-anchor="middle" x="1121.5" y="-156.271" font-family="Helvetica,sans-Serif" font-size="9.00">CRiver.apply</text>
</a>
</g>
</g>
<!-- Node90&#45;&gt;Node92 -->
<g id="edge25" class="edge"><title>Node90&#45;&gt;Node92</title>
<path fill="none" stroke="midnightblue" d="M914.434,-136.841C946.325,-140.962 980.633,-145.396 1011.93,-149.441"/>
<polygon fill="midnightblue" stroke="midnightblue" points="914.538,-133.325 904.172,-135.515 913.641,-140.268 914.538,-133.325"/>
</g>
<!-- Node93 -->
<g id="node20" class="node"><title>Node93</title>
<g id="a_node20"><a xlink:href="../../d0/da9/classde_1_1tu__clausthal_1_1in_1_1bachelorproject2018_1_1poker_1_1game_1_1round_1_1CFlop.htm#a09a8d1a76054acdf7d4fe631f850076e" target="_top" xlink:title="legt 3 Karten vom Deck auf den Tisch ">
<polygon fill="none" stroke="black" points="975,-102.471 975,-130.471 1268,-130.471 1268,-102.471 975,-102.471"/>
<text text-anchor="start" x="983" y="-119.271" font-family="Helvetica,sans-Serif" font-size="9.00">de.tu_clausthal.in.bachelorproject2018.poker.game.round.</text>
<text text-anchor="middle" x="1121.5" y="-109.271" font-family="Helvetica,sans-Serif" font-size="9.00">CFlop.apply</text>
</a>
</g>
</g>
<!-- Node90&#45;&gt;Node93 -->
<g id="edge26" class="edge"><title>Node90&#45;&gt;Node93</title>
<path fill="none" stroke="midnightblue" d="M949.655,-119.099C958.023,-118.971 966.42,-118.842 974.758,-118.713"/>
<polygon fill="midnightblue" stroke="midnightblue" points="949.414,-115.603 939.469,-119.256 949.522,-122.602 949.414,-115.603"/>
</g>
<!-- Node94&#45;&gt;Node82 -->
<g id="edge28" class="edge"><title>Node94&#45;&gt;Node82</title>
<path fill="none" stroke="midnightblue" d="M1605.22,-44.1381C1614.45,-44.4786 1623.73,-44.8206 1632.92,-45.1596"/>
<polygon fill="midnightblue" stroke="midnightblue" points="1605.34,-40.6403 1595.22,-43.7694 1605.08,-47.6355 1605.34,-40.6403"/>
</g>
<!-- Node95&#45;&gt;Node76 -->
<g id="edge30" class="edge"><title>Node95&#45;&gt;Node76</title>
<path fill="none" stroke="midnightblue" d="M949.655,-470.329C958.023,-470.973 966.42,-471.619 974.758,-472.26"/>
<polygon fill="midnightblue" stroke="midnightblue" points="949.708,-466.823 939.469,-469.546 949.171,-473.802 949.708,-466.823"/>
</g>
<!-- Node95&#45;&gt;Node79 -->
<g id="edge31" class="edge"><title>Node95&#45;&gt;Node79</title>
<path fill="none" stroke="midnightblue" d="M922.533,-443.227C949.229,-440.024 977.267,-436.659 1003.57,-433.502"/>
<polygon fill="midnightblue" stroke="midnightblue" points="921.885,-439.78 912.373,-444.446 922.719,-446.73 921.885,-439.78"/>
</g>
</g>
</svg>
