<?xml version="1.0" encoding="UTF-8" standalone="no"?>
<!DOCTYPE svg PUBLIC "-//W3C//DTD SVG 1.1//EN"
 "http://www.w3.org/Graphics/SVG/1.1/DTD/svg11.dtd">
<!-- Generated by graphviz version 2.38.0 (20140413.2041)
 -->
<!-- Title: de.tu_clausthal.in.bachelorproject2018.poker.game.hubs.GameHub.getPlayerList Pages: 1 -->
<svg width="948pt" height="37pt"
 viewBox="0.00 0.00 948.00 37.00" xmlns="http://www.w3.org/2000/svg" xmlns:xlink="http://www.w3.org/1999/xlink">
<g id="graph0" class="graph" transform="scale(1 1) rotate(0) translate(4 33)">
<title>de.tu_clausthal.in.bachelorproject2018.poker.game.hubs.GameHub.getPlayerList</title>
<!-- Node34 -->
<g id="node1" class="node"><title>Node34</title>
<polygon fill="#bfbfbf" stroke="black" points="0,-0.5 0,-28.5 289,-28.5 289,-0.5 0,-0.5"/>
<text text-anchor="start" x="8" y="-17.3" font-family="Helvetica,sans-Serif" font-size="9.00">de.tu_clausthal.in.bachelorproject2018.poker.game.hubs.</text>
<text text-anchor="middle" x="144.5" y="-7.3" font-family="Helvetica,sans-Serif" font-size="9.00">GameHub.getPlayerList</text>
</g>
<!-- Node35 -->
<g id="node2" class="node"><title>Node35</title>
<g id="a_node2"><a xlink:href="../../da/d48/classde_1_1tu__clausthal_1_1in_1_1bachelorproject2018_1_1poker_1_1game_1_1hubs_1_1GameHub.htm#a779929edeff8f64a359c53d09be3ca06" target="_top" xlink:title="zieht sich die aktuelle playerList vom Table ">
<polygon fill="none" stroke="black" points="325,-0.5 325,-28.5 614,-28.5 614,-0.5 325,-0.5"/>
<text text-anchor="start" x="333" y="-17.3" font-family="Helvetica,sans-Serif" font-size="9.00">de.tu_clausthal.in.bachelorproject2018.poker.game.hubs.</text>
<text text-anchor="middle" x="469.5" y="-7.3" font-family="Helvetica,sans-Serif" font-size="9.00">GameHub.updatePlayerlist</text>
</a>
</g>
</g>
<!-- Node34&#45;&gt;Node35 -->
<g id="edge1" class="edge"><title>Node34&#45;&gt;Node35</title>
<path fill="none" stroke="midnightblue" d="M289.054,-14.5C297.591,-14.5 306.196,-14.5 314.772,-14.5"/>
<polygon fill="midnightblue" stroke="midnightblue" points="314.821,-18.0001 324.821,-14.5 314.821,-11.0001 314.821,-18.0001"/>
</g>
<!-- Node36 -->
<g id="node3" class="node"><title>Node36</title>
<g id="a_node3"><a xlink:href="../../d5/d36/interfacede_1_1tu__clausthal_1_1in_1_1bachelorproject2018_1_1poker_1_1game_1_1table_1_1ITable.htm#a6e42c7daa9c258015750347f2a5542fe" target="_top" xlink:title="liefert alle Spieler des Tisches ">
<polygon fill="none" stroke="black" points="650,-0.5 650,-28.5 940,-28.5 940,-0.5 650,-0.5"/>
<text text-anchor="start" x="658" y="-17.3" font-family="Helvetica,sans-Serif" font-size="9.00">de.tu_clausthal.in.bachelorproject2018.poker.game.table.</text>
<text text-anchor="middle" x="795" y="-7.3" font-family="Helvetica,sans-Serif" font-size="9.00">ITable.list</text>
</a>
</g>
</g>
<!-- Node35&#45;&gt;Node36 -->
<g id="edge2" class="edge"><title>Node35&#45;&gt;Node36</title>
<path fill="none" stroke="midnightblue" d="M614.276,-14.5C622.674,-14.5 631.137,-14.5 639.574,-14.5"/>
<polygon fill="midnightblue" stroke="midnightblue" points="639.845,-18.0001 649.845,-14.5 639.845,-11.0001 639.845,-18.0001"/>
</g>
</g>
</svg>
