<?xml version="1.0" encoding="UTF-8" standalone="no"?>
<!DOCTYPE svg PUBLIC "-//W3C//DTD SVG 1.1//EN"
 "http://www.w3.org/Graphics/SVG/1.1/DTD/svg11.dtd">
<!-- Generated by graphviz version 2.38.0 (20140413.2041)
 -->
<!-- Title: de.tu_clausthal.in.bachelorproject2018.poker.game.hubs.GameHub.getChipsHandler Pages: 1 -->
<svg width="1609pt" height="648pt"
 viewBox="0.00 0.00 1609.00 648.00" xmlns="http://www.w3.org/2000/svg" xmlns:xlink="http://www.w3.org/1999/xlink">
<g id="graph0" class="graph" transform="scale(1 1) rotate(0) translate(4 644)">
<title>de.tu_clausthal.in.bachelorproject2018.poker.game.hubs.GameHub.getChipsHandler</title>
<!-- Node10 -->
<g id="node1" class="node"><title>Node10</title>
<polygon fill="#bfbfbf" stroke="black" points="0,-329.5 0,-357.5 289,-357.5 289,-329.5 0,-329.5"/>
<text text-anchor="start" x="8" y="-346.3" font-family="Helvetica,sans-Serif" font-size="9.00">de.tu_clausthal.in.bachelorproject2018.poker.game.hubs.</text>
<text text-anchor="middle" x="144.5" y="-336.3" font-family="Helvetica,sans-Serif" font-size="9.00">GameHub.getChipsHandler</text>
</g>
<!-- Node11 -->
<g id="node2" class="node"><title>Node11</title>
<g id="a_node2"><a xlink:href="../../dd/d69/classde_1_1tu__clausthal_1_1in_1_1bachelorproject2018_1_1poker_1_1game_1_1action_1_1CCheck.htm#ab5688283d91d32d52dffb8882a5104b9" target="_top" xlink:title="überprüft ob der Spieler checken kann setzt, dass der Spieler gecheckt hat. ">
<polygon fill="none" stroke="black" points="325,-611.5 325,-639.5 620,-639.5 620,-611.5 325,-611.5"/>
<text text-anchor="start" x="333" y="-628.3" font-family="Helvetica,sans-Serif" font-size="9.00">de.tu_clausthal.in.bachelorproject2018.poker.game.action.</text>
<text text-anchor="middle" x="472.5" y="-618.3" font-family="Helvetica,sans-Serif" font-size="9.00">CCheck.accept</text>
</a>
</g>
</g>
<!-- Node10&#45;&gt;Node11 -->
<g id="edge1" class="edge"><title>Node10&#45;&gt;Node11</title>
<path fill="none" stroke="midnightblue" d="M154.301,-367.156C175.069,-419.373 232.455,-544.448 325,-602.5 330.452,-605.92 336.237,-608.892 342.237,-611.47"/>
<polygon fill="midnightblue" stroke="midnightblue" points="157.521,-365.779 150.636,-357.726 150.997,-368.315 157.521,-365.779"/>
</g>
<!-- Node12 -->
<g id="node3" class="node"><title>Node12</title>
<g id="a_node3"><a xlink:href="../../d9/d7a/classde_1_1tu__clausthal_1_1in_1_1bachelorproject2018_1_1poker_1_1game_1_1action_1_1CAllIn.htm#a0ad1e3f093aabaf0593ea4378521ff06" target="_top" xlink:title="setzt den Spieler AllIn setzt die Chips in den Pot checkt außerdem ">
<polygon fill="none" stroke="black" points="325,-564.5 325,-592.5 620,-592.5 620,-564.5 325,-564.5"/>
<text text-anchor="start" x="333" y="-581.3" font-family="Helvetica,sans-Serif" font-size="9.00">de.tu_clausthal.in.bachelorproject2018.poker.game.action.</text>
<text text-anchor="middle" x="472.5" y="-571.3" font-family="Helvetica,sans-Serif" font-size="9.00">CAllIn.accept</text>
</a>
</g>
</g>
<!-- Node10&#45;&gt;Node12 -->
<g id="edge2" class="edge"><title>Node10&#45;&gt;Node12</title>
<path fill="none" stroke="midnightblue" d="M157.539,-366.545C182.254,-411.302 243.333,-509.607 325,-555.5 331.06,-558.905 337.471,-561.848 344.092,-564.389"/>
<polygon fill="midnightblue" stroke="midnightblue" points="160.534,-364.725 152.692,-357.6 154.379,-368.059 160.534,-364.725"/>
</g>
<!-- Node13 -->
<g id="node4" class="node"><title>Node13</title>
<g id="a_node4"><a xlink:href="../../de/dec/classde_1_1tu__clausthal_1_1in_1_1bachelorproject2018_1_1poker_1_1game_1_1action_1_1CCall.htm#a5df0967671f6af0e68de9201882b3c1a" target="_top" xlink:title="Überprüft ob der Spieler callen kann Berechnet den Wert, der fürs Callen benötigt wird Setzt den Wert...">
<polygon fill="none" stroke="black" points="325,-517.5 325,-545.5 620,-545.5 620,-517.5 325,-517.5"/>
<text text-anchor="start" x="333" y="-534.3" font-family="Helvetica,sans-Serif" font-size="9.00">de.tu_clausthal.in.bachelorproject2018.poker.game.action.</text>
<text text-anchor="middle" x="472.5" y="-524.3" font-family="Helvetica,sans-Serif" font-size="9.00">CCall.accept</text>
</a>
</g>
</g>
<!-- Node10&#45;&gt;Node13 -->
<g id="edge3" class="edge"><title>Node10&#45;&gt;Node13</title>
<path fill="none" stroke="midnightblue" d="M162.479,-366.041C191.409,-402.625 254.059,-474.273 325,-508.5 332.188,-511.968 339.784,-514.934 347.583,-517.467"/>
<polygon fill="midnightblue" stroke="midnightblue" points="165.09,-363.697 156.185,-357.956 159.566,-367.997 165.09,-363.697"/>
</g>
<!-- Node14 -->
<g id="node5" class="node"><title>Node14</title>
<g id="a_node5"><a xlink:href="../../d8/d84/classde_1_1tu__clausthal_1_1in_1_1bachelorproject2018_1_1poker_1_1game_1_1round_1_1CBetRound.htm#a15f799e13defeab9ebedbb01cf77ebd4" target="_top" xlink:title="Accept wird nach der Aktion des Spielers ausgeführt Falls nötig werden hier neue BetRound&#45;Objekte erz...">
<polygon fill="none" stroke="black" points="326,-470.5 326,-498.5 619,-498.5 619,-470.5 326,-470.5"/>
<text text-anchor="start" x="334" y="-487.3" font-family="Helvetica,sans-Serif" font-size="9.00">de.tu_clausthal.in.bachelorproject2018.poker.game.round.</text>
<text text-anchor="middle" x="472.5" y="-477.3" font-family="Helvetica,sans-Serif" font-size="9.00">CBetRound.accept</text>
</a>
</g>
</g>
<!-- Node10&#45;&gt;Node14 -->
<g id="edge4" class="edge"><title>Node10&#45;&gt;Node14</title>
<path fill="none" stroke="midnightblue" d="M169.667,-364.329C202.484,-391.393 264.066,-437.962 325,-461.5 334.006,-464.979 343.517,-467.932 353.192,-470.439"/>
<polygon fill="midnightblue" stroke="midnightblue" points="171.88,-361.617 161.961,-357.894 167.393,-366.99 171.88,-361.617"/>
</g>
<!-- Node15 -->
<g id="node6" class="node"><title>Node15</title>
<g id="a_node6"><a xlink:href="../../de/d5d/classde_1_1tu__clausthal_1_1in_1_1bachelorproject2018_1_1poker_1_1game_1_1action_1_1CRaise.htm#aee81ff5815191d70a1e63a5fe7c5c7d1" target="_top" xlink:title="Überprüft ob der Spieler raisen kann Führt den Raise durch. ">
<polygon fill="none" stroke="black" points="325,-423.5 325,-451.5 620,-451.5 620,-423.5 325,-423.5"/>
<text text-anchor="start" x="333" y="-440.3" font-family="Helvetica,sans-Serif" font-size="9.00">de.tu_clausthal.in.bachelorproject2018.poker.game.action.</text>
<text text-anchor="middle" x="472.5" y="-430.3" font-family="Helvetica,sans-Serif" font-size="9.00">CRaise.accept</text>
</a>
</g>
</g>
<!-- Node10&#45;&gt;Node15 -->
<g id="edge5" class="edge"><title>Node10&#45;&gt;Node15</title>
<path fill="none" stroke="midnightblue" d="M184.095,-361.654C219.883,-377.786 274.989,-400.864 325,-414.5 337.544,-417.92 350.839,-420.886 364.102,-423.444"/>
<polygon fill="midnightblue" stroke="midnightblue" points="185.533,-358.463 174.982,-357.507 182.634,-364.835 185.533,-358.463"/>
</g>
<!-- Node16 -->
<g id="node7" class="node"><title>Node16</title>
<g id="a_node7"><a xlink:href="../../d3/d48/classde_1_1tu__clausthal_1_1in_1_1bachelorproject2018_1_1poker_1_1game_1_1round_1_1CPreFlop.htm#a29d161fc537ba98819b2a6ea3acc9894" target="_top" xlink:title="resetet alle wichtigen Methoden im CardDealer und ChipsHandler forciert Blinds der Spieler Teilt Kart...">
<polygon fill="none" stroke="black" points="326,-376.5 326,-404.5 619,-404.5 619,-376.5 326,-376.5"/>
<text text-anchor="start" x="334" y="-393.3" font-family="Helvetica,sans-Serif" font-size="9.00">de.tu_clausthal.in.bachelorproject2018.poker.game.round.</text>
<text text-anchor="middle" x="472.5" y="-383.3" font-family="Helvetica,sans-Serif" font-size="9.00">CPreFlop.apply</text>
</a>
</g>
</g>
<!-- Node10&#45;&gt;Node16 -->
<g id="edge6" class="edge"><title>Node10&#45;&gt;Node16</title>
<path fill="none" stroke="midnightblue" d="M253.227,-359.031C292.32,-364.667 336.225,-370.997 374.351,-376.494"/>
<polygon fill="midnightblue" stroke="midnightblue" points="253.266,-355.501 242.869,-357.538 252.267,-362.429 253.266,-355.501"/>
</g>
<!-- Node17 -->
<g id="node8" class="node"><title>Node17</title>
<g id="a_node8"><a xlink:href="../../d8/d6c/classde_1_1tu__clausthal_1_1in_1_1bachelorproject2018_1_1poker_1_1game_1_1round_1_1CTurn.htm#aa997ce946e5b26eb305e47ce7ae1dd81" target="_top" xlink:title="Legt eine Karte vom Deck auf den Tisch. ">
<polygon fill="none" stroke="black" points="326,-329.5 326,-357.5 619,-357.5 619,-329.5 326,-329.5"/>
<text text-anchor="start" x="334" y="-346.3" font-family="Helvetica,sans-Serif" font-size="9.00">de.tu_clausthal.in.bachelorproject2018.poker.game.round.</text>
<text text-anchor="middle" x="472.5" y="-336.3" font-family="Helvetica,sans-Serif" font-size="9.00">CTurn.apply</text>
</a>
</g>
</g>
<!-- Node10&#45;&gt;Node17 -->
<g id="edge7" class="edge"><title>Node10&#45;&gt;Node17</title>
<path fill="none" stroke="midnightblue" d="M299.683,-343.5C308.429,-343.5 317.21,-343.5 325.923,-343.5"/>
<polygon fill="midnightblue" stroke="midnightblue" points="299.437,-340 289.437,-343.5 299.437,-347 299.437,-340"/>
</g>
<!-- Node18 -->
<g id="node9" class="node"><title>Node18</title>
<g id="a_node9"><a xlink:href="../../d9/d71/classde_1_1tu__clausthal_1_1in_1_1bachelorproject2018_1_1poker_1_1game_1_1round_1_1CRiver.htm#a639b79e14972b10284e0dfd816f8a5d1" target="_top" xlink:title="Legt eine Karte vom Deck auf den Tisch. ">
<polygon fill="none" stroke="black" points="326,-282.5 326,-310.5 619,-310.5 619,-282.5 326,-282.5"/>
<text text-anchor="start" x="334" y="-299.3" font-family="Helvetica,sans-Serif" font-size="9.00">de.tu_clausthal.in.bachelorproject2018.poker.game.round.</text>
<text text-anchor="middle" x="472.5" y="-289.3" font-family="Helvetica,sans-Serif" font-size="9.00">CRiver.apply</text>
</a>
</g>
</g>
<!-- Node10&#45;&gt;Node18 -->
<g id="edge8" class="edge"><title>Node10&#45;&gt;Node18</title>
<path fill="none" stroke="midnightblue" d="M253.227,-327.969C292.32,-322.333 336.225,-316.003 374.351,-310.506"/>
<polygon fill="midnightblue" stroke="midnightblue" points="252.267,-324.571 242.869,-329.462 253.266,-331.499 252.267,-324.571"/>
</g>
<!-- Node19 -->
<g id="node10" class="node"><title>Node19</title>
<g id="a_node10"><a xlink:href="../../d0/da9/classde_1_1tu__clausthal_1_1in_1_1bachelorproject2018_1_1poker_1_1game_1_1round_1_1CFlop.htm#a09a8d1a76054acdf7d4fe631f850076e" target="_top" xlink:title="legt 3 Karten vom Deck auf den Tisch ">
<polygon fill="none" stroke="black" points="326,-235.5 326,-263.5 619,-263.5 619,-235.5 326,-235.5"/>
<text text-anchor="start" x="334" y="-252.3" font-family="Helvetica,sans-Serif" font-size="9.00">de.tu_clausthal.in.bachelorproject2018.poker.game.round.</text>
<text text-anchor="middle" x="472.5" y="-242.3" font-family="Helvetica,sans-Serif" font-size="9.00">CFlop.apply</text>
</a>
</g>
</g>
<!-- Node10&#45;&gt;Node19 -->
<g id="edge9" class="edge"><title>Node10&#45;&gt;Node19</title>
<path fill="none" stroke="midnightblue" d="M184.785,-325.418C220.622,-309.595 275.393,-287.075 325,-273.5 339.045,-269.657 354.027,-266.341 368.848,-263.506"/>
<polygon fill="midnightblue" stroke="midnightblue" points="183.359,-322.222 175.649,-329.489 186.208,-328.616 183.359,-322.222"/>
</g>
<!-- Node20 -->
<g id="node11" class="node"><title>Node20</title>
<g id="a_node11"><a xlink:href="../../dd/ded/classde_1_1tu__clausthal_1_1in_1_1bachelorproject2018_1_1poker_1_1game_1_1round_1_1CWinEvaluation.htm#a258d61fbe6f67033165ecce526239cf0" target="_top" xlink:title="erstellt eine HandStatisticList Erstellt für jeden Spieler, der noch im Spiel ist, eine Handstatistic Ruft das Enum Wincheck für jede Handstatistsic auf Vergleicht die Handstatistiken, und erklärt die Sieger Teilt die Chips an die Gewinner auf ">
<polygon fill="none" stroke="black" points="326,-188.5 326,-216.5 619,-216.5 619,-188.5 326,-188.5"/>
<text text-anchor="start" x="334" y="-205.3" font-family="Helvetica,sans-Serif" font-size="9.00">de.tu_clausthal.in.bachelorproject2018.poker.game.round.</text>
<text text-anchor="middle" x="472.5" y="-195.3" font-family="Helvetica,sans-Serif" font-size="9.00">CWinEvaluation.apply</text>
</a>
</g>
</g>
<!-- Node10&#45;&gt;Node20 -->
<g id="edge10" class="edge"><title>Node10&#45;&gt;Node20</title>
<path fill="none" stroke="midnightblue" d="M169.723,-322.915C202.603,-296.154 264.254,-250.062 325,-226.5 335.092,-222.585 345.816,-219.309 356.693,-216.568"/>
<polygon fill="midnightblue" stroke="midnightblue" points="167.494,-320.216 162.001,-329.276 171.945,-325.619 167.494,-320.216"/>
</g>
<!-- Node21 -->
<g id="node12" class="node"><title>Node21</title>
<g id="a_node12"><a xlink:href="../../d8/d84/classde_1_1tu__clausthal_1_1in_1_1bachelorproject2018_1_1poker_1_1game_1_1round_1_1CBetRound.htm#a2f9ecbf9150794faa9af2760afbd96bd" target="_top" xlink:title="wird vor der Aktion des Spielers ausgeführt entscheidet, ob der Spieler überhaupt eine Aktion ausführ...">
<polygon fill="none" stroke="black" points="326,-141.5 326,-169.5 619,-169.5 619,-141.5 326,-141.5"/>
<text text-anchor="start" x="334" y="-158.3" font-family="Helvetica,sans-Serif" font-size="9.00">de.tu_clausthal.in.bachelorproject2018.poker.game.round.</text>
<text text-anchor="middle" x="472.5" y="-148.3" font-family="Helvetica,sans-Serif" font-size="9.00">CBetRound.apply</text>
</a>
</g>
</g>
<!-- Node10&#45;&gt;Node21 -->
<g id="edge11" class="edge"><title>Node10&#45;&gt;Node21</title>
<path fill="none" stroke="midnightblue" d="M162.537,-321.149C191.55,-284.865 254.318,-213.761 325,-179.5 333.001,-175.622 341.507,-172.353 350.235,-169.6"/>
<polygon fill="midnightblue" stroke="midnightblue" points="159.66,-319.146 156.224,-329.168 165.16,-323.476 159.66,-319.146"/>
</g>
<!-- Node22 -->
<g id="node13" class="node"><title>Node22</title>
<g id="a_node13"><a xlink:href="../../d3/dc7/enumde_1_1tu__clausthal_1_1in_1_1bachelorproject2018_1_1poker_1_1game_1_1round_1_1ERound.htm#aaf9a5e22dad6f81c01b993edf3bc5bce" target="_top" xlink:title="factory round objects ">
<polygon fill="none" stroke="black" points="326,-94.5 326,-122.5 619,-122.5 619,-94.5 326,-94.5"/>
<text text-anchor="start" x="334" y="-111.3" font-family="Helvetica,sans-Serif" font-size="9.00">de.tu_clausthal.in.bachelorproject2018.poker.game.round.</text>
<text text-anchor="middle" x="472.5" y="-101.3" font-family="Helvetica,sans-Serif" font-size="9.00">ERound.factory</text>
</a>
</g>
</g>
<!-- Node10&#45;&gt;Node22 -->
<g id="edge12" class="edge"><title>Node10&#45;&gt;Node22</title>
<path fill="none" stroke="midnightblue" d="M157.539,-320.455C182.254,-275.698 243.333,-177.393 325,-131.5 331.06,-128.095 337.471,-125.152 344.092,-122.611"/>
<polygon fill="midnightblue" stroke="midnightblue" points="154.379,-318.941 152.692,-329.4 160.534,-322.275 154.379,-318.941"/>
</g>
<!-- Node28 -->
<g id="node19" class="node"><title>Node28</title>
<g id="a_node19"><a xlink:href="../../da/d96/classde_1_1tu__clausthal_1_1in_1_1bachelorproject2018_1_1poker_1_1game_1_1player_1_1CPlayer.htm#ab95ea6b7dbd724a0cc46bccf66bca729" target="_top" xlink:title="fold this round, count down the counter of players still in this round ">
<polygon fill="none" stroke="black" points="326,-47.5 326,-75.5 619,-75.5 619,-47.5 326,-47.5"/>
<text text-anchor="start" x="334" y="-64.3" font-family="Helvetica,sans-Serif" font-size="9.00">de.tu_clausthal.in.bachelorproject2018.poker.game.player.</text>
<text text-anchor="middle" x="472.5" y="-54.3" font-family="Helvetica,sans-Serif" font-size="9.00">CPlayer.fold</text>
</a>
</g>
</g>
<!-- Node10&#45;&gt;Node28 -->
<g id="edge20" class="edge"><title>Node10&#45;&gt;Node28</title>
<path fill="none" stroke="midnightblue" d="M154.301,-319.844C175.069,-267.627 232.455,-142.552 325,-84.5 330.452,-81.0798 336.237,-78.1082 342.237,-75.5303"/>
<polygon fill="midnightblue" stroke="midnightblue" points="150.997,-318.685 150.636,-329.274 157.521,-321.221 150.997,-318.685"/>
</g>
<!-- Node23 -->
<g id="node14" class="node"><title>Node23</title>
<g id="a_node14"><a xlink:href="../../d2/dd9/classde_1_1tu__clausthal_1_1in_1_1bachelorproject2018_1_1poker_1_1game_1_1table_1_1CTable.htm#ad0183995fab983da1c6c6609c0b32b5e" target="_top" xlink:title="Methode um eine neue Runde zu bauen. ">
<polygon fill="none" stroke="black" points="657.5,-94.5 657.5,-122.5 947.5,-122.5 947.5,-94.5 657.5,-94.5"/>
<text text-anchor="start" x="665.5" y="-111.3" font-family="Helvetica,sans-Serif" font-size="9.00">de.tu_clausthal.in.bachelorproject2018.poker.game.table.</text>
<text text-anchor="middle" x="802.5" y="-101.3" font-family="Helvetica,sans-Serif" font-size="9.00">CTable.generateround</text>
</a>
</g>
</g>
<!-- Node22&#45;&gt;Node23 -->
<g id="edge13" class="edge"><title>Node22&#45;&gt;Node23</title>
<path fill="none" stroke="midnightblue" d="M629.39,-108.5C638.73,-108.5 648.104,-108.5 657.392,-108.5"/>
<polygon fill="midnightblue" stroke="midnightblue" points="629.276,-105 619.276,-108.5 629.276,-112 629.276,-105"/>
</g>
<!-- Node24 -->
<g id="node15" class="node"><title>Node24</title>
<g id="a_node15"><a xlink:href="../../d2/dd9/classde_1_1tu__clausthal_1_1in_1_1bachelorproject2018_1_1poker_1_1game_1_1table_1_1CTable.htm#a44356981334e62a09768618f0743d1b5" target="_top" xlink:title="startet das Spiel ">
<polygon fill="none" stroke="black" points="985,-141.5 985,-169.5 1275,-169.5 1275,-141.5 985,-141.5"/>
<text text-anchor="start" x="993" y="-158.3" font-family="Helvetica,sans-Serif" font-size="9.00">de.tu_clausthal.in.bachelorproject2018.poker.game.table.</text>
<text text-anchor="middle" x="1130" y="-148.3" font-family="Helvetica,sans-Serif" font-size="9.00">CTable.start</text>
</a>
</g>
</g>
<!-- Node23&#45;&gt;Node24 -->
<g id="edge14" class="edge"><title>Node23&#45;&gt;Node24</title>
<path fill="none" stroke="midnightblue" d="M911.061,-124.031C950.095,-129.667 993.932,-135.997 1032,-141.494"/>
<polygon fill="midnightblue" stroke="midnightblue" points="911.117,-120.503 900.72,-122.538 910.117,-127.431 911.117,-120.503"/>
</g>
<!-- Node25 -->
<g id="node16" class="node"><title>Node25</title>
<g id="a_node16"><a xlink:href="../../d2/dd9/classde_1_1tu__clausthal_1_1in_1_1bachelorproject2018_1_1poker_1_1game_1_1table_1_1CTable.htm#ac4262ba4e9012a8d37c195f2bedeb6f5" target="_top" xlink:title="Methode, die nach jeder Ausführung einer Round&#45;Action durchlaufen wird, um das Spiel ggf fortzusetzen...">
<polygon fill="none" stroke="black" points="985,-94.5 985,-122.5 1275,-122.5 1275,-94.5 985,-94.5"/>
<text text-anchor="start" x="993" y="-111.3" font-family="Helvetica,sans-Serif" font-size="9.00">de.tu_clausthal.in.bachelorproject2018.poker.game.table.</text>
<text text-anchor="middle" x="1130" y="-101.3" font-family="Helvetica,sans-Serif" font-size="9.00">CTable.postaction</text>
</a>
</g>
</g>
<!-- Node23&#45;&gt;Node25 -->
<g id="edge15" class="edge"><title>Node23&#45;&gt;Node25</title>
<path fill="none" stroke="midnightblue" d="M957.83,-108.5C966.829,-108.5 975.863,-108.5 984.82,-108.5"/>
<polygon fill="midnightblue" stroke="midnightblue" points="957.691,-105 947.691,-108.5 957.69,-112 957.691,-105"/>
</g>
<!-- Node26 -->
<g id="node17" class="node"><title>Node26</title>
<g id="a_node17"><a xlink:href="../../d2/dd9/classde_1_1tu__clausthal_1_1in_1_1bachelorproject2018_1_1poker_1_1game_1_1table_1_1CTable.htm#a763745ff3fa160c02f05117b84b092d4" target="_top" xlink:title="führe ein Element aus der ">
<polygon fill="none" stroke="black" points="1311,-119.5 1311,-147.5 1601,-147.5 1601,-119.5 1311,-119.5"/>
<text text-anchor="start" x="1319" y="-136.3" font-family="Helvetica,sans-Serif" font-size="9.00">de.tu_clausthal.in.bachelorproject2018.poker.game.table.</text>
<text text-anchor="middle" x="1456" y="-126.3" font-family="Helvetica,sans-Serif" font-size="9.00">CTable.accept</text>
</a>
</g>
</g>
<!-- Node25&#45;&gt;Node26 -->
<g id="edge16" class="edge"><title>Node25&#45;&gt;Node26</title>
<path fill="none" stroke="midnightblue" d="M1285.67,-120.434C1294.04,-121.08 1302.44,-121.728 1310.78,-122.372"/>
<polygon fill="midnightblue" stroke="midnightblue" points="1285.71,-116.927 1275.47,-119.647 1285.17,-123.906 1285.71,-116.927"/>
</g>
<!-- Node27 -->
<g id="node18" class="node"><title>Node27</title>
<g id="a_node18"><a xlink:href="../../d2/dd9/classde_1_1tu__clausthal_1_1in_1_1bachelorproject2018_1_1poker_1_1game_1_1table_1_1CTable.htm#ac36fc046548fc6b47ee44cecbfd158db" target="_top" xlink:title="führt immer einen Schritt des Spiels aus ">
<polygon fill="none" stroke="black" points="1311,-72.5 1311,-100.5 1601,-100.5 1601,-72.5 1311,-72.5"/>
<text text-anchor="start" x="1319" y="-89.3" font-family="Helvetica,sans-Serif" font-size="9.00">de.tu_clausthal.in.bachelorproject2018.poker.game.table.</text>
<text text-anchor="middle" x="1456" y="-79.3" font-family="Helvetica,sans-Serif" font-size="9.00">CTable.executestep</text>
</a>
</g>
</g>
<!-- Node25&#45;&gt;Node27 -->
<g id="edge17" class="edge"><title>Node25&#45;&gt;Node27</title>
<path fill="none" stroke="midnightblue" d="M1252.67,-93.6777C1271.69,-92.2041 1291.5,-90.8082 1310.96,-89.5673"/>
<polygon fill="midnightblue" stroke="midnightblue" points="1252.2,-90.2043 1242.5,-94.4792 1252.75,-97.1827 1252.2,-90.2043"/>
</g>
<!-- Node27&#45;&gt;Node23 -->
<g id="edge18" class="edge"><title>Node27&#45;&gt;Node23</title>
<path fill="none" stroke="midnightblue" d="M1300.64,-80.415C1208.85,-78.1489 1090.16,-77.5772 985,-84.5 954.553,-86.5043 921.417,-90.3804 891.892,-94.4426"/>
<polygon fill="midnightblue" stroke="midnightblue" points="1300.76,-83.9192 1310.85,-80.6767 1300.94,-76.9215 1300.76,-83.9192"/>
</g>
<!-- Node27&#45;&gt;Node25 -->
<g id="edge19" class="edge"><title>Node27&#45;&gt;Node25</title>
<path fill="none" stroke="midnightblue" d="M1333.3,-101.325C1314.43,-102.786 1294.78,-104.172 1275.47,-105.405"/>
<polygon fill="midnightblue" stroke="midnightblue" points="1333.69,-104.804 1343.39,-100.53 1333.14,-97.826 1333.69,-104.804"/>
</g>
<!-- Node29 -->
<g id="node20" class="node"><title>Node29</title>
<g id="a_node20"><a xlink:href="../../da/d96/classde_1_1tu__clausthal_1_1in_1_1bachelorproject2018_1_1poker_1_1game_1_1player_1_1CPlayer.htm#aeb1018b7db2a234dc71b5b2049732fde" target="_top" xlink:title="check if the player has folded ">
<polygon fill="none" stroke="black" points="656,-47.5 656,-75.5 949,-75.5 949,-47.5 656,-47.5"/>
<text text-anchor="start" x="664" y="-64.3" font-family="Helvetica,sans-Serif" font-size="9.00">de.tu_clausthal.in.bachelorproject2018.poker.game.player.</text>
<text text-anchor="middle" x="802.5" y="-54.3" font-family="Helvetica,sans-Serif" font-size="9.00">CPlayer.checkfolded</text>
</a>
</g>
</g>
<!-- Node28&#45;&gt;Node29 -->
<g id="edge21" class="edge"><title>Node28&#45;&gt;Node29</title>
<path fill="none" stroke="midnightblue" d="M629.551,-61.5C638.322,-61.5 647.123,-61.5 655.853,-61.5"/>
<polygon fill="midnightblue" stroke="midnightblue" points="629.276,-58.0001 619.276,-61.5 629.276,-65.0001 629.276,-58.0001"/>
</g>
<!-- Node30 -->
<g id="node21" class="node"><title>Node30</title>
<g id="a_node21"><a xlink:href="../../da/d96/classde_1_1tu__clausthal_1_1in_1_1bachelorproject2018_1_1poker_1_1game_1_1player_1_1CPlayer.htm#a1960222964e1ced4ea8f86e7a435e361" target="_top" xlink:title="de.tu_clausthal.in.bachelorproject2018.poker.game.player.\lCPlayer.resetFolded">
<polygon fill="none" stroke="black" points="656,-0.5 656,-28.5 949,-28.5 949,-0.5 656,-0.5"/>
<text text-anchor="start" x="664" y="-17.3" font-family="Helvetica,sans-Serif" font-size="9.00">de.tu_clausthal.in.bachelorproject2018.poker.game.player.</text>
<text text-anchor="middle" x="802.5" y="-7.3" font-family="Helvetica,sans-Serif" font-size="9.00">CPlayer.resetFolded</text>
</a>
</g>
</g>
<!-- Node28&#45;&gt;Node30 -->
<g id="edge22" class="edge"><title>Node28&#45;&gt;Node30</title>
<path fill="none" stroke="midnightblue" d="M581.386,-46.0408C620.845,-40.3866 665.231,-34.0263 703.755,-28.5061"/>
<polygon fill="midnightblue" stroke="midnightblue" points="580.869,-42.579 571.467,-47.4621 581.862,-49.5082 580.869,-42.579"/>
</g>
</g>
</svg>
