<?xml version="1.0" encoding="UTF-8" standalone="no"?>
<!DOCTYPE svg PUBLIC "-//W3C//DTD SVG 1.1//EN"
 "http://www.w3.org/Graphics/SVG/1.1/DTD/svg11.dtd">
<!-- Generated by graphviz version 2.38.0 (20140413.2041)
 -->
<!-- Title: de.tu_clausthal.in.bachelorproject2018.poker.network.gamestate.messages.CCardMessage Pages: 1 -->
<svg width="387pt" height="264pt"
 viewBox="0.00 0.00 387.00 264.00" xmlns="http://www.w3.org/2000/svg" xmlns:xlink="http://www.w3.org/1999/xlink">
<g id="graph0" class="graph" transform="scale(1 1) rotate(0) translate(4 260)">
<title>de.tu_clausthal.in.bachelorproject2018.poker.network.gamestate.messages.CCardMessage</title>
<!-- Node0 -->
<g id="node1" class="node"><title>Node0</title>
<polygon fill="#bfbfbf" stroke="black" points="-2.84217e-14,-0.5 -2.84217e-14,-154.5 379,-154.5 379,-0.5 -2.84217e-14,-0.5"/>
<text text-anchor="start" x="8" y="-143.3" font-family="Helvetica,sans-Serif" font-size="9.00">de.tu_clausthal.in.bachelorproject2018.poker.network.gamestate.messages.</text>
<text text-anchor="middle" x="189.5" y="-133.3" font-family="Helvetica,sans-Serif" font-size="9.00">CCardMessage</text>
<polyline fill="none" stroke="black" points="-2.84217e-14,-126.5 379,-126.5 "/>
<text text-anchor="start" x="8" y="-115.3" font-family="Helvetica,sans-Serif" font-size="9.00">&#45; m_card</text>
<text text-anchor="start" x="8" y="-105.3" font-family="Helvetica,sans-Serif" font-size="9.00">&#45; m_destination</text>
<text text-anchor="start" x="8" y="-95.3" font-family="Helvetica,sans-Serif" font-size="9.00">&#45; m_player</text>
<text text-anchor="start" x="8" y="-85.3" font-family="Helvetica,sans-Serif" font-size="9.00">&#45; m_table</text>
<text text-anchor="start" x="8" y="-75.3" font-family="Helvetica,sans-Serif" font-size="9.00">&#45; m_type</text>
<polyline fill="none" stroke="black" points="-2.84217e-14,-68.5 379,-68.5 "/>
<text text-anchor="start" x="8" y="-57.3" font-family="Helvetica,sans-Serif" font-size="9.00">+ CCardMessage()</text>
<text text-anchor="start" x="8" y="-47.3" font-family="Helvetica,sans-Serif" font-size="9.00">+ getCard()</text>
<text text-anchor="start" x="8" y="-37.3" font-family="Helvetica,sans-Serif" font-size="9.00">+ getDestination()</text>
<text text-anchor="start" x="8" y="-27.3" font-family="Helvetica,sans-Serif" font-size="9.00">+ getPlayer()</text>
<text text-anchor="start" x="8" y="-17.3" font-family="Helvetica,sans-Serif" font-size="9.00">+ getTable()</text>
<text text-anchor="start" x="8" y="-7.3" font-family="Helvetica,sans-Serif" font-size="9.00">+ getType()</text>
</g>
<!-- Node1 -->
<g id="node2" class="node"><title>Node1</title>
<g id="a_node2"><a xlink:href="../../d9/d5d/interfacede_1_1tu__clausthal_1_1in_1_1bachelorproject2018_1_1poker_1_1network_1_1gamestate_1_1messages_1_1IGamestateMessage.htm" target="_top" xlink:title="{de.tu_clausthal.in.bachelorproject2018.poker.network.gamestate.messages.\lIGamestateMessage\n||}">
<polygon fill="none" stroke="black" points="-2.84217e-14,-191.5 -2.84217e-14,-255.5 379,-255.5 379,-191.5 -2.84217e-14,-191.5"/>
<text text-anchor="start" x="8" y="-244.3" font-family="Helvetica,sans-Serif" font-size="9.00">de.tu_clausthal.in.bachelorproject2018.poker.network.gamestate.messages.</text>
<text text-anchor="middle" x="189.5" y="-234.3" font-family="Helvetica,sans-Serif" font-size="9.00">IGamestateMessage</text>
<polyline fill="none" stroke="black" points="-2.84217e-14,-227.5 379,-227.5 "/>
<text text-anchor="middle" x="189.5" y="-216.3" font-family="Helvetica,sans-Serif" font-size="9.00"> </text>
<polyline fill="none" stroke="black" points="-2.84217e-14,-209.5 379,-209.5 "/>
<text text-anchor="middle" x="189.5" y="-198.3" font-family="Helvetica,sans-Serif" font-size="9.00"> </text>
</a>
</g>
</g>
<!-- Node1&#45;&gt;Node0 -->
<g id="edge1" class="edge"><title>Node1&#45;&gt;Node0</title>
<path fill="none" stroke="midnightblue" d="M189.5,-181.081C189.5,-172.73 189.5,-163.704 189.5,-154.592"/>
<polygon fill="none" stroke="midnightblue" points="186,-181.254 189.5,-191.254 193,-181.254 186,-181.254"/>
</g>
</g>
</svg>
