<?xml version="1.0" encoding="UTF-8" standalone="no"?>
<!DOCTYPE svg PUBLIC "-//W3C//DTD SVG 1.1//EN"
 "http://www.w3.org/Graphics/SVG/1.1/DTD/svg11.dtd">
<!-- Generated by graphviz version 2.38.0 (20140413.2041)
 -->
<!-- Title: de.tu_clausthal.in.bachelorproject2018.poker.game.action.CCall Pages: 1 -->
<svg width="303pt" height="285pt"
 viewBox="0.00 0.00 303.00 285.00" xmlns="http://www.w3.org/2000/svg" xmlns:xlink="http://www.w3.org/1999/xlink">
<g id="graph0" class="graph" transform="scale(1 1) rotate(0) translate(4 281)">
<title>de.tu_clausthal.in.bachelorproject2018.poker.game.action.CCall</title>
<!-- Node0 -->
<g id="node1" class="node"><title>Node0</title>
<polygon fill="#bfbfbf" stroke="black" points="0,-0.5 0,-74.5 295,-74.5 295,-0.5 0,-0.5"/>
<text text-anchor="start" x="8" y="-63.3" font-family="Helvetica,sans-Serif" font-size="9.00">de.tu_clausthal.in.bachelorproject2018.poker.game.action.</text>
<text text-anchor="middle" x="147.5" y="-53.3" font-family="Helvetica,sans-Serif" font-size="9.00">CCall</text>
<polyline fill="none" stroke="black" points="0,-46.5 295,-46.5 "/>
<text text-anchor="middle" x="147.5" y="-35.3" font-family="Helvetica,sans-Serif" font-size="9.00"> </text>
<polyline fill="none" stroke="black" points="0,-28.5 295,-28.5 "/>
<text text-anchor="start" x="8" y="-17.3" font-family="Helvetica,sans-Serif" font-size="9.00">+ CCall()</text>
<text text-anchor="start" x="8" y="-7.3" font-family="Helvetica,sans-Serif" font-size="9.00">+ accept()</text>
</g>
<!-- Node1 -->
<g id="node2" class="node"><title>Node1</title>
<g id="a_node2"><a xlink:href="../../d2/d9f/classde_1_1tu__clausthal_1_1in_1_1bachelorproject2018_1_1poker_1_1game_1_1action_1_1IBaseAction.htm" target="_top" xlink:title="{de.tu_clausthal.in.bachelorproject2018.poker.game.action.\lIBaseAction\n|# m_table\l|# IBaseAction()\l}">
<polygon fill="none" stroke="black" points="0,-111.5 0,-175.5 295,-175.5 295,-111.5 0,-111.5"/>
<text text-anchor="start" x="8" y="-164.3" font-family="Helvetica,sans-Serif" font-size="9.00">de.tu_clausthal.in.bachelorproject2018.poker.game.action.</text>
<text text-anchor="middle" x="147.5" y="-154.3" font-family="Helvetica,sans-Serif" font-size="9.00">IBaseAction</text>
<polyline fill="none" stroke="black" points="0,-147.5 295,-147.5 "/>
<text text-anchor="start" x="8" y="-136.3" font-family="Helvetica,sans-Serif" font-size="9.00"># m_table</text>
<polyline fill="none" stroke="black" points="0,-129.5 295,-129.5 "/>
<text text-anchor="start" x="8" y="-118.3" font-family="Helvetica,sans-Serif" font-size="9.00"># IBaseAction()</text>
</a>
</g>
</g>
<!-- Node1&#45;&gt;Node0 -->
<g id="edge1" class="edge"><title>Node1&#45;&gt;Node0</title>
<path fill="none" stroke="midnightblue" d="M147.5,-101.282C147.5,-92.5308 147.5,-83.3534 147.5,-74.8011"/>
<polygon fill="none" stroke="midnightblue" points="144,-101.297 147.5,-111.297 151,-101.297 144,-101.297"/>
</g>
<!-- Node2 -->
<g id="node3" class="node"><title>Node2</title>
<g id="a_node3"><a xlink:href="../../d0/ded/interfacede_1_1tu__clausthal_1_1in_1_1bachelorproject2018_1_1poker_1_1game_1_1action_1_1IAction.htm" target="_top" xlink:title="Aktionsinterface, um die einzelnen Aktionen des Spielers abzubilden. ">
<polygon fill="none" stroke="black" points="0,-212.5 0,-276.5 295,-276.5 295,-212.5 0,-212.5"/>
<text text-anchor="start" x="8" y="-265.3" font-family="Helvetica,sans-Serif" font-size="9.00">de.tu_clausthal.in.bachelorproject2018.poker.game.action.</text>
<text text-anchor="middle" x="147.5" y="-255.3" font-family="Helvetica,sans-Serif" font-size="9.00">IAction</text>
<polyline fill="none" stroke="black" points="0,-248.5 295,-248.5 "/>
<text text-anchor="middle" x="147.5" y="-237.3" font-family="Helvetica,sans-Serif" font-size="9.00"> </text>
<polyline fill="none" stroke="black" points="0,-230.5 295,-230.5 "/>
<text text-anchor="middle" x="147.5" y="-219.3" font-family="Helvetica,sans-Serif" font-size="9.00"> </text>
</a>
</g>
</g>
<!-- Node2&#45;&gt;Node1 -->
<g id="edge2" class="edge"><title>Node2&#45;&gt;Node1</title>
<path fill="none" stroke="midnightblue" d="M147.5,-202.282C147.5,-193.42 147.5,-184.194 147.5,-175.783"/>
<polygon fill="none" stroke="midnightblue" points="144,-202.447 147.5,-212.447 151,-202.447 144,-202.447"/>
</g>
</g>
</svg>
