<?xml version="1.0" encoding="UTF-8" standalone="no"?>
<!DOCTYPE svg PUBLIC "-//W3C//DTD SVG 1.1//EN"
 "http://www.w3.org/Graphics/SVG/1.1/DTD/svg11.dtd">
<!-- Generated by graphviz version 2.38.0 (20140413.2041)
 -->
<!-- Title: de.tu_clausthal.in.bachelorproject2018.poker.CApplication.CApplication Pages: 1 -->
<svg width="779pt" height="37pt"
 viewBox="0.00 0.00 779.00 37.00" xmlns="http://www.w3.org/2000/svg" xmlns:xlink="http://www.w3.org/1999/xlink">
<g id="graph0" class="graph" transform="scale(1 1) rotate(0) translate(4 33)">
<title>de.tu_clausthal.in.bachelorproject2018.poker.CApplication.CApplication</title>
<!-- Node0 -->
<g id="node1" class="node"><title>Node0</title>
<polygon fill="#bfbfbf" stroke="black" points="0,-0.5 0,-28.5 233,-28.5 233,-0.5 0,-0.5"/>
<text text-anchor="start" x="8" y="-17.3" font-family="Helvetica,sans-Serif" font-size="9.00">de.tu_clausthal.in.bachelorproject2018.poker.</text>
<text text-anchor="middle" x="116.5" y="-7.3" font-family="Helvetica,sans-Serif" font-size="9.00">CApplication.CApplication</text>
</g>
<!-- Node1 -->
<g id="node2" class="node"><title>Node1</title>
<g id="a_node2"><a xlink:href="../../d3/de4/classde_1_1tu__clausthal_1_1in_1_1bachelorproject2018_1_1poker_1_1CApplication_1_1CGlobal.htm#a36a9ffef7c25199e1c54e1b0ac3b62cc" target="_top" xlink:title="initialize ">
<polygon fill="none" stroke="black" points="269,-0.5 269,-28.5 502,-28.5 502,-0.5 269,-0.5"/>
<text text-anchor="start" x="277" y="-17.3" font-family="Helvetica,sans-Serif" font-size="9.00">de.tu_clausthal.in.bachelorproject2018.poker.</text>
<text text-anchor="middle" x="385.5" y="-7.3" font-family="Helvetica,sans-Serif" font-size="9.00">CApplication.CGlobal.initialize</text>
</a>
</g>
</g>
<!-- Node0&#45;&gt;Node1 -->
<g id="edge1" class="edge"><title>Node0&#45;&gt;Node1</title>
<path fill="none" stroke="midnightblue" d="M233.057,-14.5C241.566,-14.5 250.174,-14.5 258.74,-14.5"/>
<polygon fill="midnightblue" stroke="midnightblue" points="258.767,-18.0001 268.767,-14.5 258.767,-11.0001 258.767,-18.0001"/>
</g>
<!-- Node2 -->
<g id="node3" class="node"><title>Node2</title>
<g id="a_node3"><a xlink:href="../../d3/de4/classde_1_1tu__clausthal_1_1in_1_1bachelorproject2018_1_1poker_1_1CApplication_1_1CGlobal.htm#ac516f3be51dd290a7ae600fc9fd8b979" target="_top" xlink:title="ctor ">
<polygon fill="none" stroke="black" points="538,-0.5 538,-28.5 771,-28.5 771,-0.5 538,-0.5"/>
<text text-anchor="start" x="546" y="-17.3" font-family="Helvetica,sans-Serif" font-size="9.00">de.tu_clausthal.in.bachelorproject2018.poker.</text>
<text text-anchor="middle" x="654.5" y="-7.3" font-family="Helvetica,sans-Serif" font-size="9.00">CApplication.CGlobal.CGlobal</text>
</a>
</g>
</g>
<!-- Node1&#45;&gt;Node2 -->
<g id="edge2" class="edge"><title>Node1&#45;&gt;Node2</title>
<path fill="none" stroke="midnightblue" d="M502.057,-14.5C510.566,-14.5 519.174,-14.5 527.74,-14.5"/>
<polygon fill="midnightblue" stroke="midnightblue" points="527.767,-18.0001 537.767,-14.5 527.767,-11.0001 527.767,-18.0001"/>
</g>
</g>
</svg>
