<?xml version="1.0" encoding="UTF-8" standalone="no"?>
<!DOCTYPE svg PUBLIC "-//W3C//DTD SVG 1.1//EN"
 "http://www.w3.org/Graphics/SVG/1.1/DTD/svg11.dtd">
<!-- Generated by graphviz version 2.38.0 (20140413.2041)
 -->
<!-- Title: de.tu_clausthal.in.bachelorproject2018.poker.game.round.CRiver Pages: 1 -->
<svg width="610pt" height="386pt"
 viewBox="0.00 0.00 609.50 386.00" xmlns="http://www.w3.org/2000/svg" xmlns:xlink="http://www.w3.org/1999/xlink">
<g id="graph0" class="graph" transform="scale(1 1) rotate(0) translate(4 382)">
<title>de.tu_clausthal.in.bachelorproject2018.poker.game.round.CRiver</title>
<!-- Node3 -->
<g id="node1" class="node"><title>Node3</title>
<polygon fill="#bfbfbf" stroke="black" points="155,-0.5 155,-84.5 448,-84.5 448,-0.5 155,-0.5"/>
<text text-anchor="start" x="163" y="-73.3" font-family="Helvetica,sans-Serif" font-size="9.00">de.tu_clausthal.in.bachelorproject2018.poker.game.round.</text>
<text text-anchor="middle" x="301.5" y="-63.3" font-family="Helvetica,sans-Serif" font-size="9.00">CRiver</text>
<polyline fill="none" stroke="black" points="155,-56.5 448,-56.5 "/>
<text text-anchor="middle" x="301.5" y="-45.3" font-family="Helvetica,sans-Serif" font-size="9.00"> </text>
<polyline fill="none" stroke="black" points="155,-38.5 448,-38.5 "/>
<text text-anchor="start" x="163" y="-27.3" font-family="Helvetica,sans-Serif" font-size="9.00">+ accept()</text>
<text text-anchor="start" x="163" y="-17.3" font-family="Helvetica,sans-Serif" font-size="9.00">+ apply()</text>
<text text-anchor="start" x="163" y="-7.3" font-family="Helvetica,sans-Serif" font-size="9.00"># CRiver()</text>
</g>
<!-- Node4 -->
<g id="node2" class="node"><title>Node4</title>
<g id="a_node2"><a xlink:href="../../da/d24/classde_1_1tu__clausthal_1_1in_1_1bachelorproject2018_1_1poker_1_1game_1_1round_1_1IBaseRoundAction.htm" target="_top" xlink:title="{de.tu_clausthal.in.bachelorproject2018.poker.game.round.\lIBaseRoundAction\n||# IBaseRoundAction()\l}">
<polygon fill="none" stroke="black" points="155,-122.5 155,-186.5 448,-186.5 448,-122.5 155,-122.5"/>
<text text-anchor="start" x="163" y="-175.3" font-family="Helvetica,sans-Serif" font-size="9.00">de.tu_clausthal.in.bachelorproject2018.poker.game.round.</text>
<text text-anchor="middle" x="301.5" y="-165.3" font-family="Helvetica,sans-Serif" font-size="9.00">IBaseRoundAction</text>
<polyline fill="none" stroke="black" points="155,-158.5 448,-158.5 "/>
<text text-anchor="middle" x="301.5" y="-147.3" font-family="Helvetica,sans-Serif" font-size="9.00"> </text>
<polyline fill="none" stroke="black" points="155,-140.5 448,-140.5 "/>
<text text-anchor="start" x="163" y="-129.3" font-family="Helvetica,sans-Serif" font-size="9.00"># IBaseRoundAction()</text>
</a>
</g>
</g>
<!-- Node4&#45;&gt;Node3 -->
<g id="edge1" class="edge"><title>Node4&#45;&gt;Node3</title>
<path fill="none" stroke="midnightblue" d="M301.5,-112.053C301.5,-103.094 301.5,-93.6234 301.5,-84.6751"/>
<polygon fill="none" stroke="midnightblue" points="298,-112.273 301.5,-122.273 305,-112.273 298,-112.273"/>
</g>
<!-- Node5 -->
<g id="node3" class="node"><title>Node5</title>
<g id="a_node3"><a xlink:href="../../dc/db4/interfacede_1_1tu__clausthal_1_1in_1_1bachelorproject2018_1_1poker_1_1game_1_1round_1_1IRoundAction.htm" target="_top" xlink:title="Interface, um die einzelnen Aktionen in einer Runde zu definieren. ">
<polygon fill="none" stroke="black" points="0,-273.5 0,-337.5 293,-337.5 293,-273.5 0,-273.5"/>
<text text-anchor="start" x="8" y="-326.3" font-family="Helvetica,sans-Serif" font-size="9.00">de.tu_clausthal.in.bachelorproject2018.poker.game.round.</text>
<text text-anchor="middle" x="146.5" y="-316.3" font-family="Helvetica,sans-Serif" font-size="9.00">IRoundAction</text>
<polyline fill="none" stroke="black" points="0,-309.5 293,-309.5 "/>
<text text-anchor="middle" x="146.5" y="-298.3" font-family="Helvetica,sans-Serif" font-size="9.00"> </text>
<polyline fill="none" stroke="black" points="0,-291.5 293,-291.5 "/>
<text text-anchor="middle" x="146.5" y="-280.3" font-family="Helvetica,sans-Serif" font-size="9.00"> </text>
</a>
</g>
</g>
<!-- Node5&#45;&gt;Node4 -->
<g id="edge2" class="edge"><title>Node5&#45;&gt;Node4</title>
<path fill="none" stroke="midnightblue" d="M186.367,-266.176C212.038,-241.499 244.983,-209.829 269.05,-186.694"/>
<polygon fill="none" stroke="midnightblue" points="183.777,-263.811 178.993,-273.265 188.628,-268.858 183.777,-263.811"/>
</g>
<!-- Node6 -->
<g id="node4" class="node"><title>Node6</title>
<g id="a_node4"><a xlink:href="../../d5/d36/interfacede_1_1tu__clausthal_1_1in_1_1bachelorproject2018_1_1poker_1_1game_1_1table_1_1ITable.htm" target="_top" xlink:title="Interface um einen Spieletisch darzustellen. ">
<polygon fill="none" stroke="black" points="311.5,-233.5 311.5,-377.5 601.5,-377.5 601.5,-233.5 311.5,-233.5"/>
<text text-anchor="start" x="319.5" y="-366.3" font-family="Helvetica,sans-Serif" font-size="9.00">de.tu_clausthal.in.bachelorproject2018.poker.game.table.</text>
<text text-anchor="middle" x="456.5" y="-356.3" font-family="Helvetica,sans-Serif" font-size="9.00">ITable</text>
<polyline fill="none" stroke="black" points="311.5,-349.5 601.5,-349.5 "/>
<text text-anchor="middle" x="456.5" y="-338.3" font-family="Helvetica,sans-Serif" font-size="9.00"> </text>
<polyline fill="none" stroke="black" points="311.5,-331.5 601.5,-331.5 "/>
<text text-anchor="start" x="319.5" y="-320.3" font-family="Helvetica,sans-Serif" font-size="9.00">+ getGameHub()</text>
<text text-anchor="start" x="319.5" y="-310.3" font-family="Helvetica,sans-Serif" font-size="9.00">+ getQueue()</text>
<text text-anchor="start" x="319.5" y="-300.3" font-family="Helvetica,sans-Serif" font-size="9.00">+ isplaying()</text>
<text text-anchor="start" x="319.5" y="-290.3" font-family="Helvetica,sans-Serif" font-size="9.00">+ join()</text>
<text text-anchor="start" x="319.5" y="-280.3" font-family="Helvetica,sans-Serif" font-size="9.00">+ leave()</text>
<text text-anchor="start" x="319.5" y="-270.3" font-family="Helvetica,sans-Serif" font-size="9.00">+ list()</text>
<text text-anchor="start" x="319.5" y="-260.3" font-family="Helvetica,sans-Serif" font-size="9.00">+ name()</text>
<text text-anchor="start" x="319.5" y="-250.3" font-family="Helvetica,sans-Serif" font-size="9.00">+ owner()</text>
<text text-anchor="start" x="319.5" y="-240.3" font-family="Helvetica,sans-Serif" font-size="9.00">+ start()</text>
</a>
</g>
</g>
<!-- Node6&#45;&gt;Node4 -->
<g id="edge3" class="edge"><title>Node6&#45;&gt;Node4</title>
<path fill="none" stroke="#404040" d="M382.632,-233.491C368.828,-220.222 354.871,-206.805 342.516,-194.928"/>
<polygon fill="none" stroke="#404040" points="342.479,-194.893 335.381,-193.618 333.828,-186.577 340.926,-187.851 342.479,-194.893"/>
<text text-anchor="middle" x="385.5" y="-207.8" font-family="Helvetica,sans-Serif" font-size="9.00"> #m_table</text>
</g>
</g>
</svg>
