<?xml version="1.0" encoding="UTF-8" standalone="no"?>
<!DOCTYPE svg PUBLIC "-//W3C//DTD SVG 1.1//EN"
 "http://www.w3.org/Graphics/SVG/1.1/DTD/svg11.dtd">
<!-- Generated by graphviz version 2.38.0 (20140413.2041)
 -->
<!-- Title: de.tu_clausthal.in.bachelorproject2018.poker.game.wincheck.IBaseWinCheckAction Pages: 1 -->
<svg width="1294pt" height="285pt"
 viewBox="0.00 0.00 1294.00 285.00" xmlns="http://www.w3.org/2000/svg" xmlns:xlink="http://www.w3.org/1999/xlink">
<g id="graph0" class="graph" transform="scale(1 1) rotate(0) translate(4 281)">
<title>de.tu_clausthal.in.bachelorproject2018.poker.game.wincheck.IBaseWinCheckAction</title>
<!-- Node0 -->
<g id="node1" class="node"><title>Node0</title>
<polygon fill="#bfbfbf" stroke="black" points="489,-111.5 489,-175.5 797,-175.5 797,-111.5 489,-111.5"/>
<text text-anchor="start" x="497" y="-164.3" font-family="Helvetica,sans-Serif" font-size="9.00">de.tu_clausthal.in.bachelorproject2018.poker.game.wincheck.</text>
<text text-anchor="middle" x="643" y="-154.3" font-family="Helvetica,sans-Serif" font-size="9.00">IBaseWinCheckAction</text>
<polyline fill="none" stroke="black" points="489,-147.5 797,-147.5 "/>
<text text-anchor="start" x="497" y="-136.3" font-family="Helvetica,sans-Serif" font-size="9.00"># m_table</text>
<polyline fill="none" stroke="black" points="489,-129.5 797,-129.5 "/>
<text text-anchor="start" x="497" y="-118.3" font-family="Helvetica,sans-Serif" font-size="9.00"># IBaseWinCheckAction()</text>
</g>
<!-- Node2 -->
<g id="node3" class="node"><title>Node2</title>
<g id="a_node3"><a xlink:href="../../d4/d87/classde_1_1tu__clausthal_1_1in_1_1bachelorproject2018_1_1poker_1_1game_1_1wincheck_1_1CFlush.htm" target="_top" xlink:title="{de.tu_clausthal.in.bachelorproject2018.poker.game.wincheck.\lCFlush\n||+ apply()\l# CFlush()\l}">
<polygon fill="none" stroke="black" points="0,-0.5 0,-74.5 308,-74.5 308,-0.5 0,-0.5"/>
<text text-anchor="start" x="8" y="-63.3" font-family="Helvetica,sans-Serif" font-size="9.00">de.tu_clausthal.in.bachelorproject2018.poker.game.wincheck.</text>
<text text-anchor="middle" x="154" y="-53.3" font-family="Helvetica,sans-Serif" font-size="9.00">CFlush</text>
<polyline fill="none" stroke="black" points="0,-46.5 308,-46.5 "/>
<text text-anchor="middle" x="154" y="-35.3" font-family="Helvetica,sans-Serif" font-size="9.00"> </text>
<polyline fill="none" stroke="black" points="0,-28.5 308,-28.5 "/>
<text text-anchor="start" x="8" y="-17.3" font-family="Helvetica,sans-Serif" font-size="9.00">+ apply()</text>
<text text-anchor="start" x="8" y="-7.3" font-family="Helvetica,sans-Serif" font-size="9.00"># CFlush()</text>
</a>
</g>
</g>
<!-- Node0&#45;&gt;Node2 -->
<g id="edge2" class="edge"><title>Node0&#45;&gt;Node2</title>
<path fill="none" stroke="midnightblue" d="M480.687,-109.429C428.395,-98.6313 370.213,-86.4661 317,-75 314.165,-74.3892 311.303,-73.7703 308.42,-73.1451"/>
<polygon fill="none" stroke="midnightblue" points="480.221,-112.907 490.722,-111.5 481.635,-106.051 480.221,-112.907"/>
</g>
<!-- Node3 -->
<g id="node4" class="node"><title>Node3</title>
<g id="a_node4"><a xlink:href="../../d2/d29/classde_1_1tu__clausthal_1_1in_1_1bachelorproject2018_1_1poker_1_1game_1_1wincheck_1_1CMultiples.htm" target="_top" xlink:title="{de.tu_clausthal.in.bachelorproject2018.poker.game.wincheck.\lCMultiples\n||+ apply()\l# CMultiples()\l}">
<polygon fill="none" stroke="black" points="326,-0.5 326,-74.5 634,-74.5 634,-0.5 326,-0.5"/>
<text text-anchor="start" x="334" y="-63.3" font-family="Helvetica,sans-Serif" font-size="9.00">de.tu_clausthal.in.bachelorproject2018.poker.game.wincheck.</text>
<text text-anchor="middle" x="480" y="-53.3" font-family="Helvetica,sans-Serif" font-size="9.00">CMultiples</text>
<polyline fill="none" stroke="black" points="326,-46.5 634,-46.5 "/>
<text text-anchor="middle" x="480" y="-35.3" font-family="Helvetica,sans-Serif" font-size="9.00"> </text>
<polyline fill="none" stroke="black" points="326,-28.5 634,-28.5 "/>
<text text-anchor="start" x="334" y="-17.3" font-family="Helvetica,sans-Serif" font-size="9.00">+ apply()</text>
<text text-anchor="start" x="334" y="-7.3" font-family="Helvetica,sans-Serif" font-size="9.00"># CMultiples()</text>
</a>
</g>
</g>
<!-- Node0&#45;&gt;Node3 -->
<g id="edge3" class="edge"><title>Node0&#45;&gt;Node3</title>
<path fill="none" stroke="midnightblue" d="M585.44,-105.775C569.585,-95.6587 552.404,-84.6965 536.604,-74.6153"/>
<polygon fill="none" stroke="midnightblue" points="583.782,-108.868 594.095,-111.297 587.547,-102.967 583.782,-108.868"/>
</g>
<!-- Node4 -->
<g id="node5" class="node"><title>Node4</title>
<g id="a_node5"><a xlink:href="../../d9/d59/classde_1_1tu__clausthal_1_1in_1_1bachelorproject2018_1_1poker_1_1game_1_1wincheck_1_1CPrepareForWinCheck.htm" target="_top" xlink:title="{de.tu_clausthal.in.bachelorproject2018.poker.game.wincheck.\lCPrepareForWinCheck\n||+ apply()\l# CPrepareForWinCheck()\l}">
<polygon fill="none" stroke="black" points="652,-0.5 652,-74.5 960,-74.5 960,-0.5 652,-0.5"/>
<text text-anchor="start" x="660" y="-63.3" font-family="Helvetica,sans-Serif" font-size="9.00">de.tu_clausthal.in.bachelorproject2018.poker.game.wincheck.</text>
<text text-anchor="middle" x="806" y="-53.3" font-family="Helvetica,sans-Serif" font-size="9.00">CPrepareForWinCheck</text>
<polyline fill="none" stroke="black" points="652,-46.5 960,-46.5 "/>
<text text-anchor="middle" x="806" y="-35.3" font-family="Helvetica,sans-Serif" font-size="9.00"> </text>
<polyline fill="none" stroke="black" points="652,-28.5 960,-28.5 "/>
<text text-anchor="start" x="660" y="-17.3" font-family="Helvetica,sans-Serif" font-size="9.00">+ apply()</text>
<text text-anchor="start" x="660" y="-7.3" font-family="Helvetica,sans-Serif" font-size="9.00"># CPrepareForWinCheck()</text>
</a>
</g>
</g>
<!-- Node0&#45;&gt;Node4 -->
<g id="edge4" class="edge"><title>Node0&#45;&gt;Node4</title>
<path fill="none" stroke="midnightblue" d="M700.56,-105.775C716.415,-95.6587 733.596,-84.6965 749.396,-74.6153"/>
<polygon fill="none" stroke="midnightblue" points="698.453,-102.967 691.905,-111.297 702.218,-108.868 698.453,-102.967"/>
</g>
<!-- Node5 -->
<g id="node6" class="node"><title>Node5</title>
<g id="a_node6"><a xlink:href="../../de/df3/classde_1_1tu__clausthal_1_1in_1_1bachelorproject2018_1_1poker_1_1game_1_1wincheck_1_1CStraight.htm" target="_top" xlink:title="{de.tu_clausthal.in.bachelorproject2018.poker.game.wincheck.\lCStraight\n||+ apply()\l# CStraight()\l}">
<polygon fill="none" stroke="black" points="978,-0.5 978,-74.5 1286,-74.5 1286,-0.5 978,-0.5"/>
<text text-anchor="start" x="986" y="-63.3" font-family="Helvetica,sans-Serif" font-size="9.00">de.tu_clausthal.in.bachelorproject2018.poker.game.wincheck.</text>
<text text-anchor="middle" x="1132" y="-53.3" font-family="Helvetica,sans-Serif" font-size="9.00">CStraight</text>
<polyline fill="none" stroke="black" points="978,-46.5 1286,-46.5 "/>
<text text-anchor="middle" x="1132" y="-35.3" font-family="Helvetica,sans-Serif" font-size="9.00"> </text>
<polyline fill="none" stroke="black" points="978,-28.5 1286,-28.5 "/>
<text text-anchor="start" x="986" y="-17.3" font-family="Helvetica,sans-Serif" font-size="9.00">+ apply()</text>
<text text-anchor="start" x="986" y="-7.3" font-family="Helvetica,sans-Serif" font-size="9.00"># CStraight()</text>
</a>
</g>
</g>
<!-- Node0&#45;&gt;Node5 -->
<g id="edge5" class="edge"><title>Node0&#45;&gt;Node5</title>
<path fill="none" stroke="midnightblue" d="M805.313,-109.429C857.605,-98.6313 915.787,-86.4661 969,-75 971.835,-74.3892 974.697,-73.7703 977.58,-73.1451"/>
<polygon fill="none" stroke="midnightblue" points="804.365,-106.051 795.278,-111.5 805.779,-112.907 804.365,-106.051"/>
</g>
<!-- Node1 -->
<g id="node2" class="node"><title>Node1</title>
<g id="a_node2"><a xlink:href="../../d4/dae/interfacede_1_1tu__clausthal_1_1in_1_1bachelorproject2018_1_1poker_1_1game_1_1wincheck_1_1IWinCheckAction.htm" target="_top" xlink:title="Interface, um die einzelnen Teile der WinEvaluation zu definieren Die Aktion ist ein Supplier...">
<polygon fill="none" stroke="black" points="489,-212.5 489,-276.5 797,-276.5 797,-212.5 489,-212.5"/>
<text text-anchor="start" x="497" y="-265.3" font-family="Helvetica,sans-Serif" font-size="9.00">de.tu_clausthal.in.bachelorproject2018.poker.game.wincheck.</text>
<text text-anchor="middle" x="643" y="-255.3" font-family="Helvetica,sans-Serif" font-size="9.00">IWinCheckAction</text>
<polyline fill="none" stroke="black" points="489,-248.5 797,-248.5 "/>
<text text-anchor="middle" x="643" y="-237.3" font-family="Helvetica,sans-Serif" font-size="9.00"> </text>
<polyline fill="none" stroke="black" points="489,-230.5 797,-230.5 "/>
<text text-anchor="start" x="497" y="-219.3" font-family="Helvetica,sans-Serif" font-size="9.00">+ apply()</text>
</a>
</g>
</g>
<!-- Node1&#45;&gt;Node0 -->
<g id="edge1" class="edge"><title>Node1&#45;&gt;Node0</title>
<path fill="none" stroke="midnightblue" d="M643,-202.282C643,-193.42 643,-184.194 643,-175.783"/>
<polygon fill="none" stroke="midnightblue" points="639.5,-202.447 643,-212.447 646.5,-202.447 639.5,-202.447"/>
</g>
</g>
</svg>
