<?xml version="1.0" encoding="UTF-8" standalone="no"?>
<!DOCTYPE svg PUBLIC "-//W3C//DTD SVG 1.1//EN"
 "http://www.w3.org/Graphics/SVG/1.1/DTD/svg11.dtd">
<!-- Generated by graphviz version 2.38.0 (20140413.2041)
 -->
<!-- Title: de.tu_clausthal.in.bachelorproject2018.poker.game.cards.Card.toString Pages: 1 -->
<svg width="628pt" height="84pt"
 viewBox="0.00 0.00 628.00 84.00" xmlns="http://www.w3.org/2000/svg" xmlns:xlink="http://www.w3.org/1999/xlink">
<g id="graph0" class="graph" transform="scale(1 1) rotate(0) translate(4 80)">
<title>de.tu_clausthal.in.bachelorproject2018.poker.game.cards.Card.toString</title>
<!-- Node11 -->
<g id="node1" class="node"><title>Node11</title>
<polygon fill="#bfbfbf" stroke="black" points="0,-23.5 0,-51.5 292,-51.5 292,-23.5 0,-23.5"/>
<text text-anchor="start" x="8" y="-40.3" font-family="Helvetica,sans-Serif" font-size="9.00">de.tu_clausthal.in.bachelorproject2018.poker.game.cards.</text>
<text text-anchor="middle" x="146" y="-30.3" font-family="Helvetica,sans-Serif" font-size="9.00">Card.toString</text>
</g>
<!-- Node12 -->
<g id="node2" class="node"><title>Node12</title>
<g id="a_node2"><a xlink:href="../../dc/df8/enumde_1_1tu__clausthal_1_1in_1_1bachelorproject2018_1_1poker_1_1game_1_1cards_1_1CardSuit.htm#a6d86f8b91425f79d7a082da99e762878" target="_top" xlink:title="To be able to read the suits of the cards. ">
<polygon fill="none" stroke="black" points="328,-47.5 328,-75.5 620,-75.5 620,-47.5 328,-47.5"/>
<text text-anchor="start" x="336" y="-64.3" font-family="Helvetica,sans-Serif" font-size="9.00">de.tu_clausthal.in.bachelorproject2018.poker.game.cards.</text>
<text text-anchor="middle" x="474" y="-54.3" font-family="Helvetica,sans-Serif" font-size="9.00">CardSuit.getStringSuit</text>
</a>
</g>
</g>
<!-- Node11&#45;&gt;Node12 -->
<g id="edge1" class="edge"><title>Node11&#45;&gt;Node12</title>
<path fill="none" stroke="midnightblue" d="M292.362,-48.2015C300.843,-48.8259 309.39,-49.4551 317.907,-50.0821"/>
<polygon fill="midnightblue" stroke="midnightblue" points="317.656,-53.573 327.886,-50.8168 318.17,-46.5919 317.656,-53.573"/>
</g>
<!-- Node13 -->
<g id="node3" class="node"><title>Node13</title>
<g id="a_node3"><a xlink:href="../../d2/d81/enumde_1_1tu__clausthal_1_1in_1_1bachelorproject2018_1_1poker_1_1game_1_1cards_1_1CardValue.htm#a189d12c2ea8ac8b03c0f0c85235f4620" target="_top" xlink:title="getter für value ">
<polygon fill="none" stroke="black" points="328,-0.5 328,-28.5 620,-28.5 620,-0.5 328,-0.5"/>
<text text-anchor="start" x="336" y="-17.3" font-family="Helvetica,sans-Serif" font-size="9.00">de.tu_clausthal.in.bachelorproject2018.poker.game.cards.</text>
<text text-anchor="middle" x="474" y="-7.3" font-family="Helvetica,sans-Serif" font-size="9.00">CardValue.getValue</text>
</a>
</g>
</g>
<!-- Node11&#45;&gt;Node13 -->
<g id="edge2" class="edge"><title>Node11&#45;&gt;Node13</title>
<path fill="none" stroke="midnightblue" d="M292.362,-27.2444C300.843,-26.646 309.39,-26.0431 317.907,-25.4422"/>
<polygon fill="midnightblue" stroke="midnightblue" points="318.158,-28.9333 327.886,-24.7381 317.665,-21.9506 318.158,-28.9333"/>
</g>
</g>
</svg>
