<?xml version="1.0" encoding="UTF-8" standalone="no"?>
<!DOCTYPE svg PUBLIC "-//W3C//DTD SVG 1.1//EN"
 "http://www.w3.org/Graphics/SVG/1.1/DTD/svg11.dtd">
<!-- Generated by graphviz version 2.38.0 (20140413.2041)
 -->
<!-- Title: Grafische Darstellung der Klassenhierarchie Pages: 1 -->
<svg width="1004pt" height="178pt"
 viewBox="0.00 0.00 1004.00 178.00" xmlns="http://www.w3.org/2000/svg" xmlns:xlink="http://www.w3.org/1999/xlink">
<g id="graph0" class="graph" transform="scale(1 1) rotate(0) translate(4 174)">
<title>Grafische Darstellung der Klassenhierarchie</title>
<!-- Node0 -->
<g id="node1" class="node"><title>Node0</title>
<g id="a_node1"><a xlink:href="d4/dae/interfacede_1_1tu__clausthal_1_1in_1_1bachelorproject2018_1_1poker_1_1game_1_1wincheck_1_1IWinCheckAction.htm" target="_top" xlink:title="Interface, um die einzelnen Teile der WinEvaluation zu definieren Die Aktion ist ein Supplier...">
<polygon fill="none" stroke="black" points="0,-70.5 0,-98.5 308,-98.5 308,-70.5 0,-70.5"/>
<text text-anchor="start" x="8" y="-87.3" font-family="Helvetica,sans-Serif" font-size="9.00">de.tu_clausthal.in.bachelorproject2018.poker.game.wincheck.</text>
<text text-anchor="middle" x="154" y="-77.3" font-family="Helvetica,sans-Serif" font-size="9.00">IWinCheckAction</text>
</a>
</g>
</g>
<!-- Node1 -->
<g id="node2" class="node"><title>Node1</title>
<g id="a_node2"><a xlink:href="d6/d63/classde_1_1tu__clausthal_1_1in_1_1bachelorproject2018_1_1poker_1_1game_1_1wincheck_1_1IBaseWinCheckAction.htm" target="_top" xlink:title="de.tu_clausthal.in.bachelorproject2018.poker.game.wincheck.\lIBaseWinCheckAction">
<polygon fill="none" stroke="black" points="344,-70.5 344,-98.5 652,-98.5 652,-70.5 344,-70.5"/>
<text text-anchor="start" x="352" y="-87.3" font-family="Helvetica,sans-Serif" font-size="9.00">de.tu_clausthal.in.bachelorproject2018.poker.game.wincheck.</text>
<text text-anchor="middle" x="498" y="-77.3" font-family="Helvetica,sans-Serif" font-size="9.00">IBaseWinCheckAction</text>
</a>
</g>
</g>
<!-- Node0&#45;&gt;Node1 -->
<g id="edge1" class="edge"><title>Node0&#45;&gt;Node1</title>
<path fill="none" stroke="midnightblue" d="M318.679,-84.5C327.043,-84.5 335.431,-84.5 343.762,-84.5"/>
<polygon fill="midnightblue" stroke="midnightblue" points="318.493,-81.0001 308.493,-84.5 318.493,-88.0001 318.493,-81.0001"/>
</g>
<!-- Node2 -->
<g id="node3" class="node"><title>Node2</title>
<g id="a_node3"><a xlink:href="d4/d87/classde_1_1tu__clausthal_1_1in_1_1bachelorproject2018_1_1poker_1_1game_1_1wincheck_1_1CFlush.htm" target="_top" xlink:title="de.tu_clausthal.in.bachelorproject2018.poker.game.wincheck.\lCFlush">
<polygon fill="none" stroke="black" points="688,-141.5 688,-169.5 996,-169.5 996,-141.5 688,-141.5"/>
<text text-anchor="start" x="696" y="-158.3" font-family="Helvetica,sans-Serif" font-size="9.00">de.tu_clausthal.in.bachelorproject2018.poker.game.wincheck.</text>
<text text-anchor="middle" x="842" y="-148.3" font-family="Helvetica,sans-Serif" font-size="9.00">CFlush</text>
</a>
</g>
</g>
<!-- Node1&#45;&gt;Node2 -->
<g id="edge2" class="edge"><title>Node1&#45;&gt;Node2</title>
<path fill="none" stroke="midnightblue" d="M558.941,-101.348C595.93,-111.339 644.47,-123.723 688,-132.5 704.194,-135.765 721.437,-138.789 738.29,-141.499"/>
<polygon fill="midnightblue" stroke="midnightblue" points="559.396,-97.8452 548.829,-98.599 557.56,-104.6 559.396,-97.8452"/>
</g>
<!-- Node3 -->
<g id="node4" class="node"><title>Node3</title>
<g id="a_node4"><a xlink:href="d2/d29/classde_1_1tu__clausthal_1_1in_1_1bachelorproject2018_1_1poker_1_1game_1_1wincheck_1_1CMultiples.htm" target="_top" xlink:title="de.tu_clausthal.in.bachelorproject2018.poker.game.wincheck.\lCMultiples">
<polygon fill="none" stroke="black" points="688,-94.5 688,-122.5 996,-122.5 996,-94.5 688,-94.5"/>
<text text-anchor="start" x="696" y="-111.3" font-family="Helvetica,sans-Serif" font-size="9.00">de.tu_clausthal.in.bachelorproject2018.poker.game.wincheck.</text>
<text text-anchor="middle" x="842" y="-101.3" font-family="Helvetica,sans-Serif" font-size="9.00">CMultiples</text>
</a>
</g>
</g>
<!-- Node1&#45;&gt;Node3 -->
<g id="edge3" class="edge"><title>Node1&#45;&gt;Node3</title>
<path fill="none" stroke="midnightblue" d="M662.679,-95.9862C671.043,-96.5732 679.431,-97.1618 687.762,-97.7465"/>
<polygon fill="midnightblue" stroke="midnightblue" points="662.714,-92.4802 652.493,-95.2714 662.224,-99.463 662.714,-92.4802"/>
</g>
<!-- Node4 -->
<g id="node5" class="node"><title>Node4</title>
<g id="a_node5"><a xlink:href="d9/d59/classde_1_1tu__clausthal_1_1in_1_1bachelorproject2018_1_1poker_1_1game_1_1wincheck_1_1CPrepareForWinCheck.htm" target="_top" xlink:title="de.tu_clausthal.in.bachelorproject2018.poker.game.wincheck.\lCPrepareForWinCheck">
<polygon fill="none" stroke="black" points="688,-47.5 688,-75.5 996,-75.5 996,-47.5 688,-47.5"/>
<text text-anchor="start" x="696" y="-64.3" font-family="Helvetica,sans-Serif" font-size="9.00">de.tu_clausthal.in.bachelorproject2018.poker.game.wincheck.</text>
<text text-anchor="middle" x="842" y="-54.3" font-family="Helvetica,sans-Serif" font-size="9.00">CPrepareForWinCheck</text>
</a>
</g>
</g>
<!-- Node1&#45;&gt;Node4 -->
<g id="edge4" class="edge"><title>Node1&#45;&gt;Node4</title>
<path fill="none" stroke="midnightblue" d="M662.679,-73.4924C671.043,-72.9298 679.431,-72.3657 687.762,-71.8055"/>
<polygon fill="midnightblue" stroke="midnightblue" points="662.236,-70.0142 652.493,-74.1774 662.705,-76.9984 662.236,-70.0142"/>
</g>
<!-- Node5 -->
<g id="node6" class="node"><title>Node5</title>
<g id="a_node6"><a xlink:href="de/df3/classde_1_1tu__clausthal_1_1in_1_1bachelorproject2018_1_1poker_1_1game_1_1wincheck_1_1CStraight.htm" target="_top" xlink:title="de.tu_clausthal.in.bachelorproject2018.poker.game.wincheck.\lCStraight">
<polygon fill="none" stroke="black" points="688,-0.5 688,-28.5 996,-28.5 996,-0.5 688,-0.5"/>
<text text-anchor="start" x="696" y="-17.3" font-family="Helvetica,sans-Serif" font-size="9.00">de.tu_clausthal.in.bachelorproject2018.poker.game.wincheck.</text>
<text text-anchor="middle" x="842" y="-7.3" font-family="Helvetica,sans-Serif" font-size="9.00">CStraight</text>
</a>
</g>
</g>
<!-- Node1&#45;&gt;Node5 -->
<g id="edge5" class="edge"><title>Node1&#45;&gt;Node5</title>
<path fill="none" stroke="midnightblue" d="M561.735,-67.8439C598.384,-58.4621 645.622,-46.9657 688,-38.5 705.929,-34.9184 725.129,-31.5461 743.658,-28.5248"/>
<polygon fill="midnightblue" stroke="midnightblue" points="560.504,-64.5469 551.692,-70.4297 562.249,-71.3258 560.504,-64.5469"/>
</g>
</g>
</svg>
