<?xml version="1.0" encoding="UTF-8" standalone="no"?>
<!DOCTYPE svg PUBLIC "-//W3C//DTD SVG 1.1//EN"
 "http://www.w3.org/Graphics/SVG/1.1/DTD/svg11.dtd">
<!-- Generated by graphviz version 2.38.0 (20140413.2041)
 -->
<!-- Title: Grafische Darstellung der Klassenhierarchie Pages: 1 -->
<svg width="450pt" height="84pt"
 viewBox="0.00 0.00 450.00 84.00" xmlns="http://www.w3.org/2000/svg" xmlns:xlink="http://www.w3.org/1999/xlink">
<g id="graph0" class="graph" transform="scale(1 1) rotate(0) translate(4 80)">
<title>Grafische Darstellung der Klassenhierarchie</title>
<!-- Node82 -->
<g id="node1" class="node"><title>Node82</title>
<polygon fill="none" stroke="#bfbfbf" points="0,-28.5 0,-46.5 95,-46.5 95,-28.5 0,-28.5"/>
<text text-anchor="middle" x="47.5" y="-35.3" font-family="Helvetica,sans-Serif" font-size="9.00">ApplicationEvent</text>
</g>
<!-- Node0 -->
<g id="node2" class="node"><title>Node0</title>
<g id="a_node2"><a xlink:href="d2/d85/classde_1_1tu__clausthal_1_1in_1_1bachelorproject2018_1_1poker_1_1network_1_1objects_1_1CMessageEvent.htm" target="_top" xlink:title="de.tu_clausthal.in.bachelorproject2018.poker.network.objects.\lCMessageEvent">
<polygon fill="none" stroke="black" points="131,-47.5 131,-75.5 442,-75.5 442,-47.5 131,-47.5"/>
<text text-anchor="start" x="139" y="-64.3" font-family="Helvetica,sans-Serif" font-size="9.00">de.tu_clausthal.in.bachelorproject2018.poker.network.objects.</text>
<text text-anchor="middle" x="286.5" y="-54.3" font-family="Helvetica,sans-Serif" font-size="9.00">CMessageEvent</text>
</a>
</g>
</g>
<!-- Node82&#45;&gt;Node0 -->
<g id="edge1" class="edge"><title>Node82&#45;&gt;Node0</title>
<path fill="none" stroke="midnightblue" d="M105.095,-43.2311C118.019,-44.5399 132.308,-45.9869 147.021,-47.4768"/>
<polygon fill="midnightblue" stroke="midnightblue" points="105.343,-39.7384 95.0408,-42.213 104.637,-46.7028 105.343,-39.7384"/>
</g>
<!-- Node84 -->
<g id="node3" class="node"><title>Node84</title>
<g id="a_node3"><a xlink:href="df/dd7/classde_1_1tu__clausthal_1_1in_1_1bachelorproject2018_1_1poker_1_1network_1_1objects_1_1CNotifyPlayerEvent.htm" target="_top" xlink:title="de.tu_clausthal.in.bachelorproject2018.poker.network.objects.\lCNotifyPlayerEvent">
<polygon fill="none" stroke="black" points="131,-0.5 131,-28.5 442,-28.5 442,-0.5 131,-0.5"/>
<text text-anchor="start" x="139" y="-17.3" font-family="Helvetica,sans-Serif" font-size="9.00">de.tu_clausthal.in.bachelorproject2018.poker.network.objects.</text>
<text text-anchor="middle" x="286.5" y="-7.3" font-family="Helvetica,sans-Serif" font-size="9.00">CNotifyPlayerEvent</text>
</a>
</g>
</g>
<!-- Node82&#45;&gt;Node84 -->
<g id="edge2" class="edge"><title>Node82&#45;&gt;Node84</title>
<path fill="none" stroke="midnightblue" d="M105.034,-32.0136C116.25,-30.9251 128.497,-29.7365 141.158,-28.5079"/>
<polygon fill="midnightblue" stroke="midnightblue" points="104.656,-28.5337 95.0408,-32.9834 105.332,-35.501 104.656,-28.5337"/>
</g>
</g>
</svg>
