<?xml version="1.0" encoding="UTF-8" standalone="no"?>
<!DOCTYPE svg PUBLIC "-//W3C//DTD SVG 1.1//EN"
 "http://www.w3.org/Graphics/SVG/1.1/DTD/svg11.dtd">
<!-- Generated by graphviz version 2.38.0 (20140413.2041)
 -->
<!-- Title: Grafische Darstellung der Klassenhierarchie Pages: 1 -->
<svg width="802pt" height="178pt"
 viewBox="0.00 0.00 802.00 178.00" xmlns="http://www.w3.org/2000/svg" xmlns:xlink="http://www.w3.org/1999/xlink">
<g id="graph0" class="graph" transform="scale(1 1) rotate(0) translate(4 174)">
<title>Grafische Darstellung der Klassenhierarchie</title>
<!-- Node0 -->
<g id="node1" class="node"><title>Node0</title>
<g id="a_node1"><a xlink:href="d9/d5d/interfacede_1_1tu__clausthal_1_1in_1_1bachelorproject2018_1_1poker_1_1network_1_1gamestate_1_1messages_1_1IGamestateMessage.htm" target="_top" xlink:title="de.tu_clausthal.in.bachelorproject2018.poker.network.gamestate.messages.\lIGamestateMessage">
<polygon fill="none" stroke="black" points="0,-70.5 0,-98.5 379,-98.5 379,-70.5 0,-70.5"/>
<text text-anchor="start" x="8" y="-87.3" font-family="Helvetica,sans-Serif" font-size="9.00">de.tu_clausthal.in.bachelorproject2018.poker.network.gamestate.messages.</text>
<text text-anchor="middle" x="189.5" y="-77.3" font-family="Helvetica,sans-Serif" font-size="9.00">IGamestateMessage</text>
</a>
</g>
</g>
<!-- Node1 -->
<g id="node2" class="node"><title>Node1</title>
<g id="a_node2"><a xlink:href="db/d26/classde_1_1tu__clausthal_1_1in_1_1bachelorproject2018_1_1poker_1_1network_1_1gamestate_1_1messages_1_1CCardMessage.htm" target="_top" xlink:title="de.tu_clausthal.in.bachelorproject2018.poker.network.gamestate.messages.\lCCardMessage">
<polygon fill="none" stroke="black" points="415,-141.5 415,-169.5 794,-169.5 794,-141.5 415,-141.5"/>
<text text-anchor="start" x="423" y="-158.3" font-family="Helvetica,sans-Serif" font-size="9.00">de.tu_clausthal.in.bachelorproject2018.poker.network.gamestate.messages.</text>
<text text-anchor="middle" x="604.5" y="-148.3" font-family="Helvetica,sans-Serif" font-size="9.00">CCardMessage</text>
</a>
</g>
</g>
<!-- Node0&#45;&gt;Node1 -->
<g id="edge1" class="edge"><title>Node0&#45;&gt;Node1</title>
<path fill="none" stroke="midnightblue" d="M259.099,-100.828C303.396,-110.96 362.376,-123.682 415,-132.5 434.59,-135.783 455.401,-138.794 475.771,-141.48"/>
<polygon fill="midnightblue" stroke="midnightblue" points="259.84,-97.4074 249.309,-98.5769 258.271,-104.229 259.84,-97.4074"/>
</g>
<!-- Node2 -->
<g id="node3" class="node"><title>Node2</title>
<g id="a_node3"><a xlink:href="dc/dbb/classde_1_1tu__clausthal_1_1in_1_1bachelorproject2018_1_1poker_1_1network_1_1gamestate_1_1messages_1_1CChipMessage.htm" target="_top" xlink:title="de.tu_clausthal.in.bachelorproject2018.poker.network.gamestate.messages.\lCChipMessage">
<polygon fill="none" stroke="black" points="415,-94.5 415,-122.5 794,-122.5 794,-94.5 415,-94.5"/>
<text text-anchor="start" x="423" y="-111.3" font-family="Helvetica,sans-Serif" font-size="9.00">de.tu_clausthal.in.bachelorproject2018.poker.network.gamestate.messages.</text>
<text text-anchor="middle" x="604.5" y="-101.3" font-family="Helvetica,sans-Serif" font-size="9.00">CChipMessage</text>
</a>
</g>
</g>
<!-- Node0&#45;&gt;Node2 -->
<g id="edge2" class="edge"><title>Node0&#45;&gt;Node2</title>
<path fill="none" stroke="midnightblue" d="M389.232,-96.0486C397.811,-96.5471 406.408,-97.0467 414.964,-97.5439"/>
<polygon fill="midnightblue" stroke="midnightblue" points="389.359,-92.5502 379.173,-95.464 388.953,-99.5384 389.359,-92.5502"/>
</g>
<!-- Node3 -->
<g id="node4" class="node"><title>Node3</title>
<g id="a_node4"><a xlink:href="d0/d01/classde_1_1tu__clausthal_1_1in_1_1bachelorproject2018_1_1poker_1_1network_1_1gamestate_1_1messages_1_1CGameMessage.htm" target="_top" xlink:title="de.tu_clausthal.in.bachelorproject2018.poker.network.gamestate.messages.\lCGameMessage">
<polygon fill="none" stroke="black" points="415,-47.5 415,-75.5 794,-75.5 794,-47.5 415,-47.5"/>
<text text-anchor="start" x="423" y="-64.3" font-family="Helvetica,sans-Serif" font-size="9.00">de.tu_clausthal.in.bachelorproject2018.poker.network.gamestate.messages.</text>
<text text-anchor="middle" x="604.5" y="-54.3" font-family="Helvetica,sans-Serif" font-size="9.00">CGameMessage</text>
</a>
</g>
</g>
<!-- Node0&#45;&gt;Node3 -->
<g id="edge3" class="edge"><title>Node0&#45;&gt;Node3</title>
<path fill="none" stroke="midnightblue" d="M389.232,-73.4326C397.811,-72.9548 406.408,-72.4761 414.964,-71.9996"/>
<polygon fill="midnightblue" stroke="midnightblue" points="388.963,-69.9421 379.173,-73.9928 389.352,-76.9312 388.963,-69.9421"/>
</g>
<!-- Node4 -->
<g id="node5" class="node"><title>Node4</title>
<g id="a_node5"><a xlink:href="d2/d3b/classde_1_1tu__clausthal_1_1in_1_1bachelorproject2018_1_1poker_1_1network_1_1gamestate_1_1messages_1_1CNotifyMessage.htm" target="_top" xlink:title="de.tu_clausthal.in.bachelorproject2018.poker.network.gamestate.messages.\lCNotifyMessage">
<polygon fill="none" stroke="black" points="415,-0.5 415,-28.5 794,-28.5 794,-0.5 415,-0.5"/>
<text text-anchor="start" x="423" y="-17.3" font-family="Helvetica,sans-Serif" font-size="9.00">de.tu_clausthal.in.bachelorproject2018.poker.network.gamestate.messages.</text>
<text text-anchor="middle" x="604.5" y="-7.3" font-family="Helvetica,sans-Serif" font-size="9.00">CNotifyMessage</text>
</a>
</g>
</g>
<!-- Node0&#45;&gt;Node4 -->
<g id="edge4" class="edge"><title>Node0&#45;&gt;Node4</title>
<path fill="none" stroke="midnightblue" d="M262.687,-68.2656C306.576,-58.7557 363.84,-46.9858 415,-38.5 436.805,-34.8832 460.109,-31.5157 482.632,-28.5146"/>
<polygon fill="midnightblue" stroke="midnightblue" points="261.71,-64.8963 252.684,-70.4441 263.2,-71.7359 261.71,-64.8963"/>
</g>
</g>
</svg>
