<?xml version="1.0" encoding="UTF-8" standalone="no"?>
<!DOCTYPE svg PUBLIC "-//W3C//DTD SVG 1.1//EN"
 "http://www.w3.org/Graphics/SVG/1.1/DTD/svg11.dtd">
<!-- Generated by graphviz version 2.38.0 (20140413.2041)
 -->
<!-- Title: Grafische Darstellung der Klassenhierarchie Pages: 1 -->
<svg width="1065pt" height="225pt"
 viewBox="0.00 0.00 1065.00 225.00" xmlns="http://www.w3.org/2000/svg" xmlns:xlink="http://www.w3.org/1999/xlink">
<g id="graph0" class="graph" transform="scale(1 1) rotate(0) translate(4 221)">
<title>Grafische Darstellung der Klassenhierarchie</title>
<!-- Node67 -->
<g id="node1" class="node"><title>Node67</title>
<polygon fill="none" stroke="#bfbfbf" points="0,-52.5 0,-70.5 64,-70.5 64,-52.5 0,-52.5"/>
<text text-anchor="middle" x="32" y="-59.3" font-family="Helvetica,sans-Serif" font-size="9.00">Consumer</text>
</g>
<!-- Node0 -->
<g id="node2" class="node"><title>Node0</title>
<g id="a_node2"><a xlink:href="d0/ded/interfacede_1_1tu__clausthal_1_1in_1_1bachelorproject2018_1_1poker_1_1game_1_1action_1_1IAction.htm" target="_top" xlink:title="Aktionsinterface, um die einzelnen Aktionen des Spielers abzubilden. ">
<polygon fill="none" stroke="black" points="100,-94.5 100,-122.5 395,-122.5 395,-94.5 100,-94.5"/>
<text text-anchor="start" x="108" y="-111.3" font-family="Helvetica,sans-Serif" font-size="9.00">de.tu_clausthal.in.bachelorproject2018.poker.game.action.</text>
<text text-anchor="middle" x="247.5" y="-101.3" font-family="Helvetica,sans-Serif" font-size="9.00">IAction</text>
</a>
</g>
</g>
<!-- Node67&#45;&gt;Node0 -->
<g id="edge1" class="edge"><title>Node67&#45;&gt;Node0</title>
<path fill="none" stroke="midnightblue" d="M64.6541,-74.2202C75.699,-78.2873 88.2674,-82.5061 100,-85.5 113.346,-88.9057 127.512,-91.8924 141.573,-94.4865"/>
<polygon fill="midnightblue" stroke="midnightblue" points="65.5983,-70.8352 55.0068,-70.5672 63.1194,-77.3816 65.5983,-70.8352"/>
</g>
<!-- Node75 -->
<g id="node9" class="node"><title>Node75</title>
<g id="a_node9"><a xlink:href="d2/d11/interfacede_1_1tu__clausthal_1_1in_1_1bachelorproject2018_1_1poker_1_1game_1_1player_1_1IPlayer.htm" target="_top" xlink:title="Spieler Interface. ">
<polygon fill="none" stroke="black" points="101,-47.5 101,-75.5 394,-75.5 394,-47.5 101,-47.5"/>
<text text-anchor="start" x="109" y="-64.3" font-family="Helvetica,sans-Serif" font-size="9.00">de.tu_clausthal.in.bachelorproject2018.poker.game.player.</text>
<text text-anchor="middle" x="247.5" y="-54.3" font-family="Helvetica,sans-Serif" font-size="9.00">IPlayer</text>
</a>
</g>
</g>
<!-- Node67&#45;&gt;Node75 -->
<g id="edge8" class="edge"><title>Node67&#45;&gt;Node75</title>
<path fill="none" stroke="midnightblue" d="M74.1982,-61.5C82.305,-61.5 91.2348,-61.5 100.634,-61.5"/>
<polygon fill="midnightblue" stroke="midnightblue" points="74.0448,-58.0001 64.0447,-61.5 74.0447,-65.0001 74.0448,-58.0001"/>
</g>
<!-- Node77 -->
<g id="node11" class="node"><title>Node77</title>
<g id="a_node11"><a xlink:href="d5/d36/interfacede_1_1tu__clausthal_1_1in_1_1bachelorproject2018_1_1poker_1_1game_1_1table_1_1ITable.htm" target="_top" xlink:title="Interface um einen Spieletisch darzustellen. ">
<polygon fill="none" stroke="black" points="102.5,-0.5 102.5,-28.5 392.5,-28.5 392.5,-0.5 102.5,-0.5"/>
<text text-anchor="start" x="110.5" y="-17.3" font-family="Helvetica,sans-Serif" font-size="9.00">de.tu_clausthal.in.bachelorproject2018.poker.game.table.</text>
<text text-anchor="middle" x="247.5" y="-7.3" font-family="Helvetica,sans-Serif" font-size="9.00">ITable</text>
</a>
</g>
</g>
<!-- Node67&#45;&gt;Node77 -->
<g id="edge10" class="edge"><title>Node67&#45;&gt;Node77</title>
<path fill="none" stroke="midnightblue" d="M65.7454,-49.0269C76.5383,-45.2485 88.6774,-41.3493 100,-38.5 114.996,-34.7262 131.011,-31.403 146.742,-28.5265"/>
<polygon fill="midnightblue" stroke="midnightblue" points="64.502,-45.7546 56.2742,-52.4295 66.8687,-52.3424 64.502,-45.7546"/>
</g>
<!-- Node1 -->
<g id="node3" class="node"><title>Node1</title>
<g id="a_node3"><a xlink:href="d2/d9f/classde_1_1tu__clausthal_1_1in_1_1bachelorproject2018_1_1poker_1_1game_1_1action_1_1IBaseAction.htm" target="_top" xlink:title="de.tu_clausthal.in.bachelorproject2018.poker.game.action.\lIBaseAction">
<polygon fill="none" stroke="black" points="431,-94.5 431,-122.5 726,-122.5 726,-94.5 431,-94.5"/>
<text text-anchor="start" x="439" y="-111.3" font-family="Helvetica,sans-Serif" font-size="9.00">de.tu_clausthal.in.bachelorproject2018.poker.game.action.</text>
<text text-anchor="middle" x="578.5" y="-101.3" font-family="Helvetica,sans-Serif" font-size="9.00">IBaseAction</text>
</a>
</g>
</g>
<!-- Node0&#45;&gt;Node1 -->
<g id="edge2" class="edge"><title>Node0&#45;&gt;Node1</title>
<path fill="none" stroke="midnightblue" d="M405.478,-108.5C413.92,-108.5 422.388,-108.5 430.794,-108.5"/>
<polygon fill="midnightblue" stroke="midnightblue" points="405.2,-105 395.199,-108.5 405.199,-112 405.2,-105"/>
</g>
<!-- Node2 -->
<g id="node4" class="node"><title>Node2</title>
<g id="a_node4"><a xlink:href="d9/d7a/classde_1_1tu__clausthal_1_1in_1_1bachelorproject2018_1_1poker_1_1game_1_1action_1_1CAllIn.htm" target="_top" xlink:title="All&#45;In Aktion. ">
<polygon fill="none" stroke="black" points="762,-188.5 762,-216.5 1057,-216.5 1057,-188.5 762,-188.5"/>
<text text-anchor="start" x="770" y="-205.3" font-family="Helvetica,sans-Serif" font-size="9.00">de.tu_clausthal.in.bachelorproject2018.poker.game.action.</text>
<text text-anchor="middle" x="909.5" y="-195.3" font-family="Helvetica,sans-Serif" font-size="9.00">CAllIn</text>
</a>
</g>
</g>
<!-- Node1&#45;&gt;Node2 -->
<g id="edge3" class="edge"><title>Node1&#45;&gt;Node2</title>
<path fill="none" stroke="midnightblue" d="M619.1,-126.772C655.516,-142.88 711.378,-165.85 762,-179.5 774.677,-182.918 788.118,-185.887 801.515,-188.451"/>
<polygon fill="midnightblue" stroke="midnightblue" points="620.378,-123.51 609.82,-122.63 617.525,-129.902 620.378,-123.51"/>
</g>
<!-- Node3 -->
<g id="node5" class="node"><title>Node3</title>
<g id="a_node5"><a xlink:href="de/dec/classde_1_1tu__clausthal_1_1in_1_1bachelorproject2018_1_1poker_1_1game_1_1action_1_1CCall.htm" target="_top" xlink:title="Call&#45;Aktion. ">
<polygon fill="none" stroke="black" points="762,-141.5 762,-169.5 1057,-169.5 1057,-141.5 762,-141.5"/>
<text text-anchor="start" x="770" y="-158.3" font-family="Helvetica,sans-Serif" font-size="9.00">de.tu_clausthal.in.bachelorproject2018.poker.game.action.</text>
<text text-anchor="middle" x="909.5" y="-148.3" font-family="Helvetica,sans-Serif" font-size="9.00">CCall</text>
</a>
</g>
</g>
<!-- Node1&#45;&gt;Node3 -->
<g id="edge4" class="edge"><title>Node1&#45;&gt;Node3</title>
<path fill="none" stroke="midnightblue" d="M687.715,-123.959C727.294,-129.613 771.816,-135.974 810.457,-141.494"/>
<polygon fill="midnightblue" stroke="midnightblue" points="688.16,-120.487 677.765,-122.538 687.17,-127.417 688.16,-120.487"/>
</g>
<!-- Node4 -->
<g id="node6" class="node"><title>Node4</title>
<g id="a_node6"><a xlink:href="dd/d69/classde_1_1tu__clausthal_1_1in_1_1bachelorproject2018_1_1poker_1_1game_1_1action_1_1CCheck.htm" target="_top" xlink:title="de.tu_clausthal.in.bachelorproject2018.poker.game.action.\lCCheck">
<polygon fill="none" stroke="black" points="762,-94.5 762,-122.5 1057,-122.5 1057,-94.5 762,-94.5"/>
<text text-anchor="start" x="770" y="-111.3" font-family="Helvetica,sans-Serif" font-size="9.00">de.tu_clausthal.in.bachelorproject2018.poker.game.action.</text>
<text text-anchor="middle" x="909.5" y="-101.3" font-family="Helvetica,sans-Serif" font-size="9.00">CCheck</text>
</a>
</g>
</g>
<!-- Node1&#45;&gt;Node4 -->
<g id="edge5" class="edge"><title>Node1&#45;&gt;Node4</title>
<path fill="none" stroke="midnightblue" d="M736.478,-108.5C744.92,-108.5 753.388,-108.5 761.794,-108.5"/>
<polygon fill="midnightblue" stroke="midnightblue" points="736.2,-105 726.199,-108.5 736.199,-112 736.2,-105"/>
</g>
<!-- Node5 -->
<g id="node7" class="node"><title>Node5</title>
<g id="a_node7"><a xlink:href="d4/d31/classde_1_1tu__clausthal_1_1in_1_1bachelorproject2018_1_1poker_1_1game_1_1action_1_1CFold.htm" target="_top" xlink:title="de.tu_clausthal.in.bachelorproject2018.poker.game.action.\lCFold">
<polygon fill="none" stroke="black" points="762,-47.5 762,-75.5 1057,-75.5 1057,-47.5 762,-47.5"/>
<text text-anchor="start" x="770" y="-64.3" font-family="Helvetica,sans-Serif" font-size="9.00">de.tu_clausthal.in.bachelorproject2018.poker.game.action.</text>
<text text-anchor="middle" x="909.5" y="-54.3" font-family="Helvetica,sans-Serif" font-size="9.00">CFold</text>
</a>
</g>
</g>
<!-- Node1&#45;&gt;Node5 -->
<g id="edge6" class="edge"><title>Node1&#45;&gt;Node5</title>
<path fill="none" stroke="midnightblue" d="M687.715,-93.0408C727.294,-87.3866 771.816,-81.0263 810.457,-75.5061"/>
<polygon fill="midnightblue" stroke="midnightblue" points="687.17,-89.583 677.765,-94.4621 688.16,-96.5126 687.17,-89.583"/>
</g>
<!-- Node6 -->
<g id="node8" class="node"><title>Node6</title>
<g id="a_node8"><a xlink:href="de/d5d/classde_1_1tu__clausthal_1_1in_1_1bachelorproject2018_1_1poker_1_1game_1_1action_1_1CRaise.htm" target="_top" xlink:title="Raise Aktion. ">
<polygon fill="none" stroke="black" points="762,-0.5 762,-28.5 1057,-28.5 1057,-0.5 762,-0.5"/>
<text text-anchor="start" x="770" y="-17.3" font-family="Helvetica,sans-Serif" font-size="9.00">de.tu_clausthal.in.bachelorproject2018.poker.game.action.</text>
<text text-anchor="middle" x="909.5" y="-7.3" font-family="Helvetica,sans-Serif" font-size="9.00">CRaise</text>
</a>
</g>
</g>
<!-- Node1&#45;&gt;Node6 -->
<g id="edge7" class="edge"><title>Node1&#45;&gt;Node6</title>
<path fill="none" stroke="midnightblue" d="M717.129,-90.2956C720.161,-88.8067 723.123,-87.2106 726,-85.5 748.616,-72.0522 739.428,-52.023 762,-38.5 768.412,-34.6587 775.25,-31.3798 782.338,-28.585"/>
<polygon fill="midnightblue" stroke="midnightblue" points="715.542,-87.1713 707.841,-94.448 718.399,-93.5618 715.542,-87.1713"/>
</g>
<!-- Node76 -->
<g id="node10" class="node"><title>Node76</title>
<g id="a_node10"><a xlink:href="da/d96/classde_1_1tu__clausthal_1_1in_1_1bachelorproject2018_1_1poker_1_1game_1_1player_1_1CPlayer.htm" target="_top" xlink:title="de.tu_clausthal.in.bachelorproject2018.poker.game.player.\lCPlayer">
<polygon fill="none" stroke="black" points="432,-47.5 432,-75.5 725,-75.5 725,-47.5 432,-47.5"/>
<text text-anchor="start" x="440" y="-64.3" font-family="Helvetica,sans-Serif" font-size="9.00">de.tu_clausthal.in.bachelorproject2018.poker.game.player.</text>
<text text-anchor="middle" x="578.5" y="-54.3" font-family="Helvetica,sans-Serif" font-size="9.00">CPlayer</text>
</a>
</g>
</g>
<!-- Node75&#45;&gt;Node76 -->
<g id="edge9" class="edge"><title>Node75&#45;&gt;Node76</title>
<path fill="none" stroke="midnightblue" d="M404.49,-61.5C413.585,-61.5 422.716,-61.5 431.77,-61.5"/>
<polygon fill="midnightblue" stroke="midnightblue" points="404.241,-58.0001 394.241,-61.5 404.241,-65.0001 404.241,-58.0001"/>
</g>
<!-- Node78 -->
<g id="node12" class="node"><title>Node78</title>
<g id="a_node12"><a xlink:href="d2/dd9/classde_1_1tu__clausthal_1_1in_1_1bachelorproject2018_1_1poker_1_1game_1_1table_1_1CTable.htm" target="_top" xlink:title="Spieletisch Definition. ">
<polygon fill="none" stroke="black" points="433.5,-0.5 433.5,-28.5 723.5,-28.5 723.5,-0.5 433.5,-0.5"/>
<text text-anchor="start" x="441.5" y="-17.3" font-family="Helvetica,sans-Serif" font-size="9.00">de.tu_clausthal.in.bachelorproject2018.poker.game.table.</text>
<text text-anchor="middle" x="578.5" y="-7.3" font-family="Helvetica,sans-Serif" font-size="9.00">CTable</text>
</a>
</g>
</g>
<!-- Node77&#45;&gt;Node78 -->
<g id="edge11" class="edge"><title>Node77&#45;&gt;Node78</title>
<path fill="none" stroke="midnightblue" d="M402.933,-14.5C413.085,-14.5 423.288,-14.5 433.387,-14.5"/>
<polygon fill="midnightblue" stroke="midnightblue" points="402.804,-11.0001 392.804,-14.5 402.804,-18.0001 402.804,-11.0001"/>
</g>
</g>
</svg>
