<?xml version="1.0" encoding="UTF-8" standalone="no"?>
<!DOCTYPE svg PUBLIC "-//W3C//DTD SVG 1.1//EN"
 "http://www.w3.org/Graphics/SVG/1.1/DTD/svg11.dtd">
<!-- Generated by graphviz version 2.38.0 (20140413.2041)
 -->
<!-- Title: Grafische Darstellung der Klassenhierarchie Pages: 1 -->
<svg width="1358pt" height="319pt"
 viewBox="0.00 0.00 1358.00 319.00" xmlns="http://www.w3.org/2000/svg" xmlns:xlink="http://www.w3.org/1999/xlink">
<g id="graph0" class="graph" transform="scale(1 1) rotate(0) translate(4 315)">
<title>Grafische Darstellung der Klassenhierarchie</title>
<!-- Node79 -->
<g id="node1" class="node"><title>Node79</title>
<polygon fill="none" stroke="#bfbfbf" points="128,-146.5 128,-164.5 200,-164.5 200,-146.5 128,-146.5"/>
<text text-anchor="middle" x="164" y="-153.3" font-family="Helvetica,sans-Serif" font-size="9.00">BiConsumer</text>
</g>
<!-- Node58 -->
<g id="node2" class="node"><title>Node58</title>
<g id="a_node2"><a xlink:href="dc/db4/interfacede_1_1tu__clausthal_1_1in_1_1bachelorproject2018_1_1poker_1_1game_1_1round_1_1IRoundAction.htm" target="_top" xlink:title="Interface, um die einzelnen Aktionen in einer Runde zu definieren. ">
<polygon fill="none" stroke="black" points="381.5,-141.5 381.5,-169.5 674.5,-169.5 674.5,-141.5 381.5,-141.5"/>
<text text-anchor="start" x="389.5" y="-158.3" font-family="Helvetica,sans-Serif" font-size="9.00">de.tu_clausthal.in.bachelorproject2018.poker.game.round.</text>
<text text-anchor="middle" x="528" y="-148.3" font-family="Helvetica,sans-Serif" font-size="9.00">IRoundAction</text>
</a>
</g>
</g>
<!-- Node79&#45;&gt;Node58 -->
<g id="edge1" class="edge"><title>Node79&#45;&gt;Node58</title>
<path fill="none" stroke="midnightblue" d="M210.151,-155.5C253.08,-155.5 320.017,-155.5 381.327,-155.5"/>
<polygon fill="midnightblue" stroke="midnightblue" points="210.039,-152 200.039,-155.5 210.039,-159 210.039,-152"/>
</g>
<!-- Node59 -->
<g id="node3" class="node"><title>Node59</title>
<g id="a_node3"><a xlink:href="da/d24/classde_1_1tu__clausthal_1_1in_1_1bachelorproject2018_1_1poker_1_1game_1_1round_1_1IBaseRoundAction.htm" target="_top" xlink:title="de.tu_clausthal.in.bachelorproject2018.poker.game.round.\lIBaseRoundAction">
<polygon fill="none" stroke="black" points="728,-141.5 728,-169.5 1021,-169.5 1021,-141.5 728,-141.5"/>
<text text-anchor="start" x="736" y="-158.3" font-family="Helvetica,sans-Serif" font-size="9.00">de.tu_clausthal.in.bachelorproject2018.poker.game.round.</text>
<text text-anchor="middle" x="874.5" y="-148.3" font-family="Helvetica,sans-Serif" font-size="9.00">IBaseRoundAction</text>
</a>
</g>
</g>
<!-- Node58&#45;&gt;Node59 -->
<g id="edge2" class="edge"><title>Node58&#45;&gt;Node59</title>
<path fill="none" stroke="midnightblue" d="M684.967,-155.5C699.25,-155.5 713.683,-155.5 727.869,-155.5"/>
<polygon fill="midnightblue" stroke="midnightblue" points="684.6,-152 674.6,-155.5 684.6,-159 684.6,-152"/>
</g>
<!-- Node60 -->
<g id="node4" class="node"><title>Node60</title>
<g id="a_node4"><a xlink:href="d8/d84/classde_1_1tu__clausthal_1_1in_1_1bachelorproject2018_1_1poker_1_1game_1_1round_1_1CBetRound.htm" target="_top" xlink:title="de.tu_clausthal.in.bachelorproject2018.poker.game.round.\lCBetRound">
<polygon fill="none" stroke="black" points="1057,-259.5 1057,-287.5 1350,-287.5 1350,-259.5 1057,-259.5"/>
<text text-anchor="start" x="1065" y="-276.3" font-family="Helvetica,sans-Serif" font-size="9.00">de.tu_clausthal.in.bachelorproject2018.poker.game.round.</text>
<text text-anchor="middle" x="1203.5" y="-266.3" font-family="Helvetica,sans-Serif" font-size="9.00">CBetRound</text>
</a>
</g>
</g>
<!-- Node59&#45;&gt;Node60 -->
<g id="edge3" class="edge"><title>Node59&#45;&gt;Node60</title>
<path fill="none" stroke="midnightblue" d="M905.567,-175.171C940.504,-197.072 1000.59,-231.837 1057,-250.5 1067.56,-253.994 1078.74,-256.965 1090.01,-259.489"/>
<polygon fill="midnightblue" stroke="midnightblue" points="907.144,-172.027 896.824,-169.628 903.396,-177.939 907.144,-172.027"/>
</g>
<!-- Node61 -->
<g id="node5" class="node"><title>Node61</title>
<g id="a_node5"><a xlink:href="d0/da9/classde_1_1tu__clausthal_1_1in_1_1bachelorproject2018_1_1poker_1_1game_1_1round_1_1CFlop.htm" target="_top" xlink:title="Flop Ausführung. ">
<polygon fill="none" stroke="black" points="1057,-212.5 1057,-240.5 1350,-240.5 1350,-212.5 1057,-212.5"/>
<text text-anchor="start" x="1065" y="-229.3" font-family="Helvetica,sans-Serif" font-size="9.00">de.tu_clausthal.in.bachelorproject2018.poker.game.round.</text>
<text text-anchor="middle" x="1203.5" y="-219.3" font-family="Helvetica,sans-Serif" font-size="9.00">CFlop</text>
</a>
</g>
</g>
<!-- Node59&#45;&gt;Node61 -->
<g id="edge4" class="edge"><title>Node59&#45;&gt;Node61</title>
<path fill="none" stroke="midnightblue" d="M933.04,-172.322C968.553,-182.302 1015.17,-194.686 1057,-203.5 1072.39,-206.743 1088.78,-209.755 1104.81,-212.46"/>
<polygon fill="midnightblue" stroke="midnightblue" points="933.906,-168.929 923.331,-169.575 932.001,-175.665 933.906,-168.929"/>
</g>
<!-- Node62 -->
<g id="node6" class="node"><title>Node62</title>
<g id="a_node6"><a xlink:href="d3/d48/classde_1_1tu__clausthal_1_1in_1_1bachelorproject2018_1_1poker_1_1game_1_1round_1_1CPreFlop.htm" target="_top" xlink:title="de.tu_clausthal.in.bachelorproject2018.poker.game.round.\lCPreFlop">
<polygon fill="none" stroke="black" points="1057,-165.5 1057,-193.5 1350,-193.5 1350,-165.5 1057,-165.5"/>
<text text-anchor="start" x="1065" y="-182.3" font-family="Helvetica,sans-Serif" font-size="9.00">de.tu_clausthal.in.bachelorproject2018.poker.game.round.</text>
<text text-anchor="middle" x="1203.5" y="-172.3" font-family="Helvetica,sans-Serif" font-size="9.00">CPreFlop</text>
</a>
</g>
</g>
<!-- Node59&#45;&gt;Node62 -->
<g id="edge5" class="edge"><title>Node59&#45;&gt;Node62</title>
<path fill="none" stroke="midnightblue" d="M1031.32,-166.936C1039.86,-167.563 1048.43,-168.192 1056.94,-168.817"/>
<polygon fill="midnightblue" stroke="midnightblue" points="1031.54,-163.443 1021.31,-166.201 1031.02,-170.424 1031.54,-163.443"/>
</g>
<!-- Node63 -->
<g id="node7" class="node"><title>Node63</title>
<g id="a_node7"><a xlink:href="d9/d71/classde_1_1tu__clausthal_1_1in_1_1bachelorproject2018_1_1poker_1_1game_1_1round_1_1CRiver.htm" target="_top" xlink:title="River&#45;Ausführung. ">
<polygon fill="none" stroke="black" points="1057,-118.5 1057,-146.5 1350,-146.5 1350,-118.5 1057,-118.5"/>
<text text-anchor="start" x="1065" y="-135.3" font-family="Helvetica,sans-Serif" font-size="9.00">de.tu_clausthal.in.bachelorproject2018.poker.game.round.</text>
<text text-anchor="middle" x="1203.5" y="-125.3" font-family="Helvetica,sans-Serif" font-size="9.00">CRiver</text>
</a>
</g>
</g>
<!-- Node59&#45;&gt;Node63 -->
<g id="edge6" class="edge"><title>Node59&#45;&gt;Node63</title>
<path fill="none" stroke="midnightblue" d="M1031.32,-144.54C1039.86,-143.939 1048.43,-143.336 1056.94,-142.738"/>
<polygon fill="midnightblue" stroke="midnightblue" points="1031.04,-141.051 1021.31,-145.244 1031.53,-148.034 1031.04,-141.051"/>
</g>
<!-- Node64 -->
<g id="node8" class="node"><title>Node64</title>
<g id="a_node8"><a xlink:href="d8/d6c/classde_1_1tu__clausthal_1_1in_1_1bachelorproject2018_1_1poker_1_1game_1_1round_1_1CTurn.htm" target="_top" xlink:title="Turn ausführung. ">
<polygon fill="none" stroke="black" points="1057,-71.5 1057,-99.5 1350,-99.5 1350,-71.5 1057,-71.5"/>
<text text-anchor="start" x="1065" y="-88.3" font-family="Helvetica,sans-Serif" font-size="9.00">de.tu_clausthal.in.bachelorproject2018.poker.game.round.</text>
<text text-anchor="middle" x="1203.5" y="-78.3" font-family="Helvetica,sans-Serif" font-size="9.00">CTurn</text>
</a>
</g>
</g>
<!-- Node59&#45;&gt;Node64 -->
<g id="edge7" class="edge"><title>Node59&#45;&gt;Node64</title>
<path fill="none" stroke="midnightblue" d="M934.182,-138.768C969.56,-129.065 1015.64,-117.104 1057,-108.5 1072.52,-105.271 1089.06,-102.257 1105.21,-99.5432"/>
<polygon fill="midnightblue" stroke="midnightblue" points="933.208,-135.406 924.5,-141.44 935.071,-142.153 933.208,-135.406"/>
</g>
<!-- Node65 -->
<g id="node9" class="node"><title>Node65</title>
<g id="a_node9"><a xlink:href="dd/ded/classde_1_1tu__clausthal_1_1in_1_1bachelorproject2018_1_1poker_1_1game_1_1round_1_1CWinEvaluation.htm" target="_top" xlink:title="de.tu_clausthal.in.bachelorproject2018.poker.game.round.\lCWinEvaluation">
<polygon fill="none" stroke="black" points="1057,-24.5 1057,-52.5 1350,-52.5 1350,-24.5 1057,-24.5"/>
<text text-anchor="start" x="1065" y="-41.3" font-family="Helvetica,sans-Serif" font-size="9.00">de.tu_clausthal.in.bachelorproject2018.poker.game.round.</text>
<text text-anchor="middle" x="1203.5" y="-31.3" font-family="Helvetica,sans-Serif" font-size="9.00">CWinEvaluation</text>
</a>
</g>
</g>
<!-- Node59&#45;&gt;Node65 -->
<g id="edge8" class="edge"><title>Node59&#45;&gt;Node65</title>
<path fill="none" stroke="midnightblue" d="M905.888,-135.869C940.894,-114.199 1000.83,-79.9479 1057,-61.5 1067.57,-58.0288 1078.75,-55.0732 1090.02,-52.5581"/>
<polygon fill="midnightblue" stroke="midnightblue" points="903.74,-133.084 897.12,-141.357 907.454,-139.018 903.74,-133.084"/>
</g>
<!-- Node57 -->
<g id="node10" class="node"><title>Node57</title>
<polygon fill="none" stroke="#bfbfbf" points="136,-104.5 136,-122.5 192,-122.5 192,-104.5 136,-104.5"/>
<text text-anchor="middle" x="164" y="-111.3" font-family="Helvetica,sans-Serif" font-size="9.00">Function</text>
</g>
<!-- Node57&#45;&gt;Node58 -->
<g id="edge9" class="edge"><title>Node57&#45;&gt;Node58</title>
<path fill="none" stroke="midnightblue" d="M202.377,-117.837C250.102,-123.374 335.008,-133.225 406.017,-141.463"/>
<polygon fill="midnightblue" stroke="midnightblue" points="202.546,-114.333 192.209,-116.657 201.739,-121.286 202.546,-114.333"/>
</g>
<!-- Node12 -->
<g id="node11" class="node"><title>Node12</title>
<g id="a_node11"><a xlink:href="da/dcc/enumde_1_1tu__clausthal_1_1in_1_1bachelorproject2018_1_1poker_1_1game_1_1table_1_1ETables.htm" target="_top" xlink:title="Singleton um alle Tische zu verwalten. ">
<polygon fill="none" stroke="black" points="383,-235.5 383,-263.5 673,-263.5 673,-235.5 383,-235.5"/>
<text text-anchor="start" x="391" y="-252.3" font-family="Helvetica,sans-Serif" font-size="9.00">de.tu_clausthal.in.bachelorproject2018.poker.game.table.</text>
<text text-anchor="middle" x="528" y="-242.3" font-family="Helvetica,sans-Serif" font-size="9.00">ETables</text>
</a>
</g>
</g>
<!-- Node57&#45;&gt;Node12 -->
<g id="edge10" class="edge"><title>Node57&#45;&gt;Node12</title>
<path fill="none" stroke="midnightblue" d="M202.194,-108.815C238.15,-106.377 292.289,-108.483 328,-136.5 361.895,-163.092 330.105,-199.908 364,-226.5 369.846,-231.086 376.186,-234.979 382.859,-238.27"/>
<polygon fill="midnightblue" stroke="midnightblue" points="201.79,-105.337 192.112,-109.65 202.367,-112.313 201.79,-105.337"/>
</g>
<!-- Node66 -->
<g id="node12" class="node"><title>Node66</title>
<g id="a_node12"><a xlink:href="d6/db7/enumde_1_1tu__clausthal_1_1in_1_1bachelorproject2018_1_1poker_1_1game_1_1wincheck_1_1EWinCheck.htm" target="_top" xlink:title="de.tu_clausthal.in.bachelorproject2018.poker.game.wincheck.\lEWinCheck">
<polygon fill="none" stroke="black" points="374,-94.5 374,-122.5 682,-122.5 682,-94.5 374,-94.5"/>
<text text-anchor="start" x="382" y="-111.3" font-family="Helvetica,sans-Serif" font-size="9.00">de.tu_clausthal.in.bachelorproject2018.poker.game.wincheck.</text>
<text text-anchor="middle" x="528" y="-101.3" font-family="Helvetica,sans-Serif" font-size="9.00">EWinCheck</text>
</a>
</g>
</g>
<!-- Node57&#45;&gt;Node66 -->
<g id="edge11" class="edge"><title>Node57&#45;&gt;Node66</title>
<path fill="none" stroke="midnightblue" d="M202.45,-112.983C243.144,-112.421 310.81,-111.486 373.857,-110.615"/>
<polygon fill="midnightblue" stroke="midnightblue" points="202.16,-109.486 192.209,-113.124 202.256,-116.486 202.16,-109.486"/>
</g>
<!-- Node16 -->
<g id="node13" class="node"><title>Node16</title>
<g id="a_node13"><a xlink:href="d6/d13/enumde_1_1tu__clausthal_1_1in_1_1bachelorproject2018_1_1poker_1_1network_1_1gamestate_1_1EGamestateManagement.htm" target="_top" xlink:title="de.tu_clausthal.in.bachelorproject2018.poker.network.gamestate.\lEGamestateManagement">
<polygon fill="none" stroke="black" points="364,-47.5 364,-75.5 692,-75.5 692,-47.5 364,-47.5"/>
<text text-anchor="start" x="372" y="-64.3" font-family="Helvetica,sans-Serif" font-size="9.00">de.tu_clausthal.in.bachelorproject2018.poker.network.gamestate.</text>
<text text-anchor="middle" x="528" y="-54.3" font-family="Helvetica,sans-Serif" font-size="9.00">EGamestateManagement</text>
</a>
</g>
</g>
<!-- Node57&#45;&gt;Node16 -->
<g id="edge12" class="edge"><title>Node57&#45;&gt;Node16</title>
<path fill="none" stroke="midnightblue" d="M202.111,-108.041C242.075,-102.173 307.53,-92.5987 364,-84.5 384.368,-81.5788 406.173,-78.4815 426.995,-75.5382"/>
<polygon fill="midnightblue" stroke="midnightblue" points="201.417,-104.605 192.032,-109.521 202.434,-111.531 201.417,-104.605"/>
</g>
<!-- Node1 -->
<g id="node14" class="node"><title>Node1</title>
<g id="a_node14"><a xlink:href="d7/df1/enumde_1_1tu__clausthal_1_1in_1_1bachelorproject2018_1_1poker_1_1network_1_1tokens_1_1ETokens.htm" target="_top" xlink:title="Singleton um alle momentan aktiven Token zu verwalten Liefert als Supplier alle gespeicherten UUIDs D...">
<polygon fill="none" stroke="black" points="373.5,-188.5 373.5,-216.5 682.5,-216.5 682.5,-188.5 373.5,-188.5"/>
<text text-anchor="start" x="381.5" y="-205.3" font-family="Helvetica,sans-Serif" font-size="9.00">de.tu_clausthal.in.bachelorproject2018.poker.network.tokens.</text>
<text text-anchor="middle" x="528" y="-195.3" font-family="Helvetica,sans-Serif" font-size="9.00">ETokens</text>
</a>
</g>
</g>
<!-- Node57&#45;&gt;Node1 -->
<g id="edge13" class="edge"><title>Node57&#45;&gt;Node1</title>
<path fill="none" stroke="midnightblue" d="M202.426,-111.377C237.106,-111.054 289.056,-114.871 328,-136.5 349.789,-148.602 342.211,-167.398 364,-179.5 370.121,-182.9 376.564,-185.859 383.21,-188.432"/>
<polygon fill="midnightblue" stroke="midnightblue" points="202.174,-107.881 192.252,-111.595 202.324,-114.88 202.174,-107.881"/>
</g>
<!-- Node14 -->
<g id="node15" class="node"><title>Node14</title>
<g id="a_node15"><a xlink:href="d6/d67/enumde_1_1tu__clausthal_1_1in_1_1bachelorproject2018_1_1poker_1_1network_1_1websocket_1_1ESessionManagement.htm" target="_top" xlink:title="Singleton to manage all websocket sessions. ">
<polygon fill="none" stroke="black" points="364.5,-0.5 364.5,-28.5 691.5,-28.5 691.5,-0.5 364.5,-0.5"/>
<text text-anchor="start" x="372.5" y="-17.3" font-family="Helvetica,sans-Serif" font-size="9.00">de.tu_clausthal.in.bachelorproject2018.poker.network.websocket.</text>
<text text-anchor="middle" x="528" y="-7.3" font-family="Helvetica,sans-Serif" font-size="9.00">ESessionManagement</text>
</a>
</g>
</g>
<!-- Node57&#45;&gt;Node14 -->
<g id="edge14" class="edge"><title>Node57&#45;&gt;Node14</title>
<path fill="none" stroke="midnightblue" d="M202.43,-114.357C237.326,-113.501 289.614,-107.856 328,-84.5 350.478,-70.8228 341.28,-50.7716 364,-37.5 369.799,-34.1125 375.907,-31.1532 382.218,-28.5718"/>
<polygon fill="midnightblue" stroke="midnightblue" points="202.149,-110.86 192.192,-114.483 202.235,-117.859 202.149,-110.86"/>
</g>
<!-- Node51 -->
<g id="node16" class="node"><title>Node51</title>
<polygon fill="none" stroke="#bfbfbf" points="136.5,-237.5 136.5,-255.5 191.5,-255.5 191.5,-237.5 136.5,-237.5"/>
<text text-anchor="middle" x="164" y="-244.3" font-family="Helvetica,sans-Serif" font-size="9.00">Supplier</text>
</g>
<!-- Node51&#45;&gt;Node12 -->
<g id="edge15" class="edge"><title>Node51&#45;&gt;Node12</title>
<path fill="none" stroke="midnightblue" d="M201.765,-246.805C244.317,-247.157 317.003,-247.76 382.882,-248.306"/>
<polygon fill="midnightblue" stroke="midnightblue" points="201.647,-243.304 191.619,-246.721 201.589,-250.303 201.647,-243.304"/>
</g>
<!-- Node51&#45;&gt;Node1 -->
<g id="edge18" class="edge"><title>Node51&#45;&gt;Node1</title>
<path fill="none" stroke="midnightblue" d="M201.716,-242.037C250.612,-236.094 339.357,-225.307 411.814,-216.501"/>
<polygon fill="midnightblue" stroke="midnightblue" points="201.123,-238.583 191.619,-243.265 201.968,-245.532 201.123,-238.583"/>
</g>
<!-- Node52 -->
<g id="node17" class="node"><title>Node52</title>
<g id="a_node17"><a xlink:href="db/d6f/interfacede_1_1tu__clausthal_1_1in_1_1bachelorproject2018_1_1poker_1_1network_1_1IMessage.htm" target="_top" xlink:title="Interface für ein Nachrichtenobjekt das von außen über den Websocket kommt. ">
<polygon fill="none" stroke="black" points="391,-282.5 391,-310.5 665,-310.5 665,-282.5 391,-282.5"/>
<text text-anchor="start" x="399" y="-299.3" font-family="Helvetica,sans-Serif" font-size="9.00">de.tu_clausthal.in.bachelorproject2018.poker.network.</text>
<text text-anchor="middle" x="528" y="-289.3" font-family="Helvetica,sans-Serif" font-size="9.00">IMessage</text>
</a>
</g>
</g>
<!-- Node51&#45;&gt;Node52 -->
<g id="edge16" class="edge"><title>Node51&#45;&gt;Node52</title>
<path fill="none" stroke="midnightblue" d="M201.795,-249.701C234.932,-252.843 284.907,-258.22 328,-265.5 344.161,-268.23 347.873,-270.575 364,-273.5 381.716,-276.713 400.584,-279.738 418.964,-282.472"/>
<polygon fill="midnightblue" stroke="midnightblue" points="201.938,-246.2 191.658,-248.761 201.291,-253.17 201.938,-246.2"/>
</g>
<!-- Node53 -->
<g id="node18" class="node"><title>Node53</title>
<g id="a_node18"><a xlink:href="d2/dfc/classde_1_1tu__clausthal_1_1in_1_1bachelorproject2018_1_1poker_1_1controller_1_1CGameActionController_1_1CMessage.htm" target="_top" xlink:title="de.tu_clausthal.in.bachelorproject2018.poker.controller.\lCGameActionController.CMessage">
<polygon fill="none" stroke="black" points="734,-282.5 734,-310.5 1015,-310.5 1015,-282.5 734,-282.5"/>
<text text-anchor="start" x="742" y="-299.3" font-family="Helvetica,sans-Serif" font-size="9.00">de.tu_clausthal.in.bachelorproject2018.poker.controller.</text>
<text text-anchor="middle" x="874.5" y="-289.3" font-family="Helvetica,sans-Serif" font-size="9.00">CGameActionController.CMessage</text>
</a>
</g>
</g>
<!-- Node52&#45;&gt;Node53 -->
<g id="edge17" class="edge"><title>Node52&#45;&gt;Node53</title>
<path fill="none" stroke="midnightblue" d="M675.258,-296.5C694.664,-296.5 714.522,-296.5 733.813,-296.5"/>
<polygon fill="midnightblue" stroke="midnightblue" points="675.156,-293 665.156,-296.5 675.155,-300 675.156,-293"/>
</g>
<!-- Node15 -->
<g id="node19" class="node"><title>Node15</title>
<g id="a_node19"><a xlink:href="d4/dbc/interfacede_1_1tu__clausthal_1_1in_1_1bachelorproject2018_1_1poker_1_1network_1_1gamestate_1_1IGamestates.htm" target="_top" xlink:title="de.tu_clausthal.in.bachelorproject2018.poker.network.gamestate.\lIGamestates">
<polygon fill="none" stroke="black" points="0,-47.5 0,-75.5 328,-75.5 328,-47.5 0,-47.5"/>
<text text-anchor="start" x="8" y="-64.3" font-family="Helvetica,sans-Serif" font-size="9.00">de.tu_clausthal.in.bachelorproject2018.poker.network.gamestate.</text>
<text text-anchor="middle" x="164" y="-54.3" font-family="Helvetica,sans-Serif" font-size="9.00">IGamestates</text>
</a>
</g>
</g>
<!-- Node15&#45;&gt;Node16 -->
<g id="edge19" class="edge"><title>Node15&#45;&gt;Node16</title>
<path fill="none" stroke="midnightblue" d="M338.526,-61.5C346.955,-61.5 355.405,-61.5 363.803,-61.5"/>
<polygon fill="midnightblue" stroke="midnightblue" points="338.261,-58.0001 328.261,-61.5 338.261,-65.0001 338.261,-58.0001"/>
</g>
<!-- Node13 -->
<g id="node20" class="node"><title>Node13</title>
<g id="a_node20"><a xlink:href="d9/dbf/interfacede_1_1tu__clausthal_1_1in_1_1bachelorproject2018_1_1poker_1_1network_1_1websocket_1_1ISessions.htm" target="_top" xlink:title="Interface to manage all websocket sessions. ">
<polygon fill="none" stroke="black" points="0.5,-0.5 0.5,-28.5 327.5,-28.5 327.5,-0.5 0.5,-0.5"/>
<text text-anchor="start" x="8.5" y="-17.3" font-family="Helvetica,sans-Serif" font-size="9.00">de.tu_clausthal.in.bachelorproject2018.poker.network.websocket.</text>
<text text-anchor="middle" x="164" y="-7.3" font-family="Helvetica,sans-Serif" font-size="9.00">ISessions</text>
</a>
</g>
</g>
<!-- Node13&#45;&gt;Node14 -->
<g id="edge20" class="edge"><title>Node13&#45;&gt;Node14</title>
<path fill="none" stroke="midnightblue" d="M337.768,-14.5C346.67,-14.5 355.598,-14.5 364.467,-14.5"/>
<polygon fill="midnightblue" stroke="midnightblue" points="337.733,-11.0001 327.733,-14.5 337.733,-18.0001 337.733,-11.0001"/>
</g>
<!-- Node11 -->
<g id="node21" class="node"><title>Node11</title>
<g id="a_node21"><a xlink:href="d9/d9f/interfacede_1_1tu__clausthal_1_1in_1_1bachelorproject2018_1_1poker_1_1game_1_1table_1_1ITables.htm" target="_top" xlink:title="Interface um die Tische zu verwalten. ">
<polygon fill="none" stroke="black" points="19,-274.5 19,-302.5 309,-302.5 309,-274.5 19,-274.5"/>
<text text-anchor="start" x="27" y="-291.3" font-family="Helvetica,sans-Serif" font-size="9.00">de.tu_clausthal.in.bachelorproject2018.poker.game.table.</text>
<text text-anchor="middle" x="164" y="-281.3" font-family="Helvetica,sans-Serif" font-size="9.00">ITables</text>
</a>
</g>
</g>
<!-- Node11&#45;&gt;Node12 -->
<g id="edge21" class="edge"><title>Node11&#45;&gt;Node12</title>
<path fill="none" stroke="midnightblue" d="M305.317,-273.383C335.404,-270.142 367.073,-266.73 396.76,-263.531"/>
<polygon fill="midnightblue" stroke="midnightblue" points="304.746,-269.924 295.179,-274.475 305.496,-276.884 304.746,-269.924"/>
</g>
<!-- Node0 -->
<g id="node22" class="node"><title>Node0</title>
<g id="a_node22"><a xlink:href="de/d7f/interfacede_1_1tu__clausthal_1_1in_1_1bachelorproject2018_1_1poker_1_1network_1_1tokens_1_1ITokens.htm" target="_top" xlink:title="Interface um die tokens zu verwalten. ">
<polygon fill="none" stroke="black" points="9.5,-188.5 9.5,-216.5 318.5,-216.5 318.5,-188.5 9.5,-188.5"/>
<text text-anchor="start" x="17.5" y="-205.3" font-family="Helvetica,sans-Serif" font-size="9.00">de.tu_clausthal.in.bachelorproject2018.poker.network.tokens.</text>
<text text-anchor="middle" x="164" y="-195.3" font-family="Helvetica,sans-Serif" font-size="9.00">ITokens</text>
</a>
</g>
</g>
<!-- Node0&#45;&gt;Node1 -->
<g id="edge22" class="edge"><title>Node0&#45;&gt;Node1</title>
<path fill="none" stroke="midnightblue" d="M328.744,-202.5C343.555,-202.5 358.521,-202.5 373.242,-202.5"/>
<polygon fill="midnightblue" stroke="midnightblue" points="328.521,-199 318.521,-202.5 328.521,-206 328.521,-199"/>
</g>
</g>
</svg>
