<?xml version="1.0" encoding="UTF-8" standalone="no"?>
<!DOCTYPE svg PUBLIC "-//W3C//DTD SVG 1.1//EN"
 "http://www.w3.org/Graphics/SVG/1.1/DTD/svg11.dtd">
<!-- Generated by graphviz version 2.38.0 (20140413.2041)
 -->
<!-- Title: Grafische Darstellung der Klassenhierarchie Pages: 1 -->
<svg width="411pt" height="74pt"
 viewBox="0.00 0.00 411.00 74.00" xmlns="http://www.w3.org/2000/svg" xmlns:xlink="http://www.w3.org/1999/xlink">
<g id="graph0" class="graph" transform="scale(1 1) rotate(0) translate(4 70)">
<title>Grafische Darstellung der Klassenhierarchie</title>
<!-- Node54 -->
<g id="node1" class="node"><title>Node54</title>
<polygon fill="none" stroke="#bfbfbf" points="0,-26.5 0,-44.5 52,-44.5 52,-26.5 0,-26.5"/>
<text text-anchor="middle" x="26" y="-33.3" font-family="Helvetica,sans-Serif" font-size="9.00">Iterator</text>
</g>
<!-- Node0 -->
<g id="node2" class="node"><title>Node0</title>
<g id="a_node2"><a xlink:href="d5/d01/classde_1_1tu__clausthal_1_1in_1_1bachelorproject2018_1_1poker_1_1game_1_1cards_1_1Deck.htm" target="_top" xlink:title="de.tu_clausthal.in.bachelorproject2018.poker.game.cards.Deck">
<polygon fill="none" stroke="black" points="88,-47.5 88,-65.5 403,-65.5 403,-47.5 88,-47.5"/>
<text text-anchor="middle" x="245.5" y="-54.3" font-family="Helvetica,sans-Serif" font-size="9.00">de.tu_clausthal.in.bachelorproject2018.poker.game.cards.Deck</text>
</a>
</g>
</g>
<!-- Node54&#45;&gt;Node0 -->
<g id="edge1" class="edge"><title>Node54&#45;&gt;Node0</title>
<path fill="none" stroke="midnightblue" d="M62.4377,-38.9216C86.5076,-41.2456 119.544,-44.4353 150.874,-47.4602"/>
<polygon fill="midnightblue" stroke="midnightblue" points="62.6658,-35.4274 52.3757,-37.9501 61.993,-42.395 62.6658,-35.4274"/>
</g>
<!-- Node56 -->
<g id="node3" class="node"><title>Node56</title>
<g id="a_node3"><a xlink:href="d3/dc7/enumde_1_1tu__clausthal_1_1in_1_1bachelorproject2018_1_1poker_1_1game_1_1round_1_1ERound.htm" target="_top" xlink:title="Enum, um die einzelnen Aktionen für die Runden zu definieren. ">
<polygon fill="none" stroke="black" points="99,-0.5 99,-28.5 392,-28.5 392,-0.5 99,-0.5"/>
<text text-anchor="start" x="107" y="-17.3" font-family="Helvetica,sans-Serif" font-size="9.00">de.tu_clausthal.in.bachelorproject2018.poker.game.round.</text>
<text text-anchor="middle" x="245.5" y="-7.3" font-family="Helvetica,sans-Serif" font-size="9.00">ERound</text>
</a>
</g>
</g>
<!-- Node54&#45;&gt;Node56 -->
<g id="edge2" class="edge"><title>Node54&#45;&gt;Node56</title>
<path fill="none" stroke="midnightblue" d="M62.5437,-32.0682C73.3472,-31.0251 85.95,-29.8083 99.3901,-28.5106"/>
<polygon fill="midnightblue" stroke="midnightblue" points="61.993,-28.605 52.3757,-33.0499 62.6658,-35.5726 61.993,-28.605"/>
</g>
</g>
</svg>
