<?xml version="1.0" encoding="UTF-8" standalone="no"?>
<!DOCTYPE svg PUBLIC "-//W3C//DTD SVG 1.1//EN"
 "http://www.w3.org/Graphics/SVG/1.1/DTD/svg11.dtd">
<!-- Generated by graphviz version 2.38.0 (20140413.2041)
 -->
<!-- Title: de.tu_clausthal.in.bachelorproject2018.poker.game.wincheck.CStraight Pages: 1 -->
<svg width="316pt" height="285pt"
 viewBox="0.00 0.00 316.00 285.00" xmlns="http://www.w3.org/2000/svg" xmlns:xlink="http://www.w3.org/1999/xlink">
<g id="graph0" class="graph" transform="scale(1 1) rotate(0) translate(4 281)">
<title>de.tu_clausthal.in.bachelorproject2018.poker.game.wincheck.CStraight</title>
<!-- Node0 -->
<g id="node1" class="node"><title>Node0</title>
<polygon fill="#bfbfbf" stroke="black" points="0,-0.5 0,-74.5 308,-74.5 308,-0.5 0,-0.5"/>
<text text-anchor="start" x="8" y="-63.3" font-family="Helvetica,sans-Serif" font-size="9.00">de.tu_clausthal.in.bachelorproject2018.poker.game.wincheck.</text>
<text text-anchor="middle" x="154" y="-53.3" font-family="Helvetica,sans-Serif" font-size="9.00">CStraight</text>
<polyline fill="none" stroke="black" points="0,-46.5 308,-46.5 "/>
<text text-anchor="middle" x="154" y="-35.3" font-family="Helvetica,sans-Serif" font-size="9.00"> </text>
<polyline fill="none" stroke="black" points="0,-28.5 308,-28.5 "/>
<text text-anchor="start" x="8" y="-17.3" font-family="Helvetica,sans-Serif" font-size="9.00">+ apply()</text>
<text text-anchor="start" x="8" y="-7.3" font-family="Helvetica,sans-Serif" font-size="9.00"># CStraight()</text>
</g>
<!-- Node1 -->
<g id="node2" class="node"><title>Node1</title>
<g id="a_node2"><a xlink:href="../../d6/d63/classde_1_1tu__clausthal_1_1in_1_1bachelorproject2018_1_1poker_1_1game_1_1wincheck_1_1IBaseWinCheckAction.htm" target="_top" xlink:title="{de.tu_clausthal.in.bachelorproject2018.poker.game.wincheck.\lIBaseWinCheckAction\n|# m_table\l|# IBaseWinCheckAction()\l}">
<polygon fill="none" stroke="black" points="0,-111.5 0,-175.5 308,-175.5 308,-111.5 0,-111.5"/>
<text text-anchor="start" x="8" y="-164.3" font-family="Helvetica,sans-Serif" font-size="9.00">de.tu_clausthal.in.bachelorproject2018.poker.game.wincheck.</text>
<text text-anchor="middle" x="154" y="-154.3" font-family="Helvetica,sans-Serif" font-size="9.00">IBaseWinCheckAction</text>
<polyline fill="none" stroke="black" points="0,-147.5 308,-147.5 "/>
<text text-anchor="start" x="8" y="-136.3" font-family="Helvetica,sans-Serif" font-size="9.00"># m_table</text>
<polyline fill="none" stroke="black" points="0,-129.5 308,-129.5 "/>
<text text-anchor="start" x="8" y="-118.3" font-family="Helvetica,sans-Serif" font-size="9.00"># IBaseWinCheckAction()</text>
</a>
</g>
</g>
<!-- Node1&#45;&gt;Node0 -->
<g id="edge1" class="edge"><title>Node1&#45;&gt;Node0</title>
<path fill="none" stroke="midnightblue" d="M154,-101.282C154,-92.5308 154,-83.3534 154,-74.8011"/>
<polygon fill="none" stroke="midnightblue" points="150.5,-101.297 154,-111.297 157.5,-101.297 150.5,-101.297"/>
</g>
<!-- Node2 -->
<g id="node3" class="node"><title>Node2</title>
<g id="a_node3"><a xlink:href="../../d4/dae/interfacede_1_1tu__clausthal_1_1in_1_1bachelorproject2018_1_1poker_1_1game_1_1wincheck_1_1IWinCheckAction.htm" target="_top" xlink:title="Interface, um die einzelnen Teile der WinEvaluation zu definieren Die Aktion ist ein Supplier...">
<polygon fill="none" stroke="black" points="0,-212.5 0,-276.5 308,-276.5 308,-212.5 0,-212.5"/>
<text text-anchor="start" x="8" y="-265.3" font-family="Helvetica,sans-Serif" font-size="9.00">de.tu_clausthal.in.bachelorproject2018.poker.game.wincheck.</text>
<text text-anchor="middle" x="154" y="-255.3" font-family="Helvetica,sans-Serif" font-size="9.00">IWinCheckAction</text>
<polyline fill="none" stroke="black" points="0,-248.5 308,-248.5 "/>
<text text-anchor="middle" x="154" y="-237.3" font-family="Helvetica,sans-Serif" font-size="9.00"> </text>
<polyline fill="none" stroke="black" points="0,-230.5 308,-230.5 "/>
<text text-anchor="start" x="8" y="-219.3" font-family="Helvetica,sans-Serif" font-size="9.00">+ apply()</text>
</a>
</g>
</g>
<!-- Node2&#45;&gt;Node1 -->
<g id="edge2" class="edge"><title>Node2&#45;&gt;Node1</title>
<path fill="none" stroke="midnightblue" d="M154,-202.282C154,-193.42 154,-184.194 154,-175.783"/>
<polygon fill="none" stroke="midnightblue" points="150.5,-202.447 154,-212.447 157.5,-202.447 150.5,-202.447"/>
</g>
</g>
</svg>
