<?xml version="1.0" encoding="UTF-8" standalone="no"?>
<!DOCTYPE svg PUBLIC "-//W3C//DTD SVG 1.1//EN"
 "http://www.w3.org/Graphics/SVG/1.1/DTD/svg11.dtd">
<!-- Generated by graphviz version 2.38.0 (20140413.2041)
 -->
<!-- Title: de.tu_clausthal.in.bachelorproject2018.poker.game.hubs.ChipsHandling.forceBlinds Pages: 1 -->
<svg width="1274pt" height="272pt"
 viewBox="0.00 0.00 1274.00 272.00" xmlns="http://www.w3.org/2000/svg" xmlns:xlink="http://www.w3.org/1999/xlink">
<g id="graph0" class="graph" transform="scale(1 1) rotate(0) translate(4 268)">
<title>de.tu_clausthal.in.bachelorproject2018.poker.game.hubs.ChipsHandling.forceBlinds</title>
<!-- Node15 -->
<g id="node1" class="node"><title>Node15</title>
<polygon fill="#bfbfbf" stroke="black" points="0,-117.5 0,-145.5 289,-145.5 289,-117.5 0,-117.5"/>
<text text-anchor="start" x="8" y="-134.3" font-family="Helvetica,sans-Serif" font-size="9.00">de.tu_clausthal.in.bachelorproject2018.poker.game.hubs.</text>
<text text-anchor="middle" x="144.5" y="-124.3" font-family="Helvetica,sans-Serif" font-size="9.00">ChipsHandling.forceBlinds</text>
</g>
<!-- Node16 -->
<g id="node2" class="node"><title>Node16</title>
<g id="a_node2"><a xlink:href="../../dd/dfe/classde_1_1tu__clausthal_1_1in_1_1bachelorproject2018_1_1poker_1_1game_1_1hubs_1_1ChipsHandling.htm#a866931dcef259ac4ea7eb51a8845ac59" target="_top" xlink:title="Get the BigBlind for displaying information. ">
<polygon fill="none" stroke="black" points="325.5,-235.5 325.5,-263.5 614.5,-263.5 614.5,-235.5 325.5,-235.5"/>
<text text-anchor="start" x="333.5" y="-252.3" font-family="Helvetica,sans-Serif" font-size="9.00">de.tu_clausthal.in.bachelorproject2018.poker.game.hubs.</text>
<text text-anchor="middle" x="470" y="-242.3" font-family="Helvetica,sans-Serif" font-size="9.00">ChipsHandling.getBigBlindAmount</text>
</a>
</g>
</g>
<!-- Node15&#45;&gt;Node16 -->
<g id="edge1" class="edge"><title>Node15&#45;&gt;Node16</title>
<path fill="none" stroke="midnightblue" d="M166.568,-145.625C199.09,-166.723 264.139,-206.157 325,-226.5 332.344,-228.955 339.989,-231.151 347.757,-233.116"/>
<polygon fill="midnightblue" stroke="midnightblue" points="347.111,-236.56 357.651,-235.483 348.74,-229.752 347.111,-236.56"/>
</g>
<!-- Node17 -->
<g id="node3" class="node"><title>Node17</title>
<g id="a_node3"><a xlink:href="../../da/d48/classde_1_1tu__clausthal_1_1in_1_1bachelorproject2018_1_1poker_1_1game_1_1hubs_1_1GameHub.htm#a2f65b057de245146843c2f5c3bbe30f1" target="_top" xlink:title="getter for the playerlist ">
<polygon fill="none" stroke="black" points="325.5,-188.5 325.5,-216.5 614.5,-216.5 614.5,-188.5 325.5,-188.5"/>
<text text-anchor="start" x="333.5" y="-205.3" font-family="Helvetica,sans-Serif" font-size="9.00">de.tu_clausthal.in.bachelorproject2018.poker.game.hubs.</text>
<text text-anchor="middle" x="470" y="-195.3" font-family="Helvetica,sans-Serif" font-size="9.00">GameHub.getPlayerList</text>
</a>
</g>
</g>
<!-- Node15&#45;&gt;Node17 -->
<g id="edge2" class="edge"><title>Node15&#45;&gt;Node17</title>
<path fill="none" stroke="midnightblue" d="M192.797,-145.576C228.806,-155.943 279.725,-169.858 325,-179.5 337.016,-182.059 349.651,-184.475 362.238,-186.709"/>
<polygon fill="midnightblue" stroke="midnightblue" points="361.858,-190.195 372.31,-188.461 363.058,-183.299 361.858,-190.195"/>
</g>
<!-- Node20 -->
<g id="node6" class="node"><title>Node20</title>
<g id="a_node6"><a xlink:href="../../dd/dfe/classde_1_1tu__clausthal_1_1in_1_1bachelorproject2018_1_1poker_1_1game_1_1hubs_1_1ChipsHandling.htm#a699a7031357ff2ad7469e7bbf786d1b4" target="_top" xlink:title="de.tu_clausthal.in.bachelorproject2018.poker.game.hubs.\lChipsHandling.getPot">
<polygon fill="none" stroke="black" points="325.5,-141.5 325.5,-169.5 614.5,-169.5 614.5,-141.5 325.5,-141.5"/>
<text text-anchor="start" x="333.5" y="-158.3" font-family="Helvetica,sans-Serif" font-size="9.00">de.tu_clausthal.in.bachelorproject2018.poker.game.hubs.</text>
<text text-anchor="middle" x="470" y="-148.3" font-family="Helvetica,sans-Serif" font-size="9.00">ChipsHandling.getPot</text>
</a>
</g>
</g>
<!-- Node15&#45;&gt;Node20 -->
<g id="edge5" class="edge"><title>Node15&#45;&gt;Node20</title>
<path fill="none" stroke="midnightblue" d="M289.276,-142.167C297.887,-142.805 306.567,-143.449 315.217,-144.091"/>
<polygon fill="midnightblue" stroke="midnightblue" points="315.12,-147.593 325.351,-144.843 315.638,-140.613 315.12,-147.593"/>
</g>
<!-- Node21 -->
<g id="node7" class="node"><title>Node21</title>
<g id="a_node7"><a xlink:href="../../dd/dfe/classde_1_1tu__clausthal_1_1in_1_1bachelorproject2018_1_1poker_1_1game_1_1hubs_1_1ChipsHandling.htm#a3b61506fa65d02f89517a4e0b265803f" target="_top" xlink:title="Get the SmallBlind for displaying information. ">
<polygon fill="none" stroke="black" points="325.5,-94.5 325.5,-122.5 614.5,-122.5 614.5,-94.5 325.5,-94.5"/>
<text text-anchor="start" x="333.5" y="-111.3" font-family="Helvetica,sans-Serif" font-size="9.00">de.tu_clausthal.in.bachelorproject2018.poker.game.hubs.</text>
<text text-anchor="middle" x="470" y="-101.3" font-family="Helvetica,sans-Serif" font-size="9.00">ChipsHandling.getSmallBlindAmount</text>
</a>
</g>
</g>
<!-- Node15&#45;&gt;Node21 -->
<g id="edge6" class="edge"><title>Node15&#45;&gt;Node21</title>
<path fill="none" stroke="midnightblue" d="M289.276,-121.278C297.887,-120.666 306.567,-120.049 315.217,-119.434"/>
<polygon fill="midnightblue" stroke="midnightblue" points="315.625,-122.914 325.351,-118.713 315.128,-115.931 315.625,-122.914"/>
</g>
<!-- Node22 -->
<g id="node8" class="node"><title>Node22</title>
<g id="a_node8"><a xlink:href="../../da/d48/classde_1_1tu__clausthal_1_1in_1_1bachelorproject2018_1_1poker_1_1game_1_1hubs_1_1GameHub.htm#a1ebfbc4fd42b3e8f542807ef13e6fcd9" target="_top" xlink:title="getter for table ">
<polygon fill="none" stroke="black" points="325.5,-47.5 325.5,-75.5 614.5,-75.5 614.5,-47.5 325.5,-47.5"/>
<text text-anchor="start" x="333.5" y="-64.3" font-family="Helvetica,sans-Serif" font-size="9.00">de.tu_clausthal.in.bachelorproject2018.poker.game.hubs.</text>
<text text-anchor="middle" x="470" y="-54.3" font-family="Helvetica,sans-Serif" font-size="9.00">GameHub.getTable</text>
</a>
</g>
</g>
<!-- Node15&#45;&gt;Node22 -->
<g id="edge7" class="edge"><title>Node15&#45;&gt;Node22</title>
<path fill="none" stroke="midnightblue" d="M195.522,-117.454C231.38,-107.686 280.933,-94.8009 325,-85.5 338.701,-82.6082 353.196,-79.8467 367.503,-77.2941"/>
<polygon fill="midnightblue" stroke="midnightblue" points="368.122,-80.7389 377.366,-75.5611 366.911,-73.8445 368.122,-80.7389"/>
</g>
<!-- Node23 -->
<g id="node9" class="node"><title>Node23</title>
<g id="a_node9"><a xlink:href="../../d5/d36/interfacede_1_1tu__clausthal_1_1in_1_1bachelorproject2018_1_1poker_1_1game_1_1table_1_1ITable.htm#a442079183a6b0e75a07ee8549947f929" target="_top" xlink:title="Name des Tisches. ">
<polygon fill="none" stroke="black" points="325,-0.5 325,-28.5 615,-28.5 615,-0.5 325,-0.5"/>
<text text-anchor="start" x="333" y="-17.3" font-family="Helvetica,sans-Serif" font-size="9.00">de.tu_clausthal.in.bachelorproject2018.poker.game.table.</text>
<text text-anchor="middle" x="470" y="-7.3" font-family="Helvetica,sans-Serif" font-size="9.00">ITable.name</text>
</a>
</g>
</g>
<!-- Node15&#45;&gt;Node23 -->
<g id="edge8" class="edge"><title>Node15&#45;&gt;Node23</title>
<path fill="none" stroke="midnightblue" d="M167.174,-117.401C199.955,-96.7551 264.73,-58.579 325,-38.5 333.564,-35.6468 342.533,-33.1229 351.628,-30.892"/>
<polygon fill="midnightblue" stroke="midnightblue" points="352.588,-34.2622 361.533,-28.5845 350.999,-27.4447 352.588,-34.2622"/>
</g>
<!-- Node18 -->
<g id="node4" class="node"><title>Node18</title>
<g id="a_node4"><a xlink:href="../../da/d48/classde_1_1tu__clausthal_1_1in_1_1bachelorproject2018_1_1poker_1_1game_1_1hubs_1_1GameHub.htm#a779929edeff8f64a359c53d09be3ca06" target="_top" xlink:title="zieht sich die aktuelle playerList vom Table ">
<polygon fill="none" stroke="black" points="651,-188.5 651,-216.5 940,-216.5 940,-188.5 651,-188.5"/>
<text text-anchor="start" x="659" y="-205.3" font-family="Helvetica,sans-Serif" font-size="9.00">de.tu_clausthal.in.bachelorproject2018.poker.game.hubs.</text>
<text text-anchor="middle" x="795.5" y="-195.3" font-family="Helvetica,sans-Serif" font-size="9.00">GameHub.updatePlayerlist</text>
</a>
</g>
</g>
<!-- Node17&#45;&gt;Node18 -->
<g id="edge3" class="edge"><title>Node17&#45;&gt;Node18</title>
<path fill="none" stroke="midnightblue" d="M614.776,-202.5C623.387,-202.5 632.067,-202.5 640.717,-202.5"/>
<polygon fill="midnightblue" stroke="midnightblue" points="640.851,-206 650.851,-202.5 640.851,-199 640.851,-206"/>
</g>
<!-- Node19 -->
<g id="node5" class="node"><title>Node19</title>
<g id="a_node5"><a xlink:href="../../d5/d36/interfacede_1_1tu__clausthal_1_1in_1_1bachelorproject2018_1_1poker_1_1game_1_1table_1_1ITable.htm#a6e42c7daa9c258015750347f2a5542fe" target="_top" xlink:title="liefert alle Spieler des Tisches ">
<polygon fill="none" stroke="black" points="976,-188.5 976,-216.5 1266,-216.5 1266,-188.5 976,-188.5"/>
<text text-anchor="start" x="984" y="-205.3" font-family="Helvetica,sans-Serif" font-size="9.00">de.tu_clausthal.in.bachelorproject2018.poker.game.table.</text>
<text text-anchor="middle" x="1121" y="-195.3" font-family="Helvetica,sans-Serif" font-size="9.00">ITable.list</text>
</a>
</g>
</g>
<!-- Node18&#45;&gt;Node19 -->
<g id="edge4" class="edge"><title>Node18&#45;&gt;Node19</title>
<path fill="none" stroke="midnightblue" d="M940.276,-202.5C948.674,-202.5 957.137,-202.5 965.574,-202.5"/>
<polygon fill="midnightblue" stroke="midnightblue" points="965.845,-206 975.845,-202.5 965.845,-199 965.845,-206"/>
</g>
</g>
</svg>
