<?xml version="1.0" encoding="UTF-8" standalone="no"?>
<!DOCTYPE svg PUBLIC "-//W3C//DTD SVG 1.1//EN"
 "http://www.w3.org/Graphics/SVG/1.1/DTD/svg11.dtd">
<!-- Generated by graphviz version 2.38.0 (20140413.2041)
 -->
<!-- Title: de.tu_clausthal.in.bachelorproject2018.poker.game.hubs.ChipsHandling.resetRound Pages: 1 -->
<svg width="626pt" height="131pt"
 viewBox="0.00 0.00 626.00 131.00" xmlns="http://www.w3.org/2000/svg" xmlns:xlink="http://www.w3.org/1999/xlink">
<g id="graph0" class="graph" transform="scale(1 1) rotate(0) translate(4 127)">
<title>de.tu_clausthal.in.bachelorproject2018.poker.game.hubs.ChipsHandling.resetRound</title>
<!-- Node82 -->
<g id="node1" class="node"><title>Node82</title>
<polygon fill="#bfbfbf" stroke="black" points="0,-47.5 0,-75.5 289,-75.5 289,-47.5 0,-47.5"/>
<text text-anchor="start" x="8" y="-64.3" font-family="Helvetica,sans-Serif" font-size="9.00">de.tu_clausthal.in.bachelorproject2018.poker.game.hubs.</text>
<text text-anchor="middle" x="144.5" y="-54.3" font-family="Helvetica,sans-Serif" font-size="9.00">ChipsHandling.resetRound</text>
</g>
<!-- Node83 -->
<g id="node2" class="node"><title>Node83</title>
<g id="a_node2"><a xlink:href="../../d8/d6c/classde_1_1tu__clausthal_1_1in_1_1bachelorproject2018_1_1poker_1_1game_1_1round_1_1CTurn.htm#aa997ce946e5b26eb305e47ce7ae1dd81" target="_top" xlink:title="Legt eine Karte vom Deck auf den Tisch. ">
<polygon fill="none" stroke="black" points="325,-94.5 325,-122.5 618,-122.5 618,-94.5 325,-94.5"/>
<text text-anchor="start" x="333" y="-111.3" font-family="Helvetica,sans-Serif" font-size="9.00">de.tu_clausthal.in.bachelorproject2018.poker.game.round.</text>
<text text-anchor="middle" x="471.5" y="-101.3" font-family="Helvetica,sans-Serif" font-size="9.00">CTurn.apply</text>
</a>
</g>
</g>
<!-- Node82&#45;&gt;Node83 -->
<g id="edge1" class="edge"><title>Node82&#45;&gt;Node83</title>
<path fill="none" stroke="midnightblue" d="M252.896,-77.0311C291.869,-82.6673 335.639,-88.9971 373.649,-94.4939"/>
<polygon fill="midnightblue" stroke="midnightblue" points="252.969,-73.5053 242.57,-75.5379 251.967,-80.4332 252.969,-73.5053"/>
</g>
<!-- Node84 -->
<g id="node3" class="node"><title>Node84</title>
<g id="a_node3"><a xlink:href="../../d9/d71/classde_1_1tu__clausthal_1_1in_1_1bachelorproject2018_1_1poker_1_1game_1_1round_1_1CRiver.htm#a639b79e14972b10284e0dfd816f8a5d1" target="_top" xlink:title="Legt eine Karte vom Deck auf den Tisch. ">
<polygon fill="none" stroke="black" points="325,-47.5 325,-75.5 618,-75.5 618,-47.5 325,-47.5"/>
<text text-anchor="start" x="333" y="-64.3" font-family="Helvetica,sans-Serif" font-size="9.00">de.tu_clausthal.in.bachelorproject2018.poker.game.round.</text>
<text text-anchor="middle" x="471.5" y="-54.3" font-family="Helvetica,sans-Serif" font-size="9.00">CRiver.apply</text>
</a>
</g>
</g>
<!-- Node82&#45;&gt;Node84 -->
<g id="edge2" class="edge"><title>Node82&#45;&gt;Node84</title>
<path fill="none" stroke="midnightblue" d="M299.655,-61.5C308.023,-61.5 316.42,-61.5 324.758,-61.5"/>
<polygon fill="midnightblue" stroke="midnightblue" points="299.469,-58.0001 289.469,-61.5 299.469,-65.0001 299.469,-58.0001"/>
</g>
<!-- Node85 -->
<g id="node4" class="node"><title>Node85</title>
<g id="a_node4"><a xlink:href="../../d0/da9/classde_1_1tu__clausthal_1_1in_1_1bachelorproject2018_1_1poker_1_1game_1_1round_1_1CFlop.htm#a09a8d1a76054acdf7d4fe631f850076e" target="_top" xlink:title="legt 3 Karten vom Deck auf den Tisch ">
<polygon fill="none" stroke="black" points="325,-0.5 325,-28.5 618,-28.5 618,-0.5 325,-0.5"/>
<text text-anchor="start" x="333" y="-17.3" font-family="Helvetica,sans-Serif" font-size="9.00">de.tu_clausthal.in.bachelorproject2018.poker.game.round.</text>
<text text-anchor="middle" x="471.5" y="-7.3" font-family="Helvetica,sans-Serif" font-size="9.00">CFlop.apply</text>
</a>
</g>
</g>
<!-- Node82&#45;&gt;Node85 -->
<g id="edge3" class="edge"><title>Node82&#45;&gt;Node85</title>
<path fill="none" stroke="midnightblue" d="M252.896,-45.9689C291.869,-40.3327 335.639,-34.0029 373.649,-28.5061"/>
<polygon fill="midnightblue" stroke="midnightblue" points="251.967,-42.5668 242.57,-47.4621 252.969,-49.4947 251.967,-42.5668"/>
</g>
</g>
</svg>
