<?xml version="1.0" encoding="UTF-8" standalone="no"?>
<!DOCTYPE svg PUBLIC "-//W3C//DTD SVG 1.1//EN"
 "http://www.w3.org/Graphics/SVG/1.1/DTD/svg11.dtd">
<!-- Generated by graphviz version 2.38.0 (20140413.2041)
 -->
<!-- Title: de.tu_clausthal.in.bachelorproject2018.poker.game.hubs.ChipsHandling.getNewRound Pages: 1 -->
<svg width="628pt" height="131pt"
 viewBox="0.00 0.00 628.00 131.00" xmlns="http://www.w3.org/2000/svg" xmlns:xlink="http://www.w3.org/1999/xlink">
<g id="graph0" class="graph" transform="scale(1 1) rotate(0) translate(4 127)">
<title>de.tu_clausthal.in.bachelorproject2018.poker.game.hubs.ChipsHandling.getNewRound</title>
<!-- Node37 -->
<g id="node1" class="node"><title>Node37</title>
<polygon fill="#bfbfbf" stroke="black" points="0,-47.5 0,-75.5 289,-75.5 289,-47.5 0,-47.5"/>
<text text-anchor="start" x="8" y="-64.3" font-family="Helvetica,sans-Serif" font-size="9.00">de.tu_clausthal.in.bachelorproject2018.poker.game.hubs.</text>
<text text-anchor="middle" x="144.5" y="-54.3" font-family="Helvetica,sans-Serif" font-size="9.00">ChipsHandling.getNewRound</text>
</g>
<!-- Node38 -->
<g id="node2" class="node"><title>Node38</title>
<g id="a_node2"><a xlink:href="../../dd/d69/classde_1_1tu__clausthal_1_1in_1_1bachelorproject2018_1_1poker_1_1game_1_1action_1_1CCheck.htm#ab5688283d91d32d52dffb8882a5104b9" target="_top" xlink:title="überprüft ob der Spieler checken kann setzt, dass der Spieler gecheckt hat. ">
<polygon fill="none" stroke="black" points="325,-94.5 325,-122.5 620,-122.5 620,-94.5 325,-94.5"/>
<text text-anchor="start" x="333" y="-111.3" font-family="Helvetica,sans-Serif" font-size="9.00">de.tu_clausthal.in.bachelorproject2018.poker.game.action.</text>
<text text-anchor="middle" x="472.5" y="-101.3" font-family="Helvetica,sans-Serif" font-size="9.00">CCheck.accept</text>
</a>
</g>
</g>
<!-- Node37&#45;&gt;Node38 -->
<g id="edge1" class="edge"><title>Node37&#45;&gt;Node38</title>
<path fill="none" stroke="midnightblue" d="M253.227,-77.0311C292.32,-82.6673 336.225,-88.9971 374.351,-94.4939"/>
<polygon fill="midnightblue" stroke="midnightblue" points="253.266,-73.5007 242.869,-75.5379 252.267,-80.4291 253.266,-73.5007"/>
</g>
<!-- Node39 -->
<g id="node3" class="node"><title>Node39</title>
<g id="a_node3"><a xlink:href="../../d8/d84/classde_1_1tu__clausthal_1_1in_1_1bachelorproject2018_1_1poker_1_1game_1_1round_1_1CBetRound.htm#a15f799e13defeab9ebedbb01cf77ebd4" target="_top" xlink:title="Accept wird nach der Aktion des Spielers ausgeführt Falls nötig werden hier neue BetRound&#45;Objekte erz...">
<polygon fill="none" stroke="black" points="326,-47.5 326,-75.5 619,-75.5 619,-47.5 326,-47.5"/>
<text text-anchor="start" x="334" y="-64.3" font-family="Helvetica,sans-Serif" font-size="9.00">de.tu_clausthal.in.bachelorproject2018.poker.game.round.</text>
<text text-anchor="middle" x="472.5" y="-54.3" font-family="Helvetica,sans-Serif" font-size="9.00">CBetRound.accept</text>
</a>
</g>
</g>
<!-- Node37&#45;&gt;Node39 -->
<g id="edge2" class="edge"><title>Node37&#45;&gt;Node39</title>
<path fill="none" stroke="midnightblue" d="M299.683,-61.5C308.429,-61.5 317.21,-61.5 325.923,-61.5"/>
<polygon fill="midnightblue" stroke="midnightblue" points="299.437,-58.0001 289.437,-61.5 299.437,-65.0001 299.437,-58.0001"/>
</g>
<!-- Node40 -->
<g id="node4" class="node"><title>Node40</title>
<g id="a_node4"><a xlink:href="../../d8/d84/classde_1_1tu__clausthal_1_1in_1_1bachelorproject2018_1_1poker_1_1game_1_1round_1_1CBetRound.htm#a2f9ecbf9150794faa9af2760afbd96bd" target="_top" xlink:title="wird vor der Aktion des Spielers ausgeführt entscheidet, ob der Spieler überhaupt eine Aktion ausführ...">
<polygon fill="none" stroke="black" points="326,-0.5 326,-28.5 619,-28.5 619,-0.5 326,-0.5"/>
<text text-anchor="start" x="334" y="-17.3" font-family="Helvetica,sans-Serif" font-size="9.00">de.tu_clausthal.in.bachelorproject2018.poker.game.round.</text>
<text text-anchor="middle" x="472.5" y="-7.3" font-family="Helvetica,sans-Serif" font-size="9.00">CBetRound.apply</text>
</a>
</g>
</g>
<!-- Node37&#45;&gt;Node40 -->
<g id="edge3" class="edge"><title>Node37&#45;&gt;Node40</title>
<path fill="none" stroke="midnightblue" d="M253.227,-45.9689C292.32,-40.3327 336.225,-34.0029 374.351,-28.5061"/>
<polygon fill="midnightblue" stroke="midnightblue" points="252.267,-42.5709 242.869,-47.4621 253.266,-49.4993 252.267,-42.5709"/>
</g>
</g>
</svg>
