<?xml version="1.0" encoding="UTF-8" standalone="no"?>
<!DOCTYPE svg PUBLIC "-//W3C//DTD SVG 1.1//EN"
 "http://www.w3.org/Graphics/SVG/1.1/DTD/svg11.dtd">
<!-- Generated by graphviz version 2.38.0 (20140413.2041)
 -->
<!-- Title: de.tu_clausthal.in.bachelorproject2018.poker.game.hubs.ChipsHandling.addToPot Pages: 1 -->
<svg width="628pt" height="131pt"
 viewBox="0.00 0.00 628.00 131.00" xmlns="http://www.w3.org/2000/svg" xmlns:xlink="http://www.w3.org/1999/xlink">
<g id="graph0" class="graph" transform="scale(1 1) rotate(0) translate(4 127)">
<title>de.tu_clausthal.in.bachelorproject2018.poker.game.hubs.ChipsHandling.addToPot</title>
<!-- Node3 -->
<g id="node1" class="node"><title>Node3</title>
<polygon fill="#bfbfbf" stroke="black" points="0,-47.5 0,-75.5 289,-75.5 289,-47.5 0,-47.5"/>
<text text-anchor="start" x="8" y="-64.3" font-family="Helvetica,sans-Serif" font-size="9.00">de.tu_clausthal.in.bachelorproject2018.poker.game.hubs.</text>
<text text-anchor="middle" x="144.5" y="-54.3" font-family="Helvetica,sans-Serif" font-size="9.00">ChipsHandling.addToPot</text>
</g>
<!-- Node4 -->
<g id="node2" class="node"><title>Node4</title>
<g id="a_node2"><a xlink:href="../../d9/d7a/classde_1_1tu__clausthal_1_1in_1_1bachelorproject2018_1_1poker_1_1game_1_1action_1_1CAllIn.htm#a0ad1e3f093aabaf0593ea4378521ff06" target="_top" xlink:title="setzt den Spieler AllIn setzt die Chips in den Pot checkt außerdem ">
<polygon fill="none" stroke="black" points="325,-94.5 325,-122.5 620,-122.5 620,-94.5 325,-94.5"/>
<text text-anchor="start" x="333" y="-111.3" font-family="Helvetica,sans-Serif" font-size="9.00">de.tu_clausthal.in.bachelorproject2018.poker.game.action.</text>
<text text-anchor="middle" x="472.5" y="-101.3" font-family="Helvetica,sans-Serif" font-size="9.00">CAllIn.accept</text>
</a>
</g>
</g>
<!-- Node3&#45;&gt;Node4 -->
<g id="edge1" class="edge"><title>Node3&#45;&gt;Node4</title>
<path fill="none" stroke="midnightblue" d="M253.227,-77.0311C292.32,-82.6673 336.225,-88.9971 374.351,-94.4939"/>
<polygon fill="midnightblue" stroke="midnightblue" points="253.266,-73.5007 242.869,-75.5379 252.267,-80.4291 253.266,-73.5007"/>
</g>
<!-- Node5 -->
<g id="node3" class="node"><title>Node5</title>
<g id="a_node3"><a xlink:href="../../de/dec/classde_1_1tu__clausthal_1_1in_1_1bachelorproject2018_1_1poker_1_1game_1_1action_1_1CCall.htm#a5df0967671f6af0e68de9201882b3c1a" target="_top" xlink:title="Überprüft ob der Spieler callen kann Berechnet den Wert, der fürs Callen benötigt wird Setzt den Wert...">
<polygon fill="none" stroke="black" points="325,-47.5 325,-75.5 620,-75.5 620,-47.5 325,-47.5"/>
<text text-anchor="start" x="333" y="-64.3" font-family="Helvetica,sans-Serif" font-size="9.00">de.tu_clausthal.in.bachelorproject2018.poker.game.action.</text>
<text text-anchor="middle" x="472.5" y="-54.3" font-family="Helvetica,sans-Serif" font-size="9.00">CCall.accept</text>
</a>
</g>
</g>
<!-- Node3&#45;&gt;Node5 -->
<g id="edge2" class="edge"><title>Node3&#45;&gt;Node5</title>
<path fill="none" stroke="midnightblue" d="M299.671,-61.5C308.079,-61.5 316.518,-61.5 324.898,-61.5"/>
<polygon fill="midnightblue" stroke="midnightblue" points="299.437,-58.0001 289.437,-61.5 299.437,-65.0001 299.437,-58.0001"/>
</g>
<!-- Node6 -->
<g id="node4" class="node"><title>Node6</title>
<g id="a_node4"><a xlink:href="../../de/d5d/classde_1_1tu__clausthal_1_1in_1_1bachelorproject2018_1_1poker_1_1game_1_1action_1_1CRaise.htm#aee81ff5815191d70a1e63a5fe7c5c7d1" target="_top" xlink:title="Überprüft ob der Spieler raisen kann Führt den Raise durch. ">
<polygon fill="none" stroke="black" points="325,-0.5 325,-28.5 620,-28.5 620,-0.5 325,-0.5"/>
<text text-anchor="start" x="333" y="-17.3" font-family="Helvetica,sans-Serif" font-size="9.00">de.tu_clausthal.in.bachelorproject2018.poker.game.action.</text>
<text text-anchor="middle" x="472.5" y="-7.3" font-family="Helvetica,sans-Serif" font-size="9.00">CRaise.accept</text>
</a>
</g>
</g>
<!-- Node3&#45;&gt;Node6 -->
<g id="edge3" class="edge"><title>Node3&#45;&gt;Node6</title>
<path fill="none" stroke="midnightblue" d="M253.227,-45.9689C292.32,-40.3327 336.225,-34.0029 374.351,-28.5061"/>
<polygon fill="midnightblue" stroke="midnightblue" points="252.267,-42.5709 242.869,-47.4621 253.266,-49.4993 252.267,-42.5709"/>
</g>
</g>
</svg>
