<?xml version="1.0" encoding="UTF-8" standalone="no"?>
<!DOCTYPE svg PUBLIC "-//W3C//DTD SVG 1.1//EN"
 "http://www.w3.org/Graphics/SVG/1.1/DTD/svg11.dtd">
<!-- Generated by graphviz version 2.38.0 (20140413.2041)
 -->
<!-- Title: de.tu_clausthal.in.bachelorproject2018.poker.game.hubs.ChipsHandling.getRoundStarter Pages: 1 -->
<svg width="1604pt" height="106pt"
 viewBox="0.00 0.00 1604.00 106.00" xmlns="http://www.w3.org/2000/svg" xmlns:xlink="http://www.w3.org/1999/xlink">
<g id="graph0" class="graph" transform="scale(1 1) rotate(0) translate(4 102)">
<title>de.tu_clausthal.in.bachelorproject2018.poker.game.hubs.ChipsHandling.getRoundStarter</title>
<!-- Node52 -->
<g id="node1" class="node"><title>Node52</title>
<polygon fill="#bfbfbf" stroke="black" points="0,-22.5 0,-50.5 289,-50.5 289,-22.5 0,-22.5"/>
<text text-anchor="start" x="8" y="-39.3" font-family="Helvetica,sans-Serif" font-size="9.00">de.tu_clausthal.in.bachelorproject2018.poker.game.hubs.</text>
<text text-anchor="middle" x="144.5" y="-29.3" font-family="Helvetica,sans-Serif" font-size="9.00">ChipsHandling.getRoundStarter</text>
</g>
<!-- Node53 -->
<g id="node2" class="node"><title>Node53</title>
<g id="a_node2"><a xlink:href="../../d3/dc7/enumde_1_1tu__clausthal_1_1in_1_1bachelorproject2018_1_1poker_1_1game_1_1round_1_1ERound.htm#aaf9a5e22dad6f81c01b993edf3bc5bce" target="_top" xlink:title="factory round objects ">
<polygon fill="none" stroke="black" points="325,-22.5 325,-50.5 618,-50.5 618,-22.5 325,-22.5"/>
<text text-anchor="start" x="333" y="-39.3" font-family="Helvetica,sans-Serif" font-size="9.00">de.tu_clausthal.in.bachelorproject2018.poker.game.round.</text>
<text text-anchor="middle" x="471.5" y="-29.3" font-family="Helvetica,sans-Serif" font-size="9.00">ERound.factory</text>
</a>
</g>
</g>
<!-- Node52&#45;&gt;Node53 -->
<g id="edge1" class="edge"><title>Node52&#45;&gt;Node53</title>
<path fill="none" stroke="midnightblue" d="M299.655,-36.5C308.023,-36.5 316.42,-36.5 324.758,-36.5"/>
<polygon fill="midnightblue" stroke="midnightblue" points="299.469,-33.0001 289.469,-36.5 299.469,-40.0001 299.469,-33.0001"/>
</g>
<!-- Node54 -->
<g id="node3" class="node"><title>Node54</title>
<g id="a_node3"><a xlink:href="../../d2/dd9/classde_1_1tu__clausthal_1_1in_1_1bachelorproject2018_1_1poker_1_1game_1_1table_1_1CTable.htm#ad0183995fab983da1c6c6609c0b32b5e" target="_top" xlink:title="Methode um eine neue Runde zu bauen. ">
<polygon fill="none" stroke="black" points="654,-22.5 654,-50.5 944,-50.5 944,-22.5 654,-22.5"/>
<text text-anchor="start" x="662" y="-39.3" font-family="Helvetica,sans-Serif" font-size="9.00">de.tu_clausthal.in.bachelorproject2018.poker.game.table.</text>
<text text-anchor="middle" x="799" y="-29.3" font-family="Helvetica,sans-Serif" font-size="9.00">CTable.generateround</text>
</a>
</g>
</g>
<!-- Node53&#45;&gt;Node54 -->
<g id="edge2" class="edge"><title>Node53&#45;&gt;Node54</title>
<path fill="none" stroke="midnightblue" d="M628.134,-36.5C636.686,-36.5 645.263,-36.5 653.772,-36.5"/>
<polygon fill="midnightblue" stroke="midnightblue" points="628.113,-33.0001 618.113,-36.5 628.113,-40.0001 628.113,-33.0001"/>
</g>
<!-- Node55 -->
<g id="node4" class="node"><title>Node55</title>
<g id="a_node4"><a xlink:href="../../d2/dd9/classde_1_1tu__clausthal_1_1in_1_1bachelorproject2018_1_1poker_1_1game_1_1table_1_1CTable.htm#a44356981334e62a09768618f0743d1b5" target="_top" xlink:title="startet das Spiel ">
<polygon fill="none" stroke="black" points="980,-69.5 980,-97.5 1270,-97.5 1270,-69.5 980,-69.5"/>
<text text-anchor="start" x="988" y="-86.3" font-family="Helvetica,sans-Serif" font-size="9.00">de.tu_clausthal.in.bachelorproject2018.poker.game.table.</text>
<text text-anchor="middle" x="1125" y="-76.3" font-family="Helvetica,sans-Serif" font-size="9.00">CTable.start</text>
</a>
</g>
</g>
<!-- Node54&#45;&gt;Node55 -->
<g id="edge3" class="edge"><title>Node54&#45;&gt;Node55</title>
<path fill="none" stroke="midnightblue" d="M907.066,-52.0311C945.919,-57.6673 989.554,-63.9971 1027.45,-69.4939"/>
<polygon fill="midnightblue" stroke="midnightblue" points="907.171,-48.5098 896.772,-50.5379 906.166,-55.4373 907.171,-48.5098"/>
</g>
<!-- Node56 -->
<g id="node5" class="node"><title>Node56</title>
<g id="a_node5"><a xlink:href="../../d2/dd9/classde_1_1tu__clausthal_1_1in_1_1bachelorproject2018_1_1poker_1_1game_1_1table_1_1CTable.htm#ac4262ba4e9012a8d37c195f2bedeb6f5" target="_top" xlink:title="Methode, die nach jeder Ausführung einer Round&#45;Action durchlaufen wird, um das Spiel ggf fortzusetzen...">
<polygon fill="none" stroke="black" points="980,-22.5 980,-50.5 1270,-50.5 1270,-22.5 980,-22.5"/>
<text text-anchor="start" x="988" y="-39.3" font-family="Helvetica,sans-Serif" font-size="9.00">de.tu_clausthal.in.bachelorproject2018.poker.game.table.</text>
<text text-anchor="middle" x="1125" y="-29.3" font-family="Helvetica,sans-Serif" font-size="9.00">CTable.postaction</text>
</a>
</g>
</g>
<!-- Node54&#45;&gt;Node56 -->
<g id="edge4" class="edge"><title>Node54&#45;&gt;Node56</title>
<path fill="none" stroke="midnightblue" d="M954.666,-36.5C963.04,-36.5 971.44,-36.5 979.777,-36.5"/>
<polygon fill="midnightblue" stroke="midnightblue" points="954.47,-33.0001 944.47,-36.5 954.47,-40.0001 954.47,-33.0001"/>
</g>
<!-- Node57 -->
<g id="node6" class="node"><title>Node57</title>
<g id="a_node6"><a xlink:href="../../d2/dd9/classde_1_1tu__clausthal_1_1in_1_1bachelorproject2018_1_1poker_1_1game_1_1table_1_1CTable.htm#a763745ff3fa160c02f05117b84b092d4" target="_top" xlink:title="führe ein Element aus der ">
<polygon fill="none" stroke="black" points="1306,-47.5 1306,-75.5 1596,-75.5 1596,-47.5 1306,-47.5"/>
<text text-anchor="start" x="1314" y="-64.3" font-family="Helvetica,sans-Serif" font-size="9.00">de.tu_clausthal.in.bachelorproject2018.poker.game.table.</text>
<text text-anchor="middle" x="1451" y="-54.3" font-family="Helvetica,sans-Serif" font-size="9.00">CTable.accept</text>
</a>
</g>
</g>
<!-- Node56&#45;&gt;Node57 -->
<g id="edge5" class="edge"><title>Node56&#45;&gt;Node57</title>
<path fill="none" stroke="midnightblue" d="M1280.67,-48.4341C1289.04,-49.0802 1297.44,-49.7284 1305.78,-50.3717"/>
<polygon fill="midnightblue" stroke="midnightblue" points="1280.71,-44.9272 1270.47,-47.6474 1280.17,-51.9064 1280.71,-44.9272"/>
</g>
<!-- Node58 -->
<g id="node7" class="node"><title>Node58</title>
<g id="a_node7"><a xlink:href="../../d2/dd9/classde_1_1tu__clausthal_1_1in_1_1bachelorproject2018_1_1poker_1_1game_1_1table_1_1CTable.htm#ac36fc046548fc6b47ee44cecbfd158db" target="_top" xlink:title="führt immer einen Schritt des Spiels aus ">
<polygon fill="none" stroke="black" points="1306,-0.5 1306,-28.5 1596,-28.5 1596,-0.5 1306,-0.5"/>
<text text-anchor="start" x="1314" y="-17.3" font-family="Helvetica,sans-Serif" font-size="9.00">de.tu_clausthal.in.bachelorproject2018.poker.game.table.</text>
<text text-anchor="middle" x="1451" y="-7.3" font-family="Helvetica,sans-Serif" font-size="9.00">CTable.executestep</text>
</a>
</g>
</g>
<!-- Node56&#45;&gt;Node58 -->
<g id="edge6" class="edge"><title>Node56&#45;&gt;Node58</title>
<path fill="none" stroke="midnightblue" d="M1247.67,-21.6777C1266.69,-20.2041 1286.5,-18.8082 1305.96,-17.5673"/>
<polygon fill="midnightblue" stroke="midnightblue" points="1247.2,-18.2043 1237.5,-22.4792 1247.75,-25.1827 1247.2,-18.2043"/>
</g>
<!-- Node58&#45;&gt;Node54 -->
<g id="edge7" class="edge"><title>Node58&#45;&gt;Node54</title>
<path fill="none" stroke="midnightblue" d="M1295.64,-8.37309C1203.84,-6.09252 1085.16,-5.52028 980,-12.5 949.801,-14.5044 916.939,-18.3805 887.657,-22.4427"/>
<polygon fill="midnightblue" stroke="midnightblue" points="1295.76,-11.8773 1305.85,-8.63646 1295.94,-4.8796 1295.76,-11.8773"/>
</g>
<!-- Node58&#45;&gt;Node56 -->
<g id="edge8" class="edge"><title>Node58&#45;&gt;Node56</title>
<path fill="none" stroke="midnightblue" d="M1328.3,-29.3247C1309.43,-30.7864 1289.78,-32.1718 1270.47,-33.4051"/>
<polygon fill="midnightblue" stroke="midnightblue" points="1328.69,-32.8044 1338.39,-28.5297 1328.14,-25.826 1328.69,-32.8044"/>
</g>
</g>
</svg>
