<?xml version="1.0" encoding="UTF-8" standalone="no"?>
<!DOCTYPE svg PUBLIC "-//W3C//DTD SVG 1.1//EN"
 "http://www.w3.org/Graphics/SVG/1.1/DTD/svg11.dtd">
<!-- Generated by graphviz version 2.38.0 (20140413.2041)
 -->
<!-- Title: de.tu_clausthal.in.bachelorproject2018.poker.game.hubs.ChipsHandling.resetHand Pages: 1 -->
<svg width="1598pt" height="58pt"
 viewBox="0.00 0.00 1598.00 58.00" xmlns="http://www.w3.org/2000/svg" xmlns:xlink="http://www.w3.org/1999/xlink">
<g id="graph0" class="graph" transform="scale(1 1) rotate(0) translate(4 54)">
<title>de.tu_clausthal.in.bachelorproject2018.poker.game.hubs.ChipsHandling.resetHand</title>
<!-- Node71 -->
<g id="node1" class="node"><title>Node71</title>
<polygon fill="#bfbfbf" stroke="black" points="0,-21.5 0,-49.5 289,-49.5 289,-21.5 0,-21.5"/>
<text text-anchor="start" x="8" y="-38.3" font-family="Helvetica,sans-Serif" font-size="9.00">de.tu_clausthal.in.bachelorproject2018.poker.game.hubs.</text>
<text text-anchor="middle" x="144.5" y="-28.3" font-family="Helvetica,sans-Serif" font-size="9.00">ChipsHandling.resetHand</text>
</g>
<!-- Node72 -->
<g id="node2" class="node"><title>Node72</title>
<g id="a_node2"><a xlink:href="../../da/d48/classde_1_1tu__clausthal_1_1in_1_1bachelorproject2018_1_1poker_1_1game_1_1hubs_1_1GameHub.htm#a2f65b057de245146843c2f5c3bbe30f1" target="_top" xlink:title="getter for the playerlist ">
<polygon fill="none" stroke="black" points="650,-21.5 650,-49.5 939,-49.5 939,-21.5 650,-21.5"/>
<text text-anchor="start" x="658" y="-38.3" font-family="Helvetica,sans-Serif" font-size="9.00">de.tu_clausthal.in.bachelorproject2018.poker.game.hubs.</text>
<text text-anchor="middle" x="794.5" y="-28.3" font-family="Helvetica,sans-Serif" font-size="9.00">GameHub.getPlayerList</text>
</a>
</g>
</g>
<!-- Node71&#45;&gt;Node72 -->
<g id="edge1" class="edge"><title>Node71&#45;&gt;Node72</title>
<path fill="none" stroke="midnightblue" d="M289.031,-38.1123C301.198,-38.2689 313.313,-38.4023 325,-38.5 453.44,-39.5732 485.56,-39.5732 614,-38.5 622.4,-38.4298 631.022,-38.3411 639.724,-38.2387"/>
<polygon fill="midnightblue" stroke="midnightblue" points="640.013,-41.7355 649.969,-38.1123 639.927,-34.736 640.013,-41.7355"/>
</g>
<!-- Node75 -->
<g id="node5" class="node"><title>Node75</title>
<g id="a_node5"><a xlink:href="../../dd/dfe/classde_1_1tu__clausthal_1_1in_1_1bachelorproject2018_1_1poker_1_1game_1_1hubs_1_1ChipsHandling.htm#afbb80dc416439585aa915d36bd398ecb" target="_top" xlink:title="go clockwise through the playerlist, to check who has to pay blinds if any index is at the last index...">
<polygon fill="none" stroke="black" points="325,-0.5 325,-28.5 614,-28.5 614,-0.5 325,-0.5"/>
<text text-anchor="start" x="333" y="-17.3" font-family="Helvetica,sans-Serif" font-size="9.00">de.tu_clausthal.in.bachelorproject2018.poker.game.hubs.</text>
<text text-anchor="middle" x="469.5" y="-7.3" font-family="Helvetica,sans-Serif" font-size="9.00">ChipsHandling.nextBlind</text>
</a>
</g>
</g>
<!-- Node71&#45;&gt;Node75 -->
<g id="edge4" class="edge"><title>Node71&#45;&gt;Node75</title>
<path fill="none" stroke="midnightblue" d="M289.054,-26.1668C297.591,-25.6117 306.196,-25.0522 314.772,-24.4947"/>
<polygon fill="midnightblue" stroke="midnightblue" points="315.069,-27.9829 324.821,-23.8414 314.615,-20.9976 315.069,-27.9829"/>
</g>
<!-- Node73 -->
<g id="node3" class="node"><title>Node73</title>
<g id="a_node3"><a xlink:href="../../da/d48/classde_1_1tu__clausthal_1_1in_1_1bachelorproject2018_1_1poker_1_1game_1_1hubs_1_1GameHub.htm#a779929edeff8f64a359c53d09be3ca06" target="_top" xlink:title="zieht sich die aktuelle playerList vom Table ">
<polygon fill="none" stroke="black" points="975,-21.5 975,-49.5 1264,-49.5 1264,-21.5 975,-21.5"/>
<text text-anchor="start" x="983" y="-38.3" font-family="Helvetica,sans-Serif" font-size="9.00">de.tu_clausthal.in.bachelorproject2018.poker.game.hubs.</text>
<text text-anchor="middle" x="1119.5" y="-28.3" font-family="Helvetica,sans-Serif" font-size="9.00">GameHub.updatePlayerlist</text>
</a>
</g>
</g>
<!-- Node72&#45;&gt;Node73 -->
<g id="edge2" class="edge"><title>Node72&#45;&gt;Node73</title>
<path fill="none" stroke="midnightblue" d="M939.054,-35.5C947.591,-35.5 956.196,-35.5 964.772,-35.5"/>
<polygon fill="midnightblue" stroke="midnightblue" points="964.821,-39.0001 974.821,-35.5 964.821,-32.0001 964.821,-39.0001"/>
</g>
<!-- Node74 -->
<g id="node4" class="node"><title>Node74</title>
<g id="a_node4"><a xlink:href="../../d5/d36/interfacede_1_1tu__clausthal_1_1in_1_1bachelorproject2018_1_1poker_1_1game_1_1table_1_1ITable.htm#a6e42c7daa9c258015750347f2a5542fe" target="_top" xlink:title="liefert alle Spieler des Tisches ">
<polygon fill="none" stroke="black" points="1300,-21.5 1300,-49.5 1590,-49.5 1590,-21.5 1300,-21.5"/>
<text text-anchor="start" x="1308" y="-38.3" font-family="Helvetica,sans-Serif" font-size="9.00">de.tu_clausthal.in.bachelorproject2018.poker.game.table.</text>
<text text-anchor="middle" x="1445" y="-28.3" font-family="Helvetica,sans-Serif" font-size="9.00">ITable.list</text>
</a>
</g>
</g>
<!-- Node73&#45;&gt;Node74 -->
<g id="edge3" class="edge"><title>Node73&#45;&gt;Node74</title>
<path fill="none" stroke="midnightblue" d="M1264.28,-35.5C1272.67,-35.5 1281.14,-35.5 1289.57,-35.5"/>
<polygon fill="midnightblue" stroke="midnightblue" points="1289.85,-39.0001 1299.84,-35.5 1289.84,-32.0001 1289.85,-39.0001"/>
</g>
<!-- Node75&#45;&gt;Node72 -->
<g id="edge5" class="edge"><title>Node75&#45;&gt;Node72</title>
<path fill="none" stroke="midnightblue" d="M614.054,-23.8332C622.591,-24.3883 631.196,-24.9478 639.772,-25.5053"/>
<polygon fill="midnightblue" stroke="midnightblue" points="639.615,-29.0024 649.821,-26.1586 640.069,-22.0171 639.615,-29.0024"/>
</g>
</g>
</svg>
