<?xml version="1.0" encoding="UTF-8" standalone="no"?>
<!DOCTYPE svg PUBLIC "-//W3C//DTD SVG 1.1//EN"
 "http://www.w3.org/Graphics/SVG/1.1/DTD/svg11.dtd">
<!-- Generated by graphviz version 2.38.0 (20140413.2041)
 -->
<!-- Title: de.tu_clausthal.in.bachelorproject2018.poker.game.hubs.ChipsHandling.somebodyHasFolded Pages: 1 -->
<svg width="955pt" height="84pt"
 viewBox="0.00 0.00 955.00 84.00" xmlns="http://www.w3.org/2000/svg" xmlns:xlink="http://www.w3.org/1999/xlink">
<g id="graph0" class="graph" transform="scale(1 1) rotate(0) translate(4 80)">
<title>de.tu_clausthal.in.bachelorproject2018.poker.game.hubs.ChipsHandling.somebodyHasFolded</title>
<!-- Node87 -->
<g id="node1" class="node"><title>Node87</title>
<polygon fill="#bfbfbf" stroke="black" points="0,-23.5 0,-51.5 289,-51.5 289,-23.5 0,-23.5"/>
<text text-anchor="start" x="8" y="-40.3" font-family="Helvetica,sans-Serif" font-size="9.00">de.tu_clausthal.in.bachelorproject2018.poker.game.hubs.</text>
<text text-anchor="middle" x="144.5" y="-30.3" font-family="Helvetica,sans-Serif" font-size="9.00">ChipsHandling.somebodyHasFolded</text>
</g>
<!-- Node88 -->
<g id="node2" class="node"><title>Node88</title>
<g id="a_node2"><a xlink:href="../../da/d96/classde_1_1tu__clausthal_1_1in_1_1bachelorproject2018_1_1poker_1_1game_1_1player_1_1CPlayer.htm#ab95ea6b7dbd724a0cc46bccf66bca729" target="_top" xlink:title="fold this round, count down the counter of players still in this round ">
<polygon fill="none" stroke="black" points="325,-23.5 325,-51.5 618,-51.5 618,-23.5 325,-23.5"/>
<text text-anchor="start" x="333" y="-40.3" font-family="Helvetica,sans-Serif" font-size="9.00">de.tu_clausthal.in.bachelorproject2018.poker.game.player.</text>
<text text-anchor="middle" x="471.5" y="-30.3" font-family="Helvetica,sans-Serif" font-size="9.00">CPlayer.fold</text>
</a>
</g>
</g>
<!-- Node87&#45;&gt;Node88 -->
<g id="edge1" class="edge"><title>Node87&#45;&gt;Node88</title>
<path fill="none" stroke="midnightblue" d="M299.655,-37.5C308.023,-37.5 316.42,-37.5 324.758,-37.5"/>
<polygon fill="midnightblue" stroke="midnightblue" points="299.469,-34.0001 289.469,-37.5 299.469,-41.0001 299.469,-34.0001"/>
</g>
<!-- Node89 -->
<g id="node3" class="node"><title>Node89</title>
<g id="a_node3"><a xlink:href="../../da/d96/classde_1_1tu__clausthal_1_1in_1_1bachelorproject2018_1_1poker_1_1game_1_1player_1_1CPlayer.htm#aeb1018b7db2a234dc71b5b2049732fde" target="_top" xlink:title="check if the player has folded ">
<polygon fill="none" stroke="black" points="654,-47.5 654,-75.5 947,-75.5 947,-47.5 654,-47.5"/>
<text text-anchor="start" x="662" y="-64.3" font-family="Helvetica,sans-Serif" font-size="9.00">de.tu_clausthal.in.bachelorproject2018.poker.game.player.</text>
<text text-anchor="middle" x="800.5" y="-54.3" font-family="Helvetica,sans-Serif" font-size="9.00">CPlayer.checkfolded</text>
</a>
</g>
</g>
<!-- Node88&#45;&gt;Node89 -->
<g id="edge2" class="edge"><title>Node88&#45;&gt;Node89</title>
<path fill="none" stroke="midnightblue" d="M628.319,-48.9363C636.863,-49.5633 645.435,-50.1925 653.941,-50.8168"/>
<polygon fill="midnightblue" stroke="midnightblue" points="628.537,-45.4429 618.308,-48.2015 628.025,-52.4242 628.537,-45.4429"/>
</g>
<!-- Node90 -->
<g id="node4" class="node"><title>Node90</title>
<g id="a_node4"><a xlink:href="../../da/d96/classde_1_1tu__clausthal_1_1in_1_1bachelorproject2018_1_1poker_1_1game_1_1player_1_1CPlayer.htm#a1960222964e1ced4ea8f86e7a435e361" target="_top" xlink:title="de.tu_clausthal.in.bachelorproject2018.poker.game.player.\lCPlayer.resetFolded">
<polygon fill="none" stroke="black" points="654,-0.5 654,-28.5 947,-28.5 947,-0.5 654,-0.5"/>
<text text-anchor="start" x="662" y="-17.3" font-family="Helvetica,sans-Serif" font-size="9.00">de.tu_clausthal.in.bachelorproject2018.poker.game.player.</text>
<text text-anchor="middle" x="800.5" y="-7.3" font-family="Helvetica,sans-Serif" font-size="9.00">CPlayer.resetFolded</text>
</a>
</g>
</g>
<!-- Node88&#45;&gt;Node90 -->
<g id="edge3" class="edge"><title>Node88&#45;&gt;Node90</title>
<path fill="none" stroke="midnightblue" d="M628.319,-26.5403C636.863,-25.9393 645.435,-25.3364 653.941,-24.7381"/>
<polygon fill="midnightblue" stroke="midnightblue" points="628.037,-23.0513 618.308,-27.2444 628.529,-30.0341 628.037,-23.0513"/>
</g>
</g>
</svg>
