<?xml version="1.0" encoding="UTF-8" standalone="no"?>
<!DOCTYPE svg PUBLIC "-//W3C//DTD SVG 1.1//EN"
 "http://www.w3.org/Graphics/SVG/1.1/DTD/svg11.dtd">
<!-- Generated by graphviz version 2.38.0 (20140413.2041)
 -->
<!-- Title: de.tu_clausthal.in.bachelorproject2018.poker.game.hubs.ChipsHandling.getPot Pages: 1 -->
<svg width="957pt" height="178pt"
 viewBox="0.00 0.00 957.00 178.00" xmlns="http://www.w3.org/2000/svg" xmlns:xlink="http://www.w3.org/1999/xlink">
<g id="graph0" class="graph" transform="scale(1 1) rotate(0) translate(4 174)">
<title>de.tu_clausthal.in.bachelorproject2018.poker.game.hubs.ChipsHandling.getPot</title>
<!-- Node42 -->
<g id="node1" class="node"><title>Node42</title>
<polygon fill="#bfbfbf" stroke="black" points="0,-70.5 0,-98.5 289,-98.5 289,-70.5 0,-70.5"/>
<text text-anchor="start" x="8" y="-87.3" font-family="Helvetica,sans-Serif" font-size="9.00">de.tu_clausthal.in.bachelorproject2018.poker.game.hubs.</text>
<text text-anchor="middle" x="144.5" y="-77.3" font-family="Helvetica,sans-Serif" font-size="9.00">ChipsHandling.getPot</text>
</g>
<!-- Node43 -->
<g id="node2" class="node"><title>Node43</title>
<g id="a_node2"><a xlink:href="../../d9/d7a/classde_1_1tu__clausthal_1_1in_1_1bachelorproject2018_1_1poker_1_1game_1_1action_1_1CAllIn.htm#a0ad1e3f093aabaf0593ea4378521ff06" target="_top" xlink:title="setzt den Spieler AllIn setzt die Chips in den Pot checkt außerdem ">
<polygon fill="none" stroke="black" points="325,-141.5 325,-169.5 620,-169.5 620,-141.5 325,-141.5"/>
<text text-anchor="start" x="333" y="-158.3" font-family="Helvetica,sans-Serif" font-size="9.00">de.tu_clausthal.in.bachelorproject2018.poker.game.action.</text>
<text text-anchor="middle" x="472.5" y="-148.3" font-family="Helvetica,sans-Serif" font-size="9.00">CAllIn.accept</text>
</a>
</g>
</g>
<!-- Node42&#45;&gt;Node43 -->
<g id="edge1" class="edge"><title>Node42&#45;&gt;Node43</title>
<path fill="none" stroke="midnightblue" d="M202.474,-101.385C237.579,-111.377 283.637,-123.748 325,-132.5 340.365,-135.751 356.725,-138.758 372.734,-141.454"/>
<polygon fill="midnightblue" stroke="midnightblue" points="202.991,-97.8926 192.414,-98.5019 201.062,-104.622 202.991,-97.8926"/>
</g>
<!-- Node44 -->
<g id="node3" class="node"><title>Node44</title>
<g id="a_node3"><a xlink:href="../../de/dec/classde_1_1tu__clausthal_1_1in_1_1bachelorproject2018_1_1poker_1_1game_1_1action_1_1CCall.htm#a5df0967671f6af0e68de9201882b3c1a" target="_top" xlink:title="Überprüft ob der Spieler callen kann Berechnet den Wert, der fürs Callen benötigt wird Setzt den Wert...">
<polygon fill="none" stroke="black" points="325,-94.5 325,-122.5 620,-122.5 620,-94.5 325,-94.5"/>
<text text-anchor="start" x="333" y="-111.3" font-family="Helvetica,sans-Serif" font-size="9.00">de.tu_clausthal.in.bachelorproject2018.poker.game.action.</text>
<text text-anchor="middle" x="472.5" y="-101.3" font-family="Helvetica,sans-Serif" font-size="9.00">CCall.accept</text>
</a>
</g>
</g>
<!-- Node42&#45;&gt;Node44 -->
<g id="edge2" class="edge"><title>Node42&#45;&gt;Node44</title>
<path fill="none" stroke="midnightblue" d="M299.671,-95.85C308.079,-96.469 316.518,-97.0903 324.898,-97.7072"/>
<polygon fill="midnightblue" stroke="midnightblue" points="299.667,-92.3404 289.437,-95.0966 299.153,-99.3215 299.667,-92.3404"/>
</g>
<!-- Node45 -->
<g id="node4" class="node"><title>Node45</title>
<g id="a_node4"><a xlink:href="../../de/d5d/classde_1_1tu__clausthal_1_1in_1_1bachelorproject2018_1_1poker_1_1game_1_1action_1_1CRaise.htm#aee81ff5815191d70a1e63a5fe7c5c7d1" target="_top" xlink:title="Überprüft ob der Spieler raisen kann Führt den Raise durch. ">
<polygon fill="none" stroke="black" points="325,-47.5 325,-75.5 620,-75.5 620,-47.5 325,-47.5"/>
<text text-anchor="start" x="333" y="-64.3" font-family="Helvetica,sans-Serif" font-size="9.00">de.tu_clausthal.in.bachelorproject2018.poker.game.action.</text>
<text text-anchor="middle" x="472.5" y="-54.3" font-family="Helvetica,sans-Serif" font-size="9.00">CRaise.accept</text>
</a>
</g>
</g>
<!-- Node42&#45;&gt;Node45 -->
<g id="edge3" class="edge"><title>Node42&#45;&gt;Node45</title>
<path fill="none" stroke="midnightblue" d="M299.671,-73.6229C308.079,-73.0297 316.518,-72.4343 324.898,-71.8431"/>
<polygon fill="midnightblue" stroke="midnightblue" points="299.166,-70.1497 289.437,-74.3449 299.659,-77.1324 299.166,-70.1497"/>
</g>
<!-- Node46 -->
<g id="node5" class="node"><title>Node46</title>
<g id="a_node5"><a xlink:href="../../dd/dfe/classde_1_1tu__clausthal_1_1in_1_1bachelorproject2018_1_1poker_1_1game_1_1hubs_1_1ChipsHandling.htm#ad85caa6bd2889e2b060b78139daba9e5" target="_top" xlink:title="force bet the blinds of the player with the relevant indexes update the highestBidThisRound to the bi...">
<polygon fill="none" stroke="black" points="328,-0.5 328,-28.5 617,-28.5 617,-0.5 328,-0.5"/>
<text text-anchor="start" x="336" y="-17.3" font-family="Helvetica,sans-Serif" font-size="9.00">de.tu_clausthal.in.bachelorproject2018.poker.game.hubs.</text>
<text text-anchor="middle" x="472.5" y="-7.3" font-family="Helvetica,sans-Serif" font-size="9.00">ChipsHandling.forceBlinds</text>
</a>
</g>
</g>
<!-- Node42&#45;&gt;Node46 -->
<g id="edge4" class="edge"><title>Node42&#45;&gt;Node46</title>
<path fill="none" stroke="midnightblue" d="M205.496,-67.7086C240.228,-58.3441 284.88,-46.9098 325,-38.5 342.153,-34.9045 360.53,-31.5257 378.27,-28.5023"/>
<polygon fill="midnightblue" stroke="midnightblue" points="204.249,-64.4203 195.514,-70.4164 206.081,-71.1761 204.249,-64.4203"/>
</g>
<!-- Node47 -->
<g id="node6" class="node"><title>Node47</title>
<g id="a_node6"><a xlink:href="../../d3/d48/classde_1_1tu__clausthal_1_1in_1_1bachelorproject2018_1_1poker_1_1game_1_1round_1_1CPreFlop.htm#a29d161fc537ba98819b2a6ea3acc9894" target="_top" xlink:title="resetet alle wichtigen Methoden im CardDealer und ChipsHandler forciert Blinds der Spieler Teilt Kart...">
<polygon fill="none" stroke="black" points="656,-0.5 656,-28.5 949,-28.5 949,-0.5 656,-0.5"/>
<text text-anchor="start" x="664" y="-17.3" font-family="Helvetica,sans-Serif" font-size="9.00">de.tu_clausthal.in.bachelorproject2018.poker.game.round.</text>
<text text-anchor="middle" x="802.5" y="-7.3" font-family="Helvetica,sans-Serif" font-size="9.00">CPreFlop.apply</text>
</a>
</g>
</g>
<!-- Node46&#45;&gt;Node47 -->
<g id="edge5" class="edge"><title>Node46&#45;&gt;Node47</title>
<path fill="none" stroke="midnightblue" d="M627.545,-14.5C636.947,-14.5 646.393,-14.5 655.758,-14.5"/>
<polygon fill="midnightblue" stroke="midnightblue" points="627.366,-11.0001 617.366,-14.5 627.366,-18.0001 627.366,-11.0001"/>
</g>
</g>
</svg>
