<?xml version="1.0" encoding="UTF-8" standalone="no"?>
<!DOCTYPE svg PUBLIC "-//W3C//DTD SVG 1.1//EN"
 "http://www.w3.org/Graphics/SVG/1.1/DTD/svg11.dtd">
<!-- Generated by graphviz version 2.38.0 (20140413.2041)
 -->
<!-- Title: de.tu_clausthal.in.bachelorproject2018.poker.controller.CGameActionController.startGame Pages: 1 -->
<svg width="652pt" height="178pt"
 viewBox="0.00 0.00 652.00 178.00" xmlns="http://www.w3.org/2000/svg" xmlns:xlink="http://www.w3.org/1999/xlink">
<g id="graph0" class="graph" transform="scale(1 1) rotate(0) translate(4 174)">
<title>de.tu_clausthal.in.bachelorproject2018.poker.controller.CGameActionController.startGame</title>
<!-- Node6 -->
<g id="node1" class="node"><title>Node6</title>
<polygon fill="#bfbfbf" stroke="black" points="0,-70.5 0,-98.5 281,-98.5 281,-70.5 0,-70.5"/>
<text text-anchor="start" x="8" y="-87.3" font-family="Helvetica,sans-Serif" font-size="9.00">de.tu_clausthal.in.bachelorproject2018.poker.controller.</text>
<text text-anchor="middle" x="140.5" y="-77.3" font-family="Helvetica,sans-Serif" font-size="9.00">CGameActionController.startGame</text>
</g>
<!-- Node7 -->
<g id="node2" class="node"><title>Node7</title>
<g id="a_node2"><a xlink:href="../../d3/def/classde_1_1tu__clausthal_1_1in_1_1bachelorproject2018_1_1poker_1_1network_1_1websocket_1_1CSession.htm#a6384928c7680de516cae563aa306e4cf" target="_top" xlink:title="de.tu_clausthal.in.bachelorproject2018.poker.network.websocket.\lCSession.getPlayer">
<polygon fill="none" stroke="black" points="317,-141.5 317,-169.5 644,-169.5 644,-141.5 317,-141.5"/>
<text text-anchor="start" x="325" y="-158.3" font-family="Helvetica,sans-Serif" font-size="9.00">de.tu_clausthal.in.bachelorproject2018.poker.network.websocket.</text>
<text text-anchor="middle" x="480.5" y="-148.3" font-family="Helvetica,sans-Serif" font-size="9.00">CSession.getPlayer</text>
</a>
</g>
</g>
<!-- Node6&#45;&gt;Node7 -->
<g id="edge1" class="edge"><title>Node6&#45;&gt;Node7</title>
<path fill="none" stroke="midnightblue" d="M186.573,-98.5187C221.8,-109.062 272.145,-123.23 317,-132.5 329.785,-135.142 343.2,-137.575 356.609,-139.79"/>
<polygon fill="midnightblue" stroke="midnightblue" points="356.421,-143.305 366.851,-141.44 357.535,-136.394 356.421,-143.305"/>
</g>
<!-- Node8 -->
<g id="node3" class="node"><title>Node8</title>
<g id="a_node3"><a xlink:href="../../d3/def/classde_1_1tu__clausthal_1_1in_1_1bachelorproject2018_1_1poker_1_1network_1_1websocket_1_1CSession.htm#a5298c7b8778d4342c4fbf571973d1ebd" target="_top" xlink:title="de.tu_clausthal.in.bachelorproject2018.poker.network.websocket.\lCSession.getTable">
<polygon fill="none" stroke="black" points="317,-94.5 317,-122.5 644,-122.5 644,-94.5 317,-94.5"/>
<text text-anchor="start" x="325" y="-111.3" font-family="Helvetica,sans-Serif" font-size="9.00">de.tu_clausthal.in.bachelorproject2018.poker.network.websocket.</text>
<text text-anchor="middle" x="480.5" y="-101.3" font-family="Helvetica,sans-Serif" font-size="9.00">CSession.getTable</text>
</a>
</g>
</g>
<!-- Node6&#45;&gt;Node8 -->
<g id="edge2" class="edge"><title>Node6&#45;&gt;Node8</title>
<path fill="none" stroke="midnightblue" d="M281.417,-94.435C289.837,-95.0328 298.356,-95.6377 306.887,-96.2434"/>
<polygon fill="midnightblue" stroke="midnightblue" points="306.679,-99.7374 316.902,-96.9546 307.175,-92.755 306.679,-99.7374"/>
</g>
<!-- Node9 -->
<g id="node4" class="node"><title>Node9</title>
<g id="a_node4"><a xlink:href="../../d5/d36/interfacede_1_1tu__clausthal_1_1in_1_1bachelorproject2018_1_1poker_1_1game_1_1table_1_1ITable.htm#a12e7d833ce4fde26543c2aec692bfcba" target="_top" xlink:title="entfernt einen Spieler vom Tisch ">
<polygon fill="none" stroke="black" points="335.5,-47.5 335.5,-75.5 625.5,-75.5 625.5,-47.5 335.5,-47.5"/>
<text text-anchor="start" x="343.5" y="-64.3" font-family="Helvetica,sans-Serif" font-size="9.00">de.tu_clausthal.in.bachelorproject2018.poker.game.table.</text>
<text text-anchor="middle" x="480.5" y="-54.3" font-family="Helvetica,sans-Serif" font-size="9.00">ITable.leave</text>
</a>
</g>
</g>
<!-- Node6&#45;&gt;Node9 -->
<g id="edge3" class="edge"><title>Node6&#45;&gt;Node9</title>
<path fill="none" stroke="midnightblue" d="M281.417,-74.979C295.878,-73.995 310.632,-72.991 325.238,-71.9971"/>
<polygon fill="midnightblue" stroke="midnightblue" points="325.582,-75.4819 335.321,-71.311 325.106,-68.4981 325.582,-75.4819"/>
</g>
<!-- Node10 -->
<g id="node5" class="node"><title>Node10</title>
<g id="a_node5"><a xlink:href="../../d5/d36/interfacede_1_1tu__clausthal_1_1in_1_1bachelorproject2018_1_1poker_1_1game_1_1table_1_1ITable.htm#afe05bcc129de0d9ace27270c45c9b4e2" target="_top" xlink:title="startet das Spiel ">
<polygon fill="none" stroke="black" points="335.5,-0.5 335.5,-28.5 625.5,-28.5 625.5,-0.5 335.5,-0.5"/>
<text text-anchor="start" x="343.5" y="-17.3" font-family="Helvetica,sans-Serif" font-size="9.00">de.tu_clausthal.in.bachelorproject2018.poker.game.table.</text>
<text text-anchor="middle" x="480.5" y="-7.3" font-family="Helvetica,sans-Serif" font-size="9.00">ITable.start</text>
</a>
</g>
</g>
<!-- Node6&#45;&gt;Node10 -->
<g id="edge4" class="edge"><title>Node6&#45;&gt;Node10</title>
<path fill="none" stroke="midnightblue" d="M189.212,-70.4782C224.32,-60.5325 273.332,-47.4196 317,-38.5 331.784,-35.4803 347.398,-32.6837 362.868,-30.1468"/>
<polygon fill="midnightblue" stroke="midnightblue" points="363.685,-33.5605 373.002,-28.5175 362.574,-26.6492 363.685,-33.5605"/>
</g>
</g>
</svg>
