<?xml version="1.0" encoding="UTF-8" standalone="no"?>
<!DOCTYPE svg PUBLIC "-//W3C//DTD SVG 1.1//EN"
 "http://www.w3.org/Graphics/SVG/1.1/DTD/svg11.dtd">
<!-- Generated by graphviz version 2.38.0 (20140413.2041)
 -->
<!-- Title: de.tu_clausthal.in.bachelorproject2018.poker.game.action.CAllIn Pages: 1 -->
<svg width="612pt" height="376pt"
 viewBox="0.00 0.00 611.50 376.00" xmlns="http://www.w3.org/2000/svg" xmlns:xlink="http://www.w3.org/1999/xlink">
<g id="graph0" class="graph" transform="scale(1 1) rotate(0) translate(4 372)">
<title>de.tu_clausthal.in.bachelorproject2018.poker.game.action.CAllIn</title>
<!-- Node3 -->
<g id="node1" class="node"><title>Node3</title>
<polygon fill="#bfbfbf" stroke="black" points="155,-0.5 155,-74.5 450,-74.5 450,-0.5 155,-0.5"/>
<text text-anchor="start" x="163" y="-63.3" font-family="Helvetica,sans-Serif" font-size="9.00">de.tu_clausthal.in.bachelorproject2018.poker.game.action.</text>
<text text-anchor="middle" x="302.5" y="-53.3" font-family="Helvetica,sans-Serif" font-size="9.00">CAllIn</text>
<polyline fill="none" stroke="black" points="155,-46.5 450,-46.5 "/>
<text text-anchor="middle" x="302.5" y="-35.3" font-family="Helvetica,sans-Serif" font-size="9.00"> </text>
<polyline fill="none" stroke="black" points="155,-28.5 450,-28.5 "/>
<text text-anchor="start" x="163" y="-17.3" font-family="Helvetica,sans-Serif" font-size="9.00">+ CAllIn()</text>
<text text-anchor="start" x="163" y="-7.3" font-family="Helvetica,sans-Serif" font-size="9.00">+ accept()</text>
</g>
<!-- Node4 -->
<g id="node2" class="node"><title>Node4</title>
<g id="a_node2"><a xlink:href="../../d2/d9f/classde_1_1tu__clausthal_1_1in_1_1bachelorproject2018_1_1poker_1_1game_1_1action_1_1IBaseAction.htm" target="_top" xlink:title="{de.tu_clausthal.in.bachelorproject2018.poker.game.action.\lIBaseAction\n||# IBaseAction()\l}">
<polygon fill="none" stroke="black" points="155,-112.5 155,-176.5 450,-176.5 450,-112.5 155,-112.5"/>
<text text-anchor="start" x="163" y="-165.3" font-family="Helvetica,sans-Serif" font-size="9.00">de.tu_clausthal.in.bachelorproject2018.poker.game.action.</text>
<text text-anchor="middle" x="302.5" y="-155.3" font-family="Helvetica,sans-Serif" font-size="9.00">IBaseAction</text>
<polyline fill="none" stroke="black" points="155,-148.5 450,-148.5 "/>
<text text-anchor="middle" x="302.5" y="-137.3" font-family="Helvetica,sans-Serif" font-size="9.00"> </text>
<polyline fill="none" stroke="black" points="155,-130.5 450,-130.5 "/>
<text text-anchor="start" x="163" y="-119.3" font-family="Helvetica,sans-Serif" font-size="9.00"># IBaseAction()</text>
</a>
</g>
</g>
<!-- Node4&#45;&gt;Node3 -->
<g id="edge1" class="edge"><title>Node4&#45;&gt;Node3</title>
<path fill="none" stroke="midnightblue" d="M302.5,-102.234C302.5,-93.1001 302.5,-83.4905 302.5,-74.5822"/>
<polygon fill="none" stroke="midnightblue" points="299,-102.281 302.5,-112.281 306,-102.281 299,-102.281"/>
</g>
<!-- Node5 -->
<g id="node3" class="node"><title>Node5</title>
<g id="a_node3"><a xlink:href="../../d0/ded/interfacede_1_1tu__clausthal_1_1in_1_1bachelorproject2018_1_1poker_1_1game_1_1action_1_1IAction.htm" target="_top" xlink:title="Aktionsinterface, um die einzelnen Aktionen des Spielers abzubilden. ">
<polygon fill="none" stroke="black" points="0,-263.5 0,-327.5 295,-327.5 295,-263.5 0,-263.5"/>
<text text-anchor="start" x="8" y="-316.3" font-family="Helvetica,sans-Serif" font-size="9.00">de.tu_clausthal.in.bachelorproject2018.poker.game.action.</text>
<text text-anchor="middle" x="147.5" y="-306.3" font-family="Helvetica,sans-Serif" font-size="9.00">IAction</text>
<polyline fill="none" stroke="black" points="0,-299.5 295,-299.5 "/>
<text text-anchor="middle" x="147.5" y="-288.3" font-family="Helvetica,sans-Serif" font-size="9.00"> </text>
<polyline fill="none" stroke="black" points="0,-281.5 295,-281.5 "/>
<text text-anchor="middle" x="147.5" y="-270.3" font-family="Helvetica,sans-Serif" font-size="9.00"> </text>
</a>
</g>
</g>
<!-- Node5&#45;&gt;Node4 -->
<g id="edge2" class="edge"><title>Node5&#45;&gt;Node4</title>
<path fill="none" stroke="midnightblue" d="M187.367,-256.176C213.038,-231.499 245.983,-199.829 270.05,-176.694"/>
<polygon fill="none" stroke="midnightblue" points="184.777,-253.811 179.993,-263.265 189.628,-258.858 184.777,-253.811"/>
</g>
<!-- Node6 -->
<g id="node4" class="node"><title>Node6</title>
<g id="a_node4"><a xlink:href="../../d5/d36/interfacede_1_1tu__clausthal_1_1in_1_1bachelorproject2018_1_1poker_1_1game_1_1table_1_1ITable.htm" target="_top" xlink:title="Interface um einen Spieletisch darzustellen. ">
<polygon fill="none" stroke="black" points="313.5,-223.5 313.5,-367.5 603.5,-367.5 603.5,-223.5 313.5,-223.5"/>
<text text-anchor="start" x="321.5" y="-356.3" font-family="Helvetica,sans-Serif" font-size="9.00">de.tu_clausthal.in.bachelorproject2018.poker.game.table.</text>
<text text-anchor="middle" x="458.5" y="-346.3" font-family="Helvetica,sans-Serif" font-size="9.00">ITable</text>
<polyline fill="none" stroke="black" points="313.5,-339.5 603.5,-339.5 "/>
<text text-anchor="middle" x="458.5" y="-328.3" font-family="Helvetica,sans-Serif" font-size="9.00"> </text>
<polyline fill="none" stroke="black" points="313.5,-321.5 603.5,-321.5 "/>
<text text-anchor="start" x="321.5" y="-310.3" font-family="Helvetica,sans-Serif" font-size="9.00">+ getGameHub()</text>
<text text-anchor="start" x="321.5" y="-300.3" font-family="Helvetica,sans-Serif" font-size="9.00">+ getQueue()</text>
<text text-anchor="start" x="321.5" y="-290.3" font-family="Helvetica,sans-Serif" font-size="9.00">+ isplaying()</text>
<text text-anchor="start" x="321.5" y="-280.3" font-family="Helvetica,sans-Serif" font-size="9.00">+ join()</text>
<text text-anchor="start" x="321.5" y="-270.3" font-family="Helvetica,sans-Serif" font-size="9.00">+ leave()</text>
<text text-anchor="start" x="321.5" y="-260.3" font-family="Helvetica,sans-Serif" font-size="9.00">+ list()</text>
<text text-anchor="start" x="321.5" y="-250.3" font-family="Helvetica,sans-Serif" font-size="9.00">+ name()</text>
<text text-anchor="start" x="321.5" y="-240.3" font-family="Helvetica,sans-Serif" font-size="9.00">+ owner()</text>
<text text-anchor="start" x="321.5" y="-230.3" font-family="Helvetica,sans-Serif" font-size="9.00">+ start()</text>
</a>
</g>
</g>
<!-- Node6&#45;&gt;Node4 -->
<g id="edge3" class="edge"><title>Node6&#45;&gt;Node4</title>
<path fill="none" stroke="#404040" d="M384.155,-223.491C370.262,-210.222 356.215,-196.805 343.78,-184.928"/>
<polygon fill="none" stroke="#404040" points="343.714,-184.865 336.613,-183.613 335.037,-176.577 342.138,-177.828 343.714,-184.865"/>
<text text-anchor="middle" x="386.5" y="-197.8" font-family="Helvetica,sans-Serif" font-size="9.00"> #m_table</text>
</g>
</g>
</svg>
