<?xml version="1.0" encoding="UTF-8" standalone="no"?>
<!DOCTYPE svg PUBLIC "-//W3C//DTD SVG 1.1//EN"
 "http://www.w3.org/Graphics/SVG/1.1/DTD/svg11.dtd">
<!-- Generated by graphviz version 2.38.0 (20140413.2041)
 -->
<!-- Title: de.tu_clausthal.in.bachelorproject2018.poker.game.cards.CardValue.getValue Pages: 1 -->
<svg width="628pt" height="84pt"
 viewBox="0.00 0.00 628.00 84.00" xmlns="http://www.w3.org/2000/svg" xmlns:xlink="http://www.w3.org/1999/xlink">
<g id="graph0" class="graph" transform="scale(1 1) rotate(0) translate(4 80)">
<title>de.tu_clausthal.in.bachelorproject2018.poker.game.cards.CardValue.getValue</title>
<!-- Node3 -->
<g id="node1" class="node"><title>Node3</title>
<polygon fill="#bfbfbf" stroke="black" points="0,-23.5 0,-51.5 292,-51.5 292,-23.5 0,-23.5"/>
<text text-anchor="start" x="8" y="-40.3" font-family="Helvetica,sans-Serif" font-size="9.00">de.tu_clausthal.in.bachelorproject2018.poker.game.cards.</text>
<text text-anchor="middle" x="146" y="-30.3" font-family="Helvetica,sans-Serif" font-size="9.00">CardValue.getValue</text>
</g>
<!-- Node4 -->
<g id="node2" class="node"><title>Node4</title>
<g id="a_node2"><a xlink:href="../../db/da1/classde_1_1tu__clausthal_1_1in_1_1bachelorproject2018_1_1poker_1_1game_1_1cards_1_1Card.htm#a036dad41ae321efa12c5cdff88e4be64" target="_top" xlink:title="Get Value information of card. ">
<polygon fill="none" stroke="black" points="328,-47.5 328,-75.5 620,-75.5 620,-47.5 328,-47.5"/>
<text text-anchor="start" x="336" y="-64.3" font-family="Helvetica,sans-Serif" font-size="9.00">de.tu_clausthal.in.bachelorproject2018.poker.game.cards.</text>
<text text-anchor="middle" x="474" y="-54.3" font-family="Helvetica,sans-Serif" font-size="9.00">Card.getValue</text>
</a>
</g>
</g>
<!-- Node3&#45;&gt;Node4 -->
<g id="edge1" class="edge"><title>Node3&#45;&gt;Node4</title>
<path fill="none" stroke="midnightblue" d="M302.343,-48.9363C310.86,-49.5633 319.406,-50.1925 327.886,-50.8168"/>
<polygon fill="midnightblue" stroke="midnightblue" points="302.592,-45.4452 292.362,-48.2015 302.078,-52.4263 302.592,-45.4452"/>
</g>
<!-- Node5 -->
<g id="node3" class="node"><title>Node5</title>
<g id="a_node3"><a xlink:href="../../db/da1/classde_1_1tu__clausthal_1_1in_1_1bachelorproject2018_1_1poker_1_1game_1_1cards_1_1Card.htm#a77121de05ddd417366a6232ec5de0fa9" target="_top" xlink:title="de.tu_clausthal.in.bachelorproject2018.poker.game.cards.\lCard.toString">
<polygon fill="none" stroke="black" points="328,-0.5 328,-28.5 620,-28.5 620,-0.5 328,-0.5"/>
<text text-anchor="start" x="336" y="-17.3" font-family="Helvetica,sans-Serif" font-size="9.00">de.tu_clausthal.in.bachelorproject2018.poker.game.cards.</text>
<text text-anchor="middle" x="474" y="-7.3" font-family="Helvetica,sans-Serif" font-size="9.00">Card.toString</text>
</a>
</g>
</g>
<!-- Node3&#45;&gt;Node5 -->
<g id="edge2" class="edge"><title>Node3&#45;&gt;Node5</title>
<path fill="none" stroke="midnightblue" d="M302.343,-26.5403C310.86,-25.9393 319.406,-25.3364 327.886,-24.7381"/>
<polygon fill="midnightblue" stroke="midnightblue" points="302.091,-23.0492 292.362,-27.2444 302.583,-30.0319 302.091,-23.0492"/>
</g>
</g>
</svg>
