<?xml version="1.0" encoding="UTF-8" standalone="no"?>
<!DOCTYPE svg PUBLIC "-//W3C//DTD SVG 1.1//EN"
 "http://www.w3.org/Graphics/SVG/1.1/DTD/svg11.dtd">
<!-- Generated by graphviz version 2.38.0 (20140413.2041)
 -->
<!-- Title: de.tu_clausthal.in.bachelorproject2018.poker.game.action.CRaise.accept Pages: 1 -->
<svg width="629pt" height="319pt"
 viewBox="0.00 0.00 629.00 319.00" xmlns="http://www.w3.org/2000/svg" xmlns:xlink="http://www.w3.org/1999/xlink">
<g id="graph0" class="graph" transform="scale(1 1) rotate(0) translate(4 315)">
<title>de.tu_clausthal.in.bachelorproject2018.poker.game.action.CRaise.accept</title>
<!-- Node2 -->
<g id="node1" class="node"><title>Node2</title>
<polygon fill="#bfbfbf" stroke="black" points="0,-141.5 0,-169.5 295,-169.5 295,-141.5 0,-141.5"/>
<text text-anchor="start" x="8" y="-158.3" font-family="Helvetica,sans-Serif" font-size="9.00">de.tu_clausthal.in.bachelorproject2018.poker.game.action.</text>
<text text-anchor="middle" x="147.5" y="-148.3" font-family="Helvetica,sans-Serif" font-size="9.00">CRaise.accept</text>
</g>
<!-- Node3 -->
<g id="node2" class="node"><title>Node3</title>
<g id="a_node2"><a xlink:href="../../dd/dfe/classde_1_1tu__clausthal_1_1in_1_1bachelorproject2018_1_1poker_1_1game_1_1hubs_1_1ChipsHandling.htm#ab0683a79bac0b45815b48120c1c0b003" target="_top" xlink:title="add the getAmountBetThisRound to the pot gets called when a player bets anything newRound will be set...">
<polygon fill="none" stroke="black" points="331.5,-282.5 331.5,-310.5 620.5,-310.5 620.5,-282.5 331.5,-282.5"/>
<text text-anchor="start" x="339.5" y="-299.3" font-family="Helvetica,sans-Serif" font-size="9.00">de.tu_clausthal.in.bachelorproject2018.poker.game.hubs.</text>
<text text-anchor="middle" x="476" y="-289.3" font-family="Helvetica,sans-Serif" font-size="9.00">ChipsHandling.addToPot</text>
</a>
</g>
</g>
<!-- Node2&#45;&gt;Node3 -->
<g id="edge1" class="edge"><title>Node2&#45;&gt;Node3</title>
<path fill="none" stroke="midnightblue" d="M165.289,-169.867C195.958,-195.266 264.065,-247.833 331,-273.5 336.972,-275.79 343.169,-277.852 349.486,-279.709"/>
<polygon fill="midnightblue" stroke="midnightblue" points="348.929,-283.186 359.499,-282.461 350.784,-276.436 348.929,-283.186"/>
</g>
<!-- Node4 -->
<g id="node3" class="node"><title>Node4</title>
<g id="a_node3"><a xlink:href="../../da/d48/classde_1_1tu__clausthal_1_1in_1_1bachelorproject2018_1_1poker_1_1game_1_1hubs_1_1GameHub.htm#a70d72ce0a72b5c0e490bf935258b69f4" target="_top" xlink:title="getter for the chipsHandler ">
<polygon fill="none" stroke="black" points="331.5,-235.5 331.5,-263.5 620.5,-263.5 620.5,-235.5 331.5,-235.5"/>
<text text-anchor="start" x="339.5" y="-252.3" font-family="Helvetica,sans-Serif" font-size="9.00">de.tu_clausthal.in.bachelorproject2018.poker.game.hubs.</text>
<text text-anchor="middle" x="476" y="-242.3" font-family="Helvetica,sans-Serif" font-size="9.00">GameHub.getChipsHandler</text>
</a>
</g>
</g>
<!-- Node2&#45;&gt;Node4 -->
<g id="edge2" class="edge"><title>Node2&#45;&gt;Node4</title>
<path fill="none" stroke="midnightblue" d="M178.827,-169.604C214.505,-185.65 275.874,-211.557 331,-226.5 340.438,-229.058 350.306,-231.368 360.26,-233.446"/>
<polygon fill="midnightblue" stroke="midnightblue" points="359.736,-236.911 370.229,-235.448 361.114,-230.048 359.736,-236.911"/>
</g>
<!-- Node5 -->
<g id="node4" class="node"><title>Node5</title>
<g id="a_node4"><a xlink:href="../../d5/d36/interfacede_1_1tu__clausthal_1_1in_1_1bachelorproject2018_1_1poker_1_1game_1_1table_1_1ITable.htm#ad5910542f67b66837a7e3c326d22a671" target="_top" xlink:title="de.tu_clausthal.in.bachelorproject2018.poker.game.table.\lITable.getGameHub">
<polygon fill="none" stroke="black" points="331,-188.5 331,-216.5 621,-216.5 621,-188.5 331,-188.5"/>
<text text-anchor="start" x="339" y="-205.3" font-family="Helvetica,sans-Serif" font-size="9.00">de.tu_clausthal.in.bachelorproject2018.poker.game.table.</text>
<text text-anchor="middle" x="476" y="-195.3" font-family="Helvetica,sans-Serif" font-size="9.00">ITable.getGameHub</text>
</a>
</g>
</g>
<!-- Node2&#45;&gt;Node5 -->
<g id="edge3" class="edge"><title>Node2&#45;&gt;Node5</title>
<path fill="none" stroke="midnightblue" d="M246.019,-169.538C284.226,-175.038 328.2,-181.368 367.334,-187.001"/>
<polygon fill="midnightblue" stroke="midnightblue" points="367.305,-190.533 377.702,-188.494 368.303,-183.605 367.305,-190.533"/>
</g>
<!-- Node6 -->
<g id="node5" class="node"><title>Node6</title>
<g id="a_node5"><a xlink:href="../../dd/dfe/classde_1_1tu__clausthal_1_1in_1_1bachelorproject2018_1_1poker_1_1game_1_1hubs_1_1ChipsHandling.htm#a5baac0bfb1fc17efae72af80d8cd0fda" target="_top" xlink:title="get the Highest Bid for displaying information ">
<polygon fill="none" stroke="black" points="331.5,-141.5 331.5,-169.5 620.5,-169.5 620.5,-141.5 331.5,-141.5"/>
<text text-anchor="start" x="339.5" y="-158.3" font-family="Helvetica,sans-Serif" font-size="9.00">de.tu_clausthal.in.bachelorproject2018.poker.game.hubs.</text>
<text text-anchor="middle" x="476" y="-148.3" font-family="Helvetica,sans-Serif" font-size="9.00">ChipsHandling.getHighestBidThisRound</text>
</a>
</g>
</g>
<!-- Node2&#45;&gt;Node6 -->
<g id="edge4" class="edge"><title>Node2&#45;&gt;Node6</title>
<path fill="none" stroke="midnightblue" d="M295.037,-155.5C303.688,-155.5 312.402,-155.5 321.081,-155.5"/>
<polygon fill="midnightblue" stroke="midnightblue" points="321.248,-159 331.248,-155.5 321.248,-152 321.248,-159"/>
</g>
<!-- Node7 -->
<g id="node6" class="node"><title>Node7</title>
<g id="a_node6"><a xlink:href="../../dd/dfe/classde_1_1tu__clausthal_1_1in_1_1bachelorproject2018_1_1poker_1_1game_1_1hubs_1_1ChipsHandling.htm#a699a7031357ff2ad7469e7bbf786d1b4" target="_top" xlink:title="de.tu_clausthal.in.bachelorproject2018.poker.game.hubs.\lChipsHandling.getPot">
<polygon fill="none" stroke="black" points="331.5,-94.5 331.5,-122.5 620.5,-122.5 620.5,-94.5 331.5,-94.5"/>
<text text-anchor="start" x="339.5" y="-111.3" font-family="Helvetica,sans-Serif" font-size="9.00">de.tu_clausthal.in.bachelorproject2018.poker.game.hubs.</text>
<text text-anchor="middle" x="476" y="-101.3" font-family="Helvetica,sans-Serif" font-size="9.00">ChipsHandling.getPot</text>
</a>
</g>
</g>
<!-- Node2&#45;&gt;Node7 -->
<g id="edge5" class="edge"><title>Node2&#45;&gt;Node7</title>
<path fill="none" stroke="midnightblue" d="M246.019,-141.462C284.226,-135.962 328.2,-129.632 367.334,-123.999"/>
<polygon fill="midnightblue" stroke="midnightblue" points="368.303,-127.395 377.702,-122.506 367.305,-120.467 368.303,-127.395"/>
</g>
<!-- Node8 -->
<g id="node7" class="node"><title>Node8</title>
<g id="a_node7"><a xlink:href="../../d5/d36/interfacede_1_1tu__clausthal_1_1in_1_1bachelorproject2018_1_1poker_1_1game_1_1table_1_1ITable.htm#aea3baa21f8e4e6c85f09e355851c5d9f" target="_top" xlink:title="de.tu_clausthal.in.bachelorproject2018.poker.game.table.\lITable.getQueue">
<polygon fill="none" stroke="black" points="331,-47.5 331,-75.5 621,-75.5 621,-47.5 331,-47.5"/>
<text text-anchor="start" x="339" y="-64.3" font-family="Helvetica,sans-Serif" font-size="9.00">de.tu_clausthal.in.bachelorproject2018.poker.game.table.</text>
<text text-anchor="middle" x="476" y="-54.3" font-family="Helvetica,sans-Serif" font-size="9.00">ITable.getQueue</text>
</a>
</g>
</g>
<!-- Node2&#45;&gt;Node8 -->
<g id="edge6" class="edge"><title>Node2&#45;&gt;Node8</title>
<path fill="none" stroke="midnightblue" d="M179.509,-141.397C215.315,-125.636 276.318,-100.381 331,-85.5 341.876,-82.5402 353.319,-79.8845 364.804,-77.5166"/>
<polygon fill="midnightblue" stroke="midnightblue" points="365.769,-80.8932 374.894,-75.5093 364.403,-74.0277 365.769,-80.8932"/>
</g>
<!-- Node9 -->
<g id="node8" class="node"><title>Node9</title>
<g id="a_node8"><a xlink:href="../../d5/d36/interfacede_1_1tu__clausthal_1_1in_1_1bachelorproject2018_1_1poker_1_1game_1_1table_1_1ITable.htm#a442079183a6b0e75a07ee8549947f929" target="_top" xlink:title="Name des Tisches. ">
<polygon fill="none" stroke="black" points="331,-0.5 331,-28.5 621,-28.5 621,-0.5 331,-0.5"/>
<text text-anchor="start" x="339" y="-17.3" font-family="Helvetica,sans-Serif" font-size="9.00">de.tu_clausthal.in.bachelorproject2018.poker.game.table.</text>
<text text-anchor="middle" x="476" y="-7.3" font-family="Helvetica,sans-Serif" font-size="9.00">ITable.name</text>
</a>
</g>
</g>
<!-- Node2&#45;&gt;Node9 -->
<g id="edge7" class="edge"><title>Node2&#45;&gt;Node9</title>
<path fill="none" stroke="midnightblue" d="M165.33,-141.304C196.063,-116.2 264.269,-64.1998 331,-38.5 338.151,-35.746 345.621,-33.3078 353.236,-31.1491"/>
<polygon fill="midnightblue" stroke="midnightblue" points="354.184,-34.5188 362.945,-28.5616 352.381,-27.7548 354.184,-34.5188"/>
</g>
</g>
</svg>
