<?xml version="1.0" encoding="UTF-8" standalone="no"?>
<!DOCTYPE svg PUBLIC "-//W3C//DTD SVG 1.1//EN"
 "http://www.w3.org/Graphics/SVG/1.1/DTD/svg11.dtd">
<!-- Generated by graphviz version 2.38.0 (20140413.2041)
 -->
<!-- Title: de.tu_clausthal.in.bachelorproject2018.poker.game.action.CRaise Pages: 1 -->
<svg width="303pt" height="315pt"
 viewBox="0.00 0.00 303.00 315.00" xmlns="http://www.w3.org/2000/svg" xmlns:xlink="http://www.w3.org/1999/xlink">
<g id="graph0" class="graph" transform="scale(1 1) rotate(0) translate(4 311)">
<title>de.tu_clausthal.in.bachelorproject2018.poker.game.action.CRaise</title>
<!-- Node0 -->
<g id="node1" class="node"><title>Node0</title>
<polygon fill="#bfbfbf" stroke="black" points="0,-0.5 0,-104.5 295,-104.5 295,-0.5 0,-0.5"/>
<text text-anchor="start" x="8" y="-93.3" font-family="Helvetica,sans-Serif" font-size="9.00">de.tu_clausthal.in.bachelorproject2018.poker.game.action.</text>
<text text-anchor="middle" x="147.5" y="-83.3" font-family="Helvetica,sans-Serif" font-size="9.00">CRaise</text>
<polyline fill="none" stroke="black" points="0,-76.5 295,-76.5 "/>
<text text-anchor="start" x="8" y="-65.3" font-family="Helvetica,sans-Serif" font-size="9.00">&#45; player</text>
<text text-anchor="start" x="8" y="-55.3" font-family="Helvetica,sans-Serif" font-size="9.00">&#45; raiseValue</text>
<text text-anchor="start" x="8" y="-45.3" font-family="Helvetica,sans-Serif" font-size="9.00">&#45; table</text>
<polyline fill="none" stroke="black" points="0,-38.5 295,-38.5 "/>
<text text-anchor="start" x="8" y="-27.3" font-family="Helvetica,sans-Serif" font-size="9.00">+ CRaise()</text>
<text text-anchor="start" x="8" y="-17.3" font-family="Helvetica,sans-Serif" font-size="9.00">+ accept()</text>
<text text-anchor="start" x="8" y="-7.3" font-family="Helvetica,sans-Serif" font-size="9.00">+ getValue()</text>
</g>
<!-- Node1 -->
<g id="node2" class="node"><title>Node1</title>
<g id="a_node2"><a xlink:href="../../d2/d9f/classde_1_1tu__clausthal_1_1in_1_1bachelorproject2018_1_1poker_1_1game_1_1action_1_1IBaseAction.htm" target="_top" xlink:title="{de.tu_clausthal.in.bachelorproject2018.poker.game.action.\lIBaseAction\n|# m_table\l|# IBaseAction()\l}">
<polygon fill="none" stroke="black" points="0,-141.5 0,-205.5 295,-205.5 295,-141.5 0,-141.5"/>
<text text-anchor="start" x="8" y="-194.3" font-family="Helvetica,sans-Serif" font-size="9.00">de.tu_clausthal.in.bachelorproject2018.poker.game.action.</text>
<text text-anchor="middle" x="147.5" y="-184.3" font-family="Helvetica,sans-Serif" font-size="9.00">IBaseAction</text>
<polyline fill="none" stroke="black" points="0,-177.5 295,-177.5 "/>
<text text-anchor="start" x="8" y="-166.3" font-family="Helvetica,sans-Serif" font-size="9.00"># m_table</text>
<polyline fill="none" stroke="black" points="0,-159.5 295,-159.5 "/>
<text text-anchor="start" x="8" y="-148.3" font-family="Helvetica,sans-Serif" font-size="9.00"># IBaseAction()</text>
</a>
</g>
</g>
<!-- Node1&#45;&gt;Node0 -->
<g id="edge1" class="edge"><title>Node1&#45;&gt;Node0</title>
<path fill="none" stroke="midnightblue" d="M147.5,-131.181C147.5,-122.673 147.5,-113.616 147.5,-104.803"/>
<polygon fill="none" stroke="midnightblue" points="144,-131.234 147.5,-141.234 151,-131.234 144,-131.234"/>
</g>
<!-- Node2 -->
<g id="node3" class="node"><title>Node2</title>
<g id="a_node3"><a xlink:href="../../d0/ded/interfacede_1_1tu__clausthal_1_1in_1_1bachelorproject2018_1_1poker_1_1game_1_1action_1_1IAction.htm" target="_top" xlink:title="Aktionsinterface, um die einzelnen Aktionen des Spielers abzubilden. ">
<polygon fill="none" stroke="black" points="0,-242.5 0,-306.5 295,-306.5 295,-242.5 0,-242.5"/>
<text text-anchor="start" x="8" y="-295.3" font-family="Helvetica,sans-Serif" font-size="9.00">de.tu_clausthal.in.bachelorproject2018.poker.game.action.</text>
<text text-anchor="middle" x="147.5" y="-285.3" font-family="Helvetica,sans-Serif" font-size="9.00">IAction</text>
<polyline fill="none" stroke="black" points="0,-278.5 295,-278.5 "/>
<text text-anchor="middle" x="147.5" y="-267.3" font-family="Helvetica,sans-Serif" font-size="9.00"> </text>
<polyline fill="none" stroke="black" points="0,-260.5 295,-260.5 "/>
<text text-anchor="middle" x="147.5" y="-249.3" font-family="Helvetica,sans-Serif" font-size="9.00"> </text>
</a>
</g>
</g>
<!-- Node2&#45;&gt;Node1 -->
<g id="edge2" class="edge"><title>Node2&#45;&gt;Node1</title>
<path fill="none" stroke="midnightblue" d="M147.5,-232.282C147.5,-223.42 147.5,-214.194 147.5,-205.783"/>
<polygon fill="none" stroke="midnightblue" points="144,-232.447 147.5,-242.447 151,-232.447 144,-232.447"/>
</g>
</g>
</svg>
