<?xml version="1.0" encoding="UTF-8" standalone="no"?>
<!DOCTYPE svg PUBLIC "-//W3C//DTD SVG 1.1//EN"
 "http://www.w3.org/Graphics/SVG/1.1/DTD/svg11.dtd">
<!-- Generated by graphviz version 2.38.0 (20140413.2041)
 -->
<!-- Title: de.tu_clausthal.in.bachelorproject2018.poker.game.action.CRaise Pages: 1 -->
<svg width="612pt" height="406pt"
 viewBox="0.00 0.00 611.50 406.00" xmlns="http://www.w3.org/2000/svg" xmlns:xlink="http://www.w3.org/1999/xlink">
<g id="graph0" class="graph" transform="scale(1 1) rotate(0) translate(4 402)">
<title>de.tu_clausthal.in.bachelorproject2018.poker.game.action.CRaise</title>
<!-- Node3 -->
<g id="node1" class="node"><title>Node3</title>
<polygon fill="#bfbfbf" stroke="black" points="155,-0.5 155,-104.5 450,-104.5 450,-0.5 155,-0.5"/>
<text text-anchor="start" x="163" y="-93.3" font-family="Helvetica,sans-Serif" font-size="9.00">de.tu_clausthal.in.bachelorproject2018.poker.game.action.</text>
<text text-anchor="middle" x="302.5" y="-83.3" font-family="Helvetica,sans-Serif" font-size="9.00">CRaise</text>
<polyline fill="none" stroke="black" points="155,-76.5 450,-76.5 "/>
<text text-anchor="start" x="163" y="-65.3" font-family="Helvetica,sans-Serif" font-size="9.00">&#45; player</text>
<text text-anchor="start" x="163" y="-55.3" font-family="Helvetica,sans-Serif" font-size="9.00">&#45; raiseValue</text>
<text text-anchor="start" x="163" y="-45.3" font-family="Helvetica,sans-Serif" font-size="9.00">&#45; table</text>
<polyline fill="none" stroke="black" points="155,-38.5 450,-38.5 "/>
<text text-anchor="start" x="163" y="-27.3" font-family="Helvetica,sans-Serif" font-size="9.00">+ CRaise()</text>
<text text-anchor="start" x="163" y="-17.3" font-family="Helvetica,sans-Serif" font-size="9.00">+ accept()</text>
<text text-anchor="start" x="163" y="-7.3" font-family="Helvetica,sans-Serif" font-size="9.00">+ getValue()</text>
</g>
<!-- Node4 -->
<g id="node2" class="node"><title>Node4</title>
<g id="a_node2"><a xlink:href="../../d2/d9f/classde_1_1tu__clausthal_1_1in_1_1bachelorproject2018_1_1poker_1_1game_1_1action_1_1IBaseAction.htm" target="_top" xlink:title="{de.tu_clausthal.in.bachelorproject2018.poker.game.action.\lIBaseAction\n||# IBaseAction()\l}">
<polygon fill="none" stroke="black" points="155,-142.5 155,-206.5 450,-206.5 450,-142.5 155,-142.5"/>
<text text-anchor="start" x="163" y="-195.3" font-family="Helvetica,sans-Serif" font-size="9.00">de.tu_clausthal.in.bachelorproject2018.poker.game.action.</text>
<text text-anchor="middle" x="302.5" y="-185.3" font-family="Helvetica,sans-Serif" font-size="9.00">IBaseAction</text>
<polyline fill="none" stroke="black" points="155,-178.5 450,-178.5 "/>
<text text-anchor="middle" x="302.5" y="-167.3" font-family="Helvetica,sans-Serif" font-size="9.00"> </text>
<polyline fill="none" stroke="black" points="155,-160.5 450,-160.5 "/>
<text text-anchor="start" x="163" y="-149.3" font-family="Helvetica,sans-Serif" font-size="9.00"># IBaseAction()</text>
</a>
</g>
</g>
<!-- Node4&#45;&gt;Node3 -->
<g id="edge1" class="edge"><title>Node4&#45;&gt;Node3</title>
<path fill="none" stroke="midnightblue" d="M302.5,-132.171C302.5,-123.272 302.5,-113.764 302.5,-104.544"/>
<polygon fill="none" stroke="midnightblue" points="299,-132.285 302.5,-142.285 306,-132.285 299,-132.285"/>
</g>
<!-- Node5 -->
<g id="node3" class="node"><title>Node5</title>
<g id="a_node3"><a xlink:href="../../d0/ded/interfacede_1_1tu__clausthal_1_1in_1_1bachelorproject2018_1_1poker_1_1game_1_1action_1_1IAction.htm" target="_top" xlink:title="Aktionsinterface, um die einzelnen Aktionen des Spielers abzubilden. ">
<polygon fill="none" stroke="black" points="0,-293.5 0,-357.5 295,-357.5 295,-293.5 0,-293.5"/>
<text text-anchor="start" x="8" y="-346.3" font-family="Helvetica,sans-Serif" font-size="9.00">de.tu_clausthal.in.bachelorproject2018.poker.game.action.</text>
<text text-anchor="middle" x="147.5" y="-336.3" font-family="Helvetica,sans-Serif" font-size="9.00">IAction</text>
<polyline fill="none" stroke="black" points="0,-329.5 295,-329.5 "/>
<text text-anchor="middle" x="147.5" y="-318.3" font-family="Helvetica,sans-Serif" font-size="9.00"> </text>
<polyline fill="none" stroke="black" points="0,-311.5 295,-311.5 "/>
<text text-anchor="middle" x="147.5" y="-300.3" font-family="Helvetica,sans-Serif" font-size="9.00"> </text>
</a>
</g>
</g>
<!-- Node5&#45;&gt;Node4 -->
<g id="edge2" class="edge"><title>Node5&#45;&gt;Node4</title>
<path fill="none" stroke="midnightblue" d="M187.367,-286.176C213.038,-261.499 245.983,-229.829 270.05,-206.694"/>
<polygon fill="none" stroke="midnightblue" points="184.777,-283.811 179.993,-293.265 189.628,-288.858 184.777,-283.811"/>
</g>
<!-- Node6 -->
<g id="node4" class="node"><title>Node6</title>
<g id="a_node4"><a xlink:href="../../d5/d36/interfacede_1_1tu__clausthal_1_1in_1_1bachelorproject2018_1_1poker_1_1game_1_1table_1_1ITable.htm" target="_top" xlink:title="Interface um einen Spieletisch darzustellen. ">
<polygon fill="none" stroke="black" points="313.5,-253.5 313.5,-397.5 603.5,-397.5 603.5,-253.5 313.5,-253.5"/>
<text text-anchor="start" x="321.5" y="-386.3" font-family="Helvetica,sans-Serif" font-size="9.00">de.tu_clausthal.in.bachelorproject2018.poker.game.table.</text>
<text text-anchor="middle" x="458.5" y="-376.3" font-family="Helvetica,sans-Serif" font-size="9.00">ITable</text>
<polyline fill="none" stroke="black" points="313.5,-369.5 603.5,-369.5 "/>
<text text-anchor="middle" x="458.5" y="-358.3" font-family="Helvetica,sans-Serif" font-size="9.00"> </text>
<polyline fill="none" stroke="black" points="313.5,-351.5 603.5,-351.5 "/>
<text text-anchor="start" x="321.5" y="-340.3" font-family="Helvetica,sans-Serif" font-size="9.00">+ getGameHub()</text>
<text text-anchor="start" x="321.5" y="-330.3" font-family="Helvetica,sans-Serif" font-size="9.00">+ getQueue()</text>
<text text-anchor="start" x="321.5" y="-320.3" font-family="Helvetica,sans-Serif" font-size="9.00">+ isplaying()</text>
<text text-anchor="start" x="321.5" y="-310.3" font-family="Helvetica,sans-Serif" font-size="9.00">+ join()</text>
<text text-anchor="start" x="321.5" y="-300.3" font-family="Helvetica,sans-Serif" font-size="9.00">+ leave()</text>
<text text-anchor="start" x="321.5" y="-290.3" font-family="Helvetica,sans-Serif" font-size="9.00">+ list()</text>
<text text-anchor="start" x="321.5" y="-280.3" font-family="Helvetica,sans-Serif" font-size="9.00">+ name()</text>
<text text-anchor="start" x="321.5" y="-270.3" font-family="Helvetica,sans-Serif" font-size="9.00">+ owner()</text>
<text text-anchor="start" x="321.5" y="-260.3" font-family="Helvetica,sans-Serif" font-size="9.00">+ start()</text>
</a>
</g>
</g>
<!-- Node6&#45;&gt;Node4 -->
<g id="edge3" class="edge"><title>Node6&#45;&gt;Node4</title>
<path fill="none" stroke="#404040" d="M384.155,-253.491C370.262,-240.222 356.215,-226.805 343.78,-214.928"/>
<polygon fill="none" stroke="#404040" points="343.714,-214.865 336.613,-213.613 335.037,-206.577 342.138,-207.828 343.714,-214.865"/>
<text text-anchor="middle" x="386.5" y="-227.8" font-family="Helvetica,sans-Serif" font-size="9.00"> #m_table</text>
</g>
</g>
</svg>
