<?xml version="1.0" encoding="UTF-8" standalone="no"?>
<!DOCTYPE svg PUBLIC "-//W3C//DTD SVG 1.1//EN"
 "http://www.w3.org/Graphics/SVG/1.1/DTD/svg11.dtd">
<!-- Generated by graphviz version 2.38.0 (20140413.2041)
 -->
<!-- Title: de.tu_clausthal.in.bachelorproject2018.poker.game.action.CCheck.accept Pages: 1 -->
<svg width="632pt" height="319pt"
 viewBox="0.00 0.00 632.00 319.00" xmlns="http://www.w3.org/2000/svg" xmlns:xlink="http://www.w3.org/1999/xlink">
<g id="graph0" class="graph" transform="scale(1 1) rotate(0) translate(4 315)">
<title>de.tu_clausthal.in.bachelorproject2018.poker.game.action.CCheck.accept</title>
<!-- Node2 -->
<g id="node1" class="node"><title>Node2</title>
<polygon fill="#bfbfbf" stroke="black" points="0,-141.5 0,-169.5 295,-169.5 295,-141.5 0,-141.5"/>
<text text-anchor="start" x="8" y="-158.3" font-family="Helvetica,sans-Serif" font-size="9.00">de.tu_clausthal.in.bachelorproject2018.poker.game.action.</text>
<text text-anchor="middle" x="147.5" y="-148.3" font-family="Helvetica,sans-Serif" font-size="9.00">CCheck.accept</text>
</g>
<!-- Node3 -->
<g id="node2" class="node"><title>Node3</title>
<g id="a_node2"><a xlink:href="../../d2/d11/interfacede_1_1tu__clausthal_1_1in_1_1bachelorproject2018_1_1poker_1_1game_1_1player_1_1IPlayer.htm#a84304773c087598ba9f236f99eed028e" target="_top" xlink:title="de.tu_clausthal.in.bachelorproject2018.poker.game.player.\lIPlayer.check">
<polygon fill="none" stroke="black" points="331,-282.5 331,-310.5 624,-310.5 624,-282.5 331,-282.5"/>
<text text-anchor="start" x="339" y="-299.3" font-family="Helvetica,sans-Serif" font-size="9.00">de.tu_clausthal.in.bachelorproject2018.poker.game.player.</text>
<text text-anchor="middle" x="477.5" y="-289.3" font-family="Helvetica,sans-Serif" font-size="9.00">IPlayer.check</text>
</a>
</g>
</g>
<!-- Node2&#45;&gt;Node3 -->
<g id="edge1" class="edge"><title>Node2&#45;&gt;Node3</title>
<path fill="none" stroke="midnightblue" d="M165.285,-169.878C195.948,-195.294 264.045,-247.886 331,-273.5 336.957,-275.779 343.133,-277.832 349.431,-279.681"/>
<polygon fill="midnightblue" stroke="midnightblue" points="348.842,-283.149 359.412,-282.424 350.697,-276.399 348.842,-283.149"/>
</g>
<!-- Node4 -->
<g id="node3" class="node"><title>Node4</title>
<g id="a_node3"><a xlink:href="../../da/d48/classde_1_1tu__clausthal_1_1in_1_1bachelorproject2018_1_1poker_1_1game_1_1hubs_1_1GameHub.htm#a70d72ce0a72b5c0e490bf935258b69f4" target="_top" xlink:title="getter for the chipsHandler ">
<polygon fill="none" stroke="black" points="333,-235.5 333,-263.5 622,-263.5 622,-235.5 333,-235.5"/>
<text text-anchor="start" x="341" y="-252.3" font-family="Helvetica,sans-Serif" font-size="9.00">de.tu_clausthal.in.bachelorproject2018.poker.game.hubs.</text>
<text text-anchor="middle" x="477.5" y="-242.3" font-family="Helvetica,sans-Serif" font-size="9.00">GameHub.getChipsHandler</text>
</a>
</g>
</g>
<!-- Node2&#45;&gt;Node4 -->
<g id="edge2" class="edge"><title>Node2&#45;&gt;Node4</title>
<path fill="none" stroke="midnightblue" d="M178.823,-169.62C214.496,-185.68 275.862,-211.602 331,-226.5 340.536,-229.077 350.507,-231.399 360.564,-233.486"/>
<polygon fill="midnightblue" stroke="midnightblue" points="360.145,-236.972 370.637,-235.495 361.514,-230.107 360.145,-236.972"/>
</g>
<!-- Node5 -->
<g id="node4" class="node"><title>Node5</title>
<g id="a_node4"><a xlink:href="../../d5/d36/interfacede_1_1tu__clausthal_1_1in_1_1bachelorproject2018_1_1poker_1_1game_1_1table_1_1ITable.htm#ad5910542f67b66837a7e3c326d22a671" target="_top" xlink:title="de.tu_clausthal.in.bachelorproject2018.poker.game.table.\lITable.getGameHub">
<polygon fill="none" stroke="black" points="332.5,-188.5 332.5,-216.5 622.5,-216.5 622.5,-188.5 332.5,-188.5"/>
<text text-anchor="start" x="340.5" y="-205.3" font-family="Helvetica,sans-Serif" font-size="9.00">de.tu_clausthal.in.bachelorproject2018.poker.game.table.</text>
<text text-anchor="middle" x="477.5" y="-195.3" font-family="Helvetica,sans-Serif" font-size="9.00">ITable.getGameHub</text>
</a>
</g>
</g>
<!-- Node2&#45;&gt;Node5 -->
<g id="edge3" class="edge"><title>Node2&#45;&gt;Node5</title>
<path fill="none" stroke="midnightblue" d="M246.467,-169.538C285.013,-175.061 329.401,-181.422 368.841,-187.073"/>
<polygon fill="midnightblue" stroke="midnightblue" points="368.36,-190.54 378.755,-188.494 369.353,-183.611 368.36,-190.54"/>
</g>
<!-- Node6 -->
<g id="node5" class="node"><title>Node6</title>
<g id="a_node5"><a xlink:href="../../d2/d11/interfacede_1_1tu__clausthal_1_1in_1_1bachelorproject2018_1_1poker_1_1game_1_1player_1_1IPlayer.htm#aeab0d6e898c99016fe7a79384319dc8f" target="_top" xlink:title="liefert den Namen des Spielers ">
<polygon fill="none" stroke="black" points="331,-141.5 331,-169.5 624,-169.5 624,-141.5 331,-141.5"/>
<text text-anchor="start" x="339" y="-158.3" font-family="Helvetica,sans-Serif" font-size="9.00">de.tu_clausthal.in.bachelorproject2018.poker.game.player.</text>
<text text-anchor="middle" x="477.5" y="-148.3" font-family="Helvetica,sans-Serif" font-size="9.00">IPlayer.getName</text>
</a>
</g>
</g>
<!-- Node2&#45;&gt;Node6 -->
<g id="edge4" class="edge"><title>Node2&#45;&gt;Node6</title>
<path fill="none" stroke="midnightblue" d="M295.232,-155.5C303.752,-155.5 312.335,-155.5 320.888,-155.5"/>
<polygon fill="midnightblue" stroke="midnightblue" points="320.909,-159 330.909,-155.5 320.909,-152 320.909,-159"/>
</g>
<!-- Node7 -->
<g id="node6" class="node"><title>Node7</title>
<g id="a_node6"><a xlink:href="../../dd/dfe/classde_1_1tu__clausthal_1_1in_1_1bachelorproject2018_1_1poker_1_1game_1_1hubs_1_1ChipsHandling.htm#a937e5df176dcec5581d24aa6d4f716d4" target="_top" xlink:title="getter für newRound ">
<polygon fill="none" stroke="black" points="333,-94.5 333,-122.5 622,-122.5 622,-94.5 333,-94.5"/>
<text text-anchor="start" x="341" y="-111.3" font-family="Helvetica,sans-Serif" font-size="9.00">de.tu_clausthal.in.bachelorproject2018.poker.game.hubs.</text>
<text text-anchor="middle" x="477.5" y="-101.3" font-family="Helvetica,sans-Serif" font-size="9.00">ChipsHandling.getNewRound</text>
</a>
</g>
</g>
<!-- Node2&#45;&gt;Node7 -->
<g id="edge5" class="edge"><title>Node2&#45;&gt;Node7</title>
<path fill="none" stroke="midnightblue" d="M246.467,-141.462C285.013,-135.939 329.401,-129.578 368.841,-123.927"/>
<polygon fill="midnightblue" stroke="midnightblue" points="369.353,-127.389 378.755,-122.506 368.36,-120.46 369.353,-127.389"/>
</g>
<!-- Node8 -->
<g id="node7" class="node"><title>Node8</title>
<g id="a_node7"><a xlink:href="../../d5/d36/interfacede_1_1tu__clausthal_1_1in_1_1bachelorproject2018_1_1poker_1_1game_1_1table_1_1ITable.htm#aea3baa21f8e4e6c85f09e355851c5d9f" target="_top" xlink:title="de.tu_clausthal.in.bachelorproject2018.poker.game.table.\lITable.getQueue">
<polygon fill="none" stroke="black" points="332.5,-47.5 332.5,-75.5 622.5,-75.5 622.5,-47.5 332.5,-47.5"/>
<text text-anchor="start" x="340.5" y="-64.3" font-family="Helvetica,sans-Serif" font-size="9.00">de.tu_clausthal.in.bachelorproject2018.poker.game.table.</text>
<text text-anchor="middle" x="477.5" y="-54.3" font-family="Helvetica,sans-Serif" font-size="9.00">ITable.getQueue</text>
</a>
</g>
</g>
<!-- Node2&#45;&gt;Node8 -->
<g id="edge6" class="edge"><title>Node2&#45;&gt;Node8</title>
<path fill="none" stroke="midnightblue" d="M179.504,-141.38C215.307,-125.604 276.305,-100.335 331,-85.5 341.893,-82.5453 353.35,-79.8966 364.852,-77.536"/>
<polygon fill="midnightblue" stroke="midnightblue" points="365.829,-80.9105 374.959,-75.5352 364.47,-74.0438 365.829,-80.9105"/>
</g>
<!-- Node9 -->
<g id="node8" class="node"><title>Node9</title>
<g id="a_node8"><a xlink:href="../../d5/d36/interfacede_1_1tu__clausthal_1_1in_1_1bachelorproject2018_1_1poker_1_1game_1_1table_1_1ITable.htm#a442079183a6b0e75a07ee8549947f929" target="_top" xlink:title="Name des Tisches. ">
<polygon fill="none" stroke="black" points="332.5,-0.5 332.5,-28.5 622.5,-28.5 622.5,-0.5 332.5,-0.5"/>
<text text-anchor="start" x="340.5" y="-17.3" font-family="Helvetica,sans-Serif" font-size="9.00">de.tu_clausthal.in.bachelorproject2018.poker.game.table.</text>
<text text-anchor="middle" x="477.5" y="-7.3" font-family="Helvetica,sans-Serif" font-size="9.00">ITable.name</text>
</a>
</g>
</g>
<!-- Node2&#45;&gt;Node9 -->
<g id="edge7" class="edge"><title>Node2&#45;&gt;Node9</title>
<path fill="none" stroke="midnightblue" d="M165.326,-141.293C196.052,-116.171 264.248,-64.144 331,-38.5 338.142,-35.7564 345.599,-33.3263 353.2,-31.1739"/>
<polygon fill="midnightblue" stroke="midnightblue" points="354.13,-34.5484 362.892,-28.5934 352.329,-27.784 354.13,-34.5484"/>
</g>
</g>
</svg>
