<?xml version="1.0" encoding="UTF-8" standalone="no"?>
<!DOCTYPE svg PUBLIC "-//W3C//DTD SVG 1.1//EN"
 "http://www.w3.org/Graphics/SVG/1.1/DTD/svg11.dtd">
<!-- Generated by graphviz version 2.38.0 (20140413.2041)
 -->
<!-- Title: de.tu_clausthal.in.bachelorproject2018.poker.network.gamestate.messages.CNotifyMessage Pages: 1 -->
<svg width="387pt" height="224pt"
 viewBox="0.00 0.00 387.00 224.00" xmlns="http://www.w3.org/2000/svg" xmlns:xlink="http://www.w3.org/1999/xlink">
<g id="graph0" class="graph" transform="scale(1 1) rotate(0) translate(4 220)">
<title>de.tu_clausthal.in.bachelorproject2018.poker.network.gamestate.messages.CNotifyMessage</title>
<!-- Node0 -->
<g id="node1" class="node"><title>Node0</title>
<polygon fill="#bfbfbf" stroke="black" points="-2.84217e-14,-0.5 -2.84217e-14,-114.5 379,-114.5 379,-0.5 -2.84217e-14,-0.5"/>
<text text-anchor="start" x="8" y="-103.3" font-family="Helvetica,sans-Serif" font-size="9.00">de.tu_clausthal.in.bachelorproject2018.poker.network.gamestate.messages.</text>
<text text-anchor="middle" x="189.5" y="-93.3" font-family="Helvetica,sans-Serif" font-size="9.00">CNotifyMessage</text>
<polyline fill="none" stroke="black" points="-2.84217e-14,-86.5 379,-86.5 "/>
<text text-anchor="start" x="8" y="-75.3" font-family="Helvetica,sans-Serif" font-size="9.00">&#45; m_player</text>
<text text-anchor="start" x="8" y="-65.3" font-family="Helvetica,sans-Serif" font-size="9.00">&#45; m_table</text>
<text text-anchor="start" x="8" y="-55.3" font-family="Helvetica,sans-Serif" font-size="9.00">&#45; m_text</text>
<polyline fill="none" stroke="black" points="-2.84217e-14,-48.5 379,-48.5 "/>
<text text-anchor="start" x="8" y="-37.3" font-family="Helvetica,sans-Serif" font-size="9.00">+ CNotifyMessage()</text>
<text text-anchor="start" x="8" y="-27.3" font-family="Helvetica,sans-Serif" font-size="9.00">+ getPlayer()</text>
<text text-anchor="start" x="8" y="-17.3" font-family="Helvetica,sans-Serif" font-size="9.00">+ getTable()</text>
<text text-anchor="start" x="8" y="-7.3" font-family="Helvetica,sans-Serif" font-size="9.00">+ getText()</text>
</g>
<!-- Node1 -->
<g id="node2" class="node"><title>Node1</title>
<g id="a_node2"><a xlink:href="../../d9/d5d/interfacede_1_1tu__clausthal_1_1in_1_1bachelorproject2018_1_1poker_1_1network_1_1gamestate_1_1messages_1_1IGamestateMessage.htm" target="_top" xlink:title="{de.tu_clausthal.in.bachelorproject2018.poker.network.gamestate.messages.\lIGamestateMessage\n||}">
<polygon fill="none" stroke="black" points="-2.84217e-14,-151.5 -2.84217e-14,-215.5 379,-215.5 379,-151.5 -2.84217e-14,-151.5"/>
<text text-anchor="start" x="8" y="-204.3" font-family="Helvetica,sans-Serif" font-size="9.00">de.tu_clausthal.in.bachelorproject2018.poker.network.gamestate.messages.</text>
<text text-anchor="middle" x="189.5" y="-194.3" font-family="Helvetica,sans-Serif" font-size="9.00">IGamestateMessage</text>
<polyline fill="none" stroke="black" points="-2.84217e-14,-187.5 379,-187.5 "/>
<text text-anchor="middle" x="189.5" y="-176.3" font-family="Helvetica,sans-Serif" font-size="9.00"> </text>
<polyline fill="none" stroke="black" points="-2.84217e-14,-169.5 379,-169.5 "/>
<text text-anchor="middle" x="189.5" y="-158.3" font-family="Helvetica,sans-Serif" font-size="9.00"> </text>
</a>
</g>
</g>
<!-- Node1&#45;&gt;Node0 -->
<g id="edge1" class="edge"><title>Node1&#45;&gt;Node0</title>
<path fill="none" stroke="midnightblue" d="M189.5,-140.962C189.5,-132.594 189.5,-123.665 189.5,-114.887"/>
<polygon fill="none" stroke="midnightblue" points="186,-141.21 189.5,-151.21 193,-141.21 186,-141.21"/>
</g>
</g>
</svg>
