<?xml version="1.0" encoding="UTF-8" standalone="no"?>
<!DOCTYPE svg PUBLIC "-//W3C//DTD SVG 1.1//EN"
 "http://www.w3.org/Graphics/SVG/1.1/DTD/svg11.dtd">
<!-- Generated by graphviz version 2.38.0 (20140413.2041)
 -->
<!-- Title: de.tu_clausthal.in.bachelorproject2018.poker.game.wincheck.CFlush.apply Pages: 1 -->
<!--zoomable 272 -->
<svg id="main" version="1.1" xmlns="http://www.w3.org/2000/svg" xmlns:xlink="http://www.w3.org/1999/xlink" xml:space="preserve" onload="init(evt)">
<style type="text/css"><![CDATA[
.edge:hover path { stroke: red; }
.edge:hover polygon { stroke: red; fill: red; }
]]></style>
<script type="text/javascript"><![CDATA[
var edges = document.getElementsByTagName('g');
if (edges && edges.length) {
  for (var i=0;i<edges.length;i++) {
    if (edges[i].id.substr(0,4)=='edge') {
      edges[i].setAttribute('class','edge');
    }
  }
}
]]></script>
        <defs>
                <circle id="rim" cx="0" cy="0" r="7"/>
                <circle id="rim2" cx="0" cy="0" r="3.5"/>
                <g id="zoomPlus">
                        <use xlink:href="#rim" fill="#404040">
                                <set attributeName="fill" to="#808080" begin="zoomplus.mouseover" end="zoomplus.mouseout"/>
                        </use>
                        <path d="M-4,0h8M0,-4v8" fill="none" stroke="white" stroke-width="1.5" pointer-events="none"/>
                </g>
                <g id="zoomMin">
                        <use xlink:href="#rim" fill="#404040">
                                <set attributeName="fill" to="#808080" begin="zoomminus.mouseover" end="zoomminus.mouseout"/>
                        </use>
                        <path d="M-4,0h8" fill="none" stroke="white" stroke-width="1.5" pointer-events="none"/>
                </g>
                <g id="dirArrow">
                        <path fill="none" stroke="white" stroke-width="1.5" d="M0,-3.0v7 M-2.5,-0.5L0,-3.0L2.5,-0.5"/>
                </g>
               <g id="resetDef">
                       <use xlink:href="#rim2" fill="#404040">
                               <set attributeName="fill" to="#808080" begin="reset.mouseover" end="reset.mouseout"/>
                       </use>
               </g>
        </defs>

<script type="text/javascript">
var viewWidth = 660;
var viewHeight = 272;
var sectionId = 'dynsection-2';
</script>
<script xlink:href="../../svgpan.js"/>
<svg id="graph" class="graph">
<g id="viewport">
<title>de.tu_clausthal.in.bachelorproject2018.poker.game.wincheck.CFlush.apply</title>
<!-- Node2 -->
<g id="node1" class="node"><title>Node2</title>
<polygon fill="#bfbfbf" stroke="black" points="0,-117.5 0,-145.5 308,-145.5 308,-117.5 0,-117.5"/>
<text text-anchor="start" x="8" y="-134.3" font-family="Helvetica,sans-Serif" font-size="9.00">de.tu_clausthal.in.bachelorproject2018.poker.game.wincheck.</text>
<text text-anchor="middle" x="154" y="-124.3" font-family="Helvetica,sans-Serif" font-size="9.00">CFlush.apply</text>
</g>
<!-- Node3 -->
<g id="node2" class="node"><title>Node3</title>
<g id="a_node2"><a xlink:href="../../d7/d8f/classde_1_1tu__clausthal_1_1in_1_1bachelorproject2018_1_1poker_1_1game_1_1player_1_1PlayerHand.htm#a83a1c81e88463a2c63f627aba6bbdfa4" target="_top" xlink:title="getter for handcards ">
<polygon fill="none" stroke="black" points="351.5,-235.5 351.5,-263.5 644.5,-263.5 644.5,-235.5 351.5,-235.5"/>
<text text-anchor="start" x="359.5" y="-252.3" font-family="Helvetica,sans-Serif" font-size="9.00">de.tu_clausthal.in.bachelorproject2018.poker.game.player.</text>
<text text-anchor="middle" x="498" y="-242.3" font-family="Helvetica,sans-Serif" font-size="9.00">PlayerHand.getHandCards</text>
</a>
</g>
</g>
<!-- Node2&#45;&gt;Node3 -->
<g id="edge1" class="edge"><title>Node2&#45;&gt;Node3</title>
<path fill="none" stroke="midnightblue" d="M177.278,-145.654C211.645,-166.789 280.296,-206.27 344,-226.5 351.912,-229.013 360.144,-231.254 368.503,-233.252"/>
<polygon fill="midnightblue" stroke="midnightblue" points="367.836,-236.69 378.363,-235.489 369.385,-229.863 367.836,-236.69"/>
</g>
<!-- Node4 -->
<g id="node3" class="node"><title>Node4</title>
<g id="a_node3"><a xlink:href="../../d3/ddc/classde_1_1tu__clausthal_1_1in_1_1bachelorproject2018_1_1poker_1_1game_1_1wincheck_1_1HandStatistic.htm#a944fb2841e119c5b86a58c9e7499e24f" target="_top" xlink:title="getter for handevaluation ">
<polygon fill="none" stroke="black" points="344,-188.5 344,-216.5 652,-216.5 652,-188.5 344,-188.5"/>
<text text-anchor="start" x="352" y="-205.3" font-family="Helvetica,sans-Serif" font-size="9.00">de.tu_clausthal.in.bachelorproject2018.poker.game.wincheck.</text>
<text text-anchor="middle" x="498" y="-195.3" font-family="Helvetica,sans-Serif" font-size="9.00">HandStatistic.getHandEvaluation</text>
</a>
</g>
</g>
<!-- Node2&#45;&gt;Node4 -->
<g id="edge2" class="edge"><title>Node2&#45;&gt;Node4</title>
<path fill="none" stroke="midnightblue" d="M204.829,-145.599C242.758,-155.979 296.378,-169.898 344,-179.5 357.031,-182.127 370.741,-184.598 384.381,-186.875"/>
<polygon fill="midnightblue" stroke="midnightblue" points="383.856,-190.336 394.29,-188.499 384.988,-183.428 383.856,-190.336"/>
</g>
<!-- Node5 -->
<g id="node4" class="node"><title>Node5</title>
<g id="a_node4"><a xlink:href="../../d3/ddc/classde_1_1tu__clausthal_1_1in_1_1bachelorproject2018_1_1poker_1_1game_1_1wincheck_1_1HandStatistic.htm#a783929e94fdd7e98ac8efdaf5ca6f46d" target="_top" xlink:title="de.tu_clausthal.in.bachelorproject2018.poker.game.wincheck.\lHandStatistic.getPlayer">
<polygon fill="none" stroke="black" points="344,-141.5 344,-169.5 652,-169.5 652,-141.5 344,-141.5"/>
<text text-anchor="start" x="352" y="-158.3" font-family="Helvetica,sans-Serif" font-size="9.00">de.tu_clausthal.in.bachelorproject2018.poker.game.wincheck.</text>
<text text-anchor="middle" x="498" y="-148.3" font-family="Helvetica,sans-Serif" font-size="9.00">HandStatistic.getPlayer</text>
</a>
</g>
</g>
<!-- Node2&#45;&gt;Node5 -->
<g id="edge3" class="edge"><title>Node2&#45;&gt;Node5</title>
<path fill="none" stroke="midnightblue" d="M308.493,-142.271C316.825,-142.856 325.213,-143.445 333.577,-144.032"/>
<polygon fill="midnightblue" stroke="midnightblue" points="333.541,-147.538 343.762,-144.746 334.032,-140.555 333.541,-147.538"/>
</g>
<!-- Node6 -->
<g id="node5" class="node"><title>Node6</title>
<g id="a_node5"><a xlink:href="../../d2/d11/interfacede_1_1tu__clausthal_1_1in_1_1bachelorproject2018_1_1poker_1_1game_1_1player_1_1IPlayer.htm#a43957d175395fb827a5b6fdd530bdd48" target="_top" xlink:title="de.tu_clausthal.in.bachelorproject2018.poker.game.player.\lIPlayer.getPlayerhand">
<polygon fill="none" stroke="black" points="351.5,-94.5 351.5,-122.5 644.5,-122.5 644.5,-94.5 351.5,-94.5"/>
<text text-anchor="start" x="359.5" y="-111.3" font-family="Helvetica,sans-Serif" font-size="9.00">de.tu_clausthal.in.bachelorproject2018.poker.game.player.</text>
<text text-anchor="middle" x="498" y="-101.3" font-family="Helvetica,sans-Serif" font-size="9.00">IPlayer.getPlayerhand</text>
</a>
</g>
</g>
<!-- Node2&#45;&gt;Node6 -->
<g id="edge4" class="edge"><title>Node2&#45;&gt;Node6</title>
<path fill="none" stroke="midnightblue" d="M308.493,-121.177C319.438,-120.441 330.479,-119.699 341.434,-118.962"/>
<polygon fill="midnightblue" stroke="midnightblue" points="341.724,-122.451 351.467,-118.287 341.254,-115.466 341.724,-122.451"/>
</g>
<!-- Node7 -->
<g id="node6" class="node"><title>Node7</title>
<g id="a_node6"><a xlink:href="../../d3/ddc/classde_1_1tu__clausthal_1_1in_1_1bachelorproject2018_1_1poker_1_1game_1_1wincheck_1_1HandStatistic.htm#acb866eb9bdd48b75aac15d8de9918ea4" target="_top" xlink:title="de.tu_clausthal.in.bachelorproject2018.poker.game.wincheck.\lHandStatistic.isStraight">
<polygon fill="none" stroke="black" points="344,-47.5 344,-75.5 652,-75.5 652,-47.5 344,-47.5"/>
<text text-anchor="start" x="352" y="-64.3" font-family="Helvetica,sans-Serif" font-size="9.00">de.tu_clausthal.in.bachelorproject2018.poker.game.wincheck.</text>
<text text-anchor="middle" x="498" y="-54.3" font-family="Helvetica,sans-Serif" font-size="9.00">HandStatistic.isStraight</text>
</a>
</g>
</g>
<!-- Node2&#45;&gt;Node7 -->
<g id="edge5" class="edge"><title>Node2&#45;&gt;Node7</title>
<path fill="none" stroke="midnightblue" d="M207.692,-117.43C245.459,-107.651 297.637,-94.7616 344,-85.5 358.707,-82.562 374.27,-79.7648 389.616,-77.1866"/>
<polygon fill="midnightblue" stroke="midnightblue" points="390.364,-80.6105 399.658,-75.5248 389.221,-73.7045 390.364,-80.6105"/>
</g>
<!-- Node8 -->
<g id="node7" class="node"><title>Node8</title>
<g id="a_node7"><a xlink:href="../../d3/ddc/classde_1_1tu__clausthal_1_1in_1_1bachelorproject2018_1_1poker_1_1game_1_1wincheck_1_1HandStatistic.htm#a95c386b245a125664f9d2f82b412fcb0" target="_top" xlink:title="set the handevaluation elements to a certain value, used by winevaluation ">
<polygon fill="none" stroke="black" points="344,-0.5 344,-28.5 652,-28.5 652,-0.5 344,-0.5"/>
<text text-anchor="start" x="352" y="-17.3" font-family="Helvetica,sans-Serif" font-size="9.00">de.tu_clausthal.in.bachelorproject2018.poker.game.wincheck.</text>
<text text-anchor="middle" x="498" y="-7.3" font-family="Helvetica,sans-Serif" font-size="9.00">HandStatistic.setHandEvaluation</text>
</a>
</g>
</g>
<!-- Node2&#45;&gt;Node8 -->
<g id="edge6" class="edge"><title>Node2&#45;&gt;Node8</title>
<path fill="none" stroke="midnightblue" d="M177.911,-117.372C212.543,-96.6898 280.892,-58.4675 344,-38.5 353.229,-35.5801 362.887,-33.0068 372.672,-30.7403"/>
<polygon fill="midnightblue" stroke="midnightblue" points="373.478,-34.147 382.489,-28.5747 371.969,-27.3113 373.478,-34.147"/>
</g>
</g>
</svg>
        <g id="navigator" transform="translate(0 0)" fill="#404254">
                <rect fill="#f2f5e9" fill-opacity="0.5" stroke="#606060" stroke-width=".5" x="0" y="0" width="60" height="60"/>
                <use id="zoomplus" xlink:href="#zoomPlus" x="17" y="9" onmousedown="handleZoom(evt,'in')"/>
                <use id="zoomminus" xlink:href="#zoomMin" x="42" y="9" onmousedown="handleZoom(evt,'out')"/>
                <use id="reset" xlink:href="#resetDef" x="30" y="36" onmousedown="handleReset()"/>
                <g id="arrowUp" xlink:href="#dirArrow" transform="translate(30 24)" onmousedown="handlePan(0,-1)">
                  <use xlink:href="#rim" fill="#404040">
                        <set attributeName="fill" to="#808080" begin="arrowUp.mouseover" end="arrowUp.mouseout"/>
                  </use>
                  <path fill="none" stroke="white" stroke-width="1.5" d="M0,-3.0v7 M-2.5,-0.5L0,-3.0L2.5,-0.5"/>
                </g>
                <g id="arrowRight" xlink:href="#dirArrow" transform="rotate(90) translate(36 -43)" onmousedown="handlePan(1,0)">
                  <use xlink:href="#rim" fill="#404040">
                        <set attributeName="fill" to="#808080" begin="arrowRight.mouseover" end="arrowRight.mouseout"/>
                  </use>
                  <path fill="none" stroke="white" stroke-width="1.5" d="M0,-3.0v7 M-2.5,-0.5L0,-3.0L2.5,-0.5"/>
                </g>
                <g id="arrowDown" xlink:href="#dirArrow" transform="rotate(180) translate(-30 -48)" onmousedown="handlePan(0,1)">
                  <use xlink:href="#rim" fill="#404040">
                        <set attributeName="fill" to="#808080" begin="arrowDown.mouseover" end="arrowDown.mouseout"/>
                  </use>
                  <path fill="none" stroke="white" stroke-width="1.5" d="M0,-3.0v7 M-2.5,-0.5L0,-3.0L2.5,-0.5"/>
                </g>
                <g id="arrowLeft" xlink:href="#dirArrow" transform="rotate(270) translate(-36 17)" onmousedown="handlePan(-1,0)">
                  <use xlink:href="#rim" fill="#404040">
                        <set attributeName="fill" to="#808080" begin="arrowLeft.mouseover" end="arrowLeft.mouseout"/>
                  </use>
                  <path fill="none" stroke="white" stroke-width="1.5" d="M0,-3.0v7 M-2.5,-0.5L0,-3.0L2.5,-0.5"/>
                </g>
        </g>
        <svg viewBox="0 0 15 15" width="100%" height="30px" preserveAspectRatio="xMaxYMin meet">
         <g id="arrow_out" transform="scale(0.3 0.3)">
          <a xlink:href="classde_1_1tu__clausthal_1_1in_1_1bachelorproject2018_1_1poker_1_1game_1_1wincheck_1_1CFlush_ae27a53ac720911d236b90858f1030062_cgraph_org.svg" target="_base">
           <rect id="button" ry="5" rx="5" y="6" x="6" height="38" width="38"
                fill="#f2f5e9" fill-opacity="0.5" stroke="#606060" stroke-width="1.0"/>
           <path id="arrow"
             d="M 11.500037,31.436501 C 11.940474,20.09759 22.043105,11.32322 32.158766,21.979434 L 37.068811,17.246167 C 37.068811,17.246167 37.088388,32 37.088388,32 L 22.160133,31.978069 C 22.160133,31.978069 26.997745,27.140456 26.997745,27.140456 C 18.528582,18.264221 13.291696,25.230495 11.500037,31.436501 z"
             style="fill:#404040;"/>
          </a>
         </g>
        </svg>
</svg>
