<?xml version="1.0" encoding="UTF-8" standalone="no"?>
<!DOCTYPE svg PUBLIC "-//W3C//DTD SVG 1.1//EN"
 "http://www.w3.org/Graphics/SVG/1.1/DTD/svg11.dtd">
<!-- Generated by graphviz version 2.38.0 (20140413.2041)
 -->
<!-- Title: de.tu_clausthal.in.bachelorproject2018.poker.game.wincheck.CFlush.apply Pages: 1 -->
<svg width="660pt" height="272pt"
 viewBox="0.00 0.00 660.00 272.00" xmlns="http://www.w3.org/2000/svg" xmlns:xlink="http://www.w3.org/1999/xlink">
<g id="graph0" class="graph" transform="scale(1 1) rotate(0) translate(4 268)">
<title>de.tu_clausthal.in.bachelorproject2018.poker.game.wincheck.CFlush.apply</title>
<!-- Node2 -->
<g id="node1" class="node"><title>Node2</title>
<polygon fill="#bfbfbf" stroke="black" points="0,-117.5 0,-145.5 308,-145.5 308,-117.5 0,-117.5"/>
<text text-anchor="start" x="8" y="-134.3" font-family="Helvetica,sans-Serif" font-size="9.00">de.tu_clausthal.in.bachelorproject2018.poker.game.wincheck.</text>
<text text-anchor="middle" x="154" y="-124.3" font-family="Helvetica,sans-Serif" font-size="9.00">CFlush.apply</text>
</g>
<!-- Node3 -->
<g id="node2" class="node"><title>Node3</title>
<g id="a_node2"><a xlink:href="../../d7/d8f/classde_1_1tu__clausthal_1_1in_1_1bachelorproject2018_1_1poker_1_1game_1_1player_1_1PlayerHand.htm#a83a1c81e88463a2c63f627aba6bbdfa4" target="_top" xlink:title="getter for handcards ">
<polygon fill="none" stroke="black" points="351.5,-235.5 351.5,-263.5 644.5,-263.5 644.5,-235.5 351.5,-235.5"/>
<text text-anchor="start" x="359.5" y="-252.3" font-family="Helvetica,sans-Serif" font-size="9.00">de.tu_clausthal.in.bachelorproject2018.poker.game.player.</text>
<text text-anchor="middle" x="498" y="-242.3" font-family="Helvetica,sans-Serif" font-size="9.00">PlayerHand.getHandCards</text>
</a>
</g>
</g>
<!-- Node2&#45;&gt;Node3 -->
<g id="edge1" class="edge"><title>Node2&#45;&gt;Node3</title>
<path fill="none" stroke="midnightblue" d="M177.278,-145.654C211.645,-166.789 280.296,-206.27 344,-226.5 351.912,-229.013 360.144,-231.254 368.503,-233.252"/>
<polygon fill="midnightblue" stroke="midnightblue" points="367.836,-236.69 378.363,-235.489 369.385,-229.863 367.836,-236.69"/>
</g>
<!-- Node4 -->
<g id="node3" class="node"><title>Node4</title>
<g id="a_node3"><a xlink:href="../../d3/ddc/classde_1_1tu__clausthal_1_1in_1_1bachelorproject2018_1_1poker_1_1game_1_1wincheck_1_1HandStatistic.htm#a944fb2841e119c5b86a58c9e7499e24f" target="_top" xlink:title="getter for handevaluation ">
<polygon fill="none" stroke="black" points="344,-188.5 344,-216.5 652,-216.5 652,-188.5 344,-188.5"/>
<text text-anchor="start" x="352" y="-205.3" font-family="Helvetica,sans-Serif" font-size="9.00">de.tu_clausthal.in.bachelorproject2018.poker.game.wincheck.</text>
<text text-anchor="middle" x="498" y="-195.3" font-family="Helvetica,sans-Serif" font-size="9.00">HandStatistic.getHandEvaluation</text>
</a>
</g>
</g>
<!-- Node2&#45;&gt;Node4 -->
<g id="edge2" class="edge"><title>Node2&#45;&gt;Node4</title>
<path fill="none" stroke="midnightblue" d="M204.829,-145.599C242.758,-155.979 296.378,-169.898 344,-179.5 357.031,-182.127 370.741,-184.598 384.381,-186.875"/>
<polygon fill="midnightblue" stroke="midnightblue" points="383.856,-190.336 394.29,-188.499 384.988,-183.428 383.856,-190.336"/>
</g>
<!-- Node5 -->
<g id="node4" class="node"><title>Node5</title>
<g id="a_node4"><a xlink:href="../../d3/ddc/classde_1_1tu__clausthal_1_1in_1_1bachelorproject2018_1_1poker_1_1game_1_1wincheck_1_1HandStatistic.htm#a783929e94fdd7e98ac8efdaf5ca6f46d" target="_top" xlink:title="de.tu_clausthal.in.bachelorproject2018.poker.game.wincheck.\lHandStatistic.getPlayer">
<polygon fill="none" stroke="black" points="344,-141.5 344,-169.5 652,-169.5 652,-141.5 344,-141.5"/>
<text text-anchor="start" x="352" y="-158.3" font-family="Helvetica,sans-Serif" font-size="9.00">de.tu_clausthal.in.bachelorproject2018.poker.game.wincheck.</text>
<text text-anchor="middle" x="498" y="-148.3" font-family="Helvetica,sans-Serif" font-size="9.00">HandStatistic.getPlayer</text>
</a>
</g>
</g>
<!-- Node2&#45;&gt;Node5 -->
<g id="edge3" class="edge"><title>Node2&#45;&gt;Node5</title>
<path fill="none" stroke="midnightblue" d="M308.493,-142.271C316.825,-142.856 325.213,-143.445 333.577,-144.032"/>
<polygon fill="midnightblue" stroke="midnightblue" points="333.541,-147.538 343.762,-144.746 334.032,-140.555 333.541,-147.538"/>
</g>
<!-- Node6 -->
<g id="node5" class="node"><title>Node6</title>
<g id="a_node5"><a xlink:href="../../d2/d11/interfacede_1_1tu__clausthal_1_1in_1_1bachelorproject2018_1_1poker_1_1game_1_1player_1_1IPlayer.htm#a43957d175395fb827a5b6fdd530bdd48" target="_top" xlink:title="de.tu_clausthal.in.bachelorproject2018.poker.game.player.\lIPlayer.getPlayerhand">
<polygon fill="none" stroke="black" points="351.5,-94.5 351.5,-122.5 644.5,-122.5 644.5,-94.5 351.5,-94.5"/>
<text text-anchor="start" x="359.5" y="-111.3" font-family="Helvetica,sans-Serif" font-size="9.00">de.tu_clausthal.in.bachelorproject2018.poker.game.player.</text>
<text text-anchor="middle" x="498" y="-101.3" font-family="Helvetica,sans-Serif" font-size="9.00">IPlayer.getPlayerhand</text>
</a>
</g>
</g>
<!-- Node2&#45;&gt;Node6 -->
<g id="edge4" class="edge"><title>Node2&#45;&gt;Node6</title>
<path fill="none" stroke="midnightblue" d="M308.493,-121.177C319.438,-120.441 330.479,-119.699 341.434,-118.962"/>
<polygon fill="midnightblue" stroke="midnightblue" points="341.724,-122.451 351.467,-118.287 341.254,-115.466 341.724,-122.451"/>
</g>
<!-- Node7 -->
<g id="node6" class="node"><title>Node7</title>
<g id="a_node6"><a xlink:href="../../d3/ddc/classde_1_1tu__clausthal_1_1in_1_1bachelorproject2018_1_1poker_1_1game_1_1wincheck_1_1HandStatistic.htm#acb866eb9bdd48b75aac15d8de9918ea4" target="_top" xlink:title="de.tu_clausthal.in.bachelorproject2018.poker.game.wincheck.\lHandStatistic.isStraight">
<polygon fill="none" stroke="black" points="344,-47.5 344,-75.5 652,-75.5 652,-47.5 344,-47.5"/>
<text text-anchor="start" x="352" y="-64.3" font-family="Helvetica,sans-Serif" font-size="9.00">de.tu_clausthal.in.bachelorproject2018.poker.game.wincheck.</text>
<text text-anchor="middle" x="498" y="-54.3" font-family="Helvetica,sans-Serif" font-size="9.00">HandStatistic.isStraight</text>
</a>
</g>
</g>
<!-- Node2&#45;&gt;Node7 -->
<g id="edge5" class="edge"><title>Node2&#45;&gt;Node7</title>
<path fill="none" stroke="midnightblue" d="M207.692,-117.43C245.459,-107.651 297.637,-94.7616 344,-85.5 358.707,-82.562 374.27,-79.7648 389.616,-77.1866"/>
<polygon fill="midnightblue" stroke="midnightblue" points="390.364,-80.6105 399.658,-75.5248 389.221,-73.7045 390.364,-80.6105"/>
</g>
<!-- Node8 -->
<g id="node7" class="node"><title>Node8</title>
<g id="a_node7"><a xlink:href="../../d3/ddc/classde_1_1tu__clausthal_1_1in_1_1bachelorproject2018_1_1poker_1_1game_1_1wincheck_1_1HandStatistic.htm#a95c386b245a125664f9d2f82b412fcb0" target="_top" xlink:title="set the handevaluation elements to a certain value, used by winevaluation ">
<polygon fill="none" stroke="black" points="344,-0.5 344,-28.5 652,-28.5 652,-0.5 344,-0.5"/>
<text text-anchor="start" x="352" y="-17.3" font-family="Helvetica,sans-Serif" font-size="9.00">de.tu_clausthal.in.bachelorproject2018.poker.game.wincheck.</text>
<text text-anchor="middle" x="498" y="-7.3" font-family="Helvetica,sans-Serif" font-size="9.00">HandStatistic.setHandEvaluation</text>
</a>
</g>
</g>
<!-- Node2&#45;&gt;Node8 -->
<g id="edge6" class="edge"><title>Node2&#45;&gt;Node8</title>
<path fill="none" stroke="midnightblue" d="M177.911,-117.372C212.543,-96.6898 280.892,-58.4675 344,-38.5 353.229,-35.5801 362.887,-33.0068 372.672,-30.7403"/>
<polygon fill="midnightblue" stroke="midnightblue" points="373.478,-34.147 382.489,-28.5747 371.969,-27.3113 373.478,-34.147"/>
</g>
</g>
</svg>
