<?xml version="1.0" encoding="UTF-8" standalone="no"?>
<!DOCTYPE svg PUBLIC "-//W3C//DTD SVG 1.1//EN"
 "http://www.w3.org/Graphics/SVG/1.1/DTD/svg11.dtd">
<!-- Generated by graphviz version 2.38.0 (20140413.2041)
 -->
<!-- Title: de.tu_clausthal.in.bachelorproject2018.poker.game.round.IBaseRoundAction Pages: 1 -->
<!--zoomable 295 -->
<svg id="main" version="1.1" xmlns="http://www.w3.org/2000/svg" xmlns:xlink="http://www.w3.org/1999/xlink" xml:space="preserve" onload="init(evt)">
<style type="text/css"><![CDATA[
.edge:hover path { stroke: red; }
.edge:hover polygon { stroke: red; fill: red; }
]]></style>
<script type="text/javascript"><![CDATA[
var edges = document.getElementsByTagName('g');
if (edges && edges.length) {
  for (var i=0;i<edges.length;i++) {
    if (edges[i].id.substr(0,4)=='edge') {
      edges[i].setAttribute('class','edge');
    }
  }
}
]]></script>
        <defs>
                <circle id="rim" cx="0" cy="0" r="7"/>
                <circle id="rim2" cx="0" cy="0" r="3.5"/>
                <g id="zoomPlus">
                        <use xlink:href="#rim" fill="#404040">
                                <set attributeName="fill" to="#808080" begin="zoomplus.mouseover" end="zoomplus.mouseout"/>
                        </use>
                        <path d="M-4,0h8M0,-4v8" fill="none" stroke="white" stroke-width="1.5" pointer-events="none"/>
                </g>
                <g id="zoomMin">
                        <use xlink:href="#rim" fill="#404040">
                                <set attributeName="fill" to="#808080" begin="zoomminus.mouseover" end="zoomminus.mouseout"/>
                        </use>
                        <path d="M-4,0h8" fill="none" stroke="white" stroke-width="1.5" pointer-events="none"/>
                </g>
                <g id="dirArrow">
                        <path fill="none" stroke="white" stroke-width="1.5" d="M0,-3.0v7 M-2.5,-0.5L0,-3.0L2.5,-0.5"/>
                </g>
               <g id="resetDef">
                       <use xlink:href="#rim2" fill="#404040">
                               <set attributeName="fill" to="#808080" begin="reset.mouseover" end="reset.mouseout"/>
                       </use>
               </g>
        </defs>

<script type="text/javascript">
var viewWidth = 1856;
var viewHeight = 295;
var sectionId = 'dynsection-0';
</script>
<script xlink:href="../../svgpan.js"/>
<svg id="graph" class="graph">
<g id="viewport">
<title>de.tu_clausthal.in.bachelorproject2018.poker.game.round.IBaseRoundAction</title>
<!-- Node0 -->
<g id="node1" class="node"><title>Node0</title>
<polygon fill="#bfbfbf" stroke="black" points="777,-121.5 777,-185.5 1070,-185.5 1070,-121.5 777,-121.5"/>
<text text-anchor="start" x="785" y="-174.3" font-family="Helvetica,sans-Serif" font-size="9.00">de.tu_clausthal.in.bachelorproject2018.poker.game.round.</text>
<text text-anchor="middle" x="923.5" y="-164.3" font-family="Helvetica,sans-Serif" font-size="9.00">IBaseRoundAction</text>
<polyline fill="none" stroke="black" points="777,-157.5 1070,-157.5 "/>
<text text-anchor="start" x="785" y="-146.3" font-family="Helvetica,sans-Serif" font-size="9.00"># m_table</text>
<polyline fill="none" stroke="black" points="777,-139.5 1070,-139.5 "/>
<text text-anchor="start" x="785" y="-128.3" font-family="Helvetica,sans-Serif" font-size="9.00"># IBaseRoundAction()</text>
</g>
<!-- Node2 -->
<g id="node3" class="node"><title>Node2</title>
<g id="a_node3"><a xlink:href="../../d8/d84/classde_1_1tu__clausthal_1_1in_1_1bachelorproject2018_1_1poker_1_1game_1_1round_1_1CBetRound.htm" target="_top" xlink:title="{de.tu_clausthal.in.bachelorproject2018.poker.game.round.\lCBetRound\n|&#45; m_player\l|+ CBetRound()\l+ accept()\l+ apply()\l}">
<polygon fill="none" stroke="black" points="0,-0.5 0,-84.5 293,-84.5 293,-0.5 0,-0.5"/>
<text text-anchor="start" x="8" y="-73.3" font-family="Helvetica,sans-Serif" font-size="9.00">de.tu_clausthal.in.bachelorproject2018.poker.game.round.</text>
<text text-anchor="middle" x="146.5" y="-63.3" font-family="Helvetica,sans-Serif" font-size="9.00">CBetRound</text>
<polyline fill="none" stroke="black" points="0,-56.5 293,-56.5 "/>
<text text-anchor="start" x="8" y="-45.3" font-family="Helvetica,sans-Serif" font-size="9.00">&#45; m_player</text>
<polyline fill="none" stroke="black" points="0,-38.5 293,-38.5 "/>
<text text-anchor="start" x="8" y="-27.3" font-family="Helvetica,sans-Serif" font-size="9.00">+ CBetRound()</text>
<text text-anchor="start" x="8" y="-17.3" font-family="Helvetica,sans-Serif" font-size="9.00">+ accept()</text>
<text text-anchor="start" x="8" y="-7.3" font-family="Helvetica,sans-Serif" font-size="9.00">+ apply()</text>
</a>
</g>
</g>
<!-- Node0&#45;&gt;Node2 -->
<g id="edge2" class="edge"><title>Node0&#45;&gt;Node2</title>
<path fill="none" stroke="midnightblue" d="M766.646,-142.175C640.29,-132.253 458.471,-114.351 301.5,-85 298.762,-84.488 296.001,-83.9526 293.223,-83.3966"/>
<polygon fill="none" stroke="midnightblue" points="766.547,-145.677 776.788,-142.963 767.09,-138.698 766.547,-145.677"/>
</g>
<!-- Node3 -->
<g id="node4" class="node"><title>Node3</title>
<g id="a_node4"><a xlink:href="../../d0/da9/classde_1_1tu__clausthal_1_1in_1_1bachelorproject2018_1_1poker_1_1game_1_1round_1_1CFlop.htm" target="_top" xlink:title="Flop Ausführung. ">
<polygon fill="none" stroke="black" points="311,-0.5 311,-84.5 604,-84.5 604,-0.5 311,-0.5"/>
<text text-anchor="start" x="319" y="-73.3" font-family="Helvetica,sans-Serif" font-size="9.00">de.tu_clausthal.in.bachelorproject2018.poker.game.round.</text>
<text text-anchor="middle" x="457.5" y="-63.3" font-family="Helvetica,sans-Serif" font-size="9.00">CFlop</text>
<polyline fill="none" stroke="black" points="311,-56.5 604,-56.5 "/>
<text text-anchor="middle" x="457.5" y="-45.3" font-family="Helvetica,sans-Serif" font-size="9.00"> </text>
<polyline fill="none" stroke="black" points="311,-38.5 604,-38.5 "/>
<text text-anchor="start" x="319" y="-27.3" font-family="Helvetica,sans-Serif" font-size="9.00">+ CFlop()</text>
<text text-anchor="start" x="319" y="-17.3" font-family="Helvetica,sans-Serif" font-size="9.00">+ accept()</text>
<text text-anchor="start" x="319" y="-7.3" font-family="Helvetica,sans-Serif" font-size="9.00">+ apply()</text>
</a>
</g>
</g>
<!-- Node0&#45;&gt;Node3 -->
<g id="edge3" class="edge"><title>Node0&#45;&gt;Node3</title>
<path fill="none" stroke="midnightblue" d="M766.995,-120.062C717.468,-109.387 662.589,-97.1339 612.5,-85 609.793,-84.3441 607.06,-83.6762 604.309,-82.9981"/>
<polygon fill="none" stroke="midnightblue" points="766.314,-123.495 776.826,-122.175 767.785,-116.652 766.314,-123.495"/>
</g>
<!-- Node4 -->
<g id="node5" class="node"><title>Node4</title>
<g id="a_node5"><a xlink:href="../../d3/d48/classde_1_1tu__clausthal_1_1in_1_1bachelorproject2018_1_1poker_1_1game_1_1round_1_1CPreFlop.htm" target="_top" xlink:title="{de.tu_clausthal.in.bachelorproject2018.poker.game.round.\lCPreFlop\n||+ accept()\l+ apply()\l# CPreFlop()\l}">
<polygon fill="none" stroke="black" points="622,-0.5 622,-84.5 915,-84.5 915,-0.5 622,-0.5"/>
<text text-anchor="start" x="630" y="-73.3" font-family="Helvetica,sans-Serif" font-size="9.00">de.tu_clausthal.in.bachelorproject2018.poker.game.round.</text>
<text text-anchor="middle" x="768.5" y="-63.3" font-family="Helvetica,sans-Serif" font-size="9.00">CPreFlop</text>
<polyline fill="none" stroke="black" points="622,-56.5 915,-56.5 "/>
<text text-anchor="middle" x="768.5" y="-45.3" font-family="Helvetica,sans-Serif" font-size="9.00"> </text>
<polyline fill="none" stroke="black" points="622,-38.5 915,-38.5 "/>
<text text-anchor="start" x="630" y="-27.3" font-family="Helvetica,sans-Serif" font-size="9.00">+ accept()</text>
<text text-anchor="start" x="630" y="-17.3" font-family="Helvetica,sans-Serif" font-size="9.00">+ apply()</text>
<text text-anchor="start" x="630" y="-7.3" font-family="Helvetica,sans-Serif" font-size="9.00"># CPreFlop()</text>
</a>
</g>
</g>
<!-- Node0&#45;&gt;Node4 -->
<g id="edge4" class="edge"><title>Node0&#45;&gt;Node4</title>
<path fill="none" stroke="midnightblue" d="M870.893,-115.505C856.71,-105.531 841.282,-94.682 826.807,-84.5032"/>
<polygon fill="none" stroke="midnightblue" points="868.89,-118.376 879.083,-121.265 872.917,-112.65 868.89,-118.376"/>
</g>
<!-- Node5 -->
<g id="node6" class="node"><title>Node5</title>
<g id="a_node6"><a xlink:href="../../d9/d71/classde_1_1tu__clausthal_1_1in_1_1bachelorproject2018_1_1poker_1_1game_1_1round_1_1CRiver.htm" target="_top" xlink:title="River&#45;Ausführung. ">
<polygon fill="none" stroke="black" points="933,-0.5 933,-84.5 1226,-84.5 1226,-0.5 933,-0.5"/>
<text text-anchor="start" x="941" y="-73.3" font-family="Helvetica,sans-Serif" font-size="9.00">de.tu_clausthal.in.bachelorproject2018.poker.game.round.</text>
<text text-anchor="middle" x="1079.5" y="-63.3" font-family="Helvetica,sans-Serif" font-size="9.00">CRiver</text>
<polyline fill="none" stroke="black" points="933,-56.5 1226,-56.5 "/>
<text text-anchor="middle" x="1079.5" y="-45.3" font-family="Helvetica,sans-Serif" font-size="9.00"> </text>
<polyline fill="none" stroke="black" points="933,-38.5 1226,-38.5 "/>
<text text-anchor="start" x="941" y="-27.3" font-family="Helvetica,sans-Serif" font-size="9.00">+ accept()</text>
<text text-anchor="start" x="941" y="-17.3" font-family="Helvetica,sans-Serif" font-size="9.00">+ apply()</text>
<text text-anchor="start" x="941" y="-7.3" font-family="Helvetica,sans-Serif" font-size="9.00"># CRiver()</text>
</a>
</g>
</g>
<!-- Node0&#45;&gt;Node5 -->
<g id="edge5" class="edge"><title>Node0&#45;&gt;Node5</title>
<path fill="none" stroke="midnightblue" d="M976.447,-115.505C990.721,-105.531 1006.25,-94.682 1020.82,-84.5032"/>
<polygon fill="none" stroke="midnightblue" points="974.396,-112.668 968.203,-121.265 978.405,-118.406 974.396,-112.668"/>
</g>
<!-- Node6 -->
<g id="node7" class="node"><title>Node6</title>
<g id="a_node7"><a xlink:href="../../d8/d6c/classde_1_1tu__clausthal_1_1in_1_1bachelorproject2018_1_1poker_1_1game_1_1round_1_1CTurn.htm" target="_top" xlink:title="Turn ausführung. ">
<polygon fill="none" stroke="black" points="1244,-0.5 1244,-84.5 1537,-84.5 1537,-0.5 1244,-0.5"/>
<text text-anchor="start" x="1252" y="-73.3" font-family="Helvetica,sans-Serif" font-size="9.00">de.tu_clausthal.in.bachelorproject2018.poker.game.round.</text>
<text text-anchor="middle" x="1390.5" y="-63.3" font-family="Helvetica,sans-Serif" font-size="9.00">CTurn</text>
<polyline fill="none" stroke="black" points="1244,-56.5 1537,-56.5 "/>
<text text-anchor="middle" x="1390.5" y="-45.3" font-family="Helvetica,sans-Serif" font-size="9.00"> </text>
<polyline fill="none" stroke="black" points="1244,-38.5 1537,-38.5 "/>
<text text-anchor="start" x="1252" y="-27.3" font-family="Helvetica,sans-Serif" font-size="9.00">+ accept()</text>
<text text-anchor="start" x="1252" y="-17.3" font-family="Helvetica,sans-Serif" font-size="9.00">+ apply()</text>
<text text-anchor="start" x="1252" y="-7.3" font-family="Helvetica,sans-Serif" font-size="9.00"># CTurn()</text>
</a>
</g>
</g>
<!-- Node0&#45;&gt;Node6 -->
<g id="edge6" class="edge"><title>Node0&#45;&gt;Node6</title>
<path fill="none" stroke="midnightblue" d="M1080.14,-120.167C1129.92,-109.475 1185.13,-97.185 1235.5,-85 1238.21,-84.345 1240.94,-83.6779 1243.69,-83.0006"/>
<polygon fill="none" stroke="midnightblue" points="1079.3,-116.767 1070.26,-122.284 1080.77,-123.612 1079.3,-116.767"/>
</g>
<!-- Node7 -->
<g id="node8" class="node"><title>Node7</title>
<g id="a_node8"><a xlink:href="../../dd/ded/classde_1_1tu__clausthal_1_1in_1_1bachelorproject2018_1_1poker_1_1game_1_1round_1_1CWinEvaluation.htm" target="_top" xlink:title="{de.tu_clausthal.in.bachelorproject2018.poker.game.round.\lCWinEvaluation\n||+ accept()\l+ apply()\l# CWinEvaluation()\l}">
<polygon fill="none" stroke="black" points="1555,-0.5 1555,-84.5 1848,-84.5 1848,-0.5 1555,-0.5"/>
<text text-anchor="start" x="1563" y="-73.3" font-family="Helvetica,sans-Serif" font-size="9.00">de.tu_clausthal.in.bachelorproject2018.poker.game.round.</text>
<text text-anchor="middle" x="1701.5" y="-63.3" font-family="Helvetica,sans-Serif" font-size="9.00">CWinEvaluation</text>
<polyline fill="none" stroke="black" points="1555,-56.5 1848,-56.5 "/>
<text text-anchor="middle" x="1701.5" y="-45.3" font-family="Helvetica,sans-Serif" font-size="9.00"> </text>
<polyline fill="none" stroke="black" points="1555,-38.5 1848,-38.5 "/>
<text text-anchor="start" x="1563" y="-27.3" font-family="Helvetica,sans-Serif" font-size="9.00">+ accept()</text>
<text text-anchor="start" x="1563" y="-17.3" font-family="Helvetica,sans-Serif" font-size="9.00">+ apply()</text>
<text text-anchor="start" x="1563" y="-7.3" font-family="Helvetica,sans-Serif" font-size="9.00"># CWinEvaluation()</text>
</a>
</g>
</g>
<!-- Node0&#45;&gt;Node7 -->
<g id="edge7" class="edge"><title>Node0&#45;&gt;Node7</title>
<path fill="none" stroke="midnightblue" d="M1080.29,-142.217C1206.86,-132.31 1389.15,-114.409 1546.5,-85 1549.24,-84.4882 1552,-83.9531 1554.78,-83.3972"/>
<polygon fill="none" stroke="midnightblue" points="1079.83,-138.742 1070.13,-143.005 1080.37,-145.721 1079.83,-138.742"/>
</g>
<!-- Node1 -->
<g id="node2" class="node"><title>Node1</title>
<g id="a_node2"><a xlink:href="../../dc/db4/interfacede_1_1tu__clausthal_1_1in_1_1bachelorproject2018_1_1poker_1_1game_1_1round_1_1IRoundAction.htm" target="_top" xlink:title="Interface, um die einzelnen Aktionen in einer Runde zu definieren. ">
<polygon fill="none" stroke="black" points="777,-222.5 777,-286.5 1070,-286.5 1070,-222.5 777,-222.5"/>
<text text-anchor="start" x="785" y="-275.3" font-family="Helvetica,sans-Serif" font-size="9.00">de.tu_clausthal.in.bachelorproject2018.poker.game.round.</text>
<text text-anchor="middle" x="923.5" y="-265.3" font-family="Helvetica,sans-Serif" font-size="9.00">IRoundAction</text>
<polyline fill="none" stroke="black" points="777,-258.5 1070,-258.5 "/>
<text text-anchor="middle" x="923.5" y="-247.3" font-family="Helvetica,sans-Serif" font-size="9.00"> </text>
<polyline fill="none" stroke="black" points="777,-240.5 1070,-240.5 "/>
<text text-anchor="middle" x="923.5" y="-229.3" font-family="Helvetica,sans-Serif" font-size="9.00"> </text>
</a>
</g>
</g>
<!-- Node1&#45;&gt;Node0 -->
<g id="edge1" class="edge"><title>Node1&#45;&gt;Node0</title>
<path fill="none" stroke="midnightblue" d="M923.5,-212.282C923.5,-203.42 923.5,-194.194 923.5,-185.783"/>
<polygon fill="none" stroke="midnightblue" points="920,-212.447 923.5,-222.447 927,-212.447 920,-212.447"/>
</g>
</g>
</svg>
        <g id="navigator" transform="translate(0 0)" fill="#404254">
                <rect fill="#f2f5e9" fill-opacity="0.5" stroke="#606060" stroke-width=".5" x="0" y="0" width="60" height="60"/>
                <use id="zoomplus" xlink:href="#zoomPlus" x="17" y="9" onmousedown="handleZoom(evt,'in')"/>
                <use id="zoomminus" xlink:href="#zoomMin" x="42" y="9" onmousedown="handleZoom(evt,'out')"/>
                <use id="reset" xlink:href="#resetDef" x="30" y="36" onmousedown="handleReset()"/>
                <g id="arrowUp" xlink:href="#dirArrow" transform="translate(30 24)" onmousedown="handlePan(0,-1)">
                  <use xlink:href="#rim" fill="#404040">
                        <set attributeName="fill" to="#808080" begin="arrowUp.mouseover" end="arrowUp.mouseout"/>
                  </use>
                  <path fill="none" stroke="white" stroke-width="1.5" d="M0,-3.0v7 M-2.5,-0.5L0,-3.0L2.5,-0.5"/>
                </g>
                <g id="arrowRight" xlink:href="#dirArrow" transform="rotate(90) translate(36 -43)" onmousedown="handlePan(1,0)">
                  <use xlink:href="#rim" fill="#404040">
                        <set attributeName="fill" to="#808080" begin="arrowRight.mouseover" end="arrowRight.mouseout"/>
                  </use>
                  <path fill="none" stroke="white" stroke-width="1.5" d="M0,-3.0v7 M-2.5,-0.5L0,-3.0L2.5,-0.5"/>
                </g>
                <g id="arrowDown" xlink:href="#dirArrow" transform="rotate(180) translate(-30 -48)" onmousedown="handlePan(0,1)">
                  <use xlink:href="#rim" fill="#404040">
                        <set attributeName="fill" to="#808080" begin="arrowDown.mouseover" end="arrowDown.mouseout"/>
                  </use>
                  <path fill="none" stroke="white" stroke-width="1.5" d="M0,-3.0v7 M-2.5,-0.5L0,-3.0L2.5,-0.5"/>
                </g>
                <g id="arrowLeft" xlink:href="#dirArrow" transform="rotate(270) translate(-36 17)" onmousedown="handlePan(-1,0)">
                  <use xlink:href="#rim" fill="#404040">
                        <set attributeName="fill" to="#808080" begin="arrowLeft.mouseover" end="arrowLeft.mouseout"/>
                  </use>
                  <path fill="none" stroke="white" stroke-width="1.5" d="M0,-3.0v7 M-2.5,-0.5L0,-3.0L2.5,-0.5"/>
                </g>
        </g>
        <svg viewBox="0 0 15 15" width="100%" height="30px" preserveAspectRatio="xMaxYMin meet">
         <g id="arrow_out" transform="scale(0.3 0.3)">
          <a xlink:href="classde_1_1tu__clausthal_1_1in_1_1bachelorproject2018_1_1poker_1_1game_1_1round_1_1IBaseRoundAction__inherit__graph_org.svg" target="_base">
           <rect id="button" ry="5" rx="5" y="6" x="6" height="38" width="38"
                fill="#f2f5e9" fill-opacity="0.5" stroke="#606060" stroke-width="1.0"/>
           <path id="arrow"
             d="M 11.500037,31.436501 C 11.940474,20.09759 22.043105,11.32322 32.158766,21.979434 L 37.068811,17.246167 C 37.068811,17.246167 37.088388,32 37.088388,32 L 22.160133,31.978069 C 22.160133,31.978069 26.997745,27.140456 26.997745,27.140456 C 18.528582,18.264221 13.291696,25.230495 11.500037,31.436501 z"
             style="fill:#404040;"/>
          </a>
         </g>
        </svg>
</svg>
