<?xml version="1.0" encoding="UTF-8" standalone="no"?>
<!DOCTYPE svg PUBLIC "-//W3C//DTD SVG 1.1//EN"
 "http://www.w3.org/Graphics/SVG/1.1/DTD/svg11.dtd">
<!-- Generated by graphviz version 2.38.0 (20140413.2041)
 -->
<!-- Title: de.tu_clausthal.in.bachelorproject2018.poker.game.hubs.CardDealer.firstDeckOfTheGame Pages: 1 -->
<svg width="948pt" height="37pt"
 viewBox="0.00 0.00 948.00 37.00" xmlns="http://www.w3.org/2000/svg" xmlns:xlink="http://www.w3.org/1999/xlink">
<g id="graph0" class="graph" transform="scale(1 1) rotate(0) translate(4 33)">
<title>de.tu_clausthal.in.bachelorproject2018.poker.game.hubs.CardDealer.firstDeckOfTheGame</title>
<!-- Node3 -->
<g id="node1" class="node"><title>Node3</title>
<polygon fill="#bfbfbf" stroke="black" points="0,-0.5 0,-28.5 289,-28.5 289,-0.5 0,-0.5"/>
<text text-anchor="start" x="8" y="-17.3" font-family="Helvetica,sans-Serif" font-size="9.00">de.tu_clausthal.in.bachelorproject2018.poker.game.hubs.</text>
<text text-anchor="middle" x="144.5" y="-7.3" font-family="Helvetica,sans-Serif" font-size="9.00">CardDealer.firstDeckOfTheGame</text>
</g>
<!-- Node4 -->
<g id="node2" class="node"><title>Node4</title>
<g id="a_node2"><a xlink:href="../../da/d48/classde_1_1tu__clausthal_1_1in_1_1bachelorproject2018_1_1poker_1_1game_1_1hubs_1_1GameHub.htm#aaaa52a4f851684df6aa7a4faed55c722" target="_top" xlink:title="start the game with initializing the deck and adding the start getAmountBetThisRound of chips to each...">
<polygon fill="none" stroke="black" points="325,-0.5 325,-28.5 614,-28.5 614,-0.5 325,-0.5"/>
<text text-anchor="start" x="333" y="-17.3" font-family="Helvetica,sans-Serif" font-size="9.00">de.tu_clausthal.in.bachelorproject2018.poker.game.hubs.</text>
<text text-anchor="middle" x="469.5" y="-7.3" font-family="Helvetica,sans-Serif" font-size="9.00">GameHub.startGame</text>
</a>
</g>
</g>
<!-- Node3&#45;&gt;Node4 -->
<g id="edge1" class="edge"><title>Node3&#45;&gt;Node4</title>
<path fill="none" stroke="midnightblue" d="M299.101,-14.5C307.677,-14.5 316.282,-14.5 324.821,-14.5"/>
<polygon fill="midnightblue" stroke="midnightblue" points="299.054,-11.0001 289.054,-14.5 299.053,-18.0001 299.054,-11.0001"/>
</g>
<!-- Node5 -->
<g id="node3" class="node"><title>Node5</title>
<g id="a_node3"><a xlink:href="../../d2/dd9/classde_1_1tu__clausthal_1_1in_1_1bachelorproject2018_1_1poker_1_1game_1_1table_1_1CTable.htm#a44356981334e62a09768618f0743d1b5" target="_top" xlink:title="startet das Spiel ">
<polygon fill="none" stroke="black" points="650,-0.5 650,-28.5 940,-28.5 940,-0.5 650,-0.5"/>
<text text-anchor="start" x="658" y="-17.3" font-family="Helvetica,sans-Serif" font-size="9.00">de.tu_clausthal.in.bachelorproject2018.poker.game.table.</text>
<text text-anchor="middle" x="795" y="-7.3" font-family="Helvetica,sans-Serif" font-size="9.00">CTable.start</text>
</a>
</g>
</g>
<!-- Node4&#45;&gt;Node5 -->
<g id="edge2" class="edge"><title>Node4&#45;&gt;Node5</title>
<path fill="none" stroke="midnightblue" d="M624.546,-14.5C632.981,-14.5 641.445,-14.5 649.845,-14.5"/>
<polygon fill="midnightblue" stroke="midnightblue" points="624.276,-11.0001 614.276,-14.5 624.276,-18.0001 624.276,-11.0001"/>
</g>
</g>
</svg>
