<?xml version="1.0" encoding="UTF-8" standalone="no"?>
<!DOCTYPE svg PUBLIC "-//W3C//DTD SVG 1.1//EN"
 "http://www.w3.org/Graphics/SVG/1.1/DTD/svg11.dtd">
<!-- Generated by graphviz version 2.38.0 (20140413.2041)
 -->
<!-- Title: de.tu_clausthal.in.bachelorproject2018.poker.game.hubs.CardDealer.getDeck Pages: 1 -->
<svg width="626pt" height="178pt"
 viewBox="0.00 0.00 626.00 178.00" xmlns="http://www.w3.org/2000/svg" xmlns:xlink="http://www.w3.org/1999/xlink">
<g id="graph0" class="graph" transform="scale(1 1) rotate(0) translate(4 174)">
<title>de.tu_clausthal.in.bachelorproject2018.poker.game.hubs.CardDealer.getDeck</title>
<!-- Node7 -->
<g id="node1" class="node"><title>Node7</title>
<polygon fill="#bfbfbf" stroke="black" points="0,-70.5 0,-98.5 289,-98.5 289,-70.5 0,-70.5"/>
<text text-anchor="start" x="8" y="-87.3" font-family="Helvetica,sans-Serif" font-size="9.00">de.tu_clausthal.in.bachelorproject2018.poker.game.hubs.</text>
<text text-anchor="middle" x="144.5" y="-77.3" font-family="Helvetica,sans-Serif" font-size="9.00">CardDealer.getDeck</text>
</g>
<!-- Node8 -->
<g id="node2" class="node"><title>Node8</title>
<g id="a_node2"><a xlink:href="../../d3/d48/classde_1_1tu__clausthal_1_1in_1_1bachelorproject2018_1_1poker_1_1game_1_1round_1_1CPreFlop.htm#a29d161fc537ba98819b2a6ea3acc9894" target="_top" xlink:title="resetet alle wichtigen Methoden im CardDealer und ChipsHandler forciert Blinds der Spieler Teilt Kart...">
<polygon fill="none" stroke="black" points="325,-141.5 325,-169.5 618,-169.5 618,-141.5 325,-141.5"/>
<text text-anchor="start" x="333" y="-158.3" font-family="Helvetica,sans-Serif" font-size="9.00">de.tu_clausthal.in.bachelorproject2018.poker.game.round.</text>
<text text-anchor="middle" x="471.5" y="-148.3" font-family="Helvetica,sans-Serif" font-size="9.00">CPreFlop.apply</text>
</a>
</g>
</g>
<!-- Node7&#45;&gt;Node8 -->
<g id="edge1" class="edge"><title>Node7&#45;&gt;Node8</title>
<path fill="none" stroke="midnightblue" d="M202.844,-101.474C237.903,-111.441 283.786,-123.757 325,-132.5 340.386,-135.764 356.776,-138.787 372.801,-141.497"/>
<polygon fill="midnightblue" stroke="midnightblue" points="203.37,-97.9839 192.793,-98.5966 201.443,-104.714 203.37,-97.9839"/>
</g>
<!-- Node9 -->
<g id="node3" class="node"><title>Node9</title>
<g id="a_node3"><a xlink:href="../../d8/d6c/classde_1_1tu__clausthal_1_1in_1_1bachelorproject2018_1_1poker_1_1game_1_1round_1_1CTurn.htm#aa997ce946e5b26eb305e47ce7ae1dd81" target="_top" xlink:title="Legt eine Karte vom Deck auf den Tisch. ">
<polygon fill="none" stroke="black" points="325,-94.5 325,-122.5 618,-122.5 618,-94.5 325,-94.5"/>
<text text-anchor="start" x="333" y="-111.3" font-family="Helvetica,sans-Serif" font-size="9.00">de.tu_clausthal.in.bachelorproject2018.poker.game.round.</text>
<text text-anchor="middle" x="471.5" y="-101.3" font-family="Helvetica,sans-Serif" font-size="9.00">CTurn.apply</text>
</a>
</g>
</g>
<!-- Node7&#45;&gt;Node9 -->
<g id="edge2" class="edge"><title>Node7&#45;&gt;Node9</title>
<path fill="none" stroke="midnightblue" d="M299.655,-95.8838C308.023,-96.5017 316.42,-97.1218 324.758,-97.7375"/>
<polygon fill="midnightblue" stroke="midnightblue" points="299.7,-92.3776 289.469,-95.1316 299.184,-99.3586 299.7,-92.3776"/>
</g>
<!-- Node10 -->
<g id="node4" class="node"><title>Node10</title>
<g id="a_node4"><a xlink:href="../../d9/d71/classde_1_1tu__clausthal_1_1in_1_1bachelorproject2018_1_1poker_1_1game_1_1round_1_1CRiver.htm#a639b79e14972b10284e0dfd816f8a5d1" target="_top" xlink:title="Legt eine Karte vom Deck auf den Tisch. ">
<polygon fill="none" stroke="black" points="325,-47.5 325,-75.5 618,-75.5 618,-47.5 325,-47.5"/>
<text text-anchor="start" x="333" y="-64.3" font-family="Helvetica,sans-Serif" font-size="9.00">de.tu_clausthal.in.bachelorproject2018.poker.game.round.</text>
<text text-anchor="middle" x="471.5" y="-54.3" font-family="Helvetica,sans-Serif" font-size="9.00">CRiver.apply</text>
</a>
</g>
</g>
<!-- Node7&#45;&gt;Node10 -->
<g id="edge3" class="edge"><title>Node7&#45;&gt;Node10</title>
<path fill="none" stroke="midnightblue" d="M299.655,-73.5906C308.023,-72.9984 316.42,-72.4041 324.758,-71.8141"/>
<polygon fill="midnightblue" stroke="midnightblue" points="299.197,-70.1141 289.469,-74.3114 299.691,-77.0967 299.197,-70.1141"/>
</g>
<!-- Node11 -->
<g id="node5" class="node"><title>Node11</title>
<g id="a_node5"><a xlink:href="../../d0/da9/classde_1_1tu__clausthal_1_1in_1_1bachelorproject2018_1_1poker_1_1game_1_1round_1_1CFlop.htm#a09a8d1a76054acdf7d4fe631f850076e" target="_top" xlink:title="legt 3 Karten vom Deck auf den Tisch ">
<polygon fill="none" stroke="black" points="325,-0.5 325,-28.5 618,-28.5 618,-0.5 325,-0.5"/>
<text text-anchor="start" x="333" y="-17.3" font-family="Helvetica,sans-Serif" font-size="9.00">de.tu_clausthal.in.bachelorproject2018.poker.game.round.</text>
<text text-anchor="middle" x="471.5" y="-7.3" font-family="Helvetica,sans-Serif" font-size="9.00">CFlop.apply</text>
</a>
</g>
</g>
<!-- Node7&#45;&gt;Node11 -->
<g id="edge4" class="edge"><title>Node7&#45;&gt;Node11</title>
<path fill="none" stroke="midnightblue" d="M205.499,-67.7253C240.233,-58.3662 284.885,-46.9318 325,-38.5 342.037,-34.919 360.289,-31.5471 377.909,-28.5258"/>
<polygon fill="midnightblue" stroke="midnightblue" points="204.253,-64.4367 195.517,-70.4313 206.084,-71.1929 204.253,-64.4367"/>
</g>
</g>
</svg>
