<?xml version="1.0" encoding="UTF-8" standalone="no"?>
<!DOCTYPE svg PUBLIC "-//W3C//DTD SVG 1.1//EN"
 "http://www.w3.org/Graphics/SVG/1.1/DTD/svg11.dtd">
<!-- Generated by graphviz version 2.38.0 (20140413.2041)
 -->
<!-- Title: de.tu_clausthal.in.bachelorproject2018.poker.game.hubs.CardDealer.getTableCards Pages: 1 -->
<svg width="641pt" height="178pt"
 viewBox="0.00 0.00 641.00 178.00" xmlns="http://www.w3.org/2000/svg" xmlns:xlink="http://www.w3.org/1999/xlink">
<g id="graph0" class="graph" transform="scale(1 1) rotate(0) translate(4 174)">
<title>de.tu_clausthal.in.bachelorproject2018.poker.game.hubs.CardDealer.getTableCards</title>
<!-- Node13 -->
<g id="node1" class="node"><title>Node13</title>
<polygon fill="#bfbfbf" stroke="black" points="0,-70.5 0,-98.5 289,-98.5 289,-70.5 0,-70.5"/>
<text text-anchor="start" x="8" y="-87.3" font-family="Helvetica,sans-Serif" font-size="9.00">de.tu_clausthal.in.bachelorproject2018.poker.game.hubs.</text>
<text text-anchor="middle" x="144.5" y="-77.3" font-family="Helvetica,sans-Serif" font-size="9.00">CardDealer.getTableCards</text>
</g>
<!-- Node14 -->
<g id="node2" class="node"><title>Node14</title>
<g id="a_node2"><a xlink:href="../../d9/d59/classde_1_1tu__clausthal_1_1in_1_1bachelorproject2018_1_1poker_1_1game_1_1wincheck_1_1CPrepareForWinCheck.htm#aaef5dc6ed11497067dd19971a739343a" target="_top" xlink:title="kombiniert die Handkarten des Spielers mit den Tischkarten befüllt das rankArray ">
<polygon fill="none" stroke="black" points="325,-141.5 325,-169.5 633,-169.5 633,-141.5 325,-141.5"/>
<text text-anchor="start" x="333" y="-158.3" font-family="Helvetica,sans-Serif" font-size="9.00">de.tu_clausthal.in.bachelorproject2018.poker.game.wincheck.</text>
<text text-anchor="middle" x="479" y="-148.3" font-family="Helvetica,sans-Serif" font-size="9.00">CPrepareForWinCheck.apply</text>
</a>
</g>
</g>
<!-- Node13&#45;&gt;Node14 -->
<g id="edge1" class="edge"><title>Node13&#45;&gt;Node14</title>
<path fill="none" stroke="midnightblue" d="M202.454,-101.482C237.551,-111.508 283.609,-123.883 325,-132.5 340.778,-135.785 357.565,-138.793 374.021,-141.475"/>
<polygon fill="midnightblue" stroke="midnightblue" points="202.974,-97.9893 192.396,-98.587 201.038,-104.716 202.974,-97.9893"/>
</g>
<!-- Node15 -->
<g id="node3" class="node"><title>Node15</title>
<g id="a_node3"><a xlink:href="../../d8/d6c/classde_1_1tu__clausthal_1_1in_1_1bachelorproject2018_1_1poker_1_1game_1_1round_1_1CTurn.htm#aa997ce946e5b26eb305e47ce7ae1dd81" target="_top" xlink:title="Legt eine Karte vom Deck auf den Tisch. ">
<polygon fill="none" stroke="black" points="332.5,-94.5 332.5,-122.5 625.5,-122.5 625.5,-94.5 332.5,-94.5"/>
<text text-anchor="start" x="340.5" y="-111.3" font-family="Helvetica,sans-Serif" font-size="9.00">de.tu_clausthal.in.bachelorproject2018.poker.game.round.</text>
<text text-anchor="middle" x="479" y="-101.3" font-family="Helvetica,sans-Serif" font-size="9.00">CTurn.apply</text>
</a>
</g>
</g>
<!-- Node13&#45;&gt;Node15 -->
<g id="edge2" class="edge"><title>Node13&#45;&gt;Node15</title>
<path fill="none" stroke="midnightblue" d="M299.433,-95.6109C310.379,-96.401 321.397,-97.1963 332.295,-97.9829"/>
<polygon fill="midnightblue" stroke="midnightblue" points="299.632,-92.1163 289.405,-94.8872 299.128,-99.0981 299.632,-92.1163"/>
</g>
<!-- Node16 -->
<g id="node4" class="node"><title>Node16</title>
<g id="a_node4"><a xlink:href="../../d9/d71/classde_1_1tu__clausthal_1_1in_1_1bachelorproject2018_1_1poker_1_1game_1_1round_1_1CRiver.htm#a639b79e14972b10284e0dfd816f8a5d1" target="_top" xlink:title="Legt eine Karte vom Deck auf den Tisch. ">
<polygon fill="none" stroke="black" points="332.5,-47.5 332.5,-75.5 625.5,-75.5 625.5,-47.5 332.5,-47.5"/>
<text text-anchor="start" x="340.5" y="-64.3" font-family="Helvetica,sans-Serif" font-size="9.00">de.tu_clausthal.in.bachelorproject2018.poker.game.round.</text>
<text text-anchor="middle" x="479" y="-54.3" font-family="Helvetica,sans-Serif" font-size="9.00">CRiver.apply</text>
</a>
</g>
</g>
<!-- Node13&#45;&gt;Node16 -->
<g id="edge3" class="edge"><title>Node13&#45;&gt;Node16</title>
<path fill="none" stroke="midnightblue" d="M299.433,-73.852C310.379,-73.0949 321.397,-72.3327 332.295,-71.5789"/>
<polygon fill="midnightblue" stroke="midnightblue" points="299.14,-70.3638 289.405,-74.5456 299.623,-77.3471 299.14,-70.3638"/>
</g>
<!-- Node17 -->
<g id="node5" class="node"><title>Node17</title>
<g id="a_node5"><a xlink:href="../../d0/da9/classde_1_1tu__clausthal_1_1in_1_1bachelorproject2018_1_1poker_1_1game_1_1round_1_1CFlop.htm#a09a8d1a76054acdf7d4fe631f850076e" target="_top" xlink:title="legt 3 Karten vom Deck auf den Tisch ">
<polygon fill="none" stroke="black" points="332.5,-0.5 332.5,-28.5 625.5,-28.5 625.5,-0.5 332.5,-0.5"/>
<text text-anchor="start" x="340.5" y="-17.3" font-family="Helvetica,sans-Serif" font-size="9.00">de.tu_clausthal.in.bachelorproject2018.poker.game.round.</text>
<text text-anchor="middle" x="479" y="-7.3" font-family="Helvetica,sans-Serif" font-size="9.00">CFlop.apply</text>
</a>
</g>
</g>
<!-- Node13&#45;&gt;Node17 -->
<g id="edge4" class="edge"><title>Node13&#45;&gt;Node17</title>
<path fill="none" stroke="midnightblue" d="M205.103,-67.7062C239.881,-58.2891 284.708,-46.8032 325,-38.5 342.512,-34.8912 361.25,-31.5378 379.396,-28.5506"/>
<polygon fill="midnightblue" stroke="midnightblue" points="203.839,-64.4229 195.111,-70.4294 205.68,-71.1765 203.839,-64.4229"/>
</g>
</g>
</svg>
