<?xml version="1.0" encoding="UTF-8" standalone="no"?>
<!DOCTYPE svg PUBLIC "-//W3C//DTD SVG 1.1//EN"
 "http://www.w3.org/Graphics/SVG/1.1/DTD/svg11.dtd">
<!-- Generated by graphviz version 2.38.0 (20140413.2041)
 -->
<!-- Title: de.tu_clausthal.in.bachelorproject2018.poker.game.table.ITables Pages: 1 -->
<svg width="298pt" height="214pt"
 viewBox="0.00 0.00 298.00 214.00" xmlns="http://www.w3.org/2000/svg" xmlns:xlink="http://www.w3.org/1999/xlink">
<g id="graph0" class="graph" transform="scale(1 1) rotate(0) translate(4 210)">
<title>de.tu_clausthal.in.bachelorproject2018.poker.game.table.ITables</title>
<!-- Node0 -->
<g id="node1" class="node"><title>Node0</title>
<polygon fill="#bfbfbf" stroke="black" points="0,-131.5 0,-205.5 290,-205.5 290,-131.5 0,-131.5"/>
<text text-anchor="start" x="8" y="-194.3" font-family="Helvetica,sans-Serif" font-size="9.00">de.tu_clausthal.in.bachelorproject2018.poker.game.table.</text>
<text text-anchor="middle" x="145" y="-184.3" font-family="Helvetica,sans-Serif" font-size="9.00">ITables</text>
<polyline fill="none" stroke="black" points="0,-177.5 290,-177.5 "/>
<text text-anchor="middle" x="145" y="-166.3" font-family="Helvetica,sans-Serif" font-size="9.00"> </text>
<polyline fill="none" stroke="black" points="0,-159.5 290,-159.5 "/>
<text text-anchor="start" x="8" y="-148.3" font-family="Helvetica,sans-Serif" font-size="9.00">+ add()</text>
<text text-anchor="start" x="8" y="-138.3" font-family="Helvetica,sans-Serif" font-size="9.00">+ remove()</text>
</g>
<!-- Node1 -->
<g id="node2" class="node"><title>Node1</title>
<g id="a_node2"><a xlink:href="../../da/dcc/enumde_1_1tu__clausthal_1_1in_1_1bachelorproject2018_1_1poker_1_1game_1_1table_1_1ETables.htm" target="_top" xlink:title="Singleton um alle Tische zu verwalten. ">
<polygon fill="none" stroke="black" points="0,-0.5 0,-94.5 290,-94.5 290,-0.5 0,-0.5"/>
<text text-anchor="start" x="8" y="-83.3" font-family="Helvetica,sans-Serif" font-size="9.00">de.tu_clausthal.in.bachelorproject2018.poker.game.table.</text>
<text text-anchor="middle" x="145" y="-73.3" font-family="Helvetica,sans-Serif" font-size="9.00">ETables</text>
<polyline fill="none" stroke="black" points="0,-66.5 290,-66.5 "/>
<text text-anchor="start" x="8" y="-55.3" font-family="Helvetica,sans-Serif" font-size="9.00">&#45; m_tables</text>
<polyline fill="none" stroke="black" points="0,-48.5 290,-48.5 "/>
<text text-anchor="start" x="8" y="-37.3" font-family="Helvetica,sans-Serif" font-size="9.00">+ add()</text>
<text text-anchor="start" x="8" y="-27.3" font-family="Helvetica,sans-Serif" font-size="9.00">+ apply()</text>
<text text-anchor="start" x="8" y="-17.3" font-family="Helvetica,sans-Serif" font-size="9.00">+ get()</text>
<text text-anchor="start" x="8" y="-7.3" font-family="Helvetica,sans-Serif" font-size="9.00">+ remove()</text>
</a>
</g>
</g>
<!-- Node0&#45;&gt;Node1 -->
<g id="edge1" class="edge"><title>Node0&#45;&gt;Node1</title>
<path fill="none" stroke="midnightblue" d="M145,-121.372C145,-112.564 145,-103.344 145,-94.5391"/>
<polygon fill="none" stroke="midnightblue" points="141.5,-121.473 145,-131.473 148.5,-121.473 141.5,-121.473"/>
</g>
</g>
</svg>
