<?xml version="1.0" encoding="UTF-8" standalone="no"?>
<!DOCTYPE svg PUBLIC "-//W3C//DTD SVG 1.1//EN"
 "http://www.w3.org/Graphics/SVG/1.1/DTD/svg11.dtd">
<!-- Generated by graphviz version 2.38.0 (20140413.2041)
 -->
<!-- Title: de.tu_clausthal.in.bachelorproject2018.poker.game.round.CBetRound.apply Pages: 1 -->
<svg width="1606pt" height="640pt"
 viewBox="0.00 0.00 1606.00 640.00" xmlns="http://www.w3.org/2000/svg" xmlns:xlink="http://www.w3.org/1999/xlink">
<g id="graph0" class="graph" transform="scale(1 1) rotate(0) translate(4 636)">
<title>de.tu_clausthal.in.bachelorproject2018.poker.game.round.CBetRound.apply</title>
<!-- Node20 -->
<g id="node1" class="node"><title>Node20</title>
<polygon fill="#bfbfbf" stroke="black" points="0,-297.5 0,-325.5 293,-325.5 293,-297.5 0,-297.5"/>
<text text-anchor="start" x="8" y="-314.3" font-family="Helvetica,sans-Serif" font-size="9.00">de.tu_clausthal.in.bachelorproject2018.poker.game.round.</text>
<text text-anchor="middle" x="146.5" y="-304.3" font-family="Helvetica,sans-Serif" font-size="9.00">CBetRound.apply</text>
</g>
<!-- Node21 -->
<g id="node2" class="node"><title>Node21</title>
<g id="a_node2"><a xlink:href="../../d8/d84/classde_1_1tu__clausthal_1_1in_1_1bachelorproject2018_1_1poker_1_1game_1_1round_1_1CBetRound.htm#a1765981e22f6d1b66a47b631c774194a" target="_top" xlink:title="Constructor. ">
<polygon fill="none" stroke="black" points="329,-603.5 329,-631.5 622,-631.5 622,-603.5 329,-603.5"/>
<text text-anchor="start" x="337" y="-620.3" font-family="Helvetica,sans-Serif" font-size="9.00">de.tu_clausthal.in.bachelorproject2018.poker.game.round.</text>
<text text-anchor="middle" x="475.5" y="-610.3" font-family="Helvetica,sans-Serif" font-size="9.00">CBetRound.CBetRound</text>
</a>
</g>
</g>
<!-- Node20&#45;&gt;Node21 -->
<g id="edge1" class="edge"><title>Node20&#45;&gt;Node21</title>
<path fill="none" stroke="midnightblue" d="M151.891,-325.671C167.329,-372.906 223.938,-525.869 329,-594.5 331.459,-596.106 333.99,-597.615 336.582,-599.031"/>
<polygon fill="midnightblue" stroke="midnightblue" points="335.097,-602.201 345.612,-603.498 338.201,-595.927 335.097,-602.201"/>
</g>
<!-- Node22 -->
<g id="node3" class="node"><title>Node22</title>
<g id="a_node3"><a xlink:href="../../d2/d11/interfacede_1_1tu__clausthal_1_1in_1_1bachelorproject2018_1_1poker_1_1game_1_1player_1_1IPlayer.htm#a84304773c087598ba9f236f99eed028e" target="_top" xlink:title="de.tu_clausthal.in.bachelorproject2018.poker.game.player.\lIPlayer.check">
<polygon fill="none" stroke="black" points="329,-556.5 329,-584.5 622,-584.5 622,-556.5 329,-556.5"/>
<text text-anchor="start" x="337" y="-573.3" font-family="Helvetica,sans-Serif" font-size="9.00">de.tu_clausthal.in.bachelorproject2018.poker.game.player.</text>
<text text-anchor="middle" x="475.5" y="-563.3" font-family="Helvetica,sans-Serif" font-size="9.00">IPlayer.check</text>
</a>
</g>
</g>
<!-- Node20&#45;&gt;Node22 -->
<g id="edge2" class="edge"><title>Node20&#45;&gt;Node22</title>
<path fill="none" stroke="midnightblue" d="M153.661,-325.65C172.736,-367.596 235.233,-491.803 329,-547.5 331.858,-549.198 334.802,-550.783 337.814,-552.261"/>
<polygon fill="midnightblue" stroke="midnightblue" points="336.483,-555.5 347.041,-556.387 339.34,-549.11 336.483,-555.5"/>
</g>
<!-- Node23 -->
<g id="node4" class="node"><title>Node23</title>
<g id="a_node4"><a xlink:href="../../d2/d11/interfacede_1_1tu__clausthal_1_1in_1_1bachelorproject2018_1_1poker_1_1game_1_1player_1_1IPlayer.htm#ad5db5affbd091e4220f3467f21dad0e9" target="_top" xlink:title="de.tu_clausthal.in.bachelorproject2018.poker.game.player.\lIPlayer.checkfolded">
<polygon fill="none" stroke="black" points="329,-509.5 329,-537.5 622,-537.5 622,-509.5 329,-509.5"/>
<text text-anchor="start" x="337" y="-526.3" font-family="Helvetica,sans-Serif" font-size="9.00">de.tu_clausthal.in.bachelorproject2018.poker.game.player.</text>
<text text-anchor="middle" x="475.5" y="-516.3" font-family="Helvetica,sans-Serif" font-size="9.00">IPlayer.checkfolded</text>
</a>
</g>
</g>
<!-- Node20&#45;&gt;Node23 -->
<g id="edge3" class="edge"><title>Node20&#45;&gt;Node23</title>
<path fill="none" stroke="midnightblue" d="M156.228,-325.611C179.35,-361.64 246.13,-457.229 329,-500.5 332.595,-502.377 336.304,-504.11 340.097,-505.71"/>
<polygon fill="midnightblue" stroke="midnightblue" points="339.096,-509.075 349.686,-509.416 341.62,-502.546 339.096,-509.075"/>
</g>
<!-- Node24 -->
<g id="node5" class="node"><title>Node24</title>
<g id="a_node5"><a xlink:href="../../dd/dfe/classde_1_1tu__clausthal_1_1in_1_1bachelorproject2018_1_1poker_1_1game_1_1hubs_1_1ChipsHandling.htm#a9a4587638f416ca6f9e4bab694efec1e" target="_top" xlink:title="check if there are at least 2 players in the round ">
<polygon fill="none" stroke="black" points="331,-462.5 331,-490.5 620,-490.5 620,-462.5 331,-462.5"/>
<text text-anchor="start" x="339" y="-479.3" font-family="Helvetica,sans-Serif" font-size="9.00">de.tu_clausthal.in.bachelorproject2018.poker.game.hubs.</text>
<text text-anchor="middle" x="475.5" y="-469.3" font-family="Helvetica,sans-Serif" font-size="9.00">ChipsHandling.continuePlayingRound</text>
</a>
</g>
</g>
<!-- Node20&#45;&gt;Node24 -->
<g id="edge4" class="edge"><title>Node20&#45;&gt;Node24</title>
<path fill="none" stroke="midnightblue" d="M160.461,-325.641C188.206,-354.918 256.726,-422.059 329,-453.5 333.983,-455.668 339.142,-457.634 344.412,-459.418"/>
<polygon fill="midnightblue" stroke="midnightblue" points="343.417,-462.774 354.006,-462.435 345.516,-456.096 343.417,-462.774"/>
</g>
<!-- Node25 -->
<g id="node6" class="node"><title>Node25</title>
<g id="a_node6"><a xlink:href="../../d2/d11/interfacede_1_1tu__clausthal_1_1in_1_1bachelorproject2018_1_1poker_1_1game_1_1player_1_1IPlayer.htm#afaaca144cd75beb2409f76b80ed4128d" target="_top" xlink:title="de.tu_clausthal.in.bachelorproject2018.poker.game.player.\lIPlayer.getAllIn">
<polygon fill="none" stroke="black" points="329,-415.5 329,-443.5 622,-443.5 622,-415.5 329,-415.5"/>
<text text-anchor="start" x="337" y="-432.3" font-family="Helvetica,sans-Serif" font-size="9.00">de.tu_clausthal.in.bachelorproject2018.poker.game.player.</text>
<text text-anchor="middle" x="475.5" y="-422.3" font-family="Helvetica,sans-Serif" font-size="9.00">IPlayer.getAllIn</text>
</a>
</g>
</g>
<!-- Node20&#45;&gt;Node25 -->
<g id="edge5" class="edge"><title>Node20&#45;&gt;Node25</title>
<path fill="none" stroke="midnightblue" d="M168.824,-325.628C201.736,-346.73 267.546,-386.169 329,-406.5 336.509,-408.984 344.327,-411.204 352.27,-413.186"/>
<polygon fill="midnightblue" stroke="midnightblue" points="351.471,-416.594 362.008,-415.489 353.082,-409.782 351.471,-416.594"/>
</g>
<!-- Node26 -->
<g id="node7" class="node"><title>Node26</title>
<g id="a_node7"><a xlink:href="../../d2/d11/interfacede_1_1tu__clausthal_1_1in_1_1bachelorproject2018_1_1poker_1_1game_1_1player_1_1IPlayer.htm#aadb8e1c84b2c279a409f778124945fdf" target="_top" xlink:title="de.tu_clausthal.in.bachelorproject2018.poker.game.player.\lIPlayer.getChecked">
<polygon fill="none" stroke="black" points="329,-368.5 329,-396.5 622,-396.5 622,-368.5 329,-368.5"/>
<text text-anchor="start" x="337" y="-385.3" font-family="Helvetica,sans-Serif" font-size="9.00">de.tu_clausthal.in.bachelorproject2018.poker.game.player.</text>
<text text-anchor="middle" x="475.5" y="-375.3" font-family="Helvetica,sans-Serif" font-size="9.00">IPlayer.getChecked</text>
</a>
</g>
</g>
<!-- Node20&#45;&gt;Node26 -->
<g id="edge6" class="edge"><title>Node20&#45;&gt;Node26</title>
<path fill="none" stroke="midnightblue" d="M195.331,-325.575C231.745,-335.942 283.233,-349.857 329,-359.5 341.144,-362.059 353.912,-364.474 366.631,-366.708"/>
<polygon fill="midnightblue" stroke="midnightblue" points="366.36,-370.212 376.809,-368.46 367.547,-363.314 366.36,-370.212"/>
</g>
<!-- Node27 -->
<g id="node8" class="node"><title>Node27</title>
<g id="a_node8"><a xlink:href="../../da/d48/classde_1_1tu__clausthal_1_1in_1_1bachelorproject2018_1_1poker_1_1game_1_1hubs_1_1GameHub.htm#a70d72ce0a72b5c0e490bf935258b69f4" target="_top" xlink:title="getter for the chipsHandler ">
<polygon fill="none" stroke="black" points="331,-321.5 331,-349.5 620,-349.5 620,-321.5 331,-321.5"/>
<text text-anchor="start" x="339" y="-338.3" font-family="Helvetica,sans-Serif" font-size="9.00">de.tu_clausthal.in.bachelorproject2018.poker.game.hubs.</text>
<text text-anchor="middle" x="475.5" y="-328.3" font-family="Helvetica,sans-Serif" font-size="9.00">GameHub.getChipsHandler</text>
</a>
</g>
</g>
<!-- Node20&#45;&gt;Node27 -->
<g id="edge7" class="edge"><title>Node20&#45;&gt;Node27</title>
<path fill="none" stroke="midnightblue" d="M293.308,-322.201C302.501,-322.876 311.769,-323.556 320.995,-324.234"/>
<polygon fill="midnightblue" stroke="midnightblue" points="320.754,-327.725 330.983,-324.967 321.266,-320.744 320.754,-327.725"/>
</g>
<!-- Node28 -->
<g id="node9" class="node"><title>Node28</title>
<g id="a_node9"><a xlink:href="../../d5/d36/interfacede_1_1tu__clausthal_1_1in_1_1bachelorproject2018_1_1poker_1_1game_1_1table_1_1ITable.htm#ad5910542f67b66837a7e3c326d22a671" target="_top" xlink:title="de.tu_clausthal.in.bachelorproject2018.poker.game.table.\lITable.getGameHub">
<polygon fill="none" stroke="black" points="330.5,-274.5 330.5,-302.5 620.5,-302.5 620.5,-274.5 330.5,-274.5"/>
<text text-anchor="start" x="338.5" y="-291.3" font-family="Helvetica,sans-Serif" font-size="9.00">de.tu_clausthal.in.bachelorproject2018.poker.game.table.</text>
<text text-anchor="middle" x="475.5" y="-281.3" font-family="Helvetica,sans-Serif" font-size="9.00">ITable.getGameHub</text>
</a>
</g>
</g>
<!-- Node20&#45;&gt;Node28 -->
<g id="edge8" class="edge"><title>Node20&#45;&gt;Node28</title>
<path fill="none" stroke="midnightblue" d="M293.308,-301.244C302.279,-300.613 311.322,-299.977 320.328,-299.344"/>
<polygon fill="midnightblue" stroke="midnightblue" points="320.743,-302.823 330.473,-298.63 320.252,-295.841 320.743,-302.823"/>
</g>
<!-- Node29 -->
<g id="node10" class="node"><title>Node29</title>
<g id="a_node10"><a xlink:href="../../dd/dfe/classde_1_1tu__clausthal_1_1in_1_1bachelorproject2018_1_1poker_1_1game_1_1hubs_1_1ChipsHandling.htm#a5baac0bfb1fc17efae72af80d8cd0fda" target="_top" xlink:title="get the Highest Bid for displaying information ">
<polygon fill="none" stroke="black" points="331,-227.5 331,-255.5 620,-255.5 620,-227.5 331,-227.5"/>
<text text-anchor="start" x="339" y="-244.3" font-family="Helvetica,sans-Serif" font-size="9.00">de.tu_clausthal.in.bachelorproject2018.poker.game.hubs.</text>
<text text-anchor="middle" x="475.5" y="-234.3" font-family="Helvetica,sans-Serif" font-size="9.00">ChipsHandling.getHighestBidThisRound</text>
</a>
</g>
</g>
<!-- Node20&#45;&gt;Node29 -->
<g id="edge9" class="edge"><title>Node20&#45;&gt;Node29</title>
<path fill="none" stroke="midnightblue" d="M198.085,-297.455C234.346,-287.687 284.451,-274.802 329,-265.5 342.846,-262.609 357.493,-259.848 371.95,-257.295"/>
<polygon fill="midnightblue" stroke="midnightblue" points="372.664,-260.724 381.916,-255.562 371.464,-253.827 372.664,-260.724"/>
</g>
<!-- Node30 -->
<g id="node11" class="node"><title>Node30</title>
<g id="a_node11"><a xlink:href="../../d2/d11/interfacede_1_1tu__clausthal_1_1in_1_1bachelorproject2018_1_1poker_1_1game_1_1player_1_1IPlayer.htm#aeab0d6e898c99016fe7a79384319dc8f" target="_top" xlink:title="liefert den Namen des Spielers ">
<polygon fill="none" stroke="black" points="329,-180.5 329,-208.5 622,-208.5 622,-180.5 329,-180.5"/>
<text text-anchor="start" x="337" y="-197.3" font-family="Helvetica,sans-Serif" font-size="9.00">de.tu_clausthal.in.bachelorproject2018.poker.game.player.</text>
<text text-anchor="middle" x="475.5" y="-187.3" font-family="Helvetica,sans-Serif" font-size="9.00">IPlayer.getName</text>
</a>
</g>
</g>
<!-- Node20&#45;&gt;Node30 -->
<g id="edge10" class="edge"><title>Node20&#45;&gt;Node30</title>
<path fill="none" stroke="midnightblue" d="M169.435,-297.398C202.608,-276.748 268.138,-238.568 329,-218.5 337.66,-215.645 346.727,-213.119 355.919,-210.887"/>
<polygon fill="midnightblue" stroke="midnightblue" points="356.973,-214.236 365.931,-208.579 355.4,-207.415 356.973,-214.236"/>
</g>
<!-- Node31 -->
<g id="node12" class="node"><title>Node31</title>
<g id="a_node12"><a xlink:href="../../dd/dfe/classde_1_1tu__clausthal_1_1in_1_1bachelorproject2018_1_1poker_1_1game_1_1hubs_1_1ChipsHandling.htm#a937e5df176dcec5581d24aa6d4f716d4" target="_top" xlink:title="getter für newRound ">
<polygon fill="none" stroke="black" points="331,-133.5 331,-161.5 620,-161.5 620,-133.5 331,-133.5"/>
<text text-anchor="start" x="339" y="-150.3" font-family="Helvetica,sans-Serif" font-size="9.00">de.tu_clausthal.in.bachelorproject2018.poker.game.hubs.</text>
<text text-anchor="middle" x="475.5" y="-140.3" font-family="Helvetica,sans-Serif" font-size="9.00">ChipsHandling.getNewRound</text>
</a>
</g>
</g>
<!-- Node20&#45;&gt;Node31 -->
<g id="edge11" class="edge"><title>Node20&#45;&gt;Node31</title>
<path fill="none" stroke="midnightblue" d="M160.95,-297.16C189.08,-268.148 257.473,-202.609 329,-171.5 335.073,-168.859 341.404,-166.506 347.879,-164.411"/>
<polygon fill="midnightblue" stroke="midnightblue" points="348.893,-167.761 357.456,-161.522 346.871,-161.059 348.893,-167.761"/>
</g>
<!-- Node32 -->
<g id="node13" class="node"><title>Node32</title>
<g id="a_node13"><a xlink:href="../../da/d48/classde_1_1tu__clausthal_1_1in_1_1bachelorproject2018_1_1poker_1_1game_1_1hubs_1_1GameHub.htm#a2f65b057de245146843c2f5c3bbe30f1" target="_top" xlink:title="getter for the playerlist ">
<polygon fill="none" stroke="black" points="658,-45.5 658,-73.5 947,-73.5 947,-45.5 658,-45.5"/>
<text text-anchor="start" x="666" y="-62.3" font-family="Helvetica,sans-Serif" font-size="9.00">de.tu_clausthal.in.bachelorproject2018.poker.game.hubs.</text>
<text text-anchor="middle" x="802.5" y="-52.3" font-family="Helvetica,sans-Serif" font-size="9.00">GameHub.getPlayerList</text>
</a>
</g>
</g>
<!-- Node20&#45;&gt;Node32 -->
<g id="edge12" class="edge"><title>Node20&#45;&gt;Node32</title>
<path fill="none" stroke="midnightblue" d="M156.207,-297.42C179.28,-261.492 245.953,-166.302 329,-124.5 446.344,-65.4348 491.88,-103.583 622,-85.5 645.985,-82.1667 671.759,-78.4897 696.082,-74.9764"/>
<polygon fill="midnightblue" stroke="midnightblue" points="696.648,-78.431 706.044,-73.5349 695.646,-71.5031 696.648,-78.431"/>
</g>
<!-- Node35 -->
<g id="node16" class="node"><title>Node35</title>
<g id="a_node16"><a xlink:href="../../d5/d36/interfacede_1_1tu__clausthal_1_1in_1_1bachelorproject2018_1_1poker_1_1game_1_1table_1_1ITable.htm#a442079183a6b0e75a07ee8549947f929" target="_top" xlink:title="Name des Tisches. ">
<polygon fill="none" stroke="black" points="330.5,-47.5 330.5,-75.5 620.5,-75.5 620.5,-47.5 330.5,-47.5"/>
<text text-anchor="start" x="338.5" y="-64.3" font-family="Helvetica,sans-Serif" font-size="9.00">de.tu_clausthal.in.bachelorproject2018.poker.game.table.</text>
<text text-anchor="middle" x="475.5" y="-54.3" font-family="Helvetica,sans-Serif" font-size="9.00">ITable.name</text>
</a>
</g>
</g>
<!-- Node20&#45;&gt;Node35 -->
<g id="edge15" class="edge"><title>Node20&#45;&gt;Node35</title>
<path fill="none" stroke="midnightblue" d="M154.607,-297.282C175.346,-257.389 239.998,-143.848 329,-90.5 336.464,-86.0261 344.492,-82.2279 352.805,-79.0052"/>
<polygon fill="midnightblue" stroke="midnightblue" points="354.063,-82.2724 362.298,-75.6056 351.703,-75.6823 354.063,-82.2724"/>
</g>
<!-- Node36 -->
<g id="node17" class="node"><title>Node36</title>
<g id="a_node17"><a xlink:href="../../dd/dfe/classde_1_1tu__clausthal_1_1in_1_1bachelorproject2018_1_1poker_1_1game_1_1hubs_1_1ChipsHandling.htm#a5b94b453988143f94f75fe786beb1bc8" target="_top" xlink:title="update who to Ask, return player next in line ">
<polygon fill="none" stroke="black" points="331,-0.5 331,-28.5 620,-28.5 620,-0.5 331,-0.5"/>
<text text-anchor="start" x="339" y="-17.3" font-family="Helvetica,sans-Serif" font-size="9.00">de.tu_clausthal.in.bachelorproject2018.poker.game.hubs.</text>
<text text-anchor="middle" x="475.5" y="-7.3" font-family="Helvetica,sans-Serif" font-size="9.00">ChipsHandling.updateWhoToAsk</text>
</a>
</g>
</g>
<!-- Node20&#45;&gt;Node36 -->
<g id="edge16" class="edge"><title>Node20&#45;&gt;Node36</title>
<path fill="none" stroke="midnightblue" d="M152.293,-297.205C168.605,-250.963 226.707,-104.612 329,-38.5 332.141,-36.4698 335.398,-34.5931 338.746,-32.8591"/>
<polygon fill="midnightblue" stroke="midnightblue" points="340.251,-36.0194 347.809,-28.5947 337.27,-29.6856 340.251,-36.0194"/>
</g>
<!-- Node33 -->
<g id="node14" class="node"><title>Node33</title>
<g id="a_node14"><a xlink:href="../../da/d48/classde_1_1tu__clausthal_1_1in_1_1bachelorproject2018_1_1poker_1_1game_1_1hubs_1_1GameHub.htm#a779929edeff8f64a359c53d09be3ca06" target="_top" xlink:title="zieht sich die aktuelle playerList vom Table ">
<polygon fill="none" stroke="black" points="983,-45.5 983,-73.5 1272,-73.5 1272,-45.5 983,-45.5"/>
<text text-anchor="start" x="991" y="-62.3" font-family="Helvetica,sans-Serif" font-size="9.00">de.tu_clausthal.in.bachelorproject2018.poker.game.hubs.</text>
<text text-anchor="middle" x="1127.5" y="-52.3" font-family="Helvetica,sans-Serif" font-size="9.00">GameHub.updatePlayerlist</text>
</a>
</g>
</g>
<!-- Node32&#45;&gt;Node33 -->
<g id="edge13" class="edge"><title>Node32&#45;&gt;Node33</title>
<path fill="none" stroke="midnightblue" d="M947.054,-59.5C955.591,-59.5 964.196,-59.5 972.772,-59.5"/>
<polygon fill="midnightblue" stroke="midnightblue" points="972.821,-63.0001 982.821,-59.5 972.821,-56.0001 972.821,-63.0001"/>
</g>
<!-- Node34 -->
<g id="node15" class="node"><title>Node34</title>
<g id="a_node15"><a xlink:href="../../d5/d36/interfacede_1_1tu__clausthal_1_1in_1_1bachelorproject2018_1_1poker_1_1game_1_1table_1_1ITable.htm#a6e42c7daa9c258015750347f2a5542fe" target="_top" xlink:title="liefert alle Spieler des Tisches ">
<polygon fill="none" stroke="black" points="1308,-45.5 1308,-73.5 1598,-73.5 1598,-45.5 1308,-45.5"/>
<text text-anchor="start" x="1316" y="-62.3" font-family="Helvetica,sans-Serif" font-size="9.00">de.tu_clausthal.in.bachelorproject2018.poker.game.table.</text>
<text text-anchor="middle" x="1453" y="-52.3" font-family="Helvetica,sans-Serif" font-size="9.00">ITable.list</text>
</a>
</g>
</g>
<!-- Node33&#45;&gt;Node34 -->
<g id="edge14" class="edge"><title>Node33&#45;&gt;Node34</title>
<path fill="none" stroke="midnightblue" d="M1272.28,-59.5C1280.67,-59.5 1289.14,-59.5 1297.57,-59.5"/>
<polygon fill="midnightblue" stroke="midnightblue" points="1297.85,-63.0001 1307.84,-59.5 1297.84,-56.0001 1297.85,-63.0001"/>
</g>
<!-- Node36&#45;&gt;Node32 -->
<g id="edge17" class="edge"><title>Node36&#45;&gt;Node32</title>
<path fill="none" stroke="midnightblue" d="M577.995,-28.5532C613.576,-33.4797 653.721,-39.0383 690.071,-44.0714"/>
<polygon fill="midnightblue" stroke="midnightblue" points="689.83,-47.5714 700.216,-45.4761 690.79,-40.6375 689.83,-47.5714"/>
</g>
</g>
</svg>
