<?xml version="1.0" encoding="UTF-8" standalone="no"?>
<!DOCTYPE svg PUBLIC "-//W3C//DTD SVG 1.1//EN"
 "http://www.w3.org/Graphics/SVG/1.1/DTD/svg11.dtd">
<!-- Generated by graphviz version 2.38.0 (20140413.2041)
 -->
<!-- Title: de.tu_clausthal.in.bachelorproject2018.poker.game.round.CBetRound.accept Pages: 1 -->
<!--zoomable 546 -->
<svg id="main" version="1.1" xmlns="http://www.w3.org/2000/svg" xmlns:xlink="http://www.w3.org/1999/xlink" xml:space="preserve" onload="init(evt)">
<style type="text/css"><![CDATA[
.edge:hover path { stroke: red; }
.edge:hover polygon { stroke: red; fill: red; }
]]></style>
<script type="text/javascript"><![CDATA[
var edges = document.getElementsByTagName('g');
if (edges && edges.length) {
  for (var i=0;i<edges.length;i++) {
    if (edges[i].id.substr(0,4)=='edge') {
      edges[i].setAttribute('class','edge');
    }
  }
}
]]></script>
        <defs>
                <circle id="rim" cx="0" cy="0" r="7"/>
                <circle id="rim2" cx="0" cy="0" r="3.5"/>
                <g id="zoomPlus">
                        <use xlink:href="#rim" fill="#404040">
                                <set attributeName="fill" to="#808080" begin="zoomplus.mouseover" end="zoomplus.mouseout"/>
                        </use>
                        <path d="M-4,0h8M0,-4v8" fill="none" stroke="white" stroke-width="1.5" pointer-events="none"/>
                </g>
                <g id="zoomMin">
                        <use xlink:href="#rim" fill="#404040">
                                <set attributeName="fill" to="#808080" begin="zoomminus.mouseover" end="zoomminus.mouseout"/>
                        </use>
                        <path d="M-4,0h8" fill="none" stroke="white" stroke-width="1.5" pointer-events="none"/>
                </g>
                <g id="dirArrow">
                        <path fill="none" stroke="white" stroke-width="1.5" d="M0,-3.0v7 M-2.5,-0.5L0,-3.0L2.5,-0.5"/>
                </g>
               <g id="resetDef">
                       <use xlink:href="#rim2" fill="#404040">
                               <set attributeName="fill" to="#808080" begin="reset.mouseover" end="reset.mouseout"/>
                       </use>
               </g>
        </defs>

<script type="text/javascript">
var viewWidth = 1606;
var viewHeight = 546;
var sectionId = 'dynsection-3';
</script>
<script xlink:href="../../svgpan.js"/>
<svg id="graph" class="graph">
<g id="viewport">
<title>de.tu_clausthal.in.bachelorproject2018.poker.game.round.CBetRound.accept</title>
<!-- Node4 -->
<g id="node1" class="node"><title>Node4</title>
<polygon fill="#bfbfbf" stroke="black" points="0,-250.5 0,-278.5 293,-278.5 293,-250.5 0,-250.5"/>
<text text-anchor="start" x="8" y="-267.3" font-family="Helvetica,sans-Serif" font-size="9.00">de.tu_clausthal.in.bachelorproject2018.poker.game.round.</text>
<text text-anchor="middle" x="146.5" y="-257.3" font-family="Helvetica,sans-Serif" font-size="9.00">CBetRound.accept</text>
</g>
<!-- Node5 -->
<g id="node2" class="node"><title>Node5</title>
<g id="a_node2"><a xlink:href="../../d8/d84/classde_1_1tu__clausthal_1_1in_1_1bachelorproject2018_1_1poker_1_1game_1_1round_1_1CBetRound.htm#a1765981e22f6d1b66a47b631c774194a" target="_top" xlink:title="Constructor. ">
<polygon fill="none" stroke="black" points="329,-509.5 329,-537.5 622,-537.5 622,-509.5 329,-509.5"/>
<text text-anchor="start" x="337" y="-526.3" font-family="Helvetica,sans-Serif" font-size="9.00">de.tu_clausthal.in.bachelorproject2018.poker.game.round.</text>
<text text-anchor="middle" x="475.5" y="-516.3" font-family="Helvetica,sans-Serif" font-size="9.00">CBetRound.CBetRound</text>
</a>
</g>
</g>
<!-- Node4&#45;&gt;Node5 -->
<g id="edge1" class="edge"><title>Node4&#45;&gt;Node5</title>
<path fill="none" stroke="midnightblue" d="M153.661,-278.65C172.736,-320.596 235.233,-444.803 329,-500.5 331.858,-502.198 334.802,-503.783 337.814,-505.261"/>
<polygon fill="midnightblue" stroke="midnightblue" points="336.483,-508.5 347.041,-509.387 339.34,-502.11 336.483,-508.5"/>
</g>
<!-- Node6 -->
<g id="node3" class="node"><title>Node6</title>
<g id="a_node3"><a xlink:href="../../d2/d11/interfacede_1_1tu__clausthal_1_1in_1_1bachelorproject2018_1_1poker_1_1game_1_1player_1_1IPlayer.htm#aadb8e1c84b2c279a409f778124945fdf" target="_top" xlink:title="de.tu_clausthal.in.bachelorproject2018.poker.game.player.\lIPlayer.getChecked">
<polygon fill="none" stroke="black" points="329,-462.5 329,-490.5 622,-490.5 622,-462.5 329,-462.5"/>
<text text-anchor="start" x="337" y="-479.3" font-family="Helvetica,sans-Serif" font-size="9.00">de.tu_clausthal.in.bachelorproject2018.poker.game.player.</text>
<text text-anchor="middle" x="475.5" y="-469.3" font-family="Helvetica,sans-Serif" font-size="9.00">IPlayer.getChecked</text>
</a>
</g>
</g>
<!-- Node4&#45;&gt;Node6 -->
<g id="edge2" class="edge"><title>Node4&#45;&gt;Node6</title>
<path fill="none" stroke="midnightblue" d="M156.228,-278.611C179.35,-314.64 246.13,-410.229 329,-453.5 332.595,-455.377 336.304,-457.11 340.097,-458.71"/>
<polygon fill="midnightblue" stroke="midnightblue" points="339.096,-462.075 349.686,-462.416 341.62,-455.546 339.096,-462.075"/>
</g>
<!-- Node7 -->
<g id="node4" class="node"><title>Node7</title>
<g id="a_node4"><a xlink:href="../../da/d48/classde_1_1tu__clausthal_1_1in_1_1bachelorproject2018_1_1poker_1_1game_1_1hubs_1_1GameHub.htm#a70d72ce0a72b5c0e490bf935258b69f4" target="_top" xlink:title="getter for the chipsHandler ">
<polygon fill="none" stroke="black" points="331,-415.5 331,-443.5 620,-443.5 620,-415.5 331,-415.5"/>
<text text-anchor="start" x="339" y="-432.3" font-family="Helvetica,sans-Serif" font-size="9.00">de.tu_clausthal.in.bachelorproject2018.poker.game.hubs.</text>
<text text-anchor="middle" x="475.5" y="-422.3" font-family="Helvetica,sans-Serif" font-size="9.00">GameHub.getChipsHandler</text>
</a>
</g>
</g>
<!-- Node4&#45;&gt;Node7 -->
<g id="edge3" class="edge"><title>Node4&#45;&gt;Node7</title>
<path fill="none" stroke="midnightblue" d="M160.461,-278.641C188.206,-307.918 256.726,-375.059 329,-406.5 333.983,-408.668 339.142,-410.634 344.412,-412.418"/>
<polygon fill="midnightblue" stroke="midnightblue" points="343.417,-415.774 354.006,-415.435 345.516,-409.096 343.417,-415.774"/>
</g>
<!-- Node8 -->
<g id="node5" class="node"><title>Node8</title>
<g id="a_node5"><a xlink:href="../../d5/d36/interfacede_1_1tu__clausthal_1_1in_1_1bachelorproject2018_1_1poker_1_1game_1_1table_1_1ITable.htm#ad5910542f67b66837a7e3c326d22a671" target="_top" xlink:title="de.tu_clausthal.in.bachelorproject2018.poker.game.table.\lITable.getGameHub">
<polygon fill="none" stroke="black" points="330.5,-368.5 330.5,-396.5 620.5,-396.5 620.5,-368.5 330.5,-368.5"/>
<text text-anchor="start" x="338.5" y="-385.3" font-family="Helvetica,sans-Serif" font-size="9.00">de.tu_clausthal.in.bachelorproject2018.poker.game.table.</text>
<text text-anchor="middle" x="475.5" y="-375.3" font-family="Helvetica,sans-Serif" font-size="9.00">ITable.getGameHub</text>
</a>
</g>
</g>
<!-- Node4&#45;&gt;Node8 -->
<g id="edge4" class="edge"><title>Node4&#45;&gt;Node8</title>
<path fill="none" stroke="midnightblue" d="M168.824,-278.628C201.736,-299.73 267.546,-339.169 329,-359.5 336.509,-361.984 344.327,-364.204 352.27,-366.186"/>
<polygon fill="midnightblue" stroke="midnightblue" points="351.471,-369.594 362.008,-368.489 353.082,-362.782 351.471,-369.594"/>
</g>
<!-- Node9 -->
<g id="node6" class="node"><title>Node9</title>
<g id="a_node6"><a xlink:href="../../dd/dfe/classde_1_1tu__clausthal_1_1in_1_1bachelorproject2018_1_1poker_1_1game_1_1hubs_1_1ChipsHandling.htm#a5baac0bfb1fc17efae72af80d8cd0fda" target="_top" xlink:title="get the Highest Bid for displaying information ">
<polygon fill="none" stroke="black" points="331,-321.5 331,-349.5 620,-349.5 620,-321.5 331,-321.5"/>
<text text-anchor="start" x="339" y="-338.3" font-family="Helvetica,sans-Serif" font-size="9.00">de.tu_clausthal.in.bachelorproject2018.poker.game.hubs.</text>
<text text-anchor="middle" x="475.5" y="-328.3" font-family="Helvetica,sans-Serif" font-size="9.00">ChipsHandling.getHighestBidThisRound</text>
</a>
</g>
</g>
<!-- Node4&#45;&gt;Node9 -->
<g id="edge5" class="edge"><title>Node4&#45;&gt;Node9</title>
<path fill="none" stroke="midnightblue" d="M195.331,-278.575C231.745,-288.942 283.233,-302.857 329,-312.5 341.144,-315.059 353.912,-317.474 366.631,-319.708"/>
<polygon fill="midnightblue" stroke="midnightblue" points="366.36,-323.212 376.809,-321.46 367.547,-316.314 366.36,-323.212"/>
</g>
<!-- Node10 -->
<g id="node7" class="node"><title>Node10</title>
<g id="a_node7"><a xlink:href="../../d2/d11/interfacede_1_1tu__clausthal_1_1in_1_1bachelorproject2018_1_1poker_1_1game_1_1player_1_1IPlayer.htm#aeab0d6e898c99016fe7a79384319dc8f" target="_top" xlink:title="liefert den Namen des Spielers ">
<polygon fill="none" stroke="black" points="329,-274.5 329,-302.5 622,-302.5 622,-274.5 329,-274.5"/>
<text text-anchor="start" x="337" y="-291.3" font-family="Helvetica,sans-Serif" font-size="9.00">de.tu_clausthal.in.bachelorproject2018.poker.game.player.</text>
<text text-anchor="middle" x="475.5" y="-281.3" font-family="Helvetica,sans-Serif" font-size="9.00">IPlayer.getName</text>
</a>
</g>
</g>
<!-- Node4&#45;&gt;Node10 -->
<g id="edge6" class="edge"><title>Node4&#45;&gt;Node10</title>
<path fill="none" stroke="midnightblue" d="M293.308,-275.201C301.815,-275.826 310.388,-276.455 318.931,-277.082"/>
<polygon fill="midnightblue" stroke="midnightblue" points="318.712,-280.575 328.941,-277.817 319.224,-273.594 318.712,-280.575"/>
</g>
<!-- Node11 -->
<g id="node8" class="node"><title>Node11</title>
<g id="a_node8"><a xlink:href="../../dd/dfe/classde_1_1tu__clausthal_1_1in_1_1bachelorproject2018_1_1poker_1_1game_1_1hubs_1_1ChipsHandling.htm#a937e5df176dcec5581d24aa6d4f716d4" target="_top" xlink:title="getter für newRound ">
<polygon fill="none" stroke="black" points="331,-227.5 331,-255.5 620,-255.5 620,-227.5 331,-227.5"/>
<text text-anchor="start" x="339" y="-244.3" font-family="Helvetica,sans-Serif" font-size="9.00">de.tu_clausthal.in.bachelorproject2018.poker.game.hubs.</text>
<text text-anchor="middle" x="475.5" y="-234.3" font-family="Helvetica,sans-Serif" font-size="9.00">ChipsHandling.getNewRound</text>
</a>
</g>
</g>
<!-- Node4&#45;&gt;Node11 -->
<g id="edge7" class="edge"><title>Node4&#45;&gt;Node11</title>
<path fill="none" stroke="midnightblue" d="M293.308,-254.244C302.501,-253.598 311.769,-252.946 320.995,-252.297"/>
<polygon fill="midnightblue" stroke="midnightblue" points="321.254,-255.788 330.983,-251.594 320.762,-248.805 321.254,-255.788"/>
</g>
<!-- Node12 -->
<g id="node9" class="node"><title>Node12</title>
<g id="a_node9"><a xlink:href="../../da/d48/classde_1_1tu__clausthal_1_1in_1_1bachelorproject2018_1_1poker_1_1game_1_1hubs_1_1GameHub.htm#a2f65b057de245146843c2f5c3bbe30f1" target="_top" xlink:title="getter for the playerlist ">
<polygon fill="none" stroke="black" points="658,-92.5 658,-120.5 947,-120.5 947,-92.5 658,-92.5"/>
<text text-anchor="start" x="666" y="-109.3" font-family="Helvetica,sans-Serif" font-size="9.00">de.tu_clausthal.in.bachelorproject2018.poker.game.hubs.</text>
<text text-anchor="middle" x="802.5" y="-99.3" font-family="Helvetica,sans-Serif" font-size="9.00">GameHub.getPlayerList</text>
</a>
</g>
</g>
<!-- Node4&#45;&gt;Node12 -->
<g id="edge8" class="edge"><title>Node4&#45;&gt;Node12</title>
<path fill="none" stroke="midnightblue" d="M196.456,-250.452C232.788,-240.428 283.674,-227.23 329,-218.5 458,-193.654 495.021,-213.183 622,-179.5 672.894,-166 728.651,-141.721 764.302,-124.889"/>
<polygon fill="midnightblue" stroke="midnightblue" points="765.841,-128.033 773.36,-120.568 762.827,-121.715 765.841,-128.033"/>
</g>
<!-- Node15 -->
<g id="node12" class="node"><title>Node15</title>
<g id="a_node12"><a xlink:href="../../d5/d36/interfacede_1_1tu__clausthal_1_1in_1_1bachelorproject2018_1_1poker_1_1game_1_1table_1_1ITable.htm#a442079183a6b0e75a07ee8549947f929" target="_top" xlink:title="Name des Tisches. ">
<polygon fill="none" stroke="black" points="330.5,-141.5 330.5,-169.5 620.5,-169.5 620.5,-141.5 330.5,-141.5"/>
<text text-anchor="start" x="338.5" y="-158.3" font-family="Helvetica,sans-Serif" font-size="9.00">de.tu_clausthal.in.bachelorproject2018.poker.game.table.</text>
<text text-anchor="middle" x="475.5" y="-148.3" font-family="Helvetica,sans-Serif" font-size="9.00">ITable.name</text>
</a>
</g>
</g>
<!-- Node4&#45;&gt;Node15 -->
<g id="edge11" class="edge"><title>Node4&#45;&gt;Node15</title>
<path fill="none" stroke="midnightblue" d="M174.451,-250.383C209.277,-232.669 272.193,-202.443 329,-184.5 344.56,-179.585 361.329,-175.327 377.756,-171.701"/>
<polygon fill="midnightblue" stroke="midnightblue" points="378.88,-175.04 387.926,-169.525 377.415,-168.195 378.88,-175.04"/>
</g>
<!-- Node16 -->
<g id="node13" class="node"><title>Node16</title>
<g id="a_node13"><a xlink:href="../../db/d6f/interfacede_1_1tu__clausthal_1_1in_1_1bachelorproject2018_1_1poker_1_1network_1_1IMessage.htm#a8bea2bd45840557ebe540b06008969ac" target="_top" xlink:title="de.tu_clausthal.in.bachelorproject2018.poker.network.\lIMessage.player">
<polygon fill="none" stroke="black" points="338.5,-94.5 338.5,-122.5 612.5,-122.5 612.5,-94.5 338.5,-94.5"/>
<text text-anchor="start" x="346.5" y="-111.3" font-family="Helvetica,sans-Serif" font-size="9.00">de.tu_clausthal.in.bachelorproject2018.poker.network.</text>
<text text-anchor="middle" x="475.5" y="-101.3" font-family="Helvetica,sans-Serif" font-size="9.00">IMessage.player</text>
</a>
</g>
</g>
<!-- Node4&#45;&gt;Node16 -->
<g id="edge12" class="edge"><title>Node4&#45;&gt;Node16</title>
<path fill="none" stroke="midnightblue" d="M162.01,-250.155C190.991,-222.432 259.266,-161.666 329,-132.5 335.268,-129.878 341.801,-127.542 348.475,-125.461"/>
<polygon fill="midnightblue" stroke="midnightblue" points="349.717,-128.745 358.341,-122.59 347.761,-122.023 349.717,-128.745"/>
</g>
<!-- Node17 -->
<g id="node14" class="node"><title>Node17</title>
<g id="a_node14"><a xlink:href="../../db/d6f/interfacede_1_1tu__clausthal_1_1in_1_1bachelorproject2018_1_1poker_1_1network_1_1IMessage.htm#a1dba4ccdf2819e869570aa69d37070b0" target="_top" xlink:title="de.tu_clausthal.in.bachelorproject2018.poker.network.\lIMessage.type">
<polygon fill="none" stroke="black" points="338.5,-47.5 338.5,-75.5 612.5,-75.5 612.5,-47.5 338.5,-47.5"/>
<text text-anchor="start" x="346.5" y="-64.3" font-family="Helvetica,sans-Serif" font-size="9.00">de.tu_clausthal.in.bachelorproject2018.poker.network.</text>
<text text-anchor="middle" x="475.5" y="-54.3" font-family="Helvetica,sans-Serif" font-size="9.00">IMessage.type</text>
</a>
</g>
</g>
<!-- Node4&#45;&gt;Node17 -->
<g id="edge13" class="edge"><title>Node4&#45;&gt;Node17</title>
<path fill="none" stroke="midnightblue" d="M156.965,-250.415C181.061,-215.809 248.546,-126.466 329,-85.5 333.657,-83.1285 338.497,-80.9827 343.461,-79.0415"/>
<polygon fill="midnightblue" stroke="midnightblue" points="344.92,-82.2361 353.143,-75.5553 342.549,-75.65 344.92,-82.2361"/>
</g>
<!-- Node18 -->
<g id="node15" class="node"><title>Node18</title>
<g id="a_node15"><a xlink:href="../../dd/dfe/classde_1_1tu__clausthal_1_1in_1_1bachelorproject2018_1_1poker_1_1game_1_1hubs_1_1ChipsHandling.htm#a5b94b453988143f94f75fe786beb1bc8" target="_top" xlink:title="update who to Ask, return player next in line ">
<polygon fill="none" stroke="black" points="331,-0.5 331,-28.5 620,-28.5 620,-0.5 331,-0.5"/>
<text text-anchor="start" x="339" y="-17.3" font-family="Helvetica,sans-Serif" font-size="9.00">de.tu_clausthal.in.bachelorproject2018.poker.game.hubs.</text>
<text text-anchor="middle" x="475.5" y="-7.3" font-family="Helvetica,sans-Serif" font-size="9.00">ChipsHandling.updateWhoToAsk</text>
</a>
</g>
</g>
<!-- Node4&#45;&gt;Node18 -->
<g id="edge14" class="edge"><title>Node4&#45;&gt;Node18</title>
<path fill="none" stroke="midnightblue" d="M154.137,-250.396C174.076,-209.739 237.758,-91.8163 329,-38.5 332.73,-36.3203 336.601,-34.3237 340.577,-32.4956"/>
<polygon fill="midnightblue" stroke="midnightblue" points="342.164,-35.6254 350.031,-28.5285 339.455,-29.1706 342.164,-35.6254"/>
</g>
<!-- Node13 -->
<g id="node10" class="node"><title>Node13</title>
<g id="a_node10"><a xlink:href="../../da/d48/classde_1_1tu__clausthal_1_1in_1_1bachelorproject2018_1_1poker_1_1game_1_1hubs_1_1GameHub.htm#a779929edeff8f64a359c53d09be3ca06" target="_top" xlink:title="zieht sich die aktuelle playerList vom Table ">
<polygon fill="none" stroke="black" points="983,-92.5 983,-120.5 1272,-120.5 1272,-92.5 983,-92.5"/>
<text text-anchor="start" x="991" y="-109.3" font-family="Helvetica,sans-Serif" font-size="9.00">de.tu_clausthal.in.bachelorproject2018.poker.game.hubs.</text>
<text text-anchor="middle" x="1127.5" y="-99.3" font-family="Helvetica,sans-Serif" font-size="9.00">GameHub.updatePlayerlist</text>
</a>
</g>
</g>
<!-- Node12&#45;&gt;Node13 -->
<g id="edge9" class="edge"><title>Node12&#45;&gt;Node13</title>
<path fill="none" stroke="midnightblue" d="M947.054,-106.5C955.591,-106.5 964.196,-106.5 972.772,-106.5"/>
<polygon fill="midnightblue" stroke="midnightblue" points="972.821,-110 982.821,-106.5 972.821,-103 972.821,-110"/>
</g>
<!-- Node14 -->
<g id="node11" class="node"><title>Node14</title>
<g id="a_node11"><a xlink:href="../../d5/d36/interfacede_1_1tu__clausthal_1_1in_1_1bachelorproject2018_1_1poker_1_1game_1_1table_1_1ITable.htm#a6e42c7daa9c258015750347f2a5542fe" target="_top" xlink:title="liefert alle Spieler des Tisches ">
<polygon fill="none" stroke="black" points="1308,-92.5 1308,-120.5 1598,-120.5 1598,-92.5 1308,-92.5"/>
<text text-anchor="start" x="1316" y="-109.3" font-family="Helvetica,sans-Serif" font-size="9.00">de.tu_clausthal.in.bachelorproject2018.poker.game.table.</text>
<text text-anchor="middle" x="1453" y="-99.3" font-family="Helvetica,sans-Serif" font-size="9.00">ITable.list</text>
</a>
</g>
</g>
<!-- Node13&#45;&gt;Node14 -->
<g id="edge10" class="edge"><title>Node13&#45;&gt;Node14</title>
<path fill="none" stroke="midnightblue" d="M1272.28,-106.5C1280.67,-106.5 1289.14,-106.5 1297.57,-106.5"/>
<polygon fill="midnightblue" stroke="midnightblue" points="1297.85,-110 1307.84,-106.5 1297.84,-103 1297.85,-110"/>
</g>
<!-- Node18&#45;&gt;Node12 -->
<g id="edge15" class="edge"><title>Node18&#45;&gt;Node12</title>
<path fill="none" stroke="midnightblue" d="M577.636,-28.5137C592.614,-31.3585 607.784,-34.6757 622,-38.5 670.681,-51.5964 724.509,-72.96 760.401,-88.247"/>
<polygon fill="midnightblue" stroke="midnightblue" points="759.461,-91.6522 770.03,-92.3857 762.225,-85.2211 759.461,-91.6522"/>
</g>
</g>
</svg>
        <g id="navigator" transform="translate(0 0)" fill="#404254">
                <rect fill="#f2f5e9" fill-opacity="0.5" stroke="#606060" stroke-width=".5" x="0" y="0" width="60" height="60"/>
                <use id="zoomplus" xlink:href="#zoomPlus" x="17" y="9" onmousedown="handleZoom(evt,'in')"/>
                <use id="zoomminus" xlink:href="#zoomMin" x="42" y="9" onmousedown="handleZoom(evt,'out')"/>
                <use id="reset" xlink:href="#resetDef" x="30" y="36" onmousedown="handleReset()"/>
                <g id="arrowUp" xlink:href="#dirArrow" transform="translate(30 24)" onmousedown="handlePan(0,-1)">
                  <use xlink:href="#rim" fill="#404040">
                        <set attributeName="fill" to="#808080" begin="arrowUp.mouseover" end="arrowUp.mouseout"/>
                  </use>
                  <path fill="none" stroke="white" stroke-width="1.5" d="M0,-3.0v7 M-2.5,-0.5L0,-3.0L2.5,-0.5"/>
                </g>
                <g id="arrowRight" xlink:href="#dirArrow" transform="rotate(90) translate(36 -43)" onmousedown="handlePan(1,0)">
                  <use xlink:href="#rim" fill="#404040">
                        <set attributeName="fill" to="#808080" begin="arrowRight.mouseover" end="arrowRight.mouseout"/>
                  </use>
                  <path fill="none" stroke="white" stroke-width="1.5" d="M0,-3.0v7 M-2.5,-0.5L0,-3.0L2.5,-0.5"/>
                </g>
                <g id="arrowDown" xlink:href="#dirArrow" transform="rotate(180) translate(-30 -48)" onmousedown="handlePan(0,1)">
                  <use xlink:href="#rim" fill="#404040">
                        <set attributeName="fill" to="#808080" begin="arrowDown.mouseover" end="arrowDown.mouseout"/>
                  </use>
                  <path fill="none" stroke="white" stroke-width="1.5" d="M0,-3.0v7 M-2.5,-0.5L0,-3.0L2.5,-0.5"/>
                </g>
                <g id="arrowLeft" xlink:href="#dirArrow" transform="rotate(270) translate(-36 17)" onmousedown="handlePan(-1,0)">
                  <use xlink:href="#rim" fill="#404040">
                        <set attributeName="fill" to="#808080" begin="arrowLeft.mouseover" end="arrowLeft.mouseout"/>
                  </use>
                  <path fill="none" stroke="white" stroke-width="1.5" d="M0,-3.0v7 M-2.5,-0.5L0,-3.0L2.5,-0.5"/>
                </g>
        </g>
        <svg viewBox="0 0 15 15" width="100%" height="30px" preserveAspectRatio="xMaxYMin meet">
         <g id="arrow_out" transform="scale(0.3 0.3)">
          <a xlink:href="classde_1_1tu__clausthal_1_1in_1_1bachelorproject2018_1_1poker_1_1game_1_1round_1_1CBetRound_a15f799e13defeab9ebedbb01cf77ebd4_cgraph_org.svg" target="_base">
           <rect id="button" ry="5" rx="5" y="6" x="6" height="38" width="38"
                fill="#f2f5e9" fill-opacity="0.5" stroke="#606060" stroke-width="1.0"/>
           <path id="arrow"
             d="M 11.500037,31.436501 C 11.940474,20.09759 22.043105,11.32322 32.158766,21.979434 L 37.068811,17.246167 C 37.068811,17.246167 37.088388,32 37.088388,32 L 22.160133,31.978069 C 22.160133,31.978069 26.997745,27.140456 26.997745,27.140456 C 18.528582,18.264221 13.291696,25.230495 11.500037,31.436501 z"
             style="fill:#404040;"/>
          </a>
         </g>
        </svg>
</svg>
