<?xml version="1.0" encoding="UTF-8" standalone="no"?>
<!DOCTYPE svg PUBLIC "-//W3C//DTD SVG 1.1//EN"
 "http://www.w3.org/Graphics/SVG/1.1/DTD/svg11.dtd">
<!-- Generated by graphviz version 2.38.0 (20140413.2041)
 -->
<!-- Title: de.tu_clausthal.in.bachelorproject2018.poker.game.player.IPlayer.getName Pages: 1 -->
<!--zoomable 319 -->
<svg id="main" version="1.1" xmlns="http://www.w3.org/2000/svg" xmlns:xlink="http://www.w3.org/1999/xlink" xml:space="preserve" onload="init(evt)">
<style type="text/css"><![CDATA[
.edge:hover path { stroke: red; }
.edge:hover polygon { stroke: red; fill: red; }
]]></style>
<script type="text/javascript"><![CDATA[
var edges = document.getElementsByTagName('g');
if (edges && edges.length) {
  for (var i=0;i<edges.length;i++) {
    if (edges[i].id.substr(0,4)=='edge') {
      edges[i].setAttribute('class','edge');
    }
  }
}
]]></script>
        <defs>
                <circle id="rim" cx="0" cy="0" r="7"/>
                <circle id="rim2" cx="0" cy="0" r="3.5"/>
                <g id="zoomPlus">
                        <use xlink:href="#rim" fill="#404040">
                                <set attributeName="fill" to="#808080" begin="zoomplus.mouseover" end="zoomplus.mouseout"/>
                        </use>
                        <path d="M-4,0h8M0,-4v8" fill="none" stroke="white" stroke-width="1.5" pointer-events="none"/>
                </g>
                <g id="zoomMin">
                        <use xlink:href="#rim" fill="#404040">
                                <set attributeName="fill" to="#808080" begin="zoomminus.mouseover" end="zoomminus.mouseout"/>
                        </use>
                        <path d="M-4,0h8" fill="none" stroke="white" stroke-width="1.5" pointer-events="none"/>
                </g>
                <g id="dirArrow">
                        <path fill="none" stroke="white" stroke-width="1.5" d="M0,-3.0v7 M-2.5,-0.5L0,-3.0L2.5,-0.5"/>
                </g>
               <g id="resetDef">
                       <use xlink:href="#rim2" fill="#404040">
                               <set attributeName="fill" to="#808080" begin="reset.mouseover" end="reset.mouseout"/>
                       </use>
               </g>
        </defs>

<script type="text/javascript">
var viewWidth = 632;
var viewHeight = 319;
var sectionId = 'dynsection-7';
</script>
<script xlink:href="../../svgpan.js"/>
<svg id="graph" class="graph">
<g id="viewport">
<title>de.tu_clausthal.in.bachelorproject2018.poker.game.player.IPlayer.getName</title>
<!-- Node28 -->
<g id="node1" class="node"><title>Node28</title>
<polygon fill="#bfbfbf" stroke="black" points="0,-141.5 0,-169.5 293,-169.5 293,-141.5 0,-141.5"/>
<text text-anchor="start" x="8" y="-158.3" font-family="Helvetica,sans-Serif" font-size="9.00">de.tu_clausthal.in.bachelorproject2018.poker.game.player.</text>
<text text-anchor="middle" x="146.5" y="-148.3" font-family="Helvetica,sans-Serif" font-size="9.00">IPlayer.getName</text>
</g>
<!-- Node29 -->
<g id="node2" class="node"><title>Node29</title>
<g id="a_node2"><a xlink:href="../../d4/d31/classde_1_1tu__clausthal_1_1in_1_1bachelorproject2018_1_1poker_1_1game_1_1action_1_1CFold.htm#a605996337fab89e8464330734a435587" target="_top" xlink:title="setzt den Spieler auf fold ">
<polygon fill="none" stroke="black" points="329,-282.5 329,-310.5 624,-310.5 624,-282.5 329,-282.5"/>
<text text-anchor="start" x="337" y="-299.3" font-family="Helvetica,sans-Serif" font-size="9.00">de.tu_clausthal.in.bachelorproject2018.poker.game.action.</text>
<text text-anchor="middle" x="476.5" y="-289.3" font-family="Helvetica,sans-Serif" font-size="9.00">CFold.accept</text>
</a>
</g>
</g>
<!-- Node28&#45;&gt;Node29 -->
<g id="edge1" class="edge"><title>Node28&#45;&gt;Node29</title>
<path fill="none" stroke="midnightblue" d="M171.979,-176.32C205.21,-203.376 267.531,-249.934 329,-273.5 338.135,-277.002 347.786,-279.971 357.598,-282.489"/>
<polygon fill="midnightblue" stroke="midnightblue" points="174.118,-173.548 164.175,-169.888 169.666,-178.949 174.118,-173.548"/>
</g>
<!-- Node30 -->
<g id="node3" class="node"><title>Node30</title>
<g id="a_node3"><a xlink:href="../../dd/d69/classde_1_1tu__clausthal_1_1in_1_1bachelorproject2018_1_1poker_1_1game_1_1action_1_1CCheck.htm#ab5688283d91d32d52dffb8882a5104b9" target="_top" xlink:title="überprüft ob der Spieler checken kann setzt, dass der Spieler gecheckt hat. ">
<polygon fill="none" stroke="black" points="329,-235.5 329,-263.5 624,-263.5 624,-235.5 329,-235.5"/>
<text text-anchor="start" x="337" y="-252.3" font-family="Helvetica,sans-Serif" font-size="9.00">de.tu_clausthal.in.bachelorproject2018.poker.game.action.</text>
<text text-anchor="middle" x="476.5" y="-242.3" font-family="Helvetica,sans-Serif" font-size="9.00">CCheck.accept</text>
</a>
</g>
</g>
<!-- Node28&#45;&gt;Node30 -->
<g id="edge2" class="edge"><title>Node28&#45;&gt;Node30</title>
<path fill="none" stroke="midnightblue" d="M186.871,-173.781C223.081,-189.894 278.631,-212.868 329,-226.5 341.674,-229.93 355.113,-232.906 368.508,-235.473"/>
<polygon fill="midnightblue" stroke="midnightblue" points="188.201,-170.541 177.645,-169.637 185.333,-176.927 188.201,-170.541"/>
</g>
<!-- Node31 -->
<g id="node4" class="node"><title>Node31</title>
<g id="a_node4"><a xlink:href="../../d8/d84/classde_1_1tu__clausthal_1_1in_1_1bachelorproject2018_1_1poker_1_1game_1_1round_1_1CBetRound.htm#a15f799e13defeab9ebedbb01cf77ebd4" target="_top" xlink:title="Accept wird nach der Aktion des Spielers ausgeführt Falls nötig werden hier neue BetRound&#45;Objekte erz...">
<polygon fill="none" stroke="black" points="330,-188.5 330,-216.5 623,-216.5 623,-188.5 330,-188.5"/>
<text text-anchor="start" x="338" y="-205.3" font-family="Helvetica,sans-Serif" font-size="9.00">de.tu_clausthal.in.bachelorproject2018.poker.game.round.</text>
<text text-anchor="middle" x="476.5" y="-195.3" font-family="Helvetica,sans-Serif" font-size="9.00">CBetRound.accept</text>
</a>
</g>
</g>
<!-- Node28&#45;&gt;Node31 -->
<g id="edge3" class="edge"><title>Node28&#45;&gt;Node31</title>
<path fill="none" stroke="midnightblue" d="M255.386,-170.959C294.845,-176.613 339.231,-182.974 377.755,-188.494"/>
<polygon fill="midnightblue" stroke="midnightblue" points="255.862,-167.492 245.467,-169.538 254.869,-174.421 255.862,-167.492"/>
</g>
<!-- Node32 -->
<g id="node5" class="node"><title>Node32</title>
<g id="a_node5"><a xlink:href="../../d8/d84/classde_1_1tu__clausthal_1_1in_1_1bachelorproject2018_1_1poker_1_1game_1_1round_1_1CBetRound.htm#a2f9ecbf9150794faa9af2760afbd96bd" target="_top" xlink:title="wird vor der Aktion des Spielers ausgeführt entscheidet, ob der Spieler überhaupt eine Aktion ausführ...">
<polygon fill="none" stroke="black" points="330,-141.5 330,-169.5 623,-169.5 623,-141.5 330,-141.5"/>
<text text-anchor="start" x="338" y="-158.3" font-family="Helvetica,sans-Serif" font-size="9.00">de.tu_clausthal.in.bachelorproject2018.poker.game.round.</text>
<text text-anchor="middle" x="476.5" y="-148.3" font-family="Helvetica,sans-Serif" font-size="9.00">CBetRound.apply</text>
</a>
</g>
</g>
<!-- Node28&#45;&gt;Node32 -->
<g id="edge4" class="edge"><title>Node28&#45;&gt;Node32</title>
<path fill="none" stroke="midnightblue" d="M303.551,-155.5C312.322,-155.5 321.123,-155.5 329.853,-155.5"/>
<polygon fill="midnightblue" stroke="midnightblue" points="303.276,-152 293.276,-155.5 303.276,-159 303.276,-152"/>
</g>
<!-- Node33 -->
<g id="node6" class="node"><title>Node33</title>
<g id="a_node6"><a xlink:href="../../d2/dd9/classde_1_1tu__clausthal_1_1in_1_1bachelorproject2018_1_1poker_1_1game_1_1table_1_1CTable.htm#aa0a8bfd58872b5e53cb763b9c2788c5a" target="_top" xlink:title="Konstruktor. ">
<polygon fill="none" stroke="black" points="331.5,-94.5 331.5,-122.5 621.5,-122.5 621.5,-94.5 331.5,-94.5"/>
<text text-anchor="start" x="339.5" y="-111.3" font-family="Helvetica,sans-Serif" font-size="9.00">de.tu_clausthal.in.bachelorproject2018.poker.game.table.</text>
<text text-anchor="middle" x="476.5" y="-101.3" font-family="Helvetica,sans-Serif" font-size="9.00">CTable.CTable</text>
</a>
</g>
</g>
<!-- Node28&#45;&gt;Node33 -->
<g id="edge5" class="edge"><title>Node28&#45;&gt;Node33</title>
<path fill="none" stroke="midnightblue" d="M255.386,-140.041C294.845,-134.387 339.231,-128.026 377.755,-122.506"/>
<polygon fill="midnightblue" stroke="midnightblue" points="254.869,-136.579 245.467,-141.462 255.862,-143.508 254.869,-136.579"/>
</g>
<!-- Node34 -->
<g id="node7" class="node"><title>Node34</title>
<g id="a_node7"><a xlink:href="../../d2/dd9/classde_1_1tu__clausthal_1_1in_1_1bachelorproject2018_1_1poker_1_1game_1_1table_1_1CTable.htm#a46a410f9e178e941e1456f48b24608a3" target="_top" xlink:title="ein Spieler joint dem Spiel, wenn es noch nicht läuft ">
<polygon fill="none" stroke="black" points="331.5,-47.5 331.5,-75.5 621.5,-75.5 621.5,-47.5 331.5,-47.5"/>
<text text-anchor="start" x="339.5" y="-64.3" font-family="Helvetica,sans-Serif" font-size="9.00">de.tu_clausthal.in.bachelorproject2018.poker.game.table.</text>
<text text-anchor="middle" x="476.5" y="-54.3" font-family="Helvetica,sans-Serif" font-size="9.00">CTable.join</text>
</a>
</g>
</g>
<!-- Node28&#45;&gt;Node34 -->
<g id="edge6" class="edge"><title>Node28&#45;&gt;Node34</title>
<path fill="none" stroke="midnightblue" d="M187.571,-137.295C223.827,-121.491 279.037,-99.072 329,-85.5 343.053,-81.6828 358.038,-78.3815 372.861,-75.5543"/>
<polygon fill="midnightblue" stroke="midnightblue" points="186.067,-134.132 178.323,-141.362 188.885,-140.54 186.067,-134.132"/>
</g>
<!-- Node35 -->
<g id="node8" class="node"><title>Node35</title>
<g id="a_node8"><a xlink:href="../../d2/dd9/classde_1_1tu__clausthal_1_1in_1_1bachelorproject2018_1_1poker_1_1game_1_1table_1_1CTable.htm#a06761c89b056cb09072fe25819bacd61" target="_top" xlink:title="liefert den owner des Tisches zurück ">
<polygon fill="none" stroke="black" points="331.5,-0.5 331.5,-28.5 621.5,-28.5 621.5,-0.5 331.5,-0.5"/>
<text text-anchor="start" x="339.5" y="-17.3" font-family="Helvetica,sans-Serif" font-size="9.00">de.tu_clausthal.in.bachelorproject2018.poker.game.table.</text>
<text text-anchor="middle" x="476.5" y="-7.3" font-family="Helvetica,sans-Serif" font-size="9.00">CTable.owner</text>
</a>
</g>
</g>
<!-- Node28&#45;&gt;Node35 -->
<g id="edge7" class="edge"><title>Node28&#45;&gt;Node35</title>
<path fill="none" stroke="midnightblue" d="M172.035,-134.923C205.328,-108.172 267.718,-62.0918 329,-38.5 339.222,-34.5647 350.088,-31.2746 361.102,-28.5239"/>
<polygon fill="midnightblue" stroke="midnightblue" points="169.766,-132.258 164.216,-141.283 174.182,-137.688 169.766,-132.258"/>
</g>
</g>
</svg>
        <g id="navigator" transform="translate(0 0)" fill="#404254">
                <rect fill="#f2f5e9" fill-opacity="0.5" stroke="#606060" stroke-width=".5" x="0" y="0" width="60" height="60"/>
                <use id="zoomplus" xlink:href="#zoomPlus" x="17" y="9" onmousedown="handleZoom(evt,'in')"/>
                <use id="zoomminus" xlink:href="#zoomMin" x="42" y="9" onmousedown="handleZoom(evt,'out')"/>
                <use id="reset" xlink:href="#resetDef" x="30" y="36" onmousedown="handleReset()"/>
                <g id="arrowUp" xlink:href="#dirArrow" transform="translate(30 24)" onmousedown="handlePan(0,-1)">
                  <use xlink:href="#rim" fill="#404040">
                        <set attributeName="fill" to="#808080" begin="arrowUp.mouseover" end="arrowUp.mouseout"/>
                  </use>
                  <path fill="none" stroke="white" stroke-width="1.5" d="M0,-3.0v7 M-2.5,-0.5L0,-3.0L2.5,-0.5"/>
                </g>
                <g id="arrowRight" xlink:href="#dirArrow" transform="rotate(90) translate(36 -43)" onmousedown="handlePan(1,0)">
                  <use xlink:href="#rim" fill="#404040">
                        <set attributeName="fill" to="#808080" begin="arrowRight.mouseover" end="arrowRight.mouseout"/>
                  </use>
                  <path fill="none" stroke="white" stroke-width="1.5" d="M0,-3.0v7 M-2.5,-0.5L0,-3.0L2.5,-0.5"/>
                </g>
                <g id="arrowDown" xlink:href="#dirArrow" transform="rotate(180) translate(-30 -48)" onmousedown="handlePan(0,1)">
                  <use xlink:href="#rim" fill="#404040">
                        <set attributeName="fill" to="#808080" begin="arrowDown.mouseover" end="arrowDown.mouseout"/>
                  </use>
                  <path fill="none" stroke="white" stroke-width="1.5" d="M0,-3.0v7 M-2.5,-0.5L0,-3.0L2.5,-0.5"/>
                </g>
                <g id="arrowLeft" xlink:href="#dirArrow" transform="rotate(270) translate(-36 17)" onmousedown="handlePan(-1,0)">
                  <use xlink:href="#rim" fill="#404040">
                        <set attributeName="fill" to="#808080" begin="arrowLeft.mouseover" end="arrowLeft.mouseout"/>
                  </use>
                  <path fill="none" stroke="white" stroke-width="1.5" d="M0,-3.0v7 M-2.5,-0.5L0,-3.0L2.5,-0.5"/>
                </g>
        </g>
        <svg viewBox="0 0 15 15" width="100%" height="30px" preserveAspectRatio="xMaxYMin meet">
         <g id="arrow_out" transform="scale(0.3 0.3)">
          <a xlink:href="interfacede_1_1tu__clausthal_1_1in_1_1bachelorproject2018_1_1poker_1_1game_1_1player_1_1IPlayer_aeab0d6e898c99016fe7a79384319dc8f_icgraph_org.svg" target="_base">
           <rect id="button" ry="5" rx="5" y="6" x="6" height="38" width="38"
                fill="#f2f5e9" fill-opacity="0.5" stroke="#606060" stroke-width="1.0"/>
           <path id="arrow"
             d="M 11.500037,31.436501 C 11.940474,20.09759 22.043105,11.32322 32.158766,21.979434 L 37.068811,17.246167 C 37.068811,17.246167 37.088388,32 37.088388,32 L 22.160133,31.978069 C 22.160133,31.978069 26.997745,27.140456 26.997745,27.140456 C 18.528582,18.264221 13.291696,25.230495 11.500037,31.436501 z"
             style="fill:#404040;"/>
          </a>
         </g>
        </svg>
</svg>
