<?xml version="1.0" encoding="UTF-8" standalone="no"?>
<!DOCTYPE svg PUBLIC "-//W3C//DTD SVG 1.1//EN"
 "http://www.w3.org/Graphics/SVG/1.1/DTD/svg11.dtd">
<!-- Generated by graphviz version 2.38.0 (20140413.2041)
 -->
<!-- Title: de.tu_clausthal.in.bachelorproject2018.poker.game.wincheck.CPrepareForWinCheck.apply Pages: 1 -->
<svg width="660pt" height="319pt"
 viewBox="0.00 0.00 660.00 319.00" xmlns="http://www.w3.org/2000/svg" xmlns:xlink="http://www.w3.org/1999/xlink">
<g id="graph0" class="graph" transform="scale(1 1) rotate(0) translate(4 315)">
<title>de.tu_clausthal.in.bachelorproject2018.poker.game.wincheck.CPrepareForWinCheck.apply</title>
<!-- Node2 -->
<g id="node1" class="node"><title>Node2</title>
<polygon fill="#bfbfbf" stroke="black" points="0,-141.5 0,-169.5 308,-169.5 308,-141.5 0,-141.5"/>
<text text-anchor="start" x="8" y="-158.3" font-family="Helvetica,sans-Serif" font-size="9.00">de.tu_clausthal.in.bachelorproject2018.poker.game.wincheck.</text>
<text text-anchor="middle" x="154" y="-148.3" font-family="Helvetica,sans-Serif" font-size="9.00">CPrepareForWinCheck.apply</text>
</g>
<!-- Node3 -->
<g id="node2" class="node"><title>Node3</title>
<g id="a_node2"><a xlink:href="../../d3/ddc/classde_1_1tu__clausthal_1_1in_1_1bachelorproject2018_1_1poker_1_1game_1_1wincheck_1_1HandStatistic.htm#a260e5cb7e9291801b4c9ac8660074d7a" target="_top" xlink:title="adds 1 to the rankarray[index] ">
<polygon fill="none" stroke="black" points="344,-282.5 344,-310.5 652,-310.5 652,-282.5 344,-282.5"/>
<text text-anchor="start" x="352" y="-299.3" font-family="Helvetica,sans-Serif" font-size="9.00">de.tu_clausthal.in.bachelorproject2018.poker.game.wincheck.</text>
<text text-anchor="middle" x="498" y="-289.3" font-family="Helvetica,sans-Serif" font-size="9.00">HandStatistic.addRankArray</text>
</a>
</g>
</g>
<!-- Node2&#45;&gt;Node3 -->
<g id="edge1" class="edge"><title>Node2&#45;&gt;Node3</title>
<path fill="none" stroke="midnightblue" d="M171.961,-169.51C203.595,-194.82 274.689,-247.911 344,-273.5 350.349,-275.844 356.93,-277.949 363.636,-279.84"/>
<polygon fill="midnightblue" stroke="midnightblue" points="362.976,-283.286 373.539,-282.46 364.767,-276.519 362.976,-283.286"/>
</g>
<!-- Node4 -->
<g id="node3" class="node"><title>Node4</title>
<g id="a_node3"><a xlink:href="../../da/d48/classde_1_1tu__clausthal_1_1in_1_1bachelorproject2018_1_1poker_1_1game_1_1hubs_1_1GameHub.htm#aaa694ceaf0579abef32bb8bec3f0917e" target="_top" xlink:title="getter for the carddealer ">
<polygon fill="none" stroke="black" points="353.5,-235.5 353.5,-263.5 642.5,-263.5 642.5,-235.5 353.5,-235.5"/>
<text text-anchor="start" x="361.5" y="-252.3" font-family="Helvetica,sans-Serif" font-size="9.00">de.tu_clausthal.in.bachelorproject2018.poker.game.hubs.</text>
<text text-anchor="middle" x="498" y="-242.3" font-family="Helvetica,sans-Serif" font-size="9.00">GameHub.getCardDealer</text>
</a>
</g>
</g>
<!-- Node2&#45;&gt;Node4 -->
<g id="edge2" class="edge"><title>Node2&#45;&gt;Node4</title>
<path fill="none" stroke="midnightblue" d="M186.112,-169.507C223.043,-185.585 286.838,-211.643 344,-226.5 353.949,-229.086 364.343,-231.413 374.826,-233.5"/>
<polygon fill="midnightblue" stroke="midnightblue" points="374.412,-236.984 384.892,-235.428 375.729,-230.109 374.412,-236.984"/>
</g>
<!-- Node5 -->
<g id="node4" class="node"><title>Node5</title>
<g id="a_node4"><a xlink:href="../../d5/d36/interfacede_1_1tu__clausthal_1_1in_1_1bachelorproject2018_1_1poker_1_1game_1_1table_1_1ITable.htm#ad5910542f67b66837a7e3c326d22a671" target="_top" xlink:title="de.tu_clausthal.in.bachelorproject2018.poker.game.table.\lITable.getGameHub">
<polygon fill="none" stroke="black" points="353,-188.5 353,-216.5 643,-216.5 643,-188.5 353,-188.5"/>
<text text-anchor="start" x="361" y="-205.3" font-family="Helvetica,sans-Serif" font-size="9.00">de.tu_clausthal.in.bachelorproject2018.poker.game.table.</text>
<text text-anchor="middle" x="498" y="-195.3" font-family="Helvetica,sans-Serif" font-size="9.00">ITable.getGameHub</text>
</a>
</g>
</g>
<!-- Node2&#45;&gt;Node5 -->
<g id="edge3" class="edge"><title>Node2&#45;&gt;Node5</title>
<path fill="none" stroke="midnightblue" d="M257.148,-169.538C297.425,-175.073 343.819,-181.449 385.007,-187.109"/>
<polygon fill="midnightblue" stroke="midnightblue" points="384.7,-190.6 395.083,-188.494 385.653,-183.665 384.7,-190.6"/>
</g>
<!-- Node6 -->
<g id="node5" class="node"><title>Node6</title>
<g id="a_node5"><a xlink:href="../../d7/d8f/classde_1_1tu__clausthal_1_1in_1_1bachelorproject2018_1_1poker_1_1game_1_1player_1_1PlayerHand.htm#a83a1c81e88463a2c63f627aba6bbdfa4" target="_top" xlink:title="getter for handcards ">
<polygon fill="none" stroke="black" points="351.5,-141.5 351.5,-169.5 644.5,-169.5 644.5,-141.5 351.5,-141.5"/>
<text text-anchor="start" x="359.5" y="-158.3" font-family="Helvetica,sans-Serif" font-size="9.00">de.tu_clausthal.in.bachelorproject2018.poker.game.player.</text>
<text text-anchor="middle" x="498" y="-148.3" font-family="Helvetica,sans-Serif" font-size="9.00">PlayerHand.getHandCards</text>
</a>
</g>
</g>
<!-- Node2&#45;&gt;Node6 -->
<g id="edge4" class="edge"><title>Node2&#45;&gt;Node6</title>
<path fill="none" stroke="midnightblue" d="M308.493,-155.5C319.438,-155.5 330.479,-155.5 341.434,-155.5"/>
<polygon fill="midnightblue" stroke="midnightblue" points="341.467,-159 351.467,-155.5 341.467,-152 341.467,-159"/>
</g>
<!-- Node7 -->
<g id="node6" class="node"><title>Node7</title>
<g id="a_node6"><a xlink:href="../../d3/ddc/classde_1_1tu__clausthal_1_1in_1_1bachelorproject2018_1_1poker_1_1game_1_1wincheck_1_1HandStatistic.htm#a783929e94fdd7e98ac8efdaf5ca6f46d" target="_top" xlink:title="de.tu_clausthal.in.bachelorproject2018.poker.game.wincheck.\lHandStatistic.getPlayer">
<polygon fill="none" stroke="black" points="344,-94.5 344,-122.5 652,-122.5 652,-94.5 344,-94.5"/>
<text text-anchor="start" x="352" y="-111.3" font-family="Helvetica,sans-Serif" font-size="9.00">de.tu_clausthal.in.bachelorproject2018.poker.game.wincheck.</text>
<text text-anchor="middle" x="498" y="-101.3" font-family="Helvetica,sans-Serif" font-size="9.00">HandStatistic.getPlayer</text>
</a>
</g>
</g>
<!-- Node2&#45;&gt;Node7 -->
<g id="edge5" class="edge"><title>Node2&#45;&gt;Node7</title>
<path fill="none" stroke="midnightblue" d="M257.148,-141.462C297.425,-135.927 343.819,-129.551 385.007,-123.891"/>
<polygon fill="midnightblue" stroke="midnightblue" points="385.653,-127.335 395.083,-122.506 384.7,-120.4 385.653,-127.335"/>
</g>
<!-- Node8 -->
<g id="node7" class="node"><title>Node8</title>
<g id="a_node7"><a xlink:href="../../d2/d11/interfacede_1_1tu__clausthal_1_1in_1_1bachelorproject2018_1_1poker_1_1game_1_1player_1_1IPlayer.htm#a43957d175395fb827a5b6fdd530bdd48" target="_top" xlink:title="de.tu_clausthal.in.bachelorproject2018.poker.game.player.\lIPlayer.getPlayerhand">
<polygon fill="none" stroke="black" points="351.5,-47.5 351.5,-75.5 644.5,-75.5 644.5,-47.5 351.5,-47.5"/>
<text text-anchor="start" x="359.5" y="-64.3" font-family="Helvetica,sans-Serif" font-size="9.00">de.tu_clausthal.in.bachelorproject2018.poker.game.player.</text>
<text text-anchor="middle" x="498" y="-54.3" font-family="Helvetica,sans-Serif" font-size="9.00">IPlayer.getPlayerhand</text>
</a>
</g>
</g>
<!-- Node2&#45;&gt;Node8 -->
<g id="edge6" class="edge"><title>Node2&#45;&gt;Node8</title>
<path fill="none" stroke="midnightblue" d="M186.812,-141.49C223.877,-125.695 287.288,-100.292 344,-85.5 355.484,-82.5046 367.556,-79.8286 379.673,-77.4509"/>
<polygon fill="midnightblue" stroke="midnightblue" points="380.675,-80.8234 389.849,-75.5234 379.373,-73.9457 380.675,-80.8234"/>
</g>
<!-- Node9 -->
<g id="node8" class="node"><title>Node9</title>
<g id="a_node8"><a xlink:href="../../dd/d8f/classde_1_1tu__clausthal_1_1in_1_1bachelorproject2018_1_1poker_1_1game_1_1hubs_1_1CardDealer.htm#a6e1237867f46bc0efcdfba1d6aa15af8" target="_top" xlink:title="get the Tablecards to display them or use them for WinEvaluation ">
<polygon fill="none" stroke="black" points="353.5,-0.5 353.5,-28.5 642.5,-28.5 642.5,-0.5 353.5,-0.5"/>
<text text-anchor="start" x="361.5" y="-17.3" font-family="Helvetica,sans-Serif" font-size="9.00">de.tu_clausthal.in.bachelorproject2018.poker.game.hubs.</text>
<text text-anchor="middle" x="498" y="-7.3" font-family="Helvetica,sans-Serif" font-size="9.00">CardDealer.getTableCards</text>
</a>
</g>
</g>
<!-- Node2&#45;&gt;Node9 -->
<g id="edge7" class="edge"><title>Node2&#45;&gt;Node9</title>
<path fill="none" stroke="midnightblue" d="M172.249,-141.459C204.068,-116.363 275.067,-64.05 344,-38.5 351.528,-35.7098 359.381,-33.2439 367.382,-31.0648"/>
<polygon fill="midnightblue" stroke="midnightblue" points="368.384,-34.421 377.201,-28.5463 366.645,-27.6404 368.384,-34.421"/>
</g>
</g>
</svg>
