<?xml version="1.0" encoding="UTF-8" standalone="no"?>
<!DOCTYPE svg PUBLIC "-//W3C//DTD SVG 1.1//EN"
 "http://www.w3.org/Graphics/SVG/1.1/DTD/svg11.dtd">
<!-- Generated by graphviz version 2.38.0 (20140413.2041)
 -->
<!-- Title: de.tu_clausthal.in.bachelorproject2018.poker.network.tokens.ETokens Pages: 1 -->
<svg width="317pt" height="214pt"
 viewBox="0.00 0.00 317.00 214.00" xmlns="http://www.w3.org/2000/svg" xmlns:xlink="http://www.w3.org/1999/xlink">
<g id="graph0" class="graph" transform="scale(1 1) rotate(0) translate(4 210)">
<title>de.tu_clausthal.in.bachelorproject2018.poker.network.tokens.ETokens</title>
<!-- Node2 -->
<g id="node1" class="node"><title>Node2</title>
<polygon fill="#bfbfbf" stroke="black" points="-2.84217e-14,-0.5 -2.84217e-14,-94.5 309,-94.5 309,-0.5 -2.84217e-14,-0.5"/>
<text text-anchor="start" x="8" y="-83.3" font-family="Helvetica,sans-Serif" font-size="9.00">de.tu_clausthal.in.bachelorproject2018.poker.network.tokens.</text>
<text text-anchor="middle" x="154.5" y="-73.3" font-family="Helvetica,sans-Serif" font-size="9.00">ETokens</text>
<polyline fill="none" stroke="black" points="-2.84217e-14,-66.5 309,-66.5 "/>
<text text-anchor="start" x="8" y="-55.3" font-family="Helvetica,sans-Serif" font-size="9.00">&#45; m_tokenMap</text>
<polyline fill="none" stroke="black" points="-2.84217e-14,-48.5 309,-48.5 "/>
<text text-anchor="start" x="8" y="-37.3" font-family="Helvetica,sans-Serif" font-size="9.00">+ add()</text>
<text text-anchor="start" x="8" y="-27.3" font-family="Helvetica,sans-Serif" font-size="9.00">+ apply()</text>
<text text-anchor="start" x="8" y="-17.3" font-family="Helvetica,sans-Serif" font-size="9.00">+ get()</text>
<text text-anchor="start" x="8" y="-7.3" font-family="Helvetica,sans-Serif" font-size="9.00">+ remove()</text>
</g>
<!-- Node3 -->
<g id="node2" class="node"><title>Node3</title>
<g id="a_node2"><a xlink:href="../../de/d7f/interfacede_1_1tu__clausthal_1_1in_1_1bachelorproject2018_1_1poker_1_1network_1_1tokens_1_1ITokens.htm" target="_top" xlink:title="Interface um die tokens zu verwalten. ">
<polygon fill="none" stroke="black" points="-2.84217e-14,-131.5 -2.84217e-14,-205.5 309,-205.5 309,-131.5 -2.84217e-14,-131.5"/>
<text text-anchor="start" x="8" y="-194.3" font-family="Helvetica,sans-Serif" font-size="9.00">de.tu_clausthal.in.bachelorproject2018.poker.network.tokens.</text>
<text text-anchor="middle" x="154.5" y="-184.3" font-family="Helvetica,sans-Serif" font-size="9.00">ITokens</text>
<polyline fill="none" stroke="black" points="-2.84217e-14,-177.5 309,-177.5 "/>
<text text-anchor="middle" x="154.5" y="-166.3" font-family="Helvetica,sans-Serif" font-size="9.00"> </text>
<polyline fill="none" stroke="black" points="-2.84217e-14,-159.5 309,-159.5 "/>
<text text-anchor="start" x="8" y="-148.3" font-family="Helvetica,sans-Serif" font-size="9.00">+ add()</text>
<text text-anchor="start" x="8" y="-138.3" font-family="Helvetica,sans-Serif" font-size="9.00">+ remove()</text>
</a>
</g>
</g>
<!-- Node3&#45;&gt;Node2 -->
<g id="edge1" class="edge"><title>Node3&#45;&gt;Node2</title>
<path fill="none" stroke="midnightblue" d="M154.5,-121.372C154.5,-112.564 154.5,-103.344 154.5,-94.5391"/>
<polygon fill="none" stroke="midnightblue" points="151,-121.473 154.5,-131.473 158,-121.473 151,-121.473"/>
</g>
</g>
</svg>
