<?xml version="1.0" encoding="UTF-8" standalone="no"?>
<!DOCTYPE svg PUBLIC "-//W3C//DTD SVG 1.1//EN"
 "http://www.w3.org/Graphics/SVG/1.1/DTD/svg11.dtd">
<!-- Generated by graphviz version 2.38.0 (20140413.2041)
 -->
<!-- Title: de.tu_clausthal.in.bachelorproject2018.poker.game.action.IAction Pages: 1 -->
<svg width="1555pt" height="315pt"
 viewBox="0.00 0.00 1555.00 315.00" xmlns="http://www.w3.org/2000/svg" xmlns:xlink="http://www.w3.org/1999/xlink">
<g id="graph0" class="graph" transform="scale(1 1) rotate(0) translate(4 311)">
<title>de.tu_clausthal.in.bachelorproject2018.poker.game.action.IAction</title>
<!-- Node0 -->
<g id="node1" class="node"><title>Node0</title>
<polygon fill="#bfbfbf" stroke="black" points="626,-242.5 626,-306.5 921,-306.5 921,-242.5 626,-242.5"/>
<text text-anchor="start" x="634" y="-295.3" font-family="Helvetica,sans-Serif" font-size="9.00">de.tu_clausthal.in.bachelorproject2018.poker.game.action.</text>
<text text-anchor="middle" x="773.5" y="-285.3" font-family="Helvetica,sans-Serif" font-size="9.00">IAction</text>
<polyline fill="none" stroke="black" points="626,-278.5 921,-278.5 "/>
<text text-anchor="middle" x="773.5" y="-267.3" font-family="Helvetica,sans-Serif" font-size="9.00"> </text>
<polyline fill="none" stroke="black" points="626,-260.5 921,-260.5 "/>
<text text-anchor="middle" x="773.5" y="-249.3" font-family="Helvetica,sans-Serif" font-size="9.00"> </text>
</g>
<!-- Node1 -->
<g id="node2" class="node"><title>Node1</title>
<g id="a_node2"><a xlink:href="../../d2/d9f/classde_1_1tu__clausthal_1_1in_1_1bachelorproject2018_1_1poker_1_1game_1_1action_1_1IBaseAction.htm" target="_top" xlink:title="{de.tu_clausthal.in.bachelorproject2018.poker.game.action.\lIBaseAction\n|# m_table\l|# IBaseAction()\l}">
<polygon fill="none" stroke="black" points="626,-141.5 626,-205.5 921,-205.5 921,-141.5 626,-141.5"/>
<text text-anchor="start" x="634" y="-194.3" font-family="Helvetica,sans-Serif" font-size="9.00">de.tu_clausthal.in.bachelorproject2018.poker.game.action.</text>
<text text-anchor="middle" x="773.5" y="-184.3" font-family="Helvetica,sans-Serif" font-size="9.00">IBaseAction</text>
<polyline fill="none" stroke="black" points="626,-177.5 921,-177.5 "/>
<text text-anchor="start" x="634" y="-166.3" font-family="Helvetica,sans-Serif" font-size="9.00"># m_table</text>
<polyline fill="none" stroke="black" points="626,-159.5 921,-159.5 "/>
<text text-anchor="start" x="634" y="-148.3" font-family="Helvetica,sans-Serif" font-size="9.00"># IBaseAction()</text>
</a>
</g>
</g>
<!-- Node0&#45;&gt;Node1 -->
<g id="edge1" class="edge"><title>Node0&#45;&gt;Node1</title>
<path fill="none" stroke="midnightblue" d="M773.5,-232.282C773.5,-223.42 773.5,-214.194 773.5,-205.783"/>
<polygon fill="none" stroke="midnightblue" points="770,-232.447 773.5,-242.447 777,-232.447 770,-232.447"/>
</g>
<!-- Node2 -->
<g id="node3" class="node"><title>Node2</title>
<g id="a_node3"><a xlink:href="../../d9/d7a/classde_1_1tu__clausthal_1_1in_1_1bachelorproject2018_1_1poker_1_1game_1_1action_1_1CAllIn.htm" target="_top" xlink:title="All&#45;In Aktion. ">
<polygon fill="none" stroke="black" points="0,-15.5 0,-89.5 295,-89.5 295,-15.5 0,-15.5"/>
<text text-anchor="start" x="8" y="-78.3" font-family="Helvetica,sans-Serif" font-size="9.00">de.tu_clausthal.in.bachelorproject2018.poker.game.action.</text>
<text text-anchor="middle" x="147.5" y="-68.3" font-family="Helvetica,sans-Serif" font-size="9.00">CAllIn</text>
<polyline fill="none" stroke="black" points="0,-61.5 295,-61.5 "/>
<text text-anchor="middle" x="147.5" y="-50.3" font-family="Helvetica,sans-Serif" font-size="9.00"> </text>
<polyline fill="none" stroke="black" points="0,-43.5 295,-43.5 "/>
<text text-anchor="start" x="8" y="-32.3" font-family="Helvetica,sans-Serif" font-size="9.00">+ CAllIn()</text>
<text text-anchor="start" x="8" y="-22.3" font-family="Helvetica,sans-Serif" font-size="9.00">+ accept()</text>
</a>
</g>
</g>
<!-- Node1&#45;&gt;Node2 -->
<g id="edge2" class="edge"><title>Node1&#45;&gt;Node2</title>
<path fill="none" stroke="midnightblue" d="M615.977,-156.901C524.093,-146.061 406.383,-129.171 303.5,-105 285.314,-100.727 266.222,-95.2698 247.877,-89.5132"/>
<polygon fill="none" stroke="midnightblue" points="615.578,-160.378 625.917,-158.062 616.39,-153.425 615.578,-160.378"/>
</g>
<!-- Node3 -->
<g id="node4" class="node"><title>Node3</title>
<g id="a_node4"><a xlink:href="../../de/dec/classde_1_1tu__clausthal_1_1in_1_1bachelorproject2018_1_1poker_1_1game_1_1action_1_1CCall.htm" target="_top" xlink:title="Call&#45;Aktion. ">
<polygon fill="none" stroke="black" points="313,-15.5 313,-89.5 608,-89.5 608,-15.5 313,-15.5"/>
<text text-anchor="start" x="321" y="-78.3" font-family="Helvetica,sans-Serif" font-size="9.00">de.tu_clausthal.in.bachelorproject2018.poker.game.action.</text>
<text text-anchor="middle" x="460.5" y="-68.3" font-family="Helvetica,sans-Serif" font-size="9.00">CCall</text>
<polyline fill="none" stroke="black" points="313,-61.5 608,-61.5 "/>
<text text-anchor="middle" x="460.5" y="-50.3" font-family="Helvetica,sans-Serif" font-size="9.00"> </text>
<polyline fill="none" stroke="black" points="313,-43.5 608,-43.5 "/>
<text text-anchor="start" x="321" y="-32.3" font-family="Helvetica,sans-Serif" font-size="9.00">+ CCall()</text>
<text text-anchor="start" x="321" y="-22.3" font-family="Helvetica,sans-Serif" font-size="9.00">+ accept()</text>
</a>
</g>
</g>
<!-- Node1&#45;&gt;Node3 -->
<g id="edge3" class="edge"><title>Node1&#45;&gt;Node3</title>
<path fill="none" stroke="midnightblue" d="M682.23,-137.8C642.391,-122.653 595.683,-104.895 555.437,-89.5943"/>
<polygon fill="none" stroke="midnightblue" points="681.081,-141.107 691.672,-141.39 683.568,-134.564 681.081,-141.107"/>
</g>
<!-- Node4 -->
<g id="node5" class="node"><title>Node4</title>
<g id="a_node5"><a xlink:href="../../dd/d69/classde_1_1tu__clausthal_1_1in_1_1bachelorproject2018_1_1poker_1_1game_1_1action_1_1CCheck.htm" target="_top" xlink:title="{de.tu_clausthal.in.bachelorproject2018.poker.game.action.\lCCheck\n||+ CCheck()\l+ accept()\l}">
<polygon fill="none" stroke="black" points="626,-15.5 626,-89.5 921,-89.5 921,-15.5 626,-15.5"/>
<text text-anchor="start" x="634" y="-78.3" font-family="Helvetica,sans-Serif" font-size="9.00">de.tu_clausthal.in.bachelorproject2018.poker.game.action.</text>
<text text-anchor="middle" x="773.5" y="-68.3" font-family="Helvetica,sans-Serif" font-size="9.00">CCheck</text>
<polyline fill="none" stroke="black" points="626,-61.5 921,-61.5 "/>
<text text-anchor="middle" x="773.5" y="-50.3" font-family="Helvetica,sans-Serif" font-size="9.00"> </text>
<polyline fill="none" stroke="black" points="626,-43.5 921,-43.5 "/>
<text text-anchor="start" x="634" y="-32.3" font-family="Helvetica,sans-Serif" font-size="9.00">+ CCheck()</text>
<text text-anchor="start" x="634" y="-22.3" font-family="Helvetica,sans-Serif" font-size="9.00">+ accept()</text>
</a>
</g>
</g>
<!-- Node1&#45;&gt;Node4 -->
<g id="edge4" class="edge"><title>Node1&#45;&gt;Node4</title>
<path fill="none" stroke="midnightblue" d="M773.5,-131.205C773.5,-117.667 773.5,-102.737 773.5,-89.6128"/>
<polygon fill="none" stroke="midnightblue" points="770,-131.234 773.5,-141.234 777,-131.234 770,-131.234"/>
</g>
<!-- Node5 -->
<g id="node6" class="node"><title>Node5</title>
<g id="a_node6"><a xlink:href="../../d4/d31/classde_1_1tu__clausthal_1_1in_1_1bachelorproject2018_1_1poker_1_1game_1_1action_1_1CFold.htm" target="_top" xlink:title="{de.tu_clausthal.in.bachelorproject2018.poker.game.action.\lCFold\n||+ CFold()\l+ accept()\l}">
<polygon fill="none" stroke="black" points="939,-15.5 939,-89.5 1234,-89.5 1234,-15.5 939,-15.5"/>
<text text-anchor="start" x="947" y="-78.3" font-family="Helvetica,sans-Serif" font-size="9.00">de.tu_clausthal.in.bachelorproject2018.poker.game.action.</text>
<text text-anchor="middle" x="1086.5" y="-68.3" font-family="Helvetica,sans-Serif" font-size="9.00">CFold</text>
<polyline fill="none" stroke="black" points="939,-61.5 1234,-61.5 "/>
<text text-anchor="middle" x="1086.5" y="-50.3" font-family="Helvetica,sans-Serif" font-size="9.00"> </text>
<polyline fill="none" stroke="black" points="939,-43.5 1234,-43.5 "/>
<text text-anchor="start" x="947" y="-32.3" font-family="Helvetica,sans-Serif" font-size="9.00">+ CFold()</text>
<text text-anchor="start" x="947" y="-22.3" font-family="Helvetica,sans-Serif" font-size="9.00">+ accept()</text>
</a>
</g>
</g>
<!-- Node1&#45;&gt;Node5 -->
<g id="edge5" class="edge"><title>Node1&#45;&gt;Node5</title>
<path fill="none" stroke="midnightblue" d="M864.77,-137.8C904.609,-122.653 951.317,-104.895 991.563,-89.5943"/>
<polygon fill="none" stroke="midnightblue" points="863.432,-134.564 855.328,-141.39 865.919,-141.107 863.432,-134.564"/>
</g>
<!-- Node6 -->
<g id="node7" class="node"><title>Node6</title>
<g id="a_node7"><a xlink:href="../../de/d5d/classde_1_1tu__clausthal_1_1in_1_1bachelorproject2018_1_1poker_1_1game_1_1action_1_1CRaise.htm" target="_top" xlink:title="Raise Aktion. ">
<polygon fill="none" stroke="black" points="1252,-0.5 1252,-104.5 1547,-104.5 1547,-0.5 1252,-0.5"/>
<text text-anchor="start" x="1260" y="-93.3" font-family="Helvetica,sans-Serif" font-size="9.00">de.tu_clausthal.in.bachelorproject2018.poker.game.action.</text>
<text text-anchor="middle" x="1399.5" y="-83.3" font-family="Helvetica,sans-Serif" font-size="9.00">CRaise</text>
<polyline fill="none" stroke="black" points="1252,-76.5 1547,-76.5 "/>
<text text-anchor="start" x="1260" y="-65.3" font-family="Helvetica,sans-Serif" font-size="9.00">&#45; player</text>
<text text-anchor="start" x="1260" y="-55.3" font-family="Helvetica,sans-Serif" font-size="9.00">&#45; raiseValue</text>
<text text-anchor="start" x="1260" y="-45.3" font-family="Helvetica,sans-Serif" font-size="9.00">&#45; table</text>
<polyline fill="none" stroke="black" points="1252,-38.5 1547,-38.5 "/>
<text text-anchor="start" x="1260" y="-27.3" font-family="Helvetica,sans-Serif" font-size="9.00">+ CRaise()</text>
<text text-anchor="start" x="1260" y="-17.3" font-family="Helvetica,sans-Serif" font-size="9.00">+ accept()</text>
<text text-anchor="start" x="1260" y="-7.3" font-family="Helvetica,sans-Serif" font-size="9.00">+ getValue()</text>
</a>
</g>
</g>
<!-- Node1&#45;&gt;Node6 -->
<g id="edge6" class="edge"><title>Node1&#45;&gt;Node6</title>
<path fill="none" stroke="midnightblue" d="M931.023,-156.901C1022.91,-146.061 1140.62,-129.171 1243.5,-105 1246.28,-104.348 1249.07,-103.668 1251.89,-102.963"/>
<polygon fill="none" stroke="midnightblue" points="930.61,-153.425 921.083,-158.062 931.422,-160.378 930.61,-153.425"/>
</g>
</g>
</svg>
