<?xml version="1.0" encoding="UTF-8" standalone="no"?>
<!DOCTYPE svg PUBLIC "-//W3C//DTD SVG 1.1//EN"
 "http://www.w3.org/Graphics/SVG/1.1/DTD/svg11.dtd">
<!-- Generated by graphviz version 2.38.0 (20140413.2041)
 -->
<!-- Title: de.tu_clausthal.in.bachelorproject2018.poker.game.round.CPreFlop.apply Pages: 1 -->
<!--zoomable 630 -->
<svg id="main" version="1.1" xmlns="http://www.w3.org/2000/svg" xmlns:xlink="http://www.w3.org/1999/xlink" xml:space="preserve" onload="init(evt)">
<style type="text/css"><![CDATA[
.edge:hover path { stroke: red; }
.edge:hover polygon { stroke: red; fill: red; }
]]></style>
<script type="text/javascript"><![CDATA[
var edges = document.getElementsByTagName('g');
if (edges && edges.length) {
  for (var i=0;i<edges.length;i++) {
    if (edges[i].id.substr(0,4)=='edge') {
      edges[i].setAttribute('class','edge');
    }
  }
}
]]></script>
        <defs>
                <circle id="rim" cx="0" cy="0" r="7"/>
                <circle id="rim2" cx="0" cy="0" r="3.5"/>
                <g id="zoomPlus">
                        <use xlink:href="#rim" fill="#404040">
                                <set attributeName="fill" to="#808080" begin="zoomplus.mouseover" end="zoomplus.mouseout"/>
                        </use>
                        <path d="M-4,0h8M0,-4v8" fill="none" stroke="white" stroke-width="1.5" pointer-events="none"/>
                </g>
                <g id="zoomMin">
                        <use xlink:href="#rim" fill="#404040">
                                <set attributeName="fill" to="#808080" begin="zoomminus.mouseover" end="zoomminus.mouseout"/>
                        </use>
                        <path d="M-4,0h8" fill="none" stroke="white" stroke-width="1.5" pointer-events="none"/>
                </g>
                <g id="dirArrow">
                        <path fill="none" stroke="white" stroke-width="1.5" d="M0,-3.0v7 M-2.5,-0.5L0,-3.0L2.5,-0.5"/>
                </g>
               <g id="resetDef">
                       <use xlink:href="#rim2" fill="#404040">
                               <set attributeName="fill" to="#808080" begin="reset.mouseover" end="reset.mouseout"/>
                       </use>
               </g>
        </defs>

<script type="text/javascript">
var viewWidth = 1931;
var viewHeight = 630;
var sectionId = 'dynsection-2';
</script>
<script xlink:href="../../svgpan.js"/>
<svg id="graph" class="graph">
<g id="viewport">
<title>de.tu_clausthal.in.bachelorproject2018.poker.game.round.CPreFlop.apply</title>
<!-- Node4 -->
<g id="node1" class="node"><title>Node4</title>
<polygon fill="#bfbfbf" stroke="black" points="0,-211.5 0,-239.5 293,-239.5 293,-211.5 0,-211.5"/>
<text text-anchor="start" x="8" y="-228.3" font-family="Helvetica,sans-Serif" font-size="9.00">de.tu_clausthal.in.bachelorproject2018.poker.game.round.</text>
<text text-anchor="middle" x="146.5" y="-218.3" font-family="Helvetica,sans-Serif" font-size="9.00">CPreFlop.apply</text>
</g>
<!-- Node5 -->
<g id="node2" class="node"><title>Node5</title>
<g id="a_node2"><a xlink:href="../../dd/dfe/classde_1_1tu__clausthal_1_1in_1_1bachelorproject2018_1_1poker_1_1game_1_1hubs_1_1ChipsHandling.htm#ad85caa6bd2889e2b060b78139daba9e5" target="_top" xlink:title="force bet the blinds of the player with the relevant indexes update the highestBidThisRound to the bi...">
<polygon fill="none" stroke="black" points="330.5,-460.5 330.5,-488.5 619.5,-488.5 619.5,-460.5 330.5,-460.5"/>
<text text-anchor="start" x="338.5" y="-477.3" font-family="Helvetica,sans-Serif" font-size="9.00">de.tu_clausthal.in.bachelorproject2018.poker.game.hubs.</text>
<text text-anchor="middle" x="475" y="-467.3" font-family="Helvetica,sans-Serif" font-size="9.00">ChipsHandling.forceBlinds</text>
</a>
</g>
</g>
<!-- Node4&#45;&gt;Node5 -->
<g id="edge1" class="edge"><title>Node4&#45;&gt;Node5</title>
<path fill="none" stroke="midnightblue" d="M160.673,-239.649C189.367,-269.99 260.456,-342.602 329,-392.5 363.073,-417.304 405.341,-440.44 435.432,-455.77"/>
<polygon fill="midnightblue" stroke="midnightblue" points="434.243,-459.09 444.748,-460.465 437.393,-452.839 434.243,-459.09"/>
</g>
<!-- Node7 -->
<g id="node4" class="node"><title>Node7</title>
<g id="a_node4"><a xlink:href="../../da/d48/classde_1_1tu__clausthal_1_1in_1_1bachelorproject2018_1_1poker_1_1game_1_1hubs_1_1GameHub.htm#a2f65b057de245146843c2f5c3bbe30f1" target="_top" xlink:title="getter for the playerlist ">
<polygon fill="none" stroke="black" points="983,-273.5 983,-301.5 1272,-301.5 1272,-273.5 983,-273.5"/>
<text text-anchor="start" x="991" y="-290.3" font-family="Helvetica,sans-Serif" font-size="9.00">de.tu_clausthal.in.bachelorproject2018.poker.game.hubs.</text>
<text text-anchor="middle" x="1127.5" y="-280.3" font-family="Helvetica,sans-Serif" font-size="9.00">GameHub.getPlayerList</text>
</a>
</g>
</g>
<!-- Node4&#45;&gt;Node7 -->
<g id="edge14" class="edge"><title>Node4&#45;&gt;Node7</title>
<path fill="none" stroke="midnightblue" d="M166.92,-239.595C198.835,-261.792 265.217,-303.963 329,-319.5 589.812,-383.031 912.583,-332.084 1054.18,-303.538"/>
<polygon fill="midnightblue" stroke="midnightblue" points="1054.96,-306.951 1064.06,-301.523 1053.57,-300.092 1054.96,-306.951"/>
</g>
<!-- Node13 -->
<g id="node10" class="node"><title>Node13</title>
<g id="a_node10"><a xlink:href="../../d5/d36/interfacede_1_1tu__clausthal_1_1in_1_1bachelorproject2018_1_1poker_1_1game_1_1table_1_1ITable.htm#a442079183a6b0e75a07ee8549947f929" target="_top" xlink:title="Name des Tisches. ">
<polygon fill="none" stroke="black" points="657,-366.5 657,-394.5 947,-394.5 947,-366.5 657,-366.5"/>
<text text-anchor="start" x="665" y="-383.3" font-family="Helvetica,sans-Serif" font-size="9.00">de.tu_clausthal.in.bachelorproject2018.poker.game.table.</text>
<text text-anchor="middle" x="802" y="-373.3" font-family="Helvetica,sans-Serif" font-size="9.00">ITable.name</text>
</a>
</g>
</g>
<!-- Node4&#45;&gt;Node13 -->
<g id="edge15" class="edge"><title>Node4&#45;&gt;Node13</title>
<path fill="none" stroke="midnightblue" d="M161.412,-239.62C189.859,-267.429 258.008,-328.732 329,-353.5 430.784,-389.012 552.366,-395.192 646.64,-392.79"/>
<polygon fill="midnightblue" stroke="midnightblue" points="646.94,-396.283 656.835,-392.495 646.737,-389.286 646.94,-396.283"/>
</g>
<!-- Node14 -->
<g id="node11" class="node"><title>Node14</title>
<g id="a_node11"><a xlink:href="../../da/d48/classde_1_1tu__clausthal_1_1in_1_1bachelorproject2018_1_1poker_1_1game_1_1hubs_1_1GameHub.htm#aaa694ceaf0579abef32bb8bec3f0917e" target="_top" xlink:title="getter for the carddealer ">
<polygon fill="none" stroke="black" points="330.5,-282.5 330.5,-310.5 619.5,-310.5 619.5,-282.5 330.5,-282.5"/>
<text text-anchor="start" x="338.5" y="-299.3" font-family="Helvetica,sans-Serif" font-size="9.00">de.tu_clausthal.in.bachelorproject2018.poker.game.hubs.</text>
<text text-anchor="middle" x="475" y="-289.3" font-family="Helvetica,sans-Serif" font-size="9.00">GameHub.getCardDealer</text>
</a>
</g>
</g>
<!-- Node4&#45;&gt;Node14 -->
<g id="edge10" class="edge"><title>Node4&#45;&gt;Node14</title>
<path fill="none" stroke="midnightblue" d="M196.905,-239.569C233.243,-249.604 283.942,-262.957 329,-272.5 342.792,-275.421 357.384,-278.199 371.79,-280.76"/>
<polygon fill="midnightblue" stroke="midnightblue" points="371.267,-284.221 381.72,-282.497 372.473,-277.326 371.267,-284.221"/>
</g>
<!-- Node15 -->
<g id="node12" class="node"><title>Node15</title>
<g id="a_node12"><a xlink:href="../../da/d48/classde_1_1tu__clausthal_1_1in_1_1bachelorproject2018_1_1poker_1_1game_1_1hubs_1_1GameHub.htm#a70d72ce0a72b5c0e490bf935258b69f4" target="_top" xlink:title="getter for the chipsHandler ">
<polygon fill="none" stroke="black" points="330.5,-235.5 330.5,-263.5 619.5,-263.5 619.5,-235.5 330.5,-235.5"/>
<text text-anchor="start" x="338.5" y="-252.3" font-family="Helvetica,sans-Serif" font-size="9.00">de.tu_clausthal.in.bachelorproject2018.poker.game.hubs.</text>
<text text-anchor="middle" x="475" y="-242.3" font-family="Helvetica,sans-Serif" font-size="9.00">GameHub.getChipsHandler</text>
</a>
</g>
</g>
<!-- Node4&#45;&gt;Node15 -->
<g id="edge11" class="edge"><title>Node4&#45;&gt;Node15</title>
<path fill="none" stroke="midnightblue" d="M293.085,-236.201C302.104,-236.864 311.196,-237.533 320.249,-238.198"/>
<polygon fill="midnightblue" stroke="midnightblue" points="320.218,-241.705 330.448,-238.948 320.732,-234.724 320.218,-241.705"/>
</g>
<!-- Node16 -->
<g id="node13" class="node"><title>Node16</title>
<g id="a_node13"><a xlink:href="../../dd/d8f/classde_1_1tu__clausthal_1_1in_1_1bachelorproject2018_1_1poker_1_1game_1_1hubs_1_1CardDealer.htm#aec7fb2915606c7d113c86d9f14b095db" target="_top" xlink:title="get the playDeck ">
<polygon fill="none" stroke="black" points="330.5,-188.5 330.5,-216.5 619.5,-216.5 619.5,-188.5 330.5,-188.5"/>
<text text-anchor="start" x="338.5" y="-205.3" font-family="Helvetica,sans-Serif" font-size="9.00">de.tu_clausthal.in.bachelorproject2018.poker.game.hubs.</text>
<text text-anchor="middle" x="475" y="-195.3" font-family="Helvetica,sans-Serif" font-size="9.00">CardDealer.getDeck</text>
</a>
</g>
</g>
<!-- Node4&#45;&gt;Node16 -->
<g id="edge12" class="edge"><title>Node4&#45;&gt;Node16</title>
<path fill="none" stroke="midnightblue" d="M293.085,-215.244C302.104,-214.609 311.196,-213.969 320.249,-213.331"/>
<polygon fill="midnightblue" stroke="midnightblue" points="320.719,-216.807 330.448,-212.612 320.227,-209.824 320.719,-216.807"/>
</g>
<!-- Node17 -->
<g id="node14" class="node"><title>Node17</title>
<g id="a_node14"><a xlink:href="../../d5/d36/interfacede_1_1tu__clausthal_1_1in_1_1bachelorproject2018_1_1poker_1_1game_1_1table_1_1ITable.htm#ad5910542f67b66837a7e3c326d22a671" target="_top" xlink:title="de.tu_clausthal.in.bachelorproject2018.poker.game.table.\lITable.getGameHub">
<polygon fill="none" stroke="black" points="330,-141.5 330,-169.5 620,-169.5 620,-141.5 330,-141.5"/>
<text text-anchor="start" x="338" y="-158.3" font-family="Helvetica,sans-Serif" font-size="9.00">de.tu_clausthal.in.bachelorproject2018.poker.game.table.</text>
<text text-anchor="middle" x="475" y="-148.3" font-family="Helvetica,sans-Serif" font-size="9.00">ITable.getGameHub</text>
</a>
</g>
</g>
<!-- Node4&#45;&gt;Node17 -->
<g id="edge13" class="edge"><title>Node4&#45;&gt;Node17</title>
<path fill="none" stroke="midnightblue" d="M196.501,-211.447C232.856,-201.355 283.75,-187.925 329,-178.5 341.207,-175.957 354.044,-173.547 366.825,-171.31"/>
<polygon fill="midnightblue" stroke="midnightblue" points="367.785,-174.697 377.049,-169.555 366.601,-167.797 367.785,-174.697"/>
</g>
<!-- Node18 -->
<g id="node15" class="node"><title>Node18</title>
<g id="a_node15"><a xlink:href="../../d5/d01/classde_1_1tu__clausthal_1_1in_1_1bachelorproject2018_1_1poker_1_1game_1_1cards_1_1Deck.htm#a5f96a379252ee68e21459caf7805be86" target="_top" xlink:title="remove the topcard of the deck, return the card and delete the element of the deck ...">
<polygon fill="none" stroke="black" points="329,-94.5 329,-122.5 621,-122.5 621,-94.5 329,-94.5"/>
<text text-anchor="start" x="337" y="-111.3" font-family="Helvetica,sans-Serif" font-size="9.00">de.tu_clausthal.in.bachelorproject2018.poker.game.cards.</text>
<text text-anchor="middle" x="475" y="-101.3" font-family="Helvetica,sans-Serif" font-size="9.00">Deck.removeTopCard</text>
</a>
</g>
</g>
<!-- Node4&#45;&gt;Node18 -->
<g id="edge16" class="edge"><title>Node4&#45;&gt;Node18</title>
<path fill="none" stroke="midnightblue" d="M169.122,-211.361C202.156,-190.456 267.814,-151.613 329,-131.5 336.406,-129.066 344.112,-126.884 351.941,-124.931"/>
<polygon fill="midnightblue" stroke="midnightblue" points="352.982,-128.281 361.91,-122.576 351.373,-121.469 352.982,-128.281"/>
</g>
<!-- Node19 -->
<g id="node16" class="node"><title>Node19</title>
<g id="a_node16"><a xlink:href="../../dd/d8f/classde_1_1tu__clausthal_1_1in_1_1bachelorproject2018_1_1poker_1_1game_1_1hubs_1_1CardDealer.htm#af584e467e7242eaff4ede1168b84e90f" target="_top" xlink:title="reset Deck for next Hand to be played refill the deck with nwe cards and shuffle clear the tablecards...">
<polygon fill="none" stroke="black" points="330.5,-47.5 330.5,-75.5 619.5,-75.5 619.5,-47.5 330.5,-47.5"/>
<text text-anchor="start" x="338.5" y="-64.3" font-family="Helvetica,sans-Serif" font-size="9.00">de.tu_clausthal.in.bachelorproject2018.poker.game.hubs.</text>
<text text-anchor="middle" x="475" y="-54.3" font-family="Helvetica,sans-Serif" font-size="9.00">CardDealer.resetForNextRound</text>
</a>
</g>
</g>
<!-- Node4&#45;&gt;Node19 -->
<g id="edge17" class="edge"><title>Node4&#45;&gt;Node19</title>
<path fill="none" stroke="midnightblue" d="M160.485,-211.464C188.274,-182.403 256.874,-115.753 329,-84.5 334.043,-82.3149 339.265,-80.3347 344.6,-78.5404"/>
<polygon fill="midnightblue" stroke="midnightblue" points="345.81,-81.8294 354.312,-75.5073 343.723,-75.1477 345.81,-81.8294"/>
</g>
<!-- Node20 -->
<g id="node17" class="node"><title>Node20</title>
<g id="a_node17"><a xlink:href="../../dd/dfe/classde_1_1tu__clausthal_1_1in_1_1bachelorproject2018_1_1poker_1_1game_1_1hubs_1_1ChipsHandling.htm#a68b44f9585047233bac35a0769518577" target="_top" xlink:title="reset everything after a fully played hand resets the same variables as resetRound but furthermore re...">
<polygon fill="none" stroke="black" points="330.5,-0.5 330.5,-28.5 619.5,-28.5 619.5,-0.5 330.5,-0.5"/>
<text text-anchor="start" x="338.5" y="-17.3" font-family="Helvetica,sans-Serif" font-size="9.00">de.tu_clausthal.in.bachelorproject2018.poker.game.hubs.</text>
<text text-anchor="middle" x="475" y="-7.3" font-family="Helvetica,sans-Serif" font-size="9.00">ChipsHandling.resetHand</text>
</a>
</g>
</g>
<!-- Node4&#45;&gt;Node20 -->
<g id="edge18" class="edge"><title>Node4&#45;&gt;Node20</title>
<path fill="none" stroke="midnightblue" d="M156.249,-211.466C179.422,-175.634 246.312,-80.564 329,-37.5 332.585,-35.6328 336.283,-33.9087 340.065,-32.3171"/>
<polygon fill="midnightblue" stroke="midnightblue" points="341.555,-35.4936 349.625,-28.6278 339.035,-28.963 341.555,-35.4936"/>
</g>
<!-- Node6 -->
<g id="node3" class="node"><title>Node6</title>
<g id="a_node3"><a xlink:href="../../dd/dfe/classde_1_1tu__clausthal_1_1in_1_1bachelorproject2018_1_1poker_1_1game_1_1hubs_1_1ChipsHandling.htm#a866931dcef259ac4ea7eb51a8845ac59" target="_top" xlink:title="Get the BigBlind for displaying information. ">
<polygon fill="none" stroke="black" points="657.5,-593.5 657.5,-621.5 946.5,-621.5 946.5,-593.5 657.5,-593.5"/>
<text text-anchor="start" x="665.5" y="-610.3" font-family="Helvetica,sans-Serif" font-size="9.00">de.tu_clausthal.in.bachelorproject2018.poker.game.hubs.</text>
<text text-anchor="middle" x="802" y="-600.3" font-family="Helvetica,sans-Serif" font-size="9.00">ChipsHandling.getBigBlindAmount</text>
</a>
</g>
</g>
<!-- Node5&#45;&gt;Node6 -->
<g id="edge2" class="edge"><title>Node5&#45;&gt;Node6</title>
<path fill="none" stroke="midnightblue" d="M495.566,-488.61C527.672,-511.082 594.254,-554.873 657,-578.5 670.186,-583.465 684.388,-587.638 698.552,-591.129"/>
<polygon fill="midnightblue" stroke="midnightblue" points="697.803,-594.548 708.34,-593.438 699.411,-587.735 697.803,-594.548"/>
</g>
<!-- Node5&#45;&gt;Node7 -->
<g id="edge3" class="edge"><title>Node5&#45;&gt;Node7</title>
<path fill="none" stroke="midnightblue" d="M501.773,-488.514C575.775,-526.705 793.425,-624.562 947,-544.5 1043.82,-494.026 1099.13,-364.822 1118.53,-311.287"/>
<polygon fill="midnightblue" stroke="midnightblue" points="1121.91,-312.23 1121.93,-301.635 1115.3,-309.903 1121.91,-312.23"/>
</g>
<!-- Node10 -->
<g id="node7" class="node"><title>Node10</title>
<g id="a_node7"><a xlink:href="../../dd/dfe/classde_1_1tu__clausthal_1_1in_1_1bachelorproject2018_1_1poker_1_1game_1_1hubs_1_1ChipsHandling.htm#a699a7031357ff2ad7469e7bbf786d1b4" target="_top" xlink:title="de.tu_clausthal.in.bachelorproject2018.poker.game.hubs.\lChipsHandling.getPot">
<polygon fill="none" stroke="black" points="657.5,-507.5 657.5,-535.5 946.5,-535.5 946.5,-507.5 657.5,-507.5"/>
<text text-anchor="start" x="665.5" y="-524.3" font-family="Helvetica,sans-Serif" font-size="9.00">de.tu_clausthal.in.bachelorproject2018.poker.game.hubs.</text>
<text text-anchor="middle" x="802" y="-514.3" font-family="Helvetica,sans-Serif" font-size="9.00">ChipsHandling.getPot</text>
</a>
</g>
</g>
<!-- Node5&#45;&gt;Node10 -->
<g id="edge6" class="edge"><title>Node5&#45;&gt;Node10</title>
<path fill="none" stroke="midnightblue" d="M573.07,-488.538C611.102,-494.038 654.874,-500.368 693.829,-506.001"/>
<polygon fill="midnightblue" stroke="midnightblue" points="693.751,-509.526 704.149,-507.494 694.753,-502.599 693.751,-509.526"/>
</g>
<!-- Node11 -->
<g id="node8" class="node"><title>Node11</title>
<g id="a_node8"><a xlink:href="../../dd/dfe/classde_1_1tu__clausthal_1_1in_1_1bachelorproject2018_1_1poker_1_1game_1_1hubs_1_1ChipsHandling.htm#a3b61506fa65d02f89517a4e0b265803f" target="_top" xlink:title="Get the SmallBlind for displaying information. ">
<polygon fill="none" stroke="black" points="657.5,-460.5 657.5,-488.5 946.5,-488.5 946.5,-460.5 657.5,-460.5"/>
<text text-anchor="start" x="665.5" y="-477.3" font-family="Helvetica,sans-Serif" font-size="9.00">de.tu_clausthal.in.bachelorproject2018.poker.game.hubs.</text>
<text text-anchor="middle" x="802" y="-467.3" font-family="Helvetica,sans-Serif" font-size="9.00">ChipsHandling.getSmallBlindAmount</text>
</a>
</g>
</g>
<!-- Node5&#45;&gt;Node11 -->
<g id="edge7" class="edge"><title>Node5&#45;&gt;Node11</title>
<path fill="none" stroke="midnightblue" d="M619.969,-474.5C628.974,-474.5 638.057,-474.5 647.103,-474.5"/>
<polygon fill="midnightblue" stroke="midnightblue" points="647.296,-478 657.296,-474.5 647.296,-471 647.296,-478"/>
</g>
<!-- Node12 -->
<g id="node9" class="node"><title>Node12</title>
<g id="a_node9"><a xlink:href="../../da/d48/classde_1_1tu__clausthal_1_1in_1_1bachelorproject2018_1_1poker_1_1game_1_1hubs_1_1GameHub.htm#a1ebfbc4fd42b3e8f542807ef13e6fcd9" target="_top" xlink:title="getter for table ">
<polygon fill="none" stroke="black" points="657.5,-413.5 657.5,-441.5 946.5,-441.5 946.5,-413.5 657.5,-413.5"/>
<text text-anchor="start" x="665.5" y="-430.3" font-family="Helvetica,sans-Serif" font-size="9.00">de.tu_clausthal.in.bachelorproject2018.poker.game.hubs.</text>
<text text-anchor="middle" x="802" y="-420.3" font-family="Helvetica,sans-Serif" font-size="9.00">GameHub.getTable</text>
</a>
</g>
</g>
<!-- Node5&#45;&gt;Node12 -->
<g id="edge8" class="edge"><title>Node5&#45;&gt;Node12</title>
<path fill="none" stroke="midnightblue" d="M573.07,-460.462C611.102,-454.962 654.874,-448.632 693.829,-442.999"/>
<polygon fill="midnightblue" stroke="midnightblue" points="694.753,-446.401 704.149,-441.506 693.751,-439.474 694.753,-446.401"/>
</g>
<!-- Node5&#45;&gt;Node13 -->
<g id="edge9" class="edge"><title>Node5&#45;&gt;Node13</title>
<path fill="none" stroke="midnightblue" d="M506.064,-460.385C541.435,-444.33 602.288,-418.413 657,-403.5 666.434,-400.928 676.3,-398.609 686.252,-396.525"/>
<polygon fill="midnightblue" stroke="midnightblue" points="687.107,-399.923 696.22,-394.518 685.726,-393.061 687.107,-399.923"/>
</g>
<!-- Node8 -->
<g id="node5" class="node"><title>Node8</title>
<g id="a_node5"><a xlink:href="../../da/d48/classde_1_1tu__clausthal_1_1in_1_1bachelorproject2018_1_1poker_1_1game_1_1hubs_1_1GameHub.htm#a779929edeff8f64a359c53d09be3ca06" target="_top" xlink:title="zieht sich die aktuelle playerList vom Table ">
<polygon fill="none" stroke="black" points="1308,-273.5 1308,-301.5 1597,-301.5 1597,-273.5 1308,-273.5"/>
<text text-anchor="start" x="1316" y="-290.3" font-family="Helvetica,sans-Serif" font-size="9.00">de.tu_clausthal.in.bachelorproject2018.poker.game.hubs.</text>
<text text-anchor="middle" x="1452.5" y="-280.3" font-family="Helvetica,sans-Serif" font-size="9.00">GameHub.updatePlayerlist</text>
</a>
</g>
</g>
<!-- Node7&#45;&gt;Node8 -->
<g id="edge4" class="edge"><title>Node7&#45;&gt;Node8</title>
<path fill="none" stroke="midnightblue" d="M1272.05,-287.5C1280.59,-287.5 1289.2,-287.5 1297.77,-287.5"/>
<polygon fill="midnightblue" stroke="midnightblue" points="1297.82,-291 1307.82,-287.5 1297.82,-284 1297.82,-291"/>
</g>
<!-- Node9 -->
<g id="node6" class="node"><title>Node9</title>
<g id="a_node6"><a xlink:href="../../d5/d36/interfacede_1_1tu__clausthal_1_1in_1_1bachelorproject2018_1_1poker_1_1game_1_1table_1_1ITable.htm#a6e42c7daa9c258015750347f2a5542fe" target="_top" xlink:title="liefert alle Spieler des Tisches ">
<polygon fill="none" stroke="black" points="1633,-273.5 1633,-301.5 1923,-301.5 1923,-273.5 1633,-273.5"/>
<text text-anchor="start" x="1641" y="-290.3" font-family="Helvetica,sans-Serif" font-size="9.00">de.tu_clausthal.in.bachelorproject2018.poker.game.table.</text>
<text text-anchor="middle" x="1778" y="-280.3" font-family="Helvetica,sans-Serif" font-size="9.00">ITable.list</text>
</a>
</g>
</g>
<!-- Node8&#45;&gt;Node9 -->
<g id="edge5" class="edge"><title>Node8&#45;&gt;Node9</title>
<path fill="none" stroke="midnightblue" d="M1597.28,-287.5C1605.67,-287.5 1614.14,-287.5 1622.57,-287.5"/>
<polygon fill="midnightblue" stroke="midnightblue" points="1622.85,-291 1632.84,-287.5 1622.84,-284 1622.85,-291"/>
</g>
<!-- Node20&#45;&gt;Node7 -->
<g id="edge19" class="edge"><title>Node20&#45;&gt;Node7</title>
<path fill="none" stroke="midnightblue" d="M605.275,-28.6607C610.761,-31.2184 616.036,-34.1484 621,-37.5 646.774,-54.9011 633.365,-77.289 657,-97.5 771.8,-195.668 943.932,-247.641 1044.77,-271.213"/>
<polygon fill="midnightblue" stroke="midnightblue" points="1044.07,-274.644 1054.6,-273.474 1045.64,-267.822 1044.07,-274.644"/>
</g>
<!-- Node21 -->
<g id="node18" class="node"><title>Node21</title>
<g id="a_node18"><a xlink:href="../../dd/dfe/classde_1_1tu__clausthal_1_1in_1_1bachelorproject2018_1_1poker_1_1game_1_1hubs_1_1ChipsHandling.htm#afbb80dc416439585aa915d36bd398ecb" target="_top" xlink:title="go clockwise through the playerlist, to check who has to pay blinds if any index is at the last index...">
<polygon fill="none" stroke="black" points="657.5,-60.5 657.5,-88.5 946.5,-88.5 946.5,-60.5 657.5,-60.5"/>
<text text-anchor="start" x="665.5" y="-77.3" font-family="Helvetica,sans-Serif" font-size="9.00">de.tu_clausthal.in.bachelorproject2018.poker.game.hubs.</text>
<text text-anchor="middle" x="802" y="-67.3" font-family="Helvetica,sans-Serif" font-size="9.00">ChipsHandling.nextBlind</text>
</a>
</g>
</g>
<!-- Node20&#45;&gt;Node21 -->
<g id="edge20" class="edge"><title>Node20&#45;&gt;Node21</title>
<path fill="none" stroke="midnightblue" d="M568.542,-28.5356C585.992,-31.3645 604.073,-34.4195 621,-37.5 655.703,-43.8157 694.005,-51.5775 726.324,-58.3582"/>
<polygon fill="midnightblue" stroke="midnightblue" points="725.645,-61.7919 736.152,-60.4284 727.088,-54.9422 725.645,-61.7919"/>
</g>
<!-- Node21&#45;&gt;Node7 -->
<g id="edge21" class="edge"><title>Node21&#45;&gt;Node7</title>
<path fill="none" stroke="midnightblue" d="M824.476,-88.6405C880.544,-125.557 1031.47,-224.928 1096.27,-267.593"/>
<polygon fill="midnightblue" stroke="midnightblue" points="1094.54,-270.649 1104.82,-273.225 1098.39,-264.802 1094.54,-270.649"/>
</g>
</g>
</svg>
        <g id="navigator" transform="translate(0 0)" fill="#404254">
                <rect fill="#f2f5e9" fill-opacity="0.5" stroke="#606060" stroke-width=".5" x="0" y="0" width="60" height="60"/>
                <use id="zoomplus" xlink:href="#zoomPlus" x="17" y="9" onmousedown="handleZoom(evt,'in')"/>
                <use id="zoomminus" xlink:href="#zoomMin" x="42" y="9" onmousedown="handleZoom(evt,'out')"/>
                <use id="reset" xlink:href="#resetDef" x="30" y="36" onmousedown="handleReset()"/>
                <g id="arrowUp" xlink:href="#dirArrow" transform="translate(30 24)" onmousedown="handlePan(0,-1)">
                  <use xlink:href="#rim" fill="#404040">
                        <set attributeName="fill" to="#808080" begin="arrowUp.mouseover" end="arrowUp.mouseout"/>
                  </use>
                  <path fill="none" stroke="white" stroke-width="1.5" d="M0,-3.0v7 M-2.5,-0.5L0,-3.0L2.5,-0.5"/>
                </g>
                <g id="arrowRight" xlink:href="#dirArrow" transform="rotate(90) translate(36 -43)" onmousedown="handlePan(1,0)">
                  <use xlink:href="#rim" fill="#404040">
                        <set attributeName="fill" to="#808080" begin="arrowRight.mouseover" end="arrowRight.mouseout"/>
                  </use>
                  <path fill="none" stroke="white" stroke-width="1.5" d="M0,-3.0v7 M-2.5,-0.5L0,-3.0L2.5,-0.5"/>
                </g>
                <g id="arrowDown" xlink:href="#dirArrow" transform="rotate(180) translate(-30 -48)" onmousedown="handlePan(0,1)">
                  <use xlink:href="#rim" fill="#404040">
                        <set attributeName="fill" to="#808080" begin="arrowDown.mouseover" end="arrowDown.mouseout"/>
                  </use>
                  <path fill="none" stroke="white" stroke-width="1.5" d="M0,-3.0v7 M-2.5,-0.5L0,-3.0L2.5,-0.5"/>
                </g>
                <g id="arrowLeft" xlink:href="#dirArrow" transform="rotate(270) translate(-36 17)" onmousedown="handlePan(-1,0)">
                  <use xlink:href="#rim" fill="#404040">
                        <set attributeName="fill" to="#808080" begin="arrowLeft.mouseover" end="arrowLeft.mouseout"/>
                  </use>
                  <path fill="none" stroke="white" stroke-width="1.5" d="M0,-3.0v7 M-2.5,-0.5L0,-3.0L2.5,-0.5"/>
                </g>
        </g>
        <svg viewBox="0 0 15 15" width="100%" height="30px" preserveAspectRatio="xMaxYMin meet">
         <g id="arrow_out" transform="scale(0.3 0.3)">
          <a xlink:href="classde_1_1tu__clausthal_1_1in_1_1bachelorproject2018_1_1poker_1_1game_1_1round_1_1CPreFlop_a29d161fc537ba98819b2a6ea3acc9894_cgraph_org.svg" target="_base">
           <rect id="button" ry="5" rx="5" y="6" x="6" height="38" width="38"
                fill="#f2f5e9" fill-opacity="0.5" stroke="#606060" stroke-width="1.0"/>
           <path id="arrow"
             d="M 11.500037,31.436501 C 11.940474,20.09759 22.043105,11.32322 32.158766,21.979434 L 37.068811,17.246167 C 37.068811,17.246167 37.088388,32 37.088388,32 L 22.160133,31.978069 C 22.160133,31.978069 26.997745,27.140456 26.997745,27.140456 C 18.528582,18.264221 13.291696,25.230495 11.500037,31.436501 z"
             style="fill:#404040;"/>
          </a>
         </g>
        </svg>
</svg>
