<?xml version="1.0" encoding="UTF-8" standalone="no"?>
<!DOCTYPE svg PUBLIC "-//W3C//DTD SVG 1.1//EN"
 "http://www.w3.org/Graphics/SVG/1.1/DTD/svg11.dtd">
<!-- Generated by graphviz version 2.38.0 (20140413.2041)
 -->
<!-- Title: de.tu_clausthal.in.bachelorproject2018.poker.game.wincheck.IBaseWinCheckAction Pages: 1 -->
<svg width="624pt" height="264pt"
 viewBox="0.00 0.00 624.00 264.00" xmlns="http://www.w3.org/2000/svg" xmlns:xlink="http://www.w3.org/1999/xlink">
<g id="graph0" class="graph" transform="scale(1 1) rotate(0) translate(4 260)">
<title>de.tu_clausthal.in.bachelorproject2018.poker.game.wincheck.IBaseWinCheckAction</title>
<!-- Node6 -->
<g id="node1" class="node"><title>Node6</title>
<polygon fill="#bfbfbf" stroke="black" points="158,-0.5 158,-64.5 466,-64.5 466,-0.5 158,-0.5"/>
<text text-anchor="start" x="166" y="-53.3" font-family="Helvetica,sans-Serif" font-size="9.00">de.tu_clausthal.in.bachelorproject2018.poker.game.wincheck.</text>
<text text-anchor="middle" x="312" y="-43.3" font-family="Helvetica,sans-Serif" font-size="9.00">IBaseWinCheckAction</text>
<polyline fill="none" stroke="black" points="158,-36.5 466,-36.5 "/>
<text text-anchor="middle" x="312" y="-25.3" font-family="Helvetica,sans-Serif" font-size="9.00"> </text>
<polyline fill="none" stroke="black" points="158,-18.5 466,-18.5 "/>
<text text-anchor="start" x="166" y="-7.3" font-family="Helvetica,sans-Serif" font-size="9.00"># IBaseWinCheckAction()</text>
</g>
<!-- Node7 -->
<g id="node2" class="node"><title>Node7</title>
<g id="a_node2"><a xlink:href="../../d4/dae/interfacede_1_1tu__clausthal_1_1in_1_1bachelorproject2018_1_1poker_1_1game_1_1wincheck_1_1IWinCheckAction.htm" target="_top" xlink:title="Interface, um die einzelnen Teile der WinEvaluation zu definieren Die Aktion ist ein Supplier...">
<polygon fill="none" stroke="black" points="0,-151.5 0,-215.5 308,-215.5 308,-151.5 0,-151.5"/>
<text text-anchor="start" x="8" y="-204.3" font-family="Helvetica,sans-Serif" font-size="9.00">de.tu_clausthal.in.bachelorproject2018.poker.game.wincheck.</text>
<text text-anchor="middle" x="154" y="-194.3" font-family="Helvetica,sans-Serif" font-size="9.00">IWinCheckAction</text>
<polyline fill="none" stroke="black" points="0,-187.5 308,-187.5 "/>
<text text-anchor="middle" x="154" y="-176.3" font-family="Helvetica,sans-Serif" font-size="9.00"> </text>
<polyline fill="none" stroke="black" points="0,-169.5 308,-169.5 "/>
<text text-anchor="start" x="8" y="-158.3" font-family="Helvetica,sans-Serif" font-size="9.00">+ apply()</text>
</a>
</g>
</g>
<!-- Node7&#45;&gt;Node6 -->
<g id="edge1" class="edge"><title>Node7&#45;&gt;Node6</title>
<path fill="none" stroke="midnightblue" d="M194.639,-144.176C220.806,-119.499 254.389,-87.8292 278.922,-64.6942"/>
<polygon fill="none" stroke="midnightblue" points="191.996,-141.858 187.122,-151.265 196.799,-146.95 191.996,-141.858"/>
</g>
<!-- Node8 -->
<g id="node3" class="node"><title>Node8</title>
<g id="a_node3"><a xlink:href="../../d5/d36/interfacede_1_1tu__clausthal_1_1in_1_1bachelorproject2018_1_1poker_1_1game_1_1table_1_1ITable.htm" target="_top" xlink:title="Interface um einen Spieletisch darzustellen. ">
<polygon fill="none" stroke="black" points="326,-111.5 326,-255.5 616,-255.5 616,-111.5 326,-111.5"/>
<text text-anchor="start" x="334" y="-244.3" font-family="Helvetica,sans-Serif" font-size="9.00">de.tu_clausthal.in.bachelorproject2018.poker.game.table.</text>
<text text-anchor="middle" x="471" y="-234.3" font-family="Helvetica,sans-Serif" font-size="9.00">ITable</text>
<polyline fill="none" stroke="black" points="326,-227.5 616,-227.5 "/>
<text text-anchor="middle" x="471" y="-216.3" font-family="Helvetica,sans-Serif" font-size="9.00"> </text>
<polyline fill="none" stroke="black" points="326,-209.5 616,-209.5 "/>
<text text-anchor="start" x="334" y="-198.3" font-family="Helvetica,sans-Serif" font-size="9.00">+ getGameHub()</text>
<text text-anchor="start" x="334" y="-188.3" font-family="Helvetica,sans-Serif" font-size="9.00">+ getQueue()</text>
<text text-anchor="start" x="334" y="-178.3" font-family="Helvetica,sans-Serif" font-size="9.00">+ isplaying()</text>
<text text-anchor="start" x="334" y="-168.3" font-family="Helvetica,sans-Serif" font-size="9.00">+ join()</text>
<text text-anchor="start" x="334" y="-158.3" font-family="Helvetica,sans-Serif" font-size="9.00">+ leave()</text>
<text text-anchor="start" x="334" y="-148.3" font-family="Helvetica,sans-Serif" font-size="9.00">+ list()</text>
<text text-anchor="start" x="334" y="-138.3" font-family="Helvetica,sans-Serif" font-size="9.00">+ name()</text>
<text text-anchor="start" x="334" y="-128.3" font-family="Helvetica,sans-Serif" font-size="9.00">+ owner()</text>
<text text-anchor="start" x="334" y="-118.3" font-family="Helvetica,sans-Serif" font-size="9.00">+ start()</text>
</a>
</g>
</g>
<!-- Node8&#45;&gt;Node6 -->
<g id="edge2" class="edge"><title>Node8&#45;&gt;Node6</title>
<path fill="none" stroke="#404040" d="M395.225,-111.491C381.066,-98.2218 366.748,-84.8046 354.074,-72.9281"/>
<polygon fill="none" stroke="#404040" points="353.918,-72.7821 346.805,-71.598 345.162,-64.5766 352.276,-65.7606 353.918,-72.7821"/>
<text text-anchor="middle" x="397" y="-85.8" font-family="Helvetica,sans-Serif" font-size="9.00"> #m_table</text>
</g>
</g>
</svg>
