<?xml version="1.0" encoding="UTF-8" standalone="no"?>
<!DOCTYPE svg PUBLIC "-//W3C//DTD SVG 1.1//EN"
 "http://www.w3.org/Graphics/SVG/1.1/DTD/svg11.dtd">
<!-- Generated by graphviz version 2.38.0 (20140413.2041)
 -->
<!-- Title: de.tu_clausthal.in.bachelorproject2018.poker.game.wincheck.CStraight.apply Pages: 1 -->
<svg width="660pt" height="178pt"
 viewBox="0.00 0.00 660.00 178.00" xmlns="http://www.w3.org/2000/svg" xmlns:xlink="http://www.w3.org/1999/xlink">
<g id="graph0" class="graph" transform="scale(1 1) rotate(0) translate(4 174)">
<title>de.tu_clausthal.in.bachelorproject2018.poker.game.wincheck.CStraight.apply</title>
<!-- Node2 -->
<g id="node1" class="node"><title>Node2</title>
<polygon fill="#bfbfbf" stroke="black" points="0,-70.5 0,-98.5 308,-98.5 308,-70.5 0,-70.5"/>
<text text-anchor="start" x="8" y="-87.3" font-family="Helvetica,sans-Serif" font-size="9.00">de.tu_clausthal.in.bachelorproject2018.poker.game.wincheck.</text>
<text text-anchor="middle" x="154" y="-77.3" font-family="Helvetica,sans-Serif" font-size="9.00">CStraight.apply</text>
</g>
<!-- Node3 -->
<g id="node2" class="node"><title>Node3</title>
<g id="a_node2"><a xlink:href="../../d3/ddc/classde_1_1tu__clausthal_1_1in_1_1bachelorproject2018_1_1poker_1_1game_1_1wincheck_1_1HandStatistic.htm#a944fb2841e119c5b86a58c9e7499e24f" target="_top" xlink:title="getter for handevaluation ">
<polygon fill="none" stroke="black" points="344,-141.5 344,-169.5 652,-169.5 652,-141.5 344,-141.5"/>
<text text-anchor="start" x="352" y="-158.3" font-family="Helvetica,sans-Serif" font-size="9.00">de.tu_clausthal.in.bachelorproject2018.poker.game.wincheck.</text>
<text text-anchor="middle" x="498" y="-148.3" font-family="Helvetica,sans-Serif" font-size="9.00">HandStatistic.getHandEvaluation</text>
</a>
</g>
</g>
<!-- Node2&#45;&gt;Node3 -->
<g id="edge1" class="edge"><title>Node2&#45;&gt;Node3</title>
<path fill="none" stroke="midnightblue" d="M204.829,-98.599C242.758,-108.979 296.378,-122.898 344,-132.5 357.031,-135.127 370.741,-137.598 384.381,-139.875"/>
<polygon fill="midnightblue" stroke="midnightblue" points="383.856,-143.336 394.29,-141.499 384.988,-136.428 383.856,-143.336"/>
</g>
<!-- Node4 -->
<g id="node3" class="node"><title>Node4</title>
<g id="a_node3"><a xlink:href="../../d3/ddc/classde_1_1tu__clausthal_1_1in_1_1bachelorproject2018_1_1poker_1_1game_1_1wincheck_1_1HandStatistic.htm#aca4ebd19df8d4b6506d13a529d582e59" target="_top" xlink:title="getter for Rankarray ">
<polygon fill="none" stroke="black" points="344,-94.5 344,-122.5 652,-122.5 652,-94.5 344,-94.5"/>
<text text-anchor="start" x="352" y="-111.3" font-family="Helvetica,sans-Serif" font-size="9.00">de.tu_clausthal.in.bachelorproject2018.poker.game.wincheck.</text>
<text text-anchor="middle" x="498" y="-101.3" font-family="Helvetica,sans-Serif" font-size="9.00">HandStatistic.getRankArray</text>
</a>
</g>
</g>
<!-- Node2&#45;&gt;Node4 -->
<g id="edge2" class="edge"><title>Node2&#45;&gt;Node4</title>
<path fill="none" stroke="midnightblue" d="M308.493,-95.2714C316.825,-95.8562 325.213,-96.4448 333.577,-97.0317"/>
<polygon fill="midnightblue" stroke="midnightblue" points="333.541,-100.538 343.762,-97.7465 334.032,-93.5549 333.541,-100.538"/>
</g>
<!-- Node5 -->
<g id="node4" class="node"><title>Node5</title>
<g id="a_node4"><a xlink:href="../../d3/ddc/classde_1_1tu__clausthal_1_1in_1_1bachelorproject2018_1_1poker_1_1game_1_1wincheck_1_1HandStatistic.htm#a95c386b245a125664f9d2f82b412fcb0" target="_top" xlink:title="set the handevaluation elements to a certain value, used by winevaluation ">
<polygon fill="none" stroke="black" points="344,-47.5 344,-75.5 652,-75.5 652,-47.5 344,-47.5"/>
<text text-anchor="start" x="352" y="-64.3" font-family="Helvetica,sans-Serif" font-size="9.00">de.tu_clausthal.in.bachelorproject2018.poker.game.wincheck.</text>
<text text-anchor="middle" x="498" y="-54.3" font-family="Helvetica,sans-Serif" font-size="9.00">HandStatistic.setHandEvaluation</text>
</a>
</g>
</g>
<!-- Node2&#45;&gt;Node5 -->
<g id="edge3" class="edge"><title>Node2&#45;&gt;Node5</title>
<path fill="none" stroke="midnightblue" d="M308.493,-74.1774C316.825,-73.617 325.213,-73.0529 333.577,-72.4904"/>
<polygon fill="midnightblue" stroke="midnightblue" points="334.019,-75.9687 343.762,-71.8055 333.55,-68.9845 334.019,-75.9687"/>
</g>
<!-- Node6 -->
<g id="node5" class="node"><title>Node6</title>
<g id="a_node5"><a xlink:href="../../d3/ddc/classde_1_1tu__clausthal_1_1in_1_1bachelorproject2018_1_1poker_1_1game_1_1wincheck_1_1HandStatistic.htm#a999503a53f17173e62572437bd73c31a" target="_top" xlink:title="de.tu_clausthal.in.bachelorproject2018.poker.game.wincheck.\lHandStatistic.straightFound">
<polygon fill="none" stroke="black" points="344,-0.5 344,-28.5 652,-28.5 652,-0.5 344,-0.5"/>
<text text-anchor="start" x="352" y="-17.3" font-family="Helvetica,sans-Serif" font-size="9.00">de.tu_clausthal.in.bachelorproject2018.poker.game.wincheck.</text>
<text text-anchor="middle" x="498" y="-7.3" font-family="Helvetica,sans-Serif" font-size="9.00">HandStatistic.straightFound</text>
</a>
</g>
</g>
<!-- Node2&#45;&gt;Node6 -->
<g id="edge4" class="edge"><title>Node2&#45;&gt;Node6</title>
<path fill="none" stroke="midnightblue" d="M207.692,-70.4297C245.459,-60.6507 297.637,-47.7616 344,-38.5 358.707,-35.562 374.27,-32.7648 389.616,-30.1866"/>
<polygon fill="midnightblue" stroke="midnightblue" points="390.364,-33.6105 399.658,-28.5248 389.221,-26.7045 390.364,-33.6105"/>
</g>
</g>
</svg>
