<?xml version="1.0" encoding="UTF-8" standalone="no"?>
<!DOCTYPE svg PUBLIC "-//W3C//DTD SVG 1.1//EN"
 "http://www.w3.org/Graphics/SVG/1.1/DTD/svg11.dtd">
<!-- Generated by graphviz version 2.38.0 (20140413.2041)
 -->
<!-- Title: de.tu_clausthal.in.bachelorproject2018.poker.game.table.ITable.list Pages: 1 -->
<svg width="2621pt" height="569pt"
 viewBox="0.00 0.00 2621.00 568.61" xmlns="http://www.w3.org/2000/svg" xmlns:xlink="http://www.w3.org/1999/xlink">
<g id="graph0" class="graph" transform="scale(1 1) rotate(0) translate(4 564.608)">
<title>de.tu_clausthal.in.bachelorproject2018.poker.game.table.ITable.list</title>
<!-- Node31 -->
<g id="node1" class="node"><title>Node31</title>
<polygon fill="#bfbfbf" stroke="black" points="0,-345.471 0,-373.471 290,-373.471 290,-345.471 0,-345.471"/>
<text text-anchor="start" x="8" y="-362.271" font-family="Helvetica,sans-Serif" font-size="9.00">de.tu_clausthal.in.bachelorproject2018.poker.game.table.</text>
<text text-anchor="middle" x="145" y="-352.271" font-family="Helvetica,sans-Serif" font-size="9.00">ITable.list</text>
</g>
<!-- Node32 -->
<g id="node2" class="node"><title>Node32</title>
<g id="a_node2"><a xlink:href="../../da/d71/classde_1_1tu__clausthal_1_1in_1_1bachelorproject2018_1_1poker_1_1controller_1_1CGameActionController.htm#acd68de8563c276268e19c635a2a662b8" target="_top" xlink:title="de.tu_clausthal.in.bachelorproject2018.poker.controller.\lCGameActionController.createUser">
<polygon fill="none" stroke="black" points="349,-392.471 349,-420.471 630,-420.471 630,-392.471 349,-392.471"/>
<text text-anchor="start" x="357" y="-409.271" font-family="Helvetica,sans-Serif" font-size="9.00">de.tu_clausthal.in.bachelorproject2018.poker.controller.</text>
<text text-anchor="middle" x="489.5" y="-399.271" font-family="Helvetica,sans-Serif" font-size="9.00">CGameActionController.createUser</text>
</a>
</g>
</g>
<!-- Node31&#45;&gt;Node32 -->
<g id="edge1" class="edge"><title>Node31&#45;&gt;Node32</title>
<path fill="none" stroke="midnightblue" d="M258.393,-374.894C299.662,-380.558 346.122,-386.933 386.434,-392.465"/>
<polygon fill="midnightblue" stroke="midnightblue" points="258.68,-371.401 248.297,-373.509 257.729,-378.336 258.68,-371.401"/>
</g>
<!-- Node33 -->
<g id="node3" class="node"><title>Node33</title>
<g id="a_node3"><a xlink:href="../../da/d00/classde_1_1tu__clausthal_1_1in_1_1bachelorproject2018_1_1poker_1_1network_1_1websocket_1_1CNotificationService.htm#a593acc62ddc409de7b06110c5438a318" target="_top" xlink:title="de.tu_clausthal.in.bachelorproject2018.poker.network.websocket.\lCNotificationService.onApplicationEvent">
<polygon fill="none" stroke="black" points="326,-345.471 326,-373.471 653,-373.471 653,-345.471 326,-345.471"/>
<text text-anchor="start" x="334" y="-362.271" font-family="Helvetica,sans-Serif" font-size="9.00">de.tu_clausthal.in.bachelorproject2018.poker.network.websocket.</text>
<text text-anchor="middle" x="489.5" y="-352.271" font-family="Helvetica,sans-Serif" font-size="9.00">CNotificationService.onApplicationEvent</text>
</a>
</g>
</g>
<!-- Node31&#45;&gt;Node33 -->
<g id="edge2" class="edge"><title>Node31&#45;&gt;Node33</title>
<path fill="none" stroke="midnightblue" d="M300.522,-359.471C308.964,-359.471 317.46,-359.471 325.928,-359.471"/>
<polygon fill="midnightblue" stroke="midnightblue" points="300.258,-355.971 290.258,-359.471 300.258,-362.971 300.258,-355.971"/>
</g>
<!-- Node34 -->
<g id="node4" class="node"><title>Node34</title>
<g id="a_node4"><a xlink:href="../../da/d48/classde_1_1tu__clausthal_1_1in_1_1bachelorproject2018_1_1poker_1_1game_1_1hubs_1_1GameHub.htm#a779929edeff8f64a359c53d09be3ca06" target="_top" xlink:title="zieht sich die aktuelle playerList vom Table ">
<polygon fill="none" stroke="black" points="345,-298.471 345,-326.471 634,-326.471 634,-298.471 345,-298.471"/>
<text text-anchor="start" x="353" y="-315.271" font-family="Helvetica,sans-Serif" font-size="9.00">de.tu_clausthal.in.bachelorproject2018.poker.game.hubs.</text>
<text text-anchor="middle" x="489.5" y="-305.271" font-family="Helvetica,sans-Serif" font-size="9.00">GameHub.updatePlayerlist</text>
</a>
</g>
</g>
<!-- Node31&#45;&gt;Node34 -->
<g id="edge3" class="edge"><title>Node31&#45;&gt;Node34</title>
<path fill="none" stroke="midnightblue" d="M258.393,-344.048C299.662,-338.385 346.122,-332.009 386.434,-326.477"/>
<polygon fill="midnightblue" stroke="midnightblue" points="257.729,-340.606 248.297,-345.433 258.68,-347.541 257.729,-340.606"/>
</g>
<!-- Node35 -->
<g id="node5" class="node"><title>Node35</title>
<g id="a_node5"><a xlink:href="../../da/d48/classde_1_1tu__clausthal_1_1in_1_1bachelorproject2018_1_1poker_1_1game_1_1hubs_1_1GameHub.htm#a2f65b057de245146843c2f5c3bbe30f1" target="_top" xlink:title="getter for the playerlist ">
<polygon fill="none" stroke="black" points="689,-298.471 689,-326.471 978,-326.471 978,-298.471 689,-298.471"/>
<text text-anchor="start" x="697" y="-315.271" font-family="Helvetica,sans-Serif" font-size="9.00">de.tu_clausthal.in.bachelorproject2018.poker.game.hubs.</text>
<text text-anchor="middle" x="833.5" y="-305.271" font-family="Helvetica,sans-Serif" font-size="9.00">GameHub.getPlayerList</text>
</a>
</g>
</g>
<!-- Node34&#45;&gt;Node35 -->
<g id="edge4" class="edge"><title>Node34&#45;&gt;Node35</title>
<path fill="none" stroke="midnightblue" d="M644.271,-312.471C659.079,-312.471 674.061,-312.471 688.767,-312.471"/>
<polygon fill="midnightblue" stroke="midnightblue" points="644.052,-308.971 634.052,-312.471 644.052,-315.971 644.052,-308.971"/>
</g>
<!-- Node36 -->
<g id="node6" class="node"><title>Node36</title>
<g id="a_node6"><a xlink:href="../../d8/d84/classde_1_1tu__clausthal_1_1in_1_1bachelorproject2018_1_1poker_1_1game_1_1round_1_1CBetRound.htm#a15f799e13defeab9ebedbb01cf77ebd4" target="_top" xlink:title="Accept wird nach der Aktion des Spielers ausgeführt Falls nötig werden hier neue BetRound&#45;Objekte erz...">
<polygon fill="none" stroke="black" points="1339,-469.471 1339,-497.471 1632,-497.471 1632,-469.471 1339,-469.471"/>
<text text-anchor="start" x="1347" y="-486.271" font-family="Helvetica,sans-Serif" font-size="9.00">de.tu_clausthal.in.bachelorproject2018.poker.game.round.</text>
<text text-anchor="middle" x="1485.5" y="-476.271" font-family="Helvetica,sans-Serif" font-size="9.00">CBetRound.accept</text>
</a>
</g>
</g>
<!-- Node35&#45;&gt;Node36 -->
<g id="edge5" class="edge"><title>Node35&#45;&gt;Node36</title>
<path fill="none" stroke="midnightblue" d="M849.572,-335.064C876.927,-373.775 938.924,-451.505 1014,-481.471 1150.37,-535.901 1327.2,-514.881 1420.44,-497.531"/>
<polygon fill="midnightblue" stroke="midnightblue" points="852.245,-332.776 843.672,-326.551 846.491,-336.763 852.245,-332.776"/>
</g>
<!-- Node37 -->
<g id="node7" class="node"><title>Node37</title>
<g id="a_node7"><a xlink:href="../../d3/d48/classde_1_1tu__clausthal_1_1in_1_1bachelorproject2018_1_1poker_1_1game_1_1round_1_1CPreFlop.htm#a29d161fc537ba98819b2a6ea3acc9894" target="_top" xlink:title="resetet alle wichtigen Methoden im CardDealer und ChipsHandler forciert Blinds der Spieler Teilt Kart...">
<polygon fill="none" stroke="black" points="1668,-296.471 1668,-324.471 1961,-324.471 1961,-296.471 1668,-296.471"/>
<text text-anchor="start" x="1676" y="-313.271" font-family="Helvetica,sans-Serif" font-size="9.00">de.tu_clausthal.in.bachelorproject2018.poker.game.round.</text>
<text text-anchor="middle" x="1814.5" y="-303.271" font-family="Helvetica,sans-Serif" font-size="9.00">CPreFlop.apply</text>
</a>
</g>
</g>
<!-- Node35&#45;&gt;Node37 -->
<g id="edge6" class="edge"><title>Node35&#45;&gt;Node37</title>
<path fill="none" stroke="midnightblue" d="M988.793,-298.469C1149.55,-285.983 1408.65,-271.768 1632,-286.471 1662.45,-288.475 1695.58,-292.352 1725.11,-296.414"/>
<polygon fill="midnightblue" stroke="midnightblue" points="988.044,-295.016 978.348,-299.288 988.592,-301.995 988.044,-295.016"/>
</g>
<!-- Node38 -->
<g id="node8" class="node"><title>Node38</title>
<g id="a_node8"><a xlink:href="../../dd/ded/classde_1_1tu__clausthal_1_1in_1_1bachelorproject2018_1_1poker_1_1game_1_1round_1_1CWinEvaluation.htm#a258d61fbe6f67033165ecce526239cf0" target="_top" xlink:title="erstellt eine HandStatisticList Erstellt für jeden Spieler, der noch im Spiel ist, eine Handstatistic Ruft das Enum Wincheck für jede Handstatistsic auf Vergleicht die Handstatistiken, und erklärt die Sieger Teilt die Chips an die Gewinner auf ">
<polygon fill="none" stroke="black" points="1339,-351.471 1339,-379.471 1632,-379.471 1632,-351.471 1339,-351.471"/>
<text text-anchor="start" x="1347" y="-368.271" font-family="Helvetica,sans-Serif" font-size="9.00">de.tu_clausthal.in.bachelorproject2018.poker.game.round.</text>
<text text-anchor="middle" x="1485.5" y="-358.271" font-family="Helvetica,sans-Serif" font-size="9.00">CWinEvaluation.apply</text>
</a>
</g>
</g>
<!-- Node35&#45;&gt;Node38 -->
<g id="edge7" class="edge"><title>Node35&#45;&gt;Node38</title>
<path fill="none" stroke="midnightblue" d="M888.215,-329.361C923.559,-339.62 971.057,-351.799 1014,-357.471 1122.23,-371.765 1245.66,-373.317 1338.94,-371.534"/>
<polygon fill="midnightblue" stroke="midnightblue" points="889.164,-325.992 878.582,-326.525 887.187,-332.707 889.164,-325.992"/>
</g>
<!-- Node39 -->
<g id="node9" class="node"><title>Node39</title>
<g id="a_node9"><a xlink:href="../../d8/d84/classde_1_1tu__clausthal_1_1in_1_1bachelorproject2018_1_1poker_1_1game_1_1round_1_1CBetRound.htm#a2f9ecbf9150794faa9af2760afbd96bd" target="_top" xlink:title="wird vor der Aktion des Spielers ausgeführt entscheidet, ob der Spieler überhaupt eine Aktion ausführ...">
<polygon fill="none" stroke="black" points="1339,-405.471 1339,-433.471 1632,-433.471 1632,-405.471 1339,-405.471"/>
<text text-anchor="start" x="1347" y="-422.271" font-family="Helvetica,sans-Serif" font-size="9.00">de.tu_clausthal.in.bachelorproject2018.poker.game.round.</text>
<text text-anchor="middle" x="1485.5" y="-412.271" font-family="Helvetica,sans-Serif" font-size="9.00">CBetRound.apply</text>
</a>
</g>
</g>
<!-- Node35&#45;&gt;Node39 -->
<g id="edge8" class="edge"><title>Node35&#45;&gt;Node39</title>
<path fill="none" stroke="midnightblue" d="M874.102,-330.831C909.852,-346.531 964.311,-368.306 1014,-379.471 1121.18,-403.554 1245.07,-413.385 1338.8,-417.285"/>
<polygon fill="midnightblue" stroke="midnightblue" points="875.094,-327.441 864.534,-326.577 872.25,-333.838 875.094,-327.441"/>
</g>
<!-- Node40 -->
<g id="node10" class="node"><title>Node40</title>
<g id="a_node10"><a xlink:href="../../d3/dc7/enumde_1_1tu__clausthal_1_1in_1_1bachelorproject2018_1_1poker_1_1game_1_1round_1_1ERound.htm#aaf9a5e22dad6f81c01b993edf3bc5bce" target="_top" xlink:title="factory round objects ">
<polygon fill="none" stroke="black" points="1339,-196.471 1339,-224.471 1632,-224.471 1632,-196.471 1339,-196.471"/>
<text text-anchor="start" x="1347" y="-213.271" font-family="Helvetica,sans-Serif" font-size="9.00">de.tu_clausthal.in.bachelorproject2018.poker.game.round.</text>
<text text-anchor="middle" x="1485.5" y="-203.271" font-family="Helvetica,sans-Serif" font-size="9.00">ERound.factory</text>
</a>
</g>
</g>
<!-- Node35&#45;&gt;Node40 -->
<g id="edge9" class="edge"><title>Node35&#45;&gt;Node40</title>
<path fill="none" stroke="midnightblue" d="M870.255,-293.873C905.696,-276.425 962.058,-251.3 1014,-239.471 1121.03,-215.098 1245.06,-208.304 1338.89,-207.359"/>
<polygon fill="midnightblue" stroke="midnightblue" points="868.661,-290.757 861.273,-298.351 871.784,-297.021 868.661,-290.757"/>
</g>
<!-- Node46 -->
<g id="node16" class="node"><title>Node46</title>
<g id="a_node16"><a xlink:href="../../dd/dfe/classde_1_1tu__clausthal_1_1in_1_1bachelorproject2018_1_1poker_1_1game_1_1hubs_1_1ChipsHandling.htm#ad85caa6bd2889e2b060b78139daba9e5" target="_top" xlink:title="force bet the blinds of the player with the relevant indexes update the highestBidThisRound to the bi...">
<polygon fill="none" stroke="black" points="1014,-530.471 1014,-558.471 1303,-558.471 1303,-530.471 1014,-530.471"/>
<text text-anchor="start" x="1022" y="-547.271" font-family="Helvetica,sans-Serif" font-size="9.00">de.tu_clausthal.in.bachelorproject2018.poker.game.hubs.</text>
<text text-anchor="middle" x="1158.5" y="-537.271" font-family="Helvetica,sans-Serif" font-size="9.00">ChipsHandling.forceBlinds</text>
</a>
</g>
</g>
<!-- Node35&#45;&gt;Node46 -->
<g id="edge17" class="edge"><title>Node35&#45;&gt;Node46</title>
<path fill="none" stroke="midnightblue" d="M847.695,-335.431C873.62,-378.297 935.57,-470.244 1014,-515.471 1024.79,-521.693 1036.71,-526.595 1048.92,-530.455"/>
<polygon fill="midnightblue" stroke="midnightblue" points="850.557,-333.397 842.439,-326.589 844.54,-336.973 850.557,-333.397"/>
</g>
<!-- Node47 -->
<g id="node17" class="node"><title>Node47</title>
<g id="a_node17"><a xlink:href="../../dd/dfe/classde_1_1tu__clausthal_1_1in_1_1bachelorproject2018_1_1poker_1_1game_1_1hubs_1_1ChipsHandling.htm#a9ae90b277f875f8e03844dc16e2b99a3" target="_top" xlink:title="check who starts the round should be the player next to bigBlind, but if bigBlind is highest index of...">
<polygon fill="none" stroke="black" points="1014,-158.471 1014,-186.471 1303,-186.471 1303,-158.471 1014,-158.471"/>
<text text-anchor="start" x="1022" y="-175.271" font-family="Helvetica,sans-Serif" font-size="9.00">de.tu_clausthal.in.bachelorproject2018.poker.game.hubs.</text>
<text text-anchor="middle" x="1158.5" y="-165.271" font-family="Helvetica,sans-Serif" font-size="9.00">ChipsHandling.getRoundStarter</text>
</a>
</g>
</g>
<!-- Node35&#45;&gt;Node47 -->
<g id="edge19" class="edge"><title>Node35&#45;&gt;Node47</title>
<path fill="none" stroke="midnightblue" d="M860.796,-292C894.427,-266.847 955.355,-224.665 1014,-201.471 1029.6,-195.302 1046.69,-190.386 1063.47,-186.487"/>
<polygon fill="midnightblue" stroke="midnightblue" points="858.319,-289.485 852.456,-298.309 862.542,-295.068 858.319,-289.485"/>
</g>
<!-- Node48 -->
<g id="node18" class="node"><title>Node48</title>
<g id="a_node18"><a xlink:href="../../dd/dfe/classde_1_1tu__clausthal_1_1in_1_1bachelorproject2018_1_1poker_1_1game_1_1hubs_1_1ChipsHandling.htm#afbb80dc416439585aa915d36bd398ecb" target="_top" xlink:title="go clockwise through the playerlist, to check who has to pay blinds if any index is at the last index...">
<polygon fill="none" stroke="black" points="1014,-320.471 1014,-348.471 1303,-348.471 1303,-320.471 1014,-320.471"/>
<text text-anchor="start" x="1022" y="-337.271" font-family="Helvetica,sans-Serif" font-size="9.00">de.tu_clausthal.in.bachelorproject2018.poker.game.hubs.</text>
<text text-anchor="middle" x="1158.5" y="-327.271" font-family="Helvetica,sans-Serif" font-size="9.00">ChipsHandling.nextBlind</text>
</a>
</g>
</g>
<!-- Node35&#45;&gt;Node48 -->
<g id="edge21" class="edge"><title>Node35&#45;&gt;Node48</title>
<path fill="none" stroke="midnightblue" d="M988.101,-322.933C996.677,-323.517 1005.28,-324.103 1013.82,-324.685"/>
<polygon fill="midnightblue" stroke="midnightblue" points="988.268,-319.436 978.054,-322.249 987.793,-326.42 988.268,-319.436"/>
</g>
<!-- Node49 -->
<g id="node19" class="node"><title>Node49</title>
<g id="a_node19"><a xlink:href="../../dd/dfe/classde_1_1tu__clausthal_1_1in_1_1bachelorproject2018_1_1poker_1_1game_1_1hubs_1_1ChipsHandling.htm#a68b44f9585047233bac35a0769518577" target="_top" xlink:title="reset everything after a fully played hand resets the same variables as resetRound but furthermore re...">
<polygon fill="none" stroke="black" points="1341,-296.471 1341,-324.471 1630,-324.471 1630,-296.471 1341,-296.471"/>
<text text-anchor="start" x="1349" y="-313.271" font-family="Helvetica,sans-Serif" font-size="9.00">de.tu_clausthal.in.bachelorproject2018.poker.game.hubs.</text>
<text text-anchor="middle" x="1485.5" y="-303.271" font-family="Helvetica,sans-Serif" font-size="9.00">ChipsHandling.resetHand</text>
</a>
</g>
</g>
<!-- Node35&#45;&gt;Node49 -->
<g id="edge25" class="edge"><title>Node35&#45;&gt;Node49</title>
<path fill="none" stroke="midnightblue" d="M988.277,-310.645C996.979,-310.577 1005.6,-310.518 1014,-310.471 1123.66,-309.86 1247.7,-309.89 1340.88,-310.057"/>
<polygon fill="midnightblue" stroke="midnightblue" points="988.003,-307.147 978.032,-310.73 988.061,-314.147 988.003,-307.147"/>
</g>
<!-- Node50 -->
<g id="node20" class="node"><title>Node50</title>
<g id="a_node20"><a xlink:href="../../dd/dfe/classde_1_1tu__clausthal_1_1in_1_1bachelorproject2018_1_1poker_1_1game_1_1hubs_1_1ChipsHandling.htm#a4c42382dfd056b966cbf8507955a447f" target="_top" xlink:title="reset after every betting round resets all nessessary variables to the needed default values ...">
<polygon fill="none" stroke="black" points="1014,-107.471 1014,-135.471 1303,-135.471 1303,-107.471 1014,-107.471"/>
<text text-anchor="start" x="1022" y="-124.271" font-family="Helvetica,sans-Serif" font-size="9.00">de.tu_clausthal.in.bachelorproject2018.poker.game.hubs.</text>
<text text-anchor="middle" x="1158.5" y="-114.271" font-family="Helvetica,sans-Serif" font-size="9.00">ChipsHandling.resetRound</text>
</a>
</g>
</g>
<!-- Node35&#45;&gt;Node50 -->
<g id="edge26" class="edge"><title>Node35&#45;&gt;Node50</title>
<path fill="none" stroke="midnightblue" d="M851.629,-290.306C880.774,-254.291 943.727,-183.563 1014,-148.471 1024.55,-143.205 1036,-138.961 1047.67,-135.541"/>
<polygon fill="midnightblue" stroke="midnightblue" points="848.782,-288.262 845.285,-298.263 854.256,-292.626 848.782,-288.262"/>
</g>
<!-- Node54 -->
<g id="node24" class="node"><title>Node54</title>
<g id="a_node24"><a xlink:href="../../da/d48/classde_1_1tu__clausthal_1_1in_1_1bachelorproject2018_1_1poker_1_1game_1_1hubs_1_1GameHub.htm#aaaa52a4f851684df6aa7a4faed55c722" target="_top" xlink:title="start the game with initializing the deck and adding the start getAmountBetThisRound of chips to each...">
<polygon fill="none" stroke="black" points="1670,-24.4711 1670,-52.4711 1959,-52.4711 1959,-24.4711 1670,-24.4711"/>
<text text-anchor="start" x="1678" y="-41.2711" font-family="Helvetica,sans-Serif" font-size="9.00">de.tu_clausthal.in.bachelorproject2018.poker.game.hubs.</text>
<text text-anchor="middle" x="1814.5" y="-31.2711" font-family="Helvetica,sans-Serif" font-size="9.00">GameHub.startGame</text>
</a>
</g>
</g>
<!-- Node35&#45;&gt;Node54 -->
<g id="edge30" class="edge"><title>Node35&#45;&gt;Node54</title>
<path fill="none" stroke="midnightblue" d="M846.285,-289.449C870.747,-244.253 931.69,-144.26 1014,-97.4711 1251.15,37.3391 1593.82,0.305907 1741.41,-24.4588"/>
<polygon fill="midnightblue" stroke="midnightblue" points="843.094,-287.996 841.496,-298.47 849.276,-291.279 843.094,-287.996"/>
</g>
<!-- Node55 -->
<g id="node25" class="node"><title>Node55</title>
<g id="a_node25"><a xlink:href="../../dd/dfe/classde_1_1tu__clausthal_1_1in_1_1bachelorproject2018_1_1poker_1_1game_1_1hubs_1_1ChipsHandling.htm#a5b94b453988143f94f75fe786beb1bc8" target="_top" xlink:title="update who to Ask, return player next in line ">
<polygon fill="none" stroke="black" points="1014,-444.471 1014,-472.471 1303,-472.471 1303,-444.471 1014,-444.471"/>
<text text-anchor="start" x="1022" y="-461.271" font-family="Helvetica,sans-Serif" font-size="9.00">de.tu_clausthal.in.bachelorproject2018.poker.game.hubs.</text>
<text text-anchor="middle" x="1158.5" y="-451.271" font-family="Helvetica,sans-Serif" font-size="9.00">ChipsHandling.updateWhoToAsk</text>
</a>
</g>
</g>
<!-- Node35&#45;&gt;Node55 -->
<g id="edge32" class="edge"><title>Node35&#45;&gt;Node55</title>
<path fill="none" stroke="midnightblue" d="M859.38,-333.14C892.536,-359.59 954.018,-404.918 1014,-429.471 1029.05,-435.633 1045.55,-440.527 1061.83,-444.401"/>
<polygon fill="midnightblue" stroke="midnightblue" points="861.56,-330.401 851.579,-326.846 857.164,-335.849 861.56,-330.401"/>
</g>
<!-- Node41 -->
<g id="node11" class="node"><title>Node41</title>
<g id="a_node11"><a xlink:href="../../d2/dd9/classde_1_1tu__clausthal_1_1in_1_1bachelorproject2018_1_1poker_1_1game_1_1table_1_1CTable.htm#ad0183995fab983da1c6c6609c0b32b5e" target="_top" xlink:title="Methode um eine neue Runde zu bauen. ">
<polygon fill="none" stroke="black" points="1669.5,-128.471 1669.5,-156.471 1959.5,-156.471 1959.5,-128.471 1669.5,-128.471"/>
<text text-anchor="start" x="1677.5" y="-145.271" font-family="Helvetica,sans-Serif" font-size="9.00">de.tu_clausthal.in.bachelorproject2018.poker.game.table.</text>
<text text-anchor="middle" x="1814.5" y="-135.271" font-family="Helvetica,sans-Serif" font-size="9.00">CTable.generateround</text>
</a>
</g>
</g>
<!-- Node40&#45;&gt;Node41 -->
<g id="edge10" class="edge"><title>Node40&#45;&gt;Node41</title>
<path fill="none" stroke="midnightblue" d="M1588.07,-194.711C1602.84,-192.131 1617.83,-189.353 1632,-186.471 1675.37,-177.65 1724.09,-165.726 1760.13,-156.517"/>
<polygon fill="midnightblue" stroke="midnightblue" points="1587.15,-191.317 1577.89,-196.464 1588.34,-198.215 1587.15,-191.317"/>
</g>
<!-- Node42 -->
<g id="node12" class="node"><title>Node42</title>
<g id="a_node12"><a xlink:href="../../d2/dd9/classde_1_1tu__clausthal_1_1in_1_1bachelorproject2018_1_1poker_1_1game_1_1table_1_1CTable.htm#ac4262ba4e9012a8d37c195f2bedeb6f5" target="_top" xlink:title="Methode, die nach jeder Ausführung einer Round&#45;Action durchlaufen wird, um das Spiel ggf fortzusetzen...">
<polygon fill="none" stroke="black" points="1997,-107.471 1997,-135.471 2287,-135.471 2287,-107.471 1997,-107.471"/>
<text text-anchor="start" x="2005" y="-124.271" font-family="Helvetica,sans-Serif" font-size="9.00">de.tu_clausthal.in.bachelorproject2018.poker.game.table.</text>
<text text-anchor="middle" x="2142" y="-114.271" font-family="Helvetica,sans-Serif" font-size="9.00">CTable.postaction</text>
</a>
</g>
</g>
<!-- Node41&#45;&gt;Node42 -->
<g id="edge11" class="edge"><title>Node41&#45;&gt;Node42</title>
<path fill="none" stroke="midnightblue" d="M1969.83,-132.514C1978.83,-131.934 1987.86,-131.351 1996.82,-130.773"/>
<polygon fill="midnightblue" stroke="midnightblue" points="1969.44,-129.032 1959.69,-133.168 1969.9,-136.017 1969.44,-129.032"/>
</g>
<!-- Node45 -->
<g id="node15" class="node"><title>Node45</title>
<g id="a_node15"><a xlink:href="../../d2/dd9/classde_1_1tu__clausthal_1_1in_1_1bachelorproject2018_1_1poker_1_1game_1_1table_1_1CTable.htm#a44356981334e62a09768618f0743d1b5" target="_top" xlink:title="startet das Spiel ">
<polygon fill="none" stroke="black" points="1997,-36.4711 1997,-64.4711 2287,-64.4711 2287,-36.4711 1997,-36.4711"/>
<text text-anchor="start" x="2005" y="-53.2711" font-family="Helvetica,sans-Serif" font-size="9.00">de.tu_clausthal.in.bachelorproject2018.poker.game.table.</text>
<text text-anchor="middle" x="2142" y="-43.2711" font-family="Helvetica,sans-Serif" font-size="9.00">CTable.start</text>
</a>
</g>
</g>
<!-- Node41&#45;&gt;Node45 -->
<g id="edge16" class="edge"><title>Node41&#45;&gt;Node45</title>
<path fill="none" stroke="midnightblue" d="M1874.94,-125.671C1936.95,-108.145 2033.07,-80.978 2091.21,-64.5425"/>
<polygon fill="midnightblue" stroke="midnightblue" points="1873.96,-122.31 1865.29,-128.398 1875.87,-129.046 1873.96,-122.31"/>
</g>
<!-- Node43 -->
<g id="node13" class="node"><title>Node43</title>
<g id="a_node13"><a xlink:href="../../d2/dd9/classde_1_1tu__clausthal_1_1in_1_1bachelorproject2018_1_1poker_1_1game_1_1table_1_1CTable.htm#a763745ff3fa160c02f05117b84b092d4" target="_top" xlink:title="führe ein Element aus der ">
<polygon fill="none" stroke="black" points="2323,-82.4711 2323,-110.471 2613,-110.471 2613,-82.4711 2323,-82.4711"/>
<text text-anchor="start" x="2331" y="-99.2711" font-family="Helvetica,sans-Serif" font-size="9.00">de.tu_clausthal.in.bachelorproject2018.poker.game.table.</text>
<text text-anchor="middle" x="2468" y="-89.2711" font-family="Helvetica,sans-Serif" font-size="9.00">CTable.accept</text>
</a>
</g>
</g>
<!-- Node42&#45;&gt;Node43 -->
<g id="edge12" class="edge"><title>Node42&#45;&gt;Node43</title>
<path fill="none" stroke="midnightblue" d="M2297.67,-109.537C2306.04,-108.891 2314.44,-108.243 2322.78,-107.599"/>
<polygon fill="midnightblue" stroke="midnightblue" points="2297.17,-106.065 2287.47,-110.324 2297.71,-113.044 2297.17,-106.065"/>
</g>
<!-- Node44 -->
<g id="node14" class="node"><title>Node44</title>
<g id="a_node14"><a xlink:href="../../d2/dd9/classde_1_1tu__clausthal_1_1in_1_1bachelorproject2018_1_1poker_1_1game_1_1table_1_1CTable.htm#ac36fc046548fc6b47ee44cecbfd158db" target="_top" xlink:title="führt immer einen Schritt des Spiels aus ">
<polygon fill="none" stroke="black" points="2323,-129.471 2323,-157.471 2613,-157.471 2613,-129.471 2323,-129.471"/>
<text text-anchor="start" x="2331" y="-146.271" font-family="Helvetica,sans-Serif" font-size="9.00">de.tu_clausthal.in.bachelorproject2018.poker.game.table.</text>
<text text-anchor="middle" x="2468" y="-136.271" font-family="Helvetica,sans-Serif" font-size="9.00">CTable.executestep</text>
</a>
</g>
</g>
<!-- Node42&#45;&gt;Node44 -->
<g id="edge13" class="edge"><title>Node42&#45;&gt;Node44</title>
<path fill="none" stroke="midnightblue" d="M2297.64,-125.228C2317.12,-126.518 2336.75,-127.948 2355.39,-129.441"/>
<polygon fill="midnightblue" stroke="midnightblue" points="2297.68,-121.723 2287.47,-124.566 2297.22,-128.708 2297.68,-121.723"/>
</g>
<!-- Node44&#45;&gt;Node41 -->
<g id="edge14" class="edge"><title>Node44&#45;&gt;Node41</title>
<path fill="none" stroke="midnightblue" d="M2312.44,-144.385C2303.84,-144.419 2295.31,-144.448 2287,-144.471 2158.11,-144.829 2125.89,-145.181 1997,-144.471 1984.87,-144.404 1972.28,-144.312 1959.65,-144.204"/>
<polygon fill="midnightblue" stroke="midnightblue" points="2312.59,-147.885 2322.58,-144.344 2312.56,-140.885 2312.59,-147.885"/>
</g>
<!-- Node44&#45;&gt;Node42 -->
<g id="edge15" class="edge"><title>Node44&#45;&gt;Node42</title>
<path fill="none" stroke="midnightblue" d="M2312.98,-139.756C2293.26,-138.453 2273.37,-137.005 2254.5,-135.492"/>
<polygon fill="midnightblue" stroke="midnightblue" points="2312.76,-143.249 2322.96,-140.404 2313.21,-136.263 2312.76,-143.249"/>
</g>
<!-- Node46&#45;&gt;Node37 -->
<g id="edge18" class="edge"><title>Node46&#45;&gt;Node37</title>
<path fill="none" stroke="midnightblue" d="M1295.62,-558.989C1393.91,-563.581 1527.24,-557.339 1632,-506.471 1718.36,-464.54 1783.73,-362.27 1805.59,-324.656"/>
<polygon fill="midnightblue" stroke="midnightblue" points="1295.78,-555.493 1285.61,-558.479 1295.42,-562.484 1295.78,-555.493"/>
</g>
<!-- Node47&#45;&gt;Node40 -->
<g id="edge20" class="edge"><title>Node47&#45;&gt;Node40</title>
<path fill="none" stroke="midnightblue" d="M1289.75,-187.7C1314.48,-190.591 1340.24,-193.604 1364.63,-196.455"/>
<polygon fill="midnightblue" stroke="midnightblue" points="1289.93,-184.198 1279.59,-186.513 1289.12,-191.151 1289.93,-184.198"/>
</g>
<!-- Node48&#45;&gt;Node38 -->
<g id="edge22" class="edge"><title>Node48&#45;&gt;Node38</title>
<path fill="none" stroke="midnightblue" d="M1313.66,-349.175C1322.02,-349.973 1330.42,-350.774 1338.76,-351.57"/>
<polygon fill="midnightblue" stroke="midnightblue" points="1313.76,-345.669 1303.47,-348.204 1313.09,-352.637 1313.76,-345.669"/>
</g>
<!-- Node48&#45;&gt;Node49 -->
<g id="edge23" class="edge"><title>Node48&#45;&gt;Node49</title>
<path fill="none" stroke="midnightblue" d="M1313.66,-323.087C1322.71,-322.419 1331.79,-321.748 1340.8,-321.083"/>
<polygon fill="midnightblue" stroke="midnightblue" points="1313.18,-319.612 1303.47,-323.84 1313.7,-326.593 1313.18,-319.612"/>
</g>
<!-- Node49&#45;&gt;Node37 -->
<g id="edge24" class="edge"><title>Node49&#45;&gt;Node37</title>
<path fill="none" stroke="midnightblue" d="M1640.62,-310.471C1649.69,-310.471 1658.8,-310.471 1667.84,-310.471"/>
<polygon fill="midnightblue" stroke="midnightblue" points="1640.4,-306.971 1630.4,-310.471 1640.4,-313.971 1640.4,-306.971"/>
</g>
<!-- Node51 -->
<g id="node21" class="node"><title>Node51</title>
<g id="a_node21"><a xlink:href="../../d8/d6c/classde_1_1tu__clausthal_1_1in_1_1bachelorproject2018_1_1poker_1_1game_1_1round_1_1CTurn.htm#aa997ce946e5b26eb305e47ce7ae1dd81" target="_top" xlink:title="Legt eine Karte vom Deck auf den Tisch. ">
<polygon fill="none" stroke="black" points="1339,-55.4711 1339,-83.4711 1632,-83.4711 1632,-55.4711 1339,-55.4711"/>
<text text-anchor="start" x="1347" y="-72.2711" font-family="Helvetica,sans-Serif" font-size="9.00">de.tu_clausthal.in.bachelorproject2018.poker.game.round.</text>
<text text-anchor="middle" x="1485.5" y="-62.2711" font-family="Helvetica,sans-Serif" font-size="9.00">CTurn.apply</text>
</a>
</g>
</g>
<!-- Node50&#45;&gt;Node51 -->
<g id="edge27" class="edge"><title>Node50&#45;&gt;Node51</title>
<path fill="none" stroke="midnightblue" d="M1256.36,-105.76C1283.13,-101.435 1312.19,-96.756 1339,-92.4711 1357.31,-89.545 1376.92,-86.4316 1395.62,-83.4716"/>
<polygon fill="midnightblue" stroke="midnightblue" points="1255.54,-102.348 1246.23,-107.399 1256.66,-109.258 1255.54,-102.348"/>
</g>
<!-- Node52 -->
<g id="node22" class="node"><title>Node52</title>
<g id="a_node22"><a xlink:href="../../d9/d71/classde_1_1tu__clausthal_1_1in_1_1bachelorproject2018_1_1poker_1_1game_1_1round_1_1CRiver.htm#a639b79e14972b10284e0dfd816f8a5d1" target="_top" xlink:title="Legt eine Karte vom Deck auf den Tisch. ">
<polygon fill="none" stroke="black" points="1339,-149.471 1339,-177.471 1632,-177.471 1632,-149.471 1339,-149.471"/>
<text text-anchor="start" x="1347" y="-166.271" font-family="Helvetica,sans-Serif" font-size="9.00">de.tu_clausthal.in.bachelorproject2018.poker.game.round.</text>
<text text-anchor="middle" x="1485.5" y="-156.271" font-family="Helvetica,sans-Serif" font-size="9.00">CRiver.apply</text>
</a>
</g>
</g>
<!-- Node50&#45;&gt;Node52 -->
<g id="edge28" class="edge"><title>Node50&#45;&gt;Node52</title>
<path fill="none" stroke="midnightblue" d="M1278.43,-136.841C1310.33,-140.962 1344.63,-145.396 1375.93,-149.441"/>
<polygon fill="midnightblue" stroke="midnightblue" points="1278.54,-133.325 1268.17,-135.515 1277.64,-140.268 1278.54,-133.325"/>
</g>
<!-- Node53 -->
<g id="node23" class="node"><title>Node53</title>
<g id="a_node23"><a xlink:href="../../d0/da9/classde_1_1tu__clausthal_1_1in_1_1bachelorproject2018_1_1poker_1_1game_1_1round_1_1CFlop.htm#a09a8d1a76054acdf7d4fe631f850076e" target="_top" xlink:title="legt 3 Karten vom Deck auf den Tisch ">
<polygon fill="none" stroke="black" points="1339,-102.471 1339,-130.471 1632,-130.471 1632,-102.471 1339,-102.471"/>
<text text-anchor="start" x="1347" y="-119.271" font-family="Helvetica,sans-Serif" font-size="9.00">de.tu_clausthal.in.bachelorproject2018.poker.game.round.</text>
<text text-anchor="middle" x="1485.5" y="-109.271" font-family="Helvetica,sans-Serif" font-size="9.00">CFlop.apply</text>
</a>
</g>
</g>
<!-- Node50&#45;&gt;Node53 -->
<g id="edge29" class="edge"><title>Node50&#45;&gt;Node53</title>
<path fill="none" stroke="midnightblue" d="M1313.66,-119.099C1322.02,-118.971 1330.42,-118.842 1338.76,-118.713"/>
<polygon fill="midnightblue" stroke="midnightblue" points="1313.41,-115.603 1303.47,-119.256 1313.52,-122.602 1313.41,-115.603"/>
</g>
<!-- Node54&#45;&gt;Node45 -->
<g id="edge31" class="edge"><title>Node54&#45;&gt;Node45</title>
<path fill="none" stroke="midnightblue" d="M1969.22,-44.1381C1978.45,-44.4786 1987.73,-44.8206 1996.92,-45.1596"/>
<polygon fill="midnightblue" stroke="midnightblue" points="1969.34,-40.6403 1959.22,-43.7694 1969.08,-47.6355 1969.34,-40.6403"/>
</g>
<!-- Node55&#45;&gt;Node36 -->
<g id="edge33" class="edge"><title>Node55&#45;&gt;Node36</title>
<path fill="none" stroke="midnightblue" d="M1313.66,-470.329C1322.02,-470.973 1330.42,-471.619 1338.76,-472.26"/>
<polygon fill="midnightblue" stroke="midnightblue" points="1313.71,-466.823 1303.47,-469.546 1313.17,-473.802 1313.71,-466.823"/>
</g>
<!-- Node55&#45;&gt;Node39 -->
<g id="edge34" class="edge"><title>Node55&#45;&gt;Node39</title>
<path fill="none" stroke="midnightblue" d="M1286.53,-443.227C1313.23,-440.024 1341.27,-436.659 1367.57,-433.502"/>
<polygon fill="midnightblue" stroke="midnightblue" points="1285.89,-439.78 1276.37,-444.446 1286.72,-446.73 1285.89,-439.78"/>
</g>
</g>
</svg>
