<?xml version="1.0" encoding="UTF-8" standalone="no"?>
<!DOCTYPE svg PUBLIC "-//W3C//DTD SVG 1.1//EN"
 "http://www.w3.org/Graphics/SVG/1.1/DTD/svg11.dtd">
<!-- Generated by graphviz version 2.38.0 (20140413.2041)
 -->
<!-- Title: de.tu_clausthal.in.bachelorproject2018.poker.game.table.ITable.name Pages: 1 -->
<!--zoomable 687 -->
<svg id="main" version="1.1" xmlns="http://www.w3.org/2000/svg" xmlns:xlink="http://www.w3.org/1999/xlink" xml:space="preserve" onload="init(evt)">
<style type="text/css"><![CDATA[
.edge:hover path { stroke: red; }
.edge:hover polygon { stroke: red; fill: red; }
]]></style>
<script type="text/javascript"><![CDATA[
var edges = document.getElementsByTagName('g');
if (edges && edges.length) {
  for (var i=0;i<edges.length;i++) {
    if (edges[i].id.substr(0,4)=='edge') {
      edges[i].setAttribute('class','edge');
    }
  }
}
]]></script>
        <defs>
                <circle id="rim" cx="0" cy="0" r="7"/>
                <circle id="rim2" cx="0" cy="0" r="3.5"/>
                <g id="zoomPlus">
                        <use xlink:href="#rim" fill="#404040">
                                <set attributeName="fill" to="#808080" begin="zoomplus.mouseover" end="zoomplus.mouseout"/>
                        </use>
                        <path d="M-4,0h8M0,-4v8" fill="none" stroke="white" stroke-width="1.5" pointer-events="none"/>
                </g>
                <g id="zoomMin">
                        <use xlink:href="#rim" fill="#404040">
                                <set attributeName="fill" to="#808080" begin="zoomminus.mouseover" end="zoomminus.mouseout"/>
                        </use>
                        <path d="M-4,0h8" fill="none" stroke="white" stroke-width="1.5" pointer-events="none"/>
                </g>
                <g id="dirArrow">
                        <path fill="none" stroke="white" stroke-width="1.5" d="M0,-3.0v7 M-2.5,-0.5L0,-3.0L2.5,-0.5"/>
                </g>
               <g id="resetDef">
                       <use xlink:href="#rim2" fill="#404040">
                               <set attributeName="fill" to="#808080" begin="reset.mouseover" end="reset.mouseout"/>
                       </use>
               </g>
        </defs>

<script type="text/javascript">
var viewWidth = 958;
var viewHeight = 687;
var sectionId = 'dynsection-6';
</script>
<script xlink:href="../../svgpan.js"/>
<svg id="graph" class="graph">
<g id="viewport">
<title>de.tu_clausthal.in.bachelorproject2018.poker.game.table.ITable.name</title>
<!-- Node57 -->
<g id="node1" class="node"><title>Node57</title>
<polygon fill="#bfbfbf" stroke="black" points="0,-325.5 0,-353.5 290,-353.5 290,-325.5 0,-325.5"/>
<text text-anchor="start" x="8" y="-342.3" font-family="Helvetica,sans-Serif" font-size="9.00">de.tu_clausthal.in.bachelorproject2018.poker.game.table.</text>
<text text-anchor="middle" x="145" y="-332.3" font-family="Helvetica,sans-Serif" font-size="9.00">ITable.name</text>
</g>
<!-- Node58 -->
<g id="node2" class="node"><title>Node58</title>
<g id="a_node2"><a xlink:href="../../d4/d31/classde_1_1tu__clausthal_1_1in_1_1bachelorproject2018_1_1poker_1_1game_1_1action_1_1CFold.htm#a605996337fab89e8464330734a435587" target="_top" xlink:title="setzt den Spieler auf fold ">
<polygon fill="none" stroke="black" points="326,-650.5 326,-678.5 621,-678.5 621,-650.5 326,-650.5"/>
<text text-anchor="start" x="334" y="-667.3" font-family="Helvetica,sans-Serif" font-size="9.00">de.tu_clausthal.in.bachelorproject2018.poker.game.action.</text>
<text text-anchor="middle" x="473.5" y="-657.3" font-family="Helvetica,sans-Serif" font-size="9.00">CFold.accept</text>
</a>
</g>
</g>
<!-- Node57&#45;&gt;Node58 -->
<g id="edge1" class="edge"><title>Node57&#45;&gt;Node58</title>
<path fill="none" stroke="midnightblue" d="M152.542,-363.346C169.89,-421.668 222.943,-571.821 326,-641.5 331.012,-644.889 336.339,-647.849 341.879,-650.431"/>
<polygon fill="midnightblue" stroke="midnightblue" points="155.854,-362.199 149.715,-353.564 149.13,-364.143 155.854,-362.199"/>
</g>
<!-- Node59 -->
<g id="node3" class="node"><title>Node59</title>
<g id="a_node3"><a xlink:href="../../dd/d69/classde_1_1tu__clausthal_1_1in_1_1bachelorproject2018_1_1poker_1_1game_1_1action_1_1CCheck.htm#ab5688283d91d32d52dffb8882a5104b9" target="_top" xlink:title="überprüft ob der Spieler checken kann setzt, dass der Spieler gecheckt hat. ">
<polygon fill="none" stroke="black" points="326,-603.5 326,-631.5 621,-631.5 621,-603.5 326,-603.5"/>
<text text-anchor="start" x="334" y="-620.3" font-family="Helvetica,sans-Serif" font-size="9.00">de.tu_clausthal.in.bachelorproject2018.poker.game.action.</text>
<text text-anchor="middle" x="473.5" y="-610.3" font-family="Helvetica,sans-Serif" font-size="9.00">CCheck.accept</text>
</a>
</g>
</g>
<!-- Node57&#45;&gt;Node59 -->
<g id="edge2" class="edge"><title>Node57&#45;&gt;Node59</title>
<path fill="none" stroke="midnightblue" d="M154.955,-362.798C176.043,-414.223 234.086,-537.395 326,-594.5 331.467,-597.897 337.264,-600.849 343.273,-603.412"/>
<polygon fill="midnightblue" stroke="midnightblue" points="158.201,-361.49 151.231,-353.511 151.704,-364.095 158.201,-361.49"/>
</g>
<!-- Node60 -->
<g id="node4" class="node"><title>Node60</title>
<g id="a_node4"><a xlink:href="../../d9/d7a/classde_1_1tu__clausthal_1_1in_1_1bachelorproject2018_1_1poker_1_1game_1_1action_1_1CAllIn.htm#a0ad1e3f093aabaf0593ea4378521ff06" target="_top" xlink:title="setzt den Spieler AllIn setzt die Chips in den Pot checkt außerdem ">
<polygon fill="none" stroke="black" points="326,-556.5 326,-584.5 621,-584.5 621,-556.5 326,-556.5"/>
<text text-anchor="start" x="334" y="-573.3" font-family="Helvetica,sans-Serif" font-size="9.00">de.tu_clausthal.in.bachelorproject2018.poker.game.action.</text>
<text text-anchor="middle" x="473.5" y="-563.3" font-family="Helvetica,sans-Serif" font-size="9.00">CAllIn.accept</text>
</a>
</g>
</g>
<!-- Node57&#45;&gt;Node60 -->
<g id="edge3" class="edge"><title>Node57&#45;&gt;Node60</title>
<path fill="none" stroke="midnightblue" d="M158.39,-362.43C183.529,-406.494 245.081,-502.6 326,-547.5 332.191,-550.935 338.742,-553.898 345.505,-556.45"/>
<polygon fill="midnightblue" stroke="midnightblue" points="161.391,-360.627 153.451,-353.612 155.284,-364.047 161.391,-360.627"/>
</g>
<!-- Node61 -->
<g id="node5" class="node"><title>Node61</title>
<g id="a_node5"><a xlink:href="../../de/dec/classde_1_1tu__clausthal_1_1in_1_1bachelorproject2018_1_1poker_1_1game_1_1action_1_1CCall.htm#a5df0967671f6af0e68de9201882b3c1a" target="_top" xlink:title="Überprüft ob der Spieler callen kann Berechnet den Wert, der fürs Callen benötigt wird Setzt den Wert...">
<polygon fill="none" stroke="black" points="326,-509.5 326,-537.5 621,-537.5 621,-509.5 326,-509.5"/>
<text text-anchor="start" x="334" y="-526.3" font-family="Helvetica,sans-Serif" font-size="9.00">de.tu_clausthal.in.bachelorproject2018.poker.game.action.</text>
<text text-anchor="middle" x="473.5" y="-516.3" font-family="Helvetica,sans-Serif" font-size="9.00">CCall.accept</text>
</a>
</g>
</g>
<!-- Node57&#45;&gt;Node61 -->
<g id="edge4" class="edge"><title>Node57&#45;&gt;Node61</title>
<path fill="none" stroke="midnightblue" d="M163.171,-361.489C192.388,-397.177 255.504,-467.076 326,-500.5 333.328,-503.974 341.071,-506.942 349.015,-509.475"/>
<polygon fill="midnightblue" stroke="midnightblue" points="165.812,-359.189 156.811,-353.602 160.363,-363.583 165.812,-359.189"/>
</g>
<!-- Node62 -->
<g id="node6" class="node"><title>Node62</title>
<g id="a_node6"><a xlink:href="../../d8/d84/classde_1_1tu__clausthal_1_1in_1_1bachelorproject2018_1_1poker_1_1game_1_1round_1_1CBetRound.htm#a15f799e13defeab9ebedbb01cf77ebd4" target="_top" xlink:title="Accept wird nach der Aktion des Spielers ausgeführt Falls nötig werden hier neue BetRound&#45;Objekte erz...">
<polygon fill="none" stroke="black" points="327,-462.5 327,-490.5 620,-490.5 620,-462.5 327,-462.5"/>
<text text-anchor="start" x="335" y="-479.3" font-family="Helvetica,sans-Serif" font-size="9.00">de.tu_clausthal.in.bachelorproject2018.poker.game.round.</text>
<text text-anchor="middle" x="473.5" y="-469.3" font-family="Helvetica,sans-Serif" font-size="9.00">CBetRound.accept</text>
</a>
</g>
</g>
<!-- Node57&#45;&gt;Node62 -->
<g id="edge5" class="edge"><title>Node57&#45;&gt;Node62</title>
<path fill="none" stroke="midnightblue" d="M171.322,-360.343C204.614,-386.562 265.941,-430.883 326,-453.5 335.276,-456.993 345.076,-459.956 355.031,-462.469"/>
<polygon fill="midnightblue" stroke="midnightblue" points="173.09,-357.276 163.09,-353.776 168.725,-362.748 173.09,-357.276"/>
</g>
<!-- Node63 -->
<g id="node7" class="node"><title>Node63</title>
<g id="a_node7"><a xlink:href="../../de/d5d/classde_1_1tu__clausthal_1_1in_1_1bachelorproject2018_1_1poker_1_1game_1_1action_1_1CRaise.htm#aee81ff5815191d70a1e63a5fe7c5c7d1" target="_top" xlink:title="Überprüft ob der Spieler raisen kann Führt den Raise durch. ">
<polygon fill="none" stroke="black" points="326,-415.5 326,-443.5 621,-443.5 621,-415.5 326,-415.5"/>
<text text-anchor="start" x="334" y="-432.3" font-family="Helvetica,sans-Serif" font-size="9.00">de.tu_clausthal.in.bachelorproject2018.poker.game.action.</text>
<text text-anchor="middle" x="473.5" y="-422.3" font-family="Helvetica,sans-Serif" font-size="9.00">CRaise.accept</text>
</a>
</g>
</g>
<!-- Node57&#45;&gt;Node63 -->
<g id="edge6" class="edge"><title>Node57&#45;&gt;Node63</title>
<path fill="none" stroke="midnightblue" d="M187.549,-357.687C223.547,-372.78 277.349,-393.764 326,-406.5 339.076,-409.923 352.95,-412.909 366.745,-415.494"/>
<polygon fill="midnightblue" stroke="midnightblue" points="188.461,-354.272 177.887,-353.598 185.732,-360.718 188.461,-354.272"/>
</g>
<!-- Node64 -->
<g id="node8" class="node"><title>Node64</title>
<g id="a_node8"><a xlink:href="../../da/d96/classde_1_1tu__clausthal_1_1in_1_1bachelorproject2018_1_1poker_1_1game_1_1player_1_1CPlayer.htm#a21fb9fda12cfb95545ab1a88aefab7bf" target="_top" xlink:title="to add chips to the players chipscount ">
<polygon fill="none" stroke="black" points="327,-368.5 327,-396.5 620,-396.5 620,-368.5 327,-368.5"/>
<text text-anchor="start" x="335" y="-385.3" font-family="Helvetica,sans-Serif" font-size="9.00">de.tu_clausthal.in.bachelorproject2018.poker.game.player.</text>
<text text-anchor="middle" x="473.5" y="-375.3" font-family="Helvetica,sans-Serif" font-size="9.00">CPlayer.addChips</text>
</a>
</g>
</g>
<!-- Node57&#45;&gt;Node64 -->
<g id="edge7" class="edge"><title>Node57&#45;&gt;Node64</title>
<path fill="none" stroke="midnightblue" d="M262.386,-354.828C296.226,-359.285 333.001,-364.128 366.188,-368.499"/>
<polygon fill="midnightblue" stroke="midnightblue" points="262.828,-351.356 252.457,-353.52 261.914,-358.296 262.828,-351.356"/>
</g>
<!-- Node65 -->
<g id="node9" class="node"><title>Node65</title>
<g id="a_node9"><a xlink:href="../../d3/d48/classde_1_1tu__clausthal_1_1in_1_1bachelorproject2018_1_1poker_1_1game_1_1round_1_1CPreFlop.htm#a29d161fc537ba98819b2a6ea3acc9894" target="_top" xlink:title="resetet alle wichtigen Methoden im CardDealer und ChipsHandler forciert Blinds der Spieler Teilt Kart...">
<polygon fill="none" stroke="black" points="657,-186.5 657,-214.5 950,-214.5 950,-186.5 657,-186.5"/>
<text text-anchor="start" x="665" y="-203.3" font-family="Helvetica,sans-Serif" font-size="9.00">de.tu_clausthal.in.bachelorproject2018.poker.game.round.</text>
<text text-anchor="middle" x="803.5" y="-193.3" font-family="Helvetica,sans-Serif" font-size="9.00">CPreFlop.apply</text>
</a>
</g>
</g>
<!-- Node57&#45;&gt;Node65 -->
<g id="edge8" class="edge"><title>Node57&#45;&gt;Node65</title>
<path fill="none" stroke="midnightblue" d="M299,-353.972C393.931,-357.966 517.177,-353.996 621,-320.5 690.384,-298.115 758.31,-241.278 787.54,-214.658"/>
<polygon fill="midnightblue" stroke="midnightblue" points="298.887,-350.463 288.738,-353.505 298.568,-357.456 298.887,-350.463"/>
</g>
<!-- Node66 -->
<g id="node10" class="node"><title>Node66</title>
<g id="a_node10"><a xlink:href="../../d8/d6c/classde_1_1tu__clausthal_1_1in_1_1bachelorproject2018_1_1poker_1_1game_1_1round_1_1CTurn.htm#aa997ce946e5b26eb305e47ce7ae1dd81" target="_top" xlink:title="Legt eine Karte vom Deck auf den Tisch. ">
<polygon fill="none" stroke="black" points="327,-282.5 327,-310.5 620,-310.5 620,-282.5 327,-282.5"/>
<text text-anchor="start" x="335" y="-299.3" font-family="Helvetica,sans-Serif" font-size="9.00">de.tu_clausthal.in.bachelorproject2018.poker.game.round.</text>
<text text-anchor="middle" x="473.5" y="-289.3" font-family="Helvetica,sans-Serif" font-size="9.00">CTurn.apply</text>
</a>
</g>
</g>
<!-- Node57&#45;&gt;Node66 -->
<g id="edge9" class="edge"><title>Node57&#45;&gt;Node66</title>
<path fill="none" stroke="midnightblue" d="M262.386,-324.172C296.226,-319.715 333.001,-314.872 366.188,-310.501"/>
<polygon fill="midnightblue" stroke="midnightblue" points="261.914,-320.704 252.457,-325.48 262.828,-327.644 261.914,-320.704"/>
</g>
<!-- Node67 -->
<g id="node11" class="node"><title>Node67</title>
<g id="a_node11"><a xlink:href="../../d9/d71/classde_1_1tu__clausthal_1_1in_1_1bachelorproject2018_1_1poker_1_1game_1_1round_1_1CRiver.htm#a639b79e14972b10284e0dfd816f8a5d1" target="_top" xlink:title="Legt eine Karte vom Deck auf den Tisch. ">
<polygon fill="none" stroke="black" points="327,-235.5 327,-263.5 620,-263.5 620,-235.5 327,-235.5"/>
<text text-anchor="start" x="335" y="-252.3" font-family="Helvetica,sans-Serif" font-size="9.00">de.tu_clausthal.in.bachelorproject2018.poker.game.round.</text>
<text text-anchor="middle" x="473.5" y="-242.3" font-family="Helvetica,sans-Serif" font-size="9.00">CRiver.apply</text>
</a>
</g>
</g>
<!-- Node57&#45;&gt;Node67 -->
<g id="edge10" class="edge"><title>Node57&#45;&gt;Node67</title>
<path fill="none" stroke="midnightblue" d="M188.256,-321.421C224.28,-306.639 277.742,-286.178 326,-273.5 340.458,-269.702 355.884,-266.393 371.098,-263.546"/>
<polygon fill="midnightblue" stroke="midnightblue" points="186.477,-318.37 178.577,-325.429 189.155,-324.837 186.477,-318.37"/>
</g>
<!-- Node68 -->
<g id="node12" class="node"><title>Node68</title>
<g id="a_node12"><a xlink:href="../../d0/da9/classde_1_1tu__clausthal_1_1in_1_1bachelorproject2018_1_1poker_1_1game_1_1round_1_1CFlop.htm#a09a8d1a76054acdf7d4fe631f850076e" target="_top" xlink:title="legt 3 Karten vom Deck auf den Tisch ">
<polygon fill="none" stroke="black" points="327,-188.5 327,-216.5 620,-216.5 620,-188.5 327,-188.5"/>
<text text-anchor="start" x="335" y="-205.3" font-family="Helvetica,sans-Serif" font-size="9.00">de.tu_clausthal.in.bachelorproject2018.poker.game.round.</text>
<text text-anchor="middle" x="473.5" y="-195.3" font-family="Helvetica,sans-Serif" font-size="9.00">CFlop.apply</text>
</a>
</g>
</g>
<!-- Node57&#45;&gt;Node68 -->
<g id="edge11" class="edge"><title>Node57&#45;&gt;Node68</title>
<path fill="none" stroke="midnightblue" d="M171.379,-318.909C204.73,-292.994 266.121,-249.14 326,-226.5 336.366,-222.581 347.383,-219.301 358.54,-216.556"/>
<polygon fill="midnightblue" stroke="midnightblue" points="168.825,-316.465 163.131,-325.399 173.154,-321.966 168.825,-316.465"/>
</g>
<!-- Node69 -->
<g id="node13" class="node"><title>Node69</title>
<g id="a_node13"><a xlink:href="../../dd/ded/classde_1_1tu__clausthal_1_1in_1_1bachelorproject2018_1_1poker_1_1game_1_1round_1_1CWinEvaluation.htm#a258d61fbe6f67033165ecce526239cf0" target="_top" xlink:title="erstellt eine HandStatisticList Erstellt für jeden Spieler, der noch im Spiel ist, eine Handstatistic Ruft das Enum Wincheck für jede Handstatistsic auf Vergleicht die Handstatistiken, und erklärt die Sieger Teilt die Chips an die Gewinner auf ">
<polygon fill="none" stroke="black" points="327,-141.5 327,-169.5 620,-169.5 620,-141.5 327,-141.5"/>
<text text-anchor="start" x="335" y="-158.3" font-family="Helvetica,sans-Serif" font-size="9.00">de.tu_clausthal.in.bachelorproject2018.poker.game.round.</text>
<text text-anchor="middle" x="473.5" y="-148.3" font-family="Helvetica,sans-Serif" font-size="9.00">CWinEvaluation.apply</text>
</a>
</g>
</g>
<!-- Node57&#45;&gt;Node69 -->
<g id="edge12" class="edge"><title>Node57&#45;&gt;Node69</title>
<path fill="none" stroke="midnightblue" d="M163.667,-317.171C193.156,-281.623 256.107,-212.79 326,-179.5 334.144,-175.621 342.799,-172.354 351.674,-169.604"/>
<polygon fill="midnightblue" stroke="midnightblue" points="160.852,-315.085 157.234,-325.043 166.272,-319.515 160.852,-315.085"/>
</g>
<!-- Node70 -->
<g id="node14" class="node"><title>Node70</title>
<g id="a_node14"><a xlink:href="../../d8/d84/classde_1_1tu__clausthal_1_1in_1_1bachelorproject2018_1_1poker_1_1game_1_1round_1_1CBetRound.htm#a2f9ecbf9150794faa9af2760afbd96bd" target="_top" xlink:title="wird vor der Aktion des Spielers ausgeführt entscheidet, ob der Spieler überhaupt eine Aktion ausführ...">
<polygon fill="none" stroke="black" points="327,-94.5 327,-122.5 620,-122.5 620,-94.5 327,-94.5"/>
<text text-anchor="start" x="335" y="-111.3" font-family="Helvetica,sans-Serif" font-size="9.00">de.tu_clausthal.in.bachelorproject2018.poker.game.round.</text>
<text text-anchor="middle" x="473.5" y="-101.3" font-family="Helvetica,sans-Serif" font-size="9.00">CBetRound.apply</text>
</a>
</g>
</g>
<!-- Node57&#45;&gt;Node70 -->
<g id="edge13" class="edge"><title>Node57&#45;&gt;Node70</title>
<path fill="none" stroke="midnightblue" d="M158.446,-316.727C183.684,-272.957 245.399,-177.449 326,-132.5 332.978,-128.609 340.414,-125.308 348.095,-122.511"/>
<polygon fill="midnightblue" stroke="midnightblue" points="155.368,-315.059 153.487,-325.486 161.46,-318.508 155.368,-315.059"/>
</g>
<!-- Node71 -->
<g id="node15" class="node"><title>Node71</title>
<g id="a_node15"><a xlink:href="../../dd/dfe/classde_1_1tu__clausthal_1_1in_1_1bachelorproject2018_1_1poker_1_1game_1_1hubs_1_1ChipsHandling.htm#ad85caa6bd2889e2b060b78139daba9e5" target="_top" xlink:title="force bet the blinds of the player with the relevant indexes update the highestBidThisRound to the bi...">
<polygon fill="none" stroke="black" points="329,-47.5 329,-75.5 618,-75.5 618,-47.5 329,-47.5"/>
<text text-anchor="start" x="337" y="-64.3" font-family="Helvetica,sans-Serif" font-size="9.00">de.tu_clausthal.in.bachelorproject2018.poker.game.hubs.</text>
<text text-anchor="middle" x="473.5" y="-54.3" font-family="Helvetica,sans-Serif" font-size="9.00">ChipsHandling.forceBlinds</text>
</a>
</g>
</g>
<!-- Node57&#45;&gt;Node71 -->
<g id="edge14" class="edge"><title>Node57&#45;&gt;Node71</title>
<path fill="none" stroke="midnightblue" d="M155.16,-315.975C176.483,-264.624 234.678,-142.542 326,-85.5 332.121,-81.6769 338.655,-78.403 345.439,-75.604"/>
<polygon fill="midnightblue" stroke="midnightblue" points="151.908,-314.679 151.388,-325.261 158.394,-317.313 151.908,-314.679"/>
</g>
<!-- Node72 -->
<g id="node16" class="node"><title>Node72</title>
<g id="a_node16"><a xlink:href="../../da/d96/classde_1_1tu__clausthal_1_1in_1_1bachelorproject2018_1_1poker_1_1game_1_1player_1_1CPlayer.htm#abf6902ca709e2537e633ae170f5934ca" target="_top" xlink:title="check if the player has enough chips to bet, and then substract it from the chipscount ...">
<polygon fill="none" stroke="black" points="327,-0.5 327,-28.5 620,-28.5 620,-0.5 327,-0.5"/>
<text text-anchor="start" x="335" y="-17.3" font-family="Helvetica,sans-Serif" font-size="9.00">de.tu_clausthal.in.bachelorproject2018.poker.game.player.</text>
<text text-anchor="middle" x="473.5" y="-7.3" font-family="Helvetica,sans-Serif" font-size="9.00">CPlayer.substractChips</text>
</a>
</g>
</g>
<!-- Node57&#45;&gt;Node72 -->
<g id="edge16" class="edge"><title>Node57&#45;&gt;Node72</title>
<path fill="none" stroke="midnightblue" d="M152.718,-315.37C170.312,-257.048 223.612,-108.114 326,-38.5 331.648,-34.6599 337.697,-31.3576 344.002,-28.523"/>
<polygon fill="midnightblue" stroke="midnightblue" points="149.301,-314.586 149.844,-325.167 156.018,-316.556 149.301,-314.586"/>
</g>
<!-- Node71&#45;&gt;Node65 -->
<g id="edge15" class="edge"><title>Node71&#45;&gt;Node65</title>
<path fill="none" stroke="midnightblue" d="M598.36,-78.1092C606.111,-80.2776 613.717,-82.7289 621,-85.5 686.894,-110.572 754.42,-161.305 785.252,-186.144"/>
<polygon fill="midnightblue" stroke="midnightblue" points="599.038,-74.6688 588.477,-75.5111 597.258,-81.4388 599.038,-74.6688"/>
</g>
</g>
</svg>
        <g id="navigator" transform="translate(0 0)" fill="#404254">
                <rect fill="#f2f5e9" fill-opacity="0.5" stroke="#606060" stroke-width=".5" x="0" y="0" width="60" height="60"/>
                <use id="zoomplus" xlink:href="#zoomPlus" x="17" y="9" onmousedown="handleZoom(evt,'in')"/>
                <use id="zoomminus" xlink:href="#zoomMin" x="42" y="9" onmousedown="handleZoom(evt,'out')"/>
                <use id="reset" xlink:href="#resetDef" x="30" y="36" onmousedown="handleReset()"/>
                <g id="arrowUp" xlink:href="#dirArrow" transform="translate(30 24)" onmousedown="handlePan(0,-1)">
                  <use xlink:href="#rim" fill="#404040">
                        <set attributeName="fill" to="#808080" begin="arrowUp.mouseover" end="arrowUp.mouseout"/>
                  </use>
                  <path fill="none" stroke="white" stroke-width="1.5" d="M0,-3.0v7 M-2.5,-0.5L0,-3.0L2.5,-0.5"/>
                </g>
                <g id="arrowRight" xlink:href="#dirArrow" transform="rotate(90) translate(36 -43)" onmousedown="handlePan(1,0)">
                  <use xlink:href="#rim" fill="#404040">
                        <set attributeName="fill" to="#808080" begin="arrowRight.mouseover" end="arrowRight.mouseout"/>
                  </use>
                  <path fill="none" stroke="white" stroke-width="1.5" d="M0,-3.0v7 M-2.5,-0.5L0,-3.0L2.5,-0.5"/>
                </g>
                <g id="arrowDown" xlink:href="#dirArrow" transform="rotate(180) translate(-30 -48)" onmousedown="handlePan(0,1)">
                  <use xlink:href="#rim" fill="#404040">
                        <set attributeName="fill" to="#808080" begin="arrowDown.mouseover" end="arrowDown.mouseout"/>
                  </use>
                  <path fill="none" stroke="white" stroke-width="1.5" d="M0,-3.0v7 M-2.5,-0.5L0,-3.0L2.5,-0.5"/>
                </g>
                <g id="arrowLeft" xlink:href="#dirArrow" transform="rotate(270) translate(-36 17)" onmousedown="handlePan(-1,0)">
                  <use xlink:href="#rim" fill="#404040">
                        <set attributeName="fill" to="#808080" begin="arrowLeft.mouseover" end="arrowLeft.mouseout"/>
                  </use>
                  <path fill="none" stroke="white" stroke-width="1.5" d="M0,-3.0v7 M-2.5,-0.5L0,-3.0L2.5,-0.5"/>
                </g>
        </g>
        <svg viewBox="0 0 15 15" width="100%" height="30px" preserveAspectRatio="xMaxYMin meet">
         <g id="arrow_out" transform="scale(0.3 0.3)">
          <a xlink:href="interfacede_1_1tu__clausthal_1_1in_1_1bachelorproject2018_1_1poker_1_1game_1_1table_1_1ITable_a442079183a6b0e75a07ee8549947f929_icgraph_org.svg" target="_base">
           <rect id="button" ry="5" rx="5" y="6" x="6" height="38" width="38"
                fill="#f2f5e9" fill-opacity="0.5" stroke="#606060" stroke-width="1.0"/>
           <path id="arrow"
             d="M 11.500037,31.436501 C 11.940474,20.09759 22.043105,11.32322 32.158766,21.979434 L 37.068811,17.246167 C 37.068811,17.246167 37.088388,32 37.088388,32 L 22.160133,31.978069 C 22.160133,31.978069 26.997745,27.140456 26.997745,27.140456 C 18.528582,18.264221 13.291696,25.230495 11.500037,31.436501 z"
             style="fill:#404040;"/>
          </a>
         </g>
        </svg>
</svg>
