<?xml version="1.0" encoding="UTF-8" standalone="no"?>
<!DOCTYPE svg PUBLIC "-//W3C//DTD SVG 1.1//EN"
 "http://www.w3.org/Graphics/SVG/1.1/DTD/svg11.dtd">
<!-- Generated by graphviz version 2.38.0 (20140413.2041)
 -->
<!-- Title: de.tu_clausthal.in.bachelorproject2018.poker.game.table.ITable.getQueue Pages: 1 -->
<svg width="629pt" height="131pt"
 viewBox="0.00 0.00 629.00 131.00" xmlns="http://www.w3.org/2000/svg" xmlns:xlink="http://www.w3.org/1999/xlink">
<g id="graph0" class="graph" transform="scale(1 1) rotate(0) translate(4 127)">
<title>de.tu_clausthal.in.bachelorproject2018.poker.game.table.ITable.getQueue</title>
<!-- Node18 -->
<g id="node1" class="node"><title>Node18</title>
<polygon fill="#bfbfbf" stroke="black" points="0,-47.5 0,-75.5 290,-75.5 290,-47.5 0,-47.5"/>
<text text-anchor="start" x="8" y="-64.3" font-family="Helvetica,sans-Serif" font-size="9.00">de.tu_clausthal.in.bachelorproject2018.poker.game.table.</text>
<text text-anchor="middle" x="145" y="-54.3" font-family="Helvetica,sans-Serif" font-size="9.00">ITable.getQueue</text>
</g>
<!-- Node19 -->
<g id="node2" class="node"><title>Node19</title>
<g id="a_node2"><a xlink:href="../../dd/d69/classde_1_1tu__clausthal_1_1in_1_1bachelorproject2018_1_1poker_1_1game_1_1action_1_1CCheck.htm#ab5688283d91d32d52dffb8882a5104b9" target="_top" xlink:title="überprüft ob der Spieler checken kann setzt, dass der Spieler gecheckt hat. ">
<polygon fill="none" stroke="black" points="326,-94.5 326,-122.5 621,-122.5 621,-94.5 326,-94.5"/>
<text text-anchor="start" x="334" y="-111.3" font-family="Helvetica,sans-Serif" font-size="9.00">de.tu_clausthal.in.bachelorproject2018.poker.game.action.</text>
<text text-anchor="middle" x="473.5" y="-101.3" font-family="Helvetica,sans-Serif" font-size="9.00">CCheck.accept</text>
</a>
</g>
</g>
<!-- Node18&#45;&gt;Node19 -->
<g id="edge1" class="edge"><title>Node18&#45;&gt;Node19</title>
<path fill="none" stroke="midnightblue" d="M253.642,-76.9952C292.858,-82.6403 336.936,-88.9854 375.202,-94.4939"/>
<polygon fill="midnightblue" stroke="midnightblue" points="253.915,-73.4985 243.519,-75.5379 252.918,-80.4271 253.915,-73.4985"/>
</g>
<!-- Node20 -->
<g id="node3" class="node"><title>Node20</title>
<g id="a_node3"><a xlink:href="../../de/dec/classde_1_1tu__clausthal_1_1in_1_1bachelorproject2018_1_1poker_1_1game_1_1action_1_1CCall.htm#a5df0967671f6af0e68de9201882b3c1a" target="_top" xlink:title="Überprüft ob der Spieler callen kann Berechnet den Wert, der fürs Callen benötigt wird Setzt den Wert...">
<polygon fill="none" stroke="black" points="326,-47.5 326,-75.5 621,-75.5 621,-47.5 326,-47.5"/>
<text text-anchor="start" x="334" y="-64.3" font-family="Helvetica,sans-Serif" font-size="9.00">de.tu_clausthal.in.bachelorproject2018.poker.game.action.</text>
<text text-anchor="middle" x="473.5" y="-54.3" font-family="Helvetica,sans-Serif" font-size="9.00">CCall.accept</text>
</a>
</g>
</g>
<!-- Node18&#45;&gt;Node20 -->
<g id="edge2" class="edge"><title>Node18&#45;&gt;Node20</title>
<path fill="none" stroke="midnightblue" d="M300.202,-61.5C308.776,-61.5 317.384,-61.5 325.93,-61.5"/>
<polygon fill="midnightblue" stroke="midnightblue" points="300.158,-58.0001 290.158,-61.5 300.158,-65.0001 300.158,-58.0001"/>
</g>
<!-- Node21 -->
<g id="node4" class="node"><title>Node21</title>
<g id="a_node4"><a xlink:href="../../de/d5d/classde_1_1tu__clausthal_1_1in_1_1bachelorproject2018_1_1poker_1_1game_1_1action_1_1CRaise.htm#aee81ff5815191d70a1e63a5fe7c5c7d1" target="_top" xlink:title="Überprüft ob der Spieler raisen kann Führt den Raise durch. ">
<polygon fill="none" stroke="black" points="326,-0.5 326,-28.5 621,-28.5 621,-0.5 326,-0.5"/>
<text text-anchor="start" x="334" y="-17.3" font-family="Helvetica,sans-Serif" font-size="9.00">de.tu_clausthal.in.bachelorproject2018.poker.game.action.</text>
<text text-anchor="middle" x="473.5" y="-7.3" font-family="Helvetica,sans-Serif" font-size="9.00">CRaise.accept</text>
</a>
</g>
</g>
<!-- Node18&#45;&gt;Node21 -->
<g id="edge3" class="edge"><title>Node18&#45;&gt;Node21</title>
<path fill="none" stroke="midnightblue" d="M253.642,-46.0048C292.858,-40.3597 336.936,-34.0146 375.202,-28.5061"/>
<polygon fill="midnightblue" stroke="midnightblue" points="252.918,-42.5729 243.519,-47.4621 253.915,-49.5015 252.918,-42.5729"/>
</g>
</g>
</svg>
