<?xml version="1.0" encoding="UTF-8" standalone="no"?>
<!DOCTYPE svg PUBLIC "-//W3C//DTD SVG 1.1//EN"
 "http://www.w3.org/Graphics/SVG/1.1/DTD/svg11.dtd">
<!-- Generated by graphviz version 2.38.0 (20140413.2041)
 -->
<!-- Title: de.tu_clausthal.in.bachelorproject2018.poker.network.websocket.CNotificationService.onApplicationEvent Pages: 1 -->
<svg width="750pt" height="695pt"
 viewBox="0.00 0.00 750.00 695.00" xmlns="http://www.w3.org/2000/svg" xmlns:xlink="http://www.w3.org/1999/xlink">
<g id="graph0" class="graph" transform="scale(1 1) rotate(0) translate(4 691)">
<title>de.tu_clausthal.in.bachelorproject2018.poker.network.websocket.CNotificationService.onApplicationEvent</title>
<!-- Node0 -->
<g id="node1" class="node"><title>Node0</title>
<polygon fill="#bfbfbf" stroke="black" points="0,-329.5 0,-357.5 327,-357.5 327,-329.5 0,-329.5"/>
<text text-anchor="start" x="8" y="-346.3" font-family="Helvetica,sans-Serif" font-size="9.00">de.tu_clausthal.in.bachelorproject2018.poker.network.websocket.</text>
<text text-anchor="middle" x="163.5" y="-336.3" font-family="Helvetica,sans-Serif" font-size="9.00">CNotificationService.onApplicationEvent</text>
</g>
<!-- Node1 -->
<g id="node2" class="node"><title>Node1</title>
<g id="a_node2"><a xlink:href="../../dc/dbb/classde_1_1tu__clausthal_1_1in_1_1bachelorproject2018_1_1poker_1_1network_1_1gamestate_1_1messages_1_1CChipMessage.htm#a62ba8f860f779c48e725e03926368146" target="_top" xlink:title="de.tu_clausthal.in.bachelorproject2018.poker.network.gamestate.messages.\lCChipMessage.getAmount">
<polygon fill="none" stroke="black" points="363,-658.5 363,-686.5 742,-686.5 742,-658.5 363,-658.5"/>
<text text-anchor="start" x="371" y="-675.3" font-family="Helvetica,sans-Serif" font-size="9.00">de.tu_clausthal.in.bachelorproject2018.poker.network.gamestate.messages.</text>
<text text-anchor="middle" x="552.5" y="-665.3" font-family="Helvetica,sans-Serif" font-size="9.00">CChipMessage.getAmount</text>
</a>
</g>
</g>
<!-- Node0&#45;&gt;Node1 -->
<g id="edge1" class="edge"><title>Node0&#45;&gt;Node1</title>
<path fill="none" stroke="midnightblue" d="M168.803,-357.573C184.865,-407.45 246.459,-576.697 363,-649.5 365.49,-651.056 368.035,-652.531 370.629,-653.929"/>
<polygon fill="midnightblue" stroke="midnightblue" points="369.107,-657.082 379.621,-658.394 372.221,-650.812 369.107,-657.082"/>
</g>
<!-- Node2 -->
<g id="node3" class="node"><title>Node2</title>
<g id="a_node3"><a xlink:href="../../db/d26/classde_1_1tu__clausthal_1_1in_1_1bachelorproject2018_1_1poker_1_1network_1_1gamestate_1_1messages_1_1CCardMessage.htm#a84a207b9587d0f0bb3bcc22a61c410a6" target="_top" xlink:title="de.tu_clausthal.in.bachelorproject2018.poker.network.gamestate.messages.\lCCardMessage.getCard">
<polygon fill="none" stroke="black" points="363,-611.5 363,-639.5 742,-639.5 742,-611.5 363,-611.5"/>
<text text-anchor="start" x="371" y="-628.3" font-family="Helvetica,sans-Serif" font-size="9.00">de.tu_clausthal.in.bachelorproject2018.poker.network.gamestate.messages.</text>
<text text-anchor="middle" x="552.5" y="-618.3" font-family="Helvetica,sans-Serif" font-size="9.00">CCardMessage.getCard</text>
</a>
</g>
</g>
<!-- Node0&#45;&gt;Node2 -->
<g id="edge2" class="edge"><title>Node0&#45;&gt;Node2</title>
<path fill="none" stroke="midnightblue" d="M170.413,-357.583C190.069,-402.433 257.984,-542.491 363,-602.5 365.934,-604.177 368.935,-605.756 371.994,-607.243"/>
<polygon fill="midnightblue" stroke="midnightblue" points="370.774,-610.531 381.33,-611.432 373.639,-604.145 370.774,-610.531"/>
</g>
<!-- Node3 -->
<g id="node4" class="node"><title>Node3</title>
<g id="a_node4"><a xlink:href="../../db/d26/classde_1_1tu__clausthal_1_1in_1_1bachelorproject2018_1_1poker_1_1network_1_1gamestate_1_1messages_1_1CCardMessage.htm#ae0955a74f518fa17e83f407415fbee57" target="_top" xlink:title="de.tu_clausthal.in.bachelorproject2018.poker.network.gamestate.messages.\lCCardMessage.getDestination">
<polygon fill="none" stroke="black" points="363,-564.5 363,-592.5 742,-592.5 742,-564.5 363,-564.5"/>
<text text-anchor="start" x="371" y="-581.3" font-family="Helvetica,sans-Serif" font-size="9.00">de.tu_clausthal.in.bachelorproject2018.poker.network.gamestate.messages.</text>
<text text-anchor="middle" x="552.5" y="-571.3" font-family="Helvetica,sans-Serif" font-size="9.00">CCardMessage.getDestination</text>
</a>
</g>
</g>
<!-- Node0&#45;&gt;Node3 -->
<g id="edge3" class="edge"><title>Node0&#45;&gt;Node3</title>
<path fill="none" stroke="midnightblue" d="M172.784,-357.772C196.543,-397.211 269.264,-507.904 363,-555.5 366.617,-557.337 370.322,-559.05 374.098,-560.647"/>
<polygon fill="midnightblue" stroke="midnightblue" points="373.033,-563.989 383.62,-564.384 375.59,-557.473 373.033,-563.989"/>
</g>
<!-- Node4 -->
<g id="node5" class="node"><title>Node4</title>
<g id="a_node5"><a xlink:href="../../d2/d85/classde_1_1tu__clausthal_1_1in_1_1bachelorproject2018_1_1poker_1_1network_1_1objects_1_1CMessageEvent.htm#a9b07fbf931f3b7e9a83cb35efe59bdaa" target="_top" xlink:title="de.tu_clausthal.in.bachelorproject2018.poker.network.objects.\lCMessageEvent.getMessage">
<polygon fill="none" stroke="black" points="397,-517.5 397,-545.5 708,-545.5 708,-517.5 397,-517.5"/>
<text text-anchor="start" x="405" y="-534.3" font-family="Helvetica,sans-Serif" font-size="9.00">de.tu_clausthal.in.bachelorproject2018.poker.network.objects.</text>
<text text-anchor="middle" x="552.5" y="-524.3" font-family="Helvetica,sans-Serif" font-size="9.00">CMessageEvent.getMessage</text>
</a>
</g>
</g>
<!-- Node0&#45;&gt;Node4 -->
<g id="edge4" class="edge"><title>Node0&#45;&gt;Node4</title>
<path fill="none" stroke="midnightblue" d="M176.176,-357.639C204.347,-390.634 279.889,-472.628 363,-508.5 370.723,-511.834 378.78,-514.731 387.026,-517.246"/>
<polygon fill="midnightblue" stroke="midnightblue" points="386.209,-520.653 396.785,-520.027 388.127,-513.921 386.209,-520.653"/>
</g>
<!-- Node5 -->
<g id="node6" class="node"><title>Node5</title>
<g id="a_node6"><a xlink:href="../../dc/dbb/classde_1_1tu__clausthal_1_1in_1_1bachelorproject2018_1_1poker_1_1network_1_1gamestate_1_1messages_1_1CChipMessage.htm#ab0315bfe18e155e25a607382fba453dc" target="_top" xlink:title="de.tu_clausthal.in.bachelorproject2018.poker.network.gamestate.messages.\lCChipMessage.getPlayer">
<polygon fill="none" stroke="black" points="363,-470.5 363,-498.5 742,-498.5 742,-470.5 363,-470.5"/>
<text text-anchor="start" x="371" y="-487.3" font-family="Helvetica,sans-Serif" font-size="9.00">de.tu_clausthal.in.bachelorproject2018.poker.network.gamestate.messages.</text>
<text text-anchor="middle" x="552.5" y="-477.3" font-family="Helvetica,sans-Serif" font-size="9.00">CChipMessage.getPlayer</text>
</a>
</g>
</g>
<!-- Node0&#45;&gt;Node5 -->
<g id="edge5" class="edge"><title>Node0&#45;&gt;Node5</title>
<path fill="none" stroke="midnightblue" d="M182.376,-357.675C215.703,-383.255 290.53,-436.768 363,-461.5 369.972,-463.879 377.162,-466.018 384.48,-467.941"/>
<polygon fill="midnightblue" stroke="midnightblue" points="383.982,-471.423 394.53,-470.431 385.666,-464.629 383.982,-471.423"/>
</g>
<!-- Node6 -->
<g id="node7" class="node"><title>Node6</title>
<g id="a_node7"><a xlink:href="../../d2/d3b/classde_1_1tu__clausthal_1_1in_1_1bachelorproject2018_1_1poker_1_1network_1_1gamestate_1_1messages_1_1CNotifyMessage.htm#aef17c31f3205380582c58a7fca45be57" target="_top" xlink:title="de.tu_clausthal.in.bachelorproject2018.poker.network.gamestate.messages.\lCNotifyMessage.getPlayer">
<polygon fill="none" stroke="black" points="363,-423.5 363,-451.5 742,-451.5 742,-423.5 363,-423.5"/>
<text text-anchor="start" x="371" y="-440.3" font-family="Helvetica,sans-Serif" font-size="9.00">de.tu_clausthal.in.bachelorproject2018.poker.network.gamestate.messages.</text>
<text text-anchor="middle" x="552.5" y="-430.3" font-family="Helvetica,sans-Serif" font-size="9.00">CNotifyMessage.getPlayer</text>
</a>
</g>
</g>
<!-- Node0&#45;&gt;Node6 -->
<g id="edge6" class="edge"><title>Node0&#45;&gt;Node6</title>
<path fill="none" stroke="midnightblue" d="M196.84,-357.59C235.582,-373.873 302.81,-400.251 363,-414.5 374.467,-417.215 386.406,-419.62 398.462,-421.748"/>
<polygon fill="midnightblue" stroke="midnightblue" points="398.164,-425.248 408.609,-423.472 399.337,-418.347 398.164,-425.248"/>
</g>
<!-- Node7 -->
<g id="node8" class="node"><title>Node7</title>
<g id="a_node8"><a xlink:href="../../db/d26/classde_1_1tu__clausthal_1_1in_1_1bachelorproject2018_1_1poker_1_1network_1_1gamestate_1_1messages_1_1CCardMessage.htm#a536ab695716b58961f83ecffe4a94d68" target="_top" xlink:title="de.tu_clausthal.in.bachelorproject2018.poker.network.gamestate.messages.\lCCardMessage.getPlayer">
<polygon fill="none" stroke="black" points="363,-376.5 363,-404.5 742,-404.5 742,-376.5 363,-376.5"/>
<text text-anchor="start" x="371" y="-393.3" font-family="Helvetica,sans-Serif" font-size="9.00">de.tu_clausthal.in.bachelorproject2018.poker.network.gamestate.messages.</text>
<text text-anchor="middle" x="552.5" y="-383.3" font-family="Helvetica,sans-Serif" font-size="9.00">CCardMessage.getPlayer</text>
</a>
</g>
</g>
<!-- Node0&#45;&gt;Node7 -->
<g id="edge7" class="edge"><title>Node0&#45;&gt;Node7</title>
<path fill="none" stroke="midnightblue" d="M279.827,-357.506C325.893,-363.101 379.065,-369.558 426.088,-375.269"/>
<polygon fill="midnightblue" stroke="midnightblue" points="425.675,-378.745 436.024,-376.476 426.519,-371.796 425.675,-378.745"/>
</g>
<!-- Node8 -->
<g id="node9" class="node"><title>Node8</title>
<g id="a_node9"><a xlink:href="../../d2/d85/classde_1_1tu__clausthal_1_1in_1_1bachelorproject2018_1_1poker_1_1network_1_1objects_1_1CMessageEvent.htm#aa7742615dd604dcf57bb249a8444cc2a" target="_top" xlink:title="de.tu_clausthal.in.bachelorproject2018.poker.network.objects.\lCMessageEvent.getTable">
<polygon fill="none" stroke="black" points="397,-329.5 397,-357.5 708,-357.5 708,-329.5 397,-329.5"/>
<text text-anchor="start" x="405" y="-346.3" font-family="Helvetica,sans-Serif" font-size="9.00">de.tu_clausthal.in.bachelorproject2018.poker.network.objects.</text>
<text text-anchor="middle" x="552.5" y="-336.3" font-family="Helvetica,sans-Serif" font-size="9.00">CMessageEvent.getTable</text>
</a>
</g>
</g>
<!-- Node0&#45;&gt;Node8 -->
<g id="edge8" class="edge"><title>Node0&#45;&gt;Node8</title>
<path fill="none" stroke="midnightblue" d="M327.221,-343.5C346.848,-343.5 366.908,-343.5 386.567,-343.5"/>
<polygon fill="midnightblue" stroke="midnightblue" points="386.806,-347 396.806,-343.5 386.806,-340 386.806,-347"/>
</g>
<!-- Node9 -->
<g id="node10" class="node"><title>Node9</title>
<g id="a_node10"><a xlink:href="../../d0/d01/classde_1_1tu__clausthal_1_1in_1_1bachelorproject2018_1_1poker_1_1network_1_1gamestate_1_1messages_1_1CGameMessage.htm#ac00a0d828f5043362687054d53608e14" target="_top" xlink:title="de.tu_clausthal.in.bachelorproject2018.poker.network.gamestate.messages.\lCGameMessage.getTable">
<polygon fill="none" stroke="black" points="363,-282.5 363,-310.5 742,-310.5 742,-282.5 363,-282.5"/>
<text text-anchor="start" x="371" y="-299.3" font-family="Helvetica,sans-Serif" font-size="9.00">de.tu_clausthal.in.bachelorproject2018.poker.network.gamestate.messages.</text>
<text text-anchor="middle" x="552.5" y="-289.3" font-family="Helvetica,sans-Serif" font-size="9.00">CGameMessage.getTable</text>
</a>
</g>
</g>
<!-- Node0&#45;&gt;Node9 -->
<g id="edge9" class="edge"><title>Node0&#45;&gt;Node9</title>
<path fill="none" stroke="midnightblue" d="M279.827,-329.494C325.893,-323.899 379.065,-317.442 426.088,-311.731"/>
<polygon fill="midnightblue" stroke="midnightblue" points="426.519,-315.204 436.024,-310.524 425.675,-308.255 426.519,-315.204"/>
</g>
<!-- Node10 -->
<g id="node11" class="node"><title>Node10</title>
<g id="a_node11"><a xlink:href="../../d0/d01/classde_1_1tu__clausthal_1_1in_1_1bachelorproject2018_1_1poker_1_1network_1_1gamestate_1_1messages_1_1CGameMessage.htm#a92dac7ee6a5e0983cf4aee2a8b0b1b9b" target="_top" xlink:title="de.tu_clausthal.in.bachelorproject2018.poker.network.gamestate.messages.\lCGameMessage.getText">
<polygon fill="none" stroke="black" points="363,-235.5 363,-263.5 742,-263.5 742,-235.5 363,-235.5"/>
<text text-anchor="start" x="371" y="-252.3" font-family="Helvetica,sans-Serif" font-size="9.00">de.tu_clausthal.in.bachelorproject2018.poker.network.gamestate.messages.</text>
<text text-anchor="middle" x="552.5" y="-242.3" font-family="Helvetica,sans-Serif" font-size="9.00">CGameMessage.getText</text>
</a>
</g>
</g>
<!-- Node0&#45;&gt;Node10 -->
<g id="edge10" class="edge"><title>Node0&#45;&gt;Node10</title>
<path fill="none" stroke="midnightblue" d="M197.566,-329.394C236.446,-313.385 303.266,-287.665 363,-273.5 376.238,-270.361 390.103,-267.61 404.049,-265.204"/>
<polygon fill="midnightblue" stroke="midnightblue" points="404.92,-268.608 414.21,-263.513 403.771,-261.703 404.92,-268.608"/>
</g>
<!-- Node11 -->
<g id="node12" class="node"><title>Node11</title>
<g id="a_node12"><a xlink:href="../../d2/d3b/classde_1_1tu__clausthal_1_1in_1_1bachelorproject2018_1_1poker_1_1network_1_1gamestate_1_1messages_1_1CNotifyMessage.htm#abe90faf84199850a8c835a7add928d29" target="_top" xlink:title="de.tu_clausthal.in.bachelorproject2018.poker.network.gamestate.messages.\lCNotifyMessage.getText">
<polygon fill="none" stroke="black" points="363,-188.5 363,-216.5 742,-216.5 742,-188.5 363,-188.5"/>
<text text-anchor="start" x="371" y="-205.3" font-family="Helvetica,sans-Serif" font-size="9.00">de.tu_clausthal.in.bachelorproject2018.poker.network.gamestate.messages.</text>
<text text-anchor="middle" x="552.5" y="-195.3" font-family="Helvetica,sans-Serif" font-size="9.00">CNotifyMessage.getText</text>
</a>
</g>
</g>
<!-- Node0&#45;&gt;Node11 -->
<g id="edge11" class="edge"><title>Node0&#45;&gt;Node11</title>
<path fill="none" stroke="midnightblue" d="M182.411,-329.485C215.793,-304.188 290.708,-251.231 363,-226.5 371.278,-223.668 379.863,-221.165 388.604,-218.954"/>
<polygon fill="midnightblue" stroke="midnightblue" points="389.62,-222.31 398.531,-216.579 387.991,-215.502 389.62,-222.31"/>
</g>
<!-- Node12 -->
<g id="node13" class="node"><title>Node12</title>
<g id="a_node13"><a xlink:href="../../db/d26/classde_1_1tu__clausthal_1_1in_1_1bachelorproject2018_1_1poker_1_1network_1_1gamestate_1_1messages_1_1CCardMessage.htm#ad6888b80ec8a2194419d8376bb9af061" target="_top" xlink:title="de.tu_clausthal.in.bachelorproject2018.poker.network.gamestate.messages.\lCCardMessage.getType">
<polygon fill="none" stroke="black" points="363,-141.5 363,-169.5 742,-169.5 742,-141.5 363,-141.5"/>
<text text-anchor="start" x="371" y="-158.3" font-family="Helvetica,sans-Serif" font-size="9.00">de.tu_clausthal.in.bachelorproject2018.poker.network.gamestate.messages.</text>
<text text-anchor="middle" x="552.5" y="-148.3" font-family="Helvetica,sans-Serif" font-size="9.00">CCardMessage.getType</text>
</a>
</g>
</g>
<!-- Node0&#45;&gt;Node12 -->
<g id="edge12" class="edge"><title>Node0&#45;&gt;Node12</title>
<path fill="none" stroke="midnightblue" d="M176.209,-329.476C204.451,-296.745 280.134,-215.376 363,-179.5 368.861,-176.963 374.913,-174.672 381.095,-172.605"/>
<polygon fill="midnightblue" stroke="midnightblue" points="382.406,-175.862 390.906,-169.537 380.317,-169.181 382.406,-175.862"/>
</g>
<!-- Node13 -->
<g id="node14" class="node"><title>Node13</title>
<g id="a_node14"><a xlink:href="../../d5/d36/interfacede_1_1tu__clausthal_1_1in_1_1bachelorproject2018_1_1poker_1_1game_1_1table_1_1ITable.htm#a6e42c7daa9c258015750347f2a5542fe" target="_top" xlink:title="liefert alle Spieler des Tisches ">
<polygon fill="none" stroke="black" points="407.5,-94.5 407.5,-122.5 697.5,-122.5 697.5,-94.5 407.5,-94.5"/>
<text text-anchor="start" x="415.5" y="-111.3" font-family="Helvetica,sans-Serif" font-size="9.00">de.tu_clausthal.in.bachelorproject2018.poker.game.table.</text>
<text text-anchor="middle" x="552.5" y="-101.3" font-family="Helvetica,sans-Serif" font-size="9.00">ITable.list</text>
</a>
</g>
</g>
<!-- Node0&#45;&gt;Node13 -->
<g id="edge13" class="edge"><title>Node0&#45;&gt;Node13</title>
<path fill="none" stroke="midnightblue" d="M172.816,-329.32C196.656,-290.131 269.568,-180.111 363,-132.5 373.901,-126.945 385.599,-122.496 397.636,-118.949"/>
<polygon fill="midnightblue" stroke="midnightblue" points="398.628,-122.306 407.352,-116.294 396.783,-115.554 398.628,-122.306"/>
</g>
<!-- Node14 -->
<g id="node15" class="node"><title>Node14</title>
<g id="a_node15"><a xlink:href="../../d2/d11/interfacede_1_1tu__clausthal_1_1in_1_1bachelorproject2018_1_1poker_1_1game_1_1player_1_1IPlayer.htm#aa1beb6bc13e4171ea75f99723d56533a" target="_top" xlink:title="sends data ">
<polygon fill="none" stroke="black" points="406,-47.5 406,-75.5 699,-75.5 699,-47.5 406,-47.5"/>
<text text-anchor="start" x="414" y="-64.3" font-family="Helvetica,sans-Serif" font-size="9.00">de.tu_clausthal.in.bachelorproject2018.poker.game.player.</text>
<text text-anchor="middle" x="552.5" y="-54.3" font-family="Helvetica,sans-Serif" font-size="9.00">IPlayer.message</text>
</a>
</g>
</g>
<!-- Node0&#45;&gt;Node14 -->
<g id="edge14" class="edge"><title>Node0&#45;&gt;Node14</title>
<path fill="none" stroke="midnightblue" d="M170.442,-329.493C190.187,-284.882 258.339,-145.539 363,-85.5 373.284,-79.6007 384.395,-74.8846 395.899,-71.136"/>
<polygon fill="midnightblue" stroke="midnightblue" points="397.073,-74.4378 405.645,-68.2099 395.06,-67.7334 397.073,-74.4378"/>
</g>
<!-- Node15 -->
<g id="node16" class="node"><title>Node15</title>
<g id="a_node16"><a xlink:href="../../da/d00/classde_1_1tu__clausthal_1_1in_1_1bachelorproject2018_1_1poker_1_1network_1_1websocket_1_1CNotificationService.htm#a9fa7918ffed30da96d693a3cd6384c8e" target="_top" xlink:title="de.tu_clausthal.in.bachelorproject2018.poker.network.websocket.\lCNotificationService.tomap">
<polygon fill="none" stroke="black" points="389,-0.5 389,-28.5 716,-28.5 716,-0.5 389,-0.5"/>
<text text-anchor="start" x="397" y="-17.3" font-family="Helvetica,sans-Serif" font-size="9.00">de.tu_clausthal.in.bachelorproject2018.poker.network.websocket.</text>
<text text-anchor="middle" x="552.5" y="-7.3" font-family="Helvetica,sans-Serif" font-size="9.00">CNotificationService.tomap</text>
</a>
</g>
</g>
<!-- Node0&#45;&gt;Node15 -->
<g id="edge15" class="edge"><title>Node0&#45;&gt;Node15</title>
<path fill="none" stroke="midnightblue" d="M168.831,-329.493C184.988,-279.846 246.862,-111.352 363,-38.5 368.192,-35.2432 373.623,-32.3326 379.231,-29.7353"/>
<polygon fill="midnightblue" stroke="midnightblue" points="380.994,-32.7891 388.826,-25.654 378.254,-26.3477 380.994,-32.7891"/>
</g>
</g>
</svg>
