<?xml version="1.0" encoding="UTF-8" standalone="no"?>
<!DOCTYPE svg PUBLIC "-//W3C//DTD SVG 1.1//EN"
 "http://www.w3.org/Graphics/SVG/1.1/DTD/svg11.dtd">
<!-- Generated by graphviz version 2.38.0 (20140413.2041)
 -->
<!-- Title: de.tu_clausthal.in.bachelorproject2018.poker.game.hubs.CardDealer Pages: 1 -->
<svg width="1271pt" height="846pt"
 viewBox="0.00 0.00 1270.50 846.00" xmlns="http://www.w3.org/2000/svg" xmlns:xlink="http://www.w3.org/1999/xlink">
<g id="graph0" class="graph" transform="scale(1 1) rotate(0) translate(4 842)">
<title>de.tu_clausthal.in.bachelorproject2018.poker.game.hubs.CardDealer</title>
<!-- Node1 -->
<g id="node1" class="node"><title>Node1</title>
<polygon fill="#bfbfbf" stroke="black" points="960.5,-562.5 960.5,-666.5 1249.5,-666.5 1249.5,-562.5 960.5,-562.5"/>
<text text-anchor="start" x="968.5" y="-655.3" font-family="Helvetica,sans-Serif" font-size="9.00">de.tu_clausthal.in.bachelorproject2018.poker.game.hubs.</text>
<text text-anchor="middle" x="1105" y="-645.3" font-family="Helvetica,sans-Serif" font-size="9.00">CardDealer</text>
<polyline fill="none" stroke="black" points="960.5,-638.5 1249.5,-638.5 "/>
<text text-anchor="start" x="968.5" y="-627.3" font-family="Helvetica,sans-Serif" font-size="9.00">&#45; tableCards</text>
<polyline fill="none" stroke="black" points="960.5,-620.5 1249.5,-620.5 "/>
<text text-anchor="start" x="968.5" y="-609.3" font-family="Helvetica,sans-Serif" font-size="9.00">+ CardDealer()</text>
<text text-anchor="start" x="968.5" y="-599.3" font-family="Helvetica,sans-Serif" font-size="9.00">+ firstDeckOfTheGame()</text>
<text text-anchor="start" x="968.5" y="-589.3" font-family="Helvetica,sans-Serif" font-size="9.00">+ getDeck()</text>
<text text-anchor="start" x="968.5" y="-579.3" font-family="Helvetica,sans-Serif" font-size="9.00">+ getTableCards()</text>
<text text-anchor="start" x="968.5" y="-569.3" font-family="Helvetica,sans-Serif" font-size="9.00">+ resetForNextRound()</text>
</g>
<!-- Node2 -->
<g id="node2" class="node"><title>Node2</title>
<g id="a_node2"><a xlink:href="../../da/d48/classde_1_1tu__clausthal_1_1in_1_1bachelorproject2018_1_1poker_1_1game_1_1hubs_1_1GameHub.htm" target="_top" xlink:title="{de.tu_clausthal.in.bachelorproject2018.poker.game.hubs.\lGameHub\n|&#45; chipsStartAmount\l&#45; players\l|+ GameHub()\l+ getCardDealer()\l+ getChipsHandler()\l+ getDetermineWinner()\l+ getPlayerList()\l+ getTable()\l+ getWinnerHand()\l+ startGame()\l+ updatePlayerlist()\l}">
<polygon fill="none" stroke="black" points="643.5,-341.5 643.5,-495.5 932.5,-495.5 932.5,-341.5 643.5,-341.5"/>
<text text-anchor="start" x="651.5" y="-484.3" font-family="Helvetica,sans-Serif" font-size="9.00">de.tu_clausthal.in.bachelorproject2018.poker.game.hubs.</text>
<text text-anchor="middle" x="788" y="-474.3" font-family="Helvetica,sans-Serif" font-size="9.00">GameHub</text>
<polyline fill="none" stroke="black" points="643.5,-467.5 932.5,-467.5 "/>
<text text-anchor="start" x="651.5" y="-456.3" font-family="Helvetica,sans-Serif" font-size="9.00">&#45; chipsStartAmount</text>
<text text-anchor="start" x="651.5" y="-446.3" font-family="Helvetica,sans-Serif" font-size="9.00">&#45; players</text>
<polyline fill="none" stroke="black" points="643.5,-439.5 932.5,-439.5 "/>
<text text-anchor="start" x="651.5" y="-428.3" font-family="Helvetica,sans-Serif" font-size="9.00">+ GameHub()</text>
<text text-anchor="start" x="651.5" y="-418.3" font-family="Helvetica,sans-Serif" font-size="9.00">+ getCardDealer()</text>
<text text-anchor="start" x="651.5" y="-408.3" font-family="Helvetica,sans-Serif" font-size="9.00">+ getChipsHandler()</text>
<text text-anchor="start" x="651.5" y="-398.3" font-family="Helvetica,sans-Serif" font-size="9.00">+ getDetermineWinner()</text>
<text text-anchor="start" x="651.5" y="-388.3" font-family="Helvetica,sans-Serif" font-size="9.00">+ getPlayerList()</text>
<text text-anchor="start" x="651.5" y="-378.3" font-family="Helvetica,sans-Serif" font-size="9.00">+ getTable()</text>
<text text-anchor="start" x="651.5" y="-368.3" font-family="Helvetica,sans-Serif" font-size="9.00">+ getWinnerHand()</text>
<text text-anchor="start" x="651.5" y="-358.3" font-family="Helvetica,sans-Serif" font-size="9.00">+ startGame()</text>
<text text-anchor="start" x="651.5" y="-348.3" font-family="Helvetica,sans-Serif" font-size="9.00">+ updatePlayerlist()</text>
</a>
</g>
</g>
<!-- Node1&#45;&gt;Node2 -->
<g id="edge4" class="edge"><title>Node1&#45;&gt;Node2</title>
<path fill="none" stroke="#404040" d="M1013.13,-562.365C991.617,-550.049 968.884,-536.757 948,-524 936.613,-517.044 924.854,-509.695 913.122,-502.247"/>
<polygon fill="none" stroke="#404040" points="912.948,-502.136 905.738,-502.283 902.83,-495.684 910.039,-495.537 912.948,-502.136"/>
<text text-anchor="middle" x="977" y="-516.8" font-family="Helvetica,sans-Serif" font-size="9.00"> &#45;cardDealer</text>
</g>
<!-- Node2&#45;&gt;Node1 -->
<g id="edge1" class="edge"><title>Node2&#45;&gt;Node1</title>
<path fill="none" stroke="#404040" d="M932.562,-470.906C959.35,-483.207 986.321,-497.609 1010,-514 1026.1,-525.145 1041.63,-539.356 1055.31,-553.527"/>
<polygon fill="none" stroke="#404040" points="1055.35,-553.574 1062.37,-555.206 1063.57,-562.317 1056.55,-560.685 1055.35,-553.574"/>
<text text-anchor="middle" x="1047" y="-516.8" font-family="Helvetica,sans-Serif" font-size="9.00"> &#45;gameHub</text>
</g>
<!-- Node5 -->
<g id="node5" class="node"><title>Node5</title>
<g id="a_node5"><a xlink:href="../../dd/dfe/classde_1_1tu__clausthal_1_1in_1_1bachelorproject2018_1_1poker_1_1game_1_1hubs_1_1ChipsHandling.htm" target="_top" xlink:title="{de.tu_clausthal.in.bachelorproject2018.poker.game.hubs.\lChipsHandling\n|&#45; bigBlindAmount\l&#45; bigBlindIndex\l&#45; highestBidThisRound\l&#45; newRound\l&#45; playersInThisRound\l&#45; pot\l&#45; smallBlindAmount\l&#45; smallBlindIndex\l|+ ChipsHandling()\l+ addToPot()\l+ continuePlayingRound()\l+ distributePotToWinner()\l+ doubleBlinds()\l+ forceBlinds()\l+ getBigBlindAmount()\l+ getHighestBidThisRound()\l+ getNewRound()\l+ getPot()\l+ getRoundStarter()\l+ getSmallBlindAmount()\l+ nextBlind()\l+ resetHand()\l+ resetRound()\l+ somebodyHasFolded()\l+ updateWhoToAsk()\l}">
<polygon fill="none" stroke="black" points="643.5,-0.5 643.5,-294.5 932.5,-294.5 932.5,-0.5 643.5,-0.5"/>
<text text-anchor="start" x="651.5" y="-283.3" font-family="Helvetica,sans-Serif" font-size="9.00">de.tu_clausthal.in.bachelorproject2018.poker.game.hubs.</text>
<text text-anchor="middle" x="788" y="-273.3" font-family="Helvetica,sans-Serif" font-size="9.00">ChipsHandling</text>
<polyline fill="none" stroke="black" points="643.5,-266.5 932.5,-266.5 "/>
<text text-anchor="start" x="651.5" y="-255.3" font-family="Helvetica,sans-Serif" font-size="9.00">&#45; bigBlindAmount</text>
<text text-anchor="start" x="651.5" y="-245.3" font-family="Helvetica,sans-Serif" font-size="9.00">&#45; bigBlindIndex</text>
<text text-anchor="start" x="651.5" y="-235.3" font-family="Helvetica,sans-Serif" font-size="9.00">&#45; highestBidThisRound</text>
<text text-anchor="start" x="651.5" y="-225.3" font-family="Helvetica,sans-Serif" font-size="9.00">&#45; newRound</text>
<text text-anchor="start" x="651.5" y="-215.3" font-family="Helvetica,sans-Serif" font-size="9.00">&#45; playersInThisRound</text>
<text text-anchor="start" x="651.5" y="-205.3" font-family="Helvetica,sans-Serif" font-size="9.00">&#45; pot</text>
<text text-anchor="start" x="651.5" y="-195.3" font-family="Helvetica,sans-Serif" font-size="9.00">&#45; smallBlindAmount</text>
<text text-anchor="start" x="651.5" y="-185.3" font-family="Helvetica,sans-Serif" font-size="9.00">&#45; smallBlindIndex</text>
<polyline fill="none" stroke="black" points="643.5,-178.5 932.5,-178.5 "/>
<text text-anchor="start" x="651.5" y="-167.3" font-family="Helvetica,sans-Serif" font-size="9.00">+ ChipsHandling()</text>
<text text-anchor="start" x="651.5" y="-157.3" font-family="Helvetica,sans-Serif" font-size="9.00">+ addToPot()</text>
<text text-anchor="start" x="651.5" y="-147.3" font-family="Helvetica,sans-Serif" font-size="9.00">+ continuePlayingRound()</text>
<text text-anchor="start" x="651.5" y="-137.3" font-family="Helvetica,sans-Serif" font-size="9.00">+ distributePotToWinner()</text>
<text text-anchor="start" x="651.5" y="-127.3" font-family="Helvetica,sans-Serif" font-size="9.00">+ doubleBlinds()</text>
<text text-anchor="start" x="651.5" y="-117.3" font-family="Helvetica,sans-Serif" font-size="9.00">+ forceBlinds()</text>
<text text-anchor="start" x="651.5" y="-107.3" font-family="Helvetica,sans-Serif" font-size="9.00">+ getBigBlindAmount()</text>
<text text-anchor="start" x="651.5" y="-97.3" font-family="Helvetica,sans-Serif" font-size="9.00">+ getHighestBidThisRound()</text>
<text text-anchor="start" x="651.5" y="-87.3" font-family="Helvetica,sans-Serif" font-size="9.00">+ getNewRound()</text>
<text text-anchor="start" x="651.5" y="-77.3" font-family="Helvetica,sans-Serif" font-size="9.00">+ getPot()</text>
<text text-anchor="start" x="651.5" y="-67.3" font-family="Helvetica,sans-Serif" font-size="9.00">+ getRoundStarter()</text>
<text text-anchor="start" x="651.5" y="-57.3" font-family="Helvetica,sans-Serif" font-size="9.00">+ getSmallBlindAmount()</text>
<text text-anchor="start" x="651.5" y="-47.3" font-family="Helvetica,sans-Serif" font-size="9.00">+ nextBlind()</text>
<text text-anchor="start" x="651.5" y="-37.3" font-family="Helvetica,sans-Serif" font-size="9.00">+ resetHand()</text>
<text text-anchor="start" x="651.5" y="-27.3" font-family="Helvetica,sans-Serif" font-size="9.00">+ resetRound()</text>
<text text-anchor="start" x="651.5" y="-17.3" font-family="Helvetica,sans-Serif" font-size="9.00">+ somebodyHasFolded()</text>
<text text-anchor="start" x="651.5" y="-7.3" font-family="Helvetica,sans-Serif" font-size="9.00">+ updateWhoToAsk()</text>
</a>
</g>
</g>
<!-- Node2&#45;&gt;Node5 -->
<g id="edge6" class="edge"><title>Node2&#45;&gt;Node5</title>
<path fill="none" stroke="#404040" d="M752.811,-341.479C750.889,-335.317 749.24,-329.111 748,-323 746.91,-317.629 746.16,-312.17 745.708,-306.661"/>
<polygon fill="none" stroke="#404040" points="745.702,-306.523 741.445,-300.703 745.18,-294.534 749.437,-300.354 745.702,-306.523"/>
<text text-anchor="middle" x="774" y="-315.8" font-family="Helvetica,sans-Serif" font-size="9.00"> &#45;gameHub</text>
</g>
<!-- Node3 -->
<g id="node3" class="node"><title>Node3</title>
<g id="a_node3"><a xlink:href="../../dc/dda/classde_1_1tu__clausthal_1_1in_1_1bachelorproject2018_1_1poker_1_1game_1_1wincheck_1_1DetermineWinner.htm" target="_top" xlink:title="{de.tu_clausthal.in.bachelorproject2018.poker.game.wincheck.\lDetermineWinner\n||+ findWinner()\l}">
<polygon fill="none" stroke="black" points="0,-582.5 0,-646.5 308,-646.5 308,-582.5 0,-582.5"/>
<text text-anchor="start" x="8" y="-635.3" font-family="Helvetica,sans-Serif" font-size="9.00">de.tu_clausthal.in.bachelorproject2018.poker.game.wincheck.</text>
<text text-anchor="middle" x="154" y="-625.3" font-family="Helvetica,sans-Serif" font-size="9.00">DetermineWinner</text>
<polyline fill="none" stroke="black" points="0,-618.5 308,-618.5 "/>
<text text-anchor="middle" x="154" y="-607.3" font-family="Helvetica,sans-Serif" font-size="9.00"> </text>
<polyline fill="none" stroke="black" points="0,-600.5 308,-600.5 "/>
<text text-anchor="start" x="8" y="-589.3" font-family="Helvetica,sans-Serif" font-size="9.00">+ findWinner()</text>
</a>
</g>
</g>
<!-- Node3&#45;&gt;Node2 -->
<g id="edge2" class="edge"><title>Node3&#45;&gt;Node2</title>
<path fill="none" stroke="#404040" d="M218.488,-582.386C248.07,-568.852 283.864,-553.495 317,-542 420.152,-506.216 539.177,-475.345 631.768,-453.545"/>
<polygon fill="none" stroke="#404040" points="631.816,-453.534 636.746,-448.271 643.5,-450.798 638.57,-456.06 631.816,-453.534"/>
<text text-anchor="middle" x="421" y="-516.8" font-family="Helvetica,sans-Serif" font-size="9.00"> &#45;findWinner</text>
</g>
<!-- Node4 -->
<g id="node4" class="node"><title>Node4</title>
<g id="a_node4"><a xlink:href="../../d5/d36/interfacede_1_1tu__clausthal_1_1in_1_1bachelorproject2018_1_1poker_1_1game_1_1table_1_1ITable.htm" target="_top" xlink:title="Interface um einen Spieletisch darzustellen. ">
<polygon fill="none" stroke="black" points="326,-542.5 326,-686.5 616,-686.5 616,-542.5 326,-542.5"/>
<text text-anchor="start" x="334" y="-675.3" font-family="Helvetica,sans-Serif" font-size="9.00">de.tu_clausthal.in.bachelorproject2018.poker.game.table.</text>
<text text-anchor="middle" x="471" y="-665.3" font-family="Helvetica,sans-Serif" font-size="9.00">ITable</text>
<polyline fill="none" stroke="black" points="326,-658.5 616,-658.5 "/>
<text text-anchor="middle" x="471" y="-647.3" font-family="Helvetica,sans-Serif" font-size="9.00"> </text>
<polyline fill="none" stroke="black" points="326,-640.5 616,-640.5 "/>
<text text-anchor="start" x="334" y="-629.3" font-family="Helvetica,sans-Serif" font-size="9.00">+ getGameHub()</text>
<text text-anchor="start" x="334" y="-619.3" font-family="Helvetica,sans-Serif" font-size="9.00">+ getQueue()</text>
<text text-anchor="start" x="334" y="-609.3" font-family="Helvetica,sans-Serif" font-size="9.00">+ isplaying()</text>
<text text-anchor="start" x="334" y="-599.3" font-family="Helvetica,sans-Serif" font-size="9.00">+ join()</text>
<text text-anchor="start" x="334" y="-589.3" font-family="Helvetica,sans-Serif" font-size="9.00">+ leave()</text>
<text text-anchor="start" x="334" y="-579.3" font-family="Helvetica,sans-Serif" font-size="9.00">+ list()</text>
<text text-anchor="start" x="334" y="-569.3" font-family="Helvetica,sans-Serif" font-size="9.00">+ name()</text>
<text text-anchor="start" x="334" y="-559.3" font-family="Helvetica,sans-Serif" font-size="9.00">+ owner()</text>
<text text-anchor="start" x="334" y="-549.3" font-family="Helvetica,sans-Serif" font-size="9.00">+ start()</text>
</a>
</g>
</g>
<!-- Node4&#45;&gt;Node2 -->
<g id="edge3" class="edge"><title>Node4&#45;&gt;Node2</title>
<path fill="none" stroke="#404040" d="M587.239,-542.363C608.748,-529.2 631.377,-515.352 653.377,-501.887"/>
<polygon fill="none" stroke="#404040" points="653.54,-501.788 656.57,-495.244 663.776,-495.524 660.746,-502.067 653.54,-501.788"/>
<text text-anchor="middle" x="644.5" y="-516.8" font-family="Helvetica,sans-Serif" font-size="9.00"> &#45;table</text>
</g>
<!-- Node5&#45;&gt;Node2 -->
<g id="edge5" class="edge"><title>Node5&#45;&gt;Node2</title>
<path fill="none" stroke="#404040" d="M805.182,-294.637C805.142,-304.234 804.777,-313.754 804,-323 803.828,-325.052 803.634,-327.126 803.423,-329.216"/>
<polygon fill="none" stroke="#404040" points="803.403,-329.385 806.689,-335.804 802.028,-341.306 798.742,-334.887 803.403,-329.385"/>
<text text-anchor="middle" x="838" y="-315.8" font-family="Helvetica,sans-Serif" font-size="9.00"> &#45;chipsHandler</text>
</g>
<!-- Node6 -->
<g id="node6" class="node"><title>Node6</title>
<g id="a_node6"><a xlink:href="../../d7/dba/classde_1_1tu__clausthal_1_1in_1_1bachelorproject2018_1_1poker_1_1game_1_1wincheck_1_1WinnerHand.htm" target="_top" xlink:title="{de.tu_clausthal.in.bachelorproject2018.poker.game.wincheck.\lWinnerHand\n||+ getWinnerHandAsString()\l}">
<polygon fill="none" stroke="black" points="634,-582.5 634,-646.5 942,-646.5 942,-582.5 634,-582.5"/>
<text text-anchor="start" x="642" y="-635.3" font-family="Helvetica,sans-Serif" font-size="9.00">de.tu_clausthal.in.bachelorproject2018.poker.game.wincheck.</text>
<text text-anchor="middle" x="788" y="-625.3" font-family="Helvetica,sans-Serif" font-size="9.00">WinnerHand</text>
<polyline fill="none" stroke="black" points="634,-618.5 942,-618.5 "/>
<text text-anchor="middle" x="788" y="-607.3" font-family="Helvetica,sans-Serif" font-size="9.00"> </text>
<polyline fill="none" stroke="black" points="634,-600.5 942,-600.5 "/>
<text text-anchor="start" x="642" y="-589.3" font-family="Helvetica,sans-Serif" font-size="9.00">+ getWinnerHandAsString()</text>
</a>
</g>
</g>
<!-- Node6&#45;&gt;Node2 -->
<g id="edge7" class="edge"><title>Node6&#45;&gt;Node2</title>
<path fill="none" stroke="#404040" d="M788,-582.331C788,-562.082 788,-534.587 788,-507.958"/>
<polygon fill="none" stroke="#404040" points="788,-507.813 784,-501.813 788,-495.813 792,-501.813 788,-507.813"/>
<text text-anchor="middle" x="819" y="-516.8" font-family="Helvetica,sans-Serif" font-size="9.00"> &#45;winnerHand</text>
</g>
<!-- Node7 -->
<g id="node7" class="node"><title>Node7</title>
<g id="a_node7"><a xlink:href="../../d5/d01/classde_1_1tu__clausthal_1_1in_1_1bachelorproject2018_1_1poker_1_1game_1_1cards_1_1Deck.htm" target="_top" xlink:title="{de.tu_clausthal.in.bachelorproject2018.poker.game.cards.Deck\n|&#45; cards\l|+ Deck()\l+ getCards()\l+ hasNext()\l+ next()\l+ removeTopCard()\l+ showDeck()\l}">
<polygon fill="none" stroke="black" points="947.5,-733.5 947.5,-837.5 1262.5,-837.5 1262.5,-733.5 947.5,-733.5"/>
<text text-anchor="middle" x="1105" y="-826.3" font-family="Helvetica,sans-Serif" font-size="9.00">de.tu_clausthal.in.bachelorproject2018.poker.game.cards.Deck</text>
<polyline fill="none" stroke="black" points="947.5,-819.5 1262.5,-819.5 "/>
<text text-anchor="start" x="955.5" y="-808.3" font-family="Helvetica,sans-Serif" font-size="9.00">&#45; cards</text>
<polyline fill="none" stroke="black" points="947.5,-801.5 1262.5,-801.5 "/>
<text text-anchor="start" x="955.5" y="-790.3" font-family="Helvetica,sans-Serif" font-size="9.00">+ Deck()</text>
<text text-anchor="start" x="955.5" y="-780.3" font-family="Helvetica,sans-Serif" font-size="9.00">+ getCards()</text>
<text text-anchor="start" x="955.5" y="-770.3" font-family="Helvetica,sans-Serif" font-size="9.00">+ hasNext()</text>
<text text-anchor="start" x="955.5" y="-760.3" font-family="Helvetica,sans-Serif" font-size="9.00">+ next()</text>
<text text-anchor="start" x="955.5" y="-750.3" font-family="Helvetica,sans-Serif" font-size="9.00">+ removeTopCard()</text>
<text text-anchor="start" x="955.5" y="-740.3" font-family="Helvetica,sans-Serif" font-size="9.00">+ showDeck()</text>
</a>
</g>
</g>
<!-- Node7&#45;&gt;Node1 -->
<g id="edge8" class="edge"><title>Node7&#45;&gt;Node1</title>
<path fill="none" stroke="#404040" d="M1105,-733.336C1105,-716.207 1105,-696.902 1105,-678.95"/>
<polygon fill="none" stroke="#404040" points="1105,-678.782 1101,-672.782 1105,-666.782 1109,-672.782 1105,-678.782"/>
<text text-anchor="middle" x="1129.5" y="-707.8" font-family="Helvetica,sans-Serif" font-size="9.00"> &#45;playDeck</text>
</g>
</g>
</svg>
