<?xml version="1.0" encoding="UTF-8" standalone="no"?>
<!DOCTYPE svg PUBLIC "-//W3C//DTD SVG 1.1//EN"
 "http://www.w3.org/Graphics/SVG/1.1/DTD/svg11.dtd">
<!-- Generated by graphviz version 2.38.0 (20140413.2041)
 -->
<!-- Title: de.tu_clausthal.in.bachelorproject2018.poker.game.hubs.ChipsHandling Pages: 1 -->
<svg width="1258pt" height="655pt"
 viewBox="0.00 0.00 1257.50 655.00" xmlns="http://www.w3.org/2000/svg" xmlns:xlink="http://www.w3.org/1999/xlink">
<g id="graph0" class="graph" transform="scale(1 1) rotate(0) translate(4 651)">
<title>de.tu_clausthal.in.bachelorproject2018.poker.game.hubs.ChipsHandling</title>
<!-- Node1 -->
<g id="node1" class="node"><title>Node1</title>
<polygon fill="#bfbfbf" stroke="black" points="0,-352.5 0,-646.5 289,-646.5 289,-352.5 0,-352.5"/>
<text text-anchor="start" x="8" y="-635.3" font-family="Helvetica,sans-Serif" font-size="9.00">de.tu_clausthal.in.bachelorproject2018.poker.game.hubs.</text>
<text text-anchor="middle" x="144.5" y="-625.3" font-family="Helvetica,sans-Serif" font-size="9.00">ChipsHandling</text>
<polyline fill="none" stroke="black" points="0,-618.5 289,-618.5 "/>
<text text-anchor="start" x="8" y="-607.3" font-family="Helvetica,sans-Serif" font-size="9.00">&#45; bigBlindAmount</text>
<text text-anchor="start" x="8" y="-597.3" font-family="Helvetica,sans-Serif" font-size="9.00">&#45; bigBlindIndex</text>
<text text-anchor="start" x="8" y="-587.3" font-family="Helvetica,sans-Serif" font-size="9.00">&#45; highestBidThisRound</text>
<text text-anchor="start" x="8" y="-577.3" font-family="Helvetica,sans-Serif" font-size="9.00">&#45; newRound</text>
<text text-anchor="start" x="8" y="-567.3" font-family="Helvetica,sans-Serif" font-size="9.00">&#45; playersInThisRound</text>
<text text-anchor="start" x="8" y="-557.3" font-family="Helvetica,sans-Serif" font-size="9.00">&#45; pot</text>
<text text-anchor="start" x="8" y="-547.3" font-family="Helvetica,sans-Serif" font-size="9.00">&#45; smallBlindAmount</text>
<text text-anchor="start" x="8" y="-537.3" font-family="Helvetica,sans-Serif" font-size="9.00">&#45; smallBlindIndex</text>
<polyline fill="none" stroke="black" points="0,-530.5 289,-530.5 "/>
<text text-anchor="start" x="8" y="-519.3" font-family="Helvetica,sans-Serif" font-size="9.00">+ ChipsHandling()</text>
<text text-anchor="start" x="8" y="-509.3" font-family="Helvetica,sans-Serif" font-size="9.00">+ addToPot()</text>
<text text-anchor="start" x="8" y="-499.3" font-family="Helvetica,sans-Serif" font-size="9.00">+ continuePlayingRound()</text>
<text text-anchor="start" x="8" y="-489.3" font-family="Helvetica,sans-Serif" font-size="9.00">+ distributePotToWinner()</text>
<text text-anchor="start" x="8" y="-479.3" font-family="Helvetica,sans-Serif" font-size="9.00">+ doubleBlinds()</text>
<text text-anchor="start" x="8" y="-469.3" font-family="Helvetica,sans-Serif" font-size="9.00">+ forceBlinds()</text>
<text text-anchor="start" x="8" y="-459.3" font-family="Helvetica,sans-Serif" font-size="9.00">+ getBigBlindAmount()</text>
<text text-anchor="start" x="8" y="-449.3" font-family="Helvetica,sans-Serif" font-size="9.00">+ getHighestBidThisRound()</text>
<text text-anchor="start" x="8" y="-439.3" font-family="Helvetica,sans-Serif" font-size="9.00">+ getNewRound()</text>
<text text-anchor="start" x="8" y="-429.3" font-family="Helvetica,sans-Serif" font-size="9.00">+ getPot()</text>
<text text-anchor="start" x="8" y="-419.3" font-family="Helvetica,sans-Serif" font-size="9.00">+ getRoundStarter()</text>
<text text-anchor="start" x="8" y="-409.3" font-family="Helvetica,sans-Serif" font-size="9.00">+ getSmallBlindAmount()</text>
<text text-anchor="start" x="8" y="-399.3" font-family="Helvetica,sans-Serif" font-size="9.00">+ nextBlind()</text>
<text text-anchor="start" x="8" y="-389.3" font-family="Helvetica,sans-Serif" font-size="9.00">+ resetHand()</text>
<text text-anchor="start" x="8" y="-379.3" font-family="Helvetica,sans-Serif" font-size="9.00">+ resetRound()</text>
<text text-anchor="start" x="8" y="-369.3" font-family="Helvetica,sans-Serif" font-size="9.00">+ somebodyHasFolded()</text>
<text text-anchor="start" x="8" y="-359.3" font-family="Helvetica,sans-Serif" font-size="9.00">+ updateWhoToAsk()</text>
</g>
<!-- Node2 -->
<g id="node2" class="node"><title>Node2</title>
<g id="a_node2"><a xlink:href="../../da/d48/classde_1_1tu__clausthal_1_1in_1_1bachelorproject2018_1_1poker_1_1game_1_1hubs_1_1GameHub.htm" target="_top" xlink:title="{de.tu_clausthal.in.bachelorproject2018.poker.game.hubs.\lGameHub\n|&#45; chipsStartAmount\l&#45; players\l|+ GameHub()\l+ getCardDealer()\l+ getChipsHandler()\l+ getDetermineWinner()\l+ getPlayerList()\l+ getTable()\l+ getWinnerHand()\l+ startGame()\l+ updatePlayerlist()\l}">
<polygon fill="none" stroke="black" points="317,-151.5 317,-305.5 606,-305.5 606,-151.5 317,-151.5"/>
<text text-anchor="start" x="325" y="-294.3" font-family="Helvetica,sans-Serif" font-size="9.00">de.tu_clausthal.in.bachelorproject2018.poker.game.hubs.</text>
<text text-anchor="middle" x="461.5" y="-284.3" font-family="Helvetica,sans-Serif" font-size="9.00">GameHub</text>
<polyline fill="none" stroke="black" points="317,-277.5 606,-277.5 "/>
<text text-anchor="start" x="325" y="-266.3" font-family="Helvetica,sans-Serif" font-size="9.00">&#45; chipsStartAmount</text>
<text text-anchor="start" x="325" y="-256.3" font-family="Helvetica,sans-Serif" font-size="9.00">&#45; players</text>
<polyline fill="none" stroke="black" points="317,-249.5 606,-249.5 "/>
<text text-anchor="start" x="325" y="-238.3" font-family="Helvetica,sans-Serif" font-size="9.00">+ GameHub()</text>
<text text-anchor="start" x="325" y="-228.3" font-family="Helvetica,sans-Serif" font-size="9.00">+ getCardDealer()</text>
<text text-anchor="start" x="325" y="-218.3" font-family="Helvetica,sans-Serif" font-size="9.00">+ getChipsHandler()</text>
<text text-anchor="start" x="325" y="-208.3" font-family="Helvetica,sans-Serif" font-size="9.00">+ getDetermineWinner()</text>
<text text-anchor="start" x="325" y="-198.3" font-family="Helvetica,sans-Serif" font-size="9.00">+ getPlayerList()</text>
<text text-anchor="start" x="325" y="-188.3" font-family="Helvetica,sans-Serif" font-size="9.00">+ getTable()</text>
<text text-anchor="start" x="325" y="-178.3" font-family="Helvetica,sans-Serif" font-size="9.00">+ getWinnerHand()</text>
<text text-anchor="start" x="325" y="-168.3" font-family="Helvetica,sans-Serif" font-size="9.00">+ startGame()</text>
<text text-anchor="start" x="325" y="-158.3" font-family="Helvetica,sans-Serif" font-size="9.00">+ updatePlayerlist()</text>
</a>
</g>
</g>
<!-- Node1&#45;&gt;Node2 -->
<g id="edge7" class="edge"><title>Node1&#45;&gt;Node2</title>
<path fill="none" stroke="#404040" d="M225.341,-352.133C233.8,-341.997 242.862,-332.463 252.5,-324 268.532,-309.922 287.007,-297.597 306.202,-286.909"/>
<polygon fill="none" stroke="#404040" points="306.361,-286.823 309.75,-280.458 316.929,-281.138 313.54,-287.503 306.361,-286.823"/>
<text text-anchor="middle" x="286.5" y="-326.8" font-family="Helvetica,sans-Serif" font-size="9.00"> &#45;chipsHandler</text>
</g>
<!-- Node2&#45;&gt;Node1 -->
<g id="edge1" class="edge"><title>Node2&#45;&gt;Node1</title>
<path fill="none" stroke="#404040" d="M356.185,-305.831C336.69,-320.748 316.738,-336.562 298.5,-352 298.403,-352.082 298.306,-352.164 298.209,-352.246"/>
<polygon fill="none" stroke="#404040" points="298.274,-352.19 296.318,-359.131 289.159,-359.994 291.115,-353.054 298.274,-352.19"/>
<text text-anchor="middle" x="355.5" y="-326.8" font-family="Helvetica,sans-Serif" font-size="9.00"> &#45;gameHub</text>
</g>
<!-- Node5 -->
<g id="node5" class="node"><title>Node5</title>
<g id="a_node5"><a xlink:href="../../dd/d8f/classde_1_1tu__clausthal_1_1in_1_1bachelorproject2018_1_1poker_1_1game_1_1hubs_1_1CardDealer.htm" target="_top" xlink:title="{de.tu_clausthal.in.bachelorproject2018.poker.game.hubs.\lCardDealer\n|&#45; tableCards\l|+ CardDealer()\l+ firstDeckOfTheGame()\l+ getDeck()\l+ getTableCards()\l+ resetForNextRound()\l}">
<polygon fill="none" stroke="black" points="392,-0.5 392,-104.5 681,-104.5 681,-0.5 392,-0.5"/>
<text text-anchor="start" x="400" y="-93.3" font-family="Helvetica,sans-Serif" font-size="9.00">de.tu_clausthal.in.bachelorproject2018.poker.game.hubs.</text>
<text text-anchor="middle" x="536.5" y="-83.3" font-family="Helvetica,sans-Serif" font-size="9.00">CardDealer</text>
<polyline fill="none" stroke="black" points="392,-76.5 681,-76.5 "/>
<text text-anchor="start" x="400" y="-65.3" font-family="Helvetica,sans-Serif" font-size="9.00">&#45; tableCards</text>
<polyline fill="none" stroke="black" points="392,-58.5 681,-58.5 "/>
<text text-anchor="start" x="400" y="-47.3" font-family="Helvetica,sans-Serif" font-size="9.00">+ CardDealer()</text>
<text text-anchor="start" x="400" y="-37.3" font-family="Helvetica,sans-Serif" font-size="9.00">+ firstDeckOfTheGame()</text>
<text text-anchor="start" x="400" y="-27.3" font-family="Helvetica,sans-Serif" font-size="9.00">+ getDeck()</text>
<text text-anchor="start" x="400" y="-17.3" font-family="Helvetica,sans-Serif" font-size="9.00">+ getTableCards()</text>
<text text-anchor="start" x="400" y="-7.3" font-family="Helvetica,sans-Serif" font-size="9.00">+ resetForNextRound()</text>
</a>
</g>
</g>
<!-- Node2&#45;&gt;Node5 -->
<g id="edge5" class="edge"><title>Node2&#45;&gt;Node5</title>
<path fill="none" stroke="#404040" d="M451.381,-151.416C452.346,-141.581 454.527,-131.86 458.5,-123 459.766,-120.176 461.21,-117.42 462.802,-114.735"/>
<polygon fill="none" stroke="#404040" points="462.857,-114.654 462.932,-107.443 469.617,-104.739 469.542,-111.95 462.857,-114.654"/>
<text text-anchor="middle" x="484.5" y="-125.8" font-family="Helvetica,sans-Serif" font-size="9.00"> &#45;gameHub</text>
</g>
<!-- Node3 -->
<g id="node3" class="node"><title>Node3</title>
<g id="a_node3"><a xlink:href="../../dc/dda/classde_1_1tu__clausthal_1_1in_1_1bachelorproject2018_1_1poker_1_1game_1_1wincheck_1_1DetermineWinner.htm" target="_top" xlink:title="{de.tu_clausthal.in.bachelorproject2018.poker.game.wincheck.\lDetermineWinner\n||+ findWinner()\l}">
<polygon fill="none" stroke="black" points="307.5,-467.5 307.5,-531.5 615.5,-531.5 615.5,-467.5 307.5,-467.5"/>
<text text-anchor="start" x="315.5" y="-520.3" font-family="Helvetica,sans-Serif" font-size="9.00">de.tu_clausthal.in.bachelorproject2018.poker.game.wincheck.</text>
<text text-anchor="middle" x="461.5" y="-510.3" font-family="Helvetica,sans-Serif" font-size="9.00">DetermineWinner</text>
<polyline fill="none" stroke="black" points="307.5,-503.5 615.5,-503.5 "/>
<text text-anchor="middle" x="461.5" y="-492.3" font-family="Helvetica,sans-Serif" font-size="9.00"> </text>
<polyline fill="none" stroke="black" points="307.5,-485.5 615.5,-485.5 "/>
<text text-anchor="start" x="315.5" y="-474.3" font-family="Helvetica,sans-Serif" font-size="9.00">+ findWinner()</text>
</a>
</g>
</g>
<!-- Node3&#45;&gt;Node2 -->
<g id="edge2" class="edge"><title>Node3&#45;&gt;Node2</title>
<path fill="none" stroke="#404040" d="M461.5,-467.379C461.5,-431.018 461.5,-369.272 461.5,-317.8"/>
<polygon fill="none" stroke="#404040" points="461.5,-317.638 457.5,-311.638 461.5,-305.638 465.5,-311.638 461.5,-317.638"/>
<text text-anchor="middle" x="489.5" y="-326.8" font-family="Helvetica,sans-Serif" font-size="9.00"> &#45;findWinner</text>
</g>
<!-- Node4 -->
<g id="node4" class="node"><title>Node4</title>
<g id="a_node4"><a xlink:href="../../d5/d36/interfacede_1_1tu__clausthal_1_1in_1_1bachelorproject2018_1_1poker_1_1game_1_1table_1_1ITable.htm" target="_top" xlink:title="Interface um einen Spieletisch darzustellen. ">
<polygon fill="none" stroke="black" points="633.5,-427.5 633.5,-571.5 923.5,-571.5 923.5,-427.5 633.5,-427.5"/>
<text text-anchor="start" x="641.5" y="-560.3" font-family="Helvetica,sans-Serif" font-size="9.00">de.tu_clausthal.in.bachelorproject2018.poker.game.table.</text>
<text text-anchor="middle" x="778.5" y="-550.3" font-family="Helvetica,sans-Serif" font-size="9.00">ITable</text>
<polyline fill="none" stroke="black" points="633.5,-543.5 923.5,-543.5 "/>
<text text-anchor="middle" x="778.5" y="-532.3" font-family="Helvetica,sans-Serif" font-size="9.00"> </text>
<polyline fill="none" stroke="black" points="633.5,-525.5 923.5,-525.5 "/>
<text text-anchor="start" x="641.5" y="-514.3" font-family="Helvetica,sans-Serif" font-size="9.00">+ getGameHub()</text>
<text text-anchor="start" x="641.5" y="-504.3" font-family="Helvetica,sans-Serif" font-size="9.00">+ getQueue()</text>
<text text-anchor="start" x="641.5" y="-494.3" font-family="Helvetica,sans-Serif" font-size="9.00">+ isplaying()</text>
<text text-anchor="start" x="641.5" y="-484.3" font-family="Helvetica,sans-Serif" font-size="9.00">+ join()</text>
<text text-anchor="start" x="641.5" y="-474.3" font-family="Helvetica,sans-Serif" font-size="9.00">+ leave()</text>
<text text-anchor="start" x="641.5" y="-464.3" font-family="Helvetica,sans-Serif" font-size="9.00">+ list()</text>
<text text-anchor="start" x="641.5" y="-454.3" font-family="Helvetica,sans-Serif" font-size="9.00">+ name()</text>
<text text-anchor="start" x="641.5" y="-444.3" font-family="Helvetica,sans-Serif" font-size="9.00">+ owner()</text>
<text text-anchor="start" x="641.5" y="-434.3" font-family="Helvetica,sans-Serif" font-size="9.00">+ start()</text>
</a>
</g>
</g>
<!-- Node4&#45;&gt;Node2 -->
<g id="edge3" class="edge"><title>Node4&#45;&gt;Node2</title>
<path fill="none" stroke="#404040" d="M707.242,-427.415C681.732,-402.86 652.383,-375.604 624.5,-352 609.255,-339.095 592.811,-325.927 576.438,-313.24"/>
<polygon fill="none" stroke="#404040" points="576.323,-313.152 569.129,-312.66 566.815,-305.831 574.01,-306.322 576.323,-313.152"/>
<text text-anchor="middle" x="615" y="-326.8" font-family="Helvetica,sans-Serif" font-size="9.00"> &#45;table</text>
</g>
<!-- Node5&#45;&gt;Node2 -->
<g id="edge4" class="edge"><title>Node5&#45;&gt;Node2</title>
<path fill="none" stroke="#404040" d="M524.33,-104.583C521.497,-114.165 518.207,-123.995 514.5,-133 513.482,-135.473 512.413,-137.963 511.303,-140.46"/>
<polygon fill="none" stroke="#404040" points="511.262,-140.549 512.354,-147.677 506.195,-151.427 505.102,-144.299 511.262,-140.549"/>
<text text-anchor="middle" x="547.5" y="-125.8" font-family="Helvetica,sans-Serif" font-size="9.00"> &#45;cardDealer</text>
</g>
<!-- Node6 -->
<g id="node6" class="node"><title>Node6</title>
<g id="a_node6"><a xlink:href="../../d5/d01/classde_1_1tu__clausthal_1_1in_1_1bachelorproject2018_1_1poker_1_1game_1_1cards_1_1Deck.htm" target="_top" xlink:title="{de.tu_clausthal.in.bachelorproject2018.poker.game.cards.Deck\n|&#45; cards\l|+ Deck()\l+ getCards()\l+ hasNext()\l+ next()\l+ removeTopCard()\l+ showDeck()\l}">
<polygon fill="none" stroke="black" points="624,-176.5 624,-280.5 939,-280.5 939,-176.5 624,-176.5"/>
<text text-anchor="middle" x="781.5" y="-269.3" font-family="Helvetica,sans-Serif" font-size="9.00">de.tu_clausthal.in.bachelorproject2018.poker.game.cards.Deck</text>
<polyline fill="none" stroke="black" points="624,-262.5 939,-262.5 "/>
<text text-anchor="start" x="632" y="-251.3" font-family="Helvetica,sans-Serif" font-size="9.00">&#45; cards</text>
<polyline fill="none" stroke="black" points="624,-244.5 939,-244.5 "/>
<text text-anchor="start" x="632" y="-233.3" font-family="Helvetica,sans-Serif" font-size="9.00">+ Deck()</text>
<text text-anchor="start" x="632" y="-223.3" font-family="Helvetica,sans-Serif" font-size="9.00">+ getCards()</text>
<text text-anchor="start" x="632" y="-213.3" font-family="Helvetica,sans-Serif" font-size="9.00">+ hasNext()</text>
<text text-anchor="start" x="632" y="-203.3" font-family="Helvetica,sans-Serif" font-size="9.00">+ next()</text>
<text text-anchor="start" x="632" y="-193.3" font-family="Helvetica,sans-Serif" font-size="9.00">+ removeTopCard()</text>
<text text-anchor="start" x="632" y="-183.3" font-family="Helvetica,sans-Serif" font-size="9.00">+ showDeck()</text>
</a>
</g>
</g>
<!-- Node6&#45;&gt;Node5 -->
<g id="edge6" class="edge"><title>Node6&#45;&gt;Node5</title>
<path fill="none" stroke="#404040" d="M709.647,-176.47C680.978,-156.109 647.816,-132.557 618.235,-111.548"/>
<polygon fill="none" stroke="#404040" points="618.135,-111.478 610.927,-111.265 608.351,-104.529 615.559,-104.742 618.135,-111.478"/>
<text text-anchor="middle" x="669" y="-125.8" font-family="Helvetica,sans-Serif" font-size="9.00"> &#45;playDeck</text>
</g>
<!-- Node7 -->
<g id="node7" class="node"><title>Node7</title>
<g id="a_node7"><a xlink:href="../../d7/dba/classde_1_1tu__clausthal_1_1in_1_1bachelorproject2018_1_1poker_1_1game_1_1wincheck_1_1WinnerHand.htm" target="_top" xlink:title="{de.tu_clausthal.in.bachelorproject2018.poker.game.wincheck.\lWinnerHand\n||+ getWinnerHandAsString()\l}">
<polygon fill="none" stroke="black" points="941.5,-467.5 941.5,-531.5 1249.5,-531.5 1249.5,-467.5 941.5,-467.5"/>
<text text-anchor="start" x="949.5" y="-520.3" font-family="Helvetica,sans-Serif" font-size="9.00">de.tu_clausthal.in.bachelorproject2018.poker.game.wincheck.</text>
<text text-anchor="middle" x="1095.5" y="-510.3" font-family="Helvetica,sans-Serif" font-size="9.00">WinnerHand</text>
<polyline fill="none" stroke="black" points="941.5,-503.5 1249.5,-503.5 "/>
<text text-anchor="middle" x="1095.5" y="-492.3" font-family="Helvetica,sans-Serif" font-size="9.00"> </text>
<polyline fill="none" stroke="black" points="941.5,-485.5 1249.5,-485.5 "/>
<text text-anchor="start" x="949.5" y="-474.3" font-family="Helvetica,sans-Serif" font-size="9.00">+ getWinnerHandAsString()</text>
</a>
</g>
</g>
<!-- Node7&#45;&gt;Node2 -->
<g id="edge8" class="edge"><title>Node7&#45;&gt;Node2</title>
<path fill="none" stroke="#404040" d="M1070.96,-467.461C1041.88,-433.078 990.046,-378.944 932.5,-352 806.706,-293.102 753.694,-345.657 618.036,-306.84"/>
<polygon fill="none" stroke="#404040" points="617.888,-306.796 610.992,-308.902 606.395,-303.345 613.292,-301.24 617.888,-306.796"/>
<text text-anchor="middle" x="913.5" y="-326.8" font-family="Helvetica,sans-Serif" font-size="9.00"> &#45;winnerHand</text>
</g>
</g>
</svg>
