<?xml version="1.0" encoding="UTF-8" standalone="no"?>
<!DOCTYPE svg PUBLIC "-//W3C//DTD SVG 1.1//EN"
 "http://www.w3.org/Graphics/SVG/1.1/DTD/svg11.dtd">
<!-- Generated by graphviz version 2.38.0 (20140413.2041)
 -->
<!-- Title: de.tu_clausthal.in.bachelorproject2018.poker.game.table.CTable.generateround Pages: 1 -->
<!--zoomable 125 -->
<svg id="main" version="1.1" xmlns="http://www.w3.org/2000/svg" xmlns:xlink="http://www.w3.org/1999/xlink" xml:space="preserve" onload="init(evt)">
<style type="text/css"><![CDATA[
.edge:hover path { stroke: red; }
.edge:hover polygon { stroke: red; fill: red; }
]]></style>
<script type="text/javascript"><![CDATA[
var edges = document.getElementsByTagName('g');
if (edges && edges.length) {
  for (var i=0;i<edges.length;i++) {
    if (edges[i].id.substr(0,4)=='edge') {
      edges[i].setAttribute('class','edge');
    }
  }
}
]]></script>
        <defs>
                <circle id="rim" cx="0" cy="0" r="7"/>
                <circle id="rim2" cx="0" cy="0" r="3.5"/>
                <g id="zoomPlus">
                        <use xlink:href="#rim" fill="#404040">
                                <set attributeName="fill" to="#808080" begin="zoomplus.mouseover" end="zoomplus.mouseout"/>
                        </use>
                        <path d="M-4,0h8M0,-4v8" fill="none" stroke="white" stroke-width="1.5" pointer-events="none"/>
                </g>
                <g id="zoomMin">
                        <use xlink:href="#rim" fill="#404040">
                                <set attributeName="fill" to="#808080" begin="zoomminus.mouseover" end="zoomminus.mouseout"/>
                        </use>
                        <path d="M-4,0h8" fill="none" stroke="white" stroke-width="1.5" pointer-events="none"/>
                </g>
                <g id="dirArrow">
                        <path fill="none" stroke="white" stroke-width="1.5" d="M0,-3.0v7 M-2.5,-0.5L0,-3.0L2.5,-0.5"/>
                </g>
               <g id="resetDef">
                       <use xlink:href="#rim2" fill="#404040">
                               <set attributeName="fill" to="#808080" begin="reset.mouseover" end="reset.mouseout"/>
                       </use>
               </g>
        </defs>

<script type="text/javascript">
var viewWidth = 950;
var viewHeight = 125;
var sectionId = 'dynsection-8';
</script>
<script xlink:href="../../svgpan.js"/>
<svg id="graph" class="graph">
<g id="viewport">
<title>de.tu_clausthal.in.bachelorproject2018.poker.game.table.CTable.generateround</title>
<!-- Node43 -->
<g id="node1" class="node"><title>Node43</title>
<polygon fill="#bfbfbf" stroke="black" points="0,-18.2012 0,-46.2012 290,-46.2012 290,-18.2012 0,-18.2012"/>
<text text-anchor="start" x="8" y="-35.0012" font-family="Helvetica,sans-Serif" font-size="9.00">de.tu_clausthal.in.bachelorproject2018.poker.game.table.</text>
<text text-anchor="middle" x="145" y="-25.0012" font-family="Helvetica,sans-Serif" font-size="9.00">CTable.generateround</text>
</g>
<!-- Node44 -->
<g id="node2" class="node"><title>Node44</title>
<g id="a_node2"><a xlink:href="../../d2/dd9/classde_1_1tu__clausthal_1_1in_1_1bachelorproject2018_1_1poker_1_1game_1_1table_1_1CTable.htm#ac4262ba4e9012a8d37c195f2bedeb6f5" target="_top" xlink:title="Methode, die nach jeder Ausführung einer Round&#45;Action durchlaufen wird, um das Spiel ggf fortzusetzen...">
<polygon fill="none" stroke="black" points="326,-65.2012 326,-93.2012 616,-93.2012 616,-65.2012 326,-65.2012"/>
<text text-anchor="start" x="334" y="-82.0012" font-family="Helvetica,sans-Serif" font-size="9.00">de.tu_clausthal.in.bachelorproject2018.poker.game.table.</text>
<text text-anchor="middle" x="471" y="-72.0012" font-family="Helvetica,sans-Serif" font-size="9.00">CTable.postaction</text>
</a>
</g>
</g>
<!-- Node43&#45;&gt;Node44 -->
<g id="edge1" class="edge"><title>Node43&#45;&gt;Node44</title>
<path fill="none" stroke="midnightblue" d="M253.066,-47.7323C291.919,-53.3684 335.554,-59.6982 373.447,-65.195"/>
<polygon fill="midnightblue" stroke="midnightblue" points="253.171,-44.211 242.772,-46.239 252.166,-51.1385 253.171,-44.211"/>
</g>
<!-- Node47 -->
<g id="node5" class="node"><title>Node47</title>
<g id="a_node5"><a xlink:href="../../d2/dd9/classde_1_1tu__clausthal_1_1in_1_1bachelorproject2018_1_1poker_1_1game_1_1table_1_1CTable.htm#a44356981334e62a09768618f0743d1b5" target="_top" xlink:title="startet das Spiel ">
<polygon fill="none" stroke="black" points="326,-18.2012 326,-46.2012 616,-46.2012 616,-18.2012 326,-18.2012"/>
<text text-anchor="start" x="334" y="-35.0012" font-family="Helvetica,sans-Serif" font-size="9.00">de.tu_clausthal.in.bachelorproject2018.poker.game.table.</text>
<text text-anchor="middle" x="471" y="-25.0012" font-family="Helvetica,sans-Serif" font-size="9.00">CTable.start</text>
</a>
</g>
</g>
<!-- Node43&#45;&gt;Node47 -->
<g id="edge6" class="edge"><title>Node43&#45;&gt;Node47</title>
<path fill="none" stroke="midnightblue" d="M300.666,-32.2012C309.04,-32.2012 317.44,-32.2012 325.777,-32.2012"/>
<polygon fill="midnightblue" stroke="midnightblue" points="300.47,-28.7013 290.47,-32.2012 300.47,-35.7013 300.47,-28.7013"/>
</g>
<!-- Node45 -->
<g id="node3" class="node"><title>Node45</title>
<g id="a_node3"><a xlink:href="../../d2/dd9/classde_1_1tu__clausthal_1_1in_1_1bachelorproject2018_1_1poker_1_1game_1_1table_1_1CTable.htm#a763745ff3fa160c02f05117b84b092d4" target="_top" xlink:title="führe ein Element aus der ">
<polygon fill="none" stroke="black" points="652,-88.2012 652,-116.201 942,-116.201 942,-88.2012 652,-88.2012"/>
<text text-anchor="start" x="660" y="-105.001" font-family="Helvetica,sans-Serif" font-size="9.00">de.tu_clausthal.in.bachelorproject2018.poker.game.table.</text>
<text text-anchor="middle" x="797" y="-95.0012" font-family="Helvetica,sans-Serif" font-size="9.00">CTable.accept</text>
</a>
</g>
</g>
<!-- Node44&#45;&gt;Node45 -->
<g id="edge2" class="edge"><title>Node44&#45;&gt;Node45</title>
<path fill="none" stroke="midnightblue" d="M626.666,-90.1805C635.04,-90.775 643.44,-91.3713 651.777,-91.9631"/>
<polygon fill="midnightblue" stroke="midnightblue" points="626.693,-86.6737 616.47,-89.4567 626.197,-93.6561 626.693,-86.6737"/>
</g>
<!-- Node46 -->
<g id="node4" class="node"><title>Node46</title>
<g id="a_node4"><a xlink:href="../../d2/dd9/classde_1_1tu__clausthal_1_1in_1_1bachelorproject2018_1_1poker_1_1game_1_1table_1_1CTable.htm#ac36fc046548fc6b47ee44cecbfd158db" target="_top" xlink:title="führt immer einen Schritt des Spiels aus ">
<polygon fill="none" stroke="black" points="652,-41.2012 652,-69.2012 942,-69.2012 942,-41.2012 652,-41.2012"/>
<text text-anchor="start" x="660" y="-58.0012" font-family="Helvetica,sans-Serif" font-size="9.00">de.tu_clausthal.in.bachelorproject2018.poker.game.table.</text>
<text text-anchor="middle" x="797" y="-48.0012" font-family="Helvetica,sans-Serif" font-size="9.00">CTable.executestep</text>
</a>
</g>
</g>
<!-- Node44&#45;&gt;Node46 -->
<g id="edge3" class="edge"><title>Node44&#45;&gt;Node46</title>
<path fill="none" stroke="midnightblue" d="M585.503,-64.3199C606.966,-62.4785 629.68,-60.7161 651.937,-59.1594"/>
<polygon fill="midnightblue" stroke="midnightblue" points="585.065,-60.8447 575.406,-65.2002 585.673,-67.8183 585.065,-60.8447"/>
</g>
<!-- Node46&#45;&gt;Node43 -->
<g id="edge4" class="edge"><title>Node46&#45;&gt;Node43</title>
<path fill="none" stroke="midnightblue" d="M744.721,-38.0731C709.077,-27.0963 660.215,-13.8785 616,-8.20115 484.313,8.70787 330.431,-5.5199 235.591,-18.1684"/>
<polygon fill="midnightblue" stroke="midnightblue" points="743.821,-41.4586 754.41,-41.1016 745.909,-34.7774 743.821,-41.4586"/>
</g>
<!-- Node46&#45;&gt;Node44 -->
<g id="edge5" class="edge"><title>Node46&#45;&gt;Node44</title>
<path fill="none" stroke="midnightblue" d="M682.545,-70.0783C661.198,-71.91 638.613,-73.6636 616.47,-75.2144"/>
<polygon fill="midnightblue" stroke="midnightblue" points="682.928,-73.5583 692.587,-69.2027 682.32,-66.5847 682.928,-73.5583"/>
</g>
</g>
</svg>
        <g id="navigator" transform="translate(0 0)" fill="#404254">
                <rect fill="#f2f5e9" fill-opacity="0.5" stroke="#606060" stroke-width=".5" x="0" y="0" width="60" height="60"/>
                <use id="zoomplus" xlink:href="#zoomPlus" x="17" y="9" onmousedown="handleZoom(evt,'in')"/>
                <use id="zoomminus" xlink:href="#zoomMin" x="42" y="9" onmousedown="handleZoom(evt,'out')"/>
                <use id="reset" xlink:href="#resetDef" x="30" y="36" onmousedown="handleReset()"/>
                <g id="arrowUp" xlink:href="#dirArrow" transform="translate(30 24)" onmousedown="handlePan(0,-1)">
                  <use xlink:href="#rim" fill="#404040">
                        <set attributeName="fill" to="#808080" begin="arrowUp.mouseover" end="arrowUp.mouseout"/>
                  </use>
                  <path fill="none" stroke="white" stroke-width="1.5" d="M0,-3.0v7 M-2.5,-0.5L0,-3.0L2.5,-0.5"/>
                </g>
                <g id="arrowRight" xlink:href="#dirArrow" transform="rotate(90) translate(36 -43)" onmousedown="handlePan(1,0)">
                  <use xlink:href="#rim" fill="#404040">
                        <set attributeName="fill" to="#808080" begin="arrowRight.mouseover" end="arrowRight.mouseout"/>
                  </use>
                  <path fill="none" stroke="white" stroke-width="1.5" d="M0,-3.0v7 M-2.5,-0.5L0,-3.0L2.5,-0.5"/>
                </g>
                <g id="arrowDown" xlink:href="#dirArrow" transform="rotate(180) translate(-30 -48)" onmousedown="handlePan(0,1)">
                  <use xlink:href="#rim" fill="#404040">
                        <set attributeName="fill" to="#808080" begin="arrowDown.mouseover" end="arrowDown.mouseout"/>
                  </use>
                  <path fill="none" stroke="white" stroke-width="1.5" d="M0,-3.0v7 M-2.5,-0.5L0,-3.0L2.5,-0.5"/>
                </g>
                <g id="arrowLeft" xlink:href="#dirArrow" transform="rotate(270) translate(-36 17)" onmousedown="handlePan(-1,0)">
                  <use xlink:href="#rim" fill="#404040">
                        <set attributeName="fill" to="#808080" begin="arrowLeft.mouseover" end="arrowLeft.mouseout"/>
                  </use>
                  <path fill="none" stroke="white" stroke-width="1.5" d="M0,-3.0v7 M-2.5,-0.5L0,-3.0L2.5,-0.5"/>
                </g>
        </g>
        <svg viewBox="0 0 15 15" width="100%" height="30px" preserveAspectRatio="xMaxYMin meet">
         <g id="arrow_out" transform="scale(0.3 0.3)">
          <a xlink:href="classde_1_1tu__clausthal_1_1in_1_1bachelorproject2018_1_1poker_1_1game_1_1table_1_1CTable_ad0183995fab983da1c6c6609c0b32b5e_icgraph_org.svg" target="_base">
           <rect id="button" ry="5" rx="5" y="6" x="6" height="38" width="38"
                fill="#f2f5e9" fill-opacity="0.5" stroke="#606060" stroke-width="1.0"/>
           <path id="arrow"
             d="M 11.500037,31.436501 C 11.940474,20.09759 22.043105,11.32322 32.158766,21.979434 L 37.068811,17.246167 C 37.068811,17.246167 37.088388,32 37.088388,32 L 22.160133,31.978069 C 22.160133,31.978069 26.997745,27.140456 26.997745,27.140456 C 18.528582,18.264221 13.291696,25.230495 11.500037,31.436501 z"
             style="fill:#404040;"/>
          </a>
         </g>
        </svg>
</svg>
