<?xml version="1.0" encoding="UTF-8" standalone="no"?>
<!DOCTYPE svg PUBLIC "-//W3C//DTD SVG 1.1//EN"
 "http://www.w3.org/Graphics/SVG/1.1/DTD/svg11.dtd">
<!-- Generated by graphviz version 2.38.0 (20140413.2041)
 -->
<!-- Title: de.tu_clausthal.in.bachelorproject2018.poker.game.table.CTable.postaction Pages: 1 -->
<svg width="1276pt" height="106pt"
 viewBox="0.00 0.00 1276.00 106.00" xmlns="http://www.w3.org/2000/svg" xmlns:xlink="http://www.w3.org/1999/xlink">
<g id="graph0" class="graph" transform="scale(1 1) rotate(0) translate(4 102)">
<title>de.tu_clausthal.in.bachelorproject2018.poker.game.table.CTable.postaction</title>
<!-- Node87 -->
<g id="node1" class="node"><title>Node87</title>
<polygon fill="#bfbfbf" stroke="black" points="0,-22.5 0,-50.5 290,-50.5 290,-22.5 0,-22.5"/>
<text text-anchor="start" x="8" y="-39.3" font-family="Helvetica,sans-Serif" font-size="9.00">de.tu_clausthal.in.bachelorproject2018.poker.game.table.</text>
<text text-anchor="middle" x="145" y="-29.3" font-family="Helvetica,sans-Serif" font-size="9.00">CTable.postaction</text>
</g>
<!-- Node88 -->
<g id="node2" class="node"><title>Node88</title>
<g id="a_node2"><a xlink:href="../../d2/dd9/classde_1_1tu__clausthal_1_1in_1_1bachelorproject2018_1_1poker_1_1game_1_1table_1_1CTable.htm#a763745ff3fa160c02f05117b84b092d4" target="_top" xlink:title="führe ein Element aus der ">
<polygon fill="none" stroke="black" points="326,-69.5 326,-97.5 616,-97.5 616,-69.5 326,-69.5"/>
<text text-anchor="start" x="334" y="-86.3" font-family="Helvetica,sans-Serif" font-size="9.00">de.tu_clausthal.in.bachelorproject2018.poker.game.table.</text>
<text text-anchor="middle" x="471" y="-76.3" font-family="Helvetica,sans-Serif" font-size="9.00">CTable.accept</text>
</a>
</g>
</g>
<!-- Node87&#45;&gt;Node88 -->
<g id="edge1" class="edge"><title>Node87&#45;&gt;Node88</title>
<path fill="none" stroke="midnightblue" d="M253.066,-52.0311C291.919,-57.6673 335.554,-63.9971 373.447,-69.4939"/>
<polygon fill="midnightblue" stroke="midnightblue" points="253.171,-48.5098 242.772,-50.5379 252.166,-55.4373 253.171,-48.5098"/>
</g>
<!-- Node89 -->
<g id="node3" class="node"><title>Node89</title>
<g id="a_node3"><a xlink:href="../../d2/dd9/classde_1_1tu__clausthal_1_1in_1_1bachelorproject2018_1_1poker_1_1game_1_1table_1_1CTable.htm#ac36fc046548fc6b47ee44cecbfd158db" target="_top" xlink:title="führt immer einen Schritt des Spiels aus ">
<polygon fill="none" stroke="black" points="326,-22.5 326,-50.5 616,-50.5 616,-22.5 326,-22.5"/>
<text text-anchor="start" x="334" y="-39.3" font-family="Helvetica,sans-Serif" font-size="9.00">de.tu_clausthal.in.bachelorproject2018.poker.game.table.</text>
<text text-anchor="middle" x="471" y="-29.3" font-family="Helvetica,sans-Serif" font-size="9.00">CTable.executestep</text>
</a>
</g>
</g>
<!-- Node87&#45;&gt;Node89 -->
<g id="edge2" class="edge"><title>Node87&#45;&gt;Node89</title>
<path fill="none" stroke="midnightblue" d="M300.666,-29.7562C309.04,-29.7421 317.44,-29.7521 325.777,-29.7863"/>
<polygon fill="midnightblue" stroke="midnightblue" points="300.46,-26.2566 290.47,-29.7853 300.48,-33.2566 300.46,-26.2566"/>
</g>
<!-- Node89&#45;&gt;Node87 -->
<g id="edge6" class="edge"><title>Node89&#45;&gt;Node87</title>
<path fill="none" stroke="midnightblue" d="M315.582,-43.2434C307.209,-43.258 298.808,-43.2484 290.47,-43.2147"/>
<polygon fill="midnightblue" stroke="midnightblue" points="315.787,-46.7429 325.777,-43.2137 315.766,-39.743 315.787,-46.7429"/>
</g>
<!-- Node90 -->
<g id="node4" class="node"><title>Node90</title>
<g id="a_node4"><a xlink:href="../../d2/dd9/classde_1_1tu__clausthal_1_1in_1_1bachelorproject2018_1_1poker_1_1game_1_1table_1_1CTable.htm#ad0183995fab983da1c6c6609c0b32b5e" target="_top" xlink:title="Methode um eine neue Runde zu bauen. ">
<polygon fill="none" stroke="black" points="652,-0.5 652,-28.5 942,-28.5 942,-0.5 652,-0.5"/>
<text text-anchor="start" x="660" y="-17.3" font-family="Helvetica,sans-Serif" font-size="9.00">de.tu_clausthal.in.bachelorproject2018.poker.game.table.</text>
<text text-anchor="middle" x="797" y="-7.3" font-family="Helvetica,sans-Serif" font-size="9.00">CTable.generateround</text>
</a>
</g>
</g>
<!-- Node89&#45;&gt;Node90 -->
<g id="edge3" class="edge"><title>Node89&#45;&gt;Node90</title>
<path fill="none" stroke="midnightblue" d="M626.666,-25.998C635.04,-25.4294 643.44,-24.859 651.777,-24.2929"/>
<polygon fill="midnightblue" stroke="midnightblue" points="626.21,-22.5208 616.47,-26.6903 626.684,-29.5047 626.21,-22.5208"/>
</g>
<!-- Node90&#45;&gt;Node87 -->
<g id="edge4" class="edge"><title>Node90&#45;&gt;Node87</title>
<path fill="none" stroke="midnightblue" d="M641.651,-9.07788C549.861,-7.12266 431.177,-6.80756 326,-13.5 297.232,-15.3305 266.033,-18.7908 237.817,-22.4819"/>
<polygon fill="midnightblue" stroke="midnightblue" points="641.783,-12.5816 651.859,-9.3044 641.939,-5.5833 641.783,-12.5816"/>
</g>
<!-- Node91 -->
<g id="node5" class="node"><title>Node91</title>
<g id="a_node5"><a xlink:href="../../d2/dd9/classde_1_1tu__clausthal_1_1in_1_1bachelorproject2018_1_1poker_1_1game_1_1table_1_1CTable.htm#a44356981334e62a09768618f0743d1b5" target="_top" xlink:title="startet das Spiel ">
<polygon fill="none" stroke="black" points="978,-0.5 978,-28.5 1268,-28.5 1268,-0.5 978,-0.5"/>
<text text-anchor="start" x="986" y="-17.3" font-family="Helvetica,sans-Serif" font-size="9.00">de.tu_clausthal.in.bachelorproject2018.poker.game.table.</text>
<text text-anchor="middle" x="1123" y="-7.3" font-family="Helvetica,sans-Serif" font-size="9.00">CTable.start</text>
</a>
</g>
</g>
<!-- Node90&#45;&gt;Node91 -->
<g id="edge5" class="edge"><title>Node90&#45;&gt;Node91</title>
<path fill="none" stroke="midnightblue" d="M952.666,-14.5C961.04,-14.5 969.44,-14.5 977.777,-14.5"/>
<polygon fill="midnightblue" stroke="midnightblue" points="952.47,-11.0001 942.47,-14.5 952.47,-18.0001 952.47,-11.0001"/>
</g>
</g>
</svg>
