<?xml version="1.0" encoding="UTF-8" standalone="no"?>
<!DOCTYPE svg PUBLIC "-//W3C//DTD SVG 1.1//EN"
 "http://www.w3.org/Graphics/SVG/1.1/DTD/svg11.dtd">
<!-- Generated by graphviz version 2.38.0 (20140413.2041)
 -->
<!-- Title: de.tu_clausthal.in.bachelorproject2018.poker.game.table.CTable.postaction Pages: 1 -->
<!--zoomable 170 -->
<svg id="main" version="1.1" xmlns="http://www.w3.org/2000/svg" xmlns:xlink="http://www.w3.org/1999/xlink" xml:space="preserve" onload="init(evt)">
<style type="text/css"><![CDATA[
.edge:hover path { stroke: red; }
.edge:hover polygon { stroke: red; fill: red; }
]]></style>
<script type="text/javascript"><![CDATA[
var edges = document.getElementsByTagName('g');
if (edges && edges.length) {
  for (var i=0;i<edges.length;i++) {
    if (edges[i].id.substr(0,4)=='edge') {
      edges[i].setAttribute('class','edge');
    }
  }
}
]]></script>
        <defs>
                <circle id="rim" cx="0" cy="0" r="7"/>
                <circle id="rim2" cx="0" cy="0" r="3.5"/>
                <g id="zoomPlus">
                        <use xlink:href="#rim" fill="#404040">
                                <set attributeName="fill" to="#808080" begin="zoomplus.mouseover" end="zoomplus.mouseout"/>
                        </use>
                        <path d="M-4,0h8M0,-4v8" fill="none" stroke="white" stroke-width="1.5" pointer-events="none"/>
                </g>
                <g id="zoomMin">
                        <use xlink:href="#rim" fill="#404040">
                                <set attributeName="fill" to="#808080" begin="zoomminus.mouseover" end="zoomminus.mouseout"/>
                        </use>
                        <path d="M-4,0h8" fill="none" stroke="white" stroke-width="1.5" pointer-events="none"/>
                </g>
                <g id="dirArrow">
                        <path fill="none" stroke="white" stroke-width="1.5" d="M0,-3.0v7 M-2.5,-0.5L0,-3.0L2.5,-0.5"/>
                </g>
               <g id="resetDef">
                       <use xlink:href="#rim2" fill="#404040">
                               <set attributeName="fill" to="#808080" begin="reset.mouseover" end="reset.mouseout"/>
                       </use>
               </g>
        </defs>

<script type="text/javascript">
var viewWidth = 2255;
var viewHeight = 170;
var sectionId = 'dynsection-15';
</script>
<script xlink:href="../../svgpan.js"/>
<svg id="graph" class="graph">
<g id="viewport">
<title>de.tu_clausthal.in.bachelorproject2018.poker.game.table.CTable.postaction</title>
<!-- Node77 -->
<g id="node1" class="node"><title>Node77</title>
<polygon fill="#bfbfbf" stroke="black" points="0,-116.5 0,-144.5 290,-144.5 290,-116.5 0,-116.5"/>
<text text-anchor="start" x="8" y="-133.3" font-family="Helvetica,sans-Serif" font-size="9.00">de.tu_clausthal.in.bachelorproject2018.poker.game.table.</text>
<text text-anchor="middle" x="145" y="-123.3" font-family="Helvetica,sans-Serif" font-size="9.00">CTable.postaction</text>
</g>
<!-- Node78 -->
<g id="node2" class="node"><title>Node78</title>
<g id="a_node2"><a xlink:href="../../d2/dd9/classde_1_1tu__clausthal_1_1in_1_1bachelorproject2018_1_1poker_1_1game_1_1table_1_1CTable.htm#ac36fc046548fc6b47ee44cecbfd158db" target="_top" xlink:title="führt immer einen Schritt des Spiels aus ">
<polygon fill="none" stroke="black" points="653.5,-116.5 653.5,-144.5 943.5,-144.5 943.5,-116.5 653.5,-116.5"/>
<text text-anchor="start" x="661.5" y="-133.3" font-family="Helvetica,sans-Serif" font-size="9.00">de.tu_clausthal.in.bachelorproject2018.poker.game.table.</text>
<text text-anchor="middle" x="798.5" y="-123.3" font-family="Helvetica,sans-Serif" font-size="9.00">CTable.executestep</text>
</a>
</g>
</g>
<!-- Node77&#45;&gt;Node78 -->
<g id="edge1" class="edge"><title>Node77&#45;&gt;Node78</title>
<path fill="none" stroke="midnightblue" d="M290.185,-124.785C394.845,-123.448 536.247,-123.406 643.181,-124.661"/>
<polygon fill="midnightblue" stroke="midnightblue" points="643.377,-128.164 653.42,-124.786 643.463,-121.164 643.377,-128.164"/>
</g>
<!-- Node79 -->
<g id="node3" class="node"><title>Node79</title>
<g id="a_node3"><a xlink:href="../../d2/dd9/classde_1_1tu__clausthal_1_1in_1_1bachelorproject2018_1_1poker_1_1game_1_1table_1_1CTable.htm#ad0183995fab983da1c6c6609c0b32b5e" target="_top" xlink:title="Methode um eine neue Runde zu bauen. ">
<polygon fill="none" stroke="black" points="326,-64.5 326,-92.5 616,-92.5 616,-64.5 326,-64.5"/>
<text text-anchor="start" x="334" y="-81.3" font-family="Helvetica,sans-Serif" font-size="9.00">de.tu_clausthal.in.bachelorproject2018.poker.game.table.</text>
<text text-anchor="middle" x="471" y="-71.3" font-family="Helvetica,sans-Serif" font-size="9.00">CTable.generateround</text>
</a>
</g>
</g>
<!-- Node77&#45;&gt;Node79 -->
<g id="edge3" class="edge"><title>Node77&#45;&gt;Node79</title>
<path fill="none" stroke="midnightblue" d="M233.252,-116.497C276.292,-109.589 328.348,-101.234 372.674,-94.1201"/>
<polygon fill="midnightblue" stroke="midnightblue" points="373.273,-97.569 382.592,-92.5285 372.164,-90.6574 373.273,-97.569"/>
</g>
<!-- Node78&#45;&gt;Node77 -->
<g id="edge2" class="edge"><title>Node78&#45;&gt;Node77</title>
<path fill="none" stroke="midnightblue" d="M653.42,-136.214C548.783,-137.552 407.382,-137.594 300.426,-136.34"/>
<polygon fill="midnightblue" stroke="midnightblue" points="300.227,-132.838 290.185,-136.215 300.141,-139.837 300.227,-132.838"/>
</g>
<!-- Node79&#45;&gt;Node78 -->
<g id="edge4" class="edge"><title>Node79&#45;&gt;Node78</title>
<path fill="none" stroke="midnightblue" d="M559.656,-92.5034C602.895,-99.4111 655.192,-107.766 699.724,-114.88"/>
<polygon fill="midnightblue" stroke="midnightblue" points="699.26,-118.35 709.687,-116.472 700.365,-111.438 699.26,-118.35"/>
</g>
<!-- Node80 -->
<g id="node4" class="node"><title>Node80</title>
<g id="a_node4"><a xlink:href="../../d3/dc7/enumde_1_1tu__clausthal_1_1in_1_1bachelorproject2018_1_1poker_1_1game_1_1round_1_1ERound.htm#aaf9a5e22dad6f81c01b993edf3bc5bce" target="_top" xlink:title="factory round objects ">
<polygon fill="none" stroke="black" points="652,-64.5 652,-92.5 945,-92.5 945,-64.5 652,-64.5"/>
<text text-anchor="start" x="660" y="-81.3" font-family="Helvetica,sans-Serif" font-size="9.00">de.tu_clausthal.in.bachelorproject2018.poker.game.round.</text>
<text text-anchor="middle" x="798.5" y="-71.3" font-family="Helvetica,sans-Serif" font-size="9.00">ERound.factory</text>
</a>
</g>
</g>
<!-- Node79&#45;&gt;Node80 -->
<g id="edge5" class="edge"><title>Node79&#45;&gt;Node80</title>
<path fill="none" stroke="midnightblue" d="M616.191,-78.5C624.685,-78.5 633.248,-78.5 641.785,-78.5"/>
<polygon fill="midnightblue" stroke="midnightblue" points="641.789,-82.0001 651.789,-78.5 641.789,-75.0001 641.789,-82.0001"/>
</g>
<!-- Node81 -->
<g id="node5" class="node"><title>Node81</title>
<g id="a_node5"><a xlink:href="../../da/d48/classde_1_1tu__clausthal_1_1in_1_1bachelorproject2018_1_1poker_1_1game_1_1hubs_1_1GameHub.htm#a70d72ce0a72b5c0e490bf935258b69f4" target="_top" xlink:title="getter for the chipsHandler ">
<polygon fill="none" stroke="black" points="981.5,-133.5 981.5,-161.5 1270.5,-161.5 1270.5,-133.5 981.5,-133.5"/>
<text text-anchor="start" x="989.5" y="-150.3" font-family="Helvetica,sans-Serif" font-size="9.00">de.tu_clausthal.in.bachelorproject2018.poker.game.hubs.</text>
<text text-anchor="middle" x="1126" y="-140.3" font-family="Helvetica,sans-Serif" font-size="9.00">GameHub.getChipsHandler</text>
</a>
</g>
</g>
<!-- Node80&#45;&gt;Node81 -->
<g id="edge6" class="edge"><title>Node80&#45;&gt;Node81</title>
<path fill="none" stroke="midnightblue" d="M888.112,-92.5687C907.108,-96.5785 926.901,-101.523 945,-107.5 961.802,-113.048 964.095,-119.275 981,-124.5 989.172,-127.026 997.695,-129.286 1006.33,-131.306"/>
<polygon fill="midnightblue" stroke="midnightblue" points="1005.6,-134.728 1016.12,-133.486 1007.12,-127.896 1005.6,-134.728"/>
</g>
<!-- Node82 -->
<g id="node6" class="node"><title>Node82</title>
<g id="a_node6"><a xlink:href="../../d2/dd9/classde_1_1tu__clausthal_1_1in_1_1bachelorproject2018_1_1poker_1_1game_1_1table_1_1CTable.htm#ac7e661dcdd5fee36ea4e88c89649907a" target="_top" xlink:title="de.tu_clausthal.in.bachelorproject2018.poker.game.table.\lCTable.getGameHub">
<polygon fill="none" stroke="black" points="981,-86.5 981,-114.5 1271,-114.5 1271,-86.5 981,-86.5"/>
<text text-anchor="start" x="989" y="-103.3" font-family="Helvetica,sans-Serif" font-size="9.00">de.tu_clausthal.in.bachelorproject2018.poker.game.table.</text>
<text text-anchor="middle" x="1126" y="-93.3" font-family="Helvetica,sans-Serif" font-size="9.00">CTable.getGameHub</text>
</a>
</g>
</g>
<!-- Node80&#45;&gt;Node82 -->
<g id="edge7" class="edge"><title>Node80&#45;&gt;Node82</title>
<path fill="none" stroke="midnightblue" d="M945.113,-88.3418C953.63,-88.9174 962.209,-89.4972 970.758,-90.075"/>
<polygon fill="midnightblue" stroke="midnightblue" points="970.559,-93.5695 980.772,-90.7519 971.031,-86.5854 970.559,-93.5695"/>
</g>
<!-- Node83 -->
<g id="node7" class="node"><title>Node83</title>
<g id="a_node7"><a xlink:href="../../da/d48/classde_1_1tu__clausthal_1_1in_1_1bachelorproject2018_1_1poker_1_1game_1_1hubs_1_1GameHub.htm#a2f65b057de245146843c2f5c3bbe30f1" target="_top" xlink:title="getter for the playerlist ">
<polygon fill="none" stroke="black" points="1307,-21.5 1307,-49.5 1596,-49.5 1596,-21.5 1307,-21.5"/>
<text text-anchor="start" x="1315" y="-38.3" font-family="Helvetica,sans-Serif" font-size="9.00">de.tu_clausthal.in.bachelorproject2018.poker.game.hubs.</text>
<text text-anchor="middle" x="1451.5" y="-28.3" font-family="Helvetica,sans-Serif" font-size="9.00">GameHub.getPlayerList</text>
</a>
</g>
</g>
<!-- Node80&#45;&gt;Node83 -->
<g id="edge8" class="edge"><title>Node80&#45;&gt;Node83</title>
<path fill="none" stroke="midnightblue" d="M945.192,-68.8767C1049.76,-61.9696 1190.41,-52.6793 1296.77,-45.6541"/>
<polygon fill="midnightblue" stroke="midnightblue" points="1297.21,-49.133 1306.96,-44.9814 1296.75,-42.1482 1297.21,-49.133"/>
</g>
<!-- Node86 -->
<g id="node10" class="node"><title>Node86</title>
<g id="a_node10"><a xlink:href="../../dd/dfe/classde_1_1tu__clausthal_1_1in_1_1bachelorproject2018_1_1poker_1_1game_1_1hubs_1_1ChipsHandling.htm#a9ae90b277f875f8e03844dc16e2b99a3" target="_top" xlink:title="check who starts the round should be the player next to bigBlind, but if bigBlind is highest index of...">
<polygon fill="none" stroke="black" points="981.5,-0.5 981.5,-28.5 1270.5,-28.5 1270.5,-0.5 981.5,-0.5"/>
<text text-anchor="start" x="989.5" y="-17.3" font-family="Helvetica,sans-Serif" font-size="9.00">de.tu_clausthal.in.bachelorproject2018.poker.game.hubs.</text>
<text text-anchor="middle" x="1126" y="-7.3" font-family="Helvetica,sans-Serif" font-size="9.00">ChipsHandling.getRoundStarter</text>
</a>
</g>
</g>
<!-- Node80&#45;&gt;Node86 -->
<g id="edge11" class="edge"><title>Node80&#45;&gt;Node86</title>
<path fill="none" stroke="midnightblue" d="M870.932,-64.4549C921.917,-54.4302 990.58,-40.9297 1043.67,-30.4907"/>
<polygon fill="midnightblue" stroke="midnightblue" points="1044.6,-33.8759 1053.73,-28.5123 1043.25,-27.0074 1044.6,-33.8759"/>
</g>
<!-- Node84 -->
<g id="node8" class="node"><title>Node84</title>
<g id="a_node8"><a xlink:href="../../da/d48/classde_1_1tu__clausthal_1_1in_1_1bachelorproject2018_1_1poker_1_1game_1_1hubs_1_1GameHub.htm#a779929edeff8f64a359c53d09be3ca06" target="_top" xlink:title="zieht sich die aktuelle playerList vom Table ">
<polygon fill="none" stroke="black" points="1632,-21.5 1632,-49.5 1921,-49.5 1921,-21.5 1632,-21.5"/>
<text text-anchor="start" x="1640" y="-38.3" font-family="Helvetica,sans-Serif" font-size="9.00">de.tu_clausthal.in.bachelorproject2018.poker.game.hubs.</text>
<text text-anchor="middle" x="1776.5" y="-28.3" font-family="Helvetica,sans-Serif" font-size="9.00">GameHub.updatePlayerlist</text>
</a>
</g>
</g>
<!-- Node83&#45;&gt;Node84 -->
<g id="edge9" class="edge"><title>Node83&#45;&gt;Node84</title>
<path fill="none" stroke="midnightblue" d="M1596.05,-35.5C1604.59,-35.5 1613.2,-35.5 1621.77,-35.5"/>
<polygon fill="midnightblue" stroke="midnightblue" points="1621.82,-39.0001 1631.82,-35.5 1621.82,-32.0001 1621.82,-39.0001"/>
</g>
<!-- Node85 -->
<g id="node9" class="node"><title>Node85</title>
<g id="a_node9"><a xlink:href="../../d5/d36/interfacede_1_1tu__clausthal_1_1in_1_1bachelorproject2018_1_1poker_1_1game_1_1table_1_1ITable.htm#a6e42c7daa9c258015750347f2a5542fe" target="_top" xlink:title="liefert alle Spieler des Tisches ">
<polygon fill="none" stroke="black" points="1957,-21.5 1957,-49.5 2247,-49.5 2247,-21.5 1957,-21.5"/>
<text text-anchor="start" x="1965" y="-38.3" font-family="Helvetica,sans-Serif" font-size="9.00">de.tu_clausthal.in.bachelorproject2018.poker.game.table.</text>
<text text-anchor="middle" x="2102" y="-28.3" font-family="Helvetica,sans-Serif" font-size="9.00">ITable.list</text>
</a>
</g>
</g>
<!-- Node84&#45;&gt;Node85 -->
<g id="edge10" class="edge"><title>Node84&#45;&gt;Node85</title>
<path fill="none" stroke="midnightblue" d="M1921.28,-35.5C1929.67,-35.5 1938.14,-35.5 1946.57,-35.5"/>
<polygon fill="midnightblue" stroke="midnightblue" points="1946.85,-39.0001 1956.84,-35.5 1946.84,-32.0001 1946.85,-39.0001"/>
</g>
<!-- Node86&#45;&gt;Node83 -->
<g id="edge12" class="edge"><title>Node86&#45;&gt;Node83</title>
<path fill="none" stroke="midnightblue" d="M1270.78,-23.8332C1279.39,-24.3922 1288.07,-24.9557 1296.72,-25.5172"/>
<polygon fill="midnightblue" stroke="midnightblue" points="1296.65,-29.0198 1306.85,-26.175 1297.1,-22.0345 1296.65,-29.0198"/>
</g>
</g>
</svg>
        <g id="navigator" transform="translate(0 0)" fill="#404254">
                <rect fill="#f2f5e9" fill-opacity="0.5" stroke="#606060" stroke-width=".5" x="0" y="0" width="60" height="60"/>
                <use id="zoomplus" xlink:href="#zoomPlus" x="17" y="9" onmousedown="handleZoom(evt,'in')"/>
                <use id="zoomminus" xlink:href="#zoomMin" x="42" y="9" onmousedown="handleZoom(evt,'out')"/>
                <use id="reset" xlink:href="#resetDef" x="30" y="36" onmousedown="handleReset()"/>
                <g id="arrowUp" xlink:href="#dirArrow" transform="translate(30 24)" onmousedown="handlePan(0,-1)">
                  <use xlink:href="#rim" fill="#404040">
                        <set attributeName="fill" to="#808080" begin="arrowUp.mouseover" end="arrowUp.mouseout"/>
                  </use>
                  <path fill="none" stroke="white" stroke-width="1.5" d="M0,-3.0v7 M-2.5,-0.5L0,-3.0L2.5,-0.5"/>
                </g>
                <g id="arrowRight" xlink:href="#dirArrow" transform="rotate(90) translate(36 -43)" onmousedown="handlePan(1,0)">
                  <use xlink:href="#rim" fill="#404040">
                        <set attributeName="fill" to="#808080" begin="arrowRight.mouseover" end="arrowRight.mouseout"/>
                  </use>
                  <path fill="none" stroke="white" stroke-width="1.5" d="M0,-3.0v7 M-2.5,-0.5L0,-3.0L2.5,-0.5"/>
                </g>
                <g id="arrowDown" xlink:href="#dirArrow" transform="rotate(180) translate(-30 -48)" onmousedown="handlePan(0,1)">
                  <use xlink:href="#rim" fill="#404040">
                        <set attributeName="fill" to="#808080" begin="arrowDown.mouseover" end="arrowDown.mouseout"/>
                  </use>
                  <path fill="none" stroke="white" stroke-width="1.5" d="M0,-3.0v7 M-2.5,-0.5L0,-3.0L2.5,-0.5"/>
                </g>
                <g id="arrowLeft" xlink:href="#dirArrow" transform="rotate(270) translate(-36 17)" onmousedown="handlePan(-1,0)">
                  <use xlink:href="#rim" fill="#404040">
                        <set attributeName="fill" to="#808080" begin="arrowLeft.mouseover" end="arrowLeft.mouseout"/>
                  </use>
                  <path fill="none" stroke="white" stroke-width="1.5" d="M0,-3.0v7 M-2.5,-0.5L0,-3.0L2.5,-0.5"/>
                </g>
        </g>
        <svg viewBox="0 0 15 15" width="100%" height="30px" preserveAspectRatio="xMaxYMin meet">
         <g id="arrow_out" transform="scale(0.3 0.3)">
          <a xlink:href="classde_1_1tu__clausthal_1_1in_1_1bachelorproject2018_1_1poker_1_1game_1_1table_1_1CTable_ac4262ba4e9012a8d37c195f2bedeb6f5_cgraph_org.svg" target="_base">
           <rect id="button" ry="5" rx="5" y="6" x="6" height="38" width="38"
                fill="#f2f5e9" fill-opacity="0.5" stroke="#606060" stroke-width="1.0"/>
           <path id="arrow"
             d="M 11.500037,31.436501 C 11.940474,20.09759 22.043105,11.32322 32.158766,21.979434 L 37.068811,17.246167 C 37.068811,17.246167 37.088388,32 37.088388,32 L 22.160133,31.978069 C 22.160133,31.978069 26.997745,27.140456 26.997745,27.140456 C 18.528582,18.264221 13.291696,25.230495 11.500037,31.436501 z"
             style="fill:#404040;"/>
          </a>
         </g>
        </svg>
</svg>
