<?xml version="1.0" encoding="UTF-8" standalone="no"?>
<!DOCTYPE svg PUBLIC "-//W3C//DTD SVG 1.1//EN"
 "http://www.w3.org/Graphics/SVG/1.1/DTD/svg11.dtd">
<!-- Generated by graphviz version 2.38.0 (20140413.2041)
 -->
<!-- Title: de.tu_clausthal.in.bachelorproject2018.poker.game.table.CTable.accept Pages: 1 -->
<svg width="2581pt" height="170pt"
 viewBox="0.00 0.00 2581.00 170.00" xmlns="http://www.w3.org/2000/svg" xmlns:xlink="http://www.w3.org/1999/xlink">
<g id="graph0" class="graph" transform="scale(1 1) rotate(0) translate(4 166)">
<title>de.tu_clausthal.in.bachelorproject2018.poker.game.table.CTable.accept</title>
<!-- Node3 -->
<g id="node1" class="node"><title>Node3</title>
<polygon fill="#bfbfbf" stroke="black" points="0,-116.5 0,-144.5 290,-144.5 290,-116.5 0,-116.5"/>
<text text-anchor="start" x="8" y="-133.3" font-family="Helvetica,sans-Serif" font-size="9.00">de.tu_clausthal.in.bachelorproject2018.poker.game.table.</text>
<text text-anchor="middle" x="145" y="-123.3" font-family="Helvetica,sans-Serif" font-size="9.00">CTable.accept</text>
</g>
<!-- Node4 -->
<g id="node2" class="node"><title>Node4</title>
<g id="a_node2"><a xlink:href="../../d2/dd9/classde_1_1tu__clausthal_1_1in_1_1bachelorproject2018_1_1poker_1_1game_1_1table_1_1CTable.htm#ac4262ba4e9012a8d37c195f2bedeb6f5" target="_top" xlink:title="Methode, die nach jeder Ausführung einer Round&#45;Action durchlaufen wird, um das Spiel ggf fortzusetzen...">
<polygon fill="none" stroke="black" points="326,-116.5 326,-144.5 616,-144.5 616,-116.5 326,-116.5"/>
<text text-anchor="start" x="334" y="-133.3" font-family="Helvetica,sans-Serif" font-size="9.00">de.tu_clausthal.in.bachelorproject2018.poker.game.table.</text>
<text text-anchor="middle" x="471" y="-123.3" font-family="Helvetica,sans-Serif" font-size="9.00">CTable.postaction</text>
</a>
</g>
</g>
<!-- Node3&#45;&gt;Node4 -->
<g id="edge1" class="edge"><title>Node3&#45;&gt;Node4</title>
<path fill="none" stroke="midnightblue" d="M290.47,-130.5C298.808,-130.5 307.209,-130.5 315.582,-130.5"/>
<polygon fill="midnightblue" stroke="midnightblue" points="315.777,-134 325.777,-130.5 315.777,-127 315.777,-134"/>
</g>
<!-- Node5 -->
<g id="node3" class="node"><title>Node5</title>
<g id="a_node3"><a xlink:href="../../d2/dd9/classde_1_1tu__clausthal_1_1in_1_1bachelorproject2018_1_1poker_1_1game_1_1table_1_1CTable.htm#ac36fc046548fc6b47ee44cecbfd158db" target="_top" xlink:title="führt immer einen Schritt des Spiels aus ">
<polygon fill="none" stroke="black" points="979.5,-116.5 979.5,-144.5 1269.5,-144.5 1269.5,-116.5 979.5,-116.5"/>
<text text-anchor="start" x="987.5" y="-133.3" font-family="Helvetica,sans-Serif" font-size="9.00">de.tu_clausthal.in.bachelorproject2018.poker.game.table.</text>
<text text-anchor="middle" x="1124.5" y="-123.3" font-family="Helvetica,sans-Serif" font-size="9.00">CTable.executestep</text>
</a>
</g>
</g>
<!-- Node4&#45;&gt;Node5 -->
<g id="edge2" class="edge"><title>Node4&#45;&gt;Node5</title>
<path fill="none" stroke="midnightblue" d="M616.185,-124.785C720.845,-123.448 862.247,-123.406 969.181,-124.661"/>
<polygon fill="midnightblue" stroke="midnightblue" points="969.377,-128.164 979.42,-124.786 969.463,-121.164 969.377,-128.164"/>
</g>
<!-- Node6 -->
<g id="node4" class="node"><title>Node6</title>
<g id="a_node4"><a xlink:href="../../d2/dd9/classde_1_1tu__clausthal_1_1in_1_1bachelorproject2018_1_1poker_1_1game_1_1table_1_1CTable.htm#ad0183995fab983da1c6c6609c0b32b5e" target="_top" xlink:title="Methode um eine neue Runde zu bauen. ">
<polygon fill="none" stroke="black" points="652,-64.5 652,-92.5 942,-92.5 942,-64.5 652,-64.5"/>
<text text-anchor="start" x="660" y="-81.3" font-family="Helvetica,sans-Serif" font-size="9.00">de.tu_clausthal.in.bachelorproject2018.poker.game.table.</text>
<text text-anchor="middle" x="797" y="-71.3" font-family="Helvetica,sans-Serif" font-size="9.00">CTable.generateround</text>
</a>
</g>
</g>
<!-- Node4&#45;&gt;Node6 -->
<g id="edge4" class="edge"><title>Node4&#45;&gt;Node6</title>
<path fill="none" stroke="midnightblue" d="M559.252,-116.497C602.292,-109.589 654.348,-101.234 698.674,-94.1201"/>
<polygon fill="midnightblue" stroke="midnightblue" points="699.273,-97.569 708.592,-92.5285 698.164,-90.6574 699.273,-97.569"/>
</g>
<!-- Node5&#45;&gt;Node4 -->
<g id="edge3" class="edge"><title>Node5&#45;&gt;Node4</title>
<path fill="none" stroke="midnightblue" d="M979.42,-136.214C874.783,-137.552 733.382,-137.594 626.426,-136.34"/>
<polygon fill="midnightblue" stroke="midnightblue" points="626.227,-132.838 616.185,-136.215 626.141,-139.837 626.227,-132.838"/>
</g>
<!-- Node6&#45;&gt;Node5 -->
<g id="edge13" class="edge"><title>Node6&#45;&gt;Node5</title>
<path fill="none" stroke="midnightblue" d="M885.656,-92.5034C928.895,-99.4111 981.192,-107.766 1025.72,-114.88"/>
<polygon fill="midnightblue" stroke="midnightblue" points="1025.26,-118.35 1035.69,-116.472 1026.36,-111.438 1025.26,-118.35"/>
</g>
<!-- Node7 -->
<g id="node5" class="node"><title>Node7</title>
<g id="a_node5"><a xlink:href="../../d3/dc7/enumde_1_1tu__clausthal_1_1in_1_1bachelorproject2018_1_1poker_1_1game_1_1round_1_1ERound.htm#aaf9a5e22dad6f81c01b993edf3bc5bce" target="_top" xlink:title="factory round objects ">
<polygon fill="none" stroke="black" points="978,-64.5 978,-92.5 1271,-92.5 1271,-64.5 978,-64.5"/>
<text text-anchor="start" x="986" y="-81.3" font-family="Helvetica,sans-Serif" font-size="9.00">de.tu_clausthal.in.bachelorproject2018.poker.game.round.</text>
<text text-anchor="middle" x="1124.5" y="-71.3" font-family="Helvetica,sans-Serif" font-size="9.00">ERound.factory</text>
</a>
</g>
</g>
<!-- Node6&#45;&gt;Node7 -->
<g id="edge5" class="edge"><title>Node6&#45;&gt;Node7</title>
<path fill="none" stroke="midnightblue" d="M942.191,-78.5C950.685,-78.5 959.248,-78.5 967.785,-78.5"/>
<polygon fill="midnightblue" stroke="midnightblue" points="967.789,-82.0001 977.789,-78.5 967.789,-75.0001 967.789,-82.0001"/>
</g>
<!-- Node8 -->
<g id="node6" class="node"><title>Node8</title>
<g id="a_node6"><a xlink:href="../../da/d48/classde_1_1tu__clausthal_1_1in_1_1bachelorproject2018_1_1poker_1_1game_1_1hubs_1_1GameHub.htm#a70d72ce0a72b5c0e490bf935258b69f4" target="_top" xlink:title="getter for the chipsHandler ">
<polygon fill="none" stroke="black" points="1307.5,-133.5 1307.5,-161.5 1596.5,-161.5 1596.5,-133.5 1307.5,-133.5"/>
<text text-anchor="start" x="1315.5" y="-150.3" font-family="Helvetica,sans-Serif" font-size="9.00">de.tu_clausthal.in.bachelorproject2018.poker.game.hubs.</text>
<text text-anchor="middle" x="1452" y="-140.3" font-family="Helvetica,sans-Serif" font-size="9.00">GameHub.getChipsHandler</text>
</a>
</g>
</g>
<!-- Node7&#45;&gt;Node8 -->
<g id="edge6" class="edge"><title>Node7&#45;&gt;Node8</title>
<path fill="none" stroke="midnightblue" d="M1214.11,-92.5687C1233.11,-96.5785 1252.9,-101.523 1271,-107.5 1287.8,-113.048 1290.09,-119.275 1307,-124.5 1315.17,-127.026 1323.69,-129.286 1332.33,-131.306"/>
<polygon fill="midnightblue" stroke="midnightblue" points="1331.6,-134.728 1342.12,-133.486 1333.12,-127.896 1331.6,-134.728"/>
</g>
<!-- Node9 -->
<g id="node7" class="node"><title>Node9</title>
<g id="a_node7"><a xlink:href="../../d2/dd9/classde_1_1tu__clausthal_1_1in_1_1bachelorproject2018_1_1poker_1_1game_1_1table_1_1CTable.htm#ac7e661dcdd5fee36ea4e88c89649907a" target="_top" xlink:title="de.tu_clausthal.in.bachelorproject2018.poker.game.table.\lCTable.getGameHub">
<polygon fill="none" stroke="black" points="1307,-86.5 1307,-114.5 1597,-114.5 1597,-86.5 1307,-86.5"/>
<text text-anchor="start" x="1315" y="-103.3" font-family="Helvetica,sans-Serif" font-size="9.00">de.tu_clausthal.in.bachelorproject2018.poker.game.table.</text>
<text text-anchor="middle" x="1452" y="-93.3" font-family="Helvetica,sans-Serif" font-size="9.00">CTable.getGameHub</text>
</a>
</g>
</g>
<!-- Node7&#45;&gt;Node9 -->
<g id="edge7" class="edge"><title>Node7&#45;&gt;Node9</title>
<path fill="none" stroke="midnightblue" d="M1271.11,-88.3418C1279.63,-88.9174 1288.21,-89.4972 1296.76,-90.075"/>
<polygon fill="midnightblue" stroke="midnightblue" points="1296.56,-93.5695 1306.77,-90.7519 1297.03,-86.5854 1296.56,-93.5695"/>
</g>
<!-- Node10 -->
<g id="node8" class="node"><title>Node10</title>
<g id="a_node8"><a xlink:href="../../da/d48/classde_1_1tu__clausthal_1_1in_1_1bachelorproject2018_1_1poker_1_1game_1_1hubs_1_1GameHub.htm#a2f65b057de245146843c2f5c3bbe30f1" target="_top" xlink:title="getter for the playerlist ">
<polygon fill="none" stroke="black" points="1633,-21.5 1633,-49.5 1922,-49.5 1922,-21.5 1633,-21.5"/>
<text text-anchor="start" x="1641" y="-38.3" font-family="Helvetica,sans-Serif" font-size="9.00">de.tu_clausthal.in.bachelorproject2018.poker.game.hubs.</text>
<text text-anchor="middle" x="1777.5" y="-28.3" font-family="Helvetica,sans-Serif" font-size="9.00">GameHub.getPlayerList</text>
</a>
</g>
</g>
<!-- Node7&#45;&gt;Node10 -->
<g id="edge8" class="edge"><title>Node7&#45;&gt;Node10</title>
<path fill="none" stroke="midnightblue" d="M1271.19,-68.8767C1375.76,-61.9696 1516.41,-52.6793 1622.77,-45.6541"/>
<polygon fill="midnightblue" stroke="midnightblue" points="1623.21,-49.133 1632.96,-44.9814 1622.75,-42.1482 1623.21,-49.133"/>
</g>
<!-- Node13 -->
<g id="node11" class="node"><title>Node13</title>
<g id="a_node11"><a xlink:href="../../dd/dfe/classde_1_1tu__clausthal_1_1in_1_1bachelorproject2018_1_1poker_1_1game_1_1hubs_1_1ChipsHandling.htm#a9ae90b277f875f8e03844dc16e2b99a3" target="_top" xlink:title="check who starts the round should be the player next to bigBlind, but if bigBlind is highest index of...">
<polygon fill="none" stroke="black" points="1307.5,-0.5 1307.5,-28.5 1596.5,-28.5 1596.5,-0.5 1307.5,-0.5"/>
<text text-anchor="start" x="1315.5" y="-17.3" font-family="Helvetica,sans-Serif" font-size="9.00">de.tu_clausthal.in.bachelorproject2018.poker.game.hubs.</text>
<text text-anchor="middle" x="1452" y="-7.3" font-family="Helvetica,sans-Serif" font-size="9.00">ChipsHandling.getRoundStarter</text>
</a>
</g>
</g>
<!-- Node7&#45;&gt;Node13 -->
<g id="edge11" class="edge"><title>Node7&#45;&gt;Node13</title>
<path fill="none" stroke="midnightblue" d="M1196.93,-64.4549C1247.92,-54.4302 1316.58,-40.9297 1369.67,-30.4907"/>
<polygon fill="midnightblue" stroke="midnightblue" points="1370.6,-33.8759 1379.73,-28.5123 1369.25,-27.0074 1370.6,-33.8759"/>
</g>
<!-- Node11 -->
<g id="node9" class="node"><title>Node11</title>
<g id="a_node9"><a xlink:href="../../da/d48/classde_1_1tu__clausthal_1_1in_1_1bachelorproject2018_1_1poker_1_1game_1_1hubs_1_1GameHub.htm#a779929edeff8f64a359c53d09be3ca06" target="_top" xlink:title="zieht sich die aktuelle playerList vom Table ">
<polygon fill="none" stroke="black" points="1958,-21.5 1958,-49.5 2247,-49.5 2247,-21.5 1958,-21.5"/>
<text text-anchor="start" x="1966" y="-38.3" font-family="Helvetica,sans-Serif" font-size="9.00">de.tu_clausthal.in.bachelorproject2018.poker.game.hubs.</text>
<text text-anchor="middle" x="2102.5" y="-28.3" font-family="Helvetica,sans-Serif" font-size="9.00">GameHub.updatePlayerlist</text>
</a>
</g>
</g>
<!-- Node10&#45;&gt;Node11 -->
<g id="edge9" class="edge"><title>Node10&#45;&gt;Node11</title>
<path fill="none" stroke="midnightblue" d="M1922.05,-35.5C1930.59,-35.5 1939.2,-35.5 1947.77,-35.5"/>
<polygon fill="midnightblue" stroke="midnightblue" points="1947.82,-39.0001 1957.82,-35.5 1947.82,-32.0001 1947.82,-39.0001"/>
</g>
<!-- Node12 -->
<g id="node10" class="node"><title>Node12</title>
<g id="a_node10"><a xlink:href="../../d5/d36/interfacede_1_1tu__clausthal_1_1in_1_1bachelorproject2018_1_1poker_1_1game_1_1table_1_1ITable.htm#a6e42c7daa9c258015750347f2a5542fe" target="_top" xlink:title="liefert alle Spieler des Tisches ">
<polygon fill="none" stroke="black" points="2283,-21.5 2283,-49.5 2573,-49.5 2573,-21.5 2283,-21.5"/>
<text text-anchor="start" x="2291" y="-38.3" font-family="Helvetica,sans-Serif" font-size="9.00">de.tu_clausthal.in.bachelorproject2018.poker.game.table.</text>
<text text-anchor="middle" x="2428" y="-28.3" font-family="Helvetica,sans-Serif" font-size="9.00">ITable.list</text>
</a>
</g>
</g>
<!-- Node11&#45;&gt;Node12 -->
<g id="edge10" class="edge"><title>Node11&#45;&gt;Node12</title>
<path fill="none" stroke="midnightblue" d="M2247.28,-35.5C2255.67,-35.5 2264.14,-35.5 2272.57,-35.5"/>
<polygon fill="midnightblue" stroke="midnightblue" points="2272.85,-39.0001 2282.84,-35.5 2272.84,-32.0001 2272.85,-39.0001"/>
</g>
<!-- Node13&#45;&gt;Node10 -->
<g id="edge12" class="edge"><title>Node13&#45;&gt;Node10</title>
<path fill="none" stroke="midnightblue" d="M1596.78,-23.8332C1605.39,-24.3922 1614.07,-24.9557 1622.72,-25.5172"/>
<polygon fill="midnightblue" stroke="midnightblue" points="1622.65,-29.0198 1632.85,-26.175 1623.1,-22.0345 1622.65,-29.0198"/>
</g>
</g>
</svg>
