<?xml version="1.0" encoding="UTF-8" standalone="no"?>
<!DOCTYPE svg PUBLIC "-//W3C//DTD SVG 1.1//EN"
 "http://www.w3.org/Graphics/SVG/1.1/DTD/svg11.dtd">
<!-- Generated by graphviz version 2.38.0 (20140413.2041)
 -->
<!-- Title: de.tu_clausthal.in.bachelorproject2018.poker.game.table.CTable.generateround Pages: 1 -->
<!--zoomable 217 -->
<svg id="main" version="1.1" xmlns="http://www.w3.org/2000/svg" xmlns:xlink="http://www.w3.org/1999/xlink" xml:space="preserve" onload="init(evt)">
<style type="text/css"><![CDATA[
.edge:hover path { stroke: red; }
.edge:hover polygon { stroke: red; fill: red; }
]]></style>
<script type="text/javascript"><![CDATA[
var edges = document.getElementsByTagName('g');
if (edges && edges.length) {
  for (var i=0;i<edges.length;i++) {
    if (edges[i].id.substr(0,4)=='edge') {
      edges[i].setAttribute('class','edge');
    }
  }
}
]]></script>
        <defs>
                <circle id="rim" cx="0" cy="0" r="7"/>
                <circle id="rim2" cx="0" cy="0" r="3.5"/>
                <g id="zoomPlus">
                        <use xlink:href="#rim" fill="#404040">
                                <set attributeName="fill" to="#808080" begin="zoomplus.mouseover" end="zoomplus.mouseout"/>
                        </use>
                        <path d="M-4,0h8M0,-4v8" fill="none" stroke="white" stroke-width="1.5" pointer-events="none"/>
                </g>
                <g id="zoomMin">
                        <use xlink:href="#rim" fill="#404040">
                                <set attributeName="fill" to="#808080" begin="zoomminus.mouseover" end="zoomminus.mouseout"/>
                        </use>
                        <path d="M-4,0h8" fill="none" stroke="white" stroke-width="1.5" pointer-events="none"/>
                </g>
                <g id="dirArrow">
                        <path fill="none" stroke="white" stroke-width="1.5" d="M0,-3.0v7 M-2.5,-0.5L0,-3.0L2.5,-0.5"/>
                </g>
               <g id="resetDef">
                       <use xlink:href="#rim2" fill="#404040">
                               <set attributeName="fill" to="#808080" begin="reset.mouseover" end="reset.mouseout"/>
                       </use>
               </g>
        </defs>

<script type="text/javascript">
var viewWidth = 1929;
var viewHeight = 217;
var sectionId = 'dynsection-7';
</script>
<script xlink:href="../../svgpan.js"/>
<svg id="graph" class="graph">
<g id="viewport">
<title>de.tu_clausthal.in.bachelorproject2018.poker.game.table.CTable.generateround</title>
<!-- Node33 -->
<g id="node1" class="node"><title>Node33</title>
<polygon fill="#bfbfbf" stroke="black" points="0,-137.5 0,-165.5 290,-165.5 290,-137.5 0,-137.5"/>
<text text-anchor="start" x="8" y="-154.3" font-family="Helvetica,sans-Serif" font-size="9.00">de.tu_clausthal.in.bachelorproject2018.poker.game.table.</text>
<text text-anchor="middle" x="145" y="-144.3" font-family="Helvetica,sans-Serif" font-size="9.00">CTable.generateround</text>
</g>
<!-- Node34 -->
<g id="node2" class="node"><title>Node34</title>
<g id="a_node2"><a xlink:href="../../d2/dd9/classde_1_1tu__clausthal_1_1in_1_1bachelorproject2018_1_1poker_1_1game_1_1table_1_1CTable.htm#ac36fc046548fc6b47ee44cecbfd158db" target="_top" xlink:title="führt immer einen Schritt des Spiels aus ">
<polygon fill="none" stroke="black" points="327.5,-180.5 327.5,-208.5 617.5,-208.5 617.5,-180.5 327.5,-180.5"/>
<text text-anchor="start" x="335.5" y="-197.3" font-family="Helvetica,sans-Serif" font-size="9.00">de.tu_clausthal.in.bachelorproject2018.poker.game.table.</text>
<text text-anchor="middle" x="472.5" y="-187.3" font-family="Helvetica,sans-Serif" font-size="9.00">CTable.executestep</text>
</a>
</g>
</g>
<!-- Node33&#45;&gt;Node34 -->
<g id="edge1" class="edge"><title>Node33&#45;&gt;Node34</title>
<path fill="none" stroke="midnightblue" d="M252.13,-165.52C285.084,-169.874 321.575,-174.694 355.183,-179.134"/>
<polygon fill="midnightblue" stroke="midnightblue" points="355.141,-182.659 365.514,-180.499 356.058,-175.719 355.141,-182.659"/>
</g>
<!-- Node36 -->
<g id="node4" class="node"><title>Node36</title>
<g id="a_node4"><a xlink:href="../../d3/dc7/enumde_1_1tu__clausthal_1_1in_1_1bachelorproject2018_1_1poker_1_1game_1_1round_1_1ERound.htm#aaf9a5e22dad6f81c01b993edf3bc5bce" target="_top" xlink:title="factory round objects ">
<polygon fill="none" stroke="black" points="326,-86.5 326,-114.5 619,-114.5 619,-86.5 326,-86.5"/>
<text text-anchor="start" x="334" y="-103.3" font-family="Helvetica,sans-Serif" font-size="9.00">de.tu_clausthal.in.bachelorproject2018.poker.game.round.</text>
<text text-anchor="middle" x="472.5" y="-93.3" font-family="Helvetica,sans-Serif" font-size="9.00">ERound.factory</text>
</a>
</g>
</g>
<!-- Node33&#45;&gt;Node36 -->
<g id="edge5" class="edge"><title>Node33&#45;&gt;Node36</title>
<path fill="none" stroke="midnightblue" d="M235.375,-137.497C277.716,-130.862 328.438,-122.915 372,-116.09"/>
<polygon fill="midnightblue" stroke="midnightblue" points="372.705,-119.522 382.042,-114.516 371.621,-112.607 372.705,-119.522"/>
</g>
<!-- Node35 -->
<g id="node3" class="node"><title>Node35</title>
<g id="a_node3"><a xlink:href="../../d2/dd9/classde_1_1tu__clausthal_1_1in_1_1bachelorproject2018_1_1poker_1_1game_1_1table_1_1CTable.htm#ac4262ba4e9012a8d37c195f2bedeb6f5" target="_top" xlink:title="Methode, die nach jeder Ausführung einer Round&#45;Action durchlaufen wird, um das Spiel ggf fortzusetzen...">
<polygon fill="none" stroke="black" points="655,-180.5 655,-208.5 945,-208.5 945,-180.5 655,-180.5"/>
<text text-anchor="start" x="663" y="-197.3" font-family="Helvetica,sans-Serif" font-size="9.00">de.tu_clausthal.in.bachelorproject2018.poker.game.table.</text>
<text text-anchor="middle" x="800" y="-187.3" font-family="Helvetica,sans-Serif" font-size="9.00">CTable.postaction</text>
</a>
</g>
</g>
<!-- Node34&#45;&gt;Node35 -->
<g id="edge2" class="edge"><title>Node34&#45;&gt;Node35</title>
<path fill="none" stroke="midnightblue" d="M617.691,-187.789C626.648,-187.751 635.681,-187.741 644.68,-187.758"/>
<polygon fill="midnightblue" stroke="midnightblue" points="644.809,-191.258 654.82,-187.789 644.831,-184.258 644.809,-191.258"/>
</g>
<!-- Node35&#45;&gt;Node33 -->
<g id="edge4" class="edge"><title>Node35&#45;&gt;Node33</title>
<path fill="none" stroke="midnightblue" d="M701.07,-180.455C674.49,-177.061 645.683,-173.765 619,-171.5 512.721,-162.479 392.646,-157.465 300.073,-154.713"/>
<polygon fill="midnightblue" stroke="midnightblue" points="300.162,-151.214 290.065,-154.421 299.958,-158.211 300.162,-151.214"/>
</g>
<!-- Node35&#45;&gt;Node34 -->
<g id="edge3" class="edge"><title>Node35&#45;&gt;Node34</title>
<path fill="none" stroke="midnightblue" d="M654.82,-201.211C645.863,-201.249 636.829,-201.259 627.83,-201.242"/>
<polygon fill="midnightblue" stroke="midnightblue" points="627.701,-197.742 617.691,-201.211 627.68,-204.742 627.701,-197.742"/>
</g>
<!-- Node37 -->
<g id="node5" class="node"><title>Node37</title>
<g id="a_node5"><a xlink:href="../../da/d48/classde_1_1tu__clausthal_1_1in_1_1bachelorproject2018_1_1poker_1_1game_1_1hubs_1_1GameHub.htm#a70d72ce0a72b5c0e490bf935258b69f4" target="_top" xlink:title="getter for the chipsHandler ">
<polygon fill="none" stroke="black" points="655.5,-133.5 655.5,-161.5 944.5,-161.5 944.5,-133.5 655.5,-133.5"/>
<text text-anchor="start" x="663.5" y="-150.3" font-family="Helvetica,sans-Serif" font-size="9.00">de.tu_clausthal.in.bachelorproject2018.poker.game.hubs.</text>
<text text-anchor="middle" x="800" y="-140.3" font-family="Helvetica,sans-Serif" font-size="9.00">GameHub.getChipsHandler</text>
</a>
</g>
</g>
<!-- Node36&#45;&gt;Node37 -->
<g id="edge6" class="edge"><title>Node36&#45;&gt;Node37</title>
<path fill="none" stroke="midnightblue" d="M570.72,-114.538C608.81,-120.038 652.649,-126.368 691.664,-132.001"/>
<polygon fill="midnightblue" stroke="midnightblue" points="691.602,-135.529 702,-133.494 692.603,-128.601 691.602,-135.529"/>
</g>
<!-- Node38 -->
<g id="node6" class="node"><title>Node38</title>
<g id="a_node6"><a xlink:href="../../d2/dd9/classde_1_1tu__clausthal_1_1in_1_1bachelorproject2018_1_1poker_1_1game_1_1table_1_1CTable.htm#ac7e661dcdd5fee36ea4e88c89649907a" target="_top" xlink:title="de.tu_clausthal.in.bachelorproject2018.poker.game.table.\lCTable.getGameHub">
<polygon fill="none" stroke="black" points="655,-86.5 655,-114.5 945,-114.5 945,-86.5 655,-86.5"/>
<text text-anchor="start" x="663" y="-103.3" font-family="Helvetica,sans-Serif" font-size="9.00">de.tu_clausthal.in.bachelorproject2018.poker.game.table.</text>
<text text-anchor="middle" x="800" y="-93.3" font-family="Helvetica,sans-Serif" font-size="9.00">CTable.getGameHub</text>
</a>
</g>
</g>
<!-- Node36&#45;&gt;Node38 -->
<g id="edge7" class="edge"><title>Node36&#45;&gt;Node38</title>
<path fill="none" stroke="midnightblue" d="M619.113,-100.5C627.63,-100.5 636.209,-100.5 644.758,-100.5"/>
<polygon fill="midnightblue" stroke="midnightblue" points="644.772,-104 654.772,-100.5 644.772,-97.0001 644.772,-104"/>
</g>
<!-- Node39 -->
<g id="node7" class="node"><title>Node39</title>
<g id="a_node7"><a xlink:href="../../da/d48/classde_1_1tu__clausthal_1_1in_1_1bachelorproject2018_1_1poker_1_1game_1_1hubs_1_1GameHub.htm#a2f65b057de245146843c2f5c3bbe30f1" target="_top" xlink:title="getter for the playerlist ">
<polygon fill="none" stroke="black" points="981,-21.5 981,-49.5 1270,-49.5 1270,-21.5 981,-21.5"/>
<text text-anchor="start" x="989" y="-38.3" font-family="Helvetica,sans-Serif" font-size="9.00">de.tu_clausthal.in.bachelorproject2018.poker.game.hubs.</text>
<text text-anchor="middle" x="1125.5" y="-28.3" font-family="Helvetica,sans-Serif" font-size="9.00">GameHub.getPlayerList</text>
</a>
</g>
</g>
<!-- Node36&#45;&gt;Node39 -->
<g id="edge8" class="edge"><title>Node36&#45;&gt;Node39</title>
<path fill="none" stroke="midnightblue" d="M573.258,-86.4999C599.796,-82.9971 628.46,-79.4121 655,-76.5 760.146,-64.963 878.827,-54.6224 970.559,-47.2121"/>
<polygon fill="midnightblue" stroke="midnightblue" points="971.073,-50.6821 980.76,-46.3911 970.511,-43.7047 971.073,-50.6821"/>
</g>
<!-- Node42 -->
<g id="node10" class="node"><title>Node42</title>
<g id="a_node10"><a xlink:href="../../dd/dfe/classde_1_1tu__clausthal_1_1in_1_1bachelorproject2018_1_1poker_1_1game_1_1hubs_1_1ChipsHandling.htm#a9ae90b277f875f8e03844dc16e2b99a3" target="_top" xlink:title="check who starts the round should be the player next to bigBlind, but if bigBlind is highest index of...">
<polygon fill="none" stroke="black" points="655.5,-0.5 655.5,-28.5 944.5,-28.5 944.5,-0.5 655.5,-0.5"/>
<text text-anchor="start" x="663.5" y="-17.3" font-family="Helvetica,sans-Serif" font-size="9.00">de.tu_clausthal.in.bachelorproject2018.poker.game.hubs.</text>
<text text-anchor="middle" x="800" y="-7.3" font-family="Helvetica,sans-Serif" font-size="9.00">ChipsHandling.getRoundStarter</text>
</a>
</g>
</g>
<!-- Node36&#45;&gt;Node42 -->
<g id="edge11" class="edge"><title>Node36&#45;&gt;Node42</title>
<path fill="none" stroke="midnightblue" d="M513.875,-86.472C550.425,-74.0968 605.897,-56.1171 655,-43.5 673.215,-38.8196 692.885,-34.4292 711.661,-30.5501"/>
<polygon fill="midnightblue" stroke="midnightblue" points="712.583,-33.9342 721.684,-28.5095 711.187,-27.075 712.583,-33.9342"/>
</g>
<!-- Node40 -->
<g id="node8" class="node"><title>Node40</title>
<g id="a_node8"><a xlink:href="../../da/d48/classde_1_1tu__clausthal_1_1in_1_1bachelorproject2018_1_1poker_1_1game_1_1hubs_1_1GameHub.htm#a779929edeff8f64a359c53d09be3ca06" target="_top" xlink:title="zieht sich die aktuelle playerList vom Table ">
<polygon fill="none" stroke="black" points="1306,-21.5 1306,-49.5 1595,-49.5 1595,-21.5 1306,-21.5"/>
<text text-anchor="start" x="1314" y="-38.3" font-family="Helvetica,sans-Serif" font-size="9.00">de.tu_clausthal.in.bachelorproject2018.poker.game.hubs.</text>
<text text-anchor="middle" x="1450.5" y="-28.3" font-family="Helvetica,sans-Serif" font-size="9.00">GameHub.updatePlayerlist</text>
</a>
</g>
</g>
<!-- Node39&#45;&gt;Node40 -->
<g id="edge9" class="edge"><title>Node39&#45;&gt;Node40</title>
<path fill="none" stroke="midnightblue" d="M1270.05,-35.5C1278.59,-35.5 1287.2,-35.5 1295.77,-35.5"/>
<polygon fill="midnightblue" stroke="midnightblue" points="1295.82,-39.0001 1305.82,-35.5 1295.82,-32.0001 1295.82,-39.0001"/>
</g>
<!-- Node41 -->
<g id="node9" class="node"><title>Node41</title>
<g id="a_node9"><a xlink:href="../../d5/d36/interfacede_1_1tu__clausthal_1_1in_1_1bachelorproject2018_1_1poker_1_1game_1_1table_1_1ITable.htm#a6e42c7daa9c258015750347f2a5542fe" target="_top" xlink:title="liefert alle Spieler des Tisches ">
<polygon fill="none" stroke="black" points="1631,-21.5 1631,-49.5 1921,-49.5 1921,-21.5 1631,-21.5"/>
<text text-anchor="start" x="1639" y="-38.3" font-family="Helvetica,sans-Serif" font-size="9.00">de.tu_clausthal.in.bachelorproject2018.poker.game.table.</text>
<text text-anchor="middle" x="1776" y="-28.3" font-family="Helvetica,sans-Serif" font-size="9.00">ITable.list</text>
</a>
</g>
</g>
<!-- Node40&#45;&gt;Node41 -->
<g id="edge10" class="edge"><title>Node40&#45;&gt;Node41</title>
<path fill="none" stroke="midnightblue" d="M1595.28,-35.5C1603.67,-35.5 1612.14,-35.5 1620.57,-35.5"/>
<polygon fill="midnightblue" stroke="midnightblue" points="1620.85,-39.0001 1630.84,-35.5 1620.84,-32.0001 1620.85,-39.0001"/>
</g>
<!-- Node42&#45;&gt;Node39 -->
<g id="edge12" class="edge"><title>Node42&#45;&gt;Node39</title>
<path fill="none" stroke="midnightblue" d="M944.776,-23.8332C953.387,-24.3922 962.067,-24.9557 970.717,-25.5172"/>
<polygon fill="midnightblue" stroke="midnightblue" points="970.646,-29.0198 980.851,-26.175 971.099,-22.0345 970.646,-29.0198"/>
</g>
</g>
</svg>
        <g id="navigator" transform="translate(0 0)" fill="#404254">
                <rect fill="#f2f5e9" fill-opacity="0.5" stroke="#606060" stroke-width=".5" x="0" y="0" width="60" height="60"/>
                <use id="zoomplus" xlink:href="#zoomPlus" x="17" y="9" onmousedown="handleZoom(evt,'in')"/>
                <use id="zoomminus" xlink:href="#zoomMin" x="42" y="9" onmousedown="handleZoom(evt,'out')"/>
                <use id="reset" xlink:href="#resetDef" x="30" y="36" onmousedown="handleReset()"/>
                <g id="arrowUp" xlink:href="#dirArrow" transform="translate(30 24)" onmousedown="handlePan(0,-1)">
                  <use xlink:href="#rim" fill="#404040">
                        <set attributeName="fill" to="#808080" begin="arrowUp.mouseover" end="arrowUp.mouseout"/>
                  </use>
                  <path fill="none" stroke="white" stroke-width="1.5" d="M0,-3.0v7 M-2.5,-0.5L0,-3.0L2.5,-0.5"/>
                </g>
                <g id="arrowRight" xlink:href="#dirArrow" transform="rotate(90) translate(36 -43)" onmousedown="handlePan(1,0)">
                  <use xlink:href="#rim" fill="#404040">
                        <set attributeName="fill" to="#808080" begin="arrowRight.mouseover" end="arrowRight.mouseout"/>
                  </use>
                  <path fill="none" stroke="white" stroke-width="1.5" d="M0,-3.0v7 M-2.5,-0.5L0,-3.0L2.5,-0.5"/>
                </g>
                <g id="arrowDown" xlink:href="#dirArrow" transform="rotate(180) translate(-30 -48)" onmousedown="handlePan(0,1)">
                  <use xlink:href="#rim" fill="#404040">
                        <set attributeName="fill" to="#808080" begin="arrowDown.mouseover" end="arrowDown.mouseout"/>
                  </use>
                  <path fill="none" stroke="white" stroke-width="1.5" d="M0,-3.0v7 M-2.5,-0.5L0,-3.0L2.5,-0.5"/>
                </g>
                <g id="arrowLeft" xlink:href="#dirArrow" transform="rotate(270) translate(-36 17)" onmousedown="handlePan(-1,0)">
                  <use xlink:href="#rim" fill="#404040">
                        <set attributeName="fill" to="#808080" begin="arrowLeft.mouseover" end="arrowLeft.mouseout"/>
                  </use>
                  <path fill="none" stroke="white" stroke-width="1.5" d="M0,-3.0v7 M-2.5,-0.5L0,-3.0L2.5,-0.5"/>
                </g>
        </g>
        <svg viewBox="0 0 15 15" width="100%" height="30px" preserveAspectRatio="xMaxYMin meet">
         <g id="arrow_out" transform="scale(0.3 0.3)">
          <a xlink:href="classde_1_1tu__clausthal_1_1in_1_1bachelorproject2018_1_1poker_1_1game_1_1table_1_1CTable_ad0183995fab983da1c6c6609c0b32b5e_cgraph_org.svg" target="_base">
           <rect id="button" ry="5" rx="5" y="6" x="6" height="38" width="38"
                fill="#f2f5e9" fill-opacity="0.5" stroke="#606060" stroke-width="1.0"/>
           <path id="arrow"
             d="M 11.500037,31.436501 C 11.940474,20.09759 22.043105,11.32322 32.158766,21.979434 L 37.068811,17.246167 C 37.068811,17.246167 37.088388,32 37.088388,32 L 22.160133,31.978069 C 22.160133,31.978069 26.997745,27.140456 26.997745,27.140456 C 18.528582,18.264221 13.291696,25.230495 11.500037,31.436501 z"
             style="fill:#404040;"/>
          </a>
         </g>
        </svg>
</svg>
