<?xml version="1.0" encoding="UTF-8" standalone="no"?>
<!DOCTYPE svg PUBLIC "-//W3C//DTD SVG 1.1//EN"
 "http://www.w3.org/Graphics/SVG/1.1/DTD/svg11.dtd">
<!-- Generated by graphviz version 2.38.0 (20140413.2041)
 -->
<!-- Title: de.tu_clausthal.in.bachelorproject2018.poker.game.table.CTable.executestep Pages: 1 -->
<svg width="2581pt" height="170pt"
 viewBox="0.00 0.00 2581.00 170.00" xmlns="http://www.w3.org/2000/svg" xmlns:xlink="http://www.w3.org/1999/xlink">
<g id="graph0" class="graph" transform="scale(1 1) rotate(0) translate(4 166)">
<title>de.tu_clausthal.in.bachelorproject2018.poker.game.table.CTable.executestep</title>
<!-- Node18 -->
<g id="node1" class="node"><title>Node18</title>
<polygon fill="#bfbfbf" stroke="black" points="0,-86.5 0,-114.5 290,-114.5 290,-86.5 0,-86.5"/>
<text text-anchor="start" x="8" y="-103.3" font-family="Helvetica,sans-Serif" font-size="9.00">de.tu_clausthal.in.bachelorproject2018.poker.game.table.</text>
<text text-anchor="middle" x="145" y="-93.3" font-family="Helvetica,sans-Serif" font-size="9.00">CTable.executestep</text>
</g>
<!-- Node19 -->
<g id="node2" class="node"><title>Node19</title>
<g id="a_node2"><a xlink:href="../../d2/dd9/classde_1_1tu__clausthal_1_1in_1_1bachelorproject2018_1_1poker_1_1game_1_1table_1_1CTable.htm#ac4262ba4e9012a8d37c195f2bedeb6f5" target="_top" xlink:title="Methode, die nach jeder Ausführung einer Round&#45;Action durchlaufen wird, um das Spiel ggf fortzusetzen...">
<polygon fill="none" stroke="black" points="326,-86.5 326,-114.5 616,-114.5 616,-86.5 326,-86.5"/>
<text text-anchor="start" x="334" y="-103.3" font-family="Helvetica,sans-Serif" font-size="9.00">de.tu_clausthal.in.bachelorproject2018.poker.game.table.</text>
<text text-anchor="middle" x="471" y="-93.3" font-family="Helvetica,sans-Serif" font-size="9.00">CTable.postaction</text>
</a>
</g>
</g>
<!-- Node18&#45;&gt;Node19 -->
<g id="edge1" class="edge"><title>Node18&#45;&gt;Node19</title>
<path fill="none" stroke="midnightblue" d="M290.47,-93.7853C298.808,-93.7516 307.209,-93.742 315.582,-93.7566"/>
<polygon fill="midnightblue" stroke="midnightblue" points="315.766,-97.257 325.777,-93.7863 315.787,-90.2571 315.766,-97.257"/>
</g>
<!-- Node19&#45;&gt;Node18 -->
<g id="edge2" class="edge"><title>Node19&#45;&gt;Node18</title>
<path fill="none" stroke="midnightblue" d="M325.777,-107.214C317.44,-107.248 309.04,-107.258 300.666,-107.244"/>
<polygon fill="midnightblue" stroke="midnightblue" points="300.48,-103.743 290.47,-107.215 300.46,-110.743 300.48,-103.743"/>
</g>
<!-- Node20 -->
<g id="node3" class="node"><title>Node20</title>
<g id="a_node3"><a xlink:href="../../d2/dd9/classde_1_1tu__clausthal_1_1in_1_1bachelorproject2018_1_1poker_1_1game_1_1table_1_1CTable.htm#ad0183995fab983da1c6c6609c0b32b5e" target="_top" xlink:title="Methode um eine neue Runde zu bauen. ">
<polygon fill="none" stroke="black" points="652,-64.5 652,-92.5 942,-92.5 942,-64.5 652,-64.5"/>
<text text-anchor="start" x="660" y="-81.3" font-family="Helvetica,sans-Serif" font-size="9.00">de.tu_clausthal.in.bachelorproject2018.poker.game.table.</text>
<text text-anchor="middle" x="797" y="-71.3" font-family="Helvetica,sans-Serif" font-size="9.00">CTable.generateround</text>
</a>
</g>
</g>
<!-- Node19&#45;&gt;Node20 -->
<g id="edge3" class="edge"><title>Node19&#45;&gt;Node20</title>
<path fill="none" stroke="midnightblue" d="M616.47,-90.6903C624.808,-90.1241 633.209,-89.5537 641.582,-88.9852"/>
<polygon fill="midnightblue" stroke="midnightblue" points="642.037,-92.4624 651.777,-88.2929 641.562,-85.4785 642.037,-92.4624"/>
</g>
<!-- Node20&#45;&gt;Node18 -->
<g id="edge12" class="edge"><title>Node20&#45;&gt;Node18</title>
<path fill="none" stroke="midnightblue" d="M651.859,-73.3044C558.779,-71.1561 435.12,-70.5567 326,-77.5 300.603,-79.116 273.312,-82.0021 247.851,-85.196"/>
<polygon fill="midnightblue" stroke="midnightblue" points="247.291,-81.739 237.817,-86.4819 248.181,-88.6823 247.291,-81.739"/>
</g>
<!-- Node21 -->
<g id="node4" class="node"><title>Node21</title>
<g id="a_node4"><a xlink:href="../../d3/dc7/enumde_1_1tu__clausthal_1_1in_1_1bachelorproject2018_1_1poker_1_1game_1_1round_1_1ERound.htm#aaf9a5e22dad6f81c01b993edf3bc5bce" target="_top" xlink:title="factory round objects ">
<polygon fill="none" stroke="black" points="978,-64.5 978,-92.5 1271,-92.5 1271,-64.5 978,-64.5"/>
<text text-anchor="start" x="986" y="-81.3" font-family="Helvetica,sans-Serif" font-size="9.00">de.tu_clausthal.in.bachelorproject2018.poker.game.round.</text>
<text text-anchor="middle" x="1124.5" y="-71.3" font-family="Helvetica,sans-Serif" font-size="9.00">ERound.factory</text>
</a>
</g>
</g>
<!-- Node20&#45;&gt;Node21 -->
<g id="edge4" class="edge"><title>Node20&#45;&gt;Node21</title>
<path fill="none" stroke="midnightblue" d="M942.191,-78.5C950.685,-78.5 959.248,-78.5 967.785,-78.5"/>
<polygon fill="midnightblue" stroke="midnightblue" points="967.789,-82.0001 977.789,-78.5 967.789,-75.0001 967.789,-82.0001"/>
</g>
<!-- Node22 -->
<g id="node5" class="node"><title>Node22</title>
<g id="a_node5"><a xlink:href="../../da/d48/classde_1_1tu__clausthal_1_1in_1_1bachelorproject2018_1_1poker_1_1game_1_1hubs_1_1GameHub.htm#a70d72ce0a72b5c0e490bf935258b69f4" target="_top" xlink:title="getter for the chipsHandler ">
<polygon fill="none" stroke="black" points="1307.5,-133.5 1307.5,-161.5 1596.5,-161.5 1596.5,-133.5 1307.5,-133.5"/>
<text text-anchor="start" x="1315.5" y="-150.3" font-family="Helvetica,sans-Serif" font-size="9.00">de.tu_clausthal.in.bachelorproject2018.poker.game.hubs.</text>
<text text-anchor="middle" x="1452" y="-140.3" font-family="Helvetica,sans-Serif" font-size="9.00">GameHub.getChipsHandler</text>
</a>
</g>
</g>
<!-- Node21&#45;&gt;Node22 -->
<g id="edge5" class="edge"><title>Node21&#45;&gt;Node22</title>
<path fill="none" stroke="midnightblue" d="M1175.68,-92.5104C1211.97,-102.323 1262.27,-115.279 1307,-124.5 1319.45,-127.066 1332.55,-129.51 1345.58,-131.782"/>
<polygon fill="midnightblue" stroke="midnightblue" points="1345.06,-135.244 1355.51,-133.484 1346.24,-128.345 1345.06,-135.244"/>
</g>
<!-- Node23 -->
<g id="node6" class="node"><title>Node23</title>
<g id="a_node6"><a xlink:href="../../d2/dd9/classde_1_1tu__clausthal_1_1in_1_1bachelorproject2018_1_1poker_1_1game_1_1table_1_1CTable.htm#ac7e661dcdd5fee36ea4e88c89649907a" target="_top" xlink:title="de.tu_clausthal.in.bachelorproject2018.poker.game.table.\lCTable.getGameHub">
<polygon fill="none" stroke="black" points="1307,-86.5 1307,-114.5 1597,-114.5 1597,-86.5 1307,-86.5"/>
<text text-anchor="start" x="1315" y="-103.3" font-family="Helvetica,sans-Serif" font-size="9.00">de.tu_clausthal.in.bachelorproject2018.poker.game.table.</text>
<text text-anchor="middle" x="1452" y="-93.3" font-family="Helvetica,sans-Serif" font-size="9.00">CTable.getGameHub</text>
</a>
</g>
</g>
<!-- Node21&#45;&gt;Node23 -->
<g id="edge6" class="edge"><title>Node21&#45;&gt;Node23</title>
<path fill="none" stroke="midnightblue" d="M1271.11,-88.3418C1279.63,-88.9174 1288.21,-89.4972 1296.76,-90.075"/>
<polygon fill="midnightblue" stroke="midnightblue" points="1296.56,-93.5695 1306.77,-90.7519 1297.03,-86.5854 1296.56,-93.5695"/>
</g>
<!-- Node24 -->
<g id="node7" class="node"><title>Node24</title>
<g id="a_node7"><a xlink:href="../../da/d48/classde_1_1tu__clausthal_1_1in_1_1bachelorproject2018_1_1poker_1_1game_1_1hubs_1_1GameHub.htm#a2f65b057de245146843c2f5c3bbe30f1" target="_top" xlink:title="getter for the playerlist ">
<polygon fill="none" stroke="black" points="1633,-21.5 1633,-49.5 1922,-49.5 1922,-21.5 1633,-21.5"/>
<text text-anchor="start" x="1641" y="-38.3" font-family="Helvetica,sans-Serif" font-size="9.00">de.tu_clausthal.in.bachelorproject2018.poker.game.hubs.</text>
<text text-anchor="middle" x="1777.5" y="-28.3" font-family="Helvetica,sans-Serif" font-size="9.00">GameHub.getPlayerList</text>
</a>
</g>
</g>
<!-- Node21&#45;&gt;Node24 -->
<g id="edge7" class="edge"><title>Node21&#45;&gt;Node24</title>
<path fill="none" stroke="midnightblue" d="M1271.19,-68.8767C1375.76,-61.9696 1516.41,-52.6793 1622.77,-45.6541"/>
<polygon fill="midnightblue" stroke="midnightblue" points="1623.21,-49.133 1632.96,-44.9814 1622.75,-42.1482 1623.21,-49.133"/>
</g>
<!-- Node27 -->
<g id="node10" class="node"><title>Node27</title>
<g id="a_node10"><a xlink:href="../../dd/dfe/classde_1_1tu__clausthal_1_1in_1_1bachelorproject2018_1_1poker_1_1game_1_1hubs_1_1ChipsHandling.htm#a9ae90b277f875f8e03844dc16e2b99a3" target="_top" xlink:title="check who starts the round should be the player next to bigBlind, but if bigBlind is highest index of...">
<polygon fill="none" stroke="black" points="1307.5,-0.5 1307.5,-28.5 1596.5,-28.5 1596.5,-0.5 1307.5,-0.5"/>
<text text-anchor="start" x="1315.5" y="-17.3" font-family="Helvetica,sans-Serif" font-size="9.00">de.tu_clausthal.in.bachelorproject2018.poker.game.hubs.</text>
<text text-anchor="middle" x="1452" y="-7.3" font-family="Helvetica,sans-Serif" font-size="9.00">ChipsHandling.getRoundStarter</text>
</a>
</g>
</g>
<!-- Node21&#45;&gt;Node27 -->
<g id="edge10" class="edge"><title>Node21&#45;&gt;Node27</title>
<path fill="none" stroke="midnightblue" d="M1196.93,-64.4549C1247.92,-54.4302 1316.58,-40.9297 1369.67,-30.4907"/>
<polygon fill="midnightblue" stroke="midnightblue" points="1370.6,-33.8759 1379.73,-28.5123 1369.25,-27.0074 1370.6,-33.8759"/>
</g>
<!-- Node25 -->
<g id="node8" class="node"><title>Node25</title>
<g id="a_node8"><a xlink:href="../../da/d48/classde_1_1tu__clausthal_1_1in_1_1bachelorproject2018_1_1poker_1_1game_1_1hubs_1_1GameHub.htm#a779929edeff8f64a359c53d09be3ca06" target="_top" xlink:title="zieht sich die aktuelle playerList vom Table ">
<polygon fill="none" stroke="black" points="1958,-21.5 1958,-49.5 2247,-49.5 2247,-21.5 1958,-21.5"/>
<text text-anchor="start" x="1966" y="-38.3" font-family="Helvetica,sans-Serif" font-size="9.00">de.tu_clausthal.in.bachelorproject2018.poker.game.hubs.</text>
<text text-anchor="middle" x="2102.5" y="-28.3" font-family="Helvetica,sans-Serif" font-size="9.00">GameHub.updatePlayerlist</text>
</a>
</g>
</g>
<!-- Node24&#45;&gt;Node25 -->
<g id="edge8" class="edge"><title>Node24&#45;&gt;Node25</title>
<path fill="none" stroke="midnightblue" d="M1922.05,-35.5C1930.59,-35.5 1939.2,-35.5 1947.77,-35.5"/>
<polygon fill="midnightblue" stroke="midnightblue" points="1947.82,-39.0001 1957.82,-35.5 1947.82,-32.0001 1947.82,-39.0001"/>
</g>
<!-- Node26 -->
<g id="node9" class="node"><title>Node26</title>
<g id="a_node9"><a xlink:href="../../d5/d36/interfacede_1_1tu__clausthal_1_1in_1_1bachelorproject2018_1_1poker_1_1game_1_1table_1_1ITable.htm#a6e42c7daa9c258015750347f2a5542fe" target="_top" xlink:title="liefert alle Spieler des Tisches ">
<polygon fill="none" stroke="black" points="2283,-21.5 2283,-49.5 2573,-49.5 2573,-21.5 2283,-21.5"/>
<text text-anchor="start" x="2291" y="-38.3" font-family="Helvetica,sans-Serif" font-size="9.00">de.tu_clausthal.in.bachelorproject2018.poker.game.table.</text>
<text text-anchor="middle" x="2428" y="-28.3" font-family="Helvetica,sans-Serif" font-size="9.00">ITable.list</text>
</a>
</g>
</g>
<!-- Node25&#45;&gt;Node26 -->
<g id="edge9" class="edge"><title>Node25&#45;&gt;Node26</title>
<path fill="none" stroke="midnightblue" d="M2247.28,-35.5C2255.67,-35.5 2264.14,-35.5 2272.57,-35.5"/>
<polygon fill="midnightblue" stroke="midnightblue" points="2272.85,-39.0001 2282.84,-35.5 2272.84,-32.0001 2272.85,-39.0001"/>
</g>
<!-- Node27&#45;&gt;Node24 -->
<g id="edge11" class="edge"><title>Node27&#45;&gt;Node24</title>
<path fill="none" stroke="midnightblue" d="M1596.78,-23.8332C1605.39,-24.3922 1614.07,-24.9557 1622.72,-25.5172"/>
<polygon fill="midnightblue" stroke="midnightblue" points="1622.65,-29.0198 1632.85,-26.175 1623.1,-22.0345 1622.65,-29.0198"/>
</g>
</g>
</svg>
