<?xml version="1.0" encoding="UTF-8" standalone="no"?>
<!DOCTYPE svg PUBLIC "-//W3C//DTD SVG 1.1//EN"
 "http://www.w3.org/Graphics/SVG/1.1/DTD/svg11.dtd">
<!-- Generated by graphviz version 2.38.0 (20140413.2041)
 -->
<!-- Title: de.tu_clausthal.in.bachelorproject2018.poker.game.table.CTable.executestep Pages: 1 -->
<svg width="1276pt" height="89pt"
 viewBox="0.00 0.00 1276.00 89.00" xmlns="http://www.w3.org/2000/svg" xmlns:xlink="http://www.w3.org/1999/xlink">
<g id="graph0" class="graph" transform="scale(1 1) rotate(0) translate(4 85)">
<title>de.tu_clausthal.in.bachelorproject2018.poker.game.table.CTable.executestep</title>
<!-- Node28 -->
<g id="node1" class="node"><title>Node28</title>
<polygon fill="#bfbfbf" stroke="black" points="0,-0.5 0,-28.5 290,-28.5 290,-0.5 0,-0.5"/>
<text text-anchor="start" x="8" y="-17.3" font-family="Helvetica,sans-Serif" font-size="9.00">de.tu_clausthal.in.bachelorproject2018.poker.game.table.</text>
<text text-anchor="middle" x="145" y="-7.3" font-family="Helvetica,sans-Serif" font-size="9.00">CTable.executestep</text>
</g>
<!-- Node29 -->
<g id="node2" class="node"><title>Node29</title>
<g id="a_node2"><a xlink:href="../../d2/dd9/classde_1_1tu__clausthal_1_1in_1_1bachelorproject2018_1_1poker_1_1game_1_1table_1_1CTable.htm#ad0183995fab983da1c6c6609c0b32b5e" target="_top" xlink:title="Methode um eine neue Runde zu bauen. ">
<polygon fill="none" stroke="black" points="326,-52.5 326,-80.5 616,-80.5 616,-52.5 326,-52.5"/>
<text text-anchor="start" x="334" y="-69.3" font-family="Helvetica,sans-Serif" font-size="9.00">de.tu_clausthal.in.bachelorproject2018.poker.game.table.</text>
<text text-anchor="middle" x="471" y="-59.3" font-family="Helvetica,sans-Serif" font-size="9.00">CTable.generateround</text>
</a>
</g>
</g>
<!-- Node28&#45;&gt;Node29 -->
<g id="edge1" class="edge"><title>Node28&#45;&gt;Node29</title>
<path fill="none" stroke="midnightblue" d="M243.165,-30.0944C287.473,-37.2055 339.53,-45.5604 382.592,-52.4715"/>
<polygon fill="midnightblue" stroke="midnightblue" points="243.681,-26.6324 233.252,-28.5034 242.571,-33.544 243.681,-26.6324"/>
</g>
<!-- Node31 -->
<g id="node4" class="node"><title>Node31</title>
<g id="a_node4"><a xlink:href="../../d2/dd9/classde_1_1tu__clausthal_1_1in_1_1bachelorproject2018_1_1poker_1_1game_1_1table_1_1CTable.htm#ac4262ba4e9012a8d37c195f2bedeb6f5" target="_top" xlink:title="Methode, die nach jeder Ausführung einer Round&#45;Action durchlaufen wird, um das Spiel ggf fortzusetzen...">
<polygon fill="none" stroke="black" points="652,-0.5 652,-28.5 942,-28.5 942,-0.5 652,-0.5"/>
<text text-anchor="start" x="660" y="-17.3" font-family="Helvetica,sans-Serif" font-size="9.00">de.tu_clausthal.in.bachelorproject2018.poker.game.table.</text>
<text text-anchor="middle" x="797" y="-7.3" font-family="Helvetica,sans-Serif" font-size="9.00">CTable.postaction</text>
</a>
</g>
</g>
<!-- Node28&#45;&gt;Node31 -->
<g id="edge6" class="edge"><title>Node28&#45;&gt;Node31</title>
<path fill="none" stroke="midnightblue" d="M300.457,-8.6552C406.99,-7.40753 547.636,-7.44964 651.867,-8.78154"/>
<polygon fill="midnightblue" stroke="midnightblue" points="300.212,-5.15783 290.256,-8.77997 300.298,-12.1573 300.212,-5.15783"/>
</g>
<!-- Node30 -->
<g id="node3" class="node"><title>Node30</title>
<g id="a_node3"><a xlink:href="../../d2/dd9/classde_1_1tu__clausthal_1_1in_1_1bachelorproject2018_1_1poker_1_1game_1_1table_1_1CTable.htm#a44356981334e62a09768618f0743d1b5" target="_top" xlink:title="startet das Spiel ">
<polygon fill="none" stroke="black" points="652,-52.5 652,-80.5 942,-80.5 942,-52.5 652,-52.5"/>
<text text-anchor="start" x="660" y="-69.3" font-family="Helvetica,sans-Serif" font-size="9.00">de.tu_clausthal.in.bachelorproject2018.poker.game.table.</text>
<text text-anchor="middle" x="797" y="-59.3" font-family="Helvetica,sans-Serif" font-size="9.00">CTable.start</text>
</a>
</g>
</g>
<!-- Node29&#45;&gt;Node30 -->
<g id="edge2" class="edge"><title>Node29&#45;&gt;Node30</title>
<path fill="none" stroke="midnightblue" d="M626.666,-66.5C635.04,-66.5 643.44,-66.5 651.777,-66.5"/>
<polygon fill="midnightblue" stroke="midnightblue" points="626.47,-63.0001 616.47,-66.5 626.47,-70.0001 626.47,-63.0001"/>
</g>
<!-- Node29&#45;&gt;Node31 -->
<g id="edge3" class="edge"><title>Node29&#45;&gt;Node31</title>
<path fill="none" stroke="midnightblue" d="M569.165,-50.9056C613.473,-43.7945 665.53,-35.4396 708.592,-28.5285"/>
<polygon fill="midnightblue" stroke="midnightblue" points="568.571,-47.456 559.252,-52.4966 569.681,-54.3676 568.571,-47.456"/>
</g>
<!-- Node31&#45;&gt;Node28 -->
<g id="edge5" class="edge"><title>Node31&#45;&gt;Node28</title>
<path fill="none" stroke="midnightblue" d="M641.669,-20.3433C535.162,-21.592 394.515,-21.5509 290.256,-20.22"/>
<polygon fill="midnightblue" stroke="midnightblue" points="641.91,-23.8407 651.867,-20.2185 641.825,-16.8413 641.91,-23.8407"/>
</g>
<!-- Node32 -->
<g id="node5" class="node"><title>Node32</title>
<g id="a_node5"><a xlink:href="../../d2/dd9/classde_1_1tu__clausthal_1_1in_1_1bachelorproject2018_1_1poker_1_1game_1_1table_1_1CTable.htm#a763745ff3fa160c02f05117b84b092d4" target="_top" xlink:title="führe ein Element aus der ">
<polygon fill="none" stroke="black" points="978,-0.5 978,-28.5 1268,-28.5 1268,-0.5 978,-0.5"/>
<text text-anchor="start" x="986" y="-17.3" font-family="Helvetica,sans-Serif" font-size="9.00">de.tu_clausthal.in.bachelorproject2018.poker.game.table.</text>
<text text-anchor="middle" x="1123" y="-7.3" font-family="Helvetica,sans-Serif" font-size="9.00">CTable.accept</text>
</a>
</g>
</g>
<!-- Node31&#45;&gt;Node32 -->
<g id="edge4" class="edge"><title>Node31&#45;&gt;Node32</title>
<path fill="none" stroke="midnightblue" d="M952.666,-14.5C961.04,-14.5 969.44,-14.5 977.777,-14.5"/>
<polygon fill="midnightblue" stroke="midnightblue" points="952.47,-11.0001 942.47,-14.5 952.47,-18.0001 952.47,-11.0001"/>
</g>
</g>
</svg>
