<?xml version="1.0" encoding="UTF-8" standalone="no"?>
<!DOCTYPE svg PUBLIC "-//W3C//DTD SVG 1.1//EN"
 "http://www.w3.org/Graphics/SVG/1.1/DTD/svg11.dtd">
<!-- Generated by graphviz version 2.38.0 (20140413.2041)
 -->
<!-- Title: de.tu_clausthal.in.bachelorproject2018.poker.game.table.CTable.start Pages: 1 -->
<!--zoomable 303 -->
<svg id="main" version="1.1" xmlns="http://www.w3.org/2000/svg" xmlns:xlink="http://www.w3.org/1999/xlink" xml:space="preserve" onload="init(evt)">
<style type="text/css"><![CDATA[
.edge:hover path { stroke: red; }
.edge:hover polygon { stroke: red; fill: red; }
]]></style>
<script type="text/javascript"><![CDATA[
var edges = document.getElementsByTagName('g');
if (edges && edges.length) {
  for (var i=0;i<edges.length;i++) {
    if (edges[i].id.substr(0,4)=='edge') {
      edges[i].setAttribute('class','edge');
    }
  }
}
]]></script>
        <defs>
                <circle id="rim" cx="0" cy="0" r="7"/>
                <circle id="rim2" cx="0" cy="0" r="3.5"/>
                <g id="zoomPlus">
                        <use xlink:href="#rim" fill="#404040">
                                <set attributeName="fill" to="#808080" begin="zoomplus.mouseover" end="zoomplus.mouseout"/>
                        </use>
                        <path d="M-4,0h8M0,-4v8" fill="none" stroke="white" stroke-width="1.5" pointer-events="none"/>
                </g>
                <g id="zoomMin">
                        <use xlink:href="#rim" fill="#404040">
                                <set attributeName="fill" to="#808080" begin="zoomminus.mouseover" end="zoomminus.mouseout"/>
                        </use>
                        <path d="M-4,0h8" fill="none" stroke="white" stroke-width="1.5" pointer-events="none"/>
                </g>
                <g id="dirArrow">
                        <path fill="none" stroke="white" stroke-width="1.5" d="M0,-3.0v7 M-2.5,-0.5L0,-3.0L2.5,-0.5"/>
                </g>
               <g id="resetDef">
                       <use xlink:href="#rim2" fill="#404040">
                               <set attributeName="fill" to="#808080" begin="reset.mouseover" end="reset.mouseout"/>
                       </use>
               </g>
        </defs>

<script type="text/javascript">
var viewWidth = 2255;
var viewHeight = 303;
var sectionId = 'dynsection-17';
</script>
<script xlink:href="../../svgpan.js"/>
<svg id="graph" class="graph">
<g id="viewport">
<title>de.tu_clausthal.in.bachelorproject2018.poker.game.table.CTable.start</title>
<!-- Node92 -->
<g id="node1" class="node"><title>Node92</title>
<polygon fill="#bfbfbf" stroke="black" points="0,-120.5 0,-148.5 290,-148.5 290,-120.5 0,-120.5"/>
<text text-anchor="start" x="8" y="-137.3" font-family="Helvetica,sans-Serif" font-size="9.00">de.tu_clausthal.in.bachelorproject2018.poker.game.table.</text>
<text text-anchor="middle" x="145" y="-127.3" font-family="Helvetica,sans-Serif" font-size="9.00">CTable.start</text>
</g>
<!-- Node93 -->
<g id="node2" class="node"><title>Node93</title>
<g id="a_node2"><a xlink:href="../../d2/dd9/classde_1_1tu__clausthal_1_1in_1_1bachelorproject2018_1_1poker_1_1game_1_1table_1_1CTable.htm#ad0183995fab983da1c6c6609c0b32b5e" target="_top" xlink:title="Methode um eine neue Runde zu bauen. ">
<polygon fill="none" stroke="black" points="326,-197.5 326,-225.5 616,-225.5 616,-197.5 326,-197.5"/>
<text text-anchor="start" x="334" y="-214.3" font-family="Helvetica,sans-Serif" font-size="9.00">de.tu_clausthal.in.bachelorproject2018.poker.game.table.</text>
<text text-anchor="middle" x="471" y="-204.3" font-family="Helvetica,sans-Serif" font-size="9.00">CTable.generateround</text>
</a>
</g>
</g>
<!-- Node92&#45;&gt;Node93 -->
<g id="edge1" class="edge"><title>Node92&#45;&gt;Node93</title>
<path fill="none" stroke="midnightblue" d="M205.05,-148.533C260.35,-161.676 342.978,-181.313 401.228,-195.156"/>
<polygon fill="midnightblue" stroke="midnightblue" points="400.544,-198.591 411.083,-197.498 402.163,-191.781 400.544,-198.591"/>
</g>
<!-- Node103 -->
<g id="node12" class="node"><title>Node103</title>
<g id="a_node12"><a xlink:href="../../da/d48/classde_1_1tu__clausthal_1_1in_1_1bachelorproject2018_1_1poker_1_1game_1_1hubs_1_1GameHub.htm#aaaa52a4f851684df6aa7a4faed55c722" target="_top" xlink:title="start the game with initializing the deck and adding the start getAmountBetThisRound of chips to each...">
<polygon fill="none" stroke="black" points="326.5,-43.5 326.5,-71.5 615.5,-71.5 615.5,-43.5 326.5,-43.5"/>
<text text-anchor="start" x="334.5" y="-60.3" font-family="Helvetica,sans-Serif" font-size="9.00">de.tu_clausthal.in.bachelorproject2018.poker.game.hubs.</text>
<text text-anchor="middle" x="471" y="-50.3" font-family="Helvetica,sans-Serif" font-size="9.00">GameHub.startGame</text>
</a>
</g>
</g>
<!-- Node92&#45;&gt;Node103 -->
<g id="edge14" class="edge"><title>Node92&#45;&gt;Node103</title>
<path fill="none" stroke="midnightblue" d="M205.05,-120.467C260.35,-107.324 342.978,-87.6873 401.228,-73.844"/>
<polygon fill="midnightblue" stroke="midnightblue" points="402.163,-77.2193 411.083,-71.5019 400.544,-70.409 402.163,-77.2193"/>
</g>
<!-- Node94 -->
<g id="node3" class="node"><title>Node94</title>
<g id="a_node3"><a xlink:href="../../d2/dd9/classde_1_1tu__clausthal_1_1in_1_1bachelorproject2018_1_1poker_1_1game_1_1table_1_1CTable.htm#ac36fc046548fc6b47ee44cecbfd158db" target="_top" xlink:title="führt immer einen Schritt des Spiels aus ">
<polygon fill="none" stroke="black" points="653.5,-266.5 653.5,-294.5 943.5,-294.5 943.5,-266.5 653.5,-266.5"/>
<text text-anchor="start" x="661.5" y="-283.3" font-family="Helvetica,sans-Serif" font-size="9.00">de.tu_clausthal.in.bachelorproject2018.poker.game.table.</text>
<text text-anchor="middle" x="798.5" y="-273.3" font-family="Helvetica,sans-Serif" font-size="9.00">CTable.executestep</text>
</a>
</g>
</g>
<!-- Node93&#45;&gt;Node94 -->
<g id="edge2" class="edge"><title>Node93&#45;&gt;Node94</title>
<path fill="none" stroke="midnightblue" d="M538.262,-225.546C591.394,-236.809 665.999,-252.624 721.541,-264.398"/>
<polygon fill="midnightblue" stroke="midnightblue" points="720.822,-267.823 731.331,-266.473 722.274,-260.976 720.822,-267.823"/>
</g>
<!-- Node96 -->
<g id="node5" class="node"><title>Node96</title>
<g id="a_node5"><a xlink:href="../../d3/dc7/enumde_1_1tu__clausthal_1_1in_1_1bachelorproject2018_1_1poker_1_1game_1_1round_1_1ERound.htm#aaf9a5e22dad6f81c01b993edf3bc5bce" target="_top" xlink:title="factory round objects ">
<polygon fill="none" stroke="black" points="652,-172.5 652,-200.5 945,-200.5 945,-172.5 652,-172.5"/>
<text text-anchor="start" x="660" y="-189.3" font-family="Helvetica,sans-Serif" font-size="9.00">de.tu_clausthal.in.bachelorproject2018.poker.game.round.</text>
<text text-anchor="middle" x="798.5" y="-179.3" font-family="Helvetica,sans-Serif" font-size="9.00">ERound.factory</text>
</a>
</g>
</g>
<!-- Node93&#45;&gt;Node96 -->
<g id="edge6" class="edge"><title>Node93&#45;&gt;Node96</title>
<path fill="none" stroke="midnightblue" d="M616.191,-200.425C624.685,-199.773 633.248,-199.115 641.785,-198.46"/>
<polygon fill="midnightblue" stroke="midnightblue" points="642.086,-201.947 651.789,-197.691 641.55,-194.967 642.086,-201.947"/>
</g>
<!-- Node95 -->
<g id="node4" class="node"><title>Node95</title>
<g id="a_node4"><a xlink:href="../../d2/dd9/classde_1_1tu__clausthal_1_1in_1_1bachelorproject2018_1_1poker_1_1game_1_1table_1_1CTable.htm#ac4262ba4e9012a8d37c195f2bedeb6f5" target="_top" xlink:title="Methode, die nach jeder Ausführung einer Round&#45;Action durchlaufen wird, um das Spiel ggf fortzusetzen...">
<polygon fill="none" stroke="black" points="981,-266.5 981,-294.5 1271,-294.5 1271,-266.5 981,-266.5"/>
<text text-anchor="start" x="989" y="-283.3" font-family="Helvetica,sans-Serif" font-size="9.00">de.tu_clausthal.in.bachelorproject2018.poker.game.table.</text>
<text text-anchor="middle" x="1126" y="-273.3" font-family="Helvetica,sans-Serif" font-size="9.00">CTable.postaction</text>
</a>
</g>
</g>
<!-- Node94&#45;&gt;Node95 -->
<g id="edge3" class="edge"><title>Node94&#45;&gt;Node95</title>
<path fill="none" stroke="midnightblue" d="M943.691,-273.789C952.648,-273.751 961.681,-273.741 970.68,-273.758"/>
<polygon fill="midnightblue" stroke="midnightblue" points="970.809,-277.258 980.82,-273.789 970.831,-270.258 970.809,-277.258"/>
</g>
<!-- Node95&#45;&gt;Node93 -->
<g id="edge5" class="edge"><title>Node95&#45;&gt;Node93</title>
<path fill="none" stroke="midnightblue" d="M1019.41,-266.468C994.995,-263.373 969.106,-260.212 945,-257.5 838.701,-245.543 718.752,-233.898 626.244,-225.317"/>
<polygon fill="midnightblue" stroke="midnightblue" points="626.523,-221.828 616.243,-224.391 625.878,-228.798 626.523,-221.828"/>
</g>
<!-- Node95&#45;&gt;Node94 -->
<g id="edge4" class="edge"><title>Node95&#45;&gt;Node94</title>
<path fill="none" stroke="midnightblue" d="M980.82,-287.211C971.863,-287.249 962.829,-287.259 953.83,-287.242"/>
<polygon fill="midnightblue" stroke="midnightblue" points="953.701,-283.742 943.691,-287.211 953.68,-290.742 953.701,-283.742"/>
</g>
<!-- Node97 -->
<g id="node6" class="node"><title>Node97</title>
<g id="a_node6"><a xlink:href="../../da/d48/classde_1_1tu__clausthal_1_1in_1_1bachelorproject2018_1_1poker_1_1game_1_1hubs_1_1GameHub.htm#a70d72ce0a72b5c0e490bf935258b69f4" target="_top" xlink:title="getter for the chipsHandler ">
<polygon fill="none" stroke="black" points="981.5,-219.5 981.5,-247.5 1270.5,-247.5 1270.5,-219.5 981.5,-219.5"/>
<text text-anchor="start" x="989.5" y="-236.3" font-family="Helvetica,sans-Serif" font-size="9.00">de.tu_clausthal.in.bachelorproject2018.poker.game.hubs.</text>
<text text-anchor="middle" x="1126" y="-226.3" font-family="Helvetica,sans-Serif" font-size="9.00">GameHub.getChipsHandler</text>
</a>
</g>
</g>
<!-- Node96&#45;&gt;Node97 -->
<g id="edge7" class="edge"><title>Node96&#45;&gt;Node97</title>
<path fill="none" stroke="midnightblue" d="M896.72,-200.538C934.81,-206.038 978.649,-212.368 1017.66,-218.001"/>
<polygon fill="midnightblue" stroke="midnightblue" points="1017.6,-221.529 1028,-219.494 1018.6,-214.601 1017.6,-221.529"/>
</g>
<!-- Node98 -->
<g id="node7" class="node"><title>Node98</title>
<g id="a_node7"><a xlink:href="../../d2/dd9/classde_1_1tu__clausthal_1_1in_1_1bachelorproject2018_1_1poker_1_1game_1_1table_1_1CTable.htm#ac7e661dcdd5fee36ea4e88c89649907a" target="_top" xlink:title="de.tu_clausthal.in.bachelorproject2018.poker.game.table.\lCTable.getGameHub">
<polygon fill="none" stroke="black" points="981,-172.5 981,-200.5 1271,-200.5 1271,-172.5 981,-172.5"/>
<text text-anchor="start" x="989" y="-189.3" font-family="Helvetica,sans-Serif" font-size="9.00">de.tu_clausthal.in.bachelorproject2018.poker.game.table.</text>
<text text-anchor="middle" x="1126" y="-179.3" font-family="Helvetica,sans-Serif" font-size="9.00">CTable.getGameHub</text>
</a>
</g>
</g>
<!-- Node96&#45;&gt;Node98 -->
<g id="edge8" class="edge"><title>Node96&#45;&gt;Node98</title>
<path fill="none" stroke="midnightblue" d="M945.113,-186.5C953.63,-186.5 962.209,-186.5 970.758,-186.5"/>
<polygon fill="midnightblue" stroke="midnightblue" points="970.772,-190 980.772,-186.5 970.772,-183 970.772,-190"/>
</g>
<!-- Node99 -->
<g id="node8" class="node"><title>Node99</title>
<g id="a_node8"><a xlink:href="../../da/d48/classde_1_1tu__clausthal_1_1in_1_1bachelorproject2018_1_1poker_1_1game_1_1hubs_1_1GameHub.htm#a2f65b057de245146843c2f5c3bbe30f1" target="_top" xlink:title="getter for the playerlist ">
<polygon fill="none" stroke="black" points="1307,-86.5 1307,-114.5 1596,-114.5 1596,-86.5 1307,-86.5"/>
<text text-anchor="start" x="1315" y="-103.3" font-family="Helvetica,sans-Serif" font-size="9.00">de.tu_clausthal.in.bachelorproject2018.poker.game.hubs.</text>
<text text-anchor="middle" x="1451.5" y="-93.3" font-family="Helvetica,sans-Serif" font-size="9.00">GameHub.getPlayerList</text>
</a>
</g>
</g>
<!-- Node96&#45;&gt;Node99 -->
<g id="edge9" class="edge"><title>Node96&#45;&gt;Node99</title>
<path fill="none" stroke="midnightblue" d="M905.55,-172.474C930.31,-169.2 956.579,-165.727 981,-162.5 1101.45,-146.584 1239.28,-128.384 1334.29,-115.84"/>
<polygon fill="midnightblue" stroke="midnightblue" points="1334.76,-119.309 1344.21,-114.53 1333.84,-112.369 1334.76,-119.309"/>
</g>
<!-- Node102 -->
<g id="node11" class="node"><title>Node102</title>
<g id="a_node11"><a xlink:href="../../dd/dfe/classde_1_1tu__clausthal_1_1in_1_1bachelorproject2018_1_1poker_1_1game_1_1hubs_1_1ChipsHandling.htm#a9ae90b277f875f8e03844dc16e2b99a3" target="_top" xlink:title="check who starts the round should be the player next to bigBlind, but if bigBlind is highest index of...">
<polygon fill="none" stroke="black" points="981.5,-86.5 981.5,-114.5 1270.5,-114.5 1270.5,-86.5 981.5,-86.5"/>
<text text-anchor="start" x="989.5" y="-103.3" font-family="Helvetica,sans-Serif" font-size="9.00">de.tu_clausthal.in.bachelorproject2018.poker.game.hubs.</text>
<text text-anchor="middle" x="1126" y="-93.3" font-family="Helvetica,sans-Serif" font-size="9.00">ChipsHandling.getRoundStarter</text>
</a>
</g>
</g>
<!-- Node96&#45;&gt;Node102 -->
<g id="edge12" class="edge"><title>Node96&#45;&gt;Node102</title>
<path fill="none" stroke="midnightblue" d="M839.875,-172.472C876.425,-160.097 931.897,-142.117 981,-129.5 999.215,-124.82 1018.89,-120.429 1037.66,-116.55"/>
<polygon fill="midnightblue" stroke="midnightblue" points="1038.58,-119.934 1047.68,-114.509 1037.19,-113.075 1038.58,-119.934"/>
</g>
<!-- Node100 -->
<g id="node9" class="node"><title>Node100</title>
<g id="a_node9"><a xlink:href="../../da/d48/classde_1_1tu__clausthal_1_1in_1_1bachelorproject2018_1_1poker_1_1game_1_1hubs_1_1GameHub.htm#a779929edeff8f64a359c53d09be3ca06" target="_top" xlink:title="zieht sich die aktuelle playerList vom Table ">
<polygon fill="none" stroke="black" points="1632,-86.5 1632,-114.5 1921,-114.5 1921,-86.5 1632,-86.5"/>
<text text-anchor="start" x="1640" y="-103.3" font-family="Helvetica,sans-Serif" font-size="9.00">de.tu_clausthal.in.bachelorproject2018.poker.game.hubs.</text>
<text text-anchor="middle" x="1776.5" y="-93.3" font-family="Helvetica,sans-Serif" font-size="9.00">GameHub.updatePlayerlist</text>
</a>
</g>
</g>
<!-- Node99&#45;&gt;Node100 -->
<g id="edge10" class="edge"><title>Node99&#45;&gt;Node100</title>
<path fill="none" stroke="midnightblue" d="M1596.05,-100.5C1604.59,-100.5 1613.2,-100.5 1621.77,-100.5"/>
<polygon fill="midnightblue" stroke="midnightblue" points="1621.82,-104 1631.82,-100.5 1621.82,-97.0001 1621.82,-104"/>
</g>
<!-- Node101 -->
<g id="node10" class="node"><title>Node101</title>
<g id="a_node10"><a xlink:href="../../d5/d36/interfacede_1_1tu__clausthal_1_1in_1_1bachelorproject2018_1_1poker_1_1game_1_1table_1_1ITable.htm#a6e42c7daa9c258015750347f2a5542fe" target="_top" xlink:title="liefert alle Spieler des Tisches ">
<polygon fill="none" stroke="black" points="1957,-86.5 1957,-114.5 2247,-114.5 2247,-86.5 1957,-86.5"/>
<text text-anchor="start" x="1965" y="-103.3" font-family="Helvetica,sans-Serif" font-size="9.00">de.tu_clausthal.in.bachelorproject2018.poker.game.table.</text>
<text text-anchor="middle" x="2102" y="-93.3" font-family="Helvetica,sans-Serif" font-size="9.00">ITable.list</text>
</a>
</g>
</g>
<!-- Node100&#45;&gt;Node101 -->
<g id="edge11" class="edge"><title>Node100&#45;&gt;Node101</title>
<path fill="none" stroke="midnightblue" d="M1921.28,-100.5C1929.67,-100.5 1938.14,-100.5 1946.57,-100.5"/>
<polygon fill="midnightblue" stroke="midnightblue" points="1946.85,-104 1956.84,-100.5 1946.84,-97.0001 1946.85,-104"/>
</g>
<!-- Node102&#45;&gt;Node99 -->
<g id="edge13" class="edge"><title>Node102&#45;&gt;Node99</title>
<path fill="none" stroke="midnightblue" d="M1270.78,-100.5C1279.39,-100.5 1288.07,-100.5 1296.72,-100.5"/>
<polygon fill="midnightblue" stroke="midnightblue" points="1296.85,-104 1306.85,-100.5 1296.85,-97.0001 1296.85,-104"/>
</g>
<!-- Node103&#45;&gt;Node99 -->
<g id="edge16" class="edge"><title>Node103&#45;&gt;Node99</title>
<path fill="none" stroke="midnightblue" d="M615.855,-56.2047C776.007,-55.8599 1042.41,-58.5543 1271,-76.5 1296.73,-78.5203 1324.42,-81.7132 1350.17,-85.1189"/>
<polygon fill="midnightblue" stroke="midnightblue" points="1349.93,-88.6184 1360.31,-86.4841 1350.87,-81.681 1349.93,-88.6184"/>
</g>
<!-- Node104 -->
<g id="node13" class="node"><title>Node104</title>
<g id="a_node13"><a xlink:href="../../dd/d8f/classde_1_1tu__clausthal_1_1in_1_1bachelorproject2018_1_1poker_1_1game_1_1hubs_1_1CardDealer.htm#a7d931382ce0cd91d7b2221e451a4585a" target="_top" xlink:title="get the deck ready at the start of the game like resetForNextRound, except no clearing of tablecards ...">
<polygon fill="none" stroke="black" points="654,-0.5 654,-28.5 943,-28.5 943,-0.5 654,-0.5"/>
<text text-anchor="start" x="662" y="-17.3" font-family="Helvetica,sans-Serif" font-size="9.00">de.tu_clausthal.in.bachelorproject2018.poker.game.hubs.</text>
<text text-anchor="middle" x="798.5" y="-7.3" font-family="Helvetica,sans-Serif" font-size="9.00">CardDealer.firstDeckOfTheGame</text>
</a>
</g>
</g>
<!-- Node103&#45;&gt;Node104 -->
<g id="edge15" class="edge"><title>Node103&#45;&gt;Node104</title>
<path fill="none" stroke="midnightblue" d="M578.13,-43.4797C611.084,-39.1264 647.575,-34.3058 681.183,-29.866"/>
<polygon fill="midnightblue" stroke="midnightblue" points="682.058,-33.2809 691.514,-28.5013 681.141,-26.3412 682.058,-33.2809"/>
</g>
</g>
</svg>
        <g id="navigator" transform="translate(0 0)" fill="#404254">
                <rect fill="#f2f5e9" fill-opacity="0.5" stroke="#606060" stroke-width=".5" x="0" y="0" width="60" height="60"/>
                <use id="zoomplus" xlink:href="#zoomPlus" x="17" y="9" onmousedown="handleZoom(evt,'in')"/>
                <use id="zoomminus" xlink:href="#zoomMin" x="42" y="9" onmousedown="handleZoom(evt,'out')"/>
                <use id="reset" xlink:href="#resetDef" x="30" y="36" onmousedown="handleReset()"/>
                <g id="arrowUp" xlink:href="#dirArrow" transform="translate(30 24)" onmousedown="handlePan(0,-1)">
                  <use xlink:href="#rim" fill="#404040">
                        <set attributeName="fill" to="#808080" begin="arrowUp.mouseover" end="arrowUp.mouseout"/>
                  </use>
                  <path fill="none" stroke="white" stroke-width="1.5" d="M0,-3.0v7 M-2.5,-0.5L0,-3.0L2.5,-0.5"/>
                </g>
                <g id="arrowRight" xlink:href="#dirArrow" transform="rotate(90) translate(36 -43)" onmousedown="handlePan(1,0)">
                  <use xlink:href="#rim" fill="#404040">
                        <set attributeName="fill" to="#808080" begin="arrowRight.mouseover" end="arrowRight.mouseout"/>
                  </use>
                  <path fill="none" stroke="white" stroke-width="1.5" d="M0,-3.0v7 M-2.5,-0.5L0,-3.0L2.5,-0.5"/>
                </g>
                <g id="arrowDown" xlink:href="#dirArrow" transform="rotate(180) translate(-30 -48)" onmousedown="handlePan(0,1)">
                  <use xlink:href="#rim" fill="#404040">
                        <set attributeName="fill" to="#808080" begin="arrowDown.mouseover" end="arrowDown.mouseout"/>
                  </use>
                  <path fill="none" stroke="white" stroke-width="1.5" d="M0,-3.0v7 M-2.5,-0.5L0,-3.0L2.5,-0.5"/>
                </g>
                <g id="arrowLeft" xlink:href="#dirArrow" transform="rotate(270) translate(-36 17)" onmousedown="handlePan(-1,0)">
                  <use xlink:href="#rim" fill="#404040">
                        <set attributeName="fill" to="#808080" begin="arrowLeft.mouseover" end="arrowLeft.mouseout"/>
                  </use>
                  <path fill="none" stroke="white" stroke-width="1.5" d="M0,-3.0v7 M-2.5,-0.5L0,-3.0L2.5,-0.5"/>
                </g>
        </g>
        <svg viewBox="0 0 15 15" width="100%" height="30px" preserveAspectRatio="xMaxYMin meet">
         <g id="arrow_out" transform="scale(0.3 0.3)">
          <a xlink:href="classde_1_1tu__clausthal_1_1in_1_1bachelorproject2018_1_1poker_1_1game_1_1table_1_1CTable_a44356981334e62a09768618f0743d1b5_cgraph_org.svg" target="_base">
           <rect id="button" ry="5" rx="5" y="6" x="6" height="38" width="38"
                fill="#f2f5e9" fill-opacity="0.5" stroke="#606060" stroke-width="1.0"/>
           <path id="arrow"
             d="M 11.500037,31.436501 C 11.940474,20.09759 22.043105,11.32322 32.158766,21.979434 L 37.068811,17.246167 C 37.068811,17.246167 37.088388,32 37.088388,32 L 22.160133,31.978069 C 22.160133,31.978069 26.997745,27.140456 26.997745,27.140456 C 18.528582,18.264221 13.291696,25.230495 11.500037,31.436501 z"
             style="fill:#404040;"/>
          </a>
         </g>
        </svg>
</svg>
