<?xml version="1.0" encoding="UTF-8" standalone="no"?>
<!DOCTYPE svg PUBLIC "-//W3C//DTD SVG 1.1//EN"
 "http://www.w3.org/Graphics/SVG/1.1/DTD/svg11.dtd">
<!-- Generated by graphviz version 2.38.0 (20140413.2041)
 -->
<!-- Title: de.tu_clausthal.in.bachelorproject2018.poker.game.table.CTable.getGameHub Pages: 1 -->
<svg width="1605pt" height="125pt"
 viewBox="0.00 0.00 1605.00 124.70" xmlns="http://www.w3.org/2000/svg" xmlns:xlink="http://www.w3.org/1999/xlink">
<g id="graph0" class="graph" transform="scale(1 1) rotate(0) translate(4 120.701)">
<title>de.tu_clausthal.in.bachelorproject2018.poker.game.table.CTable.getGameHub</title>
<!-- Node49 -->
<g id="node1" class="node"><title>Node49</title>
<polygon fill="#bfbfbf" stroke="black" points="0,-18.2012 0,-46.2012 290,-46.2012 290,-18.2012 0,-18.2012"/>
<text text-anchor="start" x="8" y="-35.0012" font-family="Helvetica,sans-Serif" font-size="9.00">de.tu_clausthal.in.bachelorproject2018.poker.game.table.</text>
<text text-anchor="middle" x="145" y="-25.0012" font-family="Helvetica,sans-Serif" font-size="9.00">CTable.getGameHub</text>
</g>
<!-- Node50 -->
<g id="node2" class="node"><title>Node50</title>
<g id="a_node2"><a xlink:href="../../d3/dc7/enumde_1_1tu__clausthal_1_1in_1_1bachelorproject2018_1_1poker_1_1game_1_1round_1_1ERound.htm#aaf9a5e22dad6f81c01b993edf3bc5bce" target="_top" xlink:title="factory round objects ">
<polygon fill="none" stroke="black" points="326,-18.2012 326,-46.2012 619,-46.2012 619,-18.2012 326,-18.2012"/>
<text text-anchor="start" x="334" y="-35.0012" font-family="Helvetica,sans-Serif" font-size="9.00">de.tu_clausthal.in.bachelorproject2018.poker.game.round.</text>
<text text-anchor="middle" x="472.5" y="-25.0012" font-family="Helvetica,sans-Serif" font-size="9.00">ERound.factory</text>
</a>
</g>
</g>
<!-- Node49&#45;&gt;Node50 -->
<g id="edge1" class="edge"><title>Node49&#45;&gt;Node50</title>
<path fill="none" stroke="midnightblue" d="M300.466,-32.2012C308.908,-32.2012 317.379,-32.2012 325.789,-32.2012"/>
<polygon fill="midnightblue" stroke="midnightblue" points="300.191,-28.7012 290.191,-32.2012 300.19,-35.7012 300.191,-28.7012"/>
</g>
<!-- Node51 -->
<g id="node3" class="node"><title>Node51</title>
<g id="a_node3"><a xlink:href="../../d2/dd9/classde_1_1tu__clausthal_1_1in_1_1bachelorproject2018_1_1poker_1_1game_1_1table_1_1CTable.htm#ad0183995fab983da1c6c6609c0b32b5e" target="_top" xlink:title="Methode um eine neue Runde zu bauen. ">
<polygon fill="none" stroke="black" points="655,-18.2012 655,-46.2012 945,-46.2012 945,-18.2012 655,-18.2012"/>
<text text-anchor="start" x="663" y="-35.0012" font-family="Helvetica,sans-Serif" font-size="9.00">de.tu_clausthal.in.bachelorproject2018.poker.game.table.</text>
<text text-anchor="middle" x="800" y="-25.0012" font-family="Helvetica,sans-Serif" font-size="9.00">CTable.generateround</text>
</a>
</g>
</g>
<!-- Node50&#45;&gt;Node51 -->
<g id="edge2" class="edge"><title>Node50&#45;&gt;Node51</title>
<path fill="none" stroke="midnightblue" d="M629.134,-32.2012C637.686,-32.2012 646.263,-32.2012 654.772,-32.2012"/>
<polygon fill="midnightblue" stroke="midnightblue" points="629.113,-28.7013 619.113,-32.2012 629.113,-35.7013 629.113,-28.7013"/>
</g>
<!-- Node52 -->
<g id="node4" class="node"><title>Node52</title>
<g id="a_node4"><a xlink:href="../../d2/dd9/classde_1_1tu__clausthal_1_1in_1_1bachelorproject2018_1_1poker_1_1game_1_1table_1_1CTable.htm#ac4262ba4e9012a8d37c195f2bedeb6f5" target="_top" xlink:title="Methode, die nach jeder Ausführung einer Round&#45;Action durchlaufen wird, um das Spiel ggf fortzusetzen...">
<polygon fill="none" stroke="black" points="981,-65.2012 981,-93.2012 1271,-93.2012 1271,-65.2012 981,-65.2012"/>
<text text-anchor="start" x="989" y="-82.0012" font-family="Helvetica,sans-Serif" font-size="9.00">de.tu_clausthal.in.bachelorproject2018.poker.game.table.</text>
<text text-anchor="middle" x="1126" y="-72.0012" font-family="Helvetica,sans-Serif" font-size="9.00">CTable.postaction</text>
</a>
</g>
</g>
<!-- Node51&#45;&gt;Node52 -->
<g id="edge3" class="edge"><title>Node51&#45;&gt;Node52</title>
<path fill="none" stroke="midnightblue" d="M908.066,-47.7323C946.919,-53.3684 990.554,-59.6982 1028.45,-65.195"/>
<polygon fill="midnightblue" stroke="midnightblue" points="908.171,-44.211 897.772,-46.239 907.166,-51.1385 908.171,-44.211"/>
</g>
<!-- Node55 -->
<g id="node7" class="node"><title>Node55</title>
<g id="a_node7"><a xlink:href="../../d2/dd9/classde_1_1tu__clausthal_1_1in_1_1bachelorproject2018_1_1poker_1_1game_1_1table_1_1CTable.htm#a44356981334e62a09768618f0743d1b5" target="_top" xlink:title="startet das Spiel ">
<polygon fill="none" stroke="black" points="981,-18.2012 981,-46.2012 1271,-46.2012 1271,-18.2012 981,-18.2012"/>
<text text-anchor="start" x="989" y="-35.0012" font-family="Helvetica,sans-Serif" font-size="9.00">de.tu_clausthal.in.bachelorproject2018.poker.game.table.</text>
<text text-anchor="middle" x="1126" y="-25.0012" font-family="Helvetica,sans-Serif" font-size="9.00">CTable.start</text>
</a>
</g>
</g>
<!-- Node51&#45;&gt;Node55 -->
<g id="edge8" class="edge"><title>Node51&#45;&gt;Node55</title>
<path fill="none" stroke="midnightblue" d="M955.666,-32.2012C964.04,-32.2012 972.44,-32.2012 980.777,-32.2012"/>
<polygon fill="midnightblue" stroke="midnightblue" points="955.47,-28.7013 945.47,-32.2012 955.47,-35.7013 955.47,-28.7013"/>
</g>
<!-- Node53 -->
<g id="node5" class="node"><title>Node53</title>
<g id="a_node5"><a xlink:href="../../d2/dd9/classde_1_1tu__clausthal_1_1in_1_1bachelorproject2018_1_1poker_1_1game_1_1table_1_1CTable.htm#a763745ff3fa160c02f05117b84b092d4" target="_top" xlink:title="führe ein Element aus der ">
<polygon fill="none" stroke="black" points="1307,-88.2012 1307,-116.201 1597,-116.201 1597,-88.2012 1307,-88.2012"/>
<text text-anchor="start" x="1315" y="-105.001" font-family="Helvetica,sans-Serif" font-size="9.00">de.tu_clausthal.in.bachelorproject2018.poker.game.table.</text>
<text text-anchor="middle" x="1452" y="-95.0012" font-family="Helvetica,sans-Serif" font-size="9.00">CTable.accept</text>
</a>
</g>
</g>
<!-- Node52&#45;&gt;Node53 -->
<g id="edge4" class="edge"><title>Node52&#45;&gt;Node53</title>
<path fill="none" stroke="midnightblue" d="M1281.67,-90.1805C1290.04,-90.775 1298.44,-91.3713 1306.78,-91.9631"/>
<polygon fill="midnightblue" stroke="midnightblue" points="1281.69,-86.6737 1271.47,-89.4567 1281.2,-93.6561 1281.69,-86.6737"/>
</g>
<!-- Node54 -->
<g id="node6" class="node"><title>Node54</title>
<g id="a_node6"><a xlink:href="../../d2/dd9/classde_1_1tu__clausthal_1_1in_1_1bachelorproject2018_1_1poker_1_1game_1_1table_1_1CTable.htm#ac36fc046548fc6b47ee44cecbfd158db" target="_top" xlink:title="führt immer einen Schritt des Spiels aus ">
<polygon fill="none" stroke="black" points="1307,-41.2012 1307,-69.2012 1597,-69.2012 1597,-41.2012 1307,-41.2012"/>
<text text-anchor="start" x="1315" y="-58.0012" font-family="Helvetica,sans-Serif" font-size="9.00">de.tu_clausthal.in.bachelorproject2018.poker.game.table.</text>
<text text-anchor="middle" x="1452" y="-48.0012" font-family="Helvetica,sans-Serif" font-size="9.00">CTable.executestep</text>
</a>
</g>
</g>
<!-- Node52&#45;&gt;Node54 -->
<g id="edge5" class="edge"><title>Node52&#45;&gt;Node54</title>
<path fill="none" stroke="midnightblue" d="M1240.5,-64.3199C1261.97,-62.4785 1284.68,-60.7161 1306.94,-59.1594"/>
<polygon fill="midnightblue" stroke="midnightblue" points="1240.06,-60.8447 1230.41,-65.2002 1240.67,-67.8183 1240.06,-60.8447"/>
</g>
<!-- Node54&#45;&gt;Node51 -->
<g id="edge6" class="edge"><title>Node54&#45;&gt;Node51</title>
<path fill="none" stroke="midnightblue" d="M1399.72,-38.0731C1364.08,-27.0963 1315.22,-13.8785 1271,-8.20115 1139.31,8.70787 985.431,-5.5199 890.591,-18.1684"/>
<polygon fill="midnightblue" stroke="midnightblue" points="1398.82,-41.4586 1409.41,-41.1016 1400.91,-34.7774 1398.82,-41.4586"/>
</g>
<!-- Node54&#45;&gt;Node52 -->
<g id="edge7" class="edge"><title>Node54&#45;&gt;Node52</title>
<path fill="none" stroke="midnightblue" d="M1337.54,-70.0783C1316.2,-71.91 1293.61,-73.6636 1271.47,-75.2144"/>
<polygon fill="midnightblue" stroke="midnightblue" points="1337.93,-73.5583 1347.59,-69.2027 1337.32,-66.5847 1337.93,-73.5583"/>
</g>
</g>
</svg>
