<?xml version="1.0" encoding="UTF-8" standalone="no"?>
<!DOCTYPE svg PUBLIC "-//W3C//DTD SVG 1.1//EN"
 "http://www.w3.org/Graphics/SVG/1.1/DTD/svg11.dtd">
<!-- Generated by graphviz version 2.38.0 (20140413.2041)
 -->
<!-- Title: de.tu_clausthal.in.bachelorproject2018.poker.game.action.CAllIn.accept Pages: 1 -->
<svg width="629pt" height="225pt"
 viewBox="0.00 0.00 629.00 225.00" xmlns="http://www.w3.org/2000/svg" xmlns:xlink="http://www.w3.org/1999/xlink">
<g id="graph0" class="graph" transform="scale(1 1) rotate(0) translate(4 221)">
<title>de.tu_clausthal.in.bachelorproject2018.poker.game.action.CAllIn.accept</title>
<!-- Node2 -->
<g id="node1" class="node"><title>Node2</title>
<polygon fill="#bfbfbf" stroke="black" points="0,-94.5 0,-122.5 295,-122.5 295,-94.5 0,-94.5"/>
<text text-anchor="start" x="8" y="-111.3" font-family="Helvetica,sans-Serif" font-size="9.00">de.tu_clausthal.in.bachelorproject2018.poker.game.action.</text>
<text text-anchor="middle" x="147.5" y="-101.3" font-family="Helvetica,sans-Serif" font-size="9.00">CAllIn.accept</text>
</g>
<!-- Node3 -->
<g id="node2" class="node"><title>Node3</title>
<g id="a_node2"><a xlink:href="../../dd/dfe/classde_1_1tu__clausthal_1_1in_1_1bachelorproject2018_1_1poker_1_1game_1_1hubs_1_1ChipsHandling.htm#ab0683a79bac0b45815b48120c1c0b003" target="_top" xlink:title="add the getAmountBetThisRound to the pot gets called when a player bets anything newRound will be set...">
<polygon fill="none" stroke="black" points="331.5,-188.5 331.5,-216.5 620.5,-216.5 620.5,-188.5 331.5,-188.5"/>
<text text-anchor="start" x="339.5" y="-205.3" font-family="Helvetica,sans-Serif" font-size="9.00">de.tu_clausthal.in.bachelorproject2018.poker.game.hubs.</text>
<text text-anchor="middle" x="476" y="-195.3" font-family="Helvetica,sans-Serif" font-size="9.00">ChipsHandling.addToPot</text>
</a>
</g>
</g>
<!-- Node2&#45;&gt;Node3 -->
<g id="edge1" class="edge"><title>Node2&#45;&gt;Node3</title>
<path fill="none" stroke="midnightblue" d="M178.827,-122.604C214.505,-138.65 275.874,-164.557 331,-179.5 340.438,-182.058 350.306,-184.368 360.26,-186.446"/>
<polygon fill="midnightblue" stroke="midnightblue" points="359.736,-189.911 370.229,-188.448 361.114,-183.048 359.736,-189.911"/>
</g>
<!-- Node4 -->
<g id="node3" class="node"><title>Node4</title>
<g id="a_node3"><a xlink:href="../../da/d48/classde_1_1tu__clausthal_1_1in_1_1bachelorproject2018_1_1poker_1_1game_1_1hubs_1_1GameHub.htm#a70d72ce0a72b5c0e490bf935258b69f4" target="_top" xlink:title="getter for the chipsHandler ">
<polygon fill="none" stroke="black" points="331.5,-141.5 331.5,-169.5 620.5,-169.5 620.5,-141.5 331.5,-141.5"/>
<text text-anchor="start" x="339.5" y="-158.3" font-family="Helvetica,sans-Serif" font-size="9.00">de.tu_clausthal.in.bachelorproject2018.poker.game.hubs.</text>
<text text-anchor="middle" x="476" y="-148.3" font-family="Helvetica,sans-Serif" font-size="9.00">GameHub.getChipsHandler</text>
</a>
</g>
</g>
<!-- Node2&#45;&gt;Node4 -->
<g id="edge2" class="edge"><title>Node2&#45;&gt;Node4</title>
<path fill="none" stroke="midnightblue" d="M246.019,-122.538C284.226,-128.038 328.2,-134.368 367.334,-140.001"/>
<polygon fill="midnightblue" stroke="midnightblue" points="367.305,-143.533 377.702,-141.494 368.303,-136.605 367.305,-143.533"/>
</g>
<!-- Node5 -->
<g id="node4" class="node"><title>Node5</title>
<g id="a_node4"><a xlink:href="../../d5/d36/interfacede_1_1tu__clausthal_1_1in_1_1bachelorproject2018_1_1poker_1_1game_1_1table_1_1ITable.htm#ad5910542f67b66837a7e3c326d22a671" target="_top" xlink:title="de.tu_clausthal.in.bachelorproject2018.poker.game.table.\lITable.getGameHub">
<polygon fill="none" stroke="black" points="331,-94.5 331,-122.5 621,-122.5 621,-94.5 331,-94.5"/>
<text text-anchor="start" x="339" y="-111.3" font-family="Helvetica,sans-Serif" font-size="9.00">de.tu_clausthal.in.bachelorproject2018.poker.game.table.</text>
<text text-anchor="middle" x="476" y="-101.3" font-family="Helvetica,sans-Serif" font-size="9.00">ITable.getGameHub</text>
</a>
</g>
</g>
<!-- Node2&#45;&gt;Node5 -->
<g id="edge3" class="edge"><title>Node2&#45;&gt;Node5</title>
<path fill="none" stroke="midnightblue" d="M295.037,-108.5C303.627,-108.5 312.279,-108.5 320.898,-108.5"/>
<polygon fill="midnightblue" stroke="midnightblue" points="320.994,-112 330.994,-108.5 320.994,-105 320.994,-112"/>
</g>
<!-- Node6 -->
<g id="node5" class="node"><title>Node6</title>
<g id="a_node5"><a xlink:href="../../dd/dfe/classde_1_1tu__clausthal_1_1in_1_1bachelorproject2018_1_1poker_1_1game_1_1hubs_1_1ChipsHandling.htm#a699a7031357ff2ad7469e7bbf786d1b4" target="_top" xlink:title="de.tu_clausthal.in.bachelorproject2018.poker.game.hubs.\lChipsHandling.getPot">
<polygon fill="none" stroke="black" points="331.5,-47.5 331.5,-75.5 620.5,-75.5 620.5,-47.5 331.5,-47.5"/>
<text text-anchor="start" x="339.5" y="-64.3" font-family="Helvetica,sans-Serif" font-size="9.00">de.tu_clausthal.in.bachelorproject2018.poker.game.hubs.</text>
<text text-anchor="middle" x="476" y="-54.3" font-family="Helvetica,sans-Serif" font-size="9.00">ChipsHandling.getPot</text>
</a>
</g>
</g>
<!-- Node2&#45;&gt;Node6 -->
<g id="edge4" class="edge"><title>Node2&#45;&gt;Node6</title>
<path fill="none" stroke="midnightblue" d="M246.019,-94.4621C284.226,-88.9621 328.2,-82.6321 367.334,-76.9986"/>
<polygon fill="midnightblue" stroke="midnightblue" points="368.303,-80.3953 377.702,-75.5061 367.305,-73.4668 368.303,-80.3953"/>
</g>
<!-- Node7 -->
<g id="node6" class="node"><title>Node7</title>
<g id="a_node6"><a xlink:href="../../d5/d36/interfacede_1_1tu__clausthal_1_1in_1_1bachelorproject2018_1_1poker_1_1game_1_1table_1_1ITable.htm#a442079183a6b0e75a07ee8549947f929" target="_top" xlink:title="Name des Tisches. ">
<polygon fill="none" stroke="black" points="331,-0.5 331,-28.5 621,-28.5 621,-0.5 331,-0.5"/>
<text text-anchor="start" x="339" y="-17.3" font-family="Helvetica,sans-Serif" font-size="9.00">de.tu_clausthal.in.bachelorproject2018.poker.game.table.</text>
<text text-anchor="middle" x="476" y="-7.3" font-family="Helvetica,sans-Serif" font-size="9.00">ITable.name</text>
</a>
</g>
</g>
<!-- Node2&#45;&gt;Node7 -->
<g id="edge5" class="edge"><title>Node2&#45;&gt;Node7</title>
<path fill="none" stroke="midnightblue" d="M179.509,-94.3969C215.315,-78.6357 276.318,-53.3811 331,-38.5 341.876,-35.5402 353.319,-32.8845 364.804,-30.5166"/>
<polygon fill="midnightblue" stroke="midnightblue" points="365.769,-33.8932 374.894,-28.5093 364.403,-27.0277 365.769,-33.8932"/>
</g>
</g>
</svg>
