<?xml version="1.0" encoding="UTF-8" standalone="no"?>
<!DOCTYPE svg PUBLIC "-//W3C//DTD SVG 1.1//EN"
 "http://www.w3.org/Graphics/SVG/1.1/DTD/svg11.dtd">
<!-- Generated by graphviz version 2.38.0 (20140413.2041)
 -->
<!-- Title: de.tu_clausthal.in.bachelorproject2018.poker.game.table.CTable Pages: 1 -->
<svg width="1032pt" height="805pt"
 viewBox="0.00 0.00 1031.50 805.00" xmlns="http://www.w3.org/2000/svg" xmlns:xlink="http://www.w3.org/1999/xlink">
<g id="graph0" class="graph" transform="scale(1 1) rotate(0) translate(4 801)">
<title>de.tu_clausthal.in.bachelorproject2018.poker.game.table.CTable</title>
<!-- Node2 -->
<g id="node1" class="node"><title>Node2</title>
<polygon fill="#bfbfbf" stroke="black" points="48,-15.5 48,-279.5 338,-279.5 338,-15.5 48,-15.5"/>
<text text-anchor="start" x="56" y="-268.3" font-family="Helvetica,sans-Serif" font-size="9.00">de.tu_clausthal.in.bachelorproject2018.poker.game.table.</text>
<text text-anchor="middle" x="193" y="-258.3" font-family="Helvetica,sans-Serif" font-size="9.00">CTable</text>
<polyline fill="none" stroke="black" points="48,-251.5 338,-251.5 "/>
<text text-anchor="start" x="56" y="-240.3" font-family="Helvetica,sans-Serif" font-size="9.00">&#45; m_currentround</text>
<text text-anchor="start" x="56" y="-230.3" font-family="Helvetica,sans-Serif" font-size="9.00">&#45; m_eventPublisher</text>
<text text-anchor="start" x="56" y="-220.3" font-family="Helvetica,sans-Serif" font-size="9.00">&#45; m_execution</text>
<text text-anchor="start" x="56" y="-210.3" font-family="Helvetica,sans-Serif" font-size="9.00">&#45; m_name</text>
<text text-anchor="start" x="56" y="-200.3" font-family="Helvetica,sans-Serif" font-size="9.00">&#45; m_players</text>
<polyline fill="none" stroke="black" points="48,-193.5 338,-193.5 "/>
<text text-anchor="start" x="56" y="-182.3" font-family="Helvetica,sans-Serif" font-size="9.00">+ CTable()</text>
<text text-anchor="start" x="56" y="-172.3" font-family="Helvetica,sans-Serif" font-size="9.00">+ accept()</text>
<text text-anchor="start" x="56" y="-162.3" font-family="Helvetica,sans-Serif" font-size="9.00">+ equals()</text>
<text text-anchor="start" x="56" y="-152.3" font-family="Helvetica,sans-Serif" font-size="9.00">+ getGameHub()</text>
<text text-anchor="start" x="56" y="-142.3" font-family="Helvetica,sans-Serif" font-size="9.00">+ getQueue()</text>
<text text-anchor="start" x="56" y="-132.3" font-family="Helvetica,sans-Serif" font-size="9.00">+ hashCode()</text>
<text text-anchor="start" x="56" y="-122.3" font-family="Helvetica,sans-Serif" font-size="9.00">+ isplaying()</text>
<text text-anchor="start" x="56" y="-112.3" font-family="Helvetica,sans-Serif" font-size="9.00">+ join()</text>
<text text-anchor="start" x="56" y="-102.3" font-family="Helvetica,sans-Serif" font-size="9.00">+ leave()</text>
<text text-anchor="start" x="56" y="-92.3" font-family="Helvetica,sans-Serif" font-size="9.00">+ list()</text>
<text text-anchor="start" x="56" y="-82.3" font-family="Helvetica,sans-Serif" font-size="9.00">+ name()</text>
<text text-anchor="start" x="56" y="-72.3" font-family="Helvetica,sans-Serif" font-size="9.00">+ owner()</text>
<text text-anchor="start" x="56" y="-62.3" font-family="Helvetica,sans-Serif" font-size="9.00">+ start()</text>
<text text-anchor="start" x="56" y="-52.3" font-family="Helvetica,sans-Serif" font-size="9.00">+ toString()</text>
<text text-anchor="start" x="56" y="-42.3" font-family="Helvetica,sans-Serif" font-size="9.00">&#45; executestep()</text>
<text text-anchor="start" x="56" y="-32.3" font-family="Helvetica,sans-Serif" font-size="9.00">&#45; generateround()</text>
<text text-anchor="start" x="56" y="-22.3" font-family="Helvetica,sans-Serif" font-size="9.00">&#45; postaction()</text>
</g>
<!-- Node3 -->
<g id="node2" class="node"><title>Node3</title>
<g id="a_node2"><a xlink:href="../../d5/d36/interfacede_1_1tu__clausthal_1_1in_1_1bachelorproject2018_1_1poker_1_1game_1_1table_1_1ITable.htm" target="_top" xlink:title="Interface um einen Spieletisch darzustellen. ">
<polygon fill="none" stroke="black" points="0,-652.5 0,-796.5 290,-796.5 290,-652.5 0,-652.5"/>
<text text-anchor="start" x="8" y="-785.3" font-family="Helvetica,sans-Serif" font-size="9.00">de.tu_clausthal.in.bachelorproject2018.poker.game.table.</text>
<text text-anchor="middle" x="145" y="-775.3" font-family="Helvetica,sans-Serif" font-size="9.00">ITable</text>
<polyline fill="none" stroke="black" points="0,-768.5 290,-768.5 "/>
<text text-anchor="middle" x="145" y="-757.3" font-family="Helvetica,sans-Serif" font-size="9.00"> </text>
<polyline fill="none" stroke="black" points="0,-750.5 290,-750.5 "/>
<text text-anchor="start" x="8" y="-739.3" font-family="Helvetica,sans-Serif" font-size="9.00">+ getGameHub()</text>
<text text-anchor="start" x="8" y="-729.3" font-family="Helvetica,sans-Serif" font-size="9.00">+ getQueue()</text>
<text text-anchor="start" x="8" y="-719.3" font-family="Helvetica,sans-Serif" font-size="9.00">+ isplaying()</text>
<text text-anchor="start" x="8" y="-709.3" font-family="Helvetica,sans-Serif" font-size="9.00">+ join()</text>
<text text-anchor="start" x="8" y="-699.3" font-family="Helvetica,sans-Serif" font-size="9.00">+ leave()</text>
<text text-anchor="start" x="8" y="-689.3" font-family="Helvetica,sans-Serif" font-size="9.00">+ list()</text>
<text text-anchor="start" x="8" y="-679.3" font-family="Helvetica,sans-Serif" font-size="9.00">+ name()</text>
<text text-anchor="start" x="8" y="-669.3" font-family="Helvetica,sans-Serif" font-size="9.00">+ owner()</text>
<text text-anchor="start" x="8" y="-659.3" font-family="Helvetica,sans-Serif" font-size="9.00">+ start()</text>
</a>
</g>
</g>
<!-- Node3&#45;&gt;Node2 -->
<g id="edge1" class="edge"><title>Node3&#45;&gt;Node2</title>
<path fill="none" stroke="midnightblue" d="M94.5397,-643.087C88.9717,-631.039 84.175,-618.467 81,-606 51.9326,-491.865 50.3267,-454.713 81,-341 86.5887,-320.281 95.0183,-299.499 104.794,-279.653"/>
<polygon fill="none" stroke="midnightblue" points="91.4339,-644.705 98.9338,-652.188 97.7376,-641.661 91.4339,-644.705"/>
</g>
<!-- Node5 -->
<g id="node4" class="node"><title>Node5</title>
<g id="a_node4"><a xlink:href="../../da/d48/classde_1_1tu__clausthal_1_1in_1_1bachelorproject2018_1_1poker_1_1game_1_1hubs_1_1GameHub.htm" target="_top" xlink:title="{de.tu_clausthal.in.bachelorproject2018.poker.game.hubs.\lGameHub\n|&#45; chipsStartAmount\l&#45; players\l|+ GameHub()\l+ getCardDealer()\l+ getChipsHandler()\l+ getDetermineWinner()\l+ getPlayerList()\l+ getTable()\l+ getWinnerHand()\l+ startGame()\l+ updatePlayerlist()\l}">
<polygon fill="none" stroke="black" points="401.5,-396.5 401.5,-550.5 690.5,-550.5 690.5,-396.5 401.5,-396.5"/>
<text text-anchor="start" x="409.5" y="-539.3" font-family="Helvetica,sans-Serif" font-size="9.00">de.tu_clausthal.in.bachelorproject2018.poker.game.hubs.</text>
<text text-anchor="middle" x="546" y="-529.3" font-family="Helvetica,sans-Serif" font-size="9.00">GameHub</text>
<polyline fill="none" stroke="black" points="401.5,-522.5 690.5,-522.5 "/>
<text text-anchor="start" x="409.5" y="-511.3" font-family="Helvetica,sans-Serif" font-size="9.00">&#45; chipsStartAmount</text>
<text text-anchor="start" x="409.5" y="-501.3" font-family="Helvetica,sans-Serif" font-size="9.00">&#45; players</text>
<polyline fill="none" stroke="black" points="401.5,-494.5 690.5,-494.5 "/>
<text text-anchor="start" x="409.5" y="-483.3" font-family="Helvetica,sans-Serif" font-size="9.00">+ GameHub()</text>
<text text-anchor="start" x="409.5" y="-473.3" font-family="Helvetica,sans-Serif" font-size="9.00">+ getCardDealer()</text>
<text text-anchor="start" x="409.5" y="-463.3" font-family="Helvetica,sans-Serif" font-size="9.00">+ getChipsHandler()</text>
<text text-anchor="start" x="409.5" y="-453.3" font-family="Helvetica,sans-Serif" font-size="9.00">+ getDetermineWinner()</text>
<text text-anchor="start" x="409.5" y="-443.3" font-family="Helvetica,sans-Serif" font-size="9.00">+ getPlayerList()</text>
<text text-anchor="start" x="409.5" y="-433.3" font-family="Helvetica,sans-Serif" font-size="9.00">+ getTable()</text>
<text text-anchor="start" x="409.5" y="-423.3" font-family="Helvetica,sans-Serif" font-size="9.00">+ getWinnerHand()</text>
<text text-anchor="start" x="409.5" y="-413.3" font-family="Helvetica,sans-Serif" font-size="9.00">+ startGame()</text>
<text text-anchor="start" x="409.5" y="-403.3" font-family="Helvetica,sans-Serif" font-size="9.00">+ updatePlayerlist()</text>
</a>
</g>
</g>
<!-- Node3&#45;&gt;Node5 -->
<g id="edge5" class="edge"><title>Node3&#45;&gt;Node5</title>
<path fill="none" stroke="#404040" d="M290.166,-662.252C324.505,-645.659 360.327,-626.543 392,-606 413.517,-592.044 435.275,-575.365 455.391,-558.647"/>
<polygon fill="none" stroke="#404040" points="455.637,-558.44 457.651,-551.515 464.817,-550.711 462.803,-557.636 455.637,-558.44"/>
<text text-anchor="middle" x="376.5" y="-626.8" font-family="Helvetica,sans-Serif" font-size="9.00"> &#45;table</text>
</g>
<!-- Node4 -->
<g id="node3" class="node"><title>Node4</title>
<g id="a_node3"><a xlink:href="../../d2/d11/interfacede_1_1tu__clausthal_1_1in_1_1bachelorproject2018_1_1poker_1_1game_1_1player_1_1IPlayer.htm" target="_top" xlink:title="Spieler Interface. ">
<polygon fill="none" stroke="black" points="90.5,-341.5 90.5,-605.5 383.5,-605.5 383.5,-341.5 90.5,-341.5"/>
<text text-anchor="start" x="98.5" y="-594.3" font-family="Helvetica,sans-Serif" font-size="9.00">de.tu_clausthal.in.bachelorproject2018.poker.game.player.</text>
<text text-anchor="middle" x="237" y="-584.3" font-family="Helvetica,sans-Serif" font-size="9.00">IPlayer</text>
<polyline fill="none" stroke="black" points="90.5,-577.5 383.5,-577.5 "/>
<text text-anchor="middle" x="237" y="-566.3" font-family="Helvetica,sans-Serif" font-size="9.00"> </text>
<polyline fill="none" stroke="black" points="90.5,-559.5 383.5,-559.5 "/>
<text text-anchor="start" x="98.5" y="-548.3" font-family="Helvetica,sans-Serif" font-size="9.00">+ addChips()</text>
<text text-anchor="start" x="98.5" y="-538.3" font-family="Helvetica,sans-Serif" font-size="9.00">+ addToAmountBetThisRound()</text>
<text text-anchor="start" x="98.5" y="-528.3" font-family="Helvetica,sans-Serif" font-size="9.00">+ check()</text>
<text text-anchor="start" x="98.5" y="-518.3" font-family="Helvetica,sans-Serif" font-size="9.00">+ checkfolded()</text>
<text text-anchor="start" x="98.5" y="-508.3" font-family="Helvetica,sans-Serif" font-size="9.00">+ fold()</text>
<text text-anchor="start" x="98.5" y="-498.3" font-family="Helvetica,sans-Serif" font-size="9.00">+ getAllIn()</text>
<text text-anchor="start" x="98.5" y="-488.3" font-family="Helvetica,sans-Serif" font-size="9.00">+ getAmountBetThisRound()</text>
<text text-anchor="start" x="98.5" y="-478.3" font-family="Helvetica,sans-Serif" font-size="9.00">+ getAmountBetThisRound()</text>
<text text-anchor="start" x="98.5" y="-468.3" font-family="Helvetica,sans-Serif" font-size="9.00">+ getChecked()</text>
<text text-anchor="start" x="98.5" y="-458.3" font-family="Helvetica,sans-Serif" font-size="9.00">+ getChipsCount()</text>
<text text-anchor="start" x="98.5" y="-448.3" font-family="Helvetica,sans-Serif" font-size="9.00">+ getName()</text>
<text text-anchor="start" x="98.5" y="-438.3" font-family="Helvetica,sans-Serif" font-size="9.00">+ getPlayerhand()</text>
<text text-anchor="start" x="98.5" y="-428.3" font-family="Helvetica,sans-Serif" font-size="9.00">+ getTable()</text>
<text text-anchor="start" x="98.5" y="-418.3" font-family="Helvetica,sans-Serif" font-size="9.00">+ message()</text>
<text text-anchor="start" x="98.5" y="-408.3" font-family="Helvetica,sans-Serif" font-size="9.00">+ playerAllIn()</text>
<text text-anchor="start" x="98.5" y="-398.3" font-family="Helvetica,sans-Serif" font-size="9.00">+ resetAllIn()</text>
<text text-anchor="start" x="98.5" y="-388.3" font-family="Helvetica,sans-Serif" font-size="9.00">+ resetAmountBetThisRound()</text>
<text text-anchor="start" x="98.5" y="-378.3" font-family="Helvetica,sans-Serif" font-size="9.00">+ resetFolded()</text>
<text text-anchor="start" x="98.5" y="-368.3" font-family="Helvetica,sans-Serif" font-size="9.00">+ resetHasChecked()</text>
<text text-anchor="start" x="98.5" y="-358.3" font-family="Helvetica,sans-Serif" font-size="9.00">+ setMessagingEndpoint()</text>
<text text-anchor="start" x="98.5" y="-348.3" font-family="Helvetica,sans-Serif" font-size="9.00">+ substractChips()</text>
</a>
</g>
</g>
<!-- Node4&#45;&gt;Node2 -->
<g id="edge2" class="edge"><title>Node4&#45;&gt;Node2</title>
<path fill="none" stroke="#404040" d="M219.167,-341.184C216.953,-324.881 214.68,-308.147 212.444,-291.677"/>
<polygon fill="none" stroke="#404040" points="212.438,-291.631 207.667,-286.224 210.823,-279.74 215.594,-285.147 212.438,-291.631"/>
<text text-anchor="middle" x="241" y="-315.8" font-family="Helvetica,sans-Serif" font-size="9.00"> &#45;m_owner</text>
</g>
<!-- Node5&#45;&gt;Node2 -->
<g id="edge3" class="edge"><title>Node5&#45;&gt;Node2</title>
<path fill="none" stroke="#404040" d="M459.26,-396.214C424.175,-365.077 383.433,-328.562 347,-295 344.456,-292.656 341.891,-290.287 339.311,-287.899"/>
<polygon fill="none" stroke="#404040" points="339.283,-287.872 332.164,-286.722 330.488,-279.709 337.606,-280.859 339.283,-287.872"/>
<text text-anchor="middle" x="400" y="-315.8" font-family="Helvetica,sans-Serif" font-size="9.00"> &#45;gameHub</text>
</g>
<!-- Node7 -->
<g id="node6" class="node"><title>Node7</title>
<g id="a_node6"><a xlink:href="../../dd/d8f/classde_1_1tu__clausthal_1_1in_1_1bachelorproject2018_1_1poker_1_1game_1_1hubs_1_1CardDealer.htm" target="_top" xlink:title="{de.tu_clausthal.in.bachelorproject2018.poker.game.hubs.\lCardDealer\n|&#45; tableCards\l|+ CardDealer()\l+ firstDeckOfTheGame()\l+ getDeck()\l+ getTableCards()\l+ resetForNextRound()\l}">
<polygon fill="none" stroke="black" points="663.5,-95.5 663.5,-199.5 952.5,-199.5 952.5,-95.5 663.5,-95.5"/>
<text text-anchor="start" x="671.5" y="-188.3" font-family="Helvetica,sans-Serif" font-size="9.00">de.tu_clausthal.in.bachelorproject2018.poker.game.hubs.</text>
<text text-anchor="middle" x="808" y="-178.3" font-family="Helvetica,sans-Serif" font-size="9.00">CardDealer</text>
<polyline fill="none" stroke="black" points="663.5,-171.5 952.5,-171.5 "/>
<text text-anchor="start" x="671.5" y="-160.3" font-family="Helvetica,sans-Serif" font-size="9.00">&#45; tableCards</text>
<polyline fill="none" stroke="black" points="663.5,-153.5 952.5,-153.5 "/>
<text text-anchor="start" x="671.5" y="-142.3" font-family="Helvetica,sans-Serif" font-size="9.00">+ CardDealer()</text>
<text text-anchor="start" x="671.5" y="-132.3" font-family="Helvetica,sans-Serif" font-size="9.00">+ firstDeckOfTheGame()</text>
<text text-anchor="start" x="671.5" y="-122.3" font-family="Helvetica,sans-Serif" font-size="9.00">+ getDeck()</text>
<text text-anchor="start" x="671.5" y="-112.3" font-family="Helvetica,sans-Serif" font-size="9.00">+ getTableCards()</text>
<text text-anchor="start" x="671.5" y="-102.3" font-family="Helvetica,sans-Serif" font-size="9.00">+ resetForNextRound()</text>
</a>
</g>
</g>
<!-- Node5&#45;&gt;Node7 -->
<g id="edge7" class="edge"><title>Node5&#45;&gt;Node7</title>
<path fill="none" stroke="#404040" d="M607.759,-396.127C653.903,-339.062 716.133,-262.106 758.907,-209.21"/>
<polygon fill="none" stroke="#404040" points="759.114,-208.955 759.776,-201.774 766.659,-199.624 765.997,-206.804 759.114,-208.955"/>
<text text-anchor="middle" x="696" y="-315.8" font-family="Helvetica,sans-Serif" font-size="9.00"> &#45;gameHub</text>
</g>
<!-- Node9 -->
<g id="node8" class="node"><title>Node9</title>
<g id="a_node8"><a xlink:href="../../dd/dfe/classde_1_1tu__clausthal_1_1in_1_1bachelorproject2018_1_1poker_1_1game_1_1hubs_1_1ChipsHandling.htm" target="_top" xlink:title="{de.tu_clausthal.in.bachelorproject2018.poker.game.hubs.\lChipsHandling\n|&#45; bigBlindAmount\l&#45; bigBlindIndex\l&#45; highestBidThisRound\l&#45; newRound\l&#45; playersInThisRound\l&#45; pot\l&#45; smallBlindAmount\l&#45; smallBlindIndex\l|+ ChipsHandling()\l+ addToPot()\l+ continuePlayingRound()\l+ distributePotToWinner()\l+ doubleBlinds()\l+ forceBlinds()\l+ getBigBlindAmount()\l+ getHighestBidThisRound()\l+ getNewRound()\l+ getPot()\l+ getRoundStarter()\l+ getSmallBlindAmount()\l+ nextBlind()\l+ resetHand()\l+ resetRound()\l+ somebodyHasFolded()\l+ updateWhoToAsk()\l}">
<polygon fill="none" stroke="black" points="356.5,-0.5 356.5,-294.5 645.5,-294.5 645.5,-0.5 356.5,-0.5"/>
<text text-anchor="start" x="364.5" y="-283.3" font-family="Helvetica,sans-Serif" font-size="9.00">de.tu_clausthal.in.bachelorproject2018.poker.game.hubs.</text>
<text text-anchor="middle" x="501" y="-273.3" font-family="Helvetica,sans-Serif" font-size="9.00">ChipsHandling</text>
<polyline fill="none" stroke="black" points="356.5,-266.5 645.5,-266.5 "/>
<text text-anchor="start" x="364.5" y="-255.3" font-family="Helvetica,sans-Serif" font-size="9.00">&#45; bigBlindAmount</text>
<text text-anchor="start" x="364.5" y="-245.3" font-family="Helvetica,sans-Serif" font-size="9.00">&#45; bigBlindIndex</text>
<text text-anchor="start" x="364.5" y="-235.3" font-family="Helvetica,sans-Serif" font-size="9.00">&#45; highestBidThisRound</text>
<text text-anchor="start" x="364.5" y="-225.3" font-family="Helvetica,sans-Serif" font-size="9.00">&#45; newRound</text>
<text text-anchor="start" x="364.5" y="-215.3" font-family="Helvetica,sans-Serif" font-size="9.00">&#45; playersInThisRound</text>
<text text-anchor="start" x="364.5" y="-205.3" font-family="Helvetica,sans-Serif" font-size="9.00">&#45; pot</text>
<text text-anchor="start" x="364.5" y="-195.3" font-family="Helvetica,sans-Serif" font-size="9.00">&#45; smallBlindAmount</text>
<text text-anchor="start" x="364.5" y="-185.3" font-family="Helvetica,sans-Serif" font-size="9.00">&#45; smallBlindIndex</text>
<polyline fill="none" stroke="black" points="356.5,-178.5 645.5,-178.5 "/>
<text text-anchor="start" x="364.5" y="-167.3" font-family="Helvetica,sans-Serif" font-size="9.00">+ ChipsHandling()</text>
<text text-anchor="start" x="364.5" y="-157.3" font-family="Helvetica,sans-Serif" font-size="9.00">+ addToPot()</text>
<text text-anchor="start" x="364.5" y="-147.3" font-family="Helvetica,sans-Serif" font-size="9.00">+ continuePlayingRound()</text>
<text text-anchor="start" x="364.5" y="-137.3" font-family="Helvetica,sans-Serif" font-size="9.00">+ distributePotToWinner()</text>
<text text-anchor="start" x="364.5" y="-127.3" font-family="Helvetica,sans-Serif" font-size="9.00">+ doubleBlinds()</text>
<text text-anchor="start" x="364.5" y="-117.3" font-family="Helvetica,sans-Serif" font-size="9.00">+ forceBlinds()</text>
<text text-anchor="start" x="364.5" y="-107.3" font-family="Helvetica,sans-Serif" font-size="9.00">+ getBigBlindAmount()</text>
<text text-anchor="start" x="364.5" y="-97.3" font-family="Helvetica,sans-Serif" font-size="9.00">+ getHighestBidThisRound()</text>
<text text-anchor="start" x="364.5" y="-87.3" font-family="Helvetica,sans-Serif" font-size="9.00">+ getNewRound()</text>
<text text-anchor="start" x="364.5" y="-77.3" font-family="Helvetica,sans-Serif" font-size="9.00">+ getPot()</text>
<text text-anchor="start" x="364.5" y="-67.3" font-family="Helvetica,sans-Serif" font-size="9.00">+ getRoundStarter()</text>
<text text-anchor="start" x="364.5" y="-57.3" font-family="Helvetica,sans-Serif" font-size="9.00">+ getSmallBlindAmount()</text>
<text text-anchor="start" x="364.5" y="-47.3" font-family="Helvetica,sans-Serif" font-size="9.00">+ nextBlind()</text>
<text text-anchor="start" x="364.5" y="-37.3" font-family="Helvetica,sans-Serif" font-size="9.00">+ resetHand()</text>
<text text-anchor="start" x="364.5" y="-27.3" font-family="Helvetica,sans-Serif" font-size="9.00">+ resetRound()</text>
<text text-anchor="start" x="364.5" y="-17.3" font-family="Helvetica,sans-Serif" font-size="9.00">+ somebodyHasFolded()</text>
<text text-anchor="start" x="364.5" y="-7.3" font-family="Helvetica,sans-Serif" font-size="9.00">+ updateWhoToAsk()</text>
</a>
</g>
</g>
<!-- Node5&#45;&gt;Node9 -->
<g id="edge10" class="edge"><title>Node5&#45;&gt;Node9</title>
<path fill="none" stroke="#404040" d="M503.804,-396.307C493.232,-373.427 483.375,-347.801 478,-323 476.859,-317.734 475.984,-312.366 475.344,-306.934"/>
<polygon fill="none" stroke="#404040" points="475.342,-306.913 470.839,-301.28 474.306,-294.957 478.809,-300.59 475.342,-306.913"/>
<text text-anchor="middle" x="504" y="-315.8" font-family="Helvetica,sans-Serif" font-size="9.00"> &#45;gameHub</text>
</g>
<!-- Node6 -->
<g id="node5" class="node"><title>Node6</title>
<g id="a_node5"><a xlink:href="../../dc/dda/classde_1_1tu__clausthal_1_1in_1_1bachelorproject2018_1_1poker_1_1game_1_1wincheck_1_1DetermineWinner.htm" target="_top" xlink:title="{de.tu_clausthal.in.bachelorproject2018.poker.game.wincheck.\lDetermineWinner\n||+ findWinner()\l}">
<polygon fill="none" stroke="black" points="350,-692.5 350,-756.5 658,-756.5 658,-692.5 350,-692.5"/>
<text text-anchor="start" x="358" y="-745.3" font-family="Helvetica,sans-Serif" font-size="9.00">de.tu_clausthal.in.bachelorproject2018.poker.game.wincheck.</text>
<text text-anchor="middle" x="504" y="-735.3" font-family="Helvetica,sans-Serif" font-size="9.00">DetermineWinner</text>
<polyline fill="none" stroke="black" points="350,-728.5 658,-728.5 "/>
<text text-anchor="middle" x="504" y="-717.3" font-family="Helvetica,sans-Serif" font-size="9.00"> </text>
<polyline fill="none" stroke="black" points="350,-710.5 658,-710.5 "/>
<text text-anchor="start" x="358" y="-699.3" font-family="Helvetica,sans-Serif" font-size="9.00">+ findWinner()</text>
</a>
</g>
</g>
<!-- Node6&#45;&gt;Node5 -->
<g id="edge4" class="edge"><title>Node6&#45;&gt;Node5</title>
<path fill="none" stroke="#404040" d="M509.234,-692.467C514.695,-660.095 523.506,-607.856 531.134,-562.633"/>
<polygon fill="none" stroke="#404040" points="531.152,-562.53 528.205,-555.948 533.148,-550.697 536.094,-557.279 531.152,-562.53"/>
<text text-anchor="middle" x="549" y="-626.8" font-family="Helvetica,sans-Serif" font-size="9.00"> &#45;findWinner</text>
</g>
<!-- Node7&#45;&gt;Node5 -->
<g id="edge6" class="edge"><title>Node7&#45;&gt;Node5</title>
<path fill="none" stroke="#404040" d="M799.042,-199.672C789.989,-237.861 772.515,-289.086 740,-323 726.227,-337.365 715.842,-330.398 699,-341 677.023,-354.835 654.942,-371.686 634.66,-388.647"/>
<polygon fill="none" stroke="#404040" points="634.627,-388.675 632.639,-395.606 625.475,-396.437 627.464,-389.505 634.627,-388.675"/>
<text text-anchor="middle" x="775" y="-315.8" font-family="Helvetica,sans-Serif" font-size="9.00"> &#45;cardDealer</text>
</g>
<!-- Node8 -->
<g id="node7" class="node"><title>Node8</title>
<g id="a_node7"><a xlink:href="../../d5/d01/classde_1_1tu__clausthal_1_1in_1_1bachelorproject2018_1_1poker_1_1game_1_1cards_1_1Deck.htm" target="_top" xlink:title="{de.tu_clausthal.in.bachelorproject2018.poker.game.cards.Deck\n|&#45; cards\l|+ Deck()\l+ getCards()\l+ hasNext()\l+ next()\l+ removeTopCard()\l+ showDeck()\l}">
<polygon fill="none" stroke="black" points="708.5,-421.5 708.5,-525.5 1023.5,-525.5 1023.5,-421.5 708.5,-421.5"/>
<text text-anchor="middle" x="866" y="-514.3" font-family="Helvetica,sans-Serif" font-size="9.00">de.tu_clausthal.in.bachelorproject2018.poker.game.cards.Deck</text>
<polyline fill="none" stroke="black" points="708.5,-507.5 1023.5,-507.5 "/>
<text text-anchor="start" x="716.5" y="-496.3" font-family="Helvetica,sans-Serif" font-size="9.00">&#45; cards</text>
<polyline fill="none" stroke="black" points="708.5,-489.5 1023.5,-489.5 "/>
<text text-anchor="start" x="716.5" y="-478.3" font-family="Helvetica,sans-Serif" font-size="9.00">+ Deck()</text>
<text text-anchor="start" x="716.5" y="-468.3" font-family="Helvetica,sans-Serif" font-size="9.00">+ getCards()</text>
<text text-anchor="start" x="716.5" y="-458.3" font-family="Helvetica,sans-Serif" font-size="9.00">+ hasNext()</text>
<text text-anchor="start" x="716.5" y="-448.3" font-family="Helvetica,sans-Serif" font-size="9.00">+ next()</text>
<text text-anchor="start" x="716.5" y="-438.3" font-family="Helvetica,sans-Serif" font-size="9.00">+ removeTopCard()</text>
<text text-anchor="start" x="716.5" y="-428.3" font-family="Helvetica,sans-Serif" font-size="9.00">+ showDeck()</text>
</a>
</g>
</g>
<!-- Node8&#45;&gt;Node7 -->
<g id="edge8" class="edge"><title>Node8&#45;&gt;Node7</title>
<path fill="none" stroke="#404040" d="M856.81,-421.161C846.649,-364.403 830.275,-272.93 819.329,-211.783"/>
<polygon fill="none" stroke="#404040" points="819.262,-211.411 814.267,-206.21 817.147,-199.599 822.142,-204.8 819.262,-211.411"/>
<text text-anchor="middle" x="862.5" y="-315.8" font-family="Helvetica,sans-Serif" font-size="9.00"> &#45;playDeck</text>
</g>
<!-- Node9&#45;&gt;Node5 -->
<g id="edge9" class="edge"><title>Node9&#45;&gt;Node5</title>
<path fill="none" stroke="#404040" d="M531.265,-294.541C532.249,-300.767 533.167,-306.94 534,-313 537.17,-336.076 539.552,-361.153 541.32,-384.443"/>
<polygon fill="none" stroke="#404040" points="541.322,-384.471 545.746,-390.166 542.19,-396.439 537.767,-390.744 541.322,-384.471"/>
<text text-anchor="middle" x="570" y="-315.8" font-family="Helvetica,sans-Serif" font-size="9.00"> &#45;chipsHandler</text>
</g>
<!-- Node10 -->
<g id="node9" class="node"><title>Node10</title>
<g id="a_node9"><a xlink:href="../../d7/dba/classde_1_1tu__clausthal_1_1in_1_1bachelorproject2018_1_1poker_1_1game_1_1wincheck_1_1WinnerHand.htm" target="_top" xlink:title="{de.tu_clausthal.in.bachelorproject2018.poker.game.wincheck.\lWinnerHand\n||+ getWinnerHandAsString()\l}">
<polygon fill="none" stroke="black" points="676,-692.5 676,-756.5 984,-756.5 984,-692.5 676,-692.5"/>
<text text-anchor="start" x="684" y="-745.3" font-family="Helvetica,sans-Serif" font-size="9.00">de.tu_clausthal.in.bachelorproject2018.poker.game.wincheck.</text>
<text text-anchor="middle" x="830" y="-735.3" font-family="Helvetica,sans-Serif" font-size="9.00">WinnerHand</text>
<polyline fill="none" stroke="black" points="676,-728.5 984,-728.5 "/>
<text text-anchor="middle" x="830" y="-717.3" font-family="Helvetica,sans-Serif" font-size="9.00"> </text>
<polyline fill="none" stroke="black" points="676,-710.5 984,-710.5 "/>
<text text-anchor="start" x="684" y="-699.3" font-family="Helvetica,sans-Serif" font-size="9.00">+ getWinnerHandAsString()</text>
</a>
</g>
</g>
<!-- Node10&#45;&gt;Node5 -->
<g id="edge11" class="edge"><title>Node10&#45;&gt;Node5</title>
<path fill="none" stroke="#404040" d="M794.605,-692.467C756.583,-659.131 694.531,-604.726 641.934,-558.611"/>
<polygon fill="none" stroke="#404040" points="641.93,-558.608 634.782,-557.66 632.907,-550.697 640.056,-551.645 641.93,-558.608"/>
<text text-anchor="middle" x="752" y="-626.8" font-family="Helvetica,sans-Serif" font-size="9.00"> &#45;winnerHand</text>
</g>
</g>
</svg>
