<?xml version="1.0" encoding="UTF-8" standalone="no"?>
<!DOCTYPE svg PUBLIC "-//W3C//DTD SVG 1.1//EN"
 "http://www.w3.org/Graphics/SVG/1.1/DTD/svg11.dtd">
<!-- Generated by graphviz version 2.38.0 (20140413.2041)
 -->
<!-- Title: de.tu_clausthal.in.bachelorproject2018.poker.game.wincheck.HandStatistic.setHandEvaluation Pages: 1 -->
<svg width="660pt" height="131pt"
 viewBox="0.00 0.00 660.00 131.00" xmlns="http://www.w3.org/2000/svg" xmlns:xlink="http://www.w3.org/1999/xlink">
<g id="graph0" class="graph" transform="scale(1 1) rotate(0) translate(4 127)">
<title>de.tu_clausthal.in.bachelorproject2018.poker.game.wincheck.HandStatistic.setHandEvaluation</title>
<!-- Node40 -->
<g id="node1" class="node"><title>Node40</title>
<polygon fill="#bfbfbf" stroke="black" points="0,-47.5 0,-75.5 308,-75.5 308,-47.5 0,-47.5"/>
<text text-anchor="start" x="8" y="-64.3" font-family="Helvetica,sans-Serif" font-size="9.00">de.tu_clausthal.in.bachelorproject2018.poker.game.wincheck.</text>
<text text-anchor="middle" x="154" y="-54.3" font-family="Helvetica,sans-Serif" font-size="9.00">HandStatistic.setHandEvaluation</text>
</g>
<!-- Node41 -->
<g id="node2" class="node"><title>Node41</title>
<g id="a_node2"><a xlink:href="../../d2/d29/classde_1_1tu__clausthal_1_1in_1_1bachelorproject2018_1_1poker_1_1game_1_1wincheck_1_1CMultiples.htm#a6f0003df8c26b202aec27c099afb7717" target="_top" xlink:title="kontrolliert auf Einzelkarten, Paare, Drillinge, Doppelpaare, Fullhouse, Vierling trägt dies mögliche...">
<polygon fill="none" stroke="black" points="344,-94.5 344,-122.5 652,-122.5 652,-94.5 344,-94.5"/>
<text text-anchor="start" x="352" y="-111.3" font-family="Helvetica,sans-Serif" font-size="9.00">de.tu_clausthal.in.bachelorproject2018.poker.game.wincheck.</text>
<text text-anchor="middle" x="498" y="-101.3" font-family="Helvetica,sans-Serif" font-size="9.00">CMultiples.apply</text>
</a>
</g>
</g>
<!-- Node40&#45;&gt;Node41 -->
<g id="edge1" class="edge"><title>Node40&#45;&gt;Node41</title>
<path fill="none" stroke="midnightblue" d="M267.229,-76.9233C308.437,-82.5864 354.83,-88.962 395.083,-94.4939"/>
<polygon fill="midnightblue" stroke="midnightblue" points="267.531,-73.432 257.148,-75.5379 266.578,-80.3669 267.531,-73.432"/>
</g>
<!-- Node42 -->
<g id="node3" class="node"><title>Node42</title>
<g id="a_node3"><a xlink:href="../../de/df3/classde_1_1tu__clausthal_1_1in_1_1bachelorproject2018_1_1poker_1_1game_1_1wincheck_1_1CStraight.htm#ae667076f5771dee007298f364030df59" target="_top" xlink:title="Kontrolliert auf Straßen trägt die möglicherweise ein. ">
<polygon fill="none" stroke="black" points="344,-47.5 344,-75.5 652,-75.5 652,-47.5 344,-47.5"/>
<text text-anchor="start" x="352" y="-64.3" font-family="Helvetica,sans-Serif" font-size="9.00">de.tu_clausthal.in.bachelorproject2018.poker.game.wincheck.</text>
<text text-anchor="middle" x="498" y="-54.3" font-family="Helvetica,sans-Serif" font-size="9.00">CStraight.apply</text>
</a>
</g>
</g>
<!-- Node40&#45;&gt;Node42 -->
<g id="edge2" class="edge"><title>Node40&#45;&gt;Node42</title>
<path fill="none" stroke="midnightblue" d="M318.679,-61.5C327.043,-61.5 335.431,-61.5 343.762,-61.5"/>
<polygon fill="midnightblue" stroke="midnightblue" points="318.493,-58.0001 308.493,-61.5 318.493,-65.0001 318.493,-58.0001"/>
</g>
<!-- Node43 -->
<g id="node4" class="node"><title>Node43</title>
<g id="a_node4"><a xlink:href="../../d4/d87/classde_1_1tu__clausthal_1_1in_1_1bachelorproject2018_1_1poker_1_1game_1_1wincheck_1_1CFlush.htm#ae27a53ac720911d236b90858f1030062" target="_top" xlink:title="kontrolliert auf Flush und Straightflush trägt dies möglicherweise in die Handstatistic ein ...">
<polygon fill="none" stroke="black" points="344,-0.5 344,-28.5 652,-28.5 652,-0.5 344,-0.5"/>
<text text-anchor="start" x="352" y="-17.3" font-family="Helvetica,sans-Serif" font-size="9.00">de.tu_clausthal.in.bachelorproject2018.poker.game.wincheck.</text>
<text text-anchor="middle" x="498" y="-7.3" font-family="Helvetica,sans-Serif" font-size="9.00">CFlush.apply</text>
</a>
</g>
</g>
<!-- Node40&#45;&gt;Node43 -->
<g id="edge3" class="edge"><title>Node40&#45;&gt;Node43</title>
<path fill="none" stroke="midnightblue" d="M267.229,-46.0767C308.437,-40.4136 354.83,-34.038 395.083,-28.5061"/>
<polygon fill="midnightblue" stroke="midnightblue" points="266.578,-42.6331 257.148,-47.4621 267.531,-49.568 266.578,-42.6331"/>
</g>
</g>
</svg>
