<?xml version="1.0" encoding="UTF-8" standalone="no"?>
<!DOCTYPE svg PUBLIC "-//W3C//DTD SVG 1.1//EN"
 "http://www.w3.org/Graphics/SVG/1.1/DTD/svg11.dtd">
<!-- Generated by graphviz version 2.38.0 (20140413.2041)
 -->
<!-- Title: de.tu_clausthal.in.bachelorproject2018.poker.game.wincheck.HandStatistic.getHandEvaluation Pages: 1 -->
<svg width="989pt" height="178pt"
 viewBox="0.00 0.00 989.00 178.00" xmlns="http://www.w3.org/2000/svg" xmlns:xlink="http://www.w3.org/1999/xlink">
<g id="graph0" class="graph" transform="scale(1 1) rotate(0) translate(4 174)">
<title>de.tu_clausthal.in.bachelorproject2018.poker.game.wincheck.HandStatistic.getHandEvaluation</title>
<!-- Node14 -->
<g id="node1" class="node"><title>Node14</title>
<polygon fill="#bfbfbf" stroke="black" points="0,-70.5 0,-98.5 308,-98.5 308,-70.5 0,-70.5"/>
<text text-anchor="start" x="8" y="-87.3" font-family="Helvetica,sans-Serif" font-size="9.00">de.tu_clausthal.in.bachelorproject2018.poker.game.wincheck.</text>
<text text-anchor="middle" x="154" y="-77.3" font-family="Helvetica,sans-Serif" font-size="9.00">HandStatistic.getHandEvaluation</text>
</g>
<!-- Node15 -->
<g id="node2" class="node"><title>Node15</title>
<g id="a_node2"><a xlink:href="../../d2/d29/classde_1_1tu__clausthal_1_1in_1_1bachelorproject2018_1_1poker_1_1game_1_1wincheck_1_1CMultiples.htm#a6f0003df8c26b202aec27c099afb7717" target="_top" xlink:title="kontrolliert auf Einzelkarten, Paare, Drillinge, Doppelpaare, Fullhouse, Vierling trägt dies mögliche...">
<polygon fill="none" stroke="black" points="344,-141.5 344,-169.5 652,-169.5 652,-141.5 344,-141.5"/>
<text text-anchor="start" x="352" y="-158.3" font-family="Helvetica,sans-Serif" font-size="9.00">de.tu_clausthal.in.bachelorproject2018.poker.game.wincheck.</text>
<text text-anchor="middle" x="498" y="-148.3" font-family="Helvetica,sans-Serif" font-size="9.00">CMultiples.apply</text>
</a>
</g>
</g>
<!-- Node14&#45;&gt;Node15 -->
<g id="edge1" class="edge"><title>Node14&#45;&gt;Node15</title>
<path fill="none" stroke="midnightblue" d="M214.941,-101.348C251.93,-111.339 300.47,-123.723 344,-132.5 360.194,-135.765 377.437,-138.789 394.29,-141.499"/>
<polygon fill="midnightblue" stroke="midnightblue" points="215.396,-97.8452 204.829,-98.599 213.56,-104.6 215.396,-97.8452"/>
</g>
<!-- Node16 -->
<g id="node3" class="node"><title>Node16</title>
<g id="a_node3"><a xlink:href="../../de/df3/classde_1_1tu__clausthal_1_1in_1_1bachelorproject2018_1_1poker_1_1game_1_1wincheck_1_1CStraight.htm#ae667076f5771dee007298f364030df59" target="_top" xlink:title="Kontrolliert auf Straßen trägt die möglicherweise ein. ">
<polygon fill="none" stroke="black" points="344,-94.5 344,-122.5 652,-122.5 652,-94.5 344,-94.5"/>
<text text-anchor="start" x="352" y="-111.3" font-family="Helvetica,sans-Serif" font-size="9.00">de.tu_clausthal.in.bachelorproject2018.poker.game.wincheck.</text>
<text text-anchor="middle" x="498" y="-101.3" font-family="Helvetica,sans-Serif" font-size="9.00">CStraight.apply</text>
</a>
</g>
</g>
<!-- Node14&#45;&gt;Node16 -->
<g id="edge2" class="edge"><title>Node14&#45;&gt;Node16</title>
<path fill="none" stroke="midnightblue" d="M318.679,-95.9862C327.043,-96.5732 335.431,-97.1618 343.762,-97.7465"/>
<polygon fill="midnightblue" stroke="midnightblue" points="318.714,-92.4802 308.493,-95.2714 318.224,-99.463 318.714,-92.4802"/>
</g>
<!-- Node17 -->
<g id="node4" class="node"><title>Node17</title>
<g id="a_node4"><a xlink:href="../../d4/d87/classde_1_1tu__clausthal_1_1in_1_1bachelorproject2018_1_1poker_1_1game_1_1wincheck_1_1CFlush.htm#ae27a53ac720911d236b90858f1030062" target="_top" xlink:title="kontrolliert auf Flush und Straightflush trägt dies möglicherweise in die Handstatistic ein ...">
<polygon fill="none" stroke="black" points="344,-47.5 344,-75.5 652,-75.5 652,-47.5 344,-47.5"/>
<text text-anchor="start" x="352" y="-64.3" font-family="Helvetica,sans-Serif" font-size="9.00">de.tu_clausthal.in.bachelorproject2018.poker.game.wincheck.</text>
<text text-anchor="middle" x="498" y="-54.3" font-family="Helvetica,sans-Serif" font-size="9.00">CFlush.apply</text>
</a>
</g>
</g>
<!-- Node14&#45;&gt;Node17 -->
<g id="edge3" class="edge"><title>Node14&#45;&gt;Node17</title>
<path fill="none" stroke="midnightblue" d="M318.679,-73.4924C327.043,-72.9298 335.431,-72.3657 343.762,-71.8055"/>
<polygon fill="midnightblue" stroke="midnightblue" points="318.236,-70.0142 308.493,-74.1774 318.705,-76.9984 318.236,-70.0142"/>
</g>
<!-- Node18 -->
<g id="node5" class="node"><title>Node18</title>
<g id="a_node5"><a xlink:href="../../d7/dba/classde_1_1tu__clausthal_1_1in_1_1bachelorproject2018_1_1poker_1_1game_1_1wincheck_1_1WinnerHand.htm#aa39bb0193e9ef03448e58d4eefb0f129" target="_top" xlink:title="WinnerHand gibt zu der Handstatistic einen String zurück, den man dem Spieler ausgeben kann Hierbei w...">
<polygon fill="none" stroke="black" points="344,-0.5 344,-28.5 652,-28.5 652,-0.5 344,-0.5"/>
<text text-anchor="start" x="352" y="-17.3" font-family="Helvetica,sans-Serif" font-size="9.00">de.tu_clausthal.in.bachelorproject2018.poker.game.wincheck.</text>
<text text-anchor="middle" x="498" y="-7.3" font-family="Helvetica,sans-Serif" font-size="9.00">WinnerHand.getWinnerHandAsString</text>
</a>
</g>
</g>
<!-- Node14&#45;&gt;Node18 -->
<g id="edge4" class="edge"><title>Node14&#45;&gt;Node18</title>
<path fill="none" stroke="midnightblue" d="M217.735,-67.8439C254.384,-58.4621 301.622,-46.9657 344,-38.5 361.929,-34.9184 381.129,-31.5461 399.658,-28.5248"/>
<polygon fill="midnightblue" stroke="midnightblue" points="216.504,-64.5469 207.692,-70.4297 218.249,-71.3258 216.504,-64.5469"/>
</g>
<!-- Node19 -->
<g id="node6" class="node"><title>Node19</title>
<g id="a_node6"><a xlink:href="../../dd/ded/classde_1_1tu__clausthal_1_1in_1_1bachelorproject2018_1_1poker_1_1game_1_1round_1_1CWinEvaluation.htm#a258d61fbe6f67033165ecce526239cf0" target="_top" xlink:title="erstellt eine HandStatisticList Erstellt für jeden Spieler, der noch im Spiel ist, eine Handstatistic Ruft das Enum Wincheck für jede Handstatistsic auf Vergleicht die Handstatistiken, und erklärt die Sieger Teilt die Chips an die Gewinner auf ">
<polygon fill="none" stroke="black" points="688,-0.5 688,-28.5 981,-28.5 981,-0.5 688,-0.5"/>
<text text-anchor="start" x="696" y="-17.3" font-family="Helvetica,sans-Serif" font-size="9.00">de.tu_clausthal.in.bachelorproject2018.poker.game.round.</text>
<text text-anchor="middle" x="834.5" y="-7.3" font-family="Helvetica,sans-Serif" font-size="9.00">CWinEvaluation.apply</text>
</a>
</g>
</g>
<!-- Node18&#45;&gt;Node19 -->
<g id="edge5" class="edge"><title>Node18&#45;&gt;Node19</title>
<path fill="none" stroke="midnightblue" d="M662.161,-14.5C670.78,-14.5 679.413,-14.5 687.969,-14.5"/>
<polygon fill="midnightblue" stroke="midnightblue" points="662.056,-11.0001 652.055,-14.5 662.055,-18.0001 662.056,-11.0001"/>
</g>
</g>
</svg>
