<?xml version="1.0" encoding="UTF-8" standalone="no"?>
<!DOCTYPE svg PUBLIC "-//W3C//DTD SVG 1.1//EN"
 "http://www.w3.org/Graphics/SVG/1.1/DTD/svg11.dtd">
<!-- Generated by graphviz version 2.38.0 (20140413.2041)
 -->
<!-- Title: de.tu_clausthal.in.bachelorproject2018.poker.game.round.CRiver Pages: 1 -->
<svg width="301pt" height="295pt"
 viewBox="0.00 0.00 301.00 295.00" xmlns="http://www.w3.org/2000/svg" xmlns:xlink="http://www.w3.org/1999/xlink">
<g id="graph0" class="graph" transform="scale(1 1) rotate(0) translate(4 291)">
<title>de.tu_clausthal.in.bachelorproject2018.poker.game.round.CRiver</title>
<!-- Node0 -->
<g id="node1" class="node"><title>Node0</title>
<polygon fill="#bfbfbf" stroke="black" points="0,-0.5 0,-84.5 293,-84.5 293,-0.5 0,-0.5"/>
<text text-anchor="start" x="8" y="-73.3" font-family="Helvetica,sans-Serif" font-size="9.00">de.tu_clausthal.in.bachelorproject2018.poker.game.round.</text>
<text text-anchor="middle" x="146.5" y="-63.3" font-family="Helvetica,sans-Serif" font-size="9.00">CRiver</text>
<polyline fill="none" stroke="black" points="0,-56.5 293,-56.5 "/>
<text text-anchor="middle" x="146.5" y="-45.3" font-family="Helvetica,sans-Serif" font-size="9.00"> </text>
<polyline fill="none" stroke="black" points="0,-38.5 293,-38.5 "/>
<text text-anchor="start" x="8" y="-27.3" font-family="Helvetica,sans-Serif" font-size="9.00">+ accept()</text>
<text text-anchor="start" x="8" y="-17.3" font-family="Helvetica,sans-Serif" font-size="9.00">+ apply()</text>
<text text-anchor="start" x="8" y="-7.3" font-family="Helvetica,sans-Serif" font-size="9.00"># CRiver()</text>
</g>
<!-- Node1 -->
<g id="node2" class="node"><title>Node1</title>
<g id="a_node2"><a xlink:href="../../da/d24/classde_1_1tu__clausthal_1_1in_1_1bachelorproject2018_1_1poker_1_1game_1_1round_1_1IBaseRoundAction.htm" target="_top" xlink:title="{de.tu_clausthal.in.bachelorproject2018.poker.game.round.\lIBaseRoundAction\n|# m_table\l|# IBaseRoundAction()\l}">
<polygon fill="none" stroke="black" points="0,-121.5 0,-185.5 293,-185.5 293,-121.5 0,-121.5"/>
<text text-anchor="start" x="8" y="-174.3" font-family="Helvetica,sans-Serif" font-size="9.00">de.tu_clausthal.in.bachelorproject2018.poker.game.round.</text>
<text text-anchor="middle" x="146.5" y="-164.3" font-family="Helvetica,sans-Serif" font-size="9.00">IBaseRoundAction</text>
<polyline fill="none" stroke="black" points="0,-157.5 293,-157.5 "/>
<text text-anchor="start" x="8" y="-146.3" font-family="Helvetica,sans-Serif" font-size="9.00"># m_table</text>
<polyline fill="none" stroke="black" points="0,-139.5 293,-139.5 "/>
<text text-anchor="start" x="8" y="-128.3" font-family="Helvetica,sans-Serif" font-size="9.00"># IBaseRoundAction()</text>
</a>
</g>
</g>
<!-- Node1&#45;&gt;Node0 -->
<g id="edge1" class="edge"><title>Node1&#45;&gt;Node0</title>
<path fill="none" stroke="midnightblue" d="M146.5,-111.263C146.5,-102.503 146.5,-93.2551 146.5,-84.5032"/>
<polygon fill="none" stroke="midnightblue" points="143,-111.265 146.5,-121.265 150,-111.265 143,-111.265"/>
</g>
<!-- Node2 -->
<g id="node3" class="node"><title>Node2</title>
<g id="a_node3"><a xlink:href="../../dc/db4/interfacede_1_1tu__clausthal_1_1in_1_1bachelorproject2018_1_1poker_1_1game_1_1round_1_1IRoundAction.htm" target="_top" xlink:title="Interface, um die einzelnen Aktionen in einer Runde zu definieren. ">
<polygon fill="none" stroke="black" points="0,-222.5 0,-286.5 293,-286.5 293,-222.5 0,-222.5"/>
<text text-anchor="start" x="8" y="-275.3" font-family="Helvetica,sans-Serif" font-size="9.00">de.tu_clausthal.in.bachelorproject2018.poker.game.round.</text>
<text text-anchor="middle" x="146.5" y="-265.3" font-family="Helvetica,sans-Serif" font-size="9.00">IRoundAction</text>
<polyline fill="none" stroke="black" points="0,-258.5 293,-258.5 "/>
<text text-anchor="middle" x="146.5" y="-247.3" font-family="Helvetica,sans-Serif" font-size="9.00"> </text>
<polyline fill="none" stroke="black" points="0,-240.5 293,-240.5 "/>
<text text-anchor="middle" x="146.5" y="-229.3" font-family="Helvetica,sans-Serif" font-size="9.00"> </text>
</a>
</g>
</g>
<!-- Node2&#45;&gt;Node1 -->
<g id="edge2" class="edge"><title>Node2&#45;&gt;Node1</title>
<path fill="none" stroke="midnightblue" d="M146.5,-212.282C146.5,-203.42 146.5,-194.194 146.5,-185.783"/>
<polygon fill="none" stroke="midnightblue" points="143,-212.447 146.5,-222.447 150,-212.447 143,-212.447"/>
</g>
</g>
</svg>
