<?xml version="1.0" encoding="UTF-8" standalone="no"?>
<!DOCTYPE svg PUBLIC "-//W3C//DTD SVG 1.1//EN"
 "http://www.w3.org/Graphics/SVG/1.1/DTD/svg11.dtd">
<!-- Generated by graphviz version 2.38.0 (20140413.2041)
 -->
<!-- Title: de.tu_clausthal.in.bachelorproject2018.poker.game.round.ERound.factory Pages: 1 -->
<svg width="1279pt" height="106pt"
 viewBox="0.00 0.00 1279.00 106.00" xmlns="http://www.w3.org/2000/svg" xmlns:xlink="http://www.w3.org/1999/xlink">
<g id="graph0" class="graph" transform="scale(1 1) rotate(0) translate(4 102)">
<title>de.tu_clausthal.in.bachelorproject2018.poker.game.round.ERound.factory</title>
<!-- Node7 -->
<g id="node1" class="node"><title>Node7</title>
<polygon fill="#bfbfbf" stroke="black" points="0,-22.5 0,-50.5 293,-50.5 293,-22.5 0,-22.5"/>
<text text-anchor="start" x="8" y="-39.3" font-family="Helvetica,sans-Serif" font-size="9.00">de.tu_clausthal.in.bachelorproject2018.poker.game.round.</text>
<text text-anchor="middle" x="146.5" y="-29.3" font-family="Helvetica,sans-Serif" font-size="9.00">ERound.factory</text>
</g>
<!-- Node8 -->
<g id="node2" class="node"><title>Node8</title>
<g id="a_node2"><a xlink:href="../../d2/dd9/classde_1_1tu__clausthal_1_1in_1_1bachelorproject2018_1_1poker_1_1game_1_1table_1_1CTable.htm#ad0183995fab983da1c6c6609c0b32b5e" target="_top" xlink:title="Methode um eine neue Runde zu bauen. ">
<polygon fill="none" stroke="black" points="329,-22.5 329,-50.5 619,-50.5 619,-22.5 329,-22.5"/>
<text text-anchor="start" x="337" y="-39.3" font-family="Helvetica,sans-Serif" font-size="9.00">de.tu_clausthal.in.bachelorproject2018.poker.game.table.</text>
<text text-anchor="middle" x="474" y="-29.3" font-family="Helvetica,sans-Serif" font-size="9.00">CTable.generateround</text>
</a>
</g>
</g>
<!-- Node7&#45;&gt;Node8 -->
<g id="edge1" class="edge"><title>Node7&#45;&gt;Node8</title>
<path fill="none" stroke="midnightblue" d="M303.134,-36.5C311.686,-36.5 320.263,-36.5 328.772,-36.5"/>
<polygon fill="midnightblue" stroke="midnightblue" points="303.113,-33.0001 293.113,-36.5 303.113,-40.0001 303.113,-33.0001"/>
</g>
<!-- Node9 -->
<g id="node3" class="node"><title>Node9</title>
<g id="a_node3"><a xlink:href="../../d2/dd9/classde_1_1tu__clausthal_1_1in_1_1bachelorproject2018_1_1poker_1_1game_1_1table_1_1CTable.htm#a44356981334e62a09768618f0743d1b5" target="_top" xlink:title="startet das Spiel ">
<polygon fill="none" stroke="black" points="655,-69.5 655,-97.5 945,-97.5 945,-69.5 655,-69.5"/>
<text text-anchor="start" x="663" y="-86.3" font-family="Helvetica,sans-Serif" font-size="9.00">de.tu_clausthal.in.bachelorproject2018.poker.game.table.</text>
<text text-anchor="middle" x="800" y="-76.3" font-family="Helvetica,sans-Serif" font-size="9.00">CTable.start</text>
</a>
</g>
</g>
<!-- Node8&#45;&gt;Node9 -->
<g id="edge2" class="edge"><title>Node8&#45;&gt;Node9</title>
<path fill="none" stroke="midnightblue" d="M582.066,-52.0311C620.919,-57.6673 664.554,-63.9971 702.447,-69.4939"/>
<polygon fill="midnightblue" stroke="midnightblue" points="582.171,-48.5098 571.772,-50.5379 581.166,-55.4373 582.171,-48.5098"/>
</g>
<!-- Node10 -->
<g id="node4" class="node"><title>Node10</title>
<g id="a_node4"><a xlink:href="../../d2/dd9/classde_1_1tu__clausthal_1_1in_1_1bachelorproject2018_1_1poker_1_1game_1_1table_1_1CTable.htm#ac4262ba4e9012a8d37c195f2bedeb6f5" target="_top" xlink:title="Methode, die nach jeder Ausführung einer Round&#45;Action durchlaufen wird, um das Spiel ggf fortzusetzen...">
<polygon fill="none" stroke="black" points="655,-22.5 655,-50.5 945,-50.5 945,-22.5 655,-22.5"/>
<text text-anchor="start" x="663" y="-39.3" font-family="Helvetica,sans-Serif" font-size="9.00">de.tu_clausthal.in.bachelorproject2018.poker.game.table.</text>
<text text-anchor="middle" x="800" y="-29.3" font-family="Helvetica,sans-Serif" font-size="9.00">CTable.postaction</text>
</a>
</g>
</g>
<!-- Node8&#45;&gt;Node10 -->
<g id="edge3" class="edge"><title>Node8&#45;&gt;Node10</title>
<path fill="none" stroke="midnightblue" d="M629.666,-36.5C638.04,-36.5 646.44,-36.5 654.777,-36.5"/>
<polygon fill="midnightblue" stroke="midnightblue" points="629.47,-33.0001 619.47,-36.5 629.47,-40.0001 629.47,-33.0001"/>
</g>
<!-- Node11 -->
<g id="node5" class="node"><title>Node11</title>
<g id="a_node5"><a xlink:href="../../d2/dd9/classde_1_1tu__clausthal_1_1in_1_1bachelorproject2018_1_1poker_1_1game_1_1table_1_1CTable.htm#a763745ff3fa160c02f05117b84b092d4" target="_top" xlink:title="führe ein Element aus der ">
<polygon fill="none" stroke="black" points="981,-47.5 981,-75.5 1271,-75.5 1271,-47.5 981,-47.5"/>
<text text-anchor="start" x="989" y="-64.3" font-family="Helvetica,sans-Serif" font-size="9.00">de.tu_clausthal.in.bachelorproject2018.poker.game.table.</text>
<text text-anchor="middle" x="1126" y="-54.3" font-family="Helvetica,sans-Serif" font-size="9.00">CTable.accept</text>
</a>
</g>
</g>
<!-- Node10&#45;&gt;Node11 -->
<g id="edge4" class="edge"><title>Node10&#45;&gt;Node11</title>
<path fill="none" stroke="midnightblue" d="M955.666,-48.4341C964.04,-49.0802 972.44,-49.7284 980.777,-50.3717"/>
<polygon fill="midnightblue" stroke="midnightblue" points="955.71,-44.9272 945.47,-47.6474 955.171,-51.9064 955.71,-44.9272"/>
</g>
<!-- Node12 -->
<g id="node6" class="node"><title>Node12</title>
<g id="a_node6"><a xlink:href="../../d2/dd9/classde_1_1tu__clausthal_1_1in_1_1bachelorproject2018_1_1poker_1_1game_1_1table_1_1CTable.htm#ac36fc046548fc6b47ee44cecbfd158db" target="_top" xlink:title="führt immer einen Schritt des Spiels aus ">
<polygon fill="none" stroke="black" points="981,-0.5 981,-28.5 1271,-28.5 1271,-0.5 981,-0.5"/>
<text text-anchor="start" x="989" y="-17.3" font-family="Helvetica,sans-Serif" font-size="9.00">de.tu_clausthal.in.bachelorproject2018.poker.game.table.</text>
<text text-anchor="middle" x="1126" y="-7.3" font-family="Helvetica,sans-Serif" font-size="9.00">CTable.executestep</text>
</a>
</g>
</g>
<!-- Node10&#45;&gt;Node12 -->
<g id="edge5" class="edge"><title>Node10&#45;&gt;Node12</title>
<path fill="none" stroke="midnightblue" d="M922.673,-21.6777C941.692,-20.2041 961.503,-18.8082 980.963,-17.5673"/>
<polygon fill="midnightblue" stroke="midnightblue" points="922.197,-18.2043 912.502,-22.4792 922.747,-25.1827 922.197,-18.2043"/>
</g>
<!-- Node12&#45;&gt;Node8 -->
<g id="edge6" class="edge"><title>Node12&#45;&gt;Node8</title>
<path fill="none" stroke="midnightblue" d="M970.638,-8.37309C878.844,-6.09252 760.159,-5.52028 655,-12.5 624.801,-14.5044 591.939,-18.3805 562.657,-22.4427"/>
<polygon fill="midnightblue" stroke="midnightblue" points="970.759,-11.8773 980.846,-8.63646 970.939,-4.8796 970.759,-11.8773"/>
</g>
<!-- Node12&#45;&gt;Node10 -->
<g id="edge7" class="edge"><title>Node12&#45;&gt;Node10</title>
<path fill="none" stroke="midnightblue" d="M1003.3,-29.3247C984.428,-30.7864 964.781,-32.1718 945.47,-33.4051"/>
<polygon fill="midnightblue" stroke="midnightblue" points="1003.69,-32.8044 1013.39,-28.5297 1003.14,-25.826 1003.69,-32.8044"/>
</g>
</g>
</svg>
