<?xml version="1.0" encoding="UTF-8" standalone="no"?>
<!DOCTYPE svg PUBLIC "-//W3C//DTD SVG 1.1//EN"
 "http://www.w3.org/Graphics/SVG/1.1/DTD/svg11.dtd">
<!-- Generated by graphviz version 2.38.0 (20140413.2041)
 -->
<!-- Title: de.tu_clausthal.in.bachelorproject2018.poker.game.round.ERound.factory Pages: 1 -->
<svg width="1603pt" height="170pt"
 viewBox="0.00 0.00 1603.00 170.00" xmlns="http://www.w3.org/2000/svg" xmlns:xlink="http://www.w3.org/1999/xlink">
<g id="graph0" class="graph" transform="scale(1 1) rotate(0) translate(4 166)">
<title>de.tu_clausthal.in.bachelorproject2018.poker.game.round.ERound.factory</title>
<!-- Node0 -->
<g id="node1" class="node"><title>Node0</title>
<polygon fill="#bfbfbf" stroke="black" points="0,-64.5 0,-92.5 293,-92.5 293,-64.5 0,-64.5"/>
<text text-anchor="start" x="8" y="-81.3" font-family="Helvetica,sans-Serif" font-size="9.00">de.tu_clausthal.in.bachelorproject2018.poker.game.round.</text>
<text text-anchor="middle" x="146.5" y="-71.3" font-family="Helvetica,sans-Serif" font-size="9.00">ERound.factory</text>
</g>
<!-- Node1 -->
<g id="node2" class="node"><title>Node1</title>
<g id="a_node2"><a xlink:href="../../da/d48/classde_1_1tu__clausthal_1_1in_1_1bachelorproject2018_1_1poker_1_1game_1_1hubs_1_1GameHub.htm#a70d72ce0a72b5c0e490bf935258b69f4" target="_top" xlink:title="getter for the chipsHandler ">
<polygon fill="none" stroke="black" points="329.5,-133.5 329.5,-161.5 618.5,-161.5 618.5,-133.5 329.5,-133.5"/>
<text text-anchor="start" x="337.5" y="-150.3" font-family="Helvetica,sans-Serif" font-size="9.00">de.tu_clausthal.in.bachelorproject2018.poker.game.hubs.</text>
<text text-anchor="middle" x="474" y="-140.3" font-family="Helvetica,sans-Serif" font-size="9.00">GameHub.getChipsHandler</text>
</a>
</g>
</g>
<!-- Node0&#45;&gt;Node1 -->
<g id="edge1" class="edge"><title>Node0&#45;&gt;Node1</title>
<path fill="none" stroke="midnightblue" d="M197.683,-92.5104C233.967,-102.323 284.269,-115.279 329,-124.5 341.448,-127.066 354.552,-129.51 367.575,-131.782"/>
<polygon fill="midnightblue" stroke="midnightblue" points="367.059,-135.244 377.507,-133.484 368.242,-128.345 367.059,-135.244"/>
</g>
<!-- Node2 -->
<g id="node3" class="node"><title>Node2</title>
<g id="a_node3"><a xlink:href="../../d2/dd9/classde_1_1tu__clausthal_1_1in_1_1bachelorproject2018_1_1poker_1_1game_1_1table_1_1CTable.htm#ac7e661dcdd5fee36ea4e88c89649907a" target="_top" xlink:title="de.tu_clausthal.in.bachelorproject2018.poker.game.table.\lCTable.getGameHub">
<polygon fill="none" stroke="black" points="329,-86.5 329,-114.5 619,-114.5 619,-86.5 329,-86.5"/>
<text text-anchor="start" x="337" y="-103.3" font-family="Helvetica,sans-Serif" font-size="9.00">de.tu_clausthal.in.bachelorproject2018.poker.game.table.</text>
<text text-anchor="middle" x="474" y="-93.3" font-family="Helvetica,sans-Serif" font-size="9.00">CTable.getGameHub</text>
</a>
</g>
</g>
<!-- Node0&#45;&gt;Node2 -->
<g id="edge2" class="edge"><title>Node0&#45;&gt;Node2</title>
<path fill="none" stroke="midnightblue" d="M293.113,-88.3418C301.63,-88.9174 310.209,-89.4972 318.758,-90.075"/>
<polygon fill="midnightblue" stroke="midnightblue" points="318.559,-93.5695 328.772,-90.7519 319.031,-86.5854 318.559,-93.5695"/>
</g>
<!-- Node3 -->
<g id="node4" class="node"><title>Node3</title>
<g id="a_node4"><a xlink:href="../../da/d48/classde_1_1tu__clausthal_1_1in_1_1bachelorproject2018_1_1poker_1_1game_1_1hubs_1_1GameHub.htm#a2f65b057de245146843c2f5c3bbe30f1" target="_top" xlink:title="getter for the playerlist ">
<polygon fill="none" stroke="black" points="655,-21.5 655,-49.5 944,-49.5 944,-21.5 655,-21.5"/>
<text text-anchor="start" x="663" y="-38.3" font-family="Helvetica,sans-Serif" font-size="9.00">de.tu_clausthal.in.bachelorproject2018.poker.game.hubs.</text>
<text text-anchor="middle" x="799.5" y="-28.3" font-family="Helvetica,sans-Serif" font-size="9.00">GameHub.getPlayerList</text>
</a>
</g>
</g>
<!-- Node0&#45;&gt;Node3 -->
<g id="edge3" class="edge"><title>Node0&#45;&gt;Node3</title>
<path fill="none" stroke="midnightblue" d="M293.192,-68.8767C397.763,-61.9696 538.414,-52.6793 644.772,-45.6541"/>
<polygon fill="midnightblue" stroke="midnightblue" points="645.208,-49.133 654.955,-44.9814 644.746,-42.1482 645.208,-49.133"/>
</g>
<!-- Node6 -->
<g id="node7" class="node"><title>Node6</title>
<g id="a_node7"><a xlink:href="../../dd/dfe/classde_1_1tu__clausthal_1_1in_1_1bachelorproject2018_1_1poker_1_1game_1_1hubs_1_1ChipsHandling.htm#a9ae90b277f875f8e03844dc16e2b99a3" target="_top" xlink:title="check who starts the round should be the player next to bigBlind, but if bigBlind is highest index of...">
<polygon fill="none" stroke="black" points="329.5,-0.5 329.5,-28.5 618.5,-28.5 618.5,-0.5 329.5,-0.5"/>
<text text-anchor="start" x="337.5" y="-17.3" font-family="Helvetica,sans-Serif" font-size="9.00">de.tu_clausthal.in.bachelorproject2018.poker.game.hubs.</text>
<text text-anchor="middle" x="474" y="-7.3" font-family="Helvetica,sans-Serif" font-size="9.00">ChipsHandling.getRoundStarter</text>
</a>
</g>
</g>
<!-- Node0&#45;&gt;Node6 -->
<g id="edge6" class="edge"><title>Node0&#45;&gt;Node6</title>
<path fill="none" stroke="midnightblue" d="M218.932,-64.4549C269.917,-54.4302 338.58,-40.9297 391.672,-30.4907"/>
<polygon fill="midnightblue" stroke="midnightblue" points="392.597,-33.8759 401.734,-28.5123 391.247,-27.0074 392.597,-33.8759"/>
</g>
<!-- Node4 -->
<g id="node5" class="node"><title>Node4</title>
<g id="a_node5"><a xlink:href="../../da/d48/classde_1_1tu__clausthal_1_1in_1_1bachelorproject2018_1_1poker_1_1game_1_1hubs_1_1GameHub.htm#a779929edeff8f64a359c53d09be3ca06" target="_top" xlink:title="zieht sich die aktuelle playerList vom Table ">
<polygon fill="none" stroke="black" points="980,-21.5 980,-49.5 1269,-49.5 1269,-21.5 980,-21.5"/>
<text text-anchor="start" x="988" y="-38.3" font-family="Helvetica,sans-Serif" font-size="9.00">de.tu_clausthal.in.bachelorproject2018.poker.game.hubs.</text>
<text text-anchor="middle" x="1124.5" y="-28.3" font-family="Helvetica,sans-Serif" font-size="9.00">GameHub.updatePlayerlist</text>
</a>
</g>
</g>
<!-- Node3&#45;&gt;Node4 -->
<g id="edge4" class="edge"><title>Node3&#45;&gt;Node4</title>
<path fill="none" stroke="midnightblue" d="M944.054,-35.5C952.591,-35.5 961.196,-35.5 969.772,-35.5"/>
<polygon fill="midnightblue" stroke="midnightblue" points="969.821,-39.0001 979.821,-35.5 969.821,-32.0001 969.821,-39.0001"/>
</g>
<!-- Node5 -->
<g id="node6" class="node"><title>Node5</title>
<g id="a_node6"><a xlink:href="../../d5/d36/interfacede_1_1tu__clausthal_1_1in_1_1bachelorproject2018_1_1poker_1_1game_1_1table_1_1ITable.htm#a6e42c7daa9c258015750347f2a5542fe" target="_top" xlink:title="liefert alle Spieler des Tisches ">
<polygon fill="none" stroke="black" points="1305,-21.5 1305,-49.5 1595,-49.5 1595,-21.5 1305,-21.5"/>
<text text-anchor="start" x="1313" y="-38.3" font-family="Helvetica,sans-Serif" font-size="9.00">de.tu_clausthal.in.bachelorproject2018.poker.game.table.</text>
<text text-anchor="middle" x="1450" y="-28.3" font-family="Helvetica,sans-Serif" font-size="9.00">ITable.list</text>
</a>
</g>
</g>
<!-- Node4&#45;&gt;Node5 -->
<g id="edge5" class="edge"><title>Node4&#45;&gt;Node5</title>
<path fill="none" stroke="midnightblue" d="M1269.28,-35.5C1277.67,-35.5 1286.14,-35.5 1294.57,-35.5"/>
<polygon fill="midnightblue" stroke="midnightblue" points="1294.85,-39.0001 1304.84,-35.5 1294.84,-32.0001 1294.85,-39.0001"/>
</g>
<!-- Node6&#45;&gt;Node3 -->
<g id="edge7" class="edge"><title>Node6&#45;&gt;Node3</title>
<path fill="none" stroke="midnightblue" d="M618.776,-23.8332C627.387,-24.3922 636.067,-24.9557 644.717,-25.5172"/>
<polygon fill="midnightblue" stroke="midnightblue" points="644.646,-29.0198 654.851,-26.175 645.099,-22.0345 644.646,-29.0198"/>
</g>
</g>
</svg>
